{
  "header": {
    "keySignatures": [],
    "meta": [
      {
        "text": "Copyright (c) 2012 Prosonic Studios, LLC",
        "ticks": 0,
        "type": "copyrightNotice"
      }
    ],
    "name": "NA 6-8 NmlStr CONG",
    "ppq": 480,
    "tempos": [],
    "timeSignatures": [
      {
        "ticks": 0,
        "timeSignature": [
          6,
          8
        ],
        "measures": 0
      }
    ]
  },
  "tracks": [
    {
      "channel": 0,
      "controlChanges": {},
      "instrument": {
        "family": "piano",
        "name": "acoustic grand piano",
        "number": 0
      },
      "name": "NA_6-8_NmlStr_Congas_195",
      "notes": [
        {
          "duration": 0.028125,
          "durationTicks": 27,
          "midi": 63,
          "name": "D#4",
          "ticks": 3,
          "time": 0.003125,
          "velocity": 0.8188976377952756
        },
        {
          "duration": 0.03333333333333334,
          "durationTicks": 32,
          "midi": 63,
          "name": "D#4",
          "ticks": 118,
          "time": 0.12291666666666666,
          "velocity": 0.4645669291338583
        },
        {
          "duration": 0.03229166666666666,
          "durationTicks": 31,
          "midi": 62,
          "name": "D4",
          "ticks": 239,
          "time": 0.24895833333333334,
          "velocity": 0.6299212598425197
        },
        {
          "duration": 0.03125,
          "durationTicks": 30,
          "midi": 63,
          "name": "D#4",
          "ticks": 480,
          "time": 0.5,
          "velocity": 0.8267716535433071
        },
        {
          "duration": 0.029166666666666674,
          "durationTicks": 28,
          "midi": 63,
          "name": "D#4",
          "ticks": 842,
          "time": 0.8770833333333333,
          "velocity": 0.4566929133858268
        },
        {
          "duration": 0.030208333333333393,
          "durationTicks": 29,
          "midi": 62,
          "name": "D4",
          "ticks": 961,
          "time": 1.0010416666666666,
          "velocity": 0.6141732283464567
        },
        {
          "duration": 0.03541666666666665,
          "durationTicks": 34,
          "midi": 62,
          "name": "D4",
          "ticks": 1076,
          "time": 1.1208333333333333,
          "velocity": 0.5039370078740157
        },
        {
          "duration": 0.029166666666666563,
          "durationTicks": 28,
          "midi": 64,
          "name": "E4",
          "ticks": 1202,
          "time": 1.2520833333333334,
          "velocity": 0.8188976377952756
        },
        {
          "duration": 0.030208333333333393,
          "durationTicks": 29,
          "midi": 63,
          "name": "D#4",
          "ticks": 1441,
          "time": 1.5010416666666666,
          "velocity": 0.8188976377952756
        },
        {
          "duration": 0.03125,
          "durationTicks": 30,
          "midi": 63,
          "name": "D#4",
          "ticks": 1560,
          "time": 1.625,
          "velocity": 0.49606299212598426
        },
        {
          "duration": 0.030208333333333393,
          "durationTicks": 29,
          "midi": 62,
          "name": "D4",
          "ticks": 1681,
          "time": 1.7510416666666666,
          "velocity": 0.5984251968503937
        },
        {
          "duration": 0.029166666666666563,
          "durationTicks": 28,
          "midi": 63,
          "name": "D#4",
          "ticks": 1802,
          "time": 1.8770833333333334,
          "velocity": 0.4645669291338583
        },
        {
          "duration": 0.035416666666666874,
          "durationTicks": 34,
          "midi": 63,
          "name": "D#4",
          "ticks": 2036,
          "time": 2.120833333333333,
          "velocity": 0.5118110236220472
        },
        {
          "duration": 0.03437499999999982,
          "durationTicks": 33,
          "midi": 63,
          "name": "D#4",
          "ticks": 2157,
          "time": 2.246875,
          "velocity": 0.8031496062992126
        },
        {
          "duration": 0.029166666666666785,
          "durationTicks": 28,
          "midi": 62,
          "name": "D4",
          "ticks": 2402,
          "time": 2.502083333333333,
          "velocity": 0.6220472440944882
        },
        {
          "duration": 0.030208333333333393,
          "durationTicks": 29,
          "midi": 64,
          "name": "E4",
          "ticks": 2641,
          "time": 2.7510416666666666,
          "velocity": 0.8031496062992126
        },
        {
          "duration": 0.029166666666666785,
          "durationTicks": 28,
          "midi": 63,
          "name": "D#4",
          "ticks": 2882,
          "time": 3.002083333333333,
          "velocity": 0.7952755905511811
        },
        {
          "duration": 0.03125,
          "durationTicks": 30,
          "midi": 63,
          "name": "D#4",
          "ticks": 3000,
          "time": 3.125,
          "velocity": 0.4566929133858268
        },
        {
          "duration": 0.033333333333333215,
          "durationTicks": 32,
          "midi": 62,
          "name": "D4",
          "ticks": 3118,
          "time": 3.247916666666667,
          "velocity": 0.6377952755905512
        },
        {
          "duration": 0.035416666666666874,
          "durationTicks": 34,
          "midi": 63,
          "name": "D#4",
          "ticks": 3236,
          "time": 3.370833333333333,
          "velocity": 0.4881889763779528
        },
        {
          "duration": 0.03229166666666661,
          "durationTicks": 31,
          "midi": 63,
          "name": "D#4",
          "ticks": 3479,
          "time": 3.6239583333333334,
          "velocity": 0.4566929133858268
        },
        {
          "duration": 0.029166666666666785,
          "durationTicks": 28,
          "midi": 63,
          "name": "D#4",
          "ticks": 3602,
          "time": 3.752083333333333,
          "velocity": 0.7952755905511811
        },
        {
          "duration": 0.033333333333333215,
          "durationTicks": 32,
          "midi": 63,
          "name": "D#4",
          "ticks": 3718,
          "time": 3.872916666666667,
          "velocity": 0.4645669291338583
        },
        {
          "duration": 0.035416666666666874,
          "durationTicks": 34,
          "midi": 62,
          "name": "D4",
          "ticks": 3836,
          "time": 3.995833333333333,
          "velocity": 0.6377952755905512
        },
        {
          "duration": 0.029166666666666785,
          "durationTicks": 28,
          "midi": 64,
          "name": "E4",
          "ticks": 4082,
          "time": 4.252083333333333,
          "velocity": 0.8031496062992126
        },
        {
          "duration": 0.033333333333333215,
          "durationTicks": 32,
          "midi": 63,
          "name": "D#4",
          "ticks": 4438,
          "time": 4.622916666666667,
          "velocity": 0.4881889763779528
        },
        {
          "duration": 0.03229166666666661,
          "durationTicks": 31,
          "midi": 62,
          "name": "D4",
          "ticks": 4559,
          "time": 4.748958333333333,
          "velocity": 0.6377952755905512
        },
        {
          "duration": 0.030208333333333393,
          "durationTicks": 29,
          "midi": 62,
          "name": "D4",
          "ticks": 4681,
          "time": 4.876041666666667,
          "velocity": 0.4566929133858268
        },
        {
          "duration": 0.030208333333333393,
          "durationTicks": 29,
          "midi": 64,
          "name": "E4",
          "ticks": 4801,
          "time": 5.001041666666667,
          "velocity": 0.8346456692913385
        },
        {
          "duration": 0.030208333333333393,
          "durationTicks": 29,
          "midi": 63,
          "name": "D#4",
          "ticks": 5161,
          "time": 5.376041666666667,
          "velocity": 0.4645669291338583
        },
        {
          "duration": 0.03437499999999982,
          "durationTicks": 33,
          "midi": 62,
          "name": "D4",
          "ticks": 5277,
          "time": 5.496875,
          "velocity": 0.6141732283464567
        },
        {
          "duration": 0.03229166666666661,
          "durationTicks": 31,
          "midi": 62,
          "name": "D4",
          "ticks": 5399,
          "time": 5.623958333333333,
          "velocity": 0.49606299212598426
        },
        {
          "duration": 0.033333333333333215,
          "durationTicks": 32,
          "midi": 64,
          "name": "E4",
          "ticks": 5518,
          "time": 5.747916666666667,
          "velocity": 0.8031496062992126
        }
      ]
    }
  ]
}
