{
  "header": {
    "keySignatures": [],
    "meta": [],
    "name": "",
    "ppq": 46,
    "tempos": [
      {
        "bpm": 120,
        "ticks": 0
      }
    ],
    "timeSignatures": []
  },
  "tracks": [
    {
      "channel": 0,
      "controlChanges": {},
      "pitchBends": [],
      "instrument": {
        "family": "percussive",
        "name": "taiko drum",
        "number": 117
      },
      "name": "",
      "notes": [
        {
          "duration": 0.06521739130434782,
          "durationTicks": 6,
          "midi": 75,
          "name": "D#5",
          "ticks": 0,
          "time": 0,
          "velocity": 0.3700787401574803
        },
        {
          "duration": 0.05434782608695652,
          "durationTicks": 5,
          "midi": 82,
          "name": "A#5",
          "ticks": 0,
          "time": 0,
          "velocity": 0.41732283464566927
        },
        {
          "duration": 0.05434782608695652,
          "durationTicks": 5,
          "midi": 84,
          "name": "C6",
          "ticks": 0,
          "time": 0,
          "velocity": 0.41732283464566927
        },
        {
          "duration": 0.05434782608695652,
          "durationTicks": 5,
          "midi": 89,
          "name": "F6",
          "ticks": 0,
          "time": 0,
          "velocity": 0.4330708661417323
        },
        {
          "duration": 0.021739130434782608,
          "durationTicks": 2,
          "midi": 67,
          "name": "G4",
          "ticks": 1,
          "time": 0.010869565217391304,
          "velocity": 0.25196850393700787
        },
        {
          "duration": 0.03260869565217391,
          "durationTicks": 3,
          "midi": 70,
          "name": "A#4",
          "ticks": 1,
          "time": 0.010869565217391304,
          "velocity": 0.2992125984251969
        },
        {
          "duration": 0.043478260869565216,
          "durationTicks": 4,
          "midi": 86,
          "name": "D6",
          "ticks": 1,
          "time": 0.010869565217391304,
          "velocity": 0.25196850393700787
        },
        {
          "duration": 0.11956521739130435,
          "durationTicks": 11,
          "midi": 88,
          "name": "E6",
          "ticks": 1,
          "time": 0.010869565217391304,
          "velocity": 0.4330708661417323
        },
        {
          "duration": 0.03260869565217391,
          "durationTicks": 3,
          "midi": 91,
          "name": "G6",
          "ticks": 1,
          "time": 0.010869565217391304,
          "velocity": 0.3543307086614173
        },
        {
          "duration": 0.05434782608695652,
          "durationTicks": 5,
          "midi": 92,
          "name": "G#6",
          "ticks": 1,
          "time": 0.010869565217391304,
          "velocity": 0.25196850393700787
        },
        {
          "duration": 0.021739130434782608,
          "durationTicks": 2,
          "midi": 77,
          "name": "F5",
          "ticks": 2,
          "time": 0.021739130434782608,
          "velocity": 0.2440944881889764
        },
        {
          "duration": 0.05434782608695652,
          "durationTicks": 5,
          "midi": 66,
          "name": "F#4",
          "ticks": 3,
          "time": 0.03260869565217391,
          "velocity": 0.29133858267716534
        },
        {
          "duration": 0.09782608695652173,
          "durationTicks": 9,
          "midi": 81,
          "name": "A5",
          "ticks": 4,
          "time": 0.043478260869565216,
          "velocity": 0.1889763779527559
        },
        {
          "duration": 0.03260869565217392,
          "durationTicks": 3,
          "midi": 85,
          "name": "C#6",
          "ticks": 4,
          "time": 0.043478260869565216,
          "velocity": 0.1889763779527559
        },
        {
          "duration": 0.03260869565217392,
          "durationTicks": 3,
          "midi": 73,
          "name": "C#5",
          "ticks": 6,
          "time": 0.06521739130434782,
          "velocity": 0.13385826771653545
        },
        {
          "duration": 0.08695652173913045,
          "durationTicks": 8,
          "midi": 86,
          "name": "D6",
          "ticks": 6,
          "time": 0.06521739130434782,
          "velocity": 0.1889763779527559
        },
        {
          "duration": 0.03260869565217392,
          "durationTicks": 3,
          "midi": 67,
          "name": "G4",
          "ticks": 8,
          "time": 0.08695652173913043,
          "velocity": 0.1889763779527559
        },
        {
          "duration": 0.043478260869565216,
          "durationTicks": 4,
          "midi": 84,
          "name": "C6",
          "ticks": 8,
          "time": 0.08695652173913043,
          "velocity": 0.1732283464566929
        },
        {
          "duration": 0.14130434782608697,
          "durationTicks": 13,
          "midi": 89,
          "name": "F6",
          "ticks": 9,
          "time": 0.09782608695652174,
          "velocity": 0.1732283464566929
        },
        {
          "duration": 0.16304347826086957,
          "durationTicks": 15,
          "midi": 92,
          "name": "G#6",
          "ticks": 9,
          "time": 0.09782608695652174,
          "velocity": 0.18110236220472442
        },
        {
          "duration": 0.09782608695652173,
          "durationTicks": 9,
          "midi": 83,
          "name": "B5",
          "ticks": 11,
          "time": 0.11956521739130435,
          "velocity": 0.14173228346456693
        },
        {
          "duration": 0.03260869565217392,
          "durationTicks": 3,
          "midi": 80,
          "name": "G#5",
          "ticks": 12,
          "time": 0.13043478260869565,
          "velocity": 0.1732283464566929
        },
        {
          "duration": 0.05434782608695651,
          "durationTicks": 5,
          "midi": 87,
          "name": "D#6",
          "ticks": 12,
          "time": 0.13043478260869565,
          "velocity": 0.1889763779527559
        },
        {
          "duration": 0.06521739130434784,
          "durationTicks": 6,
          "midi": 66,
          "name": "F#4",
          "ticks": 13,
          "time": 0.14130434782608695,
          "velocity": 0.2755905511811024
        },
        {
          "duration": 0.03260869565217392,
          "durationTicks": 3,
          "midi": 85,
          "name": "C#6",
          "ticks": 13,
          "time": 0.14130434782608695,
          "velocity": 0.12598425196850394
        },
        {
          "duration": 0.07608695652173914,
          "durationTicks": 7,
          "midi": 88,
          "name": "E6",
          "ticks": 13,
          "time": 0.14130434782608695,
          "velocity": 0.1889763779527559
        },
        {
          "duration": 0.043478260869565216,
          "durationTicks": 4,
          "midi": 81,
          "name": "A5",
          "ticks": 15,
          "time": 0.16304347826086957,
          "velocity": 0.18110236220472442
        },
        {
          "duration": 0.06521739130434781,
          "durationTicks": 6,
          "midi": 94,
          "name": "A#6",
          "ticks": 15,
          "time": 0.16304347826086957,
          "velocity": 0.09448818897637795
        },
        {
          "duration": 0.07608695652173914,
          "durationTicks": 7,
          "midi": 84,
          "name": "C6",
          "ticks": 16,
          "time": 0.17391304347826086,
          "velocity": 0.2204724409448819
        },
        {
          "duration": 0.10869565217391303,
          "durationTicks": 10,
          "midi": 86,
          "name": "D6",
          "ticks": 16,
          "time": 0.17391304347826086,
          "velocity": 0.25984251968503935
        },
        {
          "duration": 0.09782608695652176,
          "durationTicks": 9,
          "midi": 80,
          "name": "G#5",
          "ticks": 19,
          "time": 0.20652173913043478,
          "velocity": 0.2125984251968504
        },
        {
          "duration": 0.05434782608695651,
          "durationTicks": 5,
          "midi": 66,
          "name": "F#4",
          "ticks": 20,
          "time": 0.21739130434782608,
          "velocity": 0.2283464566929134
        },
        {
          "duration": 0.043478260869565216,
          "durationTicks": 4,
          "midi": 81,
          "name": "A5",
          "ticks": 20,
          "time": 0.21739130434782608,
          "velocity": 0.13385826771653545
        },
        {
          "duration": 0.06521739130434787,
          "durationTicks": 6,
          "midi": 75,
          "name": "D#5",
          "ticks": 21,
          "time": 0.22826086956521738,
          "velocity": 0.31496062992125984
        },
        {
          "duration": 0.09782608695652176,
          "durationTicks": 9,
          "midi": 88,
          "name": "E6",
          "ticks": 21,
          "time": 0.22826086956521738,
          "velocity": 0.15748031496062992
        },
        {
          "duration": 0.08695652173913046,
          "durationTicks": 8,
          "midi": 90,
          "name": "F#6",
          "ticks": 21,
          "time": 0.22826086956521738,
          "velocity": 0.2283464566929134
        },
        {
          "duration": 0.06521739130434784,
          "durationTicks": 6,
          "midi": 89,
          "name": "F6",
          "ticks": 23,
          "time": 0.25,
          "velocity": 0.2283464566929134
        },
        {
          "duration": 0.06521739130434784,
          "durationTicks": 6,
          "midi": 73,
          "name": "C#5",
          "ticks": 24,
          "time": 0.2608695652173913,
          "velocity": 0.3858267716535433
        },
        {
          "duration": 0.05434782608695654,
          "durationTicks": 5,
          "midi": 82,
          "name": "A#5",
          "ticks": 24,
          "time": 0.2608695652173913,
          "velocity": 0.18110236220472442
        },
        {
          "duration": 0.02173913043478265,
          "durationTicks": 2,
          "midi": 70,
          "name": "A#4",
          "ticks": 25,
          "time": 0.2717391304347826,
          "velocity": 0.3464566929133858
        },
        {
          "duration": 0.05434782608695654,
          "durationTicks": 5,
          "midi": 77,
          "name": "F5",
          "ticks": 25,
          "time": 0.2717391304347826,
          "velocity": 0.3228346456692913
        },
        {
          "duration": 0.02173913043478265,
          "durationTicks": 2,
          "midi": 68,
          "name": "G#4",
          "ticks": 26,
          "time": 0.2826086956521739,
          "velocity": 0.33858267716535434
        },
        {
          "duration": 0.05434782608695654,
          "durationTicks": 5,
          "midi": 91,
          "name": "G6",
          "ticks": 26,
          "time": 0.2826086956521739,
          "velocity": 0.1732283464566929
        },
        {
          "duration": 0.043478260869565244,
          "durationTicks": 4,
          "midi": 92,
          "name": "G#6",
          "ticks": 26,
          "time": 0.2826086956521739,
          "velocity": 0.2677165354330709
        },
        {
          "duration": 0.043478260869565244,
          "durationTicks": 4,
          "midi": 93,
          "name": "A6",
          "ticks": 26,
          "time": 0.2826086956521739,
          "velocity": 0.3543307086614173
        },
        {
          "duration": 0.05434782608695654,
          "durationTicks": 5,
          "midi": 94,
          "name": "A#6",
          "ticks": 26,
          "time": 0.2826086956521739,
          "velocity": 0.1968503937007874
        },
        {
          "duration": 0.03260869565217395,
          "durationTicks": 3,
          "midi": 95,
          "name": "B6",
          "ticks": 26,
          "time": 0.2826086956521739,
          "velocity": 0.13385826771653545
        },
        {
          "duration": 0.03260869565217395,
          "durationTicks": 3,
          "midi": 96,
          "name": "C7",
          "ticks": 26,
          "time": 0.2826086956521739,
          "velocity": 0.15748031496062992
        },
        {
          "duration": 0.03260869565217395,
          "durationTicks": 3,
          "midi": 98,
          "name": "D7",
          "ticks": 26,
          "time": 0.2826086956521739,
          "velocity": 0.18110236220472442
        },
        {
          "duration": 0.03260869565217395,
          "durationTicks": 3,
          "midi": 99,
          "name": "D#7",
          "ticks": 26,
          "time": 0.2826086956521739,
          "velocity": 0.29133858267716534
        },
        {
          "duration": 0.03260869565217395,
          "durationTicks": 3,
          "midi": 100,
          "name": "E7",
          "ticks": 26,
          "time": 0.2826086956521739,
          "velocity": 0.2125984251968504
        },
        {
          "duration": 0.03260869565217395,
          "durationTicks": 3,
          "midi": 103,
          "name": "G7",
          "ticks": 26,
          "time": 0.2826086956521739,
          "velocity": 0.1732283464566929
        },
        {
          "duration": 0.03260869565217389,
          "durationTicks": 3,
          "midi": 84,
          "name": "C6",
          "ticks": 27,
          "time": 0.29347826086956524,
          "velocity": 0.15748031496062992
        },
        {
          "duration": 0.03260869565217389,
          "durationTicks": 3,
          "midi": 67,
          "name": "G4",
          "ticks": 28,
          "time": 0.30434782608695654,
          "velocity": 0.29133858267716534
        },
        {
          "duration": 0.054347826086956486,
          "durationTicks": 5,
          "midi": 72,
          "name": "C5",
          "ticks": 28,
          "time": 0.30434782608695654,
          "velocity": 0.28346456692913385
        },
        {
          "duration": 0.06521739130434778,
          "durationTicks": 6,
          "midi": 81,
          "name": "A5",
          "ticks": 28,
          "time": 0.30434782608695654,
          "velocity": 0.2047244094488189
        },
        {
          "duration": 0.054347826086956486,
          "durationTicks": 5,
          "midi": 86,
          "name": "D6",
          "ticks": 28,
          "time": 0.30434782608695654,
          "velocity": 0.08661417322834646
        },
        {
          "duration": 0.021739130434782594,
          "durationTicks": 2,
          "midi": 62,
          "name": "D4",
          "ticks": 29,
          "time": 0.31521739130434784,
          "velocity": 0.29133858267716534
        },
        {
          "duration": 0.054347826086956486,
          "durationTicks": 5,
          "midi": 78,
          "name": "F#5",
          "ticks": 29,
          "time": 0.31521739130434784,
          "velocity": 0.1889763779527559
        },
        {
          "duration": 0.043478260869565244,
          "durationTicks": 4,
          "midi": 69,
          "name": "A4",
          "ticks": 31,
          "time": 0.33695652173913043,
          "velocity": 0.2992125984251969
        },
        {
          "duration": 0.021739130434782594,
          "durationTicks": 2,
          "midi": 65,
          "name": "F4",
          "ticks": 32,
          "time": 0.34782608695652173,
          "velocity": 0.25984251968503935
        },
        {
          "duration": 0.15217391304347833,
          "durationTicks": 14,
          "midi": 61,
          "name": "C#4",
          "ticks": 33,
          "time": 0.358695652173913,
          "velocity": 0.3228346456692913
        },
        {
          "duration": 0.05434782608695654,
          "durationTicks": 5,
          "midi": 77,
          "name": "F5",
          "ticks": 33,
          "time": 0.358695652173913,
          "velocity": 0.41732283464566927
        },
        {
          "duration": 0.043478260869565244,
          "durationTicks": 4,
          "midi": 90,
          "name": "F#6",
          "ticks": 33,
          "time": 0.358695652173913,
          "velocity": 0.2992125984251969
        },
        {
          "duration": 0.043478260869565244,
          "durationTicks": 4,
          "midi": 82,
          "name": "A#5",
          "ticks": 34,
          "time": 0.3695652173913043,
          "velocity": 0.4330708661417323
        },
        {
          "duration": 0.03260869565217395,
          "durationTicks": 3,
          "midi": 95,
          "name": "B6",
          "ticks": 34,
          "time": 0.3695652173913043,
          "velocity": 0.14960629921259844
        },
        {
          "duration": 0.04347826086956519,
          "durationTicks": 4,
          "midi": 70,
          "name": "A#4",
          "ticks": 35,
          "time": 0.3804347826086957,
          "velocity": 0.33070866141732286
        },
        {
          "duration": 0.03260869565217389,
          "durationTicks": 3,
          "midi": 84,
          "name": "C6",
          "ticks": 35,
          "time": 0.3804347826086957,
          "velocity": 0.3464566929133858
        },
        {
          "duration": 0.054347826086956486,
          "durationTicks": 5,
          "midi": 88,
          "name": "E6",
          "ticks": 35,
          "time": 0.3804347826086957,
          "velocity": 0.25984251968503935
        },
        {
          "duration": 0.054347826086956486,
          "durationTicks": 5,
          "midi": 66,
          "name": "F#4",
          "ticks": 36,
          "time": 0.391304347826087,
          "velocity": 0.3543307086614173
        },
        {
          "duration": 0.021739130434782594,
          "durationTicks": 2,
          "midi": 75,
          "name": "D#5",
          "ticks": 36,
          "time": 0.391304347826087,
          "velocity": 0.36220472440944884
        },
        {
          "duration": 0.03260869565217389,
          "durationTicks": 3,
          "midi": 80,
          "name": "G#5",
          "ticks": 36,
          "time": 0.391304347826087,
          "velocity": 0.25196850393700787
        },
        {
          "duration": 0.04347826086956519,
          "durationTicks": 4,
          "midi": 91,
          "name": "G6",
          "ticks": 36,
          "time": 0.391304347826087,
          "velocity": 0.1732283464566929
        },
        {
          "duration": 0.03260869565217389,
          "durationTicks": 3,
          "midi": 77,
          "name": "F5",
          "ticks": 39,
          "time": 0.42391304347826086,
          "velocity": 0.2047244094488189
        },
        {
          "duration": 0.0652173913043479,
          "durationTicks": 6,
          "midi": 67,
          "name": "G4",
          "ticks": 41,
          "time": 0.44565217391304346,
          "velocity": 0.4015748031496063
        },
        {
          "duration": 0.02173913043478265,
          "durationTicks": 2,
          "midi": 71,
          "name": "B4",
          "ticks": 41,
          "time": 0.44565217391304346,
          "velocity": 0.28346456692913385
        },
        {
          "duration": 0.043478260869565244,
          "durationTicks": 4,
          "midi": 81,
          "name": "A5",
          "ticks": 41,
          "time": 0.44565217391304346,
          "velocity": 0.1889763779527559
        },
        {
          "duration": 0.03260869565217395,
          "durationTicks": 3,
          "midi": 76,
          "name": "E5",
          "ticks": 42,
          "time": 0.45652173913043476,
          "velocity": 0.2440944881889764
        },
        {
          "duration": 0.021739130434782594,
          "durationTicks": 2,
          "midi": 70,
          "name": "A#4",
          "ticks": 43,
          "time": 0.4673913043478261,
          "velocity": 0.2283464566929134
        },
        {
          "duration": 0.07608695652173908,
          "durationTicks": 7,
          "midi": 85,
          "name": "C#6",
          "ticks": 43,
          "time": 0.4673913043478261,
          "velocity": 0.29133858267716534
        },
        {
          "duration": 0.021739130434782594,
          "durationTicks": 2,
          "midi": 71,
          "name": "B4",
          "ticks": 44,
          "time": 0.4782608695652174,
          "velocity": 0.2992125984251969
        },
        {
          "duration": 0.04347826086956519,
          "durationTicks": 4,
          "midi": 86,
          "name": "D6",
          "ticks": 44,
          "time": 0.4782608695652174,
          "velocity": 0.2755905511811024
        },
        {
          "duration": 0.043478260869565244,
          "durationTicks": 4,
          "midi": 77,
          "name": "F5",
          "ticks": 45,
          "time": 0.4891304347826087,
          "velocity": 0.41732283464566927
        },
        {
          "duration": 0.02173913043478265,
          "durationTicks": 2,
          "midi": 80,
          "name": "G#5",
          "ticks": 45,
          "time": 0.4891304347826087,
          "velocity": 0.30708661417322836
        },
        {
          "duration": 0.06521739130434784,
          "durationTicks": 6,
          "midi": 82,
          "name": "A#5",
          "ticks": 45,
          "time": 0.4891304347826087,
          "velocity": 0.25984251968503935
        },
        {
          "duration": 0.06521739130434784,
          "durationTicks": 6,
          "midi": 84,
          "name": "C6",
          "ticks": 45,
          "time": 0.4891304347826087,
          "velocity": 0.28346456692913385
        },
        {
          "duration": 0.054347826086956486,
          "durationTicks": 5,
          "midi": 87,
          "name": "D#6",
          "ticks": 45,
          "time": 0.4891304347826087,
          "velocity": 0.2204724409448819
        },
        {
          "duration": 0.13043478260869562,
          "durationTicks": 12,
          "midi": 88,
          "name": "E6",
          "ticks": 45,
          "time": 0.4891304347826087,
          "velocity": 0.2755905511811024
        },
        {
          "duration": 0.054347826086956486,
          "durationTicks": 5,
          "midi": 90,
          "name": "F#6",
          "ticks": 45,
          "time": 0.4891304347826087,
          "velocity": 0.3464566929133858
        },
        {
          "duration": 0.043478260869565244,
          "durationTicks": 4,
          "midi": 93,
          "name": "A6",
          "ticks": 45,
          "time": 0.4891304347826087,
          "velocity": 0.14173228346456693
        },
        {
          "duration": 0.021739130434782594,
          "durationTicks": 2,
          "midi": 73,
          "name": "C#5",
          "ticks": 46,
          "time": 0.5,
          "velocity": 0.44881889763779526
        },
        {
          "duration": 0.04347826086956519,
          "durationTicks": 4,
          "midi": 62,
          "name": "D4",
          "ticks": 47,
          "time": 0.5108695652173914,
          "velocity": 0.2677165354330709
        },
        {
          "duration": 0.05434782608695643,
          "durationTicks": 5,
          "midi": 66,
          "name": "F#4",
          "ticks": 47,
          "time": 0.5108695652173914,
          "velocity": 0.3858267716535433
        },
        {
          "duration": 0.021739130434782594,
          "durationTicks": 2,
          "midi": 71,
          "name": "B4",
          "ticks": 48,
          "time": 0.5217391304347826,
          "velocity": 0.25196850393700787
        },
        {
          "duration": 0.05434782608695654,
          "durationTicks": 5,
          "midi": 91,
          "name": "G6",
          "ticks": 49,
          "time": 0.532608695652174,
          "velocity": 0.18110236220472442
        },
        {
          "duration": 0.021739130434782594,
          "durationTicks": 2,
          "midi": 86,
          "name": "D6",
          "ticks": 50,
          "time": 0.5434782608695652,
          "velocity": 0.2283464566929134
        },
        {
          "duration": 0.021739130434782594,
          "durationTicks": 2,
          "midi": 74,
          "name": "D5",
          "ticks": 51,
          "time": 0.5543478260869565,
          "velocity": 0.29133858267716534
        },
        {
          "duration": 0.06521739130434778,
          "durationTicks": 6,
          "midi": 77,
          "name": "F5",
          "ticks": 51,
          "time": 0.5543478260869565,
          "velocity": 0.2125984251968504
        },
        {
          "duration": 0.04347826086956519,
          "durationTicks": 4,
          "midi": 85,
          "name": "C#6",
          "ticks": 51,
          "time": 0.5543478260869565,
          "velocity": 0.23622047244094488
        },
        {
          "duration": 0.0434782608695653,
          "durationTicks": 4,
          "midi": 61,
          "name": "C#4",
          "ticks": 52,
          "time": 0.5652173913043478,
          "velocity": 0.3779527559055118
        },
        {
          "duration": 0.021739130434782705,
          "durationTicks": 2,
          "midi": 67,
          "name": "G4",
          "ticks": 52,
          "time": 0.5652173913043478,
          "velocity": 0.30708661417322836
        },
        {
          "duration": 0.03260869565217395,
          "durationTicks": 3,
          "midi": 82,
          "name": "A#5",
          "ticks": 52,
          "time": 0.5652173913043478,
          "velocity": 0.15748031496062992
        },
        {
          "duration": 0.0652173913043479,
          "durationTicks": 6,
          "midi": 92,
          "name": "G#6",
          "ticks": 52,
          "time": 0.5652173913043478,
          "velocity": 0.08661417322834646
        },
        {
          "duration": 0.07608695652173914,
          "durationTicks": 7,
          "midi": 84,
          "name": "C6",
          "ticks": 53,
          "time": 0.5760869565217391,
          "velocity": 0.2677165354330709
        },
        {
          "duration": 0.05434782608695643,
          "durationTicks": 5,
          "midi": 66,
          "name": "F#4",
          "ticks": 54,
          "time": 0.5869565217391305,
          "velocity": 0.28346456692913385
        },
        {
          "duration": 0.021739130434782594,
          "durationTicks": 2,
          "midi": 75,
          "name": "D#5",
          "ticks": 54,
          "time": 0.5869565217391305,
          "velocity": 0.2440944881889764
        },
        {
          "duration": 0.04347826086956519,
          "durationTicks": 4,
          "midi": 81,
          "name": "A5",
          "ticks": 54,
          "time": 0.5869565217391305,
          "velocity": 0.16535433070866143
        },
        {
          "duration": 0.021739130434782594,
          "durationTicks": 2,
          "midi": 71,
          "name": "B4",
          "ticks": 56,
          "time": 0.6086956521739131,
          "velocity": 0.25196850393700787
        },
        {
          "duration": 0.05434782608695643,
          "durationTicks": 5,
          "midi": 86,
          "name": "D6",
          "ticks": 56,
          "time": 0.6086956521739131,
          "velocity": 0.25984251968503935
        },
        {
          "duration": 0.021739130434782594,
          "durationTicks": 2,
          "midi": 69,
          "name": "A4",
          "ticks": 57,
          "time": 0.6195652173913043,
          "velocity": 0.2283464566929134
        },
        {
          "duration": 0.04347826086956519,
          "durationTicks": 4,
          "midi": 73,
          "name": "C#5",
          "ticks": 57,
          "time": 0.6195652173913043,
          "velocity": 0.23622047244094488
        },
        {
          "duration": 0.03260869565217395,
          "durationTicks": 3,
          "midi": 90,
          "name": "F#6",
          "ticks": 57,
          "time": 0.6195652173913043,
          "velocity": 0.13385826771653545
        },
        {
          "duration": 0.10869565217391308,
          "durationTicks": 10,
          "midi": 91,
          "name": "G6",
          "ticks": 57,
          "time": 0.6195652173913043,
          "velocity": 0.2047244094488189
        },
        {
          "duration": 0.04347826086956519,
          "durationTicks": 4,
          "midi": 80,
          "name": "G#5",
          "ticks": 58,
          "time": 0.6304347826086957,
          "velocity": 0.13385826771653545
        },
        {
          "duration": 0.07608695652173914,
          "durationTicks": 7,
          "midi": 82,
          "name": "A#5",
          "ticks": 58,
          "time": 0.6304347826086957,
          "velocity": 0.2204724409448819
        },
        {
          "duration": 0.05434782608695654,
          "durationTicks": 5,
          "midi": 61,
          "name": "C#4",
          "ticks": 59,
          "time": 0.6413043478260869,
          "velocity": 0.2992125984251969
        },
        {
          "duration": 0.0652173913043479,
          "durationTicks": 6,
          "midi": 78,
          "name": "F#5",
          "ticks": 59,
          "time": 0.6413043478260869,
          "velocity": 0.11811023622047244
        },
        {
          "duration": 0.021739130434782594,
          "durationTicks": 2,
          "midi": 68,
          "name": "G#4",
          "ticks": 60,
          "time": 0.6521739130434783,
          "velocity": 0.25196850393700787
        },
        {
          "duration": 0.021739130434782594,
          "durationTicks": 2,
          "midi": 72,
          "name": "C5",
          "ticks": 60,
          "time": 0.6521739130434783,
          "velocity": 0.31496062992125984
        },
        {
          "duration": 0.03260869565217395,
          "durationTicks": 3,
          "midi": 76,
          "name": "E5",
          "ticks": 60,
          "time": 0.6521739130434783,
          "velocity": 0.1732283464566929
        },
        {
          "duration": 0.03260869565217395,
          "durationTicks": 3,
          "midi": 83,
          "name": "B5",
          "ticks": 60,
          "time": 0.6521739130434783,
          "velocity": 0.14960629921259844
        },
        {
          "duration": 0.05434782608695654,
          "durationTicks": 5,
          "midi": 66,
          "name": "F#4",
          "ticks": 62,
          "time": 0.6739130434782609,
          "velocity": 0.2992125984251969
        },
        {
          "duration": 0.03260869565217395,
          "durationTicks": 3,
          "midi": 70,
          "name": "A#4",
          "ticks": 62,
          "time": 0.6739130434782609,
          "velocity": 0.1889763779527559
        },
        {
          "duration": 0.04347826086956519,
          "durationTicks": 4,
          "midi": 88,
          "name": "E6",
          "ticks": 62,
          "time": 0.6739130434782609,
          "velocity": 0.18110236220472442
        },
        {
          "duration": 0.05434782608695654,
          "durationTicks": 5,
          "midi": 84,
          "name": "C6",
          "ticks": 64,
          "time": 0.6956521739130435,
          "velocity": 0.2204724409448819
        },
        {
          "duration": 0.032608695652173836,
          "durationTicks": 3,
          "midi": 72,
          "name": "C5",
          "ticks": 65,
          "time": 0.7065217391304348,
          "velocity": 0.25984251968503935
        },
        {
          "duration": 0.04347826086956519,
          "durationTicks": 4,
          "midi": 77,
          "name": "F5",
          "ticks": 65,
          "time": 0.7065217391304348,
          "velocity": 0.2440944881889764
        },
        {
          "duration": 0.04347826086956519,
          "durationTicks": 4,
          "midi": 81,
          "name": "A5",
          "ticks": 65,
          "time": 0.7065217391304348,
          "velocity": 0.14173228346456693
        },
        {
          "duration": 0.032608695652173836,
          "durationTicks": 3,
          "midi": 83,
          "name": "B5",
          "ticks": 65,
          "time": 0.7065217391304348,
          "velocity": 0.1732283464566929
        },
        {
          "duration": 0.032608695652173836,
          "durationTicks": 3,
          "midi": 87,
          "name": "D#6",
          "ticks": 65,
          "time": 0.7065217391304348,
          "velocity": 0.10236220472440945
        },
        {
          "duration": 0.021739130434782594,
          "durationTicks": 2,
          "midi": 60,
          "name": "C4",
          "ticks": 66,
          "time": 0.717391304347826,
          "velocity": 0.28346456692913385
        },
        {
          "duration": 0.05434782608695654,
          "durationTicks": 5,
          "midi": 75,
          "name": "D#5",
          "ticks": 66,
          "time": 0.717391304347826,
          "velocity": 0.2755905511811024
        },
        {
          "duration": 0.021739130434782594,
          "durationTicks": 2,
          "midi": 67,
          "name": "G4",
          "ticks": 67,
          "time": 0.7282608695652174,
          "velocity": 0.3464566929133858
        },
        {
          "duration": 0.04347826086956519,
          "durationTicks": 4,
          "midi": 88,
          "name": "E6",
          "ticks": 67,
          "time": 0.7282608695652174,
          "velocity": 0.1968503937007874
        },
        {
          "duration": 0.021739130434782705,
          "durationTicks": 2,
          "midi": 52,
          "name": "E3",
          "ticks": 68,
          "time": 0.7391304347826086,
          "velocity": 0.5826771653543307
        },
        {
          "duration": 0.11956521739130443,
          "durationTicks": 11,
          "midi": 78,
          "name": "F#5",
          "ticks": 68,
          "time": 0.7391304347826086,
          "velocity": 0.28346456692913385
        },
        {
          "duration": 0.03260869565217395,
          "durationTicks": 3,
          "midi": 86,
          "name": "D6",
          "ticks": 68,
          "time": 0.7391304347826086,
          "velocity": 0.14173228346456693
        },
        {
          "duration": 0.021739130434782594,
          "durationTicks": 2,
          "midi": 66,
          "name": "F#4",
          "ticks": 69,
          "time": 0.75,
          "velocity": 0.41732283464566927
        },
        {
          "duration": 0.021739130434782594,
          "durationTicks": 2,
          "midi": 68,
          "name": "G#4",
          "ticks": 69,
          "time": 0.75,
          "velocity": 0.3543307086614173
        },
        {
          "duration": 0.010869565217391242,
          "durationTicks": 1,
          "midi": 49,
          "name": "C#3",
          "ticks": 70,
          "time": 0.7608695652173914,
          "velocity": 0.5984251968503937
        },
        {
          "duration": 0.17391304347826086,
          "durationTicks": 16,
          "midi": 47,
          "name": "B2",
          "ticks": 71,
          "time": 0.7717391304347826,
          "velocity": 0.48031496062992124
        },
        {
          "duration": 0.0652173913043479,
          "durationTicks": 6,
          "midi": 61,
          "name": "C#4",
          "ticks": 71,
          "time": 0.7717391304347826,
          "velocity": 0.3858267716535433
        },
        {
          "duration": 0.04347826086956519,
          "durationTicks": 4,
          "midi": 68,
          "name": "G#4",
          "ticks": 72,
          "time": 0.782608695652174,
          "velocity": 0.2755905511811024
        },
        {
          "duration": 0.05434782608695654,
          "durationTicks": 5,
          "midi": 74,
          "name": "D5",
          "ticks": 72,
          "time": 0.782608695652174,
          "velocity": 0.1732283464566929
        },
        {
          "duration": 0.03260869565217395,
          "durationTicks": 3,
          "midi": 55,
          "name": "G3",
          "ticks": 74,
          "time": 0.8043478260869565,
          "velocity": 0.2677165354330709
        },
        {
          "duration": 0.032608695652173836,
          "durationTicks": 3,
          "midi": 54,
          "name": "F#3",
          "ticks": 77,
          "time": 0.8369565217391305,
          "velocity": 0.31496062992125984
        },
        {
          "duration": 0.07608695652173902,
          "durationTicks": 7,
          "midi": 68,
          "name": "G#4",
          "ticks": 77,
          "time": 0.8369565217391305,
          "velocity": 0.25196850393700787
        },
        {
          "duration": 0.021739130434782594,
          "durationTicks": 2,
          "midi": 55,
          "name": "G3",
          "ticks": 80,
          "time": 0.8695652173913043,
          "velocity": 0.2755905511811024
        },
        {
          "duration": 0.0652173913043479,
          "durationTicks": 6,
          "midi": 61,
          "name": "C#4",
          "ticks": 80,
          "time": 0.8695652173913043,
          "velocity": 0.25984251968503935
        },
        {
          "duration": 0.06521739130434778,
          "durationTicks": 6,
          "midi": 54,
          "name": "F#3",
          "ticks": 83,
          "time": 0.9021739130434783,
          "velocity": 0.33858267716535434
        },
        {
          "duration": 0.03260869565217395,
          "durationTicks": 3,
          "midi": 70,
          "name": "A#4",
          "ticks": 85,
          "time": 0.9239130434782609,
          "velocity": 0.14173228346456693
        },
        {
          "duration": 0.03260869565217395,
          "durationTicks": 3,
          "midi": 48,
          "name": "C3",
          "ticks": 87,
          "time": 0.9456521739130435,
          "velocity": 0.1968503937007874
        },
        {
          "duration": 0.021739130434782594,
          "durationTicks": 2,
          "midi": 60,
          "name": "C4",
          "ticks": 88,
          "time": 0.9565217391304348,
          "velocity": 0.28346456692913385
        },
        {
          "duration": 0.021739130434782594,
          "durationTicks": 2,
          "midi": 55,
          "name": "G3",
          "ticks": 89,
          "time": 0.967391304347826,
          "velocity": 0.28346456692913385
        },
        {
          "duration": 0.05434782608695665,
          "durationTicks": 5,
          "midi": 73,
          "name": "C#5",
          "ticks": 89,
          "time": 0.967391304347826,
          "velocity": 0.2125984251968504
        },
        {
          "duration": 0.09782608695652173,
          "durationTicks": 9,
          "midi": 78,
          "name": "F#5",
          "ticks": 91,
          "time": 0.9891304347826086,
          "velocity": 0.2440944881889764
        },
        {
          "duration": 0.010869565217391353,
          "durationTicks": 1,
          "midi": 52,
          "name": "E3",
          "ticks": 92,
          "time": 1,
          "velocity": 0.5826771653543307
        },
        {
          "duration": 0.010869565217391353,
          "durationTicks": 1,
          "midi": 49,
          "name": "C#3",
          "ticks": 93,
          "time": 1.0108695652173914,
          "velocity": 0.5590551181102362
        },
        {
          "duration": 0.021739130434782483,
          "durationTicks": 2,
          "midi": 67,
          "name": "G4",
          "ticks": 93,
          "time": 1.0108695652173914,
          "velocity": 0.3700787401574803
        },
        {
          "duration": 0.17391304347826075,
          "durationTicks": 16,
          "midi": 47,
          "name": "B2",
          "ticks": 94,
          "time": 1.0217391304347827,
          "velocity": 0.4645669291338583
        },
        {
          "duration": 0.06521739130434767,
          "durationTicks": 6,
          "midi": 61,
          "name": "C#4",
          "ticks": 94,
          "time": 1.0217391304347827,
          "velocity": 0.3858267716535433
        },
        {
          "duration": 0.06521739130434767,
          "durationTicks": 6,
          "midi": 74,
          "name": "D5",
          "ticks": 94,
          "time": 1.0217391304347827,
          "velocity": 0.2204724409448819
        },
        {
          "duration": 0.021739130434782483,
          "durationTicks": 2,
          "midi": 68,
          "name": "G#4",
          "ticks": 97,
          "time": 1.0543478260869565,
          "velocity": 0.23622047244094488
        },
        {
          "duration": 0.021739130434782483,
          "durationTicks": 2,
          "midi": 55,
          "name": "G3",
          "ticks": 98,
          "time": 1.065217391304348,
          "velocity": 0.2283464566929134
        },
        {
          "duration": 0.03260869565217406,
          "durationTicks": 3,
          "midi": 54,
          "name": "F#3",
          "ticks": 100,
          "time": 1.0869565217391304,
          "velocity": 0.2755905511811024
        },
        {
          "duration": 0.07608695652173925,
          "durationTicks": 7,
          "midi": 68,
          "name": "G#4",
          "ticks": 100,
          "time": 1.0869565217391304,
          "velocity": 0.25196850393700787
        },
        {
          "duration": 0.05434782608695654,
          "durationTicks": 5,
          "midi": 61,
          "name": "C#4",
          "ticks": 103,
          "time": 1.1195652173913044,
          "velocity": 0.25196850393700787
        },
        {
          "duration": 0.0652173913043479,
          "durationTicks": 6,
          "midi": 54,
          "name": "F#3",
          "ticks": 106,
          "time": 1.1521739130434783,
          "velocity": 0.31496062992125984
        },
        {
          "duration": 0.032608695652173836,
          "durationTicks": 3,
          "midi": 70,
          "name": "A#4",
          "ticks": 108,
          "time": 1.173913043478261,
          "velocity": 0.14173228346456693
        },
        {
          "duration": 0.021739130434782483,
          "durationTicks": 2,
          "midi": 61,
          "name": "C#4",
          "ticks": 111,
          "time": 1.2065217391304348,
          "velocity": 0.36220472440944884
        },
        {
          "duration": 0.021739130434782483,
          "durationTicks": 2,
          "midi": 53,
          "name": "F3",
          "ticks": 112,
          "time": 1.2173913043478262,
          "velocity": 0.5118110236220472
        },
        {
          "duration": 0.04347826086956519,
          "durationTicks": 4,
          "midi": 56,
          "name": "G#3",
          "ticks": 112,
          "time": 1.2173913043478262,
          "velocity": 0.5275590551181102
        },
        {
          "duration": 0.021739130434782483,
          "durationTicks": 2,
          "midi": 67,
          "name": "G4",
          "ticks": 112,
          "time": 1.2173913043478262,
          "velocity": 0.3858267716535433
        },
        {
          "duration": 0.021739130434782705,
          "durationTicks": 2,
          "midi": 71,
          "name": "B4",
          "ticks": 113,
          "time": 1.2282608695652173,
          "velocity": 0.25196850393700787
        },
        {
          "duration": 0.021739130434782705,
          "durationTicks": 2,
          "midi": 74,
          "name": "D5",
          "ticks": 113,
          "time": 1.2282608695652173,
          "velocity": 0.2283464566929134
        },
        {
          "duration": 0.03260869565217406,
          "durationTicks": 3,
          "midi": 78,
          "name": "F#5",
          "ticks": 113,
          "time": 1.2282608695652173,
          "velocity": 0.28346456692913385
        },
        {
          "duration": 0.010869565217391353,
          "durationTicks": 1,
          "midi": 49,
          "name": "C#3",
          "ticks": 114,
          "time": 1.2391304347826086,
          "velocity": 0.6062992125984252
        },
        {
          "duration": 0.03260869565217406,
          "durationTicks": 3,
          "midi": 84,
          "name": "C6",
          "ticks": 114,
          "time": 1.2391304347826086,
          "velocity": 0.11023622047244094
        },
        {
          "duration": 0.021739130434782705,
          "durationTicks": 2,
          "midi": 47,
          "name": "B2",
          "ticks": 115,
          "time": 1.25,
          "velocity": 0.5118110236220472
        },
        {
          "duration": 0.04347826086956519,
          "durationTicks": 4,
          "midi": 54,
          "name": "F#3",
          "ticks": 116,
          "time": 1.2608695652173914,
          "velocity": 0.3543307086614173
        },
        {
          "duration": 0.06521739130434767,
          "durationTicks": 6,
          "midi": 61,
          "name": "C#4",
          "ticks": 116,
          "time": 1.2608695652173914,
          "velocity": 0.3464566929133858
        },
        {
          "duration": 0.15217391304347827,
          "durationTicks": 14,
          "midi": 47,
          "name": "B2",
          "ticks": 118,
          "time": 1.2826086956521738,
          "velocity": 0.4330708661417323
        },
        {
          "duration": 0.021739130434782705,
          "durationTicks": 2,
          "midi": 68,
          "name": "G#4",
          "ticks": 119,
          "time": 1.2934782608695652,
          "velocity": 0.28346456692913385
        },
        {
          "duration": 0.09782608695652173,
          "durationTicks": 9,
          "midi": 54,
          "name": "F#3",
          "ticks": 121,
          "time": 1.315217391304348,
          "velocity": 0.3858267716535433
        },
        {
          "duration": 0.0652173913043479,
          "durationTicks": 6,
          "midi": 68,
          "name": "G#4",
          "ticks": 122,
          "time": 1.326086956521739,
          "velocity": 0.25196850393700787
        },
        {
          "duration": 0.021739130434782705,
          "durationTicks": 2,
          "midi": 60,
          "name": "C4",
          "ticks": 123,
          "time": 1.3369565217391304,
          "velocity": 0.30708661417322836
        },
        {
          "duration": 0.05434782608695654,
          "durationTicks": 5,
          "midi": 61,
          "name": "C#4",
          "ticks": 125,
          "time": 1.358695652173913,
          "velocity": 0.2677165354330709
        },
        {
          "duration": 0.06521739130434767,
          "durationTicks": 6,
          "midi": 70,
          "name": "A#4",
          "ticks": 130,
          "time": 1.4130434782608696,
          "velocity": 0.15748031496062992
        },
        {
          "duration": 0.021739130434782483,
          "durationTicks": 2,
          "midi": 54,
          "name": "F#3",
          "ticks": 131,
          "time": 1.423913043478261,
          "velocity": 0.36220472440944884
        },
        {
          "duration": 0.021739130434782483,
          "durationTicks": 2,
          "midi": 58,
          "name": "A#3",
          "ticks": 134,
          "time": 1.4565217391304348,
          "velocity": 0.4881889763779528
        },
        {
          "duration": 0.032608695652173836,
          "durationTicks": 3,
          "midi": 73,
          "name": "C#5",
          "ticks": 134,
          "time": 1.4565217391304348,
          "velocity": 0.23622047244094488
        },
        {
          "duration": 0.08695652173913038,
          "durationTicks": 8,
          "midi": 78,
          "name": "F#5",
          "ticks": 134,
          "time": 1.4565217391304348,
          "velocity": 0.2204724409448819
        },
        {
          "duration": 0.01086956521739113,
          "durationTicks": 1,
          "midi": 49,
          "name": "C#3",
          "ticks": 135,
          "time": 1.4673913043478262,
          "velocity": 0.5984251968503937
        },
        {
          "duration": 0.021739130434782705,
          "durationTicks": 2,
          "midi": 47,
          "name": "B2",
          "ticks": 136,
          "time": 1.4782608695652173,
          "velocity": 0.5275590551181102
        },
        {
          "duration": 0.0652173913043479,
          "durationTicks": 6,
          "midi": 61,
          "name": "C#4",
          "ticks": 136,
          "time": 1.4782608695652173,
          "velocity": 0.3937007874015748
        },
        {
          "duration": 0.021739130434782705,
          "durationTicks": 2,
          "midi": 67,
          "name": "G4",
          "ticks": 136,
          "time": 1.4782608695652173,
          "velocity": 0.33858267716535434
        },
        {
          "duration": 0.03260869565217406,
          "durationTicks": 3,
          "midi": 74,
          "name": "D5",
          "ticks": 137,
          "time": 1.4891304347826086,
          "velocity": 0.2047244094488189
        },
        {
          "duration": 0.13043478260869557,
          "durationTicks": 12,
          "midi": 47,
          "name": "B2",
          "ticks": 139,
          "time": 1.5108695652173914,
          "velocity": 0.44881889763779526
        },
        {
          "duration": 0.1630434782608694,
          "durationTicks": 15,
          "midi": 54,
          "name": "F#3",
          "ticks": 140,
          "time": 1.5217391304347827,
          "velocity": 0.41732283464566927
        },
        {
          "duration": 0.021739130434782483,
          "durationTicks": 2,
          "midi": 68,
          "name": "G#4",
          "ticks": 140,
          "time": 1.5217391304347827,
          "velocity": 0.2677165354330709
        },
        {
          "duration": 0.04347826086956541,
          "durationTicks": 4,
          "midi": 68,
          "name": "G#4",
          "ticks": 145,
          "time": 1.576086956521739,
          "velocity": 0.23622047244094488
        },
        {
          "duration": 0.05434782608695654,
          "durationTicks": 5,
          "midi": 61,
          "name": "C#4",
          "ticks": 146,
          "time": 1.5869565217391304,
          "velocity": 0.15748031496062992
        },
        {
          "duration": 0.14130434782608692,
          "durationTicks": 13,
          "midi": 73,
          "name": "C#5",
          "ticks": 146,
          "time": 1.5869565217391304,
          "velocity": 0.1732283464566929
        },
        {
          "duration": 0.05434782608695654,
          "durationTicks": 5,
          "midi": 60,
          "name": "C4",
          "ticks": 151,
          "time": 1.641304347826087,
          "velocity": 0.23622047244094488
        },
        {
          "duration": 0.04347826086956519,
          "durationTicks": 4,
          "midi": 68,
          "name": "G#4",
          "ticks": 153,
          "time": 1.6630434782608696,
          "velocity": 0.15748031496062992
        },
        {
          "duration": 0.010869565217391353,
          "durationTicks": 1,
          "midi": 50,
          "name": "D3",
          "ticks": 157,
          "time": 1.7065217391304348,
          "velocity": 0.5826771653543307
        },
        {
          "duration": 0.01086956521739113,
          "durationTicks": 1,
          "midi": 49,
          "name": "C#3",
          "ticks": 158,
          "time": 1.7173913043478262,
          "velocity": 0.5669291338582677
        },
        {
          "duration": 0.17391304347826098,
          "durationTicks": 16,
          "midi": 47,
          "name": "B2",
          "ticks": 159,
          "time": 1.7282608695652173,
          "velocity": 0.4645669291338583
        },
        {
          "duration": 0.0652173913043479,
          "durationTicks": 6,
          "midi": 61,
          "name": "C#4",
          "ticks": 159,
          "time": 1.7282608695652173,
          "velocity": 0.3937007874015748
        },
        {
          "duration": 0.07608695652173925,
          "durationTicks": 7,
          "midi": 74,
          "name": "D5",
          "ticks": 159,
          "time": 1.7282608695652173,
          "velocity": 0.2283464566929134
        },
        {
          "duration": 0.1304347826086958,
          "durationTicks": 12,
          "midi": 68,
          "name": "G#4",
          "ticks": 160,
          "time": 1.7391304347826086,
          "velocity": 0.25984251968503935
        },
        {
          "duration": 0.03260869565217406,
          "durationTicks": 3,
          "midi": 70,
          "name": "A#4",
          "ticks": 160,
          "time": 1.7391304347826086,
          "velocity": 0.16535433070866143
        },
        {
          "duration": 0.032608695652173836,
          "durationTicks": 3,
          "midi": 78,
          "name": "F#5",
          "ticks": 161,
          "time": 1.75,
          "velocity": 0.08661417322834646
        },
        {
          "duration": 0.06521739130434767,
          "durationTicks": 6,
          "midi": 54,
          "name": "F#3",
          "ticks": 162,
          "time": 1.7608695652173914,
          "velocity": 0.3228346456692913
        },
        {
          "duration": 0.05434782608695654,
          "durationTicks": 5,
          "midi": 61,
          "name": "C#4",
          "ticks": 168,
          "time": 1.826086956521739,
          "velocity": 0.25984251968503935
        },
        {
          "duration": 0.09782608695652173,
          "durationTicks": 9,
          "midi": 54,
          "name": "F#3",
          "ticks": 169,
          "time": 1.8369565217391304,
          "velocity": 0.3543307086614173
        },
        {
          "duration": 0.03260869565217406,
          "durationTicks": 3,
          "midi": 70,
          "name": "A#4",
          "ticks": 173,
          "time": 1.8804347826086956,
          "velocity": 0.15748031496062992
        },
        {
          "duration": 0.032608695652173836,
          "durationTicks": 3,
          "midi": 70,
          "name": "A#4",
          "ticks": 177,
          "time": 1.923913043478261,
          "velocity": 0.1968503937007874
        },
        {
          "duration": 0.04347826086956519,
          "durationTicks": 4,
          "midi": 73,
          "name": "C#5",
          "ticks": 177,
          "time": 1.923913043478261,
          "velocity": 0.1968503937007874
        },
        {
          "duration": 0.010869565217391353,
          "durationTicks": 1,
          "midi": 55,
          "name": "G3",
          "ticks": 178,
          "time": 1.934782608695652,
          "velocity": 0.5196850393700787
        },
        {
          "duration": 0.07608695652173902,
          "durationTicks": 7,
          "midi": 78,
          "name": "F#5",
          "ticks": 178,
          "time": 1.934782608695652,
          "velocity": 0.2204724409448819
        },
        {
          "duration": 0.010869565217391353,
          "durationTicks": 1,
          "midi": 50,
          "name": "D3",
          "ticks": 179,
          "time": 1.9456521739130435,
          "velocity": 0.5826771653543307
        },
        {
          "duration": 0.021739130434782705,
          "durationTicks": 2,
          "midi": 56,
          "name": "G#3",
          "ticks": 179,
          "time": 1.9456521739130435,
          "velocity": 0.5354330708661418
        },
        {
          "duration": 0.010869565217391353,
          "durationTicks": 1,
          "midi": 49,
          "name": "C#3",
          "ticks": 180,
          "time": 1.9565217391304348,
          "velocity": 0.5433070866141733
        },
        {
          "duration": 0.021739130434782483,
          "durationTicks": 2,
          "midi": 67,
          "name": "G4",
          "ticks": 180,
          "time": 1.9565217391304348,
          "velocity": 0.3464566929133858
        },
        {
          "duration": 0.15217391304347805,
          "durationTicks": 14,
          "midi": 47,
          "name": "B2",
          "ticks": 181,
          "time": 1.9673913043478262,
          "velocity": 0.44881889763779526
        },
        {
          "duration": 0.06521739130434767,
          "durationTicks": 6,
          "midi": 61,
          "name": "C#4",
          "ticks": 181,
          "time": 1.9673913043478262,
          "velocity": 0.3700787401574803
        },
        {
          "duration": 0.06521739130434767,
          "durationTicks": 6,
          "midi": 74,
          "name": "D5",
          "ticks": 181,
          "time": 1.9673913043478262,
          "velocity": 0.1889763779527559
        },
        {
          "duration": 0.10869565217391308,
          "durationTicks": 10,
          "midi": 68,
          "name": "G#4",
          "ticks": 184,
          "time": 2,
          "velocity": 0.2677165354330709
        },
        {
          "duration": 0.021739130434782705,
          "durationTicks": 2,
          "midi": 56,
          "name": "G#3",
          "ticks": 189,
          "time": 2.0543478260869565,
          "velocity": 0.2283464566929134
        },
        {
          "duration": 0.05434782608695654,
          "durationTicks": 5,
          "midi": 61,
          "name": "C#4",
          "ticks": 190,
          "time": 2.0652173913043477,
          "velocity": 0.25984251968503935
        },
        {
          "duration": 0.021739130434782705,
          "durationTicks": 2,
          "midi": 54,
          "name": "F#3",
          "ticks": 194,
          "time": 2.108695652173913,
          "velocity": 0.31496062992125984
        },
        {
          "duration": 0.032608695652173836,
          "durationTicks": 3,
          "midi": 60,
          "name": "C4",
          "ticks": 195,
          "time": 2.119565217391304,
          "velocity": 0.2677165354330709
        },
        {
          "duration": 0.04347826086956541,
          "durationTicks": 4,
          "midi": 70,
          "name": "A#4",
          "ticks": 195,
          "time": 2.119565217391304,
          "velocity": 0.1732283464566929
        },
        {
          "duration": 0.02173913043478226,
          "durationTicks": 2,
          "midi": 53,
          "name": "F3",
          "ticks": 196,
          "time": 2.130434782608696,
          "velocity": 0.33070866141732286
        },
        {
          "duration": 0.010869565217391575,
          "durationTicks": 1,
          "midi": 52,
          "name": "E3",
          "ticks": 198,
          "time": 2.152173913043478,
          "velocity": 0.5275590551181102
        },
        {
          "duration": 0.05434782608695654,
          "durationTicks": 5,
          "midi": 66,
          "name": "F#4",
          "ticks": 198,
          "time": 2.152173913043478,
          "velocity": 0.33070866141732286
        },
        {
          "duration": 0.01086956521739113,
          "durationTicks": 1,
          "midi": 49,
          "name": "C#3",
          "ticks": 199,
          "time": 2.1630434782608696,
          "velocity": 0.5984251968503937
        },
        {
          "duration": 0.021739130434782705,
          "durationTicks": 2,
          "midi": 56,
          "name": "G#3",
          "ticks": 199,
          "time": 2.1630434782608696,
          "velocity": 0.49606299212598426
        },
        {
          "duration": 0.021739130434782705,
          "durationTicks": 2,
          "midi": 73,
          "name": "C#5",
          "ticks": 199,
          "time": 2.1630434782608696,
          "velocity": 0.23622047244094488
        },
        {
          "duration": 0.021739130434782705,
          "durationTicks": 2,
          "midi": 79,
          "name": "G5",
          "ticks": 199,
          "time": 2.1630434782608696,
          "velocity": 0.2440944881889764
        },
        {
          "duration": 0.021739130434782705,
          "durationTicks": 2,
          "midi": 47,
          "name": "B2",
          "ticks": 200,
          "time": 2.1739130434782608,
          "velocity": 0.5196850393700787
        },
        {
          "duration": 0.06521739130434812,
          "durationTicks": 6,
          "midi": 61,
          "name": "C#4",
          "ticks": 200,
          "time": 2.1739130434782608,
          "velocity": 0.3700787401574803
        },
        {
          "duration": 0.032608695652173836,
          "durationTicks": 3,
          "midi": 74,
          "name": "D5",
          "ticks": 201,
          "time": 2.1847826086956523,
          "velocity": 0.1732283464566929
        },
        {
          "duration": 0.05434782608695654,
          "durationTicks": 5,
          "midi": 54,
          "name": "F#3",
          "ticks": 202,
          "time": 2.1956521739130435,
          "velocity": 0.3779527559055118
        },
        {
          "duration": 0.09782608695652195,
          "durationTicks": 9,
          "midi": 47,
          "name": "B2",
          "ticks": 203,
          "time": 2.2065217391304346,
          "velocity": 0.4645669291338583
        },
        {
          "duration": 0.03260869565217428,
          "durationTicks": 3,
          "midi": 67,
          "name": "G4",
          "ticks": 203,
          "time": 2.2065217391304346,
          "velocity": 0.2125984251968504
        },
        {
          "duration": 0.06521739130434812,
          "durationTicks": 6,
          "midi": 70,
          "name": "A#4",
          "ticks": 203,
          "time": 2.2065217391304346,
          "velocity": 0.2047244094488189
        },
        {
          "duration": 0.021739130434782705,
          "durationTicks": 2,
          "midi": 55,
          "name": "G3",
          "ticks": 207,
          "time": 2.25,
          "velocity": 0.2755905511811024
        },
        {
          "duration": 0.032608695652173836,
          "durationTicks": 3,
          "midi": 54,
          "name": "F#3",
          "ticks": 209,
          "time": 2.2717391304347827,
          "velocity": 0.3779527559055118
        },
        {
          "duration": 0.043478260869564966,
          "durationTicks": 4,
          "midi": 61,
          "name": "C#4",
          "ticks": 209,
          "time": 2.2717391304347827,
          "velocity": 0.31496062992125984
        },
        {
          "duration": 0.06521739130434767,
          "durationTicks": 6,
          "midi": 68,
          "name": "G#4",
          "ticks": 209,
          "time": 2.2717391304347827,
          "velocity": 0.28346456692913385
        },
        {
          "duration": 0.021739130434782705,
          "durationTicks": 2,
          "midi": 60,
          "name": "C4",
          "ticks": 213,
          "time": 2.3152173913043477,
          "velocity": 0.4409448818897638
        },
        {
          "duration": 0.08695652173913038,
          "durationTicks": 8,
          "midi": 74,
          "name": "D5",
          "ticks": 213,
          "time": 2.3152173913043477,
          "velocity": 0.1732283464566929
        },
        {
          "duration": 0.08695652173913038,
          "durationTicks": 8,
          "midi": 78,
          "name": "F#5",
          "ticks": 213,
          "time": 2.3152173913043477,
          "velocity": 0.14173228346456693
        },
        {
          "duration": 0.01086956521739113,
          "durationTicks": 1,
          "midi": 49,
          "name": "C#3",
          "ticks": 214,
          "time": 2.3260869565217392,
          "velocity": 0.5196850393700787
        },
        {
          "duration": 0.06521739130434767,
          "durationTicks": 6,
          "midi": 70,
          "name": "A#4",
          "ticks": 214,
          "time": 2.3260869565217392,
          "velocity": 0.2204724409448819
        },
        {
          "duration": 0.10869565217391308,
          "durationTicks": 10,
          "midi": 47,
          "name": "B2",
          "ticks": 215,
          "time": 2.3369565217391304,
          "velocity": 0.44881889763779526
        },
        {
          "duration": 0.05434782608695654,
          "durationTicks": 5,
          "midi": 61,
          "name": "C#4",
          "ticks": 215,
          "time": 2.3369565217391304,
          "velocity": 0.3858267716535433
        },
        {
          "duration": 0.032608695652173836,
          "durationTicks": 3,
          "midi": 72,
          "name": "C5",
          "ticks": 217,
          "time": 2.358695652173913,
          "velocity": 0.11023622047244094
        },
        {
          "duration": 0.06521739130434812,
          "durationTicks": 6,
          "midi": 54,
          "name": "F#3",
          "ticks": 218,
          "time": 2.369565217391304,
          "velocity": 0.36220472440944884
        },
        {
          "duration": 0.06521739130434767,
          "durationTicks": 6,
          "midi": 68,
          "name": "G#4",
          "ticks": 219,
          "time": 2.380434782608696,
          "velocity": 0.2440944881889764
        },
        {
          "duration": 0.032608695652173836,
          "durationTicks": 3,
          "midi": 61,
          "name": "C#4",
          "ticks": 222,
          "time": 2.4130434782608696,
          "velocity": 0.23622047244094488
        },
        {
          "duration": 0.032608695652173836,
          "durationTicks": 3,
          "midi": 73,
          "name": "C#5",
          "ticks": 225,
          "time": 2.4456521739130435,
          "velocity": 0.15748031496062992
        },
        {
          "duration": 0.05434782608695654,
          "durationTicks": 5,
          "midi": 79,
          "name": "G5",
          "ticks": 225,
          "time": 2.4456521739130435,
          "velocity": 0.14960629921259844
        },
        {
          "duration": 0.16304347826086962,
          "durationTicks": 15,
          "midi": 47,
          "name": "B2",
          "ticks": 227,
          "time": 2.467391304347826,
          "velocity": 0.4566929133858268
        },
        {
          "duration": 0.18478260869565188,
          "durationTicks": 17,
          "midi": 61,
          "name": "C#4",
          "ticks": 227,
          "time": 2.467391304347826,
          "velocity": 0.33858267716535434
        },
        {
          "duration": 0.06521739130434812,
          "durationTicks": 6,
          "midi": 68,
          "name": "G#4",
          "ticks": 228,
          "time": 2.4782608695652173,
          "velocity": 0.2283464566929134
        },
        {
          "duration": 0.021739130434782705,
          "durationTicks": 2,
          "midi": 55,
          "name": "G3",
          "ticks": 230,
          "time": 2.5,
          "velocity": 0.25196850393700787
        },
        {
          "duration": 0.043478260869564966,
          "durationTicks": 4,
          "midi": 54,
          "name": "F#3",
          "ticks": 232,
          "time": 2.5217391304347827,
          "velocity": 0.33070866141732286
        },
        {
          "duration": 0.043478260869564966,
          "durationTicks": 4,
          "midi": 54,
          "name": "F#3",
          "ticks": 240,
          "time": 2.608695652173913,
          "velocity": 0.33070866141732286
        },
        {
          "duration": 0.03260869565217428,
          "durationTicks": 3,
          "midi": 55,
          "name": "G3",
          "ticks": 244,
          "time": 2.652173913043478,
          "velocity": 0.18110236220472442
        },
        {
          "duration": 0.021739130434782705,
          "durationTicks": 2,
          "midi": 60,
          "name": "C4",
          "ticks": 244,
          "time": 2.652173913043478,
          "velocity": 0.2440944881889764
        },
        {
          "duration": 0.04347826086956541,
          "durationTicks": 4,
          "midi": 66,
          "name": "F#4",
          "ticks": 244,
          "time": 2.652173913043478,
          "velocity": 0.09448818897637795
        },
        {
          "duration": 0.021739130434782705,
          "durationTicks": 2,
          "midi": 58,
          "name": "A#3",
          "ticks": 248,
          "time": 2.6956521739130435,
          "velocity": 0.44881889763779526
        },
        {
          "duration": 0.07608695652173925,
          "durationTicks": 7,
          "midi": 78,
          "name": "F#5",
          "ticks": 249,
          "time": 2.7065217391304346,
          "velocity": 0.08661417322834646
        },
        {
          "duration": 0.01086956521739113,
          "durationTicks": 1,
          "midi": 49,
          "name": "C#3",
          "ticks": 250,
          "time": 2.717391304347826,
          "velocity": 0.5669291338582677
        },
        {
          "duration": 0.10869565217391308,
          "durationTicks": 10,
          "midi": 74,
          "name": "D5",
          "ticks": 250,
          "time": 2.717391304347826,
          "velocity": 0.2440944881889764
        },
        {
          "duration": 0.021739130434782705,
          "durationTicks": 2,
          "midi": 47,
          "name": "B2",
          "ticks": 251,
          "time": 2.7282608695652173,
          "velocity": 0.5039370078740157
        },
        {
          "duration": 0.07608695652173925,
          "durationTicks": 7,
          "midi": 61,
          "name": "C#4",
          "ticks": 251,
          "time": 2.7282608695652173,
          "velocity": 0.3858267716535433
        },
        {
          "duration": 0.13043478260869534,
          "durationTicks": 12,
          "midi": 68,
          "name": "G#4",
          "ticks": 252,
          "time": 2.739130434782609,
          "velocity": 0.2125984251968504
        },
        {
          "duration": 0.1304347826086958,
          "durationTicks": 12,
          "midi": 47,
          "name": "B2",
          "ticks": 254,
          "time": 2.760869565217391,
          "velocity": 0.4566929133858268
        },
        {
          "duration": 0.021739130434782705,
          "durationTicks": 2,
          "midi": 54,
          "name": "F#3",
          "ticks": 256,
          "time": 2.782608695652174,
          "velocity": 0.31496062992125984
        },
        {
          "duration": 0.05434782608695654,
          "durationTicks": 5,
          "midi": 61,
          "name": "C#4",
          "ticks": 260,
          "time": 2.8260869565217392,
          "velocity": 0.1889763779527559
        },
        {
          "duration": 0.04347826086956541,
          "durationTicks": 4,
          "midi": 54,
          "name": "F#3",
          "ticks": 264,
          "time": 2.869565217391304,
          "velocity": 0.29133858267716534
        },
        {
          "duration": 0.01086956521739113,
          "durationTicks": 1,
          "midi": 52,
          "name": "E3",
          "ticks": 270,
          "time": 2.9347826086956523,
          "velocity": 0.5511811023622047
        },
        {
          "duration": 0.01086956521739113,
          "durationTicks": 1,
          "midi": 49,
          "name": "C#3",
          "ticks": 271,
          "time": 2.9456521739130435,
          "velocity": 0.5669291338582677
        },
        {
          "duration": 0.021739130434782705,
          "durationTicks": 2,
          "midi": 67,
          "name": "G4",
          "ticks": 271,
          "time": 2.9456521739130435,
          "velocity": 0.29133858267716534
        },
        {
          "duration": 0.16304347826086962,
          "durationTicks": 15,
          "midi": 47,
          "name": "B2",
          "ticks": 272,
          "time": 2.9565217391304346,
          "velocity": 0.48031496062992124
        },
        {
          "duration": 0.07608695652173925,
          "durationTicks": 7,
          "midi": 61,
          "name": "C#4",
          "ticks": 272,
          "time": 2.9565217391304346,
          "velocity": 0.3543307086614173
        },
        {
          "duration": 0.07608695652173925,
          "durationTicks": 7,
          "midi": 74,
          "name": "D5",
          "ticks": 272,
          "time": 2.9565217391304346,
          "velocity": 0.2125984251968504
        },
        {
          "duration": 0.1304347826086958,
          "durationTicks": 12,
          "midi": 68,
          "name": "G#4",
          "ticks": 273,
          "time": 2.967391304347826,
          "velocity": 0.2283464566929134
        },
        {
          "duration": 0.032608695652173836,
          "durationTicks": 3,
          "midi": 70,
          "name": "A#4",
          "ticks": 273,
          "time": 2.967391304347826,
          "velocity": 0.14173228346456693
        },
        {
          "duration": 0.02173913043478226,
          "durationTicks": 2,
          "midi": 54,
          "name": "F#3",
          "ticks": 275,
          "time": 2.989130434782609,
          "velocity": 0.2677165354330709
        },
        {
          "duration": 0.021739130434782705,
          "durationTicks": 2,
          "midi": 54,
          "name": "F#3",
          "ticks": 281,
          "time": 3.0543478260869565,
          "velocity": 0.29133858267716534
        },
        {
          "duration": 0.06521739130434767,
          "durationTicks": 6,
          "midi": 61,
          "name": "C#4",
          "ticks": 281,
          "time": 3.0543478260869565,
          "velocity": 0.2440944881889764
        },
        {
          "duration": 0.021739130434782705,
          "durationTicks": 2,
          "midi": 54,
          "name": "F#3",
          "ticks": 284,
          "time": 3.0869565217391304,
          "velocity": 0.2440944881889764
        },
        {
          "duration": 0.032608695652173836,
          "durationTicks": 3,
          "midi": 70,
          "name": "A#4",
          "ticks": 286,
          "time": 3.108695652173913,
          "velocity": 0.10236220472440945
        },
        {
          "duration": 0.04347826086956541,
          "durationTicks": 4,
          "midi": 60,
          "name": "C4",
          "ticks": 287,
          "time": 3.119565217391304,
          "velocity": 0.18110236220472442
        },
        {
          "duration": 0.02173913043478226,
          "durationTicks": 2,
          "midi": 58,
          "name": "A#3",
          "ticks": 293,
          "time": 3.1847826086956523,
          "velocity": 0.3543307086614173
        },
        {
          "duration": 0.010869565217391575,
          "durationTicks": 1,
          "midi": 50,
          "name": "D3",
          "ticks": 295,
          "time": 3.2065217391304346,
          "velocity": 0.5511811023622047
        },
        {
          "duration": 0.07608695652173925,
          "durationTicks": 7,
          "midi": 78,
          "name": "F#5",
          "ticks": 295,
          "time": 3.2065217391304346,
          "velocity": 0.1968503937007874
        },
        {
          "duration": 0.01086956521739113,
          "durationTicks": 1,
          "midi": 49,
          "name": "C#3",
          "ticks": 296,
          "time": 3.217391304347826,
          "velocity": 0.5826771653543307
        },
        {
          "duration": 0.021739130434782705,
          "durationTicks": 2,
          "midi": 67,
          "name": "G4",
          "ticks": 296,
          "time": 3.217391304347826,
          "velocity": 0.33070866141732286
        },
        {
          "duration": 0.17391304347826075,
          "durationTicks": 16,
          "midi": 47,
          "name": "B2",
          "ticks": 297,
          "time": 3.2282608695652173,
          "velocity": 0.4881889763779528
        },
        {
          "duration": 0.06521739130434812,
          "durationTicks": 6,
          "midi": 61,
          "name": "C#4",
          "ticks": 297,
          "time": 3.2282608695652173,
          "velocity": 0.3464566929133858
        },
        {
          "duration": 0.10869565217391308,
          "durationTicks": 10,
          "midi": 74,
          "name": "D5",
          "ticks": 297,
          "time": 3.2282608695652173,
          "velocity": 0.25984251968503935
        },
        {
          "duration": 0.13043478260869534,
          "durationTicks": 12,
          "midi": 68,
          "name": "G#4",
          "ticks": 298,
          "time": 3.239130434782609,
          "velocity": 0.2677165354330709
        },
        {
          "duration": 0.03260869565217428,
          "durationTicks": 3,
          "midi": 55,
          "name": "G3",
          "ticks": 300,
          "time": 3.260869565217391,
          "velocity": 0.2677165354330709
        },
        {
          "duration": 0.032608695652173836,
          "durationTicks": 3,
          "midi": 54,
          "name": "F#3",
          "ticks": 303,
          "time": 3.2934782608695654,
          "velocity": 0.31496062992125984
        },
        {
          "duration": 0.021739130434782705,
          "durationTicks": 2,
          "midi": 55,
          "name": "G3",
          "ticks": 306,
          "time": 3.3260869565217392,
          "velocity": 0.29133858267716534
        },
        {
          "duration": 0.05434782608695654,
          "durationTicks": 5,
          "midi": 61,
          "name": "C#4",
          "ticks": 306,
          "time": 3.3260869565217392,
          "velocity": 0.2440944881889764
        },
        {
          "duration": 0.06521739130434767,
          "durationTicks": 6,
          "midi": 54,
          "name": "F#3",
          "ticks": 309,
          "time": 3.358695652173913,
          "velocity": 0.29133858267716534
        },
        {
          "duration": 0.05434782608695654,
          "durationTicks": 5,
          "midi": 60,
          "name": "C4",
          "ticks": 311,
          "time": 3.380434782608696,
          "velocity": 0.1889763779527559
        },
        {
          "duration": 0.043478260869564966,
          "durationTicks": 4,
          "midi": 61,
          "name": "C#4",
          "ticks": 316,
          "time": 3.4347826086956523,
          "velocity": 0.23622047244094488
        },
        {
          "duration": 0.032608695652173836,
          "durationTicks": 3,
          "midi": 54,
          "name": "F#3",
          "ticks": 317,
          "time": 3.4456521739130435,
          "velocity": 0.3228346456692913
        },
        {
          "duration": 0.021739130434782705,
          "durationTicks": 2,
          "midi": 49,
          "name": "C#3",
          "ticks": 320,
          "time": 3.4782608695652173,
          "velocity": 0.5669291338582677
        },
        {
          "duration": 0.02173913043478226,
          "durationTicks": 2,
          "midi": 60,
          "name": "C4",
          "ticks": 321,
          "time": 3.489130434782609,
          "velocity": 0.47244094488188976
        },
        {
          "duration": 0.02173913043478226,
          "durationTicks": 2,
          "midi": 67,
          "name": "G4",
          "ticks": 321,
          "time": 3.489130434782609,
          "velocity": 0.2755905511811024
        },
        {
          "duration": 0.021739130434782705,
          "durationTicks": 2,
          "midi": 47,
          "name": "B2",
          "ticks": 322,
          "time": 3.5,
          "velocity": 0.4881889763779528
        },
        {
          "duration": 0.06521739130434812,
          "durationTicks": 6,
          "midi": 61,
          "name": "C#4",
          "ticks": 323,
          "time": 3.510869565217391,
          "velocity": 0.3464566929133858
        },
        {
          "duration": 0.1304347826086958,
          "durationTicks": 12,
          "midi": 68,
          "name": "G#4",
          "ticks": 323,
          "time": 3.510869565217391,
          "velocity": 0.2283464566929134
        },
        {
          "duration": 0.04347826086956541,
          "durationTicks": 4,
          "midi": 74,
          "name": "D5",
          "ticks": 323,
          "time": 3.510869565217391,
          "velocity": 0.1889763779527559
        },
        {
          "duration": 0.1521739130434785,
          "durationTicks": 14,
          "midi": 47,
          "name": "B2",
          "ticks": 325,
          "time": 3.532608695652174,
          "velocity": 0.4566929133858268
        },
        {
          "duration": 0.043478260869564966,
          "durationTicks": 4,
          "midi": 54,
          "name": "F#3",
          "ticks": 329,
          "time": 3.5760869565217392,
          "velocity": 0.31496062992125984
        },
        {
          "duration": 0.06521739130434767,
          "durationTicks": 6,
          "midi": 61,
          "name": "C#4",
          "ticks": 331,
          "time": 3.597826086956522,
          "velocity": 0.28346456692913385
        },
        {
          "duration": 0.05434782608695654,
          "durationTicks": 5,
          "midi": 70,
          "name": "A#4",
          "ticks": 337,
          "time": 3.6630434782608696,
          "velocity": 0.14960629921259844
        },
        {
          "duration": 0.04347826086956541,
          "durationTicks": 4,
          "midi": 53,
          "name": "F3",
          "ticks": 338,
          "time": 3.6739130434782608,
          "velocity": 0.2047244094488189
        },
        {
          "duration": 0.021739130434782705,
          "durationTicks": 2,
          "midi": 56,
          "name": "G#3",
          "ticks": 342,
          "time": 3.717391304347826,
          "velocity": 0.4251968503937008
        },
        {
          "duration": 0.09782608695652151,
          "durationTicks": 9,
          "midi": 78,
          "name": "F#5",
          "ticks": 342,
          "time": 3.717391304347826,
          "velocity": 0.11023622047244094
        },
        {
          "duration": 0.010869565217391575,
          "durationTicks": 1,
          "midi": 49,
          "name": "C#3",
          "ticks": 343,
          "time": 3.7282608695652173,
          "velocity": 0.5433070866141733
        },
        {
          "duration": 0.021739130434782705,
          "durationTicks": 2,
          "midi": 67,
          "name": "G4",
          "ticks": 343,
          "time": 3.7282608695652173,
          "velocity": 0.30708661417322836
        },
        {
          "duration": 0.02173913043478226,
          "durationTicks": 2,
          "midi": 47,
          "name": "B2",
          "ticks": 344,
          "time": 3.739130434782609,
          "velocity": 0.4881889763779528
        },
        {
          "duration": 0.0760869565217388,
          "durationTicks": 7,
          "midi": 61,
          "name": "C#4",
          "ticks": 344,
          "time": 3.739130434782609,
          "velocity": 0.3858267716535433
        },
        {
          "duration": 0.10869565217391308,
          "durationTicks": 10,
          "midi": 74,
          "name": "D5",
          "ticks": 344,
          "time": 3.739130434782609,
          "velocity": 0.25196850393700787
        },
        {
          "duration": 0.1304347826086958,
          "durationTicks": 12,
          "midi": 68,
          "name": "G#4",
          "ticks": 345,
          "time": 3.75,
          "velocity": 0.25196850393700787
        },
        {
          "duration": 0.13043478260869534,
          "durationTicks": 12,
          "midi": 47,
          "name": "B2",
          "ticks": 347,
          "time": 3.7717391304347827,
          "velocity": 0.4566929133858268
        },
        {
          "duration": 0.032608695652173836,
          "durationTicks": 3,
          "midi": 54,
          "name": "F#3",
          "ticks": 348,
          "time": 3.782608695652174,
          "velocity": 0.2992125984251969
        },
        {
          "duration": 0.05434782608695654,
          "durationTicks": 5,
          "midi": 61,
          "name": "C#4",
          "ticks": 353,
          "time": 3.8369565217391304,
          "velocity": 0.1889763779527559
        },
        {
          "duration": 0.02173913043478226,
          "durationTicks": 2,
          "midi": 54,
          "name": "F#3",
          "ticks": 357,
          "time": 3.880434782608696,
          "velocity": 0.2755905511811024
        },
        {
          "duration": 0.04347826086956541,
          "durationTicks": 4,
          "midi": 60,
          "name": "C4",
          "ticks": 358,
          "time": 3.891304347826087,
          "velocity": 0.07874015748031496
        },
        {
          "duration": 0.06521739130434767,
          "durationTicks": 6,
          "midi": 70,
          "name": "A#4",
          "ticks": 358,
          "time": 3.891304347826087,
          "velocity": 0.07086614173228346
        },
        {
          "duration": 0.032608695652173836,
          "durationTicks": 3,
          "midi": 61,
          "name": "C#4",
          "ticks": 362,
          "time": 3.9347826086956523,
          "velocity": 0.11811023622047244
        },
        {
          "duration": 0.021739130434782705,
          "durationTicks": 2,
          "midi": 53,
          "name": "F3",
          "ticks": 365,
          "time": 3.967391304347826,
          "velocity": 0.3937007874015748
        },
        {
          "duration": 0.03260869565217428,
          "durationTicks": 3,
          "midi": 68,
          "name": "G#4",
          "ticks": 366,
          "time": 3.9782608695652173,
          "velocity": 0.2992125984251969
        },
        {
          "duration": 0.01086956521739113,
          "durationTicks": 1,
          "midi": 50,
          "name": "D3",
          "ticks": 367,
          "time": 3.989130434782609,
          "velocity": 0.5433070866141733
        },
        {
          "duration": 0.010869565217391575,
          "durationTicks": 1,
          "midi": 49,
          "name": "C#3",
          "ticks": 368,
          "time": 4,
          "velocity": 0.5354330708661418
        },
        {
          "duration": 0.16304347826086918,
          "durationTicks": 15,
          "midi": 47,
          "name": "B2",
          "ticks": 369,
          "time": 4.010869565217392,
          "velocity": 0.4645669291338583
        },
        {
          "duration": 0.06521739130434767,
          "durationTicks": 6,
          "midi": 61,
          "name": "C#4",
          "ticks": 369,
          "time": 4.010869565217392,
          "velocity": 0.3700787401574803
        },
        {
          "duration": 0.08695652173912993,
          "durationTicks": 8,
          "midi": 74,
          "name": "D5",
          "ticks": 369,
          "time": 4.010869565217392,
          "velocity": 0.2204724409448819
        },
        {
          "duration": 0.13043478260869623,
          "durationTicks": 12,
          "midi": 68,
          "name": "G#4",
          "ticks": 370,
          "time": 4.021739130434782,
          "velocity": 0.2440944881889764
        },
        {
          "duration": 0.0543478260869561,
          "durationTicks": 5,
          "midi": 54,
          "name": "F#3",
          "ticks": 372,
          "time": 4.043478260869565,
          "velocity": 0.2677165354330709
        },
        {
          "duration": 0.02173913043478315,
          "durationTicks": 2,
          "midi": 55,
          "name": "G3",
          "ticks": 377,
          "time": 4.0978260869565215,
          "velocity": 0.2677165354330709
        },
        {
          "duration": 0.06521739130434767,
          "durationTicks": 6,
          "midi": 61,
          "name": "C#4",
          "ticks": 378,
          "time": 4.108695652173913,
          "velocity": 0.25196850393700787
        },
        {
          "duration": 0.02173913043478226,
          "durationTicks": 2,
          "midi": 54,
          "name": "F#3",
          "ticks": 381,
          "time": 4.141304347826087,
          "velocity": 0.2677165354330709
        },
        {
          "duration": 0.032608695652174724,
          "durationTicks": 3,
          "midi": 70,
          "name": "A#4",
          "ticks": 383,
          "time": 4.163043478260869,
          "velocity": 0.07874015748031496
        },
        {
          "duration": 0.032608695652173836,
          "durationTicks": 3,
          "midi": 60,
          "name": "C4",
          "ticks": 385,
          "time": 4.184782608695652,
          "velocity": 0.2204724409448819
        },
        {
          "duration": 0.010869565217390686,
          "durationTicks": 1,
          "midi": 49,
          "name": "C#3",
          "ticks": 389,
          "time": 4.228260869565218,
          "velocity": 0.5118110236220472
        },
        {
          "duration": 0.02173913043478226,
          "durationTicks": 2,
          "midi": 67,
          "name": "G4",
          "ticks": 389,
          "time": 4.228260869565218,
          "velocity": 0.29133858267716534
        },
        {
          "duration": 0.032608695652173836,
          "durationTicks": 3,
          "midi": 70,
          "name": "A#4",
          "ticks": 389,
          "time": 4.228260869565218,
          "velocity": 0.18110236220472442
        },
        {
          "duration": 0.08695652173912993,
          "durationTicks": 8,
          "midi": 74,
          "name": "D5",
          "ticks": 389,
          "time": 4.228260869565218,
          "velocity": 0.2283464566929134
        },
        {
          "duration": 0.14130434782608692,
          "durationTicks": 13,
          "midi": 47,
          "name": "B2",
          "ticks": 390,
          "time": 4.239130434782608,
          "velocity": 0.44881889763779526
        },
        {
          "duration": 0.13043478260869534,
          "durationTicks": 12,
          "midi": 68,
          "name": "G#4",
          "ticks": 391,
          "time": 4.25,
          "velocity": 0.2440944881889764
        },
        {
          "duration": 0.04347826086956452,
          "durationTicks": 4,
          "midi": 61,
          "name": "C#4",
          "ticks": 399,
          "time": 4.336956521739131,
          "velocity": 0.2755905511811024
        },
        {
          "duration": 0.032608695652173836,
          "durationTicks": 3,
          "midi": 78,
          "name": "F#5",
          "ticks": 402,
          "time": 4.369565217391305,
          "velocity": 0.1889763779527559
        },
        {
          "duration": 0.02173913043478315,
          "durationTicks": 2,
          "midi": 49,
          "name": "C#3",
          "ticks": 403,
          "time": 4.380434782608695,
          "velocity": 0.5275590551181102
        },
        {
          "duration": 0.032608695652173836,
          "durationTicks": 3,
          "midi": 81,
          "name": "A5",
          "ticks": 403,
          "time": 4.380434782608695,
          "velocity": 0.11023622047244094
        },
        {
          "duration": 0.02173913043478226,
          "durationTicks": 2,
          "midi": 67,
          "name": "G4",
          "ticks": 404,
          "time": 4.391304347826087,
          "velocity": 0.2283464566929134
        },
        {
          "duration": 0.04347826086956541,
          "durationTicks": 4,
          "midi": 74,
          "name": "D5",
          "ticks": 404,
          "time": 4.391304347826087,
          "velocity": 0.16535433070866143
        },
        {
          "duration": 0.06521739130434767,
          "durationTicks": 6,
          "midi": 47,
          "name": "B2",
          "ticks": 405,
          "time": 4.4021739130434785,
          "velocity": 0.4566929133858268
        },
        {
          "duration": 0.1521739130434776,
          "durationTicks": 14,
          "midi": 61,
          "name": "C#4",
          "ticks": 405,
          "time": 4.4021739130434785,
          "velocity": 0.3937007874015748
        },
        {
          "duration": 0.032608695652174724,
          "durationTicks": 3,
          "midi": 68,
          "name": "G#4",
          "ticks": 406,
          "time": 4.413043478260869,
          "velocity": 0.2125984251968504
        },
        {
          "duration": 0.02173913043478226,
          "durationTicks": 2,
          "midi": 54,
          "name": "F#3",
          "ticks": 409,
          "time": 4.445652173913044,
          "velocity": 0.33858267716535434
        },
        {
          "duration": 0.032608695652173836,
          "durationTicks": 3,
          "midi": 67,
          "name": "G4",
          "ticks": 410,
          "time": 4.456521739130435,
          "velocity": 0.2755905511811024
        },
        {
          "duration": 0.11956521739130466,
          "durationTicks": 11,
          "midi": 74,
          "name": "D5",
          "ticks": 411,
          "time": 4.467391304347826,
          "velocity": 0.28346456692913385
        },
        {
          "duration": 0.1521739130434785,
          "durationTicks": 14,
          "midi": 47,
          "name": "B2",
          "ticks": 413,
          "time": 4.489130434782608,
          "velocity": 0.4094488188976378
        },
        {
          "duration": 0.032608695652173836,
          "durationTicks": 3,
          "midi": 68,
          "name": "G#4",
          "ticks": 413,
          "time": 4.489130434782608,
          "velocity": 0.25196850393700787
        },
        {
          "duration": 0.04347826086956541,
          "durationTicks": 4,
          "midi": 78,
          "name": "F#5",
          "ticks": 413,
          "time": 4.489130434782608,
          "velocity": 0.07086614173228346
        },
        {
          "duration": 0.032608695652173836,
          "durationTicks": 3,
          "midi": 72,
          "name": "C5",
          "ticks": 414,
          "time": 4.5,
          "velocity": 0.12598425196850394
        },
        {
          "duration": 0.054347826086956985,
          "durationTicks": 5,
          "midi": 68,
          "name": "G#4",
          "ticks": 419,
          "time": 4.554347826086956,
          "velocity": 0.2125984251968504
        },
        {
          "duration": 0.054347826086956985,
          "durationTicks": 5,
          "midi": 61,
          "name": "C#4",
          "ticks": 429,
          "time": 4.663043478260869,
          "velocity": 0.14173228346456693
        },
        {
          "duration": 0.04347826086956541,
          "durationTicks": 4,
          "midi": 53,
          "name": "F3",
          "ticks": 431,
          "time": 4.684782608695652,
          "velocity": 0.2204724409448819
        },
        {
          "duration": 0.02173913043478226,
          "durationTicks": 2,
          "midi": 56,
          "name": "G#3",
          "ticks": 435,
          "time": 4.728260869565218,
          "velocity": 0.47244094488188976
        },
        {
          "duration": 0.010869565217391575,
          "durationTicks": 1,
          "midi": 49,
          "name": "C#3",
          "ticks": 436,
          "time": 4.739130434782608,
          "velocity": 0.5590551181102362
        },
        {
          "duration": 0.02173913043478226,
          "durationTicks": 2,
          "midi": 47,
          "name": "B2",
          "ticks": 437,
          "time": 4.75,
          "velocity": 0.49606299212598426
        },
        {
          "duration": 0.08695652173913082,
          "durationTicks": 8,
          "midi": 74,
          "name": "D5",
          "ticks": 437,
          "time": 4.75,
          "velocity": 0.1968503937007874
        },
        {
          "duration": 0.06521739130434767,
          "durationTicks": 6,
          "midi": 61,
          "name": "C#4",
          "ticks": 438,
          "time": 4.760869565217392,
          "velocity": 0.33858267716535434
        },
        {
          "duration": 0.032608695652173836,
          "durationTicks": 3,
          "midi": 68,
          "name": "G#4",
          "ticks": 438,
          "time": 4.760869565217392,
          "velocity": 0.2125984251968504
        },
        {
          "duration": 0.1521739130434785,
          "durationTicks": 14,
          "midi": 47,
          "name": "B2",
          "ticks": 440,
          "time": 4.782608695652174,
          "velocity": 0.4566929133858268
        },
        {
          "duration": 0.032608695652173836,
          "durationTicks": 3,
          "midi": 70,
          "name": "A#4",
          "ticks": 440,
          "time": 4.782608695652174,
          "velocity": 0.23622047244094488
        },
        {
          "duration": 0.08695652173913082,
          "durationTicks": 8,
          "midi": 68,
          "name": "G#4",
          "ticks": 442,
          "time": 4.804347826086956,
          "velocity": 0.2125984251968504
        },
        {
          "duration": 0.06521739130434767,
          "durationTicks": 6,
          "midi": 54,
          "name": "F#3",
          "ticks": 445,
          "time": 4.836956521739131,
          "velocity": 0.2992125984251969
        },
        {
          "duration": 0.06521739130434767,
          "durationTicks": 6,
          "midi": 61,
          "name": "C#4",
          "ticks": 446,
          "time": 4.8478260869565215,
          "velocity": 0.2755905511811024
        },
        {
          "duration": 0.06521739130434856,
          "durationTicks": 6,
          "midi": 70,
          "name": "A#4",
          "ticks": 452,
          "time": 4.913043478260869,
          "velocity": 0.13385826771653545
        },
        {
          "duration": 0.04347826086956541,
          "durationTicks": 4,
          "midi": 54,
          "name": "F#3",
          "ticks": 453,
          "time": 4.923913043478261,
          "velocity": 0.2047244094488189
        },
        {
          "duration": 0.02173913043478226,
          "durationTicks": 2,
          "midi": 53,
          "name": "F3",
          "ticks": 457,
          "time": 4.967391304347826,
          "velocity": 0.44881889763779526
        },
        {
          "duration": 0.02173913043478226,
          "durationTicks": 2,
          "midi": 68,
          "name": "G#4",
          "ticks": 458,
          "time": 4.978260869565218,
          "velocity": 0.2755905511811024
        },
        {
          "duration": 0.010869565217391575,
          "durationTicks": 1,
          "midi": 49,
          "name": "C#3",
          "ticks": 459,
          "time": 4.989130434782608,
          "velocity": 0.5433070866141733
        },
        {
          "duration": 0.11956521739130466,
          "durationTicks": 11,
          "midi": 74,
          "name": "D5",
          "ticks": 459,
          "time": 4.989130434782608,
          "velocity": 0.25196850393700787
        },
        {
          "duration": 0.02173913043478226,
          "durationTicks": 2,
          "midi": 47,
          "name": "B2",
          "ticks": 460,
          "time": 5,
          "velocity": 0.48031496062992124
        },
        {
          "duration": 0.06521739130434767,
          "durationTicks": 6,
          "midi": 61,
          "name": "C#4",
          "ticks": 460,
          "time": 5,
          "velocity": 0.3543307086614173
        },
        {
          "duration": 0.17391304347826075,
          "durationTicks": 16,
          "midi": 68,
          "name": "G#4",
          "ticks": 461,
          "time": 5.010869565217392,
          "velocity": 0.25984251968503935
        },
        {
          "duration": 0.16304347826087007,
          "durationTicks": 15,
          "midi": 47,
          "name": "B2",
          "ticks": 463,
          "time": 5.032608695652174,
          "velocity": 0.4566929133858268
        },
        {
          "duration": 0.02173913043478226,
          "durationTicks": 2,
          "midi": 54,
          "name": "F#3",
          "ticks": 468,
          "time": 5.086956521739131,
          "velocity": 0.2677165354330709
        },
        {
          "duration": 0.07608695652173925,
          "durationTicks": 7,
          "midi": 61,
          "name": "C#4",
          "ticks": 469,
          "time": 5.0978260869565215,
          "velocity": 0.25196850393700787
        },
        {
          "duration": 0.054347826086956985,
          "durationTicks": 5,
          "midi": 54,
          "name": "F#3",
          "ticks": 473,
          "time": 5.141304347826087,
          "velocity": 0.2440944881889764
        },
        {
          "duration": 0.032608695652173836,
          "durationTicks": 3,
          "midi": 60,
          "name": "C4",
          "ticks": 476,
          "time": 5.173913043478261,
          "velocity": 0.14960629921259844
        },
        {
          "duration": 0.04347826086956541,
          "durationTicks": 4,
          "midi": 70,
          "name": "A#4",
          "ticks": 476,
          "time": 5.173913043478261,
          "velocity": 0.08661417322834646
        },
        {
          "duration": 0.02173913043478315,
          "durationTicks": 2,
          "midi": 55,
          "name": "G3",
          "ticks": 479,
          "time": 5.206521739130435,
          "velocity": 0.4566929133858268
        },
        {
          "duration": 0.032608695652173836,
          "durationTicks": 3,
          "midi": 78,
          "name": "F#5",
          "ticks": 480,
          "time": 5.217391304347826,
          "velocity": 0.2204724409448819
        },
        {
          "duration": 0.010869565217390686,
          "durationTicks": 1,
          "midi": 50,
          "name": "D3",
          "ticks": 481,
          "time": 5.228260869565218,
          "velocity": 0.5433070866141733
        },
        {
          "duration": 0.02173913043478315,
          "durationTicks": 2,
          "midi": 47,
          "name": "B2",
          "ticks": 482,
          "time": 5.239130434782608,
          "velocity": 0.4881889763779528
        },
        {
          "duration": 0.06521739130434767,
          "durationTicks": 6,
          "midi": 61,
          "name": "C#4",
          "ticks": 483,
          "time": 5.25,
          "velocity": 0.3937007874015748
        },
        {
          "duration": 0.04347826086956541,
          "durationTicks": 4,
          "midi": 74,
          "name": "D5",
          "ticks": 483,
          "time": 5.25,
          "velocity": 0.15748031496062992
        },
        {
          "duration": 0.14130434782608692,
          "durationTicks": 13,
          "midi": 47,
          "name": "B2",
          "ticks": 485,
          "time": 5.271739130434782,
          "velocity": 0.44881889763779526
        },
        {
          "duration": 0.04347826086956541,
          "durationTicks": 4,
          "midi": 70,
          "name": "A#4",
          "ticks": 485,
          "time": 5.271739130434782,
          "velocity": 0.25196850393700787
        },
        {
          "duration": 0.02173913043478226,
          "durationTicks": 2,
          "midi": 54,
          "name": "F#3",
          "ticks": 486,
          "time": 5.282608695652174,
          "velocity": 0.28346456692913385
        },
        {
          "duration": 0.02173913043478226,
          "durationTicks": 2,
          "midi": 54,
          "name": "F#3",
          "ticks": 491,
          "time": 5.336956521739131,
          "velocity": 0.3464566929133858
        },
        {
          "duration": 0.06521739130434767,
          "durationTicks": 6,
          "midi": 61,
          "name": "C#4",
          "ticks": 491,
          "time": 5.336956521739131,
          "velocity": 0.2992125984251969
        },
        {
          "duration": 0.04347826086956452,
          "durationTicks": 4,
          "midi": 68,
          "name": "G#4",
          "ticks": 491,
          "time": 5.336956521739131,
          "velocity": 0.2047244094488189
        },
        {
          "duration": 0.0978260869565224,
          "durationTicks": 9,
          "midi": 70,
          "name": "A#4",
          "ticks": 495,
          "time": 5.380434782608695,
          "velocity": 0.18110236220472442
        },
        {
          "duration": 0.0543478260869561,
          "durationTicks": 5,
          "midi": 60,
          "name": "C4",
          "ticks": 497,
          "time": 5.4021739130434785,
          "velocity": 0.2125984251968504
        },
        {
          "duration": 0.04347826086956541,
          "durationTicks": 4,
          "midi": 53,
          "name": "F3",
          "ticks": 499,
          "time": 5.423913043478261,
          "velocity": 0.4645669291338583
        },
        {
          "duration": 0.010869565217391575,
          "durationTicks": 1,
          "midi": 50,
          "name": "D3",
          "ticks": 503,
          "time": 5.467391304347826,
          "velocity": 0.5433070866141733
        },
        {
          "duration": 0.02173913043478226,
          "durationTicks": 2,
          "midi": 67,
          "name": "G4",
          "ticks": 503,
          "time": 5.467391304347826,
          "velocity": 0.31496062992125984
        },
        {
          "duration": 0.11956521739130466,
          "durationTicks": 11,
          "midi": 74,
          "name": "D5",
          "ticks": 503,
          "time": 5.467391304347826,
          "velocity": 0.23622047244094488
        },
        {
          "duration": 0.0543478260869561,
          "durationTicks": 5,
          "midi": 78,
          "name": "F#5",
          "ticks": 503,
          "time": 5.467391304347826,
          "velocity": 0.08661417322834646
        },
        {
          "duration": 0.02173913043478226,
          "durationTicks": 2,
          "midi": 47,
          "name": "B2",
          "ticks": 504,
          "time": 5.478260869565218,
          "velocity": 0.48031496062992124
        },
        {
          "duration": 0.02173913043478226,
          "durationTicks": 2,
          "midi": 57,
          "name": "A3",
          "ticks": 504,
          "time": 5.478260869565218,
          "velocity": 0.2992125984251969
        },
        {
          "duration": 0.0543478260869561,
          "durationTicks": 5,
          "midi": 61,
          "name": "C#4",
          "ticks": 504,
          "time": 5.478260869565218,
          "velocity": 0.3543307086614173
        },
        {
          "duration": 0.13043478260869623,
          "durationTicks": 12,
          "midi": 68,
          "name": "G#4",
          "ticks": 505,
          "time": 5.489130434782608,
          "velocity": 0.25196850393700787
        },
        {
          "duration": 0.14130434782608692,
          "durationTicks": 13,
          "midi": 47,
          "name": "B2",
          "ticks": 507,
          "time": 5.510869565217392,
          "velocity": 0.44881889763779526
        },
        {
          "duration": 0.02173913043478315,
          "durationTicks": 2,
          "midi": 54,
          "name": "F#3",
          "ticks": 508,
          "time": 5.521739130434782,
          "velocity": 0.25196850393700787
        },
        {
          "duration": 0.02173913043478315,
          "durationTicks": 2,
          "midi": 54,
          "name": "F#3",
          "ticks": 511,
          "time": 5.554347826086956,
          "velocity": 0.23622047244094488
        },
        {
          "duration": 0.02173913043478315,
          "durationTicks": 2,
          "midi": 60,
          "name": "C4",
          "ticks": 512,
          "time": 5.565217391304348,
          "velocity": 0.25196850393700787
        },
        {
          "duration": 0.02173913043478226,
          "durationTicks": 2,
          "midi": 55,
          "name": "G3",
          "ticks": 513,
          "time": 5.576086956521739,
          "velocity": 0.2283464566929134
        },
        {
          "duration": 0.04347826086956452,
          "durationTicks": 4,
          "midi": 61,
          "name": "C#4",
          "ticks": 514,
          "time": 5.586956521739131,
          "velocity": 0.2125984251968504
        },
        {
          "duration": 0.08695652173913082,
          "durationTicks": 8,
          "midi": 54,
          "name": "F#3",
          "ticks": 515,
          "time": 5.5978260869565215,
          "velocity": 0.2440944881889764
        },
        {
          "duration": 0.032608695652173836,
          "durationTicks": 3,
          "midi": 78,
          "name": "F#5",
          "ticks": 526,
          "time": 5.717391304347826,
          "velocity": 0.1732283464566929
        },
        {
          "duration": 0.010869565217390686,
          "durationTicks": 1,
          "midi": 49,
          "name": "C#3",
          "ticks": 527,
          "time": 5.728260869565218,
          "velocity": 0.5433070866141733
        },
        {
          "duration": 0.02173913043478226,
          "durationTicks": 2,
          "midi": 56,
          "name": "G#3",
          "ticks": 527,
          "time": 5.728260869565218,
          "velocity": 0.4409448818897638
        },
        {
          "duration": 0.02173913043478315,
          "durationTicks": 2,
          "midi": 47,
          "name": "B2",
          "ticks": 528,
          "time": 5.739130434782608,
          "velocity": 0.49606299212598426
        },
        {
          "duration": 0.07608695652173925,
          "durationTicks": 7,
          "midi": 61,
          "name": "C#4",
          "ticks": 528,
          "time": 5.739130434782608,
          "velocity": 0.3464566929133858
        },
        {
          "duration": 0.06521739130434767,
          "durationTicks": 6,
          "midi": 74,
          "name": "D5",
          "ticks": 529,
          "time": 5.75,
          "velocity": 0.2047244094488189
        },
        {
          "duration": 0.032608695652173836,
          "durationTicks": 3,
          "midi": 78,
          "name": "F#5",
          "ticks": 530,
          "time": 5.760869565217392,
          "velocity": 0.09448818897637795
        },
        {
          "duration": 0.1521739130434785,
          "durationTicks": 14,
          "midi": 47,
          "name": "B2",
          "ticks": 531,
          "time": 5.771739130434782,
          "velocity": 0.4566929133858268
        },
        {
          "duration": 0.02173913043478226,
          "durationTicks": 2,
          "midi": 54,
          "name": "F#3",
          "ticks": 532,
          "time": 5.782608695652174,
          "velocity": 0.2992125984251969
        },
        {
          "duration": 0.06521739130434767,
          "durationTicks": 6,
          "midi": 68,
          "name": "G#4",
          "ticks": 535,
          "time": 5.815217391304348,
          "velocity": 0.18110236220472442
        },
        {
          "duration": 0.02173913043478226,
          "durationTicks": 2,
          "midi": 55,
          "name": "G3",
          "ticks": 536,
          "time": 5.826086956521739,
          "velocity": 0.30708661417322836
        },
        {
          "duration": 0.02173913043478226,
          "durationTicks": 2,
          "midi": 60,
          "name": "C4",
          "ticks": 536,
          "time": 5.826086956521739,
          "velocity": 0.25196850393700787
        },
        {
          "duration": 0.04347826086956541,
          "durationTicks": 4,
          "midi": 54,
          "name": "F#3",
          "ticks": 538,
          "time": 5.8478260869565215,
          "velocity": 0.28346456692913385
        },
        {
          "duration": 0.032608695652173836,
          "durationTicks": 3,
          "midi": 55,
          "name": "G3",
          "ticks": 542,
          "time": 5.891304347826087,
          "velocity": 0.2125984251968504
        },
        {
          "duration": 0.04347826086956541,
          "durationTicks": 4,
          "midi": 70,
          "name": "A#4",
          "ticks": 544,
          "time": 5.913043478260869,
          "velocity": 0.10236220472440945
        },
        {
          "duration": 0.032608695652173836,
          "durationTicks": 3,
          "midi": 54,
          "name": "F#3",
          "ticks": 545,
          "time": 5.923913043478261,
          "velocity": 0.2283464566929134
        },
        {
          "duration": 0.02173913043478315,
          "durationTicks": 2,
          "midi": 68,
          "name": "G#4",
          "ticks": 548,
          "time": 5.956521739130435,
          "velocity": 0.2440944881889764
        },
        {
          "duration": 0.010869565217391575,
          "durationTicks": 1,
          "midi": 50,
          "name": "D3",
          "ticks": 549,
          "time": 5.967391304347826,
          "velocity": 0.5354330708661418
        },
        {
          "duration": 0.06521739130434767,
          "durationTicks": 6,
          "midi": 78,
          "name": "F#5",
          "ticks": 549,
          "time": 5.967391304347826,
          "velocity": 0.07874015748031496
        },
        {
          "duration": 0.02173913043478226,
          "durationTicks": 2,
          "midi": 47,
          "name": "B2",
          "ticks": 550,
          "time": 5.978260869565218,
          "velocity": 0.4881889763779528
        },
        {
          "duration": 0.08695652173912993,
          "durationTicks": 8,
          "midi": 61,
          "name": "C#4",
          "ticks": 550,
          "time": 5.978260869565218,
          "velocity": 0.3858267716535433
        },
        {
          "duration": 0.10869565217391308,
          "durationTicks": 10,
          "midi": 74,
          "name": "D5",
          "ticks": 550,
          "time": 5.978260869565218,
          "velocity": 0.25196850393700787
        },
        {
          "duration": 0.14130434782608692,
          "durationTicks": 13,
          "midi": 68,
          "name": "G#4",
          "ticks": 551,
          "time": 5.989130434782608,
          "velocity": 0.25196850393700787
        },
        {
          "duration": 0.13043478260869534,
          "durationTicks": 12,
          "midi": 47,
          "name": "B2",
          "ticks": 553,
          "time": 6.010869565217392,
          "velocity": 0.4409448818897638
        },
        {
          "duration": 0.032608695652173836,
          "durationTicks": 3,
          "midi": 54,
          "name": "F#3",
          "ticks": 554,
          "time": 6.021739130434782,
          "velocity": 0.30708661417322836
        },
        {
          "duration": 0.0543478260869561,
          "durationTicks": 5,
          "midi": 61,
          "name": "C#4",
          "ticks": 560,
          "time": 6.086956521739131,
          "velocity": 0.1732283464566929
        },
        {
          "duration": 0.02173913043478226,
          "durationTicks": 2,
          "midi": 53,
          "name": "F3",
          "ticks": 562,
          "time": 6.108695652173913,
          "velocity": 0.25984251968503935
        },
        {
          "duration": 0.032608695652173836,
          "durationTicks": 3,
          "midi": 54,
          "name": "F#3",
          "ticks": 564,
          "time": 6.130434782608695,
          "velocity": 0.28346456692913385
        },
        {
          "duration": 0.04347826086956541,
          "durationTicks": 4,
          "midi": 70,
          "name": "A#4",
          "ticks": 564,
          "time": 6.130434782608695,
          "velocity": 0.08661417322834646
        },
        {
          "duration": 0.032608695652173836,
          "durationTicks": 3,
          "midi": 78,
          "name": "F#5",
          "ticks": 568,
          "time": 6.173913043478261,
          "velocity": 0.18110236220472442
        },
        {
          "duration": 0.04347826086956541,
          "durationTicks": 4,
          "midi": 66,
          "name": "F#4",
          "ticks": 569,
          "time": 6.184782608695652,
          "velocity": 0.25984251968503935
        },
        {
          "duration": 0.032608695652173836,
          "durationTicks": 3,
          "midi": 73,
          "name": "C#5",
          "ticks": 569,
          "time": 6.184782608695652,
          "velocity": 0.14173228346456693
        },
        {
          "duration": 0.11956521739130377,
          "durationTicks": 11,
          "midi": 47,
          "name": "B2",
          "ticks": 570,
          "time": 6.195652173913044,
          "velocity": 0.4566929133858268
        },
        {
          "duration": 0.07608695652173836,
          "durationTicks": 7,
          "midi": 61,
          "name": "C#4",
          "ticks": 570,
          "time": 6.195652173913044,
          "velocity": 0.33858267716535434
        },
        {
          "duration": 0.08695652173913082,
          "durationTicks": 8,
          "midi": 70,
          "name": "A#4",
          "ticks": 571,
          "time": 6.206521739130435,
          "velocity": 0.1968503937007874
        },
        {
          "duration": 0.04347826086956541,
          "durationTicks": 4,
          "midi": 54,
          "name": "F#3",
          "ticks": 572,
          "time": 6.217391304347826,
          "velocity": 0.36220472440944884
        },
        {
          "duration": 0.032608695652173836,
          "durationTicks": 3,
          "midi": 54,
          "name": "F#3",
          "ticks": 578,
          "time": 6.282608695652174,
          "velocity": 0.3464566929133858
        },
        {
          "duration": 0.04347826086956541,
          "durationTicks": 4,
          "midi": 60,
          "name": "C4",
          "ticks": 579,
          "time": 6.293478260869565,
          "velocity": 0.3700787401574803
        },
        {
          "duration": 0.11956521739130466,
          "durationTicks": 11,
          "midi": 74,
          "name": "D5",
          "ticks": 582,
          "time": 6.326086956521739,
          "velocity": 0.25984251968503935
        },
        {
          "duration": 0.11956521739130377,
          "durationTicks": 11,
          "midi": 47,
          "name": "B2",
          "ticks": 583,
          "time": 6.336956521739131,
          "velocity": 0.48031496062992124
        },
        {
          "duration": 0.07608695652173836,
          "durationTicks": 7,
          "midi": 61,
          "name": "C#4",
          "ticks": 583,
          "time": 6.336956521739131,
          "velocity": 0.3700787401574803
        },
        {
          "duration": 0.02173913043478226,
          "durationTicks": 2,
          "midi": 67,
          "name": "G4",
          "ticks": 583,
          "time": 6.336956521739131,
          "velocity": 0.25984251968503935
        },
        {
          "duration": 0.09782608695652151,
          "durationTicks": 9,
          "midi": 68,
          "name": "G#4",
          "ticks": 585,
          "time": 6.358695652173913,
          "velocity": 0.23622047244094488
        },
        {
          "duration": 0.06521739130434856,
          "durationTicks": 6,
          "midi": 54,
          "name": "F#3",
          "ticks": 587,
          "time": 6.380434782608695,
          "velocity": 0.30708661417322836
        },
        {
          "duration": 0.02173913043478226,
          "durationTicks": 2,
          "midi": 61,
          "name": "C#4",
          "ticks": 592,
          "time": 6.434782608695652,
          "velocity": 0.3543307086614173
        },
        {
          "duration": 0.02173913043478226,
          "durationTicks": 2,
          "midi": 47,
          "name": "B2",
          "ticks": 595,
          "time": 6.467391304347826,
          "velocity": 0.4409448818897638
        },
        {
          "duration": 0.07608695652173925,
          "durationTicks": 7,
          "midi": 61,
          "name": "C#4",
          "ticks": 595,
          "time": 6.467391304347826,
          "velocity": 0.3937007874015748
        },
        {
          "duration": 0.08695652173912993,
          "durationTicks": 8,
          "midi": 74,
          "name": "D5",
          "ticks": 595,
          "time": 6.467391304347826,
          "velocity": 0.1889763779527559
        },
        {
          "duration": 0.07608695652173836,
          "durationTicks": 7,
          "midi": 68,
          "name": "G#4",
          "ticks": 596,
          "time": 6.478260869565218,
          "velocity": 0.2204724409448819
        },
        {
          "duration": 0.02173913043478315,
          "durationTicks": 2,
          "midi": 48,
          "name": "C3",
          "ticks": 597,
          "time": 6.489130434782608,
          "velocity": 0.41732283464566927
        },
        {
          "duration": 0.02173913043478226,
          "durationTicks": 2,
          "midi": 54,
          "name": "F#3",
          "ticks": 598,
          "time": 6.5,
          "velocity": 0.2755905511811024
        },
        {
          "duration": 0.13043478260869534,
          "durationTicks": 12,
          "midi": 47,
          "name": "B2",
          "ticks": 599,
          "time": 6.510869565217392,
          "velocity": 0.4094488188976378
        },
        {
          "duration": 0.032608695652174724,
          "durationTicks": 3,
          "midi": 54,
          "name": "F#3",
          "ticks": 603,
          "time": 6.554347826086956,
          "velocity": 0.25196850393700787
        },
        {
          "duration": 0.054347826086956985,
          "durationTicks": 5,
          "midi": 61,
          "name": "C#4",
          "ticks": 604,
          "time": 6.565217391304348,
          "velocity": 0.2204724409448819
        },
        {
          "duration": 0.04347826086956541,
          "durationTicks": 4,
          "midi": 68,
          "name": "G#4",
          "ticks": 605,
          "time": 6.576086956521739,
          "velocity": 0.16535433070866143
        },
        {
          "duration": 0.032608695652173836,
          "durationTicks": 3,
          "midi": 55,
          "name": "G3",
          "ticks": 608,
          "time": 6.608695652173913,
          "velocity": 0.10236220472440945
        },
        {
          "duration": 0.032608695652173836,
          "durationTicks": 3,
          "midi": 60,
          "name": "C4",
          "ticks": 609,
          "time": 6.619565217391305,
          "velocity": 0.07086614173228346
        },
        {
          "duration": 0.06521739130434767,
          "durationTicks": 6,
          "midi": 70,
          "name": "A#4",
          "ticks": 609,
          "time": 6.619565217391305,
          "velocity": 0.10236220472440945
        },
        {
          "duration": 0.04347826086956541,
          "durationTicks": 4,
          "midi": 54,
          "name": "F#3",
          "ticks": 611,
          "time": 6.641304347826087,
          "velocity": 0.1732283464566929
        },
        {
          "duration": 0.06521739130434767,
          "durationTicks": 6,
          "midi": 61,
          "name": "C#4",
          "ticks": 614,
          "time": 6.673913043478261,
          "velocity": 0.30708661417322836
        },
        {
          "duration": 0.02173913043478226,
          "durationTicks": 2,
          "midi": 55,
          "name": "G3",
          "ticks": 618,
          "time": 6.717391304347826,
          "velocity": 0.3937007874015748
        },
        {
          "duration": 0.04347826086956452,
          "durationTicks": 4,
          "midi": 70,
          "name": "A#4",
          "ticks": 619,
          "time": 6.728260869565218,
          "velocity": 0.1732283464566929
        },
        {
          "duration": 0.16304347826087007,
          "durationTicks": 15,
          "midi": 68,
          "name": "G#4",
          "ticks": 620,
          "time": 6.739130434782608,
          "velocity": 0.28346456692913385
        },
        {
          "duration": 0.07608695652173925,
          "durationTicks": 7,
          "midi": 61,
          "name": "C#4",
          "ticks": 621,
          "time": 6.75,
          "velocity": 0.3937007874015748
        },
        {
          "duration": 0.10869565217391308,
          "durationTicks": 10,
          "midi": 74,
          "name": "D5",
          "ticks": 621,
          "time": 6.75,
          "velocity": 0.2677165354330709
        },
        {
          "duration": 0.16304347826086918,
          "durationTicks": 15,
          "midi": 47,
          "name": "B2",
          "ticks": 622,
          "time": 6.760869565217392,
          "velocity": 0.4330708661417323
        },
        {
          "duration": 0.010869565217391575,
          "durationTicks": 1,
          "midi": 49,
          "name": "C#3",
          "ticks": 646,
          "time": 7.021739130434782,
          "velocity": 0.5275590551181102
        },
        {
          "duration": 0.18478260869565233,
          "durationTicks": 17,
          "midi": 47,
          "name": "B2",
          "ticks": 647,
          "time": 7.032608695652174,
          "velocity": 0.47244094488188976
        },
        {
          "duration": 0.07608695652173925,
          "durationTicks": 7,
          "midi": 61,
          "name": "C#4",
          "ticks": 647,
          "time": 7.032608695652174,
          "velocity": 0.3700787401574803
        },
        {
          "duration": 0.07608695652173925,
          "durationTicks": 7,
          "midi": 74,
          "name": "D5",
          "ticks": 647,
          "time": 7.032608695652174,
          "velocity": 0.2047244094488189
        },
        {
          "duration": 0.13043478260869534,
          "durationTicks": 12,
          "midi": 68,
          "name": "G#4",
          "ticks": 648,
          "time": 7.043478260869565,
          "velocity": 0.2204724409448819
        },
        {
          "duration": 0.02173913043478315,
          "durationTicks": 2,
          "midi": 55,
          "name": "G3",
          "ticks": 656,
          "time": 7.130434782608695,
          "velocity": 0.2283464566929134
        },
        {
          "duration": 0.054347826086956985,
          "durationTicks": 5,
          "midi": 61,
          "name": "C#4",
          "ticks": 656,
          "time": 7.130434782608695,
          "velocity": 0.1889763779527559
        },
        {
          "duration": 0.032608695652174724,
          "durationTicks": 3,
          "midi": 54,
          "name": "F#3",
          "ticks": 659,
          "time": 7.163043478260869,
          "velocity": 0.16535433070866143
        },
        {
          "duration": 0.010869565217391575,
          "durationTicks": 1,
          "midi": 50,
          "name": "D3",
          "ticks": 689,
          "time": 7.489130434782608,
          "velocity": 0.5354330708661418
        },
        {
          "duration": 0.06521739130434767,
          "durationTicks": 6,
          "midi": 78,
          "name": "F#5",
          "ticks": 689,
          "time": 7.489130434782608,
          "velocity": 0.16535433070866143
        },
        {
          "duration": 0.010869565217391575,
          "durationTicks": 1,
          "midi": 49,
          "name": "C#3",
          "ticks": 690,
          "time": 7.5,
          "velocity": 0.5590551181102362
        },
        {
          "duration": 0.02173913043478226,
          "durationTicks": 2,
          "midi": 67,
          "name": "G4",
          "ticks": 690,
          "time": 7.5,
          "velocity": 0.30708661417322836
        },
        {
          "duration": 0.032608695652173836,
          "durationTicks": 3,
          "midi": 70,
          "name": "A#4",
          "ticks": 690,
          "time": 7.5,
          "velocity": 0.16535433070866143
        },
        {
          "duration": 0.17391304347826075,
          "durationTicks": 16,
          "midi": 47,
          "name": "B2",
          "ticks": 691,
          "time": 7.510869565217392,
          "velocity": 0.47244094488188976
        },
        {
          "duration": 0.07608695652173925,
          "durationTicks": 7,
          "midi": 61,
          "name": "C#4",
          "ticks": 691,
          "time": 7.510869565217392,
          "velocity": 0.3700787401574803
        },
        {
          "duration": 0.07608695652173925,
          "durationTicks": 7,
          "midi": 74,
          "name": "D5",
          "ticks": 691,
          "time": 7.510869565217392,
          "velocity": 0.2440944881889764
        },
        {
          "duration": 0.13043478260869623,
          "durationTicks": 12,
          "midi": 68,
          "name": "G#4",
          "ticks": 692,
          "time": 7.521739130434782,
          "velocity": 0.25196850393700787
        },
        {
          "duration": 0.032608695652173836,
          "durationTicks": 3,
          "midi": 55,
          "name": "G3",
          "ticks": 694,
          "time": 7.543478260869565,
          "velocity": 0.23622047244094488
        },
        {
          "duration": 0.032608695652173836,
          "durationTicks": 3,
          "midi": 54,
          "name": "F#3",
          "ticks": 697,
          "time": 7.576086956521739,
          "velocity": 0.25984251968503935
        },
        {
          "duration": 0.06521739130434767,
          "durationTicks": 6,
          "midi": 61,
          "name": "C#4",
          "ticks": 700,
          "time": 7.608695652173913,
          "velocity": 0.2125984251968504
        },
        {
          "duration": 0.06521739130434767,
          "durationTicks": 6,
          "midi": 54,
          "name": "F#3",
          "ticks": 703,
          "time": 7.641304347826087,
          "velocity": 0.2283464566929134
        },
        {
          "duration": 0.032608695652173836,
          "durationTicks": 3,
          "midi": 54,
          "name": "F#3",
          "ticks": 713,
          "time": 7.75,
          "velocity": 0.14960629921259844
        },
        {
          "duration": 0.06521739130434856,
          "durationTicks": 6,
          "midi": 54,
          "name": "F#3",
          "ticks": 718,
          "time": 7.804347826086956,
          "velocity": 0.10236220472440945
        },
        {
          "duration": 0.04347826086956541,
          "durationTicks": 4,
          "midi": 54,
          "name": "F#3",
          "ticks": 727,
          "time": 7.9021739130434785,
          "velocity": 0.07874015748031496
        },
        {
          "duration": 0.010869565217392463,
          "durationTicks": 1,
          "midi": 49,
          "name": "C#3",
          "ticks": 737,
          "time": 8.01086956521739,
          "velocity": 0.5669291338582677
        },
        {
          "duration": 0.02173913043478315,
          "durationTicks": 2,
          "midi": 67,
          "name": "G4",
          "ticks": 737,
          "time": 8.01086956521739,
          "velocity": 0.2992125984251969
        },
        {
          "duration": 0.021739130434781373,
          "durationTicks": 2,
          "midi": 47,
          "name": "B2",
          "ticks": 738,
          "time": 8.021739130434783,
          "velocity": 0.4881889763779528
        },
        {
          "duration": 0.07608695652173836,
          "durationTicks": 7,
          "midi": 61,
          "name": "C#4",
          "ticks": 738,
          "time": 8.021739130434783,
          "velocity": 0.4094488188976378
        },
        {
          "duration": 0.08695652173912904,
          "durationTicks": 8,
          "midi": 74,
          "name": "D5",
          "ticks": 738,
          "time": 8.021739130434783,
          "velocity": 0.2283464566929134
        },
        {
          "duration": 0.13043478260869534,
          "durationTicks": 12,
          "midi": 68,
          "name": "G#4",
          "ticks": 739,
          "time": 8.032608695652174,
          "velocity": 0.2440944881889764
        },
        {
          "duration": 0.16304347826086918,
          "durationTicks": 15,
          "midi": 47,
          "name": "B2",
          "ticks": 741,
          "time": 8.054347826086957,
          "velocity": 0.44881889763779526
        },
        {
          "duration": 0.02173913043478315,
          "durationTicks": 2,
          "midi": 60,
          "name": "C4",
          "ticks": 746,
          "time": 8.108695652173912,
          "velocity": 0.25984251968503935
        },
        {
          "duration": 0.054347826086956985,
          "durationTicks": 5,
          "midi": 61,
          "name": "C#4",
          "ticks": 748,
          "time": 8.130434782608695,
          "velocity": 0.2125984251968504
        },
        {
          "duration": 0.06521739130434767,
          "durationTicks": 6,
          "midi": 70,
          "name": "A#4",
          "ticks": 752,
          "time": 8.173913043478262,
          "velocity": 0.12598425196850394
        },
        {
          "duration": 0.04347826086956452,
          "durationTicks": 4,
          "midi": 54,
          "name": "F#3",
          "ticks": 755,
          "time": 8.206521739130435,
          "velocity": 0.12598425196850394
        },
        {
          "duration": 0.021739130434781373,
          "durationTicks": 2,
          "midi": 59,
          "name": "B3",
          "ticks": 761,
          "time": 8.271739130434783,
          "velocity": 0.31496062992125984
        },
        {
          "duration": 0.06521739130434767,
          "durationTicks": 6,
          "midi": 78,
          "name": "F#5",
          "ticks": 763,
          "time": 8.293478260869565,
          "velocity": 0.11811023622047244
        },
        {
          "duration": 0.06521739130434767,
          "durationTicks": 6,
          "midi": 61,
          "name": "C#4",
          "ticks": 764,
          "time": 8.304347826086957,
          "velocity": 0.36220472440944884
        },
        {
          "duration": 0.07608695652173836,
          "durationTicks": 7,
          "midi": 74,
          "name": "D5",
          "ticks": 764,
          "time": 8.304347826086957,
          "velocity": 0.2204724409448819
        },
        {
          "duration": 0.09782608695652151,
          "durationTicks": 9,
          "midi": 47,
          "name": "B2",
          "ticks": 765,
          "time": 8.315217391304348,
          "velocity": 0.4409448818897638
        },
        {
          "duration": 0.02173913043478315,
          "durationTicks": 2,
          "midi": 66,
          "name": "F#4",
          "ticks": 765,
          "time": 8.315217391304348,
          "velocity": 0.2283464566929134
        },
        {
          "duration": 0.032608695652173836,
          "durationTicks": 3,
          "midi": 55,
          "name": "G3",
          "ticks": 767,
          "time": 8.33695652173913,
          "velocity": 0.2204724409448819
        },
        {
          "duration": 0.07608695652174013,
          "durationTicks": 7,
          "midi": 68,
          "name": "G#4",
          "ticks": 768,
          "time": 8.347826086956522,
          "velocity": 0.15748031496062992
        },
        {
          "duration": 0.04347826086956452,
          "durationTicks": 4,
          "midi": 54,
          "name": "F#3",
          "ticks": 770,
          "time": 8.369565217391305,
          "velocity": 0.30708661417322836
        },
        {
          "duration": 0.05434782608695521,
          "durationTicks": 5,
          "midi": 60,
          "name": "C4",
          "ticks": 772,
          "time": 8.391304347826088,
          "velocity": 0.36220472440944884
        },
        {
          "duration": 0.02173913043478315,
          "durationTicks": 2,
          "midi": 48,
          "name": "C3",
          "ticks": 774,
          "time": 8.41304347826087,
          "velocity": 0.48031496062992124
        },
        {
          "duration": 0.021739130434781373,
          "durationTicks": 2,
          "midi": 67,
          "name": "G4",
          "ticks": 775,
          "time": 8.423913043478262,
          "velocity": 0.2283464566929134
        },
        {
          "duration": 0.032608695652173836,
          "durationTicks": 3,
          "midi": 47,
          "name": "B2",
          "ticks": 776,
          "time": 8.434782608695652,
          "velocity": 0.4566929133858268
        },
        {
          "duration": 0.09782608695652151,
          "durationTicks": 9,
          "midi": 74,
          "name": "D5",
          "ticks": 776,
          "time": 8.434782608695652,
          "velocity": 0.2204724409448819
        },
        {
          "duration": 0.07608695652174013,
          "durationTicks": 7,
          "midi": 61,
          "name": "C#4",
          "ticks": 777,
          "time": 8.445652173913043,
          "velocity": 0.2755905511811024
        },
        {
          "duration": 0.02173913043478315,
          "durationTicks": 2,
          "midi": 54,
          "name": "F#3",
          "ticks": 779,
          "time": 8.467391304347826,
          "velocity": 0.28346456692913385
        },
        {
          "duration": 0.06521739130434767,
          "durationTicks": 6,
          "midi": 47,
          "name": "B2",
          "ticks": 780,
          "time": 8.478260869565217,
          "velocity": 0.4015748031496063
        },
        {
          "duration": 0.08695652173913082,
          "durationTicks": 8,
          "midi": 68,
          "name": "G#4",
          "ticks": 780,
          "time": 8.478260869565217,
          "velocity": 0.1889763779527559
        },
        {
          "duration": 0.0434782608695663,
          "durationTicks": 4,
          "midi": 54,
          "name": "F#3",
          "ticks": 783,
          "time": 8.51086956521739,
          "velocity": 0.31496062992125984
        },
        {
          "duration": 0.02173913043478315,
          "durationTicks": 2,
          "midi": 60,
          "name": "C4",
          "ticks": 785,
          "time": 8.532608695652174,
          "velocity": 0.2283464566929134
        },
        {
          "duration": 0.07608695652174013,
          "durationTicks": 7,
          "midi": 61,
          "name": "C#4",
          "ticks": 788,
          "time": 8.565217391304348,
          "velocity": 0.30708661417322836
        },
        {
          "duration": 0.02173913043478315,
          "durationTicks": 2,
          "midi": 67,
          "name": "G4",
          "ticks": 788,
          "time": 8.565217391304348,
          "velocity": 0.28346456692913385
        },
        {
          "duration": 0.08695652173913082,
          "durationTicks": 8,
          "midi": 74,
          "name": "D5",
          "ticks": 788,
          "time": 8.565217391304348,
          "velocity": 0.2440944881889764
        },
        {
          "duration": 0.18478260869565233,
          "durationTicks": 17,
          "midi": 47,
          "name": "B2",
          "ticks": 789,
          "time": 8.576086956521738,
          "velocity": 0.4251968503937008
        },
        {
          "duration": 0.13043478260869534,
          "durationTicks": 12,
          "midi": 68,
          "name": "G#4",
          "ticks": 790,
          "time": 8.58695652173913,
          "velocity": 0.2283464566929134
        },
        {
          "duration": 0.05434782608695521,
          "durationTicks": 5,
          "midi": 61,
          "name": "C#4",
          "ticks": 798,
          "time": 8.673913043478262,
          "velocity": 0.16535433070866143
        },
        {
          "duration": 0.0434782608695663,
          "durationTicks": 4,
          "midi": 60,
          "name": "C4",
          "ticks": 803,
          "time": 8.728260869565217,
          "velocity": 0.08661417322834646
        },
        {
          "duration": 0.02173913043478315,
          "durationTicks": 2,
          "midi": 52,
          "name": "E3",
          "ticks": 812,
          "time": 8.826086956521738,
          "velocity": 0.47244094488188976
        },
        {
          "duration": 0.032608695652173836,
          "durationTicks": 3,
          "midi": 70,
          "name": "A#4",
          "ticks": 812,
          "time": 8.826086956521738,
          "velocity": 0.2440944881889764
        },
        {
          "duration": 0.021739130434781373,
          "durationTicks": 2,
          "midi": 56,
          "name": "G#3",
          "ticks": 813,
          "time": 8.83695652173913,
          "velocity": 0.4645669291338583
        },
        {
          "duration": 0.032608695652173836,
          "durationTicks": 3,
          "midi": 81,
          "name": "A5",
          "ticks": 813,
          "time": 8.83695652173913,
          "velocity": 0.1732283464566929
        },
        {
          "duration": 0.010869565217390686,
          "durationTicks": 1,
          "midi": 49,
          "name": "C#3",
          "ticks": 814,
          "time": 8.847826086956522,
          "velocity": 0.5433070866141733
        },
        {
          "duration": 0.09782608695652151,
          "durationTicks": 9,
          "midi": 74,
          "name": "D5",
          "ticks": 814,
          "time": 8.847826086956522,
          "velocity": 0.2204724409448819
        },
        {
          "duration": 0.02173913043478315,
          "durationTicks": 2,
          "midi": 47,
          "name": "B2",
          "ticks": 815,
          "time": 8.858695652173912,
          "velocity": 0.47244094488188976
        },
        {
          "duration": 0.07608695652174013,
          "durationTicks": 7,
          "midi": 61,
          "name": "C#4",
          "ticks": 815,
          "time": 8.858695652173912,
          "velocity": 0.41732283464566927
        },
        {
          "duration": 0.15217391304347672,
          "durationTicks": 14,
          "midi": 47,
          "name": "B2",
          "ticks": 818,
          "time": 8.891304347826088,
          "velocity": 0.4409448818897638
        },
        {
          "duration": 0.032608695652173836,
          "durationTicks": 3,
          "midi": 70,
          "name": "A#4",
          "ticks": 818,
          "time": 8.891304347826088,
          "velocity": 0.25196850393700787
        },
        {
          "duration": 0.09782608695652151,
          "durationTicks": 9,
          "midi": 68,
          "name": "G#4",
          "ticks": 820,
          "time": 8.91304347826087,
          "velocity": 0.2204724409448819
        },
        {
          "duration": 0.06521739130434767,
          "durationTicks": 6,
          "midi": 61,
          "name": "C#4",
          "ticks": 824,
          "time": 8.956521739130435,
          "velocity": 0.25984251968503935
        },
        {
          "duration": 0.07608695652173836,
          "durationTicks": 7,
          "midi": 70,
          "name": "A#4",
          "ticks": 828,
          "time": 9,
          "velocity": 0.15748031496062992
        },
        {
          "duration": 0.032608695652173836,
          "durationTicks": 3,
          "midi": 61,
          "name": "C#4",
          "ticks": 834,
          "time": 9.065217391304348,
          "velocity": 0.08661417322834646
        },
        {
          "duration": 0.02173913043478315,
          "durationTicks": 2,
          "midi": 50,
          "name": "D3",
          "ticks": 837,
          "time": 9.097826086956522,
          "velocity": 0.5275590551181102
        },
        {
          "duration": 0.02173913043478315,
          "durationTicks": 2,
          "midi": 47,
          "name": "B2",
          "ticks": 839,
          "time": 9.119565217391305,
          "velocity": 0.49606299212598426
        },
        {
          "duration": 0.06521739130434767,
          "durationTicks": 6,
          "midi": 61,
          "name": "C#4",
          "ticks": 839,
          "time": 9.119565217391305,
          "velocity": 0.3464566929133858
        },
        {
          "duration": 0.1413043478260878,
          "durationTicks": 13,
          "midi": 68,
          "name": "G#4",
          "ticks": 840,
          "time": 9.130434782608695,
          "velocity": 0.23622047244094488
        },
        {
          "duration": 0.07608695652174013,
          "durationTicks": 7,
          "midi": 74,
          "name": "D5",
          "ticks": 840,
          "time": 9.130434782608695,
          "velocity": 0.25196850393700787
        },
        {
          "duration": 0.17391304347825987,
          "durationTicks": 16,
          "midi": 47,
          "name": "B2",
          "ticks": 842,
          "time": 9.152173913043478,
          "velocity": 0.4409448818897638
        },
        {
          "duration": 0.032608695652173836,
          "durationTicks": 3,
          "midi": 55,
          "name": "G3",
          "ticks": 842,
          "time": 9.152173913043478,
          "velocity": 0.1889763779527559
        },
        {
          "duration": 0.04347826086956452,
          "durationTicks": 4,
          "midi": 54,
          "name": "F#3",
          "ticks": 845,
          "time": 9.184782608695652,
          "velocity": 0.2440944881889764
        },
        {
          "duration": 0.0434782608695663,
          "durationTicks": 4,
          "midi": 61,
          "name": "C#4",
          "ticks": 849,
          "time": 9.228260869565217,
          "velocity": 0.15748031496062992
        },
        {
          "duration": 0.07608695652173836,
          "durationTicks": 7,
          "midi": 54,
          "name": "F#3",
          "ticks": 851,
          "time": 9.25,
          "velocity": 0.2283464566929134
        },
        {
          "duration": 0.0434782608695663,
          "durationTicks": 4,
          "midi": 54,
          "name": "F#3",
          "ticks": 861,
          "time": 9.358695652173912,
          "velocity": 0.14960629921259844
        },
        {
          "duration": 0.032608695652173836,
          "durationTicks": 3,
          "midi": 60,
          "name": "C4",
          "ticks": 862,
          "time": 9.369565217391305,
          "velocity": 0.11023622047244094
        },
        {
          "duration": 0.05434782608695521,
          "durationTicks": 5,
          "midi": 54,
          "name": "F#3",
          "ticks": 867,
          "time": 9.423913043478262,
          "velocity": 0.10236220472440945
        },
        {
          "duration": 0.032608695652173836,
          "durationTicks": 3,
          "midi": 54,
          "name": "F#3",
          "ticks": 876,
          "time": 9.521739130434783,
          "velocity": 0.07874015748031496
        },
        {
          "duration": 0.06521739130434767,
          "durationTicks": 6,
          "midi": 66,
          "name": "F#4",
          "ticks": 886,
          "time": 9.630434782608695,
          "velocity": 0.29133858267716534
        },
        {
          "duration": 0.02173913043478315,
          "durationTicks": 2,
          "midi": 72,
          "name": "C5",
          "ticks": 886,
          "time": 9.630434782608695,
          "velocity": 0.2992125984251969
        },
        {
          "duration": 0.02173913043478315,
          "durationTicks": 2,
          "midi": 77,
          "name": "F5",
          "ticks": 886,
          "time": 9.630434782608695,
          "velocity": 0.28346456692913385
        },
        {
          "duration": 0.0434782608695663,
          "durationTicks": 4,
          "midi": 61,
          "name": "C#4",
          "ticks": 892,
          "time": 9.695652173913043,
          "velocity": 0.13385826771653545
        },
        {
          "duration": 0.02173913043478315,
          "durationTicks": 2,
          "midi": 66,
          "name": "F#4",
          "ticks": 909,
          "time": 9.880434782608695,
          "velocity": 0.2677165354330709
        },
        {
          "duration": 0.010869565217390686,
          "durationTicks": 1,
          "midi": 49,
          "name": "C#3",
          "ticks": 910,
          "time": 9.891304347826088,
          "velocity": 0.5275590551181102
        },
        {
          "duration": 0.16304347826086918,
          "durationTicks": 15,
          "midi": 47,
          "name": "B2",
          "ticks": 911,
          "time": 9.902173913043478,
          "velocity": 0.4645669291338583
        },
        {
          "duration": 0.06521739130434767,
          "durationTicks": 6,
          "midi": 61,
          "name": "C#4",
          "ticks": 911,
          "time": 9.902173913043478,
          "velocity": 0.30708661417322836
        },
        {
          "duration": 0.04347826086956452,
          "durationTicks": 4,
          "midi": 74,
          "name": "D5",
          "ticks": 911,
          "time": 9.902173913043478,
          "velocity": 0.1889763779527559
        },
        {
          "duration": 0.13043478260869534,
          "durationTicks": 12,
          "midi": 68,
          "name": "G#4",
          "ticks": 912,
          "time": 9.91304347826087,
          "velocity": 0.2047244094488189
        },
        {
          "duration": 0.08695652173913082,
          "durationTicks": 8,
          "midi": 54,
          "name": "F#3",
          "ticks": 917,
          "time": 9.967391304347826,
          "velocity": 0.2677165354330709
        },
        {
          "duration": 0.032608695652173836,
          "durationTicks": 3,
          "midi": 60,
          "name": "C4",
          "ticks": 918,
          "time": 9.978260869565217,
          "velocity": 0.1732283464566929
        },
        {
          "duration": 0.054347826086956985,
          "durationTicks": 5,
          "midi": 54,
          "name": "F#3",
          "ticks": 927,
          "time": 10.076086956521738,
          "velocity": 0.16535433070866143
        },
        {
          "duration": 0.010869565217390686,
          "durationTicks": 1,
          "midi": 50,
          "name": "D3",
          "ticks": 933,
          "time": 10.141304347826088,
          "velocity": 0.5118110236220472
        },
        {
          "duration": 0.17391304347825987,
          "durationTicks": 16,
          "midi": 68,
          "name": "G#4",
          "ticks": 933,
          "time": 10.141304347826088,
          "velocity": 0.28346456692913385
        },
        {
          "duration": 0.032608695652173836,
          "durationTicks": 3,
          "midi": 81,
          "name": "A5",
          "ticks": 933,
          "time": 10.141304347826088,
          "velocity": 0.12598425196850394
        },
        {
          "duration": 0.010869565217390686,
          "durationTicks": 1,
          "midi": 49,
          "name": "C#3",
          "ticks": 934,
          "time": 10.152173913043478,
          "velocity": 0.5354330708661418
        },
        {
          "duration": 0.09782608695652151,
          "durationTicks": 9,
          "midi": 74,
          "name": "D5",
          "ticks": 934,
          "time": 10.152173913043478,
          "velocity": 0.25196850393700787
        },
        {
          "duration": 0.16304347826086918,
          "durationTicks": 15,
          "midi": 47,
          "name": "B2",
          "ticks": 935,
          "time": 10.16304347826087,
          "velocity": 0.4645669291338583
        },
        {
          "duration": 0.08695652173913082,
          "durationTicks": 8,
          "midi": 61,
          "name": "C#4",
          "ticks": 935,
          "time": 10.16304347826087,
          "velocity": 0.36220472440944884
        },
        {
          "duration": 0.032608695652173836,
          "durationTicks": 3,
          "midi": 54,
          "name": "F#3",
          "ticks": 937,
          "time": 10.184782608695652,
          "velocity": 0.2755905511811024
        },
        {
          "duration": 0.02173913043478315,
          "durationTicks": 2,
          "midi": 54,
          "name": "F#3",
          "ticks": 944,
          "time": 10.26086956521739,
          "velocity": 0.2440944881889764
        },
        {
          "duration": 0.054347826086956985,
          "durationTicks": 5,
          "midi": 61,
          "name": "C#4",
          "ticks": 944,
          "time": 10.26086956521739,
          "velocity": 0.2125984251968504
        },
        {
          "duration": 0.032608695652173836,
          "durationTicks": 3,
          "midi": 60,
          "name": "C4",
          "ticks": 949,
          "time": 10.315217391304348,
          "velocity": 0.11811023622047244
        },
        {
          "duration": 0.04347826086956452,
          "durationTicks": 4,
          "midi": 54,
          "name": "F#3",
          "ticks": 951,
          "time": 10.33695652173913,
          "velocity": 0.15748031496062992
        },
        {
          "duration": 0.04347826086956452,
          "durationTicks": 4,
          "midi": 54,
          "name": "F#3",
          "ticks": 960,
          "time": 10.434782608695652,
          "velocity": 0.14960629921259844
        },
        {
          "duration": 0.0434782608695663,
          "durationTicks": 4,
          "midi": 54,
          "name": "F#3",
          "ticks": 967,
          "time": 10.51086956521739,
          "velocity": 0.11023622047244094
        },
        {
          "duration": 0.032608695652173836,
          "durationTicks": 3,
          "midi": 54,
          "name": "F#3",
          "ticks": 975,
          "time": 10.597826086956522,
          "velocity": 0.07874015748031496
        },
        {
          "duration": 0.02173913043478315,
          "durationTicks": 2,
          "midi": 73,
          "name": "C#5",
          "ticks": 978,
          "time": 10.630434782608695,
          "velocity": 0.31496062992125984
        },
        {
          "duration": 0.06521739130434767,
          "durationTicks": 6,
          "midi": 66,
          "name": "F#4",
          "ticks": 979,
          "time": 10.641304347826088,
          "velocity": 0.3228346456692913
        },
        {
          "duration": 0.04347826086956452,
          "durationTicks": 4,
          "midi": 77,
          "name": "F5",
          "ticks": 979,
          "time": 10.641304347826088,
          "velocity": 0.3228346456692913
        },
        {
          "duration": 0.032608695652173836,
          "durationTicks": 3,
          "midi": 83,
          "name": "B5",
          "ticks": 979,
          "time": 10.641304347826088,
          "velocity": 0.11811023622047244
        },
        {
          "duration": 0.02173913043478315,
          "durationTicks": 2,
          "midi": 72,
          "name": "C5",
          "ticks": 980,
          "time": 10.652173913043478,
          "velocity": 0.2992125984251969
        },
        {
          "duration": 0.04347826086956452,
          "durationTicks": 4,
          "midi": 61,
          "name": "C#4",
          "ticks": 985,
          "time": 10.706521739130435,
          "velocity": 0.14960629921259844
        },
        {
          "duration": 0.032608695652173836,
          "durationTicks": 3,
          "midi": 78,
          "name": "F#5",
          "ticks": 1000,
          "time": 10.869565217391305,
          "velocity": 0.2047244094488189
        },
        {
          "duration": 0.010869565217392463,
          "durationTicks": 1,
          "midi": 50,
          "name": "D3",
          "ticks": 1001,
          "time": 10.880434782608695,
          "velocity": 0.5275590551181102
        },
        {
          "duration": 0.010869565217390686,
          "durationTicks": 1,
          "midi": 49,
          "name": "C#3",
          "ticks": 1002,
          "time": 10.891304347826088,
          "velocity": 0.5433070866141733
        },
        {
          "duration": 0.16304347826086918,
          "durationTicks": 15,
          "midi": 47,
          "name": "B2",
          "ticks": 1003,
          "time": 10.902173913043478,
          "velocity": 0.47244094488188976
        },
        {
          "duration": 0.054347826086956985,
          "durationTicks": 5,
          "midi": 61,
          "name": "C#4",
          "ticks": 1003,
          "time": 10.902173913043478,
          "velocity": 0.31496062992125984
        },
        {
          "duration": 0.02173913043478315,
          "durationTicks": 2,
          "midi": 66,
          "name": "F#4",
          "ticks": 1003,
          "time": 10.902173913043478,
          "velocity": 0.25196850393700787
        },
        {
          "duration": 0.032608695652173836,
          "durationTicks": 3,
          "midi": 74,
          "name": "D5",
          "ticks": 1003,
          "time": 10.902173913043478,
          "velocity": 0.1889763779527559
        },
        {
          "duration": 0.0434782608695663,
          "durationTicks": 4,
          "midi": 68,
          "name": "G#4",
          "ticks": 1004,
          "time": 10.91304347826087,
          "velocity": 0.2047244094488189
        },
        {
          "duration": 0.032608695652173836,
          "durationTicks": 3,
          "midi": 54,
          "name": "F#3",
          "ticks": 1005,
          "time": 10.923913043478262,
          "velocity": 0.30708661417322836
        },
        {
          "duration": 0.08695652173913082,
          "durationTicks": 8,
          "midi": 54,
          "name": "F#3",
          "ticks": 1009,
          "time": 10.967391304347826,
          "velocity": 0.28346456692913385
        },
        {
          "duration": 0.054347826086956985,
          "durationTicks": 5,
          "midi": 61,
          "name": "C#4",
          "ticks": 1012,
          "time": 11,
          "velocity": 0.14960629921259844
        },
        {
          "duration": 0.04347826086956452,
          "durationTicks": 4,
          "midi": 68,
          "name": "G#4",
          "ticks": 1012,
          "time": 11,
          "velocity": 0.12598425196850394
        },
        {
          "duration": 0.06521739130434945,
          "durationTicks": 6,
          "midi": 54,
          "name": "F#3",
          "ticks": 1019,
          "time": 11.076086956521738,
          "velocity": 0.1889763779527559
        },
        {
          "duration": 0.032608695652173836,
          "durationTicks": 3,
          "midi": 55,
          "name": "G3",
          "ticks": 1026,
          "time": 11.152173913043478,
          "velocity": 0.4251968503937008
        },
        {
          "duration": 0.010869565217390686,
          "durationTicks": 1,
          "midi": 49,
          "name": "C#3",
          "ticks": 1029,
          "time": 11.184782608695652,
          "velocity": 0.5433070866141733
        },
        {
          "duration": 0.17391304347826164,
          "durationTicks": 16,
          "midi": 47,
          "name": "B2",
          "ticks": 1030,
          "time": 11.195652173913043,
          "velocity": 0.5039370078740157
        },
        {
          "duration": 0.07608695652174013,
          "durationTicks": 7,
          "midi": 61,
          "name": "C#4",
          "ticks": 1030,
          "time": 11.195652173913043,
          "velocity": 0.36220472440944884
        },
        {
          "duration": 0.14130434782608603,
          "durationTicks": 13,
          "midi": 68,
          "name": "G#4",
          "ticks": 1031,
          "time": 11.206521739130435,
          "velocity": 0.23622047244094488
        },
        {
          "duration": 0.07608695652173836,
          "durationTicks": 7,
          "midi": 74,
          "name": "D5",
          "ticks": 1031,
          "time": 11.206521739130435,
          "velocity": 0.25984251968503935
        },
        {
          "duration": 0.04347826086956452,
          "durationTicks": 4,
          "midi": 54,
          "name": "F#3",
          "ticks": 1038,
          "time": 11.282608695652174,
          "velocity": 0.2283464566929134
        },
        {
          "duration": 0.05434782608695521,
          "durationTicks": 5,
          "midi": 61,
          "name": "C#4",
          "ticks": 1040,
          "time": 11.304347826086957,
          "velocity": 0.15748031496062992
        },
        {
          "duration": 0.07608695652174013,
          "durationTicks": 7,
          "midi": 66,
          "name": "F#4",
          "ticks": 1073,
          "time": 11.66304347826087,
          "velocity": 0.33858267716535434
        },
        {
          "duration": 0.02173913043478315,
          "durationTicks": 2,
          "midi": 73,
          "name": "C#5",
          "ticks": 1073,
          "time": 11.66304347826087,
          "velocity": 0.33070866141732286
        },
        {
          "duration": 0.032608695652173836,
          "durationTicks": 3,
          "midi": 82,
          "name": "A#5",
          "ticks": 1073,
          "time": 11.66304347826087,
          "velocity": 0.18110236220472442
        },
        {
          "duration": 0.032608695652173836,
          "durationTicks": 3,
          "midi": 77,
          "name": "F5",
          "ticks": 1074,
          "time": 11.673913043478262,
          "velocity": 0.29133858267716534
        },
        {
          "duration": 0.04347826086956452,
          "durationTicks": 4,
          "midi": 84,
          "name": "C6",
          "ticks": 1074,
          "time": 11.673913043478262,
          "velocity": 0.07086614173228346
        },
        {
          "duration": 0.02173913043478315,
          "durationTicks": 2,
          "midi": 72,
          "name": "C5",
          "ticks": 1075,
          "time": 11.684782608695652,
          "velocity": 0.2440944881889764
        },
        {
          "duration": 0.032608695652173836,
          "durationTicks": 3,
          "midi": 76,
          "name": "E5",
          "ticks": 1075,
          "time": 11.684782608695652,
          "velocity": 0.1732283464566929
        },
        {
          "duration": 0.032608695652173836,
          "durationTicks": 3,
          "midi": 69,
          "name": "A4",
          "ticks": 1077,
          "time": 11.706521739130435,
          "velocity": 0.1732283464566929
        },
        {
          "duration": 0.032608695652173836,
          "durationTicks": 3,
          "midi": 73,
          "name": "C#5",
          "ticks": 1077,
          "time": 11.706521739130435,
          "velocity": 0.09448818897637795
        },
        {
          "duration": 0.032608695652173836,
          "durationTicks": 3,
          "midi": 61,
          "name": "C#4",
          "ticks": 1080,
          "time": 11.73913043478261,
          "velocity": 0.14173228346456693
        },
        {
          "duration": 0.032608695652173836,
          "durationTicks": 3,
          "midi": 79,
          "name": "G5",
          "ticks": 1096,
          "time": 11.91304347826087,
          "velocity": 0.2283464566929134
        },
        {
          "duration": 0.010869565217390686,
          "durationTicks": 1,
          "midi": 50,
          "name": "D3",
          "ticks": 1097,
          "time": 11.923913043478262,
          "velocity": 0.5354330708661418
        },
        {
          "duration": 0.04347826086956452,
          "durationTicks": 4,
          "midi": 66,
          "name": "F#4",
          "ticks": 1097,
          "time": 11.923913043478262,
          "velocity": 0.2755905511811024
        },
        {
          "duration": 0.010869565217390686,
          "durationTicks": 1,
          "midi": 49,
          "name": "C#3",
          "ticks": 1098,
          "time": 11.934782608695652,
          "velocity": 0.5433070866141733
        },
        {
          "duration": 0.16304347826086918,
          "durationTicks": 15,
          "midi": 47,
          "name": "B2",
          "ticks": 1099,
          "time": 11.945652173913043,
          "velocity": 0.4645669291338583
        },
        {
          "duration": 0.06521739130434767,
          "durationTicks": 6,
          "midi": 61,
          "name": "C#4",
          "ticks": 1099,
          "time": 11.945652173913043,
          "velocity": 0.33858267716535434
        },
        {
          "duration": 0.0434782608695663,
          "durationTicks": 4,
          "midi": 74,
          "name": "D5",
          "ticks": 1099,
          "time": 11.945652173913043,
          "velocity": 0.18110236220472442
        },
        {
          "duration": 0.054347826086956985,
          "durationTicks": 5,
          "midi": 54,
          "name": "F#3",
          "ticks": 1101,
          "time": 11.967391304347826,
          "velocity": 0.3228346456692913
        },
        {
          "duration": 0.032608695652173836,
          "durationTicks": 3,
          "midi": 60,
          "name": "C4",
          "ticks": 1106,
          "time": 12.021739130434783,
          "velocity": 0.2283464566929134
        },
        {
          "duration": 0.032608695652173836,
          "durationTicks": 3,
          "midi": 54,
          "name": "F#3",
          "ticks": 1107,
          "time": 12.032608695652174,
          "velocity": 0.29133858267716534
        },
        {
          "duration": 0.0434782608695663,
          "durationTicks": 4,
          "midi": 68,
          "name": "G#4",
          "ticks": 1108,
          "time": 12.043478260869565,
          "velocity": 0.12598425196850394
        },
        {
          "duration": 0.04347826086956452,
          "durationTicks": 4,
          "midi": 61,
          "name": "C#4",
          "ticks": 1109,
          "time": 12.054347826086957,
          "velocity": 0.09448818897637795
        },
        {
          "duration": 0.02173913043478315,
          "durationTicks": 2,
          "midi": 54,
          "name": "F#3",
          "ticks": 1111,
          "time": 12.076086956521738,
          "velocity": 0.25984251968503935
        },
        {
          "duration": 0.06521739130434767,
          "durationTicks": 6,
          "midi": 54,
          "name": "F#3",
          "ticks": 1115,
          "time": 12.119565217391305,
          "velocity": 0.2283464566929134
        },
        {
          "duration": 0.010869565217392463,
          "durationTicks": 1,
          "midi": 50,
          "name": "D3",
          "ticks": 1122,
          "time": 12.195652173913043,
          "velocity": 0.5511811023622047
        },
        {
          "duration": 0.02173913043478315,
          "durationTicks": 2,
          "midi": 56,
          "name": "G#3",
          "ticks": 1122,
          "time": 12.195652173913043,
          "velocity": 0.48031496062992124
        },
        {
          "duration": 0.010869565217390686,
          "durationTicks": 1,
          "midi": 49,
          "name": "C#3",
          "ticks": 1123,
          "time": 12.206521739130435,
          "velocity": 0.5118110236220472
        },
        {
          "duration": 0.18478260869565233,
          "durationTicks": 17,
          "midi": 47,
          "name": "B2",
          "ticks": 1124,
          "time": 12.217391304347826,
          "velocity": 0.44881889763779526
        },
        {
          "duration": 0.14130434782608603,
          "durationTicks": 13,
          "midi": 68,
          "name": "G#4",
          "ticks": 1124,
          "time": 12.217391304347826,
          "velocity": 0.2283464566929134
        },
        {
          "duration": 0.07608695652173836,
          "durationTicks": 7,
          "midi": 74,
          "name": "D5",
          "ticks": 1124,
          "time": 12.217391304347826,
          "velocity": 0.23622047244094488
        },
        {
          "duration": 0.04347826086956452,
          "durationTicks": 4,
          "midi": 55,
          "name": "G3",
          "ticks": 1126,
          "time": 12.23913043478261,
          "velocity": 0.2283464566929134
        },
        {
          "duration": 0.032608695652173836,
          "durationTicks": 3,
          "midi": 60,
          "name": "C4",
          "ticks": 1131,
          "time": 12.293478260869565,
          "velocity": 0.2440944881889764
        },
        {
          "duration": 0.021739130434781373,
          "durationTicks": 2,
          "midi": 55,
          "name": "G3",
          "ticks": 1132,
          "time": 12.304347826086957,
          "velocity": 0.23622047244094488
        },
        {
          "duration": 0.0434782608695663,
          "durationTicks": 4,
          "midi": 61,
          "name": "C#4",
          "ticks": 1134,
          "time": 12.326086956521738,
          "velocity": 0.11811023622047244
        },
        {
          "duration": 0.10869565217391397,
          "durationTicks": 10,
          "midi": 54,
          "name": "F#3",
          "ticks": 1136,
          "time": 12.347826086956522,
          "velocity": 0.2283464566929134
        },
        {
          "duration": 0.032608695652173836,
          "durationTicks": 3,
          "midi": 55,
          "name": "G3",
          "ticks": 1146,
          "time": 12.456521739130435,
          "velocity": 0.11811023622047244
        },
        {
          "duration": 0.07608695652173836,
          "durationTicks": 7,
          "midi": 54,
          "name": "F#3",
          "ticks": 1149,
          "time": 12.48913043478261,
          "velocity": 0.16535433070866143
        },
        {
          "duration": 0.054347826086956985,
          "durationTicks": 5,
          "midi": 54,
          "name": "F#3",
          "ticks": 1157,
          "time": 12.576086956521738,
          "velocity": 0.08661417322834646
        },
        {
          "duration": 0.02173913043478315,
          "durationTicks": 2,
          "midi": 54,
          "name": "F#3",
          "ticks": 1167,
          "time": 12.684782608695652,
          "velocity": 0.4645669291338583
        },
        {
          "duration": 0.17391304347826164,
          "durationTicks": 16,
          "midi": 68,
          "name": "G#4",
          "ticks": 1168,
          "time": 12.695652173913043,
          "velocity": 0.2992125984251969
        },
        {
          "duration": 0.010869565217390686,
          "durationTicks": 1,
          "midi": 49,
          "name": "C#3",
          "ticks": 1169,
          "time": 12.706521739130435,
          "velocity": 0.5669291338582677
        },
        {
          "duration": 0.09782608695652151,
          "durationTicks": 9,
          "midi": 74,
          "name": "D5",
          "ticks": 1169,
          "time": 12.706521739130435,
          "velocity": 0.2283464566929134
        },
        {
          "duration": 0.02173913043478315,
          "durationTicks": 2,
          "midi": 47,
          "name": "B2",
          "ticks": 1170,
          "time": 12.717391304347826,
          "velocity": 0.5039370078740157
        },
        {
          "duration": 0.06521739130434767,
          "durationTicks": 6,
          "midi": 61,
          "name": "C#4",
          "ticks": 1171,
          "time": 12.728260869565217,
          "velocity": 0.3464566929133858
        },
        {
          "duration": 0.17391304347826164,
          "durationTicks": 16,
          "midi": 47,
          "name": "B2",
          "ticks": 1173,
          "time": 12.75,
          "velocity": 0.4566929133858268
        },
        {
          "duration": 0.021739130434781373,
          "durationTicks": 2,
          "midi": 60,
          "name": "C4",
          "ticks": 1178,
          "time": 12.804347826086957,
          "velocity": 0.2440944881889764
        },
        {
          "duration": 0.054347826086956985,
          "durationTicks": 5,
          "midi": 61,
          "name": "C#4",
          "ticks": 1180,
          "time": 12.826086956521738,
          "velocity": 0.2125984251968504
        },
        {
          "duration": 0.03260869565217561,
          "durationTicks": 3,
          "midi": 54,
          "name": "F#3",
          "ticks": 1183,
          "time": 12.858695652173912,
          "velocity": 0.16535433070866143
        },
        {
          "duration": 0.04347826086956452,
          "durationTicks": 4,
          "midi": 70,
          "name": "A#4",
          "ticks": 1184,
          "time": 12.869565217391305,
          "velocity": 0.09448818897637795
        },
        {
          "duration": 0.0434782608695663,
          "durationTicks": 4,
          "midi": 60,
          "name": "C4",
          "ticks": 1185,
          "time": 12.880434782608695,
          "velocity": 0.11023622047244094
        },
        {
          "duration": 0.04347826086956452,
          "durationTicks": 4,
          "midi": 70,
          "name": "A#4",
          "ticks": 1189,
          "time": 12.923913043478262,
          "velocity": 0.08661417322834646
        },
        {
          "duration": 0.07608695652174013,
          "durationTicks": 7,
          "midi": 78,
          "name": "F#5",
          "ticks": 1191,
          "time": 12.945652173913043,
          "velocity": 0.1732283464566929
        },
        {
          "duration": 0.010869565217390686,
          "durationTicks": 1,
          "midi": 49,
          "name": "C#3",
          "ticks": 1192,
          "time": 12.956521739130435,
          "velocity": 0.5669291338582677
        },
        {
          "duration": 0.021739130434781373,
          "durationTicks": 2,
          "midi": 67,
          "name": "G4",
          "ticks": 1192,
          "time": 12.956521739130435,
          "velocity": 0.31496062992125984
        },
        {
          "duration": 0.16304347826086918,
          "durationTicks": 15,
          "midi": 47,
          "name": "B2",
          "ticks": 1193,
          "time": 12.967391304347826,
          "velocity": 0.49606299212598426
        },
        {
          "duration": 0.07608695652173836,
          "durationTicks": 7,
          "midi": 61,
          "name": "C#4",
          "ticks": 1193,
          "time": 12.967391304347826,
          "velocity": 0.3700787401574803
        },
        {
          "duration": 0.07608695652173836,
          "durationTicks": 7,
          "midi": 74,
          "name": "D5",
          "ticks": 1193,
          "time": 12.967391304347826,
          "velocity": 0.2283464566929134
        },
        {
          "duration": 0.032608695652173836,
          "durationTicks": 3,
          "midi": 55,
          "name": "G3",
          "ticks": 1196,
          "time": 13,
          "velocity": 0.2283464566929134
        },
        {
          "duration": 0.09782608695652151,
          "durationTicks": 9,
          "midi": 68,
          "name": "G#4",
          "ticks": 1197,
          "time": 13.01086956521739,
          "velocity": 0.2440944881889764
        },
        {
          "duration": 0.032608695652173836,
          "durationTicks": 3,
          "midi": 54,
          "name": "F#3",
          "ticks": 1199,
          "time": 13.032608695652174,
          "velocity": 0.28346456692913385
        },
        {
          "duration": 0.02173913043478315,
          "durationTicks": 2,
          "midi": 55,
          "name": "G3",
          "ticks": 1202,
          "time": 13.065217391304348,
          "velocity": 0.25196850393700787
        },
        {
          "duration": 0.06521739130434767,
          "durationTicks": 6,
          "midi": 54,
          "name": "F#3",
          "ticks": 1205,
          "time": 13.097826086956522,
          "velocity": 0.2677165354330709
        },
        {
          "duration": 0.02173913043478315,
          "durationTicks": 2,
          "midi": 53,
          "name": "F3",
          "ticks": 1214,
          "time": 13.195652173913043,
          "velocity": 0.4566929133858268
        },
        {
          "duration": 0.07608695652173836,
          "durationTicks": 7,
          "midi": 78,
          "name": "F#5",
          "ticks": 1215,
          "time": 13.206521739130435,
          "velocity": 0.15748031496062992
        },
        {
          "duration": 0.010869565217390686,
          "durationTicks": 1,
          "midi": 50,
          "name": "D3",
          "ticks": 1216,
          "time": 13.217391304347826,
          "velocity": 0.5590551181102362
        },
        {
          "duration": 0.02173913043478315,
          "durationTicks": 2,
          "midi": 56,
          "name": "G#3",
          "ticks": 1216,
          "time": 13.217391304347826,
          "velocity": 0.48031496062992124
        },
        {
          "duration": 0.1956521739130448,
          "durationTicks": 18,
          "midi": 47,
          "name": "B2",
          "ticks": 1217,
          "time": 13.228260869565217,
          "velocity": 0.5118110236220472
        },
        {
          "duration": 0.07608695652174013,
          "durationTicks": 7,
          "midi": 61,
          "name": "C#4",
          "ticks": 1217,
          "time": 13.228260869565217,
          "velocity": 0.3779527559055118
        },
        {
          "duration": 0.1521739130434785,
          "durationTicks": 14,
          "midi": 68,
          "name": "G#4",
          "ticks": 1218,
          "time": 13.23913043478261,
          "velocity": 0.2440944881889764
        },
        {
          "duration": 0.07608695652173836,
          "durationTicks": 7,
          "midi": 74,
          "name": "D5",
          "ticks": 1218,
          "time": 13.23913043478261,
          "velocity": 0.2204724409448819
        },
        {
          "duration": 0.02173913043478315,
          "durationTicks": 2,
          "midi": 60,
          "name": "C4",
          "ticks": 1225,
          "time": 13.315217391304348,
          "velocity": 0.25196850393700787
        },
        {
          "duration": 0.054347826086956985,
          "durationTicks": 5,
          "midi": 61,
          "name": "C#4",
          "ticks": 1227,
          "time": 13.33695652173913,
          "velocity": 0.2047244094488189
        },
        {
          "duration": 0.0434782608695663,
          "durationTicks": 4,
          "midi": 54,
          "name": "F#3",
          "ticks": 1234,
          "time": 13.41304347826087,
          "velocity": 0.11811023622047244
        },
        {
          "duration": 0.032608695652173836,
          "durationTicks": 3,
          "midi": 70,
          "name": "A#4",
          "ticks": 1237,
          "time": 13.445652173913043,
          "velocity": 0.08661417322834646
        },
        {
          "duration": 0.032608695652173836,
          "durationTicks": 3,
          "midi": 55,
          "name": "G3",
          "ticks": 1240,
          "time": 13.478260869565217,
          "velocity": 0.10236220472440945
        },
        {
          "duration": 0.0434782608695663,
          "durationTicks": 4,
          "midi": 54,
          "name": "F#3",
          "ticks": 1243,
          "time": 13.51086956521739,
          "velocity": 0.14960629921259844
        },
        {
          "duration": 0.0434782608695663,
          "durationTicks": 4,
          "midi": 54,
          "name": "F#3",
          "ticks": 1251,
          "time": 13.597826086956522,
          "velocity": 0.07086614173228346
        },
        {
          "duration": 0.06521739130434767,
          "durationTicks": 6,
          "midi": 66,
          "name": "F#4",
          "ticks": 1264,
          "time": 13.73913043478261,
          "velocity": 0.2440944881889764
        },
        {
          "duration": 0.021739130434781373,
          "durationTicks": 2,
          "midi": 72,
          "name": "C5",
          "ticks": 1264,
          "time": 13.73913043478261,
          "velocity": 0.2677165354330709
        },
        {
          "duration": 0.032608695652173836,
          "durationTicks": 3,
          "midi": 77,
          "name": "F5",
          "ticks": 1264,
          "time": 13.73913043478261,
          "velocity": 0.2440944881889764
        },
        {
          "duration": 0.032608695652173836,
          "durationTicks": 3,
          "midi": 61,
          "name": "C#4",
          "ticks": 1271,
          "time": 13.815217391304348,
          "velocity": 0.11023622047244094
        },
        {
          "duration": 0.010869565217390686,
          "durationTicks": 1,
          "midi": 50,
          "name": "D3",
          "ticks": 1284,
          "time": 13.956521739130435,
          "velocity": 0.5433070866141733
        },
        {
          "duration": 0.07608695652173836,
          "durationTicks": 7,
          "midi": 78,
          "name": "F#5",
          "ticks": 1284,
          "time": 13.956521739130435,
          "velocity": 0.16535433070866143
        },
        {
          "duration": 0.010869565217390686,
          "durationTicks": 1,
          "midi": 49,
          "name": "C#3",
          "ticks": 1285,
          "time": 13.967391304347826,
          "velocity": 0.5511811023622047
        },
        {
          "duration": 0.02173913043478315,
          "durationTicks": 2,
          "midi": 67,
          "name": "G4",
          "ticks": 1285,
          "time": 13.967391304347826,
          "velocity": 0.29133858267716534
        },
        {
          "duration": 0.1956521739130448,
          "durationTicks": 18,
          "midi": 47,
          "name": "B2",
          "ticks": 1286,
          "time": 13.978260869565217,
          "velocity": 0.47244094488188976
        },
        {
          "duration": 0.06521739130434767,
          "durationTicks": 6,
          "midi": 61,
          "name": "C#4",
          "ticks": 1286,
          "time": 13.978260869565217,
          "velocity": 0.2992125984251969
        },
        {
          "duration": 0.07608695652174013,
          "durationTicks": 7,
          "midi": 74,
          "name": "D5",
          "ticks": 1286,
          "time": 13.978260869565217,
          "velocity": 0.2283464566929134
        },
        {
          "duration": 0.13043478260869534,
          "durationTicks": 12,
          "midi": 68,
          "name": "G#4",
          "ticks": 1287,
          "time": 13.98913043478261,
          "velocity": 0.2047244094488189
        },
        {
          "duration": 0.032608695652173836,
          "durationTicks": 3,
          "midi": 55,
          "name": "G3",
          "ticks": 1289,
          "time": 14.01086956521739,
          "velocity": 0.1889763779527559
        },
        {
          "duration": 0.032608695652173836,
          "durationTicks": 3,
          "midi": 54,
          "name": "F#3",
          "ticks": 1292,
          "time": 14.043478260869565,
          "velocity": 0.23622047244094488
        },
        {
          "duration": 0.054347826086956985,
          "durationTicks": 5,
          "midi": 61,
          "name": "C#4",
          "ticks": 1295,
          "time": 14.076086956521738,
          "velocity": 0.14960629921259844
        },
        {
          "duration": 0.054347826086956985,
          "durationTicks": 5,
          "midi": 54,
          "name": "F#3",
          "ticks": 1298,
          "time": 14.108695652173912,
          "velocity": 0.1968503937007874
        },
        {
          "duration": 0.010869565217392463,
          "durationTicks": 1,
          "midi": 52,
          "name": "E3",
          "ticks": 1309,
          "time": 14.228260869565217,
          "velocity": 0.5118110236220472
        },
        {
          "duration": 0.02173913043478315,
          "durationTicks": 2,
          "midi": 66,
          "name": "F#4",
          "ticks": 1309,
          "time": 14.228260869565217,
          "velocity": 0.3228346456692913
        },
        {
          "duration": 0.032608695652173836,
          "durationTicks": 3,
          "midi": 73,
          "name": "C#5",
          "ticks": 1309,
          "time": 14.228260869565217,
          "velocity": 0.2125984251968504
        },
        {
          "duration": 0.010869565217390686,
          "durationTicks": 1,
          "midi": 49,
          "name": "C#3",
          "ticks": 1310,
          "time": 14.23913043478261,
          "velocity": 0.5826771653543307
        },
        {
          "duration": 0.19565217391304301,
          "durationTicks": 18,
          "midi": 47,
          "name": "B2",
          "ticks": 1311,
          "time": 14.25,
          "velocity": 0.49606299212598426
        },
        {
          "duration": 0.06521739130434767,
          "durationTicks": 6,
          "midi": 61,
          "name": "C#4",
          "ticks": 1311,
          "time": 14.25,
          "velocity": 0.36220472440944884
        },
        {
          "duration": 0.054347826086956985,
          "durationTicks": 5,
          "midi": 74,
          "name": "D5",
          "ticks": 1312,
          "time": 14.26086956521739,
          "velocity": 0.1968503937007874
        },
        {
          "duration": 0.08695652173913082,
          "durationTicks": 8,
          "midi": 68,
          "name": "G#4",
          "ticks": 1315,
          "time": 14.293478260869565,
          "velocity": 0.2283464566929134
        },
        {
          "duration": 0.032608695652173836,
          "durationTicks": 3,
          "midi": 54,
          "name": "F#3",
          "ticks": 1317,
          "time": 14.315217391304348,
          "velocity": 0.3228346456692913
        },
        {
          "duration": 0.021739130434781373,
          "durationTicks": 2,
          "midi": 60,
          "name": "C4",
          "ticks": 1319,
          "time": 14.33695652173913,
          "velocity": 0.2677165354330709
        },
        {
          "duration": 0.09782608695652328,
          "durationTicks": 9,
          "midi": 54,
          "name": "F#3",
          "ticks": 1321,
          "time": 14.358695652173912,
          "velocity": 0.29133858267716534
        },
        {
          "duration": 0.054347826086956985,
          "durationTicks": 5,
          "midi": 61,
          "name": "C#4",
          "ticks": 1321,
          "time": 14.358695652173912,
          "velocity": 0.18110236220472442
        },
        {
          "duration": 0.032608695652173836,
          "durationTicks": 3,
          "midi": 70,
          "name": "A#4",
          "ticks": 1328,
          "time": 14.434782608695652,
          "velocity": 0.07086614173228346
        },
        {
          "duration": 0.32608695652173836,
          "durationTicks": 30,
          "midi": 54,
          "name": "F#3",
          "ticks": 1331,
          "time": 14.467391304347826,
          "velocity": 0.23622047244094488
        },
        {
          "duration": 0.021739130434781373,
          "durationTicks": 2,
          "midi": 73,
          "name": "C#5",
          "ticks": 1353,
          "time": 14.706521739130435,
          "velocity": 0.3543307086614173
        },
        {
          "duration": 0.04347826086956452,
          "durationTicks": 4,
          "midi": 81,
          "name": "A5",
          "ticks": 1353,
          "time": 14.706521739130435,
          "velocity": 0.2125984251968504
        },
        {
          "duration": 0.04347826086956452,
          "durationTicks": 4,
          "midi": 66,
          "name": "F#4",
          "ticks": 1354,
          "time": 14.717391304347826,
          "velocity": 0.33070866141732286
        },
        {
          "duration": 0.032608695652173836,
          "durationTicks": 3,
          "midi": 77,
          "name": "F5",
          "ticks": 1354,
          "time": 14.717391304347826,
          "velocity": 0.3464566929133858
        },
        {
          "duration": 0.032608695652173836,
          "durationTicks": 3,
          "midi": 83,
          "name": "B5",
          "ticks": 1354,
          "time": 14.717391304347826,
          "velocity": 0.12598425196850394
        },
        {
          "duration": 0.032608695652173836,
          "durationTicks": 3,
          "midi": 86,
          "name": "D6",
          "ticks": 1354,
          "time": 14.717391304347826,
          "velocity": 0.15748031496062992
        },
        {
          "duration": 0.02173913043478315,
          "durationTicks": 2,
          "midi": 70,
          "name": "A#4",
          "ticks": 1355,
          "time": 14.728260869565217,
          "velocity": 0.23622047244094488
        },
        {
          "duration": 0.02173913043478315,
          "durationTicks": 2,
          "midi": 74,
          "name": "D5",
          "ticks": 1355,
          "time": 14.728260869565217,
          "velocity": 0.23622047244094488
        },
        {
          "duration": 0.032608695652173836,
          "durationTicks": 3,
          "midi": 69,
          "name": "A4",
          "ticks": 1357,
          "time": 14.75,
          "velocity": 0.1968503937007874
        },
        {
          "duration": 0.032608695652173836,
          "durationTicks": 3,
          "midi": 61,
          "name": "C#4",
          "ticks": 1360,
          "time": 14.782608695652174,
          "velocity": 0.18110236220472442
        },
        {
          "duration": 0.054347826086956985,
          "durationTicks": 5,
          "midi": 54,
          "name": "F#3",
          "ticks": 1363,
          "time": 14.815217391304348,
          "velocity": 0.09448818897637795
        },
        {
          "duration": 0.0434782608695663,
          "durationTicks": 4,
          "midi": 61,
          "name": "C#4",
          "ticks": 1367,
          "time": 14.858695652173912,
          "velocity": 0.08661417322834646
        },
        {
          "duration": 0.010869565217390686,
          "durationTicks": 1,
          "midi": 50,
          "name": "D3",
          "ticks": 1379,
          "time": 14.98913043478261,
          "velocity": 0.5196850393700787
        },
        {
          "duration": 0.07608695652173836,
          "durationTicks": 7,
          "midi": 78,
          "name": "F#5",
          "ticks": 1379,
          "time": 14.98913043478261,
          "velocity": 0.18110236220472442
        },
        {
          "duration": 0.010869565217390686,
          "durationTicks": 1,
          "midi": 49,
          "name": "C#3",
          "ticks": 1380,
          "time": 15,
          "velocity": 0.5826771653543307
        },
        {
          "duration": 0.02173913043478315,
          "durationTicks": 2,
          "midi": 60,
          "name": "C4",
          "ticks": 1380,
          "time": 15,
          "velocity": 0.4409448818897638
        },
        {
          "duration": 0.02173913043478315,
          "durationTicks": 2,
          "midi": 67,
          "name": "G4",
          "ticks": 1380,
          "time": 15,
          "velocity": 0.2992125984251969
        },
        {
          "duration": 0.1956521739130448,
          "durationTicks": 18,
          "midi": 47,
          "name": "B2",
          "ticks": 1381,
          "time": 15.01086956521739,
          "velocity": 0.5039370078740157
        },
        {
          "duration": 0.07608695652174013,
          "durationTicks": 7,
          "midi": 74,
          "name": "D5",
          "ticks": 1381,
          "time": 15.01086956521739,
          "velocity": 0.2204724409448819
        },
        {
          "duration": 0.05434782608695521,
          "durationTicks": 5,
          "midi": 61,
          "name": "C#4",
          "ticks": 1382,
          "time": 15.021739130434783,
          "velocity": 0.2992125984251969
        },
        {
          "duration": 0.13043478260869534,
          "durationTicks": 12,
          "midi": 68,
          "name": "G#4",
          "ticks": 1382,
          "time": 15.021739130434783,
          "velocity": 0.2204724409448819
        },
        {
          "duration": 0.032608695652173836,
          "durationTicks": 3,
          "midi": 54,
          "name": "F#3",
          "ticks": 1387,
          "time": 15.076086956521738,
          "velocity": 0.2755905511811024
        },
        {
          "duration": 0.02173913043478315,
          "durationTicks": 2,
          "midi": 60,
          "name": "C4",
          "ticks": 1389,
          "time": 15.097826086956522,
          "velocity": 0.25984251968503935
        },
        {
          "duration": 0.04347826086956452,
          "durationTicks": 4,
          "midi": 54,
          "name": "F#3",
          "ticks": 1391,
          "time": 15.119565217391305,
          "velocity": 0.25196850393700787
        },
        {
          "duration": 0.054347826086956985,
          "durationTicks": 5,
          "midi": 61,
          "name": "C#4",
          "ticks": 1391,
          "time": 15.119565217391305,
          "velocity": 0.1732283464566929
        },
        {
          "duration": 0.06521739130434767,
          "durationTicks": 6,
          "midi": 54,
          "name": "F#3",
          "ticks": 1397,
          "time": 15.184782608695652,
          "velocity": 0.1889763779527559
        },
        {
          "duration": 0.032608695652173836,
          "durationTicks": 3,
          "midi": 70,
          "name": "A#4",
          "ticks": 1398,
          "time": 15.195652173913043,
          "velocity": 0.07874015748031496
        },
        {
          "duration": 0.032608695652173836,
          "durationTicks": 3,
          "midi": 79,
          "name": "G5",
          "ticks": 1403,
          "time": 15.25,
          "velocity": 0.1968503937007874
        },
        {
          "duration": 0.02173913043478315,
          "durationTicks": 2,
          "midi": 49,
          "name": "C#3",
          "ticks": 1404,
          "time": 15.26086956521739,
          "velocity": 0.5433070866141733
        },
        {
          "duration": 0.032608695652173836,
          "durationTicks": 3,
          "midi": 81,
          "name": "A5",
          "ticks": 1404,
          "time": 15.26086956521739,
          "velocity": 0.14173228346456693
        },
        {
          "duration": 0.05434782608695521,
          "durationTicks": 5,
          "midi": 68,
          "name": "G#4",
          "ticks": 1405,
          "time": 15.271739130434783,
          "velocity": 0.28346456692913385
        },
        {
          "duration": 0.16304347826086918,
          "durationTicks": 15,
          "midi": 47,
          "name": "B2",
          "ticks": 1406,
          "time": 15.282608695652174,
          "velocity": 0.47244094488188976
        },
        {
          "duration": 0.06521739130434767,
          "durationTicks": 6,
          "midi": 61,
          "name": "C#4",
          "ticks": 1406,
          "time": 15.282608695652174,
          "velocity": 0.36220472440944884
        },
        {
          "duration": 0.07608695652173836,
          "durationTicks": 7,
          "midi": 74,
          "name": "D5",
          "ticks": 1406,
          "time": 15.282608695652174,
          "velocity": 0.23622047244094488
        },
        {
          "duration": 0.02173913043478315,
          "durationTicks": 2,
          "midi": 54,
          "name": "F#3",
          "ticks": 1409,
          "time": 15.315217391304348,
          "velocity": 0.2992125984251969
        },
        {
          "duration": 0.032608695652173836,
          "durationTicks": 3,
          "midi": 55,
          "name": "G3",
          "ticks": 1411,
          "time": 15.33695652173913,
          "velocity": 0.1968503937007874
        },
        {
          "duration": 0.06521739130434945,
          "durationTicks": 6,
          "midi": 68,
          "name": "G#4",
          "ticks": 1413,
          "time": 15.358695652173912,
          "velocity": 0.1968503937007874
        },
        {
          "duration": 0.032608695652173836,
          "durationTicks": 3,
          "midi": 54,
          "name": "F#3",
          "ticks": 1414,
          "time": 15.369565217391305,
          "velocity": 0.33070866141732286
        },
        {
          "duration": 0.054347826086956985,
          "durationTicks": 5,
          "midi": 61,
          "name": "C#4",
          "ticks": 1415,
          "time": 15.380434782608695,
          "velocity": 0.2677165354330709
        },
        {
          "duration": 0.054347826086956985,
          "durationTicks": 5,
          "midi": 70,
          "name": "A#4",
          "ticks": 1418,
          "time": 15.41304347826087,
          "velocity": 0.13385826771653545
        },
        {
          "duration": 0.054347826086956985,
          "durationTicks": 5,
          "midi": 60,
          "name": "C4",
          "ticks": 1420,
          "time": 15.434782608695652,
          "velocity": 0.1732283464566929
        },
        {
          "duration": 0.02173913043478315,
          "durationTicks": 2,
          "midi": 54,
          "name": "F#3",
          "ticks": 1421,
          "time": 15.445652173913043,
          "velocity": 0.25984251968503935
        },
        {
          "duration": 0.02173913043478315,
          "durationTicks": 2,
          "midi": 54,
          "name": "F#3",
          "ticks": 1424,
          "time": 15.478260869565217,
          "velocity": 0.2440944881889764
        },
        {
          "duration": 0.0434782608695663,
          "durationTicks": 4,
          "midi": 70,
          "name": "A#4",
          "ticks": 1424,
          "time": 15.478260869565217,
          "velocity": 0.11811023622047244
        },
        {
          "duration": 0.032608695652173836,
          "durationTicks": 3,
          "midi": 60,
          "name": "C4",
          "ticks": 1429,
          "time": 15.532608695652174,
          "velocity": 0.1732283464566929
        },
        {
          "duration": 0.02173913043478315,
          "durationTicks": 2,
          "midi": 54,
          "name": "F#3",
          "ticks": 1430,
          "time": 15.543478260869565,
          "velocity": 0.23622047244094488
        },
        {
          "duration": 0.032608695652173836,
          "durationTicks": 3,
          "midi": 54,
          "name": "F#3",
          "ticks": 1438,
          "time": 15.630434782608695,
          "velocity": 0.1968503937007874
        },
        {
          "duration": 0.0434782608695663,
          "durationTicks": 4,
          "midi": 54,
          "name": "F#3",
          "ticks": 1444,
          "time": 15.695652173913043,
          "velocity": 0.1732283464566929
        },
        {
          "duration": 0.021739130434781373,
          "durationTicks": 2,
          "midi": 73,
          "name": "C#5",
          "ticks": 1448,
          "time": 15.73913043478261,
          "velocity": 0.36220472440944884
        },
        {
          "duration": 0.032608695652173836,
          "durationTicks": 3,
          "midi": 81,
          "name": "A5",
          "ticks": 1448,
          "time": 15.73913043478261,
          "velocity": 0.2047244094488189
        },
        {
          "duration": 0.04347826086956452,
          "durationTicks": 4,
          "midi": 66,
          "name": "F#4",
          "ticks": 1449,
          "time": 15.75,
          "velocity": 0.3464566929133858
        },
        {
          "duration": 0.032608695652173836,
          "durationTicks": 3,
          "midi": 77,
          "name": "F5",
          "ticks": 1449,
          "time": 15.75,
          "velocity": 0.3464566929133858
        },
        {
          "duration": 0.032608695652173836,
          "durationTicks": 3,
          "midi": 83,
          "name": "B5",
          "ticks": 1449,
          "time": 15.75,
          "velocity": 0.13385826771653545
        },
        {
          "duration": 0.054347826086956985,
          "durationTicks": 5,
          "midi": 84,
          "name": "C6",
          "ticks": 1449,
          "time": 15.75,
          "velocity": 0.09448818897637795
        },
        {
          "duration": 0.02173913043478315,
          "durationTicks": 2,
          "midi": 74,
          "name": "D5",
          "ticks": 1450,
          "time": 15.76086956521739,
          "velocity": 0.23622047244094488
        },
        {
          "duration": 0.032608695652173836,
          "durationTicks": 3,
          "midi": 54,
          "name": "F#3",
          "ticks": 1452,
          "time": 15.782608695652174,
          "velocity": 0.13385826771653545
        },
        {
          "duration": 0.032608695652173836,
          "durationTicks": 3,
          "midi": 69,
          "name": "A4",
          "ticks": 1452,
          "time": 15.782608695652174,
          "velocity": 0.2125984251968504
        },
        {
          "duration": 0.04347826086956452,
          "durationTicks": 4,
          "midi": 61,
          "name": "C#4",
          "ticks": 1455,
          "time": 15.815217391304348,
          "velocity": 0.2125984251968504
        },
        {
          "duration": 0.04347826086956452,
          "durationTicks": 4,
          "midi": 61,
          "name": "C#4",
          "ticks": 1462,
          "time": 15.891304347826088,
          "velocity": 0.09448818897637795
        },
        {
          "duration": 0.021739130434781373,
          "durationTicks": 2,
          "midi": 52,
          "name": "E3",
          "ticks": 1468,
          "time": 15.956521739130435,
          "velocity": 0.5354330708661418
        },
        {
          "duration": 0.07608695652174013,
          "durationTicks": 7,
          "midi": 78,
          "name": "F#5",
          "ticks": 1469,
          "time": 15.967391304347826,
          "velocity": 0.16535433070866143
        },
        {
          "duration": 0.010869565217392463,
          "durationTicks": 1,
          "midi": 49,
          "name": "C#3",
          "ticks": 1470,
          "time": 15.978260869565217,
          "velocity": 0.5748031496062992
        },
        {
          "duration": 0.02173913043478315,
          "durationTicks": 2,
          "midi": 67,
          "name": "G4",
          "ticks": 1470,
          "time": 15.978260869565217,
          "velocity": 0.2992125984251969
        },
        {
          "duration": 0.19565217391304301,
          "durationTicks": 18,
          "midi": 47,
          "name": "B2",
          "ticks": 1471,
          "time": 15.98913043478261,
          "velocity": 0.4881889763779528
        },
        {
          "duration": 0.06521739130434767,
          "durationTicks": 6,
          "midi": 61,
          "name": "C#4",
          "ticks": 1471,
          "time": 15.98913043478261,
          "velocity": 0.33070866141732286
        },
        {
          "duration": 0.07608695652173836,
          "durationTicks": 7,
          "midi": 74,
          "name": "D5",
          "ticks": 1471,
          "time": 15.98913043478261,
          "velocity": 0.2204724409448819
        },
        {
          "duration": 0.13043478260869534,
          "durationTicks": 12,
          "midi": 68,
          "name": "G#4",
          "ticks": 1472,
          "time": 16,
          "velocity": 0.2125984251968504
        },
        {
          "duration": 0.03260869565217206,
          "durationTicks": 3,
          "midi": 54,
          "name": "F#3",
          "ticks": 1477,
          "time": 16.054347826086957,
          "velocity": 0.2440944881889764
        },
        {
          "duration": 0.06521739130434767,
          "durationTicks": 6,
          "midi": 61,
          "name": "C#4",
          "ticks": 1480,
          "time": 16.08695652173913,
          "velocity": 0.2204724409448819
        },
        {
          "duration": 0.021739130434781373,
          "durationTicks": 2,
          "midi": 54,
          "name": "F#3",
          "ticks": 1483,
          "time": 16.119565217391305,
          "velocity": 0.23622047244094488
        },
        {
          "duration": 0.05434782608695343,
          "durationTicks": 5,
          "midi": 54,
          "name": "F#3",
          "ticks": 1487,
          "time": 16.16304347826087,
          "velocity": 0.16535433070866143
        },
        {
          "duration": 0.010869565217390686,
          "durationTicks": 1,
          "midi": 50,
          "name": "D3",
          "ticks": 1495,
          "time": 16.25,
          "velocity": 0.5433070866141733
        },
        {
          "duration": 0.07608695652173836,
          "durationTicks": 7,
          "midi": 78,
          "name": "F#5",
          "ticks": 1495,
          "time": 16.25,
          "velocity": 0.18110236220472442
        },
        {
          "duration": 0.010869565217390686,
          "durationTicks": 1,
          "midi": 49,
          "name": "C#3",
          "ticks": 1496,
          "time": 16.26086956521739,
          "velocity": 0.5826771653543307
        },
        {
          "duration": 0.021739130434784926,
          "durationTicks": 2,
          "midi": 67,
          "name": "G4",
          "ticks": 1496,
          "time": 16.26086956521739,
          "velocity": 0.3228346456692913
        },
        {
          "duration": 0.19565217391304301,
          "durationTicks": 18,
          "midi": 47,
          "name": "B2",
          "ticks": 1497,
          "time": 16.27173913043478,
          "velocity": 0.4881889763779528
        },
        {
          "duration": 0.06521739130434767,
          "durationTicks": 6,
          "midi": 61,
          "name": "C#4",
          "ticks": 1497,
          "time": 16.27173913043478,
          "velocity": 0.33858267716535434
        },
        {
          "duration": 0.07608695652174191,
          "durationTicks": 7,
          "midi": 74,
          "name": "D5",
          "ticks": 1497,
          "time": 16.27173913043478,
          "velocity": 0.23622047244094488
        },
        {
          "duration": 0.13043478260869534,
          "durationTicks": 12,
          "midi": 68,
          "name": "G#4",
          "ticks": 1498,
          "time": 16.282608695652176,
          "velocity": 0.23622047244094488
        },
        {
          "duration": 0.03260869565217206,
          "durationTicks": 3,
          "midi": 55,
          "name": "G3",
          "ticks": 1500,
          "time": 16.304347826086957,
          "velocity": 0.25196850393700787
        },
        {
          "duration": 0.03260869565217561,
          "durationTicks": 3,
          "midi": 54,
          "name": "F#3",
          "ticks": 1503,
          "time": 16.33695652173913,
          "velocity": 0.30708661417322836
        },
        {
          "duration": 0.03260869565217206,
          "durationTicks": 3,
          "midi": 60,
          "name": "C4",
          "ticks": 1505,
          "time": 16.358695652173914,
          "velocity": 0.2755905511811024
        },
        {
          "duration": 0.021739130434781373,
          "durationTicks": 2,
          "midi": 55,
          "name": "G3",
          "ticks": 1506,
          "time": 16.369565217391305,
          "velocity": 0.28346456692913385
        },
        {
          "duration": 0.054347826086956985,
          "durationTicks": 5,
          "midi": 61,
          "name": "C#4",
          "ticks": 1507,
          "time": 16.380434782608695,
          "velocity": 0.16535433070866143
        },
        {
          "duration": 0.06521739130434767,
          "durationTicks": 6,
          "midi": 54,
          "name": "F#3",
          "ticks": 1509,
          "time": 16.402173913043477,
          "velocity": 0.29133858267716534
        },
        {
          "duration": 0.0434782608695663,
          "durationTicks": 4,
          "midi": 70,
          "name": "A#4",
          "ticks": 1513,
          "time": 16.445652173913043,
          "velocity": 0.09448818897637795
        },
        {
          "duration": 0.0434782608695663,
          "durationTicks": 4,
          "midi": 61,
          "name": "C#4",
          "ticks": 1514,
          "time": 16.456521739130434,
          "velocity": 0.09448818897637795
        },
        {
          "duration": 0.14130434782608603,
          "durationTicks": 13,
          "midi": 54,
          "name": "F#3",
          "ticks": 1517,
          "time": 16.48913043478261,
          "velocity": 0.2440944881889764
        },
        {
          "duration": 0.03260869565217561,
          "durationTicks": 3,
          "midi": 60,
          "name": "C4",
          "ticks": 1520,
          "time": 16.52173913043478,
          "velocity": 0.14960629921259844
        },
        {
          "duration": 0.06521739130434767,
          "durationTicks": 6,
          "midi": 54,
          "name": "F#3",
          "ticks": 1532,
          "time": 16.652173913043477,
          "velocity": 0.18110236220472442
        },
        {
          "duration": 0.07608695652173836,
          "durationTicks": 7,
          "midi": 78,
          "name": "F#5",
          "ticks": 1542,
          "time": 16.76086956521739,
          "velocity": 0.18110236220472442
        },
        {
          "duration": 0.01086956521739424,
          "durationTicks": 1,
          "midi": 50,
          "name": "D3",
          "ticks": 1543,
          "time": 16.77173913043478,
          "velocity": 0.5748031496062992
        },
        {
          "duration": 0.010869565217390686,
          "durationTicks": 1,
          "midi": 49,
          "name": "C#3",
          "ticks": 1544,
          "time": 16.782608695652176,
          "velocity": 0.5275590551181102
        },
        {
          "duration": 0.19565217391304301,
          "durationTicks": 18,
          "midi": 47,
          "name": "B2",
          "ticks": 1545,
          "time": 16.793478260869566,
          "velocity": 0.4566929133858268
        },
        {
          "duration": 0.06521739130434767,
          "durationTicks": 6,
          "midi": 61,
          "name": "C#4",
          "ticks": 1545,
          "time": 16.793478260869566,
          "velocity": 0.3228346456692913
        },
        {
          "duration": 0.14130434782608603,
          "durationTicks": 13,
          "midi": 68,
          "name": "G#4",
          "ticks": 1545,
          "time": 16.793478260869566,
          "velocity": 0.2204724409448819
        },
        {
          "duration": 0.07608695652173836,
          "durationTicks": 7,
          "midi": 74,
          "name": "D5",
          "ticks": 1545,
          "time": 16.793478260869566,
          "velocity": 0.2125984251968504
        },
        {
          "duration": 0.03260869565217206,
          "durationTicks": 3,
          "midi": 54,
          "name": "F#3",
          "ticks": 1550,
          "time": 16.847826086956523,
          "velocity": 0.25196850393700787
        },
        {
          "duration": 0.021739130434781373,
          "durationTicks": 2,
          "midi": 60,
          "name": "C4",
          "ticks": 1552,
          "time": 16.869565217391305,
          "velocity": 0.2440944881889764
        },
        {
          "duration": 0.021739130434781373,
          "durationTicks": 2,
          "midi": 55,
          "name": "G3",
          "ticks": 1553,
          "time": 16.880434782608695,
          "velocity": 0.2677165354330709
        },
        {
          "duration": 0.054347826086956985,
          "durationTicks": 5,
          "midi": 61,
          "name": "C#4",
          "ticks": 1554,
          "time": 16.891304347826086,
          "velocity": 0.2125984251968504
        },
        {
          "duration": 0.0869565217391326,
          "durationTicks": 8,
          "midi": 54,
          "name": "F#3",
          "ticks": 1555,
          "time": 16.902173913043477,
          "velocity": 0.2283464566929134
        },
        {
          "duration": 0.021739130434781373,
          "durationTicks": 2,
          "midi": 54,
          "name": "F#3",
          "ticks": 1564,
          "time": 17,
          "velocity": 0.2283464566929134
        },
        {
          "duration": 0.07608695652174191,
          "durationTicks": 7,
          "midi": 78,
          "name": "F#5",
          "ticks": 1566,
          "time": 17.02173913043478,
          "velocity": 0.1889763779527559
        },
        {
          "duration": 0.010869565217390686,
          "durationTicks": 1,
          "midi": 49,
          "name": "C#3",
          "ticks": 1567,
          "time": 17.032608695652176,
          "velocity": 0.5905511811023622
        },
        {
          "duration": 0.021739130434781373,
          "durationTicks": 2,
          "midi": 47,
          "name": "B2",
          "ticks": 1568,
          "time": 17.043478260869566,
          "velocity": 0.5118110236220472
        },
        {
          "duration": 0.07608695652173836,
          "durationTicks": 7,
          "midi": 61,
          "name": "C#4",
          "ticks": 1568,
          "time": 17.043478260869566,
          "velocity": 0.4015748031496063
        },
        {
          "duration": 0.021739130434781373,
          "durationTicks": 2,
          "midi": 66,
          "name": "F#4",
          "ticks": 1569,
          "time": 17.054347826086957,
          "velocity": 0.2440944881889764
        },
        {
          "duration": 0.054347826086956985,
          "durationTicks": 5,
          "midi": 74,
          "name": "D5",
          "ticks": 1569,
          "time": 17.054347826086957,
          "velocity": 0.1968503937007874
        },
        {
          "duration": 0.13043478260869534,
          "durationTicks": 12,
          "midi": 47,
          "name": "B2",
          "ticks": 1571,
          "time": 17.07608695652174,
          "velocity": 0.4409448818897638
        },
        {
          "duration": 0.09782608695652328,
          "durationTicks": 9,
          "midi": 68,
          "name": "G#4",
          "ticks": 1572,
          "time": 17.08695652173913,
          "velocity": 0.2283464566929134
        },
        {
          "duration": 0.043478260869562746,
          "durationTicks": 4,
          "midi": 54,
          "name": "F#3",
          "ticks": 1574,
          "time": 17.108695652173914,
          "velocity": 0.30708661417322836
        },
        {
          "duration": 0.021739130434781373,
          "durationTicks": 2,
          "midi": 60,
          "name": "C4",
          "ticks": 1576,
          "time": 17.130434782608695,
          "velocity": 0.2755905511811024
        },
        {
          "duration": 0.06521739130434767,
          "durationTicks": 6,
          "midi": 61,
          "name": "C#4",
          "ticks": 1578,
          "time": 17.152173913043477,
          "velocity": 0.2204724409448819
        },
        {
          "duration": 0.06521739130434767,
          "durationTicks": 6,
          "midi": 54,
          "name": "F#3",
          "ticks": 1580,
          "time": 17.17391304347826,
          "velocity": 0.31496062992125984
        },
        {
          "duration": 0.0434782608695663,
          "durationTicks": 4,
          "midi": 70,
          "name": "A#4",
          "ticks": 1582,
          "time": 17.195652173913043,
          "velocity": 0.09448818897637795
        },
        {
          "duration": 0.0434782608695663,
          "durationTicks": 4,
          "midi": 66,
          "name": "F#4",
          "ticks": 1586,
          "time": 17.23913043478261,
          "velocity": 0.07874015748031496
        },
        {
          "duration": 0.06521739130434767,
          "durationTicks": 6,
          "midi": 70,
          "name": "A#4",
          "ticks": 1587,
          "time": 17.25,
          "velocity": 0.10236220472440945
        },
        {
          "duration": 0.021739130434781373,
          "durationTicks": 2,
          "midi": 54,
          "name": "F#3",
          "ticks": 1591,
          "time": 17.293478260869566,
          "velocity": 0.3858267716535433
        },
        {
          "duration": 0.021739130434781373,
          "durationTicks": 2,
          "midi": 58,
          "name": "A#3",
          "ticks": 1592,
          "time": 17.304347826086957,
          "velocity": 0.4645669291338583
        },
        {
          "duration": 0.010869565217390686,
          "durationTicks": 1,
          "midi": 50,
          "name": "D3",
          "ticks": 1593,
          "time": 17.315217391304348,
          "velocity": 0.5354330708661418
        },
        {
          "duration": 0.0434782608695663,
          "durationTicks": 4,
          "midi": 66,
          "name": "F#4",
          "ticks": 1593,
          "time": 17.315217391304348,
          "velocity": 0.2992125984251969
        },
        {
          "duration": 0.010869565217390686,
          "durationTicks": 1,
          "midi": 49,
          "name": "C#3",
          "ticks": 1594,
          "time": 17.32608695652174,
          "velocity": 0.5511811023622047
        },
        {
          "duration": 0.16304347826087096,
          "durationTicks": 15,
          "midi": 47,
          "name": "B2",
          "ticks": 1595,
          "time": 17.33695652173913,
          "velocity": 0.47244094488188976
        },
        {
          "duration": 0.07608695652174191,
          "durationTicks": 7,
          "midi": 61,
          "name": "C#4",
          "ticks": 1595,
          "time": 17.33695652173913,
          "velocity": 0.3779527559055118
        },
        {
          "duration": 0.054347826086956985,
          "durationTicks": 5,
          "midi": 74,
          "name": "D5",
          "ticks": 1595,
          "time": 17.33695652173913,
          "velocity": 0.2204724409448819
        },
        {
          "duration": 0.07608695652173836,
          "durationTicks": 7,
          "midi": 54,
          "name": "F#3",
          "ticks": 1596,
          "time": 17.347826086956523,
          "velocity": 0.3464566929133858
        },
        {
          "duration": 0.13043478260869534,
          "durationTicks": 12,
          "midi": 68,
          "name": "G#4",
          "ticks": 1596,
          "time": 17.347826086956523,
          "velocity": 0.23622047244094488
        },
        {
          "duration": 0.03260869565217206,
          "durationTicks": 3,
          "midi": 70,
          "name": "A#4",
          "ticks": 1596,
          "time": 17.347826086956523,
          "velocity": 0.1732283464566929
        },
        {
          "duration": 0.054347826086956985,
          "durationTicks": 5,
          "midi": 54,
          "name": "F#3",
          "ticks": 1604,
          "time": 17.434782608695652,
          "velocity": 0.33858267716535434
        },
        {
          "duration": 0.054347826086956985,
          "durationTicks": 5,
          "midi": 61,
          "name": "C#4",
          "ticks": 1604,
          "time": 17.434782608695652,
          "velocity": 0.2283464566929134
        },
        {
          "duration": 0.06521739130434767,
          "durationTicks": 6,
          "midi": 54,
          "name": "F#3",
          "ticks": 1611,
          "time": 17.51086956521739,
          "velocity": 0.25196850393700787
        },
        {
          "duration": 0.03260869565217561,
          "durationTicks": 3,
          "midi": 55,
          "name": "G3",
          "ticks": 1617,
          "time": 17.57608695652174,
          "velocity": 0.2125984251968504
        },
        {
          "duration": 0.043478260869562746,
          "durationTicks": 4,
          "midi": 54,
          "name": "F#3",
          "ticks": 1620,
          "time": 17.608695652173914,
          "velocity": 0.23622047244094488
        },
        {
          "duration": 0.06521739130434767,
          "durationTicks": 6,
          "midi": 54,
          "name": "F#3",
          "ticks": 1626,
          "time": 17.67391304347826,
          "velocity": 0.2047244094488189
        },
        {
          "duration": 0.06521739130434767,
          "durationTicks": 6,
          "midi": 54,
          "name": "F#3",
          "ticks": 1634,
          "time": 17.76086956521739,
          "velocity": 0.16535433070866143
        },
        {
          "duration": 0.043478260869562746,
          "durationTicks": 4,
          "midi": 66,
          "name": "F#4",
          "ticks": 1637,
          "time": 17.793478260869566,
          "velocity": 0.2047244094488189
        },
        {
          "duration": 0.03260869565217206,
          "durationTicks": 3,
          "midi": 72,
          "name": "C5",
          "ticks": 1637,
          "time": 17.793478260869566,
          "velocity": 0.2204724409448819
        },
        {
          "duration": 0.03260869565217206,
          "durationTicks": 3,
          "midi": 77,
          "name": "F5",
          "ticks": 1638,
          "time": 17.804347826086957,
          "velocity": 0.2677165354330709
        },
        {
          "duration": 0.05434782608695343,
          "durationTicks": 5,
          "midi": 54,
          "name": "F#3",
          "ticks": 1642,
          "time": 17.847826086956523,
          "velocity": 0.14960629921259844
        },
        {
          "duration": 0.0434782608695663,
          "durationTicks": 4,
          "midi": 61,
          "name": "C#4",
          "ticks": 1644,
          "time": 17.869565217391305,
          "velocity": 0.12598425196850394
        },
        {
          "duration": 0.054347826086956985,
          "durationTicks": 5,
          "midi": 54,
          "name": "F#3",
          "ticks": 1649,
          "time": 17.92391304347826,
          "velocity": 0.11023622047244094
        },
        {
          "duration": 0.0434782608695663,
          "durationTicks": 4,
          "midi": 54,
          "name": "F#3",
          "ticks": 1658,
          "time": 18.02173913043478,
          "velocity": 0.13385826771653545
        },
        {
          "duration": 0.03260869565217561,
          "durationTicks": 3,
          "midi": 78,
          "name": "F#5",
          "ticks": 1662,
          "time": 18.065217391304348,
          "velocity": 0.1889763779527559
        },
        {
          "duration": 0.010869565217390686,
          "durationTicks": 1,
          "midi": 49,
          "name": "C#3",
          "ticks": 1663,
          "time": 18.07608695652174,
          "velocity": 0.5669291338582677
        },
        {
          "duration": 0.021739130434784926,
          "durationTicks": 2,
          "midi": 47,
          "name": "B2",
          "ticks": 1664,
          "time": 18.08695652173913,
          "velocity": 0.5039370078740157
        },
        {
          "duration": 0.07608695652174191,
          "durationTicks": 7,
          "midi": 61,
          "name": "C#4",
          "ticks": 1664,
          "time": 18.08695652173913,
          "velocity": 0.3779527559055118
        },
        {
          "duration": 0.054347826086956985,
          "durationTicks": 5,
          "midi": 74,
          "name": "D5",
          "ticks": 1664,
          "time": 18.08695652173913,
          "velocity": 0.1968503937007874
        },
        {
          "duration": 0.03260869565217206,
          "durationTicks": 3,
          "midi": 68,
          "name": "G#4",
          "ticks": 1665,
          "time": 18.097826086956523,
          "velocity": 0.1968503937007874
        },
        {
          "duration": 0.14130434782608603,
          "durationTicks": 13,
          "midi": 47,
          "name": "B2",
          "ticks": 1667,
          "time": 18.119565217391305,
          "velocity": 0.44881889763779526
        },
        {
          "duration": 0.06521739130434767,
          "durationTicks": 6,
          "midi": 70,
          "name": "A#4",
          "ticks": 1667,
          "time": 18.119565217391305,
          "velocity": 0.1968503937007874
        },
        {
          "duration": 0.021739130434781373,
          "durationTicks": 2,
          "midi": 54,
          "name": "F#3",
          "ticks": 1668,
          "time": 18.130434782608695,
          "velocity": 0.25196850393700787
        },
        {
          "duration": 0.05434782608695343,
          "durationTicks": 5,
          "midi": 54,
          "name": "F#3",
          "ticks": 1671,
          "time": 18.16304347826087,
          "velocity": 0.2992125984251969
        },
        {
          "duration": 0.021739130434781373,
          "durationTicks": 2,
          "midi": 60,
          "name": "C4",
          "ticks": 1672,
          "time": 18.17391304347826,
          "velocity": 0.2440944881889764
        },
        {
          "duration": 0.0434782608695663,
          "durationTicks": 4,
          "midi": 68,
          "name": "G#4",
          "ticks": 1673,
          "time": 18.184782608695652,
          "velocity": 0.16535433070866143
        },
        {
          "duration": 0.054347826086956985,
          "durationTicks": 5,
          "midi": 61,
          "name": "C#4",
          "ticks": 1674,
          "time": 18.195652173913043,
          "velocity": 0.1889763779527559
        },
        {
          "duration": 0.0434782608695663,
          "durationTicks": 4,
          "midi": 60,
          "name": "C4",
          "ticks": 1679,
          "time": 18.25,
          "velocity": 0.08661417322834646
        },
        {
          "duration": 0.054347826086956985,
          "durationTicks": 5,
          "midi": 54,
          "name": "F#3",
          "ticks": 1680,
          "time": 18.26086956521739,
          "velocity": 0.2125984251968504
        },
        {
          "duration": 0.03260869565217561,
          "durationTicks": 3,
          "midi": 70,
          "name": "A#4",
          "ticks": 1681,
          "time": 18.27173913043478,
          "velocity": 0.09448818897637795
        },
        {
          "duration": 0.021739130434784926,
          "durationTicks": 2,
          "midi": 71,
          "name": "B4",
          "ticks": 1687,
          "time": 18.33695652173913,
          "velocity": 0.2755905511811024
        },
        {
          "duration": 0.03260869565217561,
          "durationTicks": 3,
          "midi": 81,
          "name": "A5",
          "ticks": 1687,
          "time": 18.33695652173913,
          "velocity": 0.18110236220472442
        },
        {
          "duration": 0.010869565217390686,
          "durationTicks": 1,
          "midi": 49,
          "name": "C#3",
          "ticks": 1688,
          "time": 18.347826086956523,
          "velocity": 0.5354330708661418
        },
        {
          "duration": 0.021739130434781373,
          "durationTicks": 2,
          "midi": 60,
          "name": "C4",
          "ticks": 1688,
          "time": 18.347826086956523,
          "velocity": 0.48031496062992124
        },
        {
          "duration": 0.021739130434781373,
          "durationTicks": 2,
          "midi": 47,
          "name": "B2",
          "ticks": 1689,
          "time": 18.358695652173914,
          "velocity": 0.47244094488188976
        },
        {
          "duration": 0.10869565217391042,
          "durationTicks": 10,
          "midi": 70,
          "name": "A#4",
          "ticks": 1689,
          "time": 18.358695652173914,
          "velocity": 0.29133858267716534
        },
        {
          "duration": 0.06521739130434767,
          "durationTicks": 6,
          "midi": 61,
          "name": "C#4",
          "ticks": 1690,
          "time": 18.369565217391305,
          "velocity": 0.3779527559055118
        },
        {
          "duration": 0.03260869565217206,
          "durationTicks": 3,
          "midi": 74,
          "name": "D5",
          "ticks": 1690,
          "time": 18.369565217391305,
          "velocity": 0.12598425196850394
        },
        {
          "duration": 0.14130434782608958,
          "durationTicks": 13,
          "midi": 47,
          "name": "B2",
          "ticks": 1692,
          "time": 18.391304347826086,
          "velocity": 0.4409448818897638
        },
        {
          "duration": 0.021739130434784926,
          "durationTicks": 2,
          "midi": 54,
          "name": "F#3",
          "ticks": 1693,
          "time": 18.402173913043477,
          "velocity": 0.2677165354330709
        },
        {
          "duration": 0.021739130434781373,
          "durationTicks": 2,
          "midi": 60,
          "name": "C4",
          "ticks": 1697,
          "time": 18.445652173913043,
          "velocity": 0.28346456692913385
        },
        {
          "duration": 0.021739130434784926,
          "durationTicks": 2,
          "midi": 54,
          "name": "F#3",
          "ticks": 1698,
          "time": 18.456521739130434,
          "velocity": 0.30708661417322836
        },
        {
          "duration": 0.06521739130435122,
          "durationTicks": 6,
          "midi": 61,
          "name": "C#4",
          "ticks": 1699,
          "time": 18.467391304347824,
          "velocity": 0.2440944881889764
        },
        {
          "duration": 0.021739130434781373,
          "durationTicks": 2,
          "midi": 54,
          "name": "F#3",
          "ticks": 1701,
          "time": 18.48913043478261,
          "velocity": 0.2677165354330709
        },
        {
          "duration": 0.07608695652173836,
          "durationTicks": 7,
          "midi": 70,
          "name": "A#4",
          "ticks": 1702,
          "time": 18.5,
          "velocity": 0.15748031496062992
        },
        {
          "duration": 0.021739130434781373,
          "durationTicks": 2,
          "midi": 54,
          "name": "F#3",
          "ticks": 1707,
          "time": 18.554347826086957,
          "velocity": 0.25196850393700787
        },
        {
          "duration": 0.0434782608695663,
          "durationTicks": 4,
          "midi": 53,
          "name": "F3",
          "ticks": 1709,
          "time": 18.57608695652174,
          "velocity": 0.1732283464566929
        },
        {
          "duration": 0.03260869565217561,
          "durationTicks": 3,
          "midi": 70,
          "name": "A#4",
          "ticks": 1710,
          "time": 18.58695652173913,
          "velocity": 0.09448818897637795
        },
        {
          "duration": 0.021739130434784926,
          "durationTicks": 2,
          "midi": 54,
          "name": "F#3",
          "ticks": 1716,
          "time": 18.652173913043477,
          "velocity": 0.23622047244094488
        },
        {
          "duration": 0.054347826086956985,
          "durationTicks": 5,
          "midi": 54,
          "name": "F#3",
          "ticks": 1721,
          "time": 18.706521739130434,
          "velocity": 0.1968503937007874
        },
        {
          "duration": 0.043478260869562746,
          "durationTicks": 4,
          "midi": 54,
          "name": "F#3",
          "ticks": 1729,
          "time": 18.793478260869566,
          "velocity": 0.1732283464566929
        },
        {
          "duration": 0.06521739130434767,
          "durationTicks": 6,
          "midi": 66,
          "name": "F#4",
          "ticks": 1732,
          "time": 18.82608695652174,
          "velocity": 0.28346456692913385
        },
        {
          "duration": 0.03260869565217561,
          "durationTicks": 3,
          "midi": 72,
          "name": "C5",
          "ticks": 1732,
          "time": 18.82608695652174,
          "velocity": 0.28346456692913385
        },
        {
          "duration": 0.03260869565217561,
          "durationTicks": 3,
          "midi": 77,
          "name": "F5",
          "ticks": 1732,
          "time": 18.82608695652174,
          "velocity": 0.2755905511811024
        },
        {
          "duration": 0.03260869565217206,
          "durationTicks": 3,
          "midi": 69,
          "name": "A4",
          "ticks": 1734,
          "time": 18.847826086956523,
          "velocity": 0.13385826771653545
        },
        {
          "duration": 0.03260869565217561,
          "durationTicks": 3,
          "midi": 54,
          "name": "F#3",
          "ticks": 1737,
          "time": 18.880434782608695,
          "velocity": 0.13385826771653545
        },
        {
          "duration": 0.0434782608695663,
          "durationTicks": 4,
          "midi": 61,
          "name": "C#4",
          "ticks": 1738,
          "time": 18.891304347826086,
          "velocity": 0.13385826771653545
        },
        {
          "duration": 0.0434782608695663,
          "durationTicks": 4,
          "midi": 54,
          "name": "F#3",
          "ticks": 1744,
          "time": 18.956521739130434,
          "velocity": 0.10236220472440945
        },
        {
          "duration": 0.010869565217390686,
          "durationTicks": 1,
          "midi": 49,
          "name": "C#3",
          "ticks": 1757,
          "time": 19.097826086956523,
          "velocity": 0.5354330708661418
        },
        {
          "duration": 0.021739130434781373,
          "durationTicks": 2,
          "midi": 67,
          "name": "G4",
          "ticks": 1757,
          "time": 19.097826086956523,
          "velocity": 0.23622047244094488
        },
        {
          "duration": 0.19565217391304301,
          "durationTicks": 18,
          "midi": 47,
          "name": "B2",
          "ticks": 1758,
          "time": 19.108695652173914,
          "velocity": 0.4645669291338583
        },
        {
          "duration": 0.07608695652173836,
          "durationTicks": 7,
          "midi": 61,
          "name": "C#4",
          "ticks": 1758,
          "time": 19.108695652173914,
          "velocity": 0.31496062992125984
        },
        {
          "duration": 0.03260869565217206,
          "durationTicks": 3,
          "midi": 74,
          "name": "D5",
          "ticks": 1758,
          "time": 19.108695652173914,
          "velocity": 0.16535433070866143
        },
        {
          "duration": 0.06521739130434767,
          "durationTicks": 6,
          "midi": 68,
          "name": "G#4",
          "ticks": 1759,
          "time": 19.119565217391305,
          "velocity": 0.1732283464566929
        },
        {
          "duration": 0.03260869565217561,
          "durationTicks": 3,
          "midi": 60,
          "name": "C4",
          "ticks": 1766,
          "time": 19.195652173913043,
          "velocity": 0.1968503937007874
        },
        {
          "duration": 0.054347826086956985,
          "durationTicks": 5,
          "midi": 61,
          "name": "C#4",
          "ticks": 1768,
          "time": 19.217391304347824,
          "velocity": 0.09448818897637795
        },
        {
          "duration": 0.03260869565217561,
          "durationTicks": 3,
          "midi": 68,
          "name": "G#4",
          "ticks": 1768,
          "time": 19.217391304347824,
          "velocity": 0.11023622047244094
        },
        {
          "duration": 0.05434782608695343,
          "durationTicks": 5,
          "midi": 54,
          "name": "F#3",
          "ticks": 1774,
          "time": 19.282608695652176,
          "velocity": 0.14173228346456693
        },
        {
          "duration": 0.010869565217390686,
          "durationTicks": 1,
          "midi": 50,
          "name": "D3",
          "ticks": 1780,
          "time": 19.347826086956523,
          "velocity": 0.5433070866141733
        },
        {
          "duration": 0.010869565217390686,
          "durationTicks": 1,
          "midi": 58,
          "name": "A#3",
          "ticks": 1780,
          "time": 19.347826086956523,
          "velocity": 0.5118110236220472
        },
        {
          "duration": 0.03260869565217206,
          "durationTicks": 3,
          "midi": 73,
          "name": "C#5",
          "ticks": 1780,
          "time": 19.347826086956523,
          "velocity": 0.18110236220472442
        },
        {
          "duration": 0.010869565217390686,
          "durationTicks": 1,
          "midi": 49,
          "name": "C#3",
          "ticks": 1781,
          "time": 19.358695652173914,
          "velocity": 0.5433070866141733
        },
        {
          "duration": 0.18478260869565233,
          "durationTicks": 17,
          "midi": 47,
          "name": "B2",
          "ticks": 1782,
          "time": 19.369565217391305,
          "velocity": 0.4645669291338583
        },
        {
          "duration": 0.06521739130434767,
          "durationTicks": 6,
          "midi": 61,
          "name": "C#4",
          "ticks": 1782,
          "time": 19.369565217391305,
          "velocity": 0.4015748031496063
        },
        {
          "duration": 0.0434782608695663,
          "durationTicks": 4,
          "midi": 54,
          "name": "F#3",
          "ticks": 1784,
          "time": 19.391304347826086,
          "velocity": 0.3228346456692913
        },
        {
          "duration": 0.07608695652173836,
          "durationTicks": 7,
          "midi": 70,
          "name": "A#4",
          "ticks": 1784,
          "time": 19.391304347826086,
          "velocity": 0.2440944881889764
        },
        {
          "duration": 0.03260869565217561,
          "durationTicks": 3,
          "midi": 54,
          "name": "F#3",
          "ticks": 1790,
          "time": 19.456521739130434,
          "velocity": 0.3464566929133858
        },
        {
          "duration": 0.06521739130435122,
          "durationTicks": 6,
          "midi": 61,
          "name": "C#4",
          "ticks": 1791,
          "time": 19.467391304347824,
          "velocity": 0.28346456692913385
        },
        {
          "duration": 0.0434782608695663,
          "durationTicks": 4,
          "midi": 68,
          "name": "G#4",
          "ticks": 1791,
          "time": 19.467391304347824,
          "velocity": 0.16535433070866143
        },
        {
          "duration": 0.03260869565217561,
          "durationTicks": 3,
          "midi": 66,
          "name": "F#4",
          "ticks": 1795,
          "time": 19.51086956521739,
          "velocity": 0.12598425196850394
        },
        {
          "duration": 0.043478260869562746,
          "durationTicks": 4,
          "midi": 60,
          "name": "C4",
          "ticks": 1797,
          "time": 19.532608695652176,
          "velocity": 0.14173228346456693
        },
        {
          "duration": 0.021739130434781373,
          "durationTicks": 2,
          "midi": 53,
          "name": "F3",
          "ticks": 1798,
          "time": 19.543478260869566,
          "velocity": 0.2755905511811024
        },
        {
          "duration": 0.021739130434781373,
          "durationTicks": 2,
          "midi": 54,
          "name": "F#3",
          "ticks": 1800,
          "time": 19.565217391304348,
          "velocity": 0.2755905511811024
        },
        {
          "duration": 0.07608695652173836,
          "durationTicks": 7,
          "midi": 70,
          "name": "A#4",
          "ticks": 1800,
          "time": 19.565217391304348,
          "velocity": 0.12598425196850394
        },
        {
          "duration": 0.0434782608695663,
          "durationTicks": 4,
          "midi": 53,
          "name": "F3",
          "ticks": 1802,
          "time": 19.58695652173913,
          "velocity": 0.2125984251968504
        },
        {
          "duration": 0.021739130434781373,
          "durationTicks": 2,
          "midi": 54,
          "name": "F#3",
          "ticks": 1806,
          "time": 19.630434782608695,
          "velocity": 0.2440944881889764
        },
        {
          "duration": 0.054347826086956985,
          "durationTicks": 5,
          "midi": 53,
          "name": "F3",
          "ticks": 1810,
          "time": 19.67391304347826,
          "velocity": 0.2125984251968504
        },
        {
          "duration": 0.021739130434781373,
          "durationTicks": 2,
          "midi": 54,
          "name": "F#3",
          "ticks": 1815,
          "time": 19.72826086956522,
          "velocity": 0.2283464566929134
        },
        {
          "duration": 0.0434782608695663,
          "durationTicks": 4,
          "midi": 54,
          "name": "F#3",
          "ticks": 1822,
          "time": 19.804347826086957,
          "velocity": 0.1968503937007874
        },
        {
          "duration": 0.021739130434784926,
          "durationTicks": 2,
          "midi": 73,
          "name": "C#5",
          "ticks": 1825,
          "time": 19.83695652173913,
          "velocity": 0.33070866141732286
        },
        {
          "duration": 0.06521739130434767,
          "durationTicks": 6,
          "midi": 66,
          "name": "F#4",
          "ticks": 1826,
          "time": 19.847826086956523,
          "velocity": 0.33858267716535434
        },
        {
          "duration": 0.03260869565217206,
          "durationTicks": 3,
          "midi": 77,
          "name": "F5",
          "ticks": 1826,
          "time": 19.847826086956523,
          "velocity": 0.33858267716535434
        },
        {
          "duration": 0.03260869565217206,
          "durationTicks": 3,
          "midi": 83,
          "name": "B5",
          "ticks": 1826,
          "time": 19.847826086956523,
          "velocity": 0.10236220472440945
        },
        {
          "duration": 0.021739130434781373,
          "durationTicks": 2,
          "midi": 72,
          "name": "C5",
          "ticks": 1827,
          "time": 19.858695652173914,
          "velocity": 0.31496062992125984
        },
        {
          "duration": 0.054347826086956985,
          "durationTicks": 5,
          "midi": 54,
          "name": "F#3",
          "ticks": 1829,
          "time": 19.880434782608695,
          "velocity": 0.18110236220472442
        },
        {
          "duration": 0.043478260869562746,
          "durationTicks": 4,
          "midi": 61,
          "name": "C#4",
          "ticks": 1832,
          "time": 19.91304347826087,
          "velocity": 0.1968503937007874
        },
        {
          "duration": 0.0434782608695663,
          "durationTicks": 4,
          "midi": 54,
          "name": "F#3",
          "ticks": 1836,
          "time": 19.956521739130434,
          "velocity": 0.14960629921259844
        },
        {
          "duration": 0.043478260869562746,
          "durationTicks": 4,
          "midi": 54,
          "name": "F#3",
          "ticks": 1844,
          "time": 20.043478260869566,
          "velocity": 0.2047244094488189
        },
        {
          "duration": 0.03260869565217561,
          "durationTicks": 3,
          "midi": 78,
          "name": "F#5",
          "ticks": 1848,
          "time": 20.08695652173913,
          "velocity": 0.1889763779527559
        },
        {
          "duration": 0.010869565217390686,
          "durationTicks": 1,
          "midi": 49,
          "name": "C#3",
          "ticks": 1849,
          "time": 20.097826086956523,
          "velocity": 0.5748031496062992
        },
        {
          "duration": 0.19565217391304301,
          "durationTicks": 18,
          "midi": 47,
          "name": "B2",
          "ticks": 1850,
          "time": 20.108695652173914,
          "velocity": 0.5039370078740157
        },
        {
          "duration": 0.07608695652173836,
          "durationTicks": 7,
          "midi": 61,
          "name": "C#4",
          "ticks": 1850,
          "time": 20.108695652173914,
          "velocity": 0.3543307086614173
        },
        {
          "duration": 0.06521739130434767,
          "durationTicks": 6,
          "midi": 74,
          "name": "D5",
          "ticks": 1850,
          "time": 20.108695652173914,
          "velocity": 0.2047244094488189
        },
        {
          "duration": 0.09782608695652328,
          "durationTicks": 9,
          "midi": 68,
          "name": "G#4",
          "ticks": 1854,
          "time": 20.152173913043477,
          "velocity": 0.18110236220472442
        },
        {
          "duration": 0.021739130434781373,
          "durationTicks": 2,
          "midi": 54,
          "name": "F#3",
          "ticks": 1857,
          "time": 20.184782608695652,
          "velocity": 0.23622047244094488
        },
        {
          "duration": 0.0434782608695663,
          "durationTicks": 4,
          "midi": 54,
          "name": "F#3",
          "ticks": 1860,
          "time": 20.217391304347824,
          "velocity": 0.2440944881889764
        },
        {
          "duration": 0.054347826086956985,
          "durationTicks": 5,
          "midi": 61,
          "name": "C#4",
          "ticks": 1860,
          "time": 20.217391304347824,
          "velocity": 0.14173228346456693
        },
        {
          "duration": 0.05434782608695343,
          "durationTicks": 5,
          "midi": 54,
          "name": "F#3",
          "ticks": 1866,
          "time": 20.282608695652176,
          "velocity": 0.1968503937007874
        },
        {
          "duration": 0.021739130434781373,
          "durationTicks": 2,
          "midi": 58,
          "name": "A#3",
          "ticks": 1872,
          "time": 20.347826086956523,
          "velocity": 0.4881889763779528
        },
        {
          "duration": 0.010869565217390686,
          "durationTicks": 1,
          "midi": 50,
          "name": "D3",
          "ticks": 1873,
          "time": 20.358695652173914,
          "velocity": 0.5433070866141733
        },
        {
          "duration": 0.03260869565217206,
          "durationTicks": 3,
          "midi": 81,
          "name": "A5",
          "ticks": 1873,
          "time": 20.358695652173914,
          "velocity": 0.09448818897637795
        },
        {
          "duration": 0.010869565217390686,
          "durationTicks": 1,
          "midi": 49,
          "name": "C#3",
          "ticks": 1874,
          "time": 20.369565217391305,
          "velocity": 0.5511811023622047
        },
        {
          "duration": 0.021739130434781373,
          "durationTicks": 2,
          "midi": 67,
          "name": "G4",
          "ticks": 1874,
          "time": 20.369565217391305,
          "velocity": 0.28346456692913385
        },
        {
          "duration": 0.16304347826087096,
          "durationTicks": 15,
          "midi": 47,
          "name": "B2",
          "ticks": 1875,
          "time": 20.380434782608695,
          "velocity": 0.47244094488188976
        },
        {
          "duration": 0.06521739130434767,
          "durationTicks": 6,
          "midi": 61,
          "name": "C#4",
          "ticks": 1875,
          "time": 20.380434782608695,
          "velocity": 0.3700787401574803
        },
        {
          "duration": 0.08695652173912904,
          "durationTicks": 8,
          "midi": 74,
          "name": "D5",
          "ticks": 1875,
          "time": 20.380434782608695,
          "velocity": 0.2440944881889764
        },
        {
          "duration": 0.13043478260869534,
          "durationTicks": 12,
          "midi": 68,
          "name": "G#4",
          "ticks": 1876,
          "time": 20.391304347826086,
          "velocity": 0.23622047244094488
        },
        {
          "duration": 0.021739130434781373,
          "durationTicks": 2,
          "midi": 54,
          "name": "F#3",
          "ticks": 1878,
          "time": 20.41304347826087,
          "velocity": 0.29133858267716534
        },
        {
          "duration": 0.03260869565217206,
          "durationTicks": 3,
          "midi": 55,
          "name": "G3",
          "ticks": 1880,
          "time": 20.434782608695652,
          "velocity": 0.1889763779527559
        },
        {
          "duration": 0.03260869565217561,
          "durationTicks": 3,
          "midi": 54,
          "name": "F#3",
          "ticks": 1883,
          "time": 20.467391304347824,
          "velocity": 0.33070866141732286
        },
        {
          "duration": 0.054347826086956985,
          "durationTicks": 5,
          "midi": 61,
          "name": "C#4",
          "ticks": 1884,
          "time": 20.47826086956522,
          "velocity": 0.2755905511811024
        },
        {
          "duration": 0.021739130434784926,
          "durationTicks": 2,
          "midi": 54,
          "name": "F#3",
          "ticks": 1887,
          "time": 20.51086956521739,
          "velocity": 0.25196850393700787
        },
        {
          "duration": 0.021739130434784926,
          "durationTicks": 2,
          "midi": 54,
          "name": "F#3",
          "ticks": 1893,
          "time": 20.57608695652174,
          "velocity": 0.2283464566929134
        },
        {
          "duration": 0.07608695652173836,
          "durationTicks": 7,
          "midi": 70,
          "name": "A#4",
          "ticks": 1893,
          "time": 20.57608695652174,
          "velocity": 0.11811023622047244
        },
        {
          "duration": 0.06521739130434767,
          "durationTicks": 6,
          "midi": 54,
          "name": "F#3",
          "ticks": 1898,
          "time": 20.630434782608695,
          "velocity": 0.2204724409448819
        },
        {
          "duration": 0.03260869565217561,
          "durationTicks": 3,
          "midi": 60,
          "name": "C4",
          "ticks": 1898,
          "time": 20.630434782608695,
          "velocity": 0.16535433070866143
        },
        {
          "duration": 0.054347826086956985,
          "durationTicks": 5,
          "midi": 54,
          "name": "F#3",
          "ticks": 1906,
          "time": 20.717391304347824,
          "velocity": 0.1968503937007874
        },
        {
          "duration": 0.054347826086956985,
          "durationTicks": 5,
          "midi": 54,
          "name": "F#3",
          "ticks": 1913,
          "time": 20.793478260869566,
          "velocity": 0.16535433070866143
        },
        {
          "duration": 0.021739130434784926,
          "durationTicks": 2,
          "midi": 52,
          "name": "E3",
          "ticks": 1917,
          "time": 20.83695652173913,
          "velocity": 0.4645669291338583
        },
        {
          "duration": 0.021739130434781373,
          "durationTicks": 2,
          "midi": 56,
          "name": "G#3",
          "ticks": 1918,
          "time": 20.847826086956523,
          "velocity": 0.49606299212598426
        },
        {
          "duration": 0.03260869565217206,
          "durationTicks": 3,
          "midi": 78,
          "name": "F#5",
          "ticks": 1918,
          "time": 20.847826086956523,
          "velocity": 0.1889763779527559
        },
        {
          "duration": 0.010869565217390686,
          "durationTicks": 1,
          "midi": 49,
          "name": "C#3",
          "ticks": 1919,
          "time": 20.858695652173914,
          "velocity": 0.5748031496062992
        },
        {
          "duration": 0.19565217391304301,
          "durationTicks": 18,
          "midi": 47,
          "name": "B2",
          "ticks": 1920,
          "time": 20.869565217391305,
          "velocity": 0.5196850393700787
        },
        {
          "duration": 0.06521739130434767,
          "durationTicks": 6,
          "midi": 61,
          "name": "C#4",
          "ticks": 1921,
          "time": 20.880434782608695,
          "velocity": 0.3464566929133858
        },
        {
          "duration": 0.13043478260869534,
          "durationTicks": 12,
          "midi": 68,
          "name": "G#4",
          "ticks": 1921,
          "time": 20.880434782608695,
          "velocity": 0.2204724409448819
        },
        {
          "duration": 0.07608695652173836,
          "durationTicks": 7,
          "midi": 74,
          "name": "D5",
          "ticks": 1921,
          "time": 20.880434782608695,
          "velocity": 0.2204724409448819
        },
        {
          "duration": 0.03260869565217561,
          "durationTicks": 3,
          "midi": 78,
          "name": "F#5",
          "ticks": 1922,
          "time": 20.891304347826086,
          "velocity": 0.09448818897637795
        },
        {
          "duration": 0.03260869565217561,
          "durationTicks": 3,
          "midi": 70,
          "name": "A#4",
          "ticks": 1927,
          "time": 20.945652173913043,
          "velocity": 0.09448818897637795
        },
        {
          "duration": 0.021739130434784926,
          "durationTicks": 2,
          "midi": 60,
          "name": "C4",
          "ticks": 1928,
          "time": 20.956521739130434,
          "velocity": 0.29133858267716534
        },
        {
          "duration": 0.021739130434781373,
          "durationTicks": 2,
          "midi": 54,
          "name": "F#3",
          "ticks": 1930,
          "time": 20.97826086956522,
          "velocity": 0.2755905511811024
        },
        {
          "duration": 0.054347826086956985,
          "durationTicks": 5,
          "midi": 61,
          "name": "C#4",
          "ticks": 1930,
          "time": 20.97826086956522,
          "velocity": 0.2440944881889764
        },
        {
          "duration": 0.07608695652173836,
          "durationTicks": 7,
          "midi": 70,
          "name": "A#4",
          "ticks": 1933,
          "time": 21.01086956521739,
          "velocity": 0.11811023622047244
        },
        {
          "duration": 0.03260869565217561,
          "durationTicks": 3,
          "midi": 55,
          "name": "G3",
          "ticks": 1934,
          "time": 21.02173913043478,
          "velocity": 0.2047244094488189
        },
        {
          "duration": 0.0434782608695663,
          "durationTicks": 4,
          "midi": 54,
          "name": "F#3",
          "ticks": 1937,
          "time": 21.054347826086957,
          "velocity": 0.1968503937007874
        },
        {
          "duration": 0.054347826086956985,
          "durationTicks": 5,
          "midi": 54,
          "name": "F#3",
          "ticks": 1945,
          "time": 21.141304347826086,
          "velocity": 0.1968503937007874
        },
        {
          "duration": 0.054347826086956985,
          "durationTicks": 5,
          "midi": 54,
          "name": "F#3",
          "ticks": 1952,
          "time": 21.217391304347824,
          "velocity": 0.14960629921259844
        },
        {
          "duration": 0.0434782608695663,
          "durationTicks": 4,
          "midi": 54,
          "name": "F#3",
          "ticks": 1960,
          "time": 21.304347826086957,
          "velocity": 0.11811023622047244
        },
        {
          "duration": 0.03260869565217561,
          "durationTicks": 3,
          "midi": 75,
          "name": "D#5",
          "ticks": 1967,
          "time": 21.380434782608695,
          "velocity": 0.1968503937007874
        },
        {
          "duration": 0.010869565217390686,
          "durationTicks": 1,
          "midi": 50,
          "name": "D3",
          "ticks": 1968,
          "time": 21.391304347826086,
          "velocity": 0.5511811023622047
        },
        {
          "duration": 0.021739130434784926,
          "durationTicks": 2,
          "midi": 56,
          "name": "G#3",
          "ticks": 1968,
          "time": 21.391304347826086,
          "velocity": 0.5354330708661418
        },
        {
          "duration": 0.021739130434784926,
          "durationTicks": 2,
          "midi": 71,
          "name": "B4",
          "ticks": 1968,
          "time": 21.391304347826086,
          "velocity": 0.2440944881889764
        },
        {
          "duration": 0.03260869565217561,
          "durationTicks": 3,
          "midi": 81,
          "name": "A5",
          "ticks": 1968,
          "time": 21.391304347826086,
          "velocity": 0.15748031496062992
        },
        {
          "duration": 0.01086956521739424,
          "durationTicks": 1,
          "midi": 49,
          "name": "C#3",
          "ticks": 1969,
          "time": 21.402173913043477,
          "velocity": 0.5511811023622047
        },
        {
          "duration": 0.021739130434784926,
          "durationTicks": 2,
          "midi": 67,
          "name": "G4",
          "ticks": 1969,
          "time": 21.402173913043477,
          "velocity": 0.2283464566929134
        },
        {
          "duration": 0.021739130434784926,
          "durationTicks": 2,
          "midi": 69,
          "name": "A4",
          "ticks": 1969,
          "time": 21.402173913043477,
          "velocity": 0.23622047244094488
        },
        {
          "duration": 0.18478260869565233,
          "durationTicks": 17,
          "midi": 47,
          "name": "B2",
          "ticks": 1970,
          "time": 21.41304347826087,
          "velocity": 0.4566929133858268
        },
        {
          "duration": 0.08695652173912904,
          "durationTicks": 8,
          "midi": 61,
          "name": "C#4",
          "ticks": 1970,
          "time": 21.41304347826087,
          "velocity": 0.4015748031496063
        },
        {
          "duration": 0.08695652173912904,
          "durationTicks": 8,
          "midi": 70,
          "name": "A#4",
          "ticks": 1971,
          "time": 21.42391304347826,
          "velocity": 0.2677165354330709
        },
        {
          "duration": 0.03260869565217206,
          "durationTicks": 3,
          "midi": 74,
          "name": "D5",
          "ticks": 1971,
          "time": 21.42391304347826,
          "velocity": 0.15748031496062992
        },
        {
          "duration": 0.0434782608695663,
          "durationTicks": 4,
          "midi": 54,
          "name": "F#3",
          "ticks": 1972,
          "time": 21.434782608695652,
          "velocity": 0.30708661417322836
        },
        {
          "duration": 0.03260869565217561,
          "durationTicks": 3,
          "midi": 54,
          "name": "F#3",
          "ticks": 1978,
          "time": 21.5,
          "velocity": 0.3464566929133858
        },
        {
          "duration": 0.06521739130434767,
          "durationTicks": 6,
          "midi": 61,
          "name": "C#4",
          "ticks": 1979,
          "time": 21.51086956521739,
          "velocity": 0.31496062992125984
        },
        {
          "duration": 0.0434782608695663,
          "durationTicks": 4,
          "midi": 68,
          "name": "G#4",
          "ticks": 1979,
          "time": 21.51086956521739,
          "velocity": 0.23622047244094488
        },
        {
          "duration": 0.021739130434781373,
          "durationTicks": 2,
          "midi": 54,
          "name": "F#3",
          "ticks": 1982,
          "time": 21.543478260869566,
          "velocity": 0.3228346456692913
        },
        {
          "duration": 0.054347826086956985,
          "durationTicks": 5,
          "midi": 70,
          "name": "A#4",
          "ticks": 1982,
          "time": 21.543478260869566,
          "velocity": 0.2125984251968504
        },
        {
          "duration": 0.0434782608695663,
          "durationTicks": 4,
          "midi": 60,
          "name": "C4",
          "ticks": 1985,
          "time": 21.57608695652174,
          "velocity": 0.1732283464566929
        },
        {
          "duration": 0.021739130434784926,
          "durationTicks": 2,
          "midi": 53,
          "name": "F3",
          "ticks": 1986,
          "time": 21.58695652173913,
          "velocity": 0.30708661417322836
        },
        {
          "duration": 0.021739130434781373,
          "durationTicks": 2,
          "midi": 54,
          "name": "F#3",
          "ticks": 1988,
          "time": 21.608695652173914,
          "velocity": 0.30708661417322836
        },
        {
          "duration": 0.07608695652173836,
          "durationTicks": 7,
          "midi": 70,
          "name": "A#4",
          "ticks": 1988,
          "time": 21.608695652173914,
          "velocity": 0.1889763779527559
        },
        {
          "duration": 0.0434782608695663,
          "durationTicks": 4,
          "midi": 53,
          "name": "F3",
          "ticks": 1990,
          "time": 21.630434782608695,
          "velocity": 0.23622047244094488
        },
        {
          "duration": 0.03260869565217206,
          "durationTicks": 3,
          "midi": 60,
          "name": "C4",
          "ticks": 1993,
          "time": 21.66304347826087,
          "velocity": 0.23622047244094488
        },
        {
          "duration": 0.021739130434781373,
          "durationTicks": 2,
          "midi": 54,
          "name": "F#3",
          "ticks": 1994,
          "time": 21.67391304347826,
          "velocity": 0.28346456692913385
        },
        {
          "duration": 0.0434782608695663,
          "durationTicks": 4,
          "midi": 53,
          "name": "F3",
          "ticks": 1998,
          "time": 21.717391304347824,
          "velocity": 0.2047244094488189
        },
        {
          "duration": 0.0434782608695663,
          "durationTicks": 4,
          "midi": 61,
          "name": "C#4",
          "ticks": 2001,
          "time": 21.75,
          "velocity": 0.11811023622047244
        },
        {
          "duration": 0.03260869565217561,
          "durationTicks": 3,
          "midi": 54,
          "name": "F#3",
          "ticks": 2002,
          "time": 21.76086956521739,
          "velocity": 0.2677165354330709
        },
        {
          "duration": 0.043478260869562746,
          "durationTicks": 4,
          "midi": 54,
          "name": "F#3",
          "ticks": 2010,
          "time": 21.847826086956523,
          "velocity": 0.23622047244094488
        },
        {
          "duration": 0.0434782608695663,
          "durationTicks": 4,
          "midi": 53,
          "name": "F3",
          "ticks": 2014,
          "time": 21.891304347826086,
          "velocity": 0.1968503937007874
        },
        {
          "duration": 0.0434782608695663,
          "durationTicks": 4,
          "midi": 66,
          "name": "F#4",
          "ticks": 2015,
          "time": 21.902173913043477,
          "velocity": 0.28346456692913385
        },
        {
          "duration": 0.0434782608695663,
          "durationTicks": 4,
          "midi": 77,
          "name": "F5",
          "ticks": 2015,
          "time": 21.902173913043477,
          "velocity": 0.3228346456692913
        },
        {
          "duration": 0.021739130434781373,
          "durationTicks": 2,
          "midi": 72,
          "name": "C5",
          "ticks": 2016,
          "time": 21.91304347826087,
          "velocity": 0.25196850393700787
        },
        {
          "duration": 0.03260869565217206,
          "durationTicks": 3,
          "midi": 54,
          "name": "F#3",
          "ticks": 2018,
          "time": 21.934782608695652,
          "velocity": 0.2125984251968504
        },
        {
          "duration": 0.03260869565217206,
          "durationTicks": 3,
          "midi": 73,
          "name": "C#5",
          "ticks": 2018,
          "time": 21.934782608695652,
          "velocity": 0.12598425196850394
        },
        {
          "duration": 0.054347826086956985,
          "durationTicks": 5,
          "midi": 61,
          "name": "C#4",
          "ticks": 2020,
          "time": 21.956521739130434,
          "velocity": 0.1968503937007874
        },
        {
          "duration": 0.0434782608695663,
          "durationTicks": 4,
          "midi": 53,
          "name": "F3",
          "ticks": 2021,
          "time": 21.967391304347824,
          "velocity": 0.15748031496062992
        },
        {
          "duration": 0.06521739130434767,
          "durationTicks": 6,
          "midi": 53,
          "name": "F3",
          "ticks": 2027,
          "time": 22.032608695652176,
          "velocity": 0.14173228346456693
        },
        {
          "duration": 0.03260869565217206,
          "durationTicks": 3,
          "midi": 54,
          "name": "F#3",
          "ticks": 2033,
          "time": 22.097826086956523,
          "velocity": 0.15748031496062992
        },
        {
          "duration": 0.03260869565217206,
          "durationTicks": 3,
          "midi": 56,
          "name": "G#3",
          "ticks": 2039,
          "time": 22.16304347826087,
          "velocity": 0.5196850393700787
        },
        {
          "duration": 0.03260869565217206,
          "durationTicks": 3,
          "midi": 75,
          "name": "D#5",
          "ticks": 2039,
          "time": 22.16304347826087,
          "velocity": 0.16535433070866143
        },
        {
          "duration": 0.010869565217390686,
          "durationTicks": 1,
          "midi": 50,
          "name": "D3",
          "ticks": 2040,
          "time": 22.17391304347826,
          "velocity": 0.5590551181102362
        },
        {
          "duration": 0.021739130434781373,
          "durationTicks": 2,
          "midi": 79,
          "name": "G5",
          "ticks": 2040,
          "time": 22.17391304347826,
          "velocity": 0.23622047244094488
        },
        {
          "duration": 0.010869565217390686,
          "durationTicks": 1,
          "midi": 49,
          "name": "C#3",
          "ticks": 2041,
          "time": 22.184782608695652,
          "velocity": 0.5590551181102362
        },
        {
          "duration": 0.021739130434781373,
          "durationTicks": 2,
          "midi": 67,
          "name": "G4",
          "ticks": 2041,
          "time": 22.184782608695652,
          "velocity": 0.28346456692913385
        },
        {
          "duration": 0.16304347826087096,
          "durationTicks": 15,
          "midi": 47,
          "name": "B2",
          "ticks": 2042,
          "time": 22.195652173913043,
          "velocity": 0.4645669291338583
        },
        {
          "duration": 0.07608695652173836,
          "durationTicks": 7,
          "midi": 61,
          "name": "C#4",
          "ticks": 2042,
          "time": 22.195652173913043,
          "velocity": 0.36220472440944884
        },
        {
          "duration": 0.0434782608695663,
          "durationTicks": 4,
          "midi": 74,
          "name": "D5",
          "ticks": 2042,
          "time": 22.195652173913043,
          "velocity": 0.1968503937007874
        },
        {
          "duration": 0.03260869565217561,
          "durationTicks": 3,
          "midi": 68,
          "name": "G#4",
          "ticks": 2043,
          "time": 22.206521739130434,
          "velocity": 0.2204724409448819
        },
        {
          "duration": 0.03260869565217561,
          "durationTicks": 3,
          "midi": 54,
          "name": "F#3",
          "ticks": 2044,
          "time": 22.217391304347824,
          "velocity": 0.2992125984251969
        },
        {
          "duration": 0.054347826086956985,
          "durationTicks": 5,
          "midi": 54,
          "name": "F#3",
          "ticks": 2048,
          "time": 22.26086956521739,
          "velocity": 0.3228346456692913
        },
        {
          "duration": 0.021739130434784926,
          "durationTicks": 2,
          "midi": 60,
          "name": "C4",
          "ticks": 2049,
          "time": 22.27173913043478,
          "velocity": 0.28346456692913385
        },
        {
          "duration": 0.054347826086956985,
          "durationTicks": 5,
          "midi": 61,
          "name": "C#4",
          "ticks": 2051,
          "time": 22.293478260869566,
          "velocity": 0.25984251968503935
        },
        {
          "duration": 0.043478260869562746,
          "durationTicks": 4,
          "midi": 68,
          "name": "G#4",
          "ticks": 2051,
          "time": 22.293478260869566,
          "velocity": 0.2047244094488189
        },
        {
          "duration": 0.021739130434784926,
          "durationTicks": 2,
          "midi": 54,
          "name": "F#3",
          "ticks": 2054,
          "time": 22.32608695652174,
          "velocity": 0.2677165354330709
        },
        {
          "duration": 0.05434782608695343,
          "durationTicks": 5,
          "midi": 60,
          "name": "C4",
          "ticks": 2056,
          "time": 22.347826086956523,
          "velocity": 0.14173228346456693
        },
        {
          "duration": 0.054347826086956985,
          "durationTicks": 5,
          "midi": 54,
          "name": "F#3",
          "ticks": 2058,
          "time": 22.369565217391305,
          "velocity": 0.25196850393700787
        },
        {
          "duration": 0.043478260869562746,
          "durationTicks": 4,
          "midi": 81,
          "name": "A5",
          "ticks": 2063,
          "time": 22.42391304347826,
          "velocity": 0.18110236220472442
        },
        {
          "duration": 0.010869565217390686,
          "durationTicks": 1,
          "midi": 49,
          "name": "C#3",
          "ticks": 2064,
          "time": 22.434782608695652,
          "velocity": 0.5590551181102362
        },
        {
          "duration": 0.021739130434781373,
          "durationTicks": 2,
          "midi": 60,
          "name": "C4",
          "ticks": 2064,
          "time": 22.434782608695652,
          "velocity": 0.47244094488188976
        },
        {
          "duration": 0.021739130434781373,
          "durationTicks": 2,
          "midi": 67,
          "name": "G4",
          "ticks": 2064,
          "time": 22.434782608695652,
          "velocity": 0.2992125984251969
        },
        {
          "duration": 0.021739130434781373,
          "durationTicks": 2,
          "midi": 47,
          "name": "B2",
          "ticks": 2065,
          "time": 22.445652173913043,
          "velocity": 0.4881889763779528
        },
        {
          "duration": 0.0869565217391326,
          "durationTicks": 8,
          "midi": 74,
          "name": "D5",
          "ticks": 2065,
          "time": 22.445652173913043,
          "velocity": 0.2440944881889764
        },
        {
          "duration": 0.06521739130434767,
          "durationTicks": 6,
          "midi": 61,
          "name": "C#4",
          "ticks": 2066,
          "time": 22.456521739130434,
          "velocity": 0.3779527559055118
        },
        {
          "duration": 0.03260869565217561,
          "durationTicks": 3,
          "midi": 68,
          "name": "G#4",
          "ticks": 2066,
          "time": 22.456521739130434,
          "velocity": 0.25984251968503935
        },
        {
          "duration": 0.0434782608695663,
          "durationTicks": 4,
          "midi": 54,
          "name": "F#3",
          "ticks": 2067,
          "time": 22.467391304347824,
          "velocity": 0.30708661417322836
        },
        {
          "duration": 0.15217391304347672,
          "durationTicks": 14,
          "midi": 47,
          "name": "B2",
          "ticks": 2068,
          "time": 22.47826086956522,
          "velocity": 0.44881889763779526
        },
        {
          "duration": 0.07608695652173836,
          "durationTicks": 7,
          "midi": 70,
          "name": "A#4",
          "ticks": 2068,
          "time": 22.47826086956522,
          "velocity": 0.2677165354330709
        },
        {
          "duration": 0.06521739130434767,
          "durationTicks": 6,
          "midi": 68,
          "name": "G#4",
          "ticks": 2072,
          "time": 22.52173913043478,
          "velocity": 0.2283464566929134
        },
        {
          "duration": 0.03260869565217206,
          "durationTicks": 3,
          "midi": 54,
          "name": "F#3",
          "ticks": 2073,
          "time": 22.532608695652176,
          "velocity": 0.33858267716535434
        },
        {
          "duration": 0.06521739130434767,
          "durationTicks": 6,
          "midi": 61,
          "name": "C#4",
          "ticks": 2074,
          "time": 22.543478260869566,
          "velocity": 0.2992125984251969
        },
        {
          "duration": 0.021739130434781373,
          "durationTicks": 2,
          "midi": 53,
          "name": "F3",
          "ticks": 2076,
          "time": 22.565217391304348,
          "velocity": 0.2755905511811024
        },
        {
          "duration": 0.07608695652174191,
          "durationTicks": 7,
          "midi": 70,
          "name": "A#4",
          "ticks": 2078,
          "time": 22.58695652173913,
          "velocity": 0.1732283464566929
        },
        {
          "duration": 0.021739130434784926,
          "durationTicks": 2,
          "midi": 54,
          "name": "F#3",
          "ticks": 2083,
          "time": 22.641304347826086,
          "velocity": 0.2755905511811024
        },
        {
          "duration": 0.03260869565217206,
          "durationTicks": 3,
          "midi": 58,
          "name": "A#3",
          "ticks": 2086,
          "time": 22.67391304347826,
          "velocity": 0.14960629921259844
        },
        {
          "duration": 0.054347826086956985,
          "durationTicks": 5,
          "midi": 54,
          "name": "F#3",
          "ticks": 2089,
          "time": 22.706521739130434,
          "velocity": 0.25196850393700787
        },
        {
          "duration": 0.054347826086956985,
          "durationTicks": 5,
          "midi": 54,
          "name": "F#3",
          "ticks": 2097,
          "time": 22.793478260869566,
          "velocity": 0.2283464566929134
        },
        {
          "duration": 0.054347826086956985,
          "durationTicks": 5,
          "midi": 54,
          "name": "F#3",
          "ticks": 2104,
          "time": 22.869565217391305,
          "velocity": 0.2047244094488189
        },
        {
          "duration": 0.054347826086956985,
          "durationTicks": 5,
          "midi": 66,
          "name": "F#4",
          "ticks": 2110,
          "time": 22.934782608695652,
          "velocity": 0.30708661417322836
        },
        {
          "duration": 0.03260869565217206,
          "durationTicks": 3,
          "midi": 73,
          "name": "C#5",
          "ticks": 2110,
          "time": 22.934782608695652,
          "velocity": 0.3543307086614173
        },
        {
          "duration": 0.0434782608695663,
          "durationTicks": 4,
          "midi": 81,
          "name": "A5",
          "ticks": 2110,
          "time": 22.934782608695652,
          "velocity": 0.2440944881889764
        },
        {
          "duration": 0.03260869565217206,
          "durationTicks": 3,
          "midi": 90,
          "name": "F#6",
          "ticks": 2110,
          "time": 22.934782608695652,
          "velocity": 0.13385826771653545
        },
        {
          "duration": 0.06521739130434767,
          "durationTicks": 6,
          "midi": 54,
          "name": "F#3",
          "ticks": 2111,
          "time": 22.945652173913043,
          "velocity": 0.18110236220472442
        },
        {
          "duration": 0.03260869565217561,
          "durationTicks": 3,
          "midi": 77,
          "name": "F5",
          "ticks": 2111,
          "time": 22.945652173913043,
          "velocity": 0.3464566929133858
        },
        {
          "duration": 0.03260869565217561,
          "durationTicks": 3,
          "midi": 83,
          "name": "B5",
          "ticks": 2111,
          "time": 22.945652173913043,
          "velocity": 0.09448818897637795
        },
        {
          "duration": 0.03260869565217206,
          "durationTicks": 3,
          "midi": 73,
          "name": "C#5",
          "ticks": 2114,
          "time": 22.97826086956522,
          "velocity": 0.16535433070866143
        },
        {
          "duration": 0.054347826086956985,
          "durationTicks": 5,
          "midi": 61,
          "name": "C#4",
          "ticks": 2117,
          "time": 23.01086956521739,
          "velocity": 0.1968503937007874
        },
        {
          "duration": 0.05434782608695343,
          "durationTicks": 5,
          "midi": 54,
          "name": "F#3",
          "ticks": 2119,
          "time": 23.032608695652176,
          "velocity": 0.13385826771653545
        },
        {
          "duration": 0.0434782608695663,
          "durationTicks": 4,
          "midi": 61,
          "name": "C#4",
          "ticks": 2124,
          "time": 23.08695652173913,
          "velocity": 0.07874015748031496
        },
        {
          "duration": 0.03260869565217561,
          "durationTicks": 3,
          "midi": 54,
          "name": "F#3",
          "ticks": 2128,
          "time": 23.130434782608695,
          "velocity": 0.08661417322834646
        },
        {
          "duration": 0.010869565217390686,
          "durationTicks": 1,
          "midi": 52,
          "name": "E3",
          "ticks": 2135,
          "time": 23.206521739130434,
          "velocity": 0.5275590551181102
        },
        {
          "duration": 0.03260869565217561,
          "durationTicks": 3,
          "midi": 81,
          "name": "A5",
          "ticks": 2135,
          "time": 23.206521739130434,
          "velocity": 0.11023622047244094
        },
        {
          "duration": 0.01086956521739424,
          "durationTicks": 1,
          "midi": 49,
          "name": "C#3",
          "ticks": 2136,
          "time": 23.217391304347824,
          "velocity": 0.5669291338582677
        },
        {
          "duration": 0.021739130434784926,
          "durationTicks": 2,
          "midi": 67,
          "name": "G4",
          "ticks": 2136,
          "time": 23.217391304347824,
          "velocity": 0.2755905511811024
        },
        {
          "duration": 0.18478260869565233,
          "durationTicks": 17,
          "midi": 47,
          "name": "B2",
          "ticks": 2137,
          "time": 23.22826086956522,
          "velocity": 0.48031496062992124
        },
        {
          "duration": 0.07608695652173836,
          "durationTicks": 7,
          "midi": 61,
          "name": "C#4",
          "ticks": 2137,
          "time": 23.22826086956522,
          "velocity": 0.3543307086614173
        },
        {
          "duration": 0.054347826086956985,
          "durationTicks": 5,
          "midi": 74,
          "name": "D5",
          "ticks": 2137,
          "time": 23.22826086956522,
          "velocity": 0.2125984251968504
        },
        {
          "duration": 0.13043478260869534,
          "durationTicks": 12,
          "midi": 68,
          "name": "G#4",
          "ticks": 2138,
          "time": 23.23913043478261,
          "velocity": 0.2125984251968504
        },
        {
          "duration": 0.03260869565217206,
          "durationTicks": 3,
          "midi": 70,
          "name": "A#4",
          "ticks": 2138,
          "time": 23.23913043478261,
          "velocity": 0.15748031496062992
        },
        {
          "duration": 0.021739130434784926,
          "durationTicks": 2,
          "midi": 54,
          "name": "F#3",
          "ticks": 2146,
          "time": 23.32608695652174,
          "velocity": 0.2755905511811024
        },
        {
          "duration": 0.054347826086956985,
          "durationTicks": 5,
          "midi": 61,
          "name": "C#4",
          "ticks": 2146,
          "time": 23.32608695652174,
          "velocity": 0.2204724409448819
        },
        {
          "duration": 0.021739130434784926,
          "durationTicks": 2,
          "midi": 56,
          "name": "G#3",
          "ticks": 2159,
          "time": 23.467391304347824,
          "velocity": 0.47244094488188976
        },
        {
          "duration": 0.0434782608695663,
          "durationTicks": 4,
          "midi": 81,
          "name": "A5",
          "ticks": 2159,
          "time": 23.467391304347824,
          "velocity": 0.2047244094488189
        },
        {
          "duration": 0.010869565217390686,
          "durationTicks": 1,
          "midi": 49,
          "name": "C#3",
          "ticks": 2160,
          "time": 23.47826086956522,
          "velocity": 0.5511811023622047
        },
        {
          "duration": 0.021739130434781373,
          "durationTicks": 2,
          "midi": 60,
          "name": "C4",
          "ticks": 2160,
          "time": 23.47826086956522,
          "velocity": 0.44881889763779526
        },
        {
          "duration": 0.021739130434781373,
          "durationTicks": 2,
          "midi": 47,
          "name": "B2",
          "ticks": 2161,
          "time": 23.48913043478261,
          "velocity": 0.48031496062992124
        },
        {
          "duration": 0.054347826086956985,
          "durationTicks": 5,
          "midi": 74,
          "name": "D5",
          "ticks": 2161,
          "time": 23.48913043478261,
          "velocity": 0.2125984251968504
        },
        {
          "duration": 0.06521739130434767,
          "durationTicks": 6,
          "midi": 61,
          "name": "C#4",
          "ticks": 2162,
          "time": 23.5,
          "velocity": 0.3543307086614173
        },
        {
          "duration": 0.08695652173912904,
          "durationTicks": 8,
          "midi": 70,
          "name": "A#4",
          "ticks": 2162,
          "time": 23.5,
          "velocity": 0.2677165354330709
        },
        {
          "duration": 0.17391304347826164,
          "durationTicks": 16,
          "midi": 47,
          "name": "B2",
          "ticks": 2164,
          "time": 23.52173913043478,
          "velocity": 0.4409448818897638
        },
        {
          "duration": 0.06521739130434767,
          "durationTicks": 6,
          "midi": 68,
          "name": "G#4",
          "ticks": 2168,
          "time": 23.565217391304348,
          "velocity": 0.2283464566929134
        },
        {
          "duration": 0.054347826086956985,
          "durationTicks": 5,
          "midi": 61,
          "name": "C#4",
          "ticks": 2170,
          "time": 23.58695652173913,
          "velocity": 0.28346456692913385
        },
        {
          "duration": 0.07608695652173836,
          "durationTicks": 7,
          "midi": 70,
          "name": "A#4",
          "ticks": 2174,
          "time": 23.630434782608695,
          "velocity": 0.15748031496062992
        },
        {
          "duration": 0.03260869565217561,
          "durationTicks": 3,
          "midi": 60,
          "name": "C4",
          "ticks": 2175,
          "time": 23.641304347826086,
          "velocity": 0.16535433070866143
        },
        {
          "duration": 0.054347826086956985,
          "durationTicks": 5,
          "midi": 70,
          "name": "A#4",
          "ticks": 2182,
          "time": 23.717391304347824,
          "velocity": 0.10236220472440945
        },
        {
          "duration": 0.03260869565217206,
          "durationTicks": 3,
          "midi": 53,
          "name": "F3",
          "ticks": 2196,
          "time": 23.869565217391305,
          "velocity": 0.08661417322834646
        },
        {
          "duration": 0.054347826086956985,
          "durationTicks": 5,
          "midi": 66,
          "name": "F#4",
          "ticks": 2204,
          "time": 23.956521739130434,
          "velocity": 0.33070866141732286
        },
        {
          "duration": 0.021739130434784926,
          "durationTicks": 2,
          "midi": 73,
          "name": "C#5",
          "ticks": 2204,
          "time": 23.956521739130434,
          "velocity": 0.3779527559055118
        },
        {
          "duration": 0.0434782608695663,
          "durationTicks": 4,
          "midi": 81,
          "name": "A5",
          "ticks": 2204,
          "time": 23.956521739130434,
          "velocity": 0.25984251968503935
        },
        {
          "duration": 0.03260869565217561,
          "durationTicks": 3,
          "midi": 88,
          "name": "E6",
          "ticks": 2204,
          "time": 23.956521739130434,
          "velocity": 0.2283464566929134
        },
        {
          "duration": 0.0434782608695663,
          "durationTicks": 4,
          "midi": 90,
          "name": "F#6",
          "ticks": 2204,
          "time": 23.956521739130434,
          "velocity": 0.15748031496062992
        },
        {
          "duration": 0.03260869565217561,
          "durationTicks": 3,
          "midi": 77,
          "name": "F5",
          "ticks": 2205,
          "time": 23.967391304347824,
          "velocity": 0.3464566929133858
        },
        {
          "duration": 0.03260869565217561,
          "durationTicks": 3,
          "midi": 83,
          "name": "B5",
          "ticks": 2205,
          "time": 23.967391304347824,
          "velocity": 0.11811023622047244
        },
        {
          "duration": 0.021739130434781373,
          "durationTicks": 2,
          "midi": 70,
          "name": "A#4",
          "ticks": 2206,
          "time": 23.97826086956522,
          "velocity": 0.2440944881889764
        },
        {
          "duration": 0.021739130434781373,
          "durationTicks": 2,
          "midi": 74,
          "name": "D5",
          "ticks": 2206,
          "time": 23.97826086956522,
          "velocity": 0.25196850393700787
        },
        {
          "duration": 0.03260869565217561,
          "durationTicks": 3,
          "midi": 73,
          "name": "C#5",
          "ticks": 2208,
          "time": 24,
          "velocity": 0.1732283464566929
        },
        {
          "duration": 0.03260869565217561,
          "durationTicks": 3,
          "midi": 77,
          "name": "F5",
          "ticks": 2209,
          "time": 24.01086956521739,
          "velocity": 0.11023622047244094
        },
        {
          "duration": 0.03260869565217561,
          "durationTicks": 3,
          "midi": 53,
          "name": "F3",
          "ticks": 2210,
          "time": 24.02173913043478,
          "velocity": 0.08661417322834646
        },
        {
          "duration": 0.07608695652173836,
          "durationTicks": 7,
          "midi": 61,
          "name": "C#4",
          "ticks": 2211,
          "time": 24.032608695652176,
          "velocity": 0.2125984251968504
        },
        {
          "duration": 0.010869565217390686,
          "durationTicks": 1,
          "midi": 52,
          "name": "E3",
          "ticks": 2227,
          "time": 24.206521739130434,
          "velocity": 0.5275590551181102
        },
        {
          "duration": 0.01086956521739424,
          "durationTicks": 1,
          "midi": 49,
          "name": "C#3",
          "ticks": 2228,
          "time": 24.217391304347824,
          "velocity": 0.5826771653543307
        },
        {
          "duration": 0.021739130434784926,
          "durationTicks": 2,
          "midi": 67,
          "name": "G4",
          "ticks": 2228,
          "time": 24.217391304347824,
          "velocity": 0.29133858267716534
        },
        {
          "duration": 0.021739130434781373,
          "durationTicks": 2,
          "midi": 47,
          "name": "B2",
          "ticks": 2229,
          "time": 24.22826086956522,
          "velocity": 0.49606299212598426
        },
        {
          "duration": 0.06521739130434767,
          "durationTicks": 6,
          "midi": 61,
          "name": "C#4",
          "ticks": 2230,
          "time": 24.23913043478261,
          "velocity": 0.30708661417322836
        },
        {
          "duration": 0.0434782608695663,
          "durationTicks": 4,
          "midi": 74,
          "name": "D5",
          "ticks": 2230,
          "time": 24.23913043478261,
          "velocity": 0.18110236220472442
        },
        {
          "duration": 0.16304347826087096,
          "durationTicks": 15,
          "midi": 47,
          "name": "B2",
          "ticks": 2232,
          "time": 24.26086956521739,
          "velocity": 0.4566929133858268
        },
        {
          "duration": 0.021739130434784926,
          "durationTicks": 2,
          "midi": 54,
          "name": "F#3",
          "ticks": 2233,
          "time": 24.27173913043478,
          "velocity": 0.25984251968503935
        },
        {
          "duration": 0.09782608695652328,
          "durationTicks": 9,
          "midi": 68,
          "name": "G#4",
          "ticks": 2233,
          "time": 24.27173913043478,
          "velocity": 0.2047244094488189
        },
        {
          "duration": 0.07608695652173836,
          "durationTicks": 7,
          "midi": 54,
          "name": "F#3",
          "ticks": 2236,
          "time": 24.304347826086957,
          "velocity": 0.33070866141732286
        },
        {
          "duration": 0.021739130434781373,
          "durationTicks": 2,
          "midi": 60,
          "name": "C4",
          "ticks": 2237,
          "time": 24.315217391304348,
          "velocity": 0.25984251968503935
        },
        {
          "duration": 0.054347826086956985,
          "durationTicks": 5,
          "midi": 61,
          "name": "C#4",
          "ticks": 2239,
          "time": 24.33695652173913,
          "velocity": 0.18110236220472442
        },
        {
          "duration": 0.054347826086956985,
          "durationTicks": 5,
          "midi": 54,
          "name": "F#3",
          "ticks": 2245,
          "time": 24.402173913043477,
          "velocity": 0.25196850393700787
        },
        {
          "duration": 0.021739130434781373,
          "durationTicks": 2,
          "midi": 49,
          "name": "C#3",
          "ticks": 2252,
          "time": 24.47826086956522,
          "velocity": 0.5590551181102362
        },
        {
          "duration": 0.03260869565217206,
          "durationTicks": 3,
          "midi": 67,
          "name": "G4",
          "ticks": 2252,
          "time": 24.47826086956522,
          "velocity": 0.31496062992125984
        },
        {
          "duration": 0.18478260869565233,
          "durationTicks": 17,
          "midi": 47,
          "name": "B2",
          "ticks": 2254,
          "time": 24.5,
          "velocity": 0.4645669291338583
        },
        {
          "duration": 0.06521739130434767,
          "durationTicks": 6,
          "midi": 61,
          "name": "C#4",
          "ticks": 2254,
          "time": 24.5,
          "velocity": 0.36220472440944884
        },
        {
          "duration": 0.08695652173912904,
          "durationTicks": 8,
          "midi": 74,
          "name": "D5",
          "ticks": 2254,
          "time": 24.5,
          "velocity": 0.25196850393700787
        },
        {
          "duration": 0.14130434782608603,
          "durationTicks": 13,
          "midi": 68,
          "name": "G#4",
          "ticks": 2255,
          "time": 24.51086956521739,
          "velocity": 0.2440944881889764
        },
        {
          "duration": 0.054347826086956985,
          "durationTicks": 5,
          "midi": 54,
          "name": "F#3",
          "ticks": 2260,
          "time": 24.565217391304348,
          "velocity": 0.2755905511811024
        },
        {
          "duration": 0.021739130434784926,
          "durationTicks": 2,
          "midi": 60,
          "name": "C4",
          "ticks": 2261,
          "time": 24.57608695652174,
          "velocity": 0.29133858267716534
        },
        {
          "duration": 0.05434782608695343,
          "durationTicks": 5,
          "midi": 61,
          "name": "C#4",
          "ticks": 2263,
          "time": 24.597826086956523,
          "velocity": 0.25984251968503935
        },
        {
          "duration": 0.03260869565217561,
          "durationTicks": 3,
          "midi": 55,
          "name": "G3",
          "ticks": 2267,
          "time": 24.641304347826086,
          "velocity": 0.2440944881889764
        },
        {
          "duration": 0.03260869565217561,
          "durationTicks": 3,
          "midi": 70,
          "name": "A#4",
          "ticks": 2268,
          "time": 24.652173913043477,
          "velocity": 0.08661417322834646
        },
        {
          "duration": 0.03260869565217206,
          "durationTicks": 3,
          "midi": 54,
          "name": "F#3",
          "ticks": 2270,
          "time": 24.67391304347826,
          "velocity": 0.2047244094488189
        },
        {
          "duration": 0.03260869565217561,
          "durationTicks": 3,
          "midi": 61,
          "name": "C#4",
          "ticks": 2272,
          "time": 24.695652173913043,
          "velocity": 0.13385826771653545
        },
        {
          "duration": 0.0434782608695663,
          "durationTicks": 4,
          "midi": 70,
          "name": "A#4",
          "ticks": 2272,
          "time": 24.695652173913043,
          "velocity": 0.11023622047244094
        },
        {
          "duration": 0.03260869565217561,
          "durationTicks": 3,
          "midi": 60,
          "name": "C4",
          "ticks": 2277,
          "time": 24.75,
          "velocity": 0.1889763779527559
        },
        {
          "duration": 0.03260869565217561,
          "durationTicks": 3,
          "midi": 54,
          "name": "F#3",
          "ticks": 2279,
          "time": 24.77173913043478,
          "velocity": 0.1732283464566929
        },
        {
          "duration": 0.15217391304348027,
          "durationTicks": 14,
          "midi": 54,
          "name": "F#3",
          "ticks": 2284,
          "time": 24.82608695652174,
          "velocity": 0.14173228346456693
        },
        {
          "duration": 0.010869565217390686,
          "durationTicks": 1,
          "midi": 52,
          "name": "E3",
          "ticks": 2299,
          "time": 24.98913043478261,
          "velocity": 0.5433070866141733
        },
        {
          "duration": 0.021739130434781373,
          "durationTicks": 2,
          "midi": 56,
          "name": "G#3",
          "ticks": 2299,
          "time": 24.98913043478261,
          "velocity": 0.5275590551181102
        },
        {
          "duration": 0.03260869565217206,
          "durationTicks": 3,
          "midi": 81,
          "name": "A5",
          "ticks": 2299,
          "time": 24.98913043478261,
          "velocity": 0.15748031496062992
        },
        {
          "duration": 0.010869565217390686,
          "durationTicks": 1,
          "midi": 49,
          "name": "C#3",
          "ticks": 2300,
          "time": 25,
          "velocity": 0.5590551181102362
        },
        {
          "duration": 0.021739130434781373,
          "durationTicks": 2,
          "midi": 67,
          "name": "G4",
          "ticks": 2300,
          "time": 25,
          "velocity": 0.2755905511811024
        },
        {
          "duration": 0.16304347826087096,
          "durationTicks": 15,
          "midi": 47,
          "name": "B2",
          "ticks": 2301,
          "time": 25.01086956521739,
          "velocity": 0.4645669291338583
        },
        {
          "duration": 0.0869565217391326,
          "durationTicks": 8,
          "midi": 61,
          "name": "C#4",
          "ticks": 2301,
          "time": 25.01086956521739,
          "velocity": 0.3937007874015748
        },
        {
          "duration": 0.054347826086956985,
          "durationTicks": 5,
          "midi": 74,
          "name": "D5",
          "ticks": 2301,
          "time": 25.01086956521739,
          "velocity": 0.1968503937007874
        },
        {
          "duration": 0.03260869565217561,
          "durationTicks": 3,
          "midi": 68,
          "name": "G#4",
          "ticks": 2302,
          "time": 25.02173913043478,
          "velocity": 0.2125984251968504
        },
        {
          "duration": 0.021739130434781373,
          "durationTicks": 2,
          "midi": 70,
          "name": "A#4",
          "ticks": 2303,
          "time": 25.032608695652176,
          "velocity": 0.2283464566929134
        },
        {
          "duration": 0.021739130434781373,
          "durationTicks": 2,
          "midi": 54,
          "name": "F#3",
          "ticks": 2304,
          "time": 25.043478260869566,
          "velocity": 0.2677165354330709
        },
        {
          "duration": 0.03260869565217561,
          "durationTicks": 3,
          "midi": 55,
          "name": "G3",
          "ticks": 2306,
          "time": 25.065217391304348,
          "velocity": 0.09448818897637795
        },
        {
          "duration": 0.06521739130434767,
          "durationTicks": 6,
          "midi": 68,
          "name": "G#4",
          "ticks": 2308,
          "time": 25.08695652173913,
          "velocity": 0.2440944881889764
        },
        {
          "duration": 0.021739130434781373,
          "durationTicks": 2,
          "midi": 54,
          "name": "F#3",
          "ticks": 2310,
          "time": 25.108695652173914,
          "velocity": 0.31496062992125984
        },
        {
          "duration": 0.06521739130434767,
          "durationTicks": 6,
          "midi": 61,
          "name": "C#4",
          "ticks": 2310,
          "time": 25.108695652173914,
          "velocity": 0.30708661417322836
        },
        {
          "duration": 0.021739130434784926,
          "durationTicks": 2,
          "midi": 54,
          "name": "F#3",
          "ticks": 2313,
          "time": 25.141304347826086,
          "velocity": 0.2677165354330709
        },
        {
          "duration": 0.043478260869562746,
          "durationTicks": 4,
          "midi": 60,
          "name": "C4",
          "ticks": 2316,
          "time": 25.17391304347826,
          "velocity": 0.1732283464566929
        },
        {
          "duration": 0.021739130434784926,
          "durationTicks": 2,
          "midi": 54,
          "name": "F#3",
          "ticks": 2319,
          "time": 25.206521739130434,
          "velocity": 0.25196850393700787
        },
        {
          "duration": 0.07608695652174191,
          "durationTicks": 7,
          "midi": 70,
          "name": "A#4",
          "ticks": 2319,
          "time": 25.206521739130434,
          "velocity": 0.1732283464566929
        },
        {
          "duration": 0.043478260869562746,
          "durationTicks": 4,
          "midi": 53,
          "name": "F3",
          "ticks": 2321,
          "time": 25.22826086956522,
          "velocity": 0.1732283464566929
        },
        {
          "duration": 0.03260869565217561,
          "durationTicks": 3,
          "midi": 60,
          "name": "C4",
          "ticks": 2324,
          "time": 25.26086956521739,
          "velocity": 0.23622047244094488
        },
        {
          "duration": 0.021739130434784926,
          "durationTicks": 2,
          "midi": 54,
          "name": "F#3",
          "ticks": 2325,
          "time": 25.27173913043478,
          "velocity": 0.23622047244094488
        },
        {
          "duration": 0.03260869565217206,
          "durationTicks": 3,
          "midi": 54,
          "name": "F#3",
          "ticks": 2333,
          "time": 25.358695652173914,
          "velocity": 0.2125984251968504
        },
        {
          "duration": 0.03260869565217561,
          "durationTicks": 3,
          "midi": 60,
          "name": "C4",
          "ticks": 2335,
          "time": 25.380434782608695,
          "velocity": 0.10236220472440945
        },
        {
          "duration": 0.0434782608695663,
          "durationTicks": 4,
          "midi": 54,
          "name": "F#3",
          "ticks": 2341,
          "time": 25.445652173913043,
          "velocity": 0.18110236220472442
        },
        {
          "duration": 0.03260869565217206,
          "durationTicks": 3,
          "midi": 75,
          "name": "D#5",
          "ticks": 2345,
          "time": 25.48913043478261,
          "velocity": 0.2047244094488189
        },
        {
          "duration": 0.010869565217390686,
          "durationTicks": 1,
          "midi": 50,
          "name": "D3",
          "ticks": 2346,
          "time": 25.5,
          "velocity": 0.5669291338582677
        },
        {
          "duration": 0.021739130434781373,
          "durationTicks": 2,
          "midi": 56,
          "name": "G#3",
          "ticks": 2346,
          "time": 25.5,
          "velocity": 0.5275590551181102
        },
        {
          "duration": 0.03260869565217561,
          "durationTicks": 3,
          "midi": 81,
          "name": "A5",
          "ticks": 2346,
          "time": 25.5,
          "velocity": 0.18110236220472442
        },
        {
          "duration": 0.010869565217390686,
          "durationTicks": 1,
          "midi": 49,
          "name": "C#3",
          "ticks": 2347,
          "time": 25.51086956521739,
          "velocity": 0.5354330708661418
        },
        {
          "duration": 0.09782608695652328,
          "durationTicks": 9,
          "midi": 74,
          "name": "D5",
          "ticks": 2347,
          "time": 25.51086956521739,
          "velocity": 0.2440944881889764
        },
        {
          "duration": 0.16304347826087096,
          "durationTicks": 15,
          "midi": 47,
          "name": "B2",
          "ticks": 2348,
          "time": 25.52173913043478,
          "velocity": 0.44881889763779526
        },
        {
          "duration": 0.06521739130434767,
          "durationTicks": 6,
          "midi": 61,
          "name": "C#4",
          "ticks": 2348,
          "time": 25.52173913043478,
          "velocity": 0.3858267716535433
        },
        {
          "duration": 0.0434782608695663,
          "durationTicks": 4,
          "midi": 68,
          "name": "G#4",
          "ticks": 2348,
          "time": 25.52173913043478,
          "velocity": 0.25196850393700787
        },
        {
          "duration": 0.054347826086956985,
          "durationTicks": 5,
          "midi": 70,
          "name": "A#4",
          "ticks": 2352,
          "time": 25.565217391304348,
          "velocity": 0.2283464566929134
        },
        {
          "duration": 0.0869565217391326,
          "durationTicks": 8,
          "midi": 68,
          "name": "G#4",
          "ticks": 2353,
          "time": 25.57608695652174,
          "velocity": 0.25196850393700787
        },
        {
          "duration": 0.021739130434781373,
          "durationTicks": 2,
          "midi": 60,
          "name": "C4",
          "ticks": 2355,
          "time": 25.597826086956523,
          "velocity": 0.30708661417322836
        },
        {
          "duration": 0.021739130434781373,
          "durationTicks": 2,
          "midi": 54,
          "name": "F#3",
          "ticks": 2357,
          "time": 25.619565217391305,
          "velocity": 0.25196850393700787
        },
        {
          "duration": 0.054347826086956985,
          "durationTicks": 5,
          "midi": 61,
          "name": "C#4",
          "ticks": 2357,
          "time": 25.619565217391305,
          "velocity": 0.2992125984251969
        },
        {
          "duration": 0.054347826086956985,
          "durationTicks": 5,
          "midi": 70,
          "name": "A#4",
          "ticks": 2360,
          "time": 25.652173913043477,
          "velocity": 0.18110236220472442
        },
        {
          "duration": 0.03260869565217206,
          "durationTicks": 3,
          "midi": 55,
          "name": "G3",
          "ticks": 2361,
          "time": 25.66304347826087,
          "velocity": 0.14960629921259844
        },
        {
          "duration": 0.054347826086956985,
          "durationTicks": 5,
          "midi": 60,
          "name": "C4",
          "ticks": 2362,
          "time": 25.67391304347826,
          "velocity": 0.1732283464566929
        },
        {
          "duration": 0.07608695652174191,
          "durationTicks": 7,
          "midi": 70,
          "name": "A#4",
          "ticks": 2366,
          "time": 25.717391304347824,
          "velocity": 0.18110236220472442
        },
        {
          "duration": 0.03260869565217561,
          "durationTicks": 3,
          "midi": 60,
          "name": "C4",
          "ticks": 2371,
          "time": 25.77173913043478,
          "velocity": 0.2204724409448819
        },
        {
          "duration": 0.03260869565217206,
          "durationTicks": 3,
          "midi": 54,
          "name": "F#3",
          "ticks": 2373,
          "time": 25.793478260869566,
          "velocity": 0.1889763779527559
        },
        {
          "duration": 0.0434782608695663,
          "durationTicks": 4,
          "midi": 54,
          "name": "F#3",
          "ticks": 2380,
          "time": 25.869565217391305,
          "velocity": 0.13385826771653545
        },
        {
          "duration": 0.0434782608695663,
          "durationTicks": 4,
          "midi": 54,
          "name": "F#3",
          "ticks": 2387,
          "time": 25.945652173913043,
          "velocity": 0.10236220472440945
        },
        {
          "duration": 0.021739130434784926,
          "durationTicks": 2,
          "midi": 73,
          "name": "C#5",
          "ticks": 2393,
          "time": 26.01086956521739,
          "velocity": 0.33070866141732286
        },
        {
          "duration": 0.0434782608695663,
          "durationTicks": 4,
          "midi": 66,
          "name": "F#4",
          "ticks": 2394,
          "time": 26.02173913043478,
          "velocity": 0.31496062992125984
        },
        {
          "duration": 0.0434782608695663,
          "durationTicks": 4,
          "midi": 77,
          "name": "F5",
          "ticks": 2394,
          "time": 26.02173913043478,
          "velocity": 0.3700787401574803
        },
        {
          "duration": 0.03260869565217561,
          "durationTicks": 3,
          "midi": 81,
          "name": "A5",
          "ticks": 2394,
          "time": 26.02173913043478,
          "velocity": 0.23622047244094488
        },
        {
          "duration": 0.021739130434784926,
          "durationTicks": 2,
          "midi": 88,
          "name": "E6",
          "ticks": 2394,
          "time": 26.02173913043478,
          "velocity": 0.2283464566929134
        },
        {
          "duration": 0.03260869565217561,
          "durationTicks": 3,
          "midi": 92,
          "name": "G#6",
          "ticks": 2394,
          "time": 26.02173913043478,
          "velocity": 0.12598425196850394
        },
        {
          "duration": 0.021739130434781373,
          "durationTicks": 2,
          "midi": 72,
          "name": "C5",
          "ticks": 2395,
          "time": 26.032608695652176,
          "velocity": 0.2992125984251969
        },
        {
          "duration": 0.03260869565217206,
          "durationTicks": 3,
          "midi": 87,
          "name": "D#6",
          "ticks": 2395,
          "time": 26.032608695652176,
          "velocity": 0.14173228346456693
        },
        {
          "duration": 0.021739130434781373,
          "durationTicks": 2,
          "midi": 74,
          "name": "D5",
          "ticks": 2396,
          "time": 26.043478260869566,
          "velocity": 0.2283464566929134
        },
        {
          "duration": 0.11956521739130466,
          "durationTicks": 11,
          "midi": 61,
          "name": "C#4",
          "ticks": 2400,
          "time": 26.08695652173913,
          "velocity": 0.2440944881889764
        },
        {
          "duration": 0.03260869565217206,
          "durationTicks": 3,
          "midi": 70,
          "name": "A#4",
          "ticks": 2401,
          "time": 26.097826086956523,
          "velocity": 0.10236220472440945
        },
        {
          "duration": 0.01086956521739424,
          "durationTicks": 1,
          "midi": 50,
          "name": "D3",
          "ticks": 2417,
          "time": 26.27173913043478,
          "velocity": 0.5354330708661418
        },
        {
          "duration": 0.03260869565217561,
          "durationTicks": 3,
          "midi": 81,
          "name": "A5",
          "ticks": 2417,
          "time": 26.27173913043478,
          "velocity": 0.11023622047244094
        },
        {
          "duration": 0.010869565217390686,
          "durationTicks": 1,
          "midi": 49,
          "name": "C#3",
          "ticks": 2418,
          "time": 26.282608695652176,
          "velocity": 0.5590551181102362
        },
        {
          "duration": 0.021739130434781373,
          "durationTicks": 2,
          "midi": 67,
          "name": "G4",
          "ticks": 2418,
          "time": 26.282608695652176,
          "velocity": 0.29133858267716534
        },
        {
          "duration": 0.1630434782608674,
          "durationTicks": 15,
          "midi": 47,
          "name": "B2",
          "ticks": 2419,
          "time": 26.293478260869566,
          "velocity": 0.47244094488188976
        },
        {
          "duration": 0.07608695652173836,
          "durationTicks": 7,
          "midi": 61,
          "name": "C#4",
          "ticks": 2419,
          "time": 26.293478260869566,
          "velocity": 0.3700787401574803
        },
        {
          "duration": 0.08695652173912904,
          "durationTicks": 8,
          "midi": 74,
          "name": "D5",
          "ticks": 2419,
          "time": 26.293478260869566,
          "velocity": 0.2125984251968504
        },
        {
          "duration": 0.13043478260869534,
          "durationTicks": 12,
          "midi": 68,
          "name": "G#4",
          "ticks": 2420,
          "time": 26.304347826086957,
          "velocity": 0.2204724409448819
        },
        {
          "duration": 0.03260869565217206,
          "durationTicks": 3,
          "midi": 70,
          "name": "A#4",
          "ticks": 2420,
          "time": 26.304347826086957,
          "velocity": 0.1968503937007874
        },
        {
          "duration": 0.021739130434781373,
          "durationTicks": 2,
          "midi": 55,
          "name": "G3",
          "ticks": 2427,
          "time": 26.380434782608695,
          "velocity": 0.28346456692913385
        },
        {
          "duration": 0.054347826086956985,
          "durationTicks": 5,
          "midi": 61,
          "name": "C#4",
          "ticks": 2428,
          "time": 26.391304347826086,
          "velocity": 0.2677165354330709
        },
        {
          "duration": 0.021739130434781373,
          "durationTicks": 2,
          "midi": 54,
          "name": "F#3",
          "ticks": 2431,
          "time": 26.42391304347826,
          "velocity": 0.23622047244094488
        },
        {
          "duration": 0.03260869565217206,
          "durationTicks": 3,
          "midi": 60,
          "name": "C4",
          "ticks": 2436,
          "time": 26.47826086956522,
          "velocity": 0.1889763779527559
        },
        {
          "duration": 0.0434782608695663,
          "durationTicks": 4,
          "midi": 70,
          "name": "A#4",
          "ticks": 2437,
          "time": 26.48913043478261,
          "velocity": 0.2204724409448819
        },
        {
          "duration": 0.021739130434781373,
          "durationTicks": 2,
          "midi": 53,
          "name": "F3",
          "ticks": 2438,
          "time": 26.5,
          "velocity": 0.49606299212598426
        },
        {
          "duration": 0.01086956521739424,
          "durationTicks": 1,
          "midi": 49,
          "name": "C#3",
          "ticks": 2440,
          "time": 26.52173913043478,
          "velocity": 0.5669291338582677
        },
        {
          "duration": 0.021739130434784926,
          "durationTicks": 2,
          "midi": 60,
          "name": "C4",
          "ticks": 2440,
          "time": 26.52173913043478,
          "velocity": 0.4566929133858268
        },
        {
          "duration": 0.021739130434784926,
          "durationTicks": 2,
          "midi": 67,
          "name": "G4",
          "ticks": 2440,
          "time": 26.52173913043478,
          "velocity": 0.30708661417322836
        },
        {
          "duration": 0.021739130434781373,
          "durationTicks": 2,
          "midi": 47,
          "name": "B2",
          "ticks": 2441,
          "time": 26.532608695652176,
          "velocity": 0.49606299212598426
        },
        {
          "duration": 0.09782608695651973,
          "durationTicks": 9,
          "midi": 74,
          "name": "D5",
          "ticks": 2441,
          "time": 26.532608695652176,
          "velocity": 0.25984251968503935
        },
        {
          "duration": 0.06521739130434767,
          "durationTicks": 6,
          "midi": 61,
          "name": "C#4",
          "ticks": 2442,
          "time": 26.543478260869566,
          "velocity": 0.3543307086614173
        },
        {
          "duration": 0.14130434782608603,
          "durationTicks": 13,
          "midi": 68,
          "name": "G#4",
          "ticks": 2442,
          "time": 26.543478260869566,
          "velocity": 0.25984251968503935
        },
        {
          "duration": 0.16304347826087096,
          "durationTicks": 15,
          "midi": 47,
          "name": "B2",
          "ticks": 2444,
          "time": 26.565217391304348,
          "velocity": 0.44881889763779526
        },
        {
          "duration": 0.021739130434781373,
          "durationTicks": 2,
          "midi": 60,
          "name": "C4",
          "ticks": 2449,
          "time": 26.619565217391305,
          "velocity": 0.2755905511811024
        },
        {
          "duration": 0.054347826086956985,
          "durationTicks": 5,
          "midi": 61,
          "name": "C#4",
          "ticks": 2451,
          "time": 26.641304347826086,
          "velocity": 0.23622047244094488
        },
        {
          "duration": 0.07608695652173836,
          "durationTicks": 7,
          "midi": 70,
          "name": "A#4",
          "ticks": 2455,
          "time": 26.684782608695652,
          "velocity": 0.14173228346456693
        },
        {
          "duration": 0.021739130434781373,
          "durationTicks": 2,
          "midi": 56,
          "name": "G#3",
          "ticks": 2461,
          "time": 26.75,
          "velocity": 0.4881889763779528
        },
        {
          "duration": 0.03260869565217561,
          "durationTicks": 3,
          "midi": 81,
          "name": "A5",
          "ticks": 2461,
          "time": 26.75,
          "velocity": 0.14960629921259844
        },
        {
          "duration": 0.010869565217390686,
          "durationTicks": 1,
          "midi": 50,
          "name": "D3",
          "ticks": 2462,
          "time": 26.76086956521739,
          "velocity": 0.5590551181102362
        },
        {
          "duration": 0.021739130434784926,
          "durationTicks": 2,
          "midi": 47,
          "name": "B2",
          "ticks": 2463,
          "time": 26.77173913043478,
          "velocity": 0.49606299212598426
        },
        {
          "duration": 0.09782608695652328,
          "durationTicks": 9,
          "midi": 74,
          "name": "D5",
          "ticks": 2463,
          "time": 26.77173913043478,
          "velocity": 0.2283464566929134
        },
        {
          "duration": 0.06521739130434767,
          "durationTicks": 6,
          "midi": 61,
          "name": "C#4",
          "ticks": 2464,
          "time": 26.782608695652176,
          "velocity": 0.3779527559055118
        },
        {
          "duration": 0.14130434782608603,
          "durationTicks": 13,
          "midi": 68,
          "name": "G#4",
          "ticks": 2464,
          "time": 26.782608695652176,
          "velocity": 0.25196850393700787
        },
        {
          "duration": 0.1630434782608674,
          "durationTicks": 15,
          "midi": 47,
          "name": "B2",
          "ticks": 2466,
          "time": 26.804347826086957,
          "velocity": 0.44881889763779526
        },
        {
          "duration": 0.021739130434784926,
          "durationTicks": 2,
          "midi": 55,
          "name": "G3",
          "ticks": 2468,
          "time": 26.82608695652174,
          "velocity": 0.2283464566929134
        },
        {
          "duration": 0.03260869565217206,
          "durationTicks": 3,
          "midi": 70,
          "name": "A#4",
          "ticks": 2470,
          "time": 26.847826086956523,
          "velocity": 0.08661417322834646
        },
        {
          "duration": 0.021739130434781373,
          "durationTicks": 2,
          "midi": 55,
          "name": "G3",
          "ticks": 2472,
          "time": 26.869565217391305,
          "velocity": 0.2755905511811024
        },
        {
          "duration": 0.06521739130434767,
          "durationTicks": 6,
          "midi": 61,
          "name": "C#4",
          "ticks": 2472,
          "time": 26.869565217391305,
          "velocity": 0.28346456692913385
        },
        {
          "duration": 0.07608695652173836,
          "durationTicks": 7,
          "midi": 70,
          "name": "A#4",
          "ticks": 2476,
          "time": 26.91304347826087,
          "velocity": 0.14960629921259844
        },
        {
          "duration": 0.03260869565217206,
          "durationTicks": 3,
          "midi": 55,
          "name": "G3",
          "ticks": 2477,
          "time": 26.92391304347826,
          "velocity": 0.2047244094488189
        },
        {
          "duration": 0.03260869565217561,
          "durationTicks": 3,
          "midi": 54,
          "name": "F#3",
          "ticks": 2480,
          "time": 26.956521739130434,
          "velocity": 0.1732283464566929
        },
        {
          "duration": 0.010869565217390686,
          "durationTicks": 1,
          "midi": 50,
          "name": "D3",
          "ticks": 2484,
          "time": 27,
          "velocity": 0.5511811023622047
        },
        {
          "duration": 0.021739130434781373,
          "durationTicks": 2,
          "midi": 67,
          "name": "G4",
          "ticks": 2484,
          "time": 27,
          "velocity": 0.33070866141732286
        },
        {
          "duration": 0.03260869565217561,
          "durationTicks": 3,
          "midi": 78,
          "name": "F#5",
          "ticks": 2484,
          "time": 27,
          "velocity": 0.11023622047244094
        },
        {
          "duration": 0.010869565217390686,
          "durationTicks": 1,
          "midi": 49,
          "name": "C#3",
          "ticks": 2485,
          "time": 27.01086956521739,
          "velocity": 0.5275590551181102
        },
        {
          "duration": 0.09782608695652328,
          "durationTicks": 9,
          "midi": 74,
          "name": "D5",
          "ticks": 2485,
          "time": 27.01086956521739,
          "velocity": 0.2440944881889764
        },
        {
          "duration": 0.18478260869565233,
          "durationTicks": 17,
          "midi": 47,
          "name": "B2",
          "ticks": 2486,
          "time": 27.02173913043478,
          "velocity": 0.44881889763779526
        },
        {
          "duration": 0.06521739130434767,
          "durationTicks": 6,
          "midi": 61,
          "name": "C#4",
          "ticks": 2486,
          "time": 27.02173913043478,
          "velocity": 0.3543307086614173
        },
        {
          "duration": 0.14130434782608958,
          "durationTicks": 13,
          "midi": 68,
          "name": "G#4",
          "ticks": 2486,
          "time": 27.02173913043478,
          "velocity": 0.2677165354330709
        },
        {
          "duration": 0.021739130434781373,
          "durationTicks": 2,
          "midi": 60,
          "name": "C4",
          "ticks": 2493,
          "time": 27.097826086956523,
          "velocity": 0.30708661417322836
        },
        {
          "duration": 0.021739130434781373,
          "durationTicks": 2,
          "midi": 56,
          "name": "G#3",
          "ticks": 2494,
          "time": 27.108695652173914,
          "velocity": 0.2283464566929134
        },
        {
          "duration": 0.054347826086956985,
          "durationTicks": 5,
          "midi": 61,
          "name": "C#4",
          "ticks": 2495,
          "time": 27.119565217391305,
          "velocity": 0.2677165354330709
        },
        {
          "duration": 0.03260869565217206,
          "durationTicks": 3,
          "midi": 54,
          "name": "F#3",
          "ticks": 2499,
          "time": 27.16304347826087,
          "velocity": 0.2047244094488189
        },
        {
          "duration": 0.043478260869562746,
          "durationTicks": 4,
          "midi": 60,
          "name": "C4",
          "ticks": 2500,
          "time": 27.17391304347826,
          "velocity": 0.18110236220472442
        },
        {
          "duration": 0.03260869565217206,
          "durationTicks": 3,
          "midi": 70,
          "name": "A#4",
          "ticks": 2500,
          "time": 27.17391304347826,
          "velocity": 0.11023622047244094
        },
        {
          "duration": 0.021739130434781373,
          "durationTicks": 2,
          "midi": 58,
          "name": "A#3",
          "ticks": 2505,
          "time": 27.22826086956522,
          "velocity": 0.44881889763779526
        },
        {
          "duration": 0.03260869565217206,
          "durationTicks": 3,
          "midi": 81,
          "name": "A5",
          "ticks": 2506,
          "time": 27.23913043478261,
          "velocity": 0.15748031496062992
        },
        {
          "duration": 0.010869565217390686,
          "durationTicks": 1,
          "midi": 49,
          "name": "C#3",
          "ticks": 2507,
          "time": 27.25,
          "velocity": 0.5433070866141733
        },
        {
          "duration": 0.03260869565217561,
          "durationTicks": 3,
          "midi": 68,
          "name": "G#4",
          "ticks": 2507,
          "time": 27.25,
          "velocity": 0.28346456692913385
        },
        {
          "duration": 0.09782608695652328,
          "durationTicks": 9,
          "midi": 74,
          "name": "D5",
          "ticks": 2507,
          "time": 27.25,
          "velocity": 0.1968503937007874
        },
        {
          "duration": 0.19565217391304301,
          "durationTicks": 18,
          "midi": 47,
          "name": "B2",
          "ticks": 2508,
          "time": 27.26086956521739,
          "velocity": 0.47244094488188976
        },
        {
          "duration": 0.07608695652173836,
          "durationTicks": 7,
          "midi": 61,
          "name": "C#4",
          "ticks": 2508,
          "time": 27.26086956521739,
          "velocity": 0.4015748031496063
        },
        {
          "duration": 0.054347826086956985,
          "durationTicks": 5,
          "midi": 70,
          "name": "A#4",
          "ticks": 2509,
          "time": 27.27173913043478,
          "velocity": 0.25196850393700787
        },
        {
          "duration": 0.08695652173912904,
          "durationTicks": 8,
          "midi": 68,
          "name": "G#4",
          "ticks": 2513,
          "time": 27.315217391304348,
          "velocity": 0.2125984251968504
        },
        {
          "duration": 0.03260869565217206,
          "durationTicks": 3,
          "midi": 60,
          "name": "C4",
          "ticks": 2516,
          "time": 27.347826086956523,
          "velocity": 0.25984251968503935
        },
        {
          "duration": 0.0434782608695663,
          "durationTicks": 4,
          "midi": 61,
          "name": "C#4",
          "ticks": 2518,
          "time": 27.369565217391305,
          "velocity": 0.2047244094488189
        },
        {
          "duration": 0.06521739130434767,
          "durationTicks": 6,
          "midi": 70,
          "name": "A#4",
          "ticks": 2524,
          "time": 27.434782608695652,
          "velocity": 0.13385826771653545
        },
        {
          "duration": 0.021739130434781373,
          "durationTicks": 2,
          "midi": 58,
          "name": "A#3",
          "ticks": 2529,
          "time": 27.48913043478261,
          "velocity": 0.5118110236220472
        },
        {
          "duration": 0.010869565217390686,
          "durationTicks": 1,
          "midi": 50,
          "name": "D3",
          "ticks": 2530,
          "time": 27.5,
          "velocity": 0.5354330708661418
        },
        {
          "duration": 0.03260869565217561,
          "durationTicks": 3,
          "midi": 67,
          "name": "G4",
          "ticks": 2530,
          "time": 27.5,
          "velocity": 0.31496062992125984
        },
        {
          "duration": 0.03260869565217561,
          "durationTicks": 3,
          "midi": 81,
          "name": "A5",
          "ticks": 2530,
          "time": 27.5,
          "velocity": 0.07874015748031496
        },
        {
          "duration": 0.010869565217390686,
          "durationTicks": 1,
          "midi": 49,
          "name": "C#3",
          "ticks": 2531,
          "time": 27.51086956521739,
          "velocity": 0.5354330708661418
        },
        {
          "duration": 0.09782608695652328,
          "durationTicks": 9,
          "midi": 74,
          "name": "D5",
          "ticks": 2531,
          "time": 27.51086956521739,
          "velocity": 0.2440944881889764
        },
        {
          "duration": 0.19565217391304301,
          "durationTicks": 18,
          "midi": 47,
          "name": "B2",
          "ticks": 2532,
          "time": 27.52173913043478,
          "velocity": 0.44881889763779526
        },
        {
          "duration": 0.07608695652174191,
          "durationTicks": 7,
          "midi": 61,
          "name": "C#4",
          "ticks": 2532,
          "time": 27.52173913043478,
          "velocity": 0.4015748031496063
        },
        {
          "duration": 0.13043478260869534,
          "durationTicks": 12,
          "midi": 68,
          "name": "G#4",
          "ticks": 2533,
          "time": 27.532608695652176,
          "velocity": 0.25984251968503935
        },
        {
          "duration": 0.03260869565217206,
          "durationTicks": 3,
          "midi": 55,
          "name": "G3",
          "ticks": 2535,
          "time": 27.554347826086957,
          "velocity": 0.16535433070866143
        },
        {
          "duration": 0.03260869565217561,
          "durationTicks": 3,
          "midi": 54,
          "name": "F#3",
          "ticks": 2538,
          "time": 27.58695652173913,
          "velocity": 0.2204724409448819
        },
        {
          "duration": 0.021739130434781373,
          "durationTicks": 2,
          "midi": 60,
          "name": "C4",
          "ticks": 2539,
          "time": 27.597826086956523,
          "velocity": 0.31496062992125984
        },
        {
          "duration": 0.07608695652173836,
          "durationTicks": 7,
          "midi": 61,
          "name": "C#4",
          "ticks": 2541,
          "time": 27.619565217391305,
          "velocity": 0.28346456692913385
        },
        {
          "duration": 0.17391304347826164,
          "durationTicks": 16,
          "midi": 70,
          "name": "A#4",
          "ticks": 2544,
          "time": 27.652173913043477,
          "velocity": 0.14960629921259844
        },
        {
          "duration": 0.03260869565217561,
          "durationTicks": 3,
          "midi": 61,
          "name": "C#4",
          "ticks": 2550,
          "time": 27.717391304347824,
          "velocity": 0.10236220472440945
        },
        {
          "duration": 0.0434782608695663,
          "durationTicks": 4,
          "midi": 77,
          "name": "F5",
          "ticks": 2577,
          "time": 28.01086956521739,
          "velocity": 0.2755905511811024
        },
        {
          "duration": 0.03260869565217561,
          "durationTicks": 3,
          "midi": 66,
          "name": "F#4",
          "ticks": 2578,
          "time": 28.02173913043478,
          "velocity": 0.2204724409448819
        },
        {
          "duration": 0.03260869565217561,
          "durationTicks": 3,
          "midi": 75,
          "name": "D#5",
          "ticks": 2578,
          "time": 28.02173913043478,
          "velocity": 0.11023622047244094
        },
        {
          "duration": 0.010869565217390686,
          "durationTicks": 1,
          "midi": 50,
          "name": "D3",
          "ticks": 2600,
          "time": 28.26086956521739,
          "velocity": 0.5275590551181102
        },
        {
          "duration": 0.06521739130434767,
          "durationTicks": 6,
          "midi": 70,
          "name": "A#4",
          "ticks": 2600,
          "time": 28.26086956521739,
          "velocity": 0.2125984251968504
        },
        {
          "duration": 0.03260869565217561,
          "durationTicks": 3,
          "midi": 81,
          "name": "A5",
          "ticks": 2600,
          "time": 28.26086956521739,
          "velocity": 0.14173228346456693
        },
        {
          "duration": 0.01086956521739424,
          "durationTicks": 1,
          "midi": 49,
          "name": "C#3",
          "ticks": 2601,
          "time": 28.27173913043478,
          "velocity": 0.5354330708661418
        },
        {
          "duration": 0.16304347826087096,
          "durationTicks": 15,
          "midi": 68,
          "name": "G#4",
          "ticks": 2601,
          "time": 28.27173913043478,
          "velocity": 0.30708661417322836
        },
        {
          "duration": 0.09782608695652328,
          "durationTicks": 9,
          "midi": 74,
          "name": "D5",
          "ticks": 2601,
          "time": 28.27173913043478,
          "velocity": 0.23622047244094488
        },
        {
          "duration": 0.18478260869564878,
          "durationTicks": 17,
          "midi": 47,
          "name": "B2",
          "ticks": 2602,
          "time": 28.282608695652176,
          "velocity": 0.44881889763779526
        },
        {
          "duration": 0.06521739130434767,
          "durationTicks": 6,
          "midi": 61,
          "name": "C#4",
          "ticks": 2602,
          "time": 28.282608695652176,
          "velocity": 0.3700787401574803
        },
        {
          "duration": 0.06521739130434767,
          "durationTicks": 6,
          "midi": 61,
          "name": "C#4",
          "ticks": 2611,
          "time": 28.380434782608695,
          "velocity": 0.23622047244094488
        },
        {
          "duration": 0.043478260869562746,
          "durationTicks": 4,
          "midi": 70,
          "name": "A#4",
          "ticks": 2620,
          "time": 28.47826086956522,
          "velocity": 0.12598425196850394
        },
        {
          "duration": 0.021739130434784926,
          "durationTicks": 2,
          "midi": 58,
          "name": "A#3",
          "ticks": 2623,
          "time": 28.51086956521739,
          "velocity": 0.4881889763779528
        },
        {
          "duration": 0.021739130434784926,
          "durationTicks": 2,
          "midi": 71,
          "name": "B4",
          "ticks": 2624,
          "time": 28.52173913043478,
          "velocity": 0.25196850393700787
        },
        {
          "duration": 0.03260869565217561,
          "durationTicks": 3,
          "midi": 81,
          "name": "A5",
          "ticks": 2624,
          "time": 28.52173913043478,
          "velocity": 0.14960629921259844
        },
        {
          "duration": 0.010869565217390686,
          "durationTicks": 1,
          "midi": 49,
          "name": "C#3",
          "ticks": 2625,
          "time": 28.532608695652176,
          "velocity": 0.5433070866141733
        },
        {
          "duration": 0.03260869565217206,
          "durationTicks": 3,
          "midi": 66,
          "name": "F#4",
          "ticks": 2625,
          "time": 28.532608695652176,
          "velocity": 0.25196850393700787
        },
        {
          "duration": 0.021739130434781373,
          "durationTicks": 2,
          "midi": 47,
          "name": "B2",
          "ticks": 2626,
          "time": 28.543478260869566,
          "velocity": 0.47244094488188976
        },
        {
          "duration": 0.07608695652173836,
          "durationTicks": 7,
          "midi": 61,
          "name": "C#4",
          "ticks": 2626,
          "time": 28.543478260869566,
          "velocity": 0.4251968503937008
        },
        {
          "duration": 0.03260869565217206,
          "durationTicks": 3,
          "midi": 74,
          "name": "D5",
          "ticks": 2627,
          "time": 28.554347826086957,
          "velocity": 0.13385826771653545
        },
        {
          "duration": 0.0434782608695663,
          "durationTicks": 4,
          "midi": 54,
          "name": "F#3",
          "ticks": 2628,
          "time": 28.565217391304348,
          "velocity": 0.31496062992125984
        },
        {
          "duration": 0.07608695652173836,
          "durationTicks": 7,
          "midi": 70,
          "name": "A#4",
          "ticks": 2628,
          "time": 28.565217391304348,
          "velocity": 0.23622047244094488
        },
        {
          "duration": 0.15217391304348027,
          "durationTicks": 14,
          "midi": 47,
          "name": "B2",
          "ticks": 2629,
          "time": 28.57608695652174,
          "velocity": 0.44881889763779526
        },
        {
          "duration": 0.021739130434784926,
          "durationTicks": 2,
          "midi": 54,
          "name": "F#3",
          "ticks": 2635,
          "time": 28.641304347826086,
          "velocity": 0.33858267716535434
        },
        {
          "duration": 0.06521739130434767,
          "durationTicks": 6,
          "midi": 61,
          "name": "C#4",
          "ticks": 2635,
          "time": 28.641304347826086,
          "velocity": 0.29133858267716534
        },
        {
          "duration": 0.03260869565217561,
          "durationTicks": 3,
          "midi": 68,
          "name": "G#4",
          "ticks": 2635,
          "time": 28.641304347826086,
          "velocity": 0.13385826771653545
        },
        {
          "duration": 0.021739130434781373,
          "durationTicks": 2,
          "midi": 54,
          "name": "F#3",
          "ticks": 2638,
          "time": 28.67391304347826,
          "velocity": 0.2677165354330709
        },
        {
          "duration": 0.03260869565217561,
          "durationTicks": 3,
          "midi": 70,
          "name": "A#4",
          "ticks": 2640,
          "time": 28.695652173913043,
          "velocity": 0.12598425196850394
        },
        {
          "duration": 0.021739130434781373,
          "durationTicks": 2,
          "midi": 53,
          "name": "F3",
          "ticks": 2643,
          "time": 28.72826086956522,
          "velocity": 0.25984251968503935
        },
        {
          "duration": 0.0434782608695663,
          "durationTicks": 4,
          "midi": 53,
          "name": "F3",
          "ticks": 2646,
          "time": 28.76086956521739,
          "velocity": 0.18110236220472442
        },
        {
          "duration": 0.0434782608695663,
          "durationTicks": 4,
          "midi": 70,
          "name": "A#4",
          "ticks": 2647,
          "time": 28.77173913043478,
          "velocity": 0.07874015748031496
        },
        {
          "duration": 0.05434782608695343,
          "durationTicks": 5,
          "midi": 53,
          "name": "F3",
          "ticks": 2654,
          "time": 28.847826086956523,
          "velocity": 0.18110236220472442
        },
        {
          "duration": 0.054347826086956985,
          "durationTicks": 5,
          "midi": 53,
          "name": "F3",
          "ticks": 2661,
          "time": 28.92391304347826,
          "velocity": 0.14173228346456693
        },
        {
          "duration": 0.10869565217391397,
          "durationTicks": 10,
          "midi": 53,
          "name": "F3",
          "ticks": 2667,
          "time": 28.98913043478261,
          "velocity": 0.15748031496062992
        },
        {
          "duration": 0.021739130434781373,
          "durationTicks": 2,
          "midi": 73,
          "name": "C#5",
          "ticks": 2672,
          "time": 29.043478260869566,
          "velocity": 0.30708661417322836
        },
        {
          "duration": 0.06521739130434767,
          "durationTicks": 6,
          "midi": 66,
          "name": "F#4",
          "ticks": 2673,
          "time": 29.054347826086957,
          "velocity": 0.28346456692913385
        },
        {
          "duration": 0.0434782608695663,
          "durationTicks": 4,
          "midi": 77,
          "name": "F5",
          "ticks": 2673,
          "time": 29.054347826086957,
          "velocity": 0.2992125984251969
        },
        {
          "duration": 0.021739130434781373,
          "durationTicks": 2,
          "midi": 72,
          "name": "C5",
          "ticks": 2674,
          "time": 29.065217391304348,
          "velocity": 0.2992125984251969
        },
        {
          "duration": 0.0434782608695663,
          "durationTicks": 4,
          "midi": 61,
          "name": "C#4",
          "ticks": 2679,
          "time": 29.119565217391305,
          "velocity": 0.15748031496062992
        },
        {
          "duration": 0.0434782608695663,
          "durationTicks": 4,
          "midi": 53,
          "name": "F3",
          "ticks": 2680,
          "time": 29.130434782608695,
          "velocity": 0.11023622047244094
        },
        {
          "duration": 0.021739130434781373,
          "durationTicks": 2,
          "midi": 53,
          "name": "F3",
          "ticks": 2690,
          "time": 29.23913043478261,
          "velocity": 0.47244094488188976
        },
        {
          "duration": 0.021739130434781373,
          "durationTicks": 2,
          "midi": 68,
          "name": "G#4",
          "ticks": 2691,
          "time": 29.25,
          "velocity": 0.23622047244094488
        },
        {
          "duration": 0.03260869565217561,
          "durationTicks": 3,
          "midi": 78,
          "name": "F#5",
          "ticks": 2691,
          "time": 29.25,
          "velocity": 0.1732283464566929
        },
        {
          "duration": 0.010869565217390686,
          "durationTicks": 1,
          "midi": 49,
          "name": "C#3",
          "ticks": 2692,
          "time": 29.26086956521739,
          "velocity": 0.5669291338582677
        },
        {
          "duration": 0.19565217391304301,
          "durationTicks": 18,
          "midi": 47,
          "name": "B2",
          "ticks": 2693,
          "time": 29.27173913043478,
          "velocity": 0.5039370078740157
        },
        {
          "duration": 0.07608695652174191,
          "durationTicks": 7,
          "midi": 61,
          "name": "C#4",
          "ticks": 2693,
          "time": 29.27173913043478,
          "velocity": 0.3779527559055118
        },
        {
          "duration": 0.07608695652174191,
          "durationTicks": 7,
          "midi": 74,
          "name": "D5",
          "ticks": 2693,
          "time": 29.27173913043478,
          "velocity": 0.2125984251968504
        },
        {
          "duration": 0.13043478260869534,
          "durationTicks": 12,
          "midi": 68,
          "name": "G#4",
          "ticks": 2694,
          "time": 29.282608695652176,
          "velocity": 0.2125984251968504
        },
        {
          "duration": 0.0434782608695663,
          "durationTicks": 4,
          "midi": 54,
          "name": "F#3",
          "ticks": 2703,
          "time": 29.380434782608695,
          "velocity": 0.2125984251968504
        },
        {
          "duration": 0.054347826086956985,
          "durationTicks": 5,
          "midi": 61,
          "name": "C#4",
          "ticks": 2703,
          "time": 29.380434782608695,
          "velocity": 0.18110236220472442
        },
        {
          "duration": 0.054347826086956985,
          "durationTicks": 5,
          "midi": 54,
          "name": "F#3",
          "ticks": 2709,
          "time": 29.445652173913043,
          "velocity": 0.14960629921259844
        },
        {
          "duration": 0.021739130434784926,
          "durationTicks": 2,
          "midi": 52,
          "name": "E3",
          "ticks": 2716,
          "time": 29.52173913043478,
          "velocity": 0.47244094488188976
        },
        {
          "duration": 0.021739130434781373,
          "durationTicks": 2,
          "midi": 71,
          "name": "B4",
          "ticks": 2717,
          "time": 29.532608695652176,
          "velocity": 0.25984251968503935
        },
        {
          "duration": 0.043478260869562746,
          "durationTicks": 4,
          "midi": 81,
          "name": "A5",
          "ticks": 2717,
          "time": 29.532608695652176,
          "velocity": 0.1889763779527559
        },
        {
          "duration": 0.010869565217390686,
          "durationTicks": 1,
          "midi": 49,
          "name": "C#3",
          "ticks": 2718,
          "time": 29.543478260869566,
          "velocity": 0.5511811023622047
        },
        {
          "duration": 0.021739130434781373,
          "durationTicks": 2,
          "midi": 60,
          "name": "C4",
          "ticks": 2718,
          "time": 29.543478260869566,
          "velocity": 0.48031496062992124
        },
        {
          "duration": 0.021739130434781373,
          "durationTicks": 2,
          "midi": 47,
          "name": "B2",
          "ticks": 2719,
          "time": 29.554347826086957,
          "velocity": 0.48031496062992124
        },
        {
          "duration": 0.09782608695651973,
          "durationTicks": 9,
          "midi": 70,
          "name": "A#4",
          "ticks": 2719,
          "time": 29.554347826086957,
          "velocity": 0.2755905511811024
        },
        {
          "duration": 0.06521739130434767,
          "durationTicks": 6,
          "midi": 61,
          "name": "C#4",
          "ticks": 2720,
          "time": 29.565217391304348,
          "velocity": 0.3700787401574803
        },
        {
          "duration": 0.03260869565217561,
          "durationTicks": 3,
          "midi": 74,
          "name": "D5",
          "ticks": 2720,
          "time": 29.565217391304348,
          "velocity": 0.14960629921259844
        },
        {
          "duration": 0.15217391304348027,
          "durationTicks": 14,
          "midi": 47,
          "name": "B2",
          "ticks": 2722,
          "time": 29.58695652173913,
          "velocity": 0.4409448818897638
        },
        {
          "duration": 0.021739130434781373,
          "durationTicks": 2,
          "midi": 54,
          "name": "F#3",
          "ticks": 2723,
          "time": 29.597826086956523,
          "velocity": 0.2755905511811024
        },
        {
          "duration": 0.021739130434784926,
          "durationTicks": 2,
          "midi": 60,
          "name": "C4",
          "ticks": 2727,
          "time": 29.641304347826086,
          "velocity": 0.2992125984251969
        },
        {
          "duration": 0.021739130434784926,
          "durationTicks": 2,
          "midi": 54,
          "name": "F#3",
          "ticks": 2728,
          "time": 29.652173913043477,
          "velocity": 0.3228346456692913
        },
        {
          "duration": 0.0434782608695663,
          "durationTicks": 4,
          "midi": 68,
          "name": "G#4",
          "ticks": 2728,
          "time": 29.652173913043477,
          "velocity": 0.1968503937007874
        },
        {
          "duration": 0.05434782608695343,
          "durationTicks": 5,
          "midi": 61,
          "name": "C#4",
          "ticks": 2729,
          "time": 29.66304347826087,
          "velocity": 0.2440944881889764
        },
        {
          "duration": 0.021739130434781373,
          "durationTicks": 2,
          "midi": 54,
          "name": "F#3",
          "ticks": 2731,
          "time": 29.684782608695652,
          "velocity": 0.2992125984251969
        },
        {
          "duration": 0.07608695652173836,
          "durationTicks": 7,
          "midi": 70,
          "name": "A#4",
          "ticks": 2732,
          "time": 29.695652173913043,
          "velocity": 0.15748031496062992
        },
        {
          "duration": 0.0434782608695663,
          "durationTicks": 4,
          "midi": 60,
          "name": "C4",
          "ticks": 2734,
          "time": 29.717391304347824,
          "velocity": 0.12598425196850394
        },
        {
          "duration": 0.03260869565217561,
          "durationTicks": 3,
          "midi": 54,
          "name": "F#3",
          "ticks": 2737,
          "time": 29.75,
          "velocity": 0.2755905511811024
        },
        {
          "duration": 0.021739130434781373,
          "durationTicks": 2,
          "midi": 54,
          "name": "F#3",
          "ticks": 2743,
          "time": 29.815217391304348,
          "velocity": 0.23622047244094488
        },
        {
          "duration": 0.021739130434781373,
          "durationTicks": 2,
          "midi": 54,
          "name": "F#3",
          "ticks": 2746,
          "time": 29.847826086956523,
          "velocity": 0.25984251968503935
        },
        {
          "duration": 0.043478260869562746,
          "durationTicks": 4,
          "midi": 54,
          "name": "F#3",
          "ticks": 2752,
          "time": 29.91304347826087,
          "velocity": 0.2204724409448819
        },
        {
          "duration": 0.054347826086956985,
          "durationTicks": 5,
          "midi": 54,
          "name": "F#3",
          "ticks": 2758,
          "time": 29.97826086956522,
          "velocity": 0.1889763779527559
        },
        {
          "duration": 0.06521739130434767,
          "durationTicks": 6,
          "midi": 66,
          "name": "F#4",
          "ticks": 2762,
          "time": 30.02173913043478,
          "velocity": 0.30708661417322836
        },
        {
          "duration": 0.021739130434784926,
          "durationTicks": 2,
          "midi": 73,
          "name": "C#5",
          "ticks": 2762,
          "time": 30.02173913043478,
          "velocity": 0.3464566929133858
        },
        {
          "duration": 0.0434782608695663,
          "durationTicks": 4,
          "midi": 81,
          "name": "A5",
          "ticks": 2762,
          "time": 30.02173913043478,
          "velocity": 0.23622047244094488
        },
        {
          "duration": 0.03260869565217561,
          "durationTicks": 3,
          "midi": 90,
          "name": "F#6",
          "ticks": 2762,
          "time": 30.02173913043478,
          "velocity": 0.14960629921259844
        },
        {
          "duration": 0.03260869565217206,
          "durationTicks": 3,
          "midi": 63,
          "name": "D#4",
          "ticks": 2763,
          "time": 30.032608695652176,
          "velocity": 0.18110236220472442
        },
        {
          "duration": 0.03260869565217206,
          "durationTicks": 3,
          "midi": 77,
          "name": "F5",
          "ticks": 2763,
          "time": 30.032608695652176,
          "velocity": 0.3228346456692913
        },
        {
          "duration": 0.043478260869562746,
          "durationTicks": 4,
          "midi": 79,
          "name": "G5",
          "ticks": 2763,
          "time": 30.032608695652176,
          "velocity": 0.07086614173228346
        },
        {
          "duration": 0.03260869565217206,
          "durationTicks": 3,
          "midi": 83,
          "name": "B5",
          "ticks": 2763,
          "time": 30.032608695652176,
          "velocity": 0.12598425196850394
        },
        {
          "duration": 0.06521739130434767,
          "durationTicks": 6,
          "midi": 73,
          "name": "C#5",
          "ticks": 2766,
          "time": 30.065217391304348,
          "velocity": 0.16535433070866143
        },
        {
          "duration": 0.0434782608695663,
          "durationTicks": 4,
          "midi": 54,
          "name": "F#3",
          "ticks": 2767,
          "time": 30.07608695652174,
          "velocity": 0.15748031496062992
        },
        {
          "duration": 0.03260869565217561,
          "durationTicks": 3,
          "midi": 67,
          "name": "G4",
          "ticks": 2768,
          "time": 30.08695652173913,
          "velocity": 0.09448818897637795
        },
        {
          "duration": 0.043478260869562746,
          "durationTicks": 4,
          "midi": 61,
          "name": "C#4",
          "ticks": 2769,
          "time": 30.097826086956523,
          "velocity": 0.1889763779527559
        },
        {
          "duration": 0.03260869565217206,
          "durationTicks": 3,
          "midi": 61,
          "name": "C#4",
          "ticks": 2776,
          "time": 30.17391304347826,
          "velocity": 0.07086614173228346
        },
        {
          "duration": 0.01086956521739424,
          "durationTicks": 1,
          "midi": 50,
          "name": "D3",
          "ticks": 2785,
          "time": 30.27173913043478,
          "velocity": 0.5433070866141733
        },
        {
          "duration": 0.010869565217390686,
          "durationTicks": 1,
          "midi": 49,
          "name": "C#3",
          "ticks": 2786,
          "time": 30.282608695652176,
          "velocity": 0.5590551181102362
        },
        {
          "duration": 0.021739130434781373,
          "durationTicks": 2,
          "midi": 67,
          "name": "G4",
          "ticks": 2786,
          "time": 30.282608695652176,
          "velocity": 0.31496062992125984
        },
        {
          "duration": 0.1630434782608674,
          "durationTicks": 15,
          "midi": 47,
          "name": "B2",
          "ticks": 2787,
          "time": 30.293478260869566,
          "velocity": 0.47244094488188976
        },
        {
          "duration": 0.07608695652173836,
          "durationTicks": 7,
          "midi": 61,
          "name": "C#4",
          "ticks": 2787,
          "time": 30.293478260869566,
          "velocity": 0.36220472440944884
        },
        {
          "duration": 0.07608695652173836,
          "durationTicks": 7,
          "midi": 74,
          "name": "D5",
          "ticks": 2787,
          "time": 30.293478260869566,
          "velocity": 0.2283464566929134
        },
        {
          "duration": 0.13043478260869534,
          "durationTicks": 12,
          "midi": 68,
          "name": "G#4",
          "ticks": 2788,
          "time": 30.304347826086957,
          "velocity": 0.23622047244094488
        },
        {
          "duration": 0.03260869565217206,
          "durationTicks": 3,
          "midi": 70,
          "name": "A#4",
          "ticks": 2788,
          "time": 30.304347826086957,
          "velocity": 0.16535433070866143
        },
        {
          "duration": 0.03260869565217561,
          "durationTicks": 3,
          "midi": 55,
          "name": "G3",
          "ticks": 2790,
          "time": 30.32608695652174,
          "velocity": 0.2283464566929134
        },
        {
          "duration": 0.03260869565217206,
          "durationTicks": 3,
          "midi": 54,
          "name": "F#3",
          "ticks": 2793,
          "time": 30.358695652173914,
          "velocity": 0.2283464566929134
        },
        {
          "duration": 0.021739130434781373,
          "durationTicks": 2,
          "midi": 60,
          "name": "C4",
          "ticks": 2794,
          "time": 30.369565217391305,
          "velocity": 0.2677165354330709
        },
        {
          "duration": 0.021739130434784926,
          "durationTicks": 2,
          "midi": 55,
          "name": "G3",
          "ticks": 2796,
          "time": 30.391304347826086,
          "velocity": 0.25196850393700787
        },
        {
          "duration": 0.054347826086956985,
          "durationTicks": 5,
          "midi": 61,
          "name": "C#4",
          "ticks": 2796,
          "time": 30.391304347826086,
          "velocity": 0.2440944881889764
        },
        {
          "duration": 0.054347826086956985,
          "durationTicks": 5,
          "midi": 54,
          "name": "F#3",
          "ticks": 2803,
          "time": 30.467391304347824,
          "velocity": 0.11023622047244094
        },
        {
          "duration": 0.03260869565217206,
          "durationTicks": 3,
          "midi": 61,
          "name": "C#4",
          "ticks": 2805,
          "time": 30.48913043478261,
          "velocity": 0.10236220472440945
        },
        {
          "duration": 0.03260869565217561,
          "durationTicks": 3,
          "midi": 70,
          "name": "A#4",
          "ticks": 2806,
          "time": 30.5,
          "velocity": 0.14960629921259844
        },
        {
          "duration": 0.021739130434784926,
          "durationTicks": 2,
          "midi": 52,
          "name": "E3",
          "ticks": 2807,
          "time": 30.51086956521739,
          "velocity": 0.4566929133858268
        },
        {
          "duration": 0.010869565217390686,
          "durationTicks": 1,
          "midi": 50,
          "name": "D3",
          "ticks": 2809,
          "time": 30.532608695652176,
          "velocity": 0.5748031496062992
        },
        {
          "duration": 0.18478260869565233,
          "durationTicks": 17,
          "midi": 47,
          "name": "B2",
          "ticks": 2810,
          "time": 30.543478260869566,
          "velocity": 0.5196850393700787
        },
        {
          "duration": 0.07608695652173836,
          "durationTicks": 7,
          "midi": 61,
          "name": "C#4",
          "ticks": 2810,
          "time": 30.543478260869566,
          "velocity": 0.3858267716535433
        },
        {
          "duration": 0.021739130434781373,
          "durationTicks": 2,
          "midi": 66,
          "name": "F#4",
          "ticks": 2811,
          "time": 30.554347826086957,
          "velocity": 0.25984251968503935
        },
        {
          "duration": 0.021739130434781373,
          "durationTicks": 2,
          "midi": 68,
          "name": "G#4",
          "ticks": 2811,
          "time": 30.554347826086957,
          "velocity": 0.2283464566929134
        },
        {
          "duration": 0.07608695652173836,
          "durationTicks": 7,
          "midi": 74,
          "name": "D5",
          "ticks": 2811,
          "time": 30.554347826086957,
          "velocity": 0.23622047244094488
        },
        {
          "duration": 0.021739130434784926,
          "durationTicks": 2,
          "midi": 68,
          "name": "G#4",
          "ticks": 2814,
          "time": 30.58695652173913,
          "velocity": 0.23622047244094488
        },
        {
          "duration": 0.021739130434781373,
          "durationTicks": 2,
          "midi": 55,
          "name": "G3",
          "ticks": 2815,
          "time": 30.597826086956523,
          "velocity": 0.2440944881889764
        },
        {
          "duration": 0.021739130434781373,
          "durationTicks": 2,
          "midi": 54,
          "name": "F#3",
          "ticks": 2817,
          "time": 30.619565217391305,
          "velocity": 0.2677165354330709
        },
        {
          "duration": 0.06521739130434767,
          "durationTicks": 6,
          "midi": 68,
          "name": "G#4",
          "ticks": 2817,
          "time": 30.619565217391305,
          "velocity": 0.2204724409448819
        },
        {
          "duration": 0.021739130434781373,
          "durationTicks": 2,
          "midi": 60,
          "name": "C4",
          "ticks": 2818,
          "time": 30.630434782608695,
          "velocity": 0.25984251968503935
        },
        {
          "duration": 0.0434782608695663,
          "durationTicks": 4,
          "midi": 54,
          "name": "F#3",
          "ticks": 2820,
          "time": 30.652173913043477,
          "velocity": 0.28346456692913385
        },
        {
          "duration": 0.054347826086956985,
          "durationTicks": 5,
          "midi": 61,
          "name": "C#4",
          "ticks": 2820,
          "time": 30.652173913043477,
          "velocity": 0.2204724409448819
        },
        {
          "duration": 0.03260869565217561,
          "durationTicks": 3,
          "midi": 55,
          "name": "G3",
          "ticks": 2824,
          "time": 30.695652173913043,
          "velocity": 0.23622047244094488
        },
        {
          "duration": 0.0434782608695663,
          "durationTicks": 4,
          "midi": 60,
          "name": "C4",
          "ticks": 2825,
          "time": 30.706521739130434,
          "velocity": 0.14960629921259844
        },
        {
          "duration": 0.06521739130434767,
          "durationTicks": 6,
          "midi": 54,
          "name": "F#3",
          "ticks": 2827,
          "time": 30.72826086956522,
          "velocity": 0.2125984251968504
        },
        {
          "duration": 0.0434782608695663,
          "durationTicks": 4,
          "midi": 54,
          "name": "F#3",
          "ticks": 2835,
          "time": 30.815217391304348,
          "velocity": 0.1968503937007874
        },
        {
          "duration": 0.07608695652173836,
          "durationTicks": 7,
          "midi": 54,
          "name": "F#3",
          "ticks": 2841,
          "time": 30.880434782608695,
          "velocity": 0.14960629921259844
        },
        {
          "duration": 0.054347826086956985,
          "durationTicks": 5,
          "midi": 54,
          "name": "F#3",
          "ticks": 2849,
          "time": 30.967391304347824,
          "velocity": 0.12598425196850394
        },
        {
          "duration": 0.03260869565217561,
          "durationTicks": 3,
          "midi": 78,
          "name": "F#5",
          "ticks": 2854,
          "time": 31.02173913043478,
          "velocity": 0.1968503937007874
        },
        {
          "duration": 0.010869565217390686,
          "durationTicks": 1,
          "midi": 50,
          "name": "D3",
          "ticks": 2855,
          "time": 31.032608695652176,
          "velocity": 0.5748031496062992
        },
        {
          "duration": 0.010869565217390686,
          "durationTicks": 1,
          "midi": 49,
          "name": "C#3",
          "ticks": 2856,
          "time": 31.043478260869566,
          "velocity": 0.5196850393700787
        },
        {
          "duration": 0.18478260869565233,
          "durationTicks": 17,
          "midi": 47,
          "name": "B2",
          "ticks": 2857,
          "time": 31.054347826086957,
          "velocity": 0.44881889763779526
        },
        {
          "duration": 0.06521739130434767,
          "durationTicks": 6,
          "midi": 61,
          "name": "C#4",
          "ticks": 2857,
          "time": 31.054347826086957,
          "velocity": 0.36220472440944884
        },
        {
          "duration": 0.14130434782608603,
          "durationTicks": 13,
          "midi": 68,
          "name": "G#4",
          "ticks": 2857,
          "time": 31.054347826086957,
          "velocity": 0.23622047244094488
        },
        {
          "duration": 0.07608695652173836,
          "durationTicks": 7,
          "midi": 74,
          "name": "D5",
          "ticks": 2857,
          "time": 31.054347826086957,
          "velocity": 0.2125984251968504
        },
        {
          "duration": 0.021739130434781373,
          "durationTicks": 2,
          "midi": 55,
          "name": "G3",
          "ticks": 2861,
          "time": 31.097826086956523,
          "velocity": 0.23622047244094488
        },
        {
          "duration": 0.021739130434781373,
          "durationTicks": 2,
          "midi": 54,
          "name": "F#3",
          "ticks": 2863,
          "time": 31.119565217391305,
          "velocity": 0.2440944881889764
        },
        {
          "duration": 0.021739130434781373,
          "durationTicks": 2,
          "midi": 60,
          "name": "C4",
          "ticks": 2864,
          "time": 31.130434782608695,
          "velocity": 0.2755905511811024
        },
        {
          "duration": 0.0434782608695663,
          "durationTicks": 4,
          "midi": 54,
          "name": "F#3",
          "ticks": 2866,
          "time": 31.152173913043477,
          "velocity": 0.2755905511811024
        },
        {
          "duration": 0.054347826086956985,
          "durationTicks": 5,
          "midi": 61,
          "name": "C#4",
          "ticks": 2866,
          "time": 31.152173913043477,
          "velocity": 0.2440944881889764
        },
        {
          "duration": 0.03260869565217561,
          "durationTicks": 3,
          "midi": 55,
          "name": "G3",
          "ticks": 2870,
          "time": 31.195652173913043,
          "velocity": 0.2125984251968504
        },
        {
          "duration": 0.0434782608695663,
          "durationTicks": 4,
          "midi": 60,
          "name": "C4",
          "ticks": 2871,
          "time": 31.206521739130434,
          "velocity": 0.12598425196850394
        },
        {
          "duration": 0.054347826086956985,
          "durationTicks": 5,
          "midi": 54,
          "name": "F#3",
          "ticks": 2873,
          "time": 31.22826086956522,
          "velocity": 0.1968503937007874
        },
        {
          "duration": 0.03260869565217561,
          "durationTicks": 3,
          "midi": 61,
          "name": "C#4",
          "ticks": 2875,
          "time": 31.25,
          "velocity": 0.09448818897637795
        },
        {
          "duration": 0.0434782608695663,
          "durationTicks": 4,
          "midi": 54,
          "name": "F#3",
          "ticks": 2882,
          "time": 31.32608695652174,
          "velocity": 0.18110236220472442
        },
        {
          "duration": 0.06521739130434767,
          "durationTicks": 6,
          "midi": 54,
          "name": "F#3",
          "ticks": 2888,
          "time": 31.391304347826086,
          "velocity": 0.14173228346456693
        },
        {
          "duration": 0.054347826086956985,
          "durationTicks": 5,
          "midi": 54,
          "name": "F#3",
          "ticks": 2895,
          "time": 31.467391304347824,
          "velocity": 0.11023622047244094
        },
        {
          "duration": 0.03260869565217561,
          "durationTicks": 3,
          "midi": 75,
          "name": "D#5",
          "ticks": 2900,
          "time": 31.52173913043478,
          "velocity": 0.15748031496062992
        },
        {
          "duration": 0.03260869565217561,
          "durationTicks": 3,
          "midi": 88,
          "name": "E6",
          "ticks": 2900,
          "time": 31.52173913043478,
          "velocity": 0.12598425196850394
        },
        {
          "duration": 0.010869565217390686,
          "durationTicks": 1,
          "midi": 50,
          "name": "D3",
          "ticks": 2901,
          "time": 31.532608695652176,
          "velocity": 0.5826771653543307
        },
        {
          "duration": 0.010869565217390686,
          "durationTicks": 1,
          "midi": 58,
          "name": "A#3",
          "ticks": 2901,
          "time": 31.532608695652176,
          "velocity": 0.5275590551181102
        },
        {
          "duration": 0.010869565217390686,
          "durationTicks": 1,
          "midi": 49,
          "name": "C#3",
          "ticks": 2902,
          "time": 31.543478260869566,
          "velocity": 0.5433070866141733
        },
        {
          "duration": 0.1630434782608674,
          "durationTicks": 15,
          "midi": 47,
          "name": "B2",
          "ticks": 2903,
          "time": 31.554347826086957,
          "velocity": 0.4566929133858268
        },
        {
          "duration": 0.06521739130434767,
          "durationTicks": 6,
          "midi": 61,
          "name": "C#4",
          "ticks": 2903,
          "time": 31.554347826086957,
          "velocity": 0.3779527559055118
        },
        {
          "duration": 0.021739130434781373,
          "durationTicks": 2,
          "midi": 66,
          "name": "F#4",
          "ticks": 2903,
          "time": 31.554347826086957,
          "velocity": 0.28346456692913385
        },
        {
          "duration": 0.0434782608695663,
          "durationTicks": 4,
          "midi": 74,
          "name": "D5",
          "ticks": 2903,
          "time": 31.554347826086957,
          "velocity": 0.2047244094488189
        },
        {
          "duration": 0.021739130434784926,
          "durationTicks": 2,
          "midi": 67,
          "name": "G4",
          "ticks": 2905,
          "time": 31.57608695652174,
          "velocity": 0.25196850393700787
        },
        {
          "duration": 0.021739130434784926,
          "durationTicks": 2,
          "midi": 54,
          "name": "F#3",
          "ticks": 2906,
          "time": 31.58695652173913,
          "velocity": 0.30708661417322836
        },
        {
          "duration": 0.021739130434781373,
          "durationTicks": 2,
          "midi": 54,
          "name": "F#3",
          "ticks": 2909,
          "time": 31.619565217391305,
          "velocity": 0.28346456692913385
        },
        {
          "duration": 0.06521739130434767,
          "durationTicks": 6,
          "midi": 68,
          "name": "G#4",
          "ticks": 2909,
          "time": 31.619565217391305,
          "velocity": 0.2125984251968504
        },
        {
          "duration": 0.021739130434781373,
          "durationTicks": 2,
          "midi": 60,
          "name": "C4",
          "ticks": 2910,
          "time": 31.630434782608695,
          "velocity": 0.2992125984251969
        },
        {
          "duration": 0.054347826086956985,
          "durationTicks": 5,
          "midi": 54,
          "name": "F#3",
          "ticks": 2912,
          "time": 31.652173913043477,
          "velocity": 0.33858267716535434
        },
        {
          "duration": 0.054347826086956985,
          "durationTicks": 5,
          "midi": 61,
          "name": "C#4",
          "ticks": 2912,
          "time": 31.652173913043477,
          "velocity": 0.25196850393700787
        },
        {
          "duration": 0.06521739130434767,
          "durationTicks": 6,
          "midi": 54,
          "name": "F#3",
          "ticks": 2919,
          "time": 31.72826086956522,
          "velocity": 0.2677165354330709
        },
        {
          "duration": 0.03260869565217561,
          "durationTicks": 3,
          "midi": 61,
          "name": "C#4",
          "ticks": 2921,
          "time": 31.75,
          "velocity": 0.10236220472440945
        },
        {
          "duration": 0.054347826086956985,
          "durationTicks": 5,
          "midi": 54,
          "name": "F#3",
          "ticks": 2927,
          "time": 31.815217391304348,
          "velocity": 0.25196850393700787
        },
        {
          "duration": 0.06521739130434767,
          "durationTicks": 6,
          "midi": 54,
          "name": "F#3",
          "ticks": 2934,
          "time": 31.891304347826086,
          "velocity": 0.2204724409448819
        },
        {
          "duration": 0.0760869565217348,
          "durationTicks": 7,
          "midi": 54,
          "name": "F#3",
          "ticks": 2942,
          "time": 31.97826086956522,
          "velocity": 0.4881889763779528
        },
        {
          "duration": 0.032608695652179165,
          "durationTicks": 3,
          "midi": 78,
          "name": "F#5",
          "ticks": 2948,
          "time": 32.04347826086956,
          "velocity": 0.2047244094488189
        },
        {
          "duration": 0.010869565217397792,
          "durationTicks": 1,
          "midi": 49,
          "name": "C#3",
          "ticks": 2949,
          "time": 32.05434782608695,
          "velocity": 0.5826771653543307
        },
        {
          "duration": 0.010869565217397792,
          "durationTicks": 1,
          "midi": 56,
          "name": "G#3",
          "ticks": 2949,
          "time": 32.05434782608695,
          "velocity": 0.5196850393700787
        },
        {
          "duration": 0.021739130434781373,
          "durationTicks": 2,
          "midi": 47,
          "name": "B2",
          "ticks": 2950,
          "time": 32.06521739130435,
          "velocity": 0.5118110236220472
        },
        {
          "duration": 0.06521739130434412,
          "durationTicks": 6,
          "midi": 61,
          "name": "C#4",
          "ticks": 2951,
          "time": 32.07608695652174,
          "velocity": 0.3779527559055118
        },
        {
          "duration": 0.021739130434781373,
          "durationTicks": 2,
          "midi": 66,
          "name": "F#4",
          "ticks": 2951,
          "time": 32.07608695652174,
          "velocity": 0.2440944881889764
        },
        {
          "duration": 0.021739130434781373,
          "durationTicks": 2,
          "midi": 68,
          "name": "G#4",
          "ticks": 2951,
          "time": 32.07608695652174,
          "velocity": 0.2283464566929134
        },
        {
          "duration": 0.0760869565217348,
          "durationTicks": 7,
          "midi": 74,
          "name": "D5",
          "ticks": 2951,
          "time": 32.07608695652174,
          "velocity": 0.2125984251968504
        },
        {
          "duration": 0.1630434782608674,
          "durationTicks": 15,
          "midi": 47,
          "name": "B2",
          "ticks": 2953,
          "time": 32.09782608695652,
          "velocity": 0.4409448818897638
        },
        {
          "duration": 0.021739130434781373,
          "durationTicks": 2,
          "midi": 68,
          "name": "G#4",
          "ticks": 2954,
          "time": 32.108695652173914,
          "velocity": 0.2283464566929134
        },
        {
          "duration": 0.03260869565217206,
          "durationTicks": 3,
          "midi": 54,
          "name": "F#3",
          "ticks": 2956,
          "time": 32.130434782608695,
          "velocity": 0.28346456692913385
        },
        {
          "duration": 0.06521739130435122,
          "durationTicks": 6,
          "midi": 68,
          "name": "G#4",
          "ticks": 2957,
          "time": 32.141304347826086,
          "velocity": 0.2125984251968504
        },
        {
          "duration": 0.03260869565217206,
          "durationTicks": 3,
          "midi": 70,
          "name": "A#4",
          "ticks": 2957,
          "time": 32.141304347826086,
          "velocity": 0.11023622047244094
        },
        {
          "duration": 0.021739130434781373,
          "durationTicks": 2,
          "midi": 60,
          "name": "C4",
          "ticks": 2958,
          "time": 32.15217391304348,
          "velocity": 0.2992125984251969
        },
        {
          "duration": 0.021739130434781373,
          "durationTicks": 2,
          "midi": 55,
          "name": "G3",
          "ticks": 2959,
          "time": 32.16304347826087,
          "velocity": 0.29133858267716534
        },
        {
          "duration": 0.05434782608696054,
          "durationTicks": 5,
          "midi": 61,
          "name": "C#4",
          "ticks": 2960,
          "time": 32.17391304347826,
          "velocity": 0.25196850393700787
        },
        {
          "duration": 0.0869565217391326,
          "durationTicks": 8,
          "midi": 54,
          "name": "F#3",
          "ticks": 2961,
          "time": 32.18478260869565,
          "velocity": 0.25984251968503935
        },
        {
          "duration": 0.07608695652174191,
          "durationTicks": 7,
          "midi": 70,
          "name": "A#4",
          "ticks": 2966,
          "time": 32.23913043478261,
          "velocity": 0.09448818897637795
        },
        {
          "duration": 0.04347826086956985,
          "durationTicks": 4,
          "midi": 54,
          "name": "F#3",
          "ticks": 2971,
          "time": 32.29347826086956,
          "velocity": 0.1968503937007874
        },
        {
          "duration": 0.0760869565217348,
          "durationTicks": 7,
          "midi": 54,
          "name": "F#3",
          "ticks": 2976,
          "time": 32.34782608695652,
          "velocity": 0.18110236220472442
        },
        {
          "duration": 0.10869565217391397,
          "durationTicks": 10,
          "midi": 54,
          "name": "F#3",
          "ticks": 2984,
          "time": 32.43478260869565,
          "velocity": 0.12598425196850394
        },
        {
          "duration": 0.010869565217397792,
          "durationTicks": 1,
          "midi": 50,
          "name": "D3",
          "ticks": 2995,
          "time": 32.55434782608695,
          "velocity": 0.5590551181102362
        },
        {
          "duration": 0.02173913043478848,
          "durationTicks": 2,
          "midi": 56,
          "name": "G#3",
          "ticks": 2995,
          "time": 32.55434782608695,
          "velocity": 0.5354330708661418
        },
        {
          "duration": 0.04347826086956985,
          "durationTicks": 4,
          "midi": 66,
          "name": "F#4",
          "ticks": 2995,
          "time": 32.55434782608695,
          "velocity": 0.3228346456692913
        },
        {
          "duration": 0.010869565217390686,
          "durationTicks": 1,
          "midi": 49,
          "name": "C#3",
          "ticks": 2996,
          "time": 32.56521739130435,
          "velocity": 0.5511811023622047
        },
        {
          "duration": 0.1630434782608674,
          "durationTicks": 15,
          "midi": 47,
          "name": "B2",
          "ticks": 2997,
          "time": 32.57608695652174,
          "velocity": 0.44881889763779526
        },
        {
          "duration": 0.08695652173912549,
          "durationTicks": 8,
          "midi": 61,
          "name": "C#4",
          "ticks": 2997,
          "time": 32.57608695652174,
          "velocity": 0.4094488188976378
        },
        {
          "duration": 0.05434782608695343,
          "durationTicks": 5,
          "midi": 74,
          "name": "D5",
          "ticks": 2997,
          "time": 32.57608695652174,
          "velocity": 0.2125984251968504
        },
        {
          "duration": 0.03260869565217206,
          "durationTicks": 3,
          "midi": 54,
          "name": "F#3",
          "ticks": 2999,
          "time": 32.59782608695652,
          "velocity": 0.31496062992125984
        },
        {
          "duration": 0.021739130434781373,
          "durationTicks": 2,
          "midi": 67,
          "name": "G4",
          "ticks": 2999,
          "time": 32.59782608695652,
          "velocity": 0.2440944881889764
        },
        {
          "duration": 0.021739130434781373,
          "durationTicks": 2,
          "midi": 70,
          "name": "A#4",
          "ticks": 2999,
          "time": 32.59782608695652,
          "velocity": 0.2283464566929134
        },
        {
          "duration": 0.021739130434781373,
          "durationTicks": 2,
          "midi": 67,
          "name": "G4",
          "ticks": 3002,
          "time": 32.630434782608695,
          "velocity": 0.23622047244094488
        },
        {
          "duration": 0.043478260869562746,
          "durationTicks": 4,
          "midi": 70,
          "name": "A#4",
          "ticks": 3002,
          "time": 32.630434782608695,
          "velocity": 0.2047244094488189
        },
        {
          "duration": 0.021739130434781373,
          "durationTicks": 2,
          "midi": 54,
          "name": "F#3",
          "ticks": 3003,
          "time": 32.641304347826086,
          "velocity": 0.2440944881889764
        },
        {
          "duration": 0.02173913043478848,
          "durationTicks": 2,
          "midi": 54,
          "name": "F#3",
          "ticks": 3006,
          "time": 32.67391304347826,
          "velocity": 0.3543307086614173
        },
        {
          "duration": 0.05434782608696054,
          "durationTicks": 5,
          "midi": 61,
          "name": "C#4",
          "ticks": 3006,
          "time": 32.67391304347826,
          "velocity": 0.30708661417322836
        },
        {
          "duration": 0.04347826086956985,
          "durationTicks": 4,
          "midi": 68,
          "name": "G#4",
          "ticks": 3006,
          "time": 32.67391304347826,
          "velocity": 0.23622047244094488
        },
        {
          "duration": 0.021739130434781373,
          "durationTicks": 2,
          "midi": 54,
          "name": "F#3",
          "ticks": 3009,
          "time": 32.70652173913044,
          "velocity": 0.30708661417322836
        },
        {
          "duration": 0.07608695652174191,
          "durationTicks": 7,
          "midi": 54,
          "name": "F#3",
          "ticks": 3013,
          "time": 32.75,
          "velocity": 0.4645669291338583
        },
        {
          "duration": 0.05434782608696054,
          "durationTicks": 5,
          "midi": 70,
          "name": "A#4",
          "ticks": 3015,
          "time": 32.77173913043478,
          "velocity": 0.12598425196850394
        },
        {
          "duration": 0.010869565217390686,
          "durationTicks": 1,
          "midi": 49,
          "name": "C#3",
          "ticks": 3020,
          "time": 32.82608695652174,
          "velocity": 0.5433070866141733
        },
        {
          "duration": 0.0760869565217348,
          "durationTicks": 7,
          "midi": 47,
          "name": "B2",
          "ticks": 3021,
          "time": 32.83695652173913,
          "velocity": 0.47244094488188976
        },
        {
          "duration": 0.05434782608695343,
          "durationTicks": 5,
          "midi": 61,
          "name": "C#4",
          "ticks": 3021,
          "time": 32.83695652173913,
          "velocity": 0.3858267716535433
        },
        {
          "duration": 0.11956521739130466,
          "durationTicks": 11,
          "midi": 74,
          "name": "D5",
          "ticks": 3021,
          "time": 32.83695652173913,
          "velocity": 0.23622047244094488
        },
        {
          "duration": 0.03260869565217206,
          "durationTicks": 3,
          "midi": 68,
          "name": "G#4",
          "ticks": 3022,
          "time": 32.84782608695652,
          "velocity": 0.2440944881889764
        },
        {
          "duration": 0.05434782608695343,
          "durationTicks": 5,
          "midi": 70,
          "name": "A#4",
          "ticks": 3024,
          "time": 32.869565217391305,
          "velocity": 0.2125984251968504
        },
        {
          "duration": 0.021739130434781373,
          "durationTicks": 2,
          "midi": 55,
          "name": "G3",
          "ticks": 3026,
          "time": 32.891304347826086,
          "velocity": 0.2992125984251969
        },
        {
          "duration": 0.043478260869562746,
          "durationTicks": 4,
          "midi": 60,
          "name": "C4",
          "ticks": 3026,
          "time": 32.891304347826086,
          "velocity": 0.3937007874015748
        },
        {
          "duration": 0.06521739130435122,
          "durationTicks": 6,
          "midi": 78,
          "name": "F#5",
          "ticks": 3028,
          "time": 32.91304347826087,
          "velocity": 0.11023622047244094
        },
        {
          "duration": 0.02173913043478848,
          "durationTicks": 2,
          "midi": 52,
          "name": "E3",
          "ticks": 3029,
          "time": 32.92391304347826,
          "velocity": 0.44881889763779526
        },
        {
          "duration": 0.06521739130435122,
          "durationTicks": 6,
          "midi": 68,
          "name": "G#4",
          "ticks": 3029,
          "time": 32.92391304347826,
          "velocity": 0.2677165354330709
        },
        {
          "duration": 0.06521739130435122,
          "durationTicks": 6,
          "midi": 61,
          "name": "C#4",
          "ticks": 3030,
          "time": 32.93478260869565,
          "velocity": 0.3779527559055118
        },
        {
          "duration": 0.10869565217391397,
          "durationTicks": 10,
          "midi": 47,
          "name": "B2",
          "ticks": 3033,
          "time": 32.96739130434783,
          "velocity": 0.4015748031496063
        },
        {
          "duration": 0.021739130434781373,
          "durationTicks": 2,
          "midi": 55,
          "name": "G3",
          "ticks": 3033,
          "time": 32.96739130434783,
          "velocity": 0.2677165354330709
        },
        {
          "duration": 0.043478260869562746,
          "durationTicks": 4,
          "midi": 54,
          "name": "F#3",
          "ticks": 3035,
          "time": 32.98913043478261,
          "velocity": 0.30708661417322836
        },
        {
          "duration": 0.03260869565217206,
          "durationTicks": 3,
          "midi": 68,
          "name": "G#4",
          "ticks": 3037,
          "time": 33.01086956521739,
          "velocity": 0.12598425196850394
        },
        {
          "duration": 0.021739130434781373,
          "durationTicks": 2,
          "midi": 55,
          "name": "G3",
          "ticks": 3039,
          "time": 33.03260869565217,
          "velocity": 0.2755905511811024
        },
        {
          "duration": 0.032608695652179165,
          "durationTicks": 3,
          "midi": 61,
          "name": "C#4",
          "ticks": 3039,
          "time": 33.03260869565217,
          "velocity": 0.16535433070866143
        },
        {
          "duration": 0.06521739130435122,
          "durationTicks": 6,
          "midi": 66,
          "name": "F#4",
          "ticks": 3040,
          "time": 33.04347826086956,
          "velocity": 0.18110236220472442
        },
        {
          "duration": 0.02173913043478848,
          "durationTicks": 2,
          "midi": 54,
          "name": "F#3",
          "ticks": 3041,
          "time": 33.05434782608695,
          "velocity": 0.3700787401574803
        },
        {
          "duration": 0.0760869565217348,
          "durationTicks": 7,
          "midi": 61,
          "name": "C#4",
          "ticks": 3043,
          "time": 33.07608695652174,
          "velocity": 0.33070866141732286
        },
        {
          "duration": 0.021739130434781373,
          "durationTicks": 2,
          "midi": 47,
          "name": "B2",
          "ticks": 3044,
          "time": 33.08695652173913,
          "velocity": 0.4015748031496063
        },
        {
          "duration": 0.08695652173912549,
          "durationTicks": 8,
          "midi": 70,
          "name": "A#4",
          "ticks": 3045,
          "time": 33.09782608695652,
          "velocity": 0.15748031496062992
        },
        {
          "duration": 0.13043478260869534,
          "durationTicks": 12,
          "midi": 47,
          "name": "B2",
          "ticks": 3047,
          "time": 33.119565217391305,
          "velocity": 0.36220472440944884
        },
        {
          "duration": 0.05434782608695343,
          "durationTicks": 5,
          "midi": 53,
          "name": "F3",
          "ticks": 3057,
          "time": 33.22826086956522,
          "velocity": 0.12598425196850394
        },
        {
          "duration": 0.021739130434781373,
          "durationTicks": 2,
          "midi": 53,
          "name": "F3",
          "ticks": 3067,
          "time": 33.33695652173913,
          "velocity": 0.41732283464566927
        },
        {
          "duration": 0.010869565217390686,
          "durationTicks": 1,
          "midi": 50,
          "name": "D3",
          "ticks": 3069,
          "time": 33.358695652173914,
          "velocity": 0.5511811023622047
        },
        {
          "duration": 0.021739130434781373,
          "durationTicks": 2,
          "midi": 68,
          "name": "G#4",
          "ticks": 3069,
          "time": 33.358695652173914,
          "velocity": 0.28346456692913385
        },
        {
          "duration": 0.010869565217390686,
          "durationTicks": 1,
          "midi": 49,
          "name": "C#3",
          "ticks": 3070,
          "time": 33.369565217391305,
          "velocity": 0.5354330708661418
        },
        {
          "duration": 0.1630434782608674,
          "durationTicks": 15,
          "midi": 47,
          "name": "B2",
          "ticks": 3071,
          "time": 33.380434782608695,
          "velocity": 0.4566929133858268
        },
        {
          "duration": 0.0869565217391326,
          "durationTicks": 8,
          "midi": 74,
          "name": "D5",
          "ticks": 3071,
          "time": 33.380434782608695,
          "velocity": 0.2440944881889764
        },
        {
          "duration": 0.13043478260869534,
          "durationTicks": 12,
          "midi": 68,
          "name": "G#4",
          "ticks": 3072,
          "time": 33.391304347826086,
          "velocity": 0.2283464566929134
        },
        {
          "duration": 0.021739130434781373,
          "durationTicks": 2,
          "midi": 54,
          "name": "F#3",
          "ticks": 3074,
          "time": 33.41304347826087,
          "velocity": 0.2677165354330709
        },
        {
          "duration": 0.05434782608695343,
          "durationTicks": 5,
          "midi": 54,
          "name": "F#3",
          "ticks": 3077,
          "time": 33.44565217391305,
          "velocity": 0.25984251968503935
        },
        {
          "duration": 0.021739130434781373,
          "durationTicks": 2,
          "midi": 60,
          "name": "C4",
          "ticks": 3078,
          "time": 33.45652173913044,
          "velocity": 0.25196850393700787
        },
        {
          "duration": 0.05434782608695343,
          "durationTicks": 5,
          "midi": 61,
          "name": "C#4",
          "ticks": 3080,
          "time": 33.47826086956522,
          "velocity": 0.2204724409448819
        },
        {
          "duration": 0.03260869565217206,
          "durationTicks": 3,
          "midi": 55,
          "name": "G3",
          "ticks": 3084,
          "time": 33.52173913043478,
          "velocity": 0.1732283464566929
        },
        {
          "duration": 0.021739130434781373,
          "durationTicks": 2,
          "midi": 50,
          "name": "D3",
          "ticks": 3089,
          "time": 33.57608695652174,
          "velocity": 0.5039370078740157
        },
        {
          "duration": 0.021739130434781373,
          "durationTicks": 2,
          "midi": 47,
          "name": "B2",
          "ticks": 3091,
          "time": 33.59782608695652,
          "velocity": 0.4645669291338583
        },
        {
          "duration": 0.06521739130434412,
          "durationTicks": 6,
          "midi": 61,
          "name": "C#4",
          "ticks": 3091,
          "time": 33.59782608695652,
          "velocity": 0.36220472440944884
        },
        {
          "duration": 0.043478260869562746,
          "durationTicks": 4,
          "midi": 74,
          "name": "D5",
          "ticks": 3092,
          "time": 33.608695652173914,
          "velocity": 0.18110236220472442
        },
        {
          "duration": 0.1739130434782581,
          "durationTicks": 16,
          "midi": 47,
          "name": "B2",
          "ticks": 3094,
          "time": 33.630434782608695,
          "velocity": 0.4330708661417323
        },
        {
          "duration": 0.03260869565217206,
          "durationTicks": 3,
          "midi": 70,
          "name": "A#4",
          "ticks": 3094,
          "time": 33.630434782608695,
          "velocity": 0.13385826771653545
        },
        {
          "duration": 0.0869565217391326,
          "durationTicks": 8,
          "midi": 68,
          "name": "G#4",
          "ticks": 3096,
          "time": 33.65217391304348,
          "velocity": 0.11811023622047244
        },
        {
          "duration": 0.04347826086956985,
          "durationTicks": 4,
          "midi": 54,
          "name": "F#3",
          "ticks": 3097,
          "time": 33.66304347826087,
          "velocity": 0.2283464566929134
        },
        {
          "duration": 0.05434782608695343,
          "durationTicks": 5,
          "midi": 61,
          "name": "C#4",
          "ticks": 3101,
          "time": 33.70652173913044,
          "velocity": 0.09448818897637795
        },
        {
          "duration": 0.043478260869562746,
          "durationTicks": 4,
          "midi": 54,
          "name": "F#3",
          "ticks": 3102,
          "time": 33.71739130434783,
          "velocity": 0.14173228346456693
        },
        {
          "duration": 0.043478260869562746,
          "durationTicks": 4,
          "midi": 60,
          "name": "C4",
          "ticks": 3106,
          "time": 33.76086956521739,
          "velocity": 0.07086614173228346
        },
        {
          "duration": 0.03260869565217206,
          "durationTicks": 3,
          "midi": 59,
          "name": "B3",
          "ticks": 3114,
          "time": 33.84782608695652,
          "velocity": 0.08661417322834646
        },
        {
          "duration": 0.010869565217397792,
          "durationTicks": 1,
          "midi": 50,
          "name": "D3",
          "ticks": 3179,
          "time": 34.55434782608695,
          "velocity": 0.5826771653543307
        },
        {
          "duration": 0.010869565217397792,
          "durationTicks": 1,
          "midi": 56,
          "name": "G#3",
          "ticks": 3179,
          "time": 34.55434782608695,
          "velocity": 0.5354330708661418
        },
        {
          "duration": 0.02173913043478848,
          "durationTicks": 2,
          "midi": 79,
          "name": "G5",
          "ticks": 3179,
          "time": 34.55434782608695,
          "velocity": 0.2283464566929134
        },
        {
          "duration": 0.032608695652179165,
          "durationTicks": 3,
          "midi": 81,
          "name": "A5",
          "ticks": 3179,
          "time": 34.55434782608695,
          "velocity": 0.09448818897637795
        },
        {
          "duration": 0.1739130434782581,
          "durationTicks": 16,
          "midi": 47,
          "name": "B2",
          "ticks": 3180,
          "time": 34.56521739130435,
          "velocity": 0.5118110236220472
        },
        {
          "duration": 0.06521739130434412,
          "durationTicks": 6,
          "midi": 61,
          "name": "C#4",
          "ticks": 3181,
          "time": 34.57608695652174,
          "velocity": 0.3937007874015748
        },
        {
          "duration": 0.021739130434781373,
          "durationTicks": 2,
          "midi": 66,
          "name": "F#4",
          "ticks": 3181,
          "time": 34.57608695652174,
          "velocity": 0.25196850393700787
        },
        {
          "duration": 0.09782608695651618,
          "durationTicks": 9,
          "midi": 70,
          "name": "A#4",
          "ticks": 3181,
          "time": 34.57608695652174,
          "velocity": 0.23622047244094488
        },
        {
          "duration": 0.043478260869562746,
          "durationTicks": 4,
          "midi": 74,
          "name": "D5",
          "ticks": 3181,
          "time": 34.57608695652174,
          "velocity": 0.2204724409448819
        },
        {
          "duration": 0.021739130434781373,
          "durationTicks": 2,
          "midi": 54,
          "name": "F#3",
          "ticks": 3187,
          "time": 34.641304347826086,
          "velocity": 0.25984251968503935
        },
        {
          "duration": 0.021739130434781373,
          "durationTicks": 2,
          "midi": 60,
          "name": "C4",
          "ticks": 3188,
          "time": 34.65217391304348,
          "velocity": 0.31496062992125984
        },
        {
          "duration": 0.05434782608696054,
          "durationTicks": 5,
          "midi": 68,
          "name": "G#4",
          "ticks": 3188,
          "time": 34.65217391304348,
          "velocity": 0.2440944881889764
        },
        {
          "duration": 0.04347826086956985,
          "durationTicks": 4,
          "midi": 54,
          "name": "F#3",
          "ticks": 3190,
          "time": 34.67391304347826,
          "velocity": 0.3228346456692913
        },
        {
          "duration": 0.05434782608696054,
          "durationTicks": 5,
          "midi": 61,
          "name": "C#4",
          "ticks": 3190,
          "time": 34.67391304347826,
          "velocity": 0.2755905511811024
        },
        {
          "duration": 0.0760869565217348,
          "durationTicks": 7,
          "midi": 70,
          "name": "A#4",
          "ticks": 3193,
          "time": 34.70652173913044,
          "velocity": 0.1732283464566929
        },
        {
          "duration": 0.03260869565217206,
          "durationTicks": 3,
          "midi": 55,
          "name": "G3",
          "ticks": 3194,
          "time": 34.71739130434783,
          "velocity": 0.2283464566929134
        },
        {
          "duration": 0.03260869565217206,
          "durationTicks": 3,
          "midi": 66,
          "name": "F#4",
          "ticks": 3194,
          "time": 34.71739130434783,
          "velocity": 0.1889763779527559
        },
        {
          "duration": 0.043478260869562746,
          "durationTicks": 4,
          "midi": 60,
          "name": "C4",
          "ticks": 3195,
          "time": 34.72826086956522,
          "velocity": 0.2047244094488189
        },
        {
          "duration": 0.043478260869562746,
          "durationTicks": 4,
          "midi": 54,
          "name": "F#3",
          "ticks": 3197,
          "time": 34.75,
          "velocity": 0.28346456692913385
        },
        {
          "duration": 0.021739130434781373,
          "durationTicks": 2,
          "midi": 60,
          "name": "C4",
          "ticks": 3204,
          "time": 34.82608695652174,
          "velocity": 0.25196850393700787
        },
        {
          "duration": 0.05434782608695343,
          "durationTicks": 5,
          "midi": 54,
          "name": "F#3",
          "ticks": 3205,
          "time": 34.83695652173913,
          "velocity": 0.28346456692913385
        },
        {
          "duration": 0.06521739130435122,
          "durationTicks": 6,
          "midi": 54,
          "name": "F#3",
          "ticks": 3211,
          "time": 34.90217391304348,
          "velocity": 0.23622047244094488
        },
        {
          "duration": 0.07608695652174191,
          "durationTicks": 7,
          "midi": 54,
          "name": "F#3",
          "ticks": 3219,
          "time": 34.98913043478261,
          "velocity": 0.2125984251968504
        },
        {
          "duration": 0.02173913043478848,
          "durationTicks": 2,
          "midi": 73,
          "name": "C#5",
          "ticks": 3225,
          "time": 35.05434782608695,
          "velocity": 0.3779527559055118
        },
        {
          "duration": 0.05434782608696054,
          "durationTicks": 5,
          "midi": 81,
          "name": "A5",
          "ticks": 3225,
          "time": 35.05434782608695,
          "velocity": 0.2992125984251969
        },
        {
          "duration": 0.04347826086956985,
          "durationTicks": 4,
          "midi": 89,
          "name": "F6",
          "ticks": 3225,
          "time": 35.05434782608695,
          "velocity": 0.30708661417322836
        },
        {
          "duration": 0.043478260869562746,
          "durationTicks": 4,
          "midi": 66,
          "name": "F#4",
          "ticks": 3226,
          "time": 35.06521739130435,
          "velocity": 0.30708661417322836
        },
        {
          "duration": 0.03260869565217206,
          "durationTicks": 3,
          "midi": 77,
          "name": "F5",
          "ticks": 3226,
          "time": 35.06521739130435,
          "velocity": 0.33858267716535434
        },
        {
          "duration": 0.03260869565217206,
          "durationTicks": 3,
          "midi": 83,
          "name": "B5",
          "ticks": 3226,
          "time": 35.06521739130435,
          "velocity": 0.18110236220472442
        },
        {
          "duration": 0.021739130434781373,
          "durationTicks": 2,
          "midi": 88,
          "name": "E6",
          "ticks": 3226,
          "time": 35.06521739130435,
          "velocity": 0.28346456692913385
        },
        {
          "duration": 0.05434782608695343,
          "durationTicks": 5,
          "midi": 90,
          "name": "F#6",
          "ticks": 3226,
          "time": 35.06521739130435,
          "velocity": 0.28346456692913385
        },
        {
          "duration": 0.043478260869562746,
          "durationTicks": 4,
          "midi": 92,
          "name": "G#6",
          "ticks": 3226,
          "time": 35.06521739130435,
          "velocity": 0.23622047244094488
        },
        {
          "duration": 0.03260869565217206,
          "durationTicks": 3,
          "midi": 94,
          "name": "A#6",
          "ticks": 3226,
          "time": 35.06521739130435,
          "velocity": 0.11811023622047244
        },
        {
          "duration": 0.05434782608695343,
          "durationTicks": 5,
          "midi": 54,
          "name": "F#3",
          "ticks": 3227,
          "time": 35.07608695652174,
          "velocity": 0.15748031496062992
        },
        {
          "duration": 0.021739130434781373,
          "durationTicks": 2,
          "midi": 70,
          "name": "A#4",
          "ticks": 3227,
          "time": 35.07608695652174,
          "velocity": 0.2283464566929134
        },
        {
          "duration": 0.021739130434781373,
          "durationTicks": 2,
          "midi": 72,
          "name": "C5",
          "ticks": 3227,
          "time": 35.07608695652174,
          "velocity": 0.30708661417322836
        },
        {
          "duration": 0.03260869565217206,
          "durationTicks": 3,
          "midi": 79,
          "name": "G5",
          "ticks": 3227,
          "time": 35.07608695652174,
          "velocity": 0.08661417322834646
        },
        {
          "duration": 0.043478260869562746,
          "durationTicks": 4,
          "midi": 85,
          "name": "C#6",
          "ticks": 3227,
          "time": 35.07608695652174,
          "velocity": 0.14960629921259844
        },
        {
          "duration": 0.03260869565217206,
          "durationTicks": 3,
          "midi": 69,
          "name": "A4",
          "ticks": 3229,
          "time": 35.09782608695652,
          "velocity": 0.1889763779527559
        },
        {
          "duration": 0.05434782608695343,
          "durationTicks": 5,
          "midi": 91,
          "name": "G6",
          "ticks": 3229,
          "time": 35.09782608695652,
          "velocity": 0.13385826771653545
        },
        {
          "duration": 0.03260869565217206,
          "durationTicks": 3,
          "midi": 77,
          "name": "F5",
          "ticks": 3230,
          "time": 35.108695652173914,
          "velocity": 0.11811023622047244
        },
        {
          "duration": 0.043478260869562746,
          "durationTicks": 4,
          "midi": 61,
          "name": "C#4",
          "ticks": 3232,
          "time": 35.130434782608695,
          "velocity": 0.18110236220472442
        },
        {
          "duration": 0.043478260869562746,
          "durationTicks": 4,
          "midi": 83,
          "name": "B5",
          "ticks": 3233,
          "time": 35.141304347826086,
          "velocity": 0.07874015748031496
        },
        {
          "duration": 0.04347826086956985,
          "durationTicks": 4,
          "midi": 54,
          "name": "F#3",
          "ticks": 3235,
          "time": 35.16304347826087,
          "velocity": 0.12598425196850394
        },
        {
          "duration": 0.043478260869562746,
          "durationTicks": 4,
          "midi": 54,
          "name": "F#3",
          "ticks": 3243,
          "time": 35.25,
          "velocity": 0.08661417322834646
        },
        {
          "duration": 0.03260869565217206,
          "durationTicks": 3,
          "midi": 78,
          "name": "F#5",
          "ticks": 3249,
          "time": 35.31521739130435,
          "velocity": 0.1732283464566929
        },
        {
          "duration": 0.010869565217390686,
          "durationTicks": 1,
          "midi": 49,
          "name": "C#3",
          "ticks": 3250,
          "time": 35.32608695652174,
          "velocity": 0.5826771653543307
        },
        {
          "duration": 0.021739130434781373,
          "durationTicks": 2,
          "midi": 67,
          "name": "G4",
          "ticks": 3250,
          "time": 35.32608695652174,
          "velocity": 0.2992125984251969
        },
        {
          "duration": 0.021739130434781373,
          "durationTicks": 2,
          "midi": 47,
          "name": "B2",
          "ticks": 3251,
          "time": 35.33695652173913,
          "velocity": 0.5039370078740157
        },
        {
          "duration": 0.0760869565217348,
          "durationTicks": 7,
          "midi": 61,
          "name": "C#4",
          "ticks": 3251,
          "time": 35.33695652173913,
          "velocity": 0.3779527559055118
        },
        {
          "duration": 0.0760869565217348,
          "durationTicks": 7,
          "midi": 74,
          "name": "D5",
          "ticks": 3251,
          "time": 35.33695652173913,
          "velocity": 0.1889763779527559
        },
        {
          "duration": 0.13043478260869534,
          "durationTicks": 12,
          "midi": 47,
          "name": "B2",
          "ticks": 3254,
          "time": 35.369565217391305,
          "velocity": 0.44881889763779526
        },
        {
          "duration": 0.09782608695652328,
          "durationTicks": 9,
          "midi": 68,
          "name": "G#4",
          "ticks": 3255,
          "time": 35.380434782608695,
          "velocity": 0.2125984251968504
        },
        {
          "duration": 0.03260869565217206,
          "durationTicks": 3,
          "midi": 54,
          "name": "F#3",
          "ticks": 3257,
          "time": 35.40217391304348,
          "velocity": 0.2677165354330709
        },
        {
          "duration": 0.02173913043478848,
          "durationTicks": 2,
          "midi": 60,
          "name": "C4",
          "ticks": 3259,
          "time": 35.42391304347826,
          "velocity": 0.2440944881889764
        },
        {
          "duration": 0.02173913043478848,
          "durationTicks": 2,
          "midi": 55,
          "name": "G3",
          "ticks": 3260,
          "time": 35.43478260869565,
          "velocity": 0.28346456692913385
        },
        {
          "duration": 0.05434782608695343,
          "durationTicks": 5,
          "midi": 61,
          "name": "C#4",
          "ticks": 3261,
          "time": 35.44565217391305,
          "velocity": 0.1889763779527559
        },
        {
          "duration": 0.13043478260869534,
          "durationTicks": 12,
          "midi": 54,
          "name": "F#3",
          "ticks": 3262,
          "time": 35.45652173913044,
          "velocity": 0.3543307086614173
        },
        {
          "duration": 0.010869565217390686,
          "durationTicks": 1,
          "midi": 52,
          "name": "E3",
          "ticks": 3274,
          "time": 35.58695652173913,
          "velocity": 0.5354330708661418
        },
        {
          "duration": 0.010869565217390686,
          "durationTicks": 1,
          "midi": 49,
          "name": "C#3",
          "ticks": 3275,
          "time": 35.59782608695652,
          "velocity": 0.5669291338582677
        },
        {
          "duration": 0.021739130434781373,
          "durationTicks": 2,
          "midi": 60,
          "name": "C4",
          "ticks": 3275,
          "time": 35.59782608695652,
          "velocity": 0.47244094488188976
        },
        {
          "duration": 0.1630434782608674,
          "durationTicks": 15,
          "midi": 47,
          "name": "B2",
          "ticks": 3276,
          "time": 35.608695652173914,
          "velocity": 0.47244094488188976
        },
        {
          "duration": 0.09782608695652328,
          "durationTicks": 9,
          "midi": 74,
          "name": "D5",
          "ticks": 3276,
          "time": 35.608695652173914,
          "velocity": 0.23622047244094488
        },
        {
          "duration": 0.05434782608695343,
          "durationTicks": 5,
          "midi": 61,
          "name": "C#4",
          "ticks": 3277,
          "time": 35.619565217391305,
          "velocity": 0.36220472440944884
        },
        {
          "duration": 0.03260869565217206,
          "durationTicks": 3,
          "midi": 55,
          "name": "G3",
          "ticks": 3279,
          "time": 35.641304347826086,
          "velocity": 0.2283464566929134
        },
        {
          "duration": 0.09782608695652328,
          "durationTicks": 9,
          "midi": 68,
          "name": "G#4",
          "ticks": 3280,
          "time": 35.65217391304348,
          "velocity": 0.25196850393700787
        },
        {
          "duration": 0.032608695652179165,
          "durationTicks": 3,
          "midi": 54,
          "name": "F#3",
          "ticks": 3282,
          "time": 35.67391304347826,
          "velocity": 0.28346456692913385
        },
        {
          "duration": 0.02173913043478848,
          "durationTicks": 2,
          "midi": 62,
          "name": "D4",
          "ticks": 3282,
          "time": 35.67391304347826,
          "velocity": 0.2440944881889764
        },
        {
          "duration": 0.06521739130434412,
          "durationTicks": 6,
          "midi": 61,
          "name": "C#4",
          "ticks": 3285,
          "time": 35.70652173913044,
          "velocity": 0.30708661417322836
        },
        {
          "duration": 0.07608695652174191,
          "durationTicks": 7,
          "midi": 54,
          "name": "F#3",
          "ticks": 3288,
          "time": 35.73913043478261,
          "velocity": 0.25984251968503935
        },
        {
          "duration": 0.05434782608696054,
          "durationTicks": 5,
          "midi": 70,
          "name": "A#4",
          "ticks": 3291,
          "time": 35.77173913043478,
          "velocity": 0.14960629921259844
        },
        {
          "duration": 0.0760869565217348,
          "durationTicks": 7,
          "midi": 70,
          "name": "A#4",
          "ticks": 3297,
          "time": 35.83695652173913,
          "velocity": 0.11811023622047244
        },
        {
          "duration": 0.11956521739130466,
          "durationTicks": 11,
          "midi": 54,
          "name": "F#3",
          "ticks": 3298,
          "time": 35.84782608695652,
          "velocity": 0.2125984251968504
        },
        {
          "duration": 0.043478260869562746,
          "durationTicks": 4,
          "midi": 61,
          "name": "C#4",
          "ticks": 3307,
          "time": 35.94565217391305,
          "velocity": 0.10236220472440945
        },
        {
          "duration": 0.06521739130434412,
          "durationTicks": 6,
          "midi": 54,
          "name": "F#3",
          "ticks": 3311,
          "time": 35.98913043478261,
          "velocity": 0.13385826771653545
        },
        {
          "duration": 0.03260869565217206,
          "durationTicks": 3,
          "midi": 54,
          "name": "F#3",
          "ticks": 3319,
          "time": 36.07608695652174,
          "velocity": 0.10236220472440945
        },
        {
          "duration": 0.021739130434781373,
          "durationTicks": 2,
          "midi": 49,
          "name": "C#3",
          "ticks": 3323,
          "time": 36.119565217391305,
          "velocity": 0.2677165354330709
        },
        {
          "duration": 0.010869565217390686,
          "durationTicks": 1,
          "midi": 52,
          "name": "E3",
          "ticks": 3373,
          "time": 36.66304347826087,
          "velocity": 0.5354330708661418
        },
        {
          "duration": 0.032608695652179165,
          "durationTicks": 3,
          "midi": 78,
          "name": "F#5",
          "ticks": 3373,
          "time": 36.66304347826087,
          "velocity": 0.25196850393700787
        },
        {
          "duration": 0.010869565217390686,
          "durationTicks": 1,
          "midi": 49,
          "name": "C#3",
          "ticks": 3374,
          "time": 36.67391304347826,
          "velocity": 0.5905511811023622
        },
        {
          "duration": 0.010869565217390686,
          "durationTicks": 1,
          "midi": 56,
          "name": "G#3",
          "ticks": 3374,
          "time": 36.67391304347826,
          "velocity": 0.5196850393700787
        },
        {
          "duration": 0.02173913043478848,
          "durationTicks": 2,
          "midi": 47,
          "name": "B2",
          "ticks": 3375,
          "time": 36.68478260869565,
          "velocity": 0.4881889763779528
        },
        {
          "duration": 0.0869565217391326,
          "durationTicks": 8,
          "midi": 74,
          "name": "D5",
          "ticks": 3375,
          "time": 36.68478260869565,
          "velocity": 0.2047244094488189
        },
        {
          "duration": 0.05434782608695343,
          "durationTicks": 5,
          "midi": 61,
          "name": "C#4",
          "ticks": 3376,
          "time": 36.69565217391305,
          "velocity": 0.3700787401574803
        },
        {
          "duration": 0.13043478260869534,
          "durationTicks": 12,
          "midi": 47,
          "name": "B2",
          "ticks": 3378,
          "time": 36.71739130434783,
          "velocity": 0.4409448818897638
        },
        {
          "duration": 0.09782608695652328,
          "durationTicks": 9,
          "midi": 68,
          "name": "G#4",
          "ticks": 3379,
          "time": 36.72826086956522,
          "velocity": 0.25984251968503935
        },
        {
          "duration": 0.03260869565217206,
          "durationTicks": 3,
          "midi": 54,
          "name": "F#3",
          "ticks": 3381,
          "time": 36.75,
          "velocity": 0.30708661417322836
        },
        {
          "duration": 0.021739130434781373,
          "durationTicks": 2,
          "midi": 62,
          "name": "D4",
          "ticks": 3381,
          "time": 36.75,
          "velocity": 0.25196850393700787
        },
        {
          "duration": 0.021739130434781373,
          "durationTicks": 2,
          "midi": 55,
          "name": "G3",
          "ticks": 3384,
          "time": 36.78260869565217,
          "velocity": 0.33070866141732286
        },
        {
          "duration": 0.06521739130435122,
          "durationTicks": 6,
          "midi": 61,
          "name": "C#4",
          "ticks": 3384,
          "time": 36.78260869565217,
          "velocity": 0.3228346456692913
        },
        {
          "duration": 0.04347826086956985,
          "durationTicks": 4,
          "midi": 54,
          "name": "F#3",
          "ticks": 3386,
          "time": 36.80434782608695,
          "velocity": 0.30708661417322836
        },
        {
          "duration": 0.043478260869562746,
          "durationTicks": 4,
          "midi": 60,
          "name": "C4",
          "ticks": 3390,
          "time": 36.84782608695652,
          "velocity": 0.1889763779527559
        },
        {
          "duration": 0.05434782608695343,
          "durationTicks": 5,
          "midi": 70,
          "name": "A#4",
          "ticks": 3390,
          "time": 36.84782608695652,
          "velocity": 0.14960629921259844
        },
        {
          "duration": 0.0869565217391326,
          "durationTicks": 8,
          "midi": 54,
          "name": "F#3",
          "ticks": 3391,
          "time": 36.858695652173914,
          "velocity": 0.23622047244094488
        },
        {
          "duration": 0.05434782608696054,
          "durationTicks": 5,
          "midi": 70,
          "name": "A#4",
          "ticks": 3396,
          "time": 36.91304347826087,
          "velocity": 0.12598425196850394
        },
        {
          "duration": 0.021739130434781373,
          "durationTicks": 2,
          "midi": 55,
          "name": "G3",
          "ticks": 3399,
          "time": 36.94565217391305,
          "velocity": 0.23622047244094488
        },
        {
          "duration": 0.021739130434781373,
          "durationTicks": 2,
          "midi": 60,
          "name": "C4",
          "ticks": 3399,
          "time": 36.94565217391305,
          "velocity": 0.2440944881889764
        },
        {
          "duration": 0.20652173913043015,
          "durationTicks": 19,
          "midi": 54,
          "name": "F#3",
          "ticks": 3401,
          "time": 36.96739130434783,
          "velocity": 0.5196850393700787
        },
        {
          "duration": 0.04347826086956985,
          "durationTicks": 4,
          "midi": 61,
          "name": "C#4",
          "ticks": 3406,
          "time": 37.02173913043478,
          "velocity": 0.12598425196850394
        },
        {
          "duration": 0.032608695652179165,
          "durationTicks": 3,
          "midi": 78,
          "name": "F#5",
          "ticks": 3419,
          "time": 37.16304347826087,
          "velocity": 0.2677165354330709
        },
        {
          "duration": 0.010869565217390686,
          "durationTicks": 1,
          "midi": 50,
          "name": "D3",
          "ticks": 3420,
          "time": 37.17391304347826,
          "velocity": 0.5826771653543307
        },
        {
          "duration": 0.02173913043478848,
          "durationTicks": 2,
          "midi": 56,
          "name": "G#3",
          "ticks": 3420,
          "time": 37.17391304347826,
          "velocity": 0.5511811023622047
        },
        {
          "duration": 0.04347826086956985,
          "durationTicks": 4,
          "midi": 66,
          "name": "F#4",
          "ticks": 3420,
          "time": 37.17391304347826,
          "velocity": 0.36220472440944884
        },
        {
          "duration": 0.010869565217397792,
          "durationTicks": 1,
          "midi": 49,
          "name": "C#3",
          "ticks": 3421,
          "time": 37.18478260869565,
          "velocity": 0.5118110236220472
        },
        {
          "duration": 0.1630434782608674,
          "durationTicks": 15,
          "midi": 47,
          "name": "B2",
          "ticks": 3422,
          "time": 37.19565217391305,
          "velocity": 0.4409448818897638
        },
        {
          "duration": 0.06521739130434412,
          "durationTicks": 6,
          "midi": 61,
          "name": "C#4",
          "ticks": 3422,
          "time": 37.19565217391305,
          "velocity": 0.41732283464566927
        },
        {
          "duration": 0.06521739130434412,
          "durationTicks": 6,
          "midi": 70,
          "name": "A#4",
          "ticks": 3422,
          "time": 37.19565217391305,
          "velocity": 0.23622047244094488
        },
        {
          "duration": 0.03260869565217206,
          "durationTicks": 3,
          "midi": 74,
          "name": "D5",
          "ticks": 3422,
          "time": 37.19565217391305,
          "velocity": 0.2125984251968504
        },
        {
          "duration": 0.043478260869562746,
          "durationTicks": 4,
          "midi": 54,
          "name": "F#3",
          "ticks": 3423,
          "time": 37.20652173913044,
          "velocity": 0.3228346456692913
        },
        {
          "duration": 0.021739130434781373,
          "durationTicks": 2,
          "midi": 60,
          "name": "C4",
          "ticks": 3429,
          "time": 37.27173913043478,
          "velocity": 0.3543307086614173
        },
        {
          "duration": 0.032608695652179165,
          "durationTicks": 3,
          "midi": 54,
          "name": "F#3",
          "ticks": 3430,
          "time": 37.28260869565217,
          "velocity": 0.3700787401574803
        },
        {
          "duration": 0.04347826086956985,
          "durationTicks": 4,
          "midi": 68,
          "name": "G#4",
          "ticks": 3430,
          "time": 37.28260869565217,
          "velocity": 0.2440944881889764
        },
        {
          "duration": 0.05434782608696054,
          "durationTicks": 5,
          "midi": 61,
          "name": "C#4",
          "ticks": 3431,
          "time": 37.29347826086956,
          "velocity": 0.33070866141732286
        },
        {
          "duration": 0.03260869565217206,
          "durationTicks": 3,
          "midi": 55,
          "name": "G3",
          "ticks": 3435,
          "time": 37.33695652173913,
          "velocity": 0.2755905511811024
        },
        {
          "duration": 0.043478260869562746,
          "durationTicks": 4,
          "midi": 60,
          "name": "C4",
          "ticks": 3436,
          "time": 37.34782608695652,
          "velocity": 0.2755905511811024
        },
        {
          "duration": 0.05434782608695343,
          "durationTicks": 5,
          "midi": 70,
          "name": "A#4",
          "ticks": 3436,
          "time": 37.34782608695652,
          "velocity": 0.2125984251968504
        },
        {
          "duration": 0.06521739130434412,
          "durationTicks": 6,
          "midi": 73,
          "name": "C#5",
          "ticks": 3436,
          "time": 37.34782608695652,
          "velocity": 0.07086614173228346
        },
        {
          "duration": 0.043478260869562746,
          "durationTicks": 4,
          "midi": 54,
          "name": "F#3",
          "ticks": 3438,
          "time": 37.369565217391305,
          "velocity": 0.3543307086614173
        },
        {
          "duration": 0.03260869565217206,
          "durationTicks": 3,
          "midi": 61,
          "name": "C#4",
          "ticks": 3440,
          "time": 37.391304347826086,
          "velocity": 0.2047244094488189
        },
        {
          "duration": 0.021739130434781373,
          "durationTicks": 2,
          "midi": 60,
          "name": "C4",
          "ticks": 3445,
          "time": 37.44565217391305,
          "velocity": 0.29133858267716534
        },
        {
          "duration": 0.05434782608695343,
          "durationTicks": 5,
          "midi": 54,
          "name": "F#3",
          "ticks": 3446,
          "time": 37.45652173913044,
          "velocity": 0.36220472440944884
        },
        {
          "duration": 0.05434782608696054,
          "durationTicks": 5,
          "midi": 54,
          "name": "F#3",
          "ticks": 3453,
          "time": 37.53260869565217,
          "velocity": 0.31496062992125984
        },
        {
          "duration": 0.032608695652179165,
          "durationTicks": 3,
          "midi": 61,
          "name": "C#4",
          "ticks": 3453,
          "time": 37.53260869565217,
          "velocity": 0.14960629921259844
        },
        {
          "duration": 0.03260869565217206,
          "durationTicks": 3,
          "midi": 59,
          "name": "B3",
          "ticks": 3458,
          "time": 37.58695652173913,
          "velocity": 0.18110236220472442
        },
        {
          "duration": 0.03260869565217206,
          "durationTicks": 3,
          "midi": 68,
          "name": "G#4",
          "ticks": 3458,
          "time": 37.58695652173913,
          "velocity": 0.07086614173228346
        },
        {
          "duration": 0.0760869565217348,
          "durationTicks": 7,
          "midi": 54,
          "name": "F#3",
          "ticks": 3460,
          "time": 37.608695652173914,
          "velocity": 0.28346456692913385
        },
        {
          "duration": 0.02173913043478848,
          "durationTicks": 2,
          "midi": 56,
          "name": "G#3",
          "ticks": 3467,
          "time": 37.68478260869565,
          "velocity": 0.5354330708661418
        },
        {
          "duration": 0.032608695652179165,
          "durationTicks": 3,
          "midi": 75,
          "name": "D#5",
          "ticks": 3467,
          "time": 37.68478260869565,
          "velocity": 0.1732283464566929
        },
        {
          "duration": 0.032608695652179165,
          "durationTicks": 3,
          "midi": 78,
          "name": "F#5",
          "ticks": 3467,
          "time": 37.68478260869565,
          "velocity": 0.25984251968503935
        },
        {
          "duration": 0.010869565217390686,
          "durationTicks": 1,
          "midi": 50,
          "name": "D3",
          "ticks": 3468,
          "time": 37.69565217391305,
          "velocity": 0.5826771653543307
        },
        {
          "duration": 0.010869565217390686,
          "durationTicks": 1,
          "midi": 49,
          "name": "C#3",
          "ticks": 3469,
          "time": 37.70652173913044,
          "velocity": 0.5354330708661418
        },
        {
          "duration": 0.021739130434781373,
          "durationTicks": 2,
          "midi": 67,
          "name": "G4",
          "ticks": 3469,
          "time": 37.70652173913044,
          "velocity": 0.3464566929133858
        },
        {
          "duration": 0.1630434782608674,
          "durationTicks": 15,
          "midi": 47,
          "name": "B2",
          "ticks": 3470,
          "time": 37.71739130434783,
          "velocity": 0.4409448818897638
        },
        {
          "duration": 0.06521739130434412,
          "durationTicks": 6,
          "midi": 61,
          "name": "C#4",
          "ticks": 3470,
          "time": 37.71739130434783,
          "velocity": 0.3858267716535433
        },
        {
          "duration": 0.043478260869562746,
          "durationTicks": 4,
          "midi": 74,
          "name": "D5",
          "ticks": 3470,
          "time": 37.71739130434783,
          "velocity": 0.1968503937007874
        },
        {
          "duration": 0.021739130434781373,
          "durationTicks": 2,
          "midi": 67,
          "name": "G4",
          "ticks": 3472,
          "time": 37.73913043478261,
          "velocity": 0.25984251968503935
        },
        {
          "duration": 0.021739130434781373,
          "durationTicks": 2,
          "midi": 55,
          "name": "G3",
          "ticks": 3474,
          "time": 37.76086956521739,
          "velocity": 0.25984251968503935
        },
        {
          "duration": 0.07608695652174191,
          "durationTicks": 7,
          "midi": 54,
          "name": "F#3",
          "ticks": 3476,
          "time": 37.78260869565217,
          "velocity": 0.3464566929133858
        },
        {
          "duration": 0.06521739130435122,
          "durationTicks": 6,
          "midi": 68,
          "name": "G#4",
          "ticks": 3476,
          "time": 37.78260869565217,
          "velocity": 0.2440944881889764
        },
        {
          "duration": 0.02173913043478848,
          "durationTicks": 2,
          "midi": 60,
          "name": "C4",
          "ticks": 3477,
          "time": 37.79347826086956,
          "velocity": 0.33070866141732286
        },
        {
          "duration": 0.05434782608695343,
          "durationTicks": 5,
          "midi": 61,
          "name": "C#4",
          "ticks": 3479,
          "time": 37.81521739130435,
          "velocity": 0.29133858267716534
        },
        {
          "duration": 0.021739130434781373,
          "durationTicks": 2,
          "midi": 67,
          "name": "G4",
          "ticks": 3482,
          "time": 37.84782608695652,
          "velocity": 0.2755905511811024
        },
        {
          "duration": 0.03260869565217206,
          "durationTicks": 3,
          "midi": 55,
          "name": "G3",
          "ticks": 3483,
          "time": 37.858695652173914,
          "velocity": 0.29133858267716534
        },
        {
          "duration": 0.043478260869562746,
          "durationTicks": 4,
          "midi": 60,
          "name": "C4",
          "ticks": 3484,
          "time": 37.869565217391305,
          "velocity": 0.2204724409448819
        },
        {
          "duration": 0.03260869565217206,
          "durationTicks": 3,
          "midi": 70,
          "name": "A#4",
          "ticks": 3484,
          "time": 37.869565217391305,
          "velocity": 0.14960629921259844
        },
        {
          "duration": 0.07608695652174191,
          "durationTicks": 7,
          "midi": 54,
          "name": "F#3",
          "ticks": 3486,
          "time": 37.891304347826086,
          "velocity": 0.29133858267716534
        },
        {
          "duration": 0.032608695652179165,
          "durationTicks": 3,
          "midi": 61,
          "name": "C#4",
          "ticks": 3488,
          "time": 37.91304347826087,
          "velocity": 0.16535433070866143
        },
        {
          "duration": 0.04347826086956985,
          "durationTicks": 4,
          "midi": 70,
          "name": "A#4",
          "ticks": 3488,
          "time": 37.91304347826087,
          "velocity": 0.14960629921259844
        },
        {
          "duration": 0.021739130434781373,
          "durationTicks": 2,
          "midi": 60,
          "name": "C4",
          "ticks": 3493,
          "time": 37.96739130434783,
          "velocity": 0.2755905511811024
        },
        {
          "duration": 0.043478260869562746,
          "durationTicks": 4,
          "midi": 54,
          "name": "F#3",
          "ticks": 3494,
          "time": 37.97826086956522,
          "velocity": 0.28346456692913385
        },
        {
          "duration": 0.07608695652174191,
          "durationTicks": 7,
          "midi": 54,
          "name": "F#3",
          "ticks": 3500,
          "time": 38.04347826086956,
          "velocity": 0.2440944881889764
        },
        {
          "duration": 0.032608695652179165,
          "durationTicks": 3,
          "midi": 61,
          "name": "C#4",
          "ticks": 3501,
          "time": 38.05434782608695,
          "velocity": 0.10236220472440945
        },
        {
          "duration": 0.03260869565217206,
          "durationTicks": 3,
          "midi": 59,
          "name": "B3",
          "ticks": 3506,
          "time": 38.108695652173914,
          "velocity": 0.15748031496062992
        },
        {
          "duration": 0.07608695652174191,
          "durationTicks": 7,
          "midi": 54,
          "name": "F#3",
          "ticks": 3508,
          "time": 38.130434782608695,
          "velocity": 0.2125984251968504
        },
        {
          "duration": 0.03260869565217206,
          "durationTicks": 3,
          "midi": 47,
          "name": "B2",
          "ticks": 3516,
          "time": 38.21739130434783,
          "velocity": 0.18110236220472442
        },
        {
          "duration": 0.043478260869562746,
          "durationTicks": 4,
          "midi": 61,
          "name": "C#4",
          "ticks": 3520,
          "time": 38.26086956521739,
          "velocity": 0.07874015748031496
        },
        {
          "duration": 0.010869565217390686,
          "durationTicks": 1,
          "midi": 52,
          "name": "E3",
          "ticks": 3563,
          "time": 38.72826086956522,
          "velocity": 0.5354330708661418
        },
        {
          "duration": 0.021739130434781373,
          "durationTicks": 2,
          "midi": 69,
          "name": "A4",
          "ticks": 3563,
          "time": 38.72826086956522,
          "velocity": 0.29133858267716534
        },
        {
          "duration": 0.021739130434781373,
          "durationTicks": 2,
          "midi": 78,
          "name": "F#5",
          "ticks": 3563,
          "time": 38.72826086956522,
          "velocity": 0.2677165354330709
        },
        {
          "duration": 0.010869565217390686,
          "durationTicks": 1,
          "midi": 50,
          "name": "D3",
          "ticks": 3564,
          "time": 38.73913043478261,
          "velocity": 0.6062992125984252
        },
        {
          "duration": 0.010869565217390686,
          "durationTicks": 1,
          "midi": 56,
          "name": "G#3",
          "ticks": 3564,
          "time": 38.73913043478261,
          "velocity": 0.5433070866141733
        },
        {
          "duration": 0.043478260869562746,
          "durationTicks": 4,
          "midi": 66,
          "name": "F#4",
          "ticks": 3564,
          "time": 38.73913043478261,
          "velocity": 0.4094488188976378
        },
        {
          "duration": 0.03260869565217206,
          "durationTicks": 3,
          "midi": 84,
          "name": "C6",
          "ticks": 3564,
          "time": 38.73913043478261,
          "velocity": 0.11023622047244094
        },
        {
          "duration": 0.021739130434781373,
          "durationTicks": 2,
          "midi": 47,
          "name": "B2",
          "ticks": 3565,
          "time": 38.75,
          "velocity": 0.5118110236220472
        },
        {
          "duration": 0.06521739130435122,
          "durationTicks": 6,
          "midi": 61,
          "name": "C#4",
          "ticks": 3566,
          "time": 38.76086956521739,
          "velocity": 0.3700787401574803
        },
        {
          "duration": 0.043478260869562746,
          "durationTicks": 4,
          "midi": 74,
          "name": "D5",
          "ticks": 3566,
          "time": 38.76086956521739,
          "velocity": 0.16535433070866143
        },
        {
          "duration": 0.15217391304347672,
          "durationTicks": 14,
          "midi": 47,
          "name": "B2",
          "ticks": 3568,
          "time": 38.78260869565217,
          "velocity": 0.4409448818897638
        },
        {
          "duration": 0.02173913043478848,
          "durationTicks": 2,
          "midi": 68,
          "name": "G#4",
          "ticks": 3569,
          "time": 38.79347826086956,
          "velocity": 0.25984251968503935
        },
        {
          "duration": 0.02173913043478848,
          "durationTicks": 2,
          "midi": 55,
          "name": "G3",
          "ticks": 3570,
          "time": 38.80434782608695,
          "velocity": 0.28346456692913385
        },
        {
          "duration": 0.021739130434781373,
          "durationTicks": 2,
          "midi": 54,
          "name": "F#3",
          "ticks": 3572,
          "time": 38.82608695652174,
          "velocity": 0.3228346456692913
        },
        {
          "duration": 0.021739130434781373,
          "durationTicks": 2,
          "midi": 60,
          "name": "C4",
          "ticks": 3573,
          "time": 38.83695652173913,
          "velocity": 0.30708661417322836
        },
        {
          "duration": 0.043478260869562746,
          "durationTicks": 4,
          "midi": 68,
          "name": "G#4",
          "ticks": 3574,
          "time": 38.84782608695652,
          "velocity": 0.2440944881889764
        },
        {
          "duration": 0.043478260869562746,
          "durationTicks": 4,
          "midi": 54,
          "name": "F#3",
          "ticks": 3575,
          "time": 38.858695652173914,
          "velocity": 0.33858267716535434
        },
        {
          "duration": 0.05434782608695343,
          "durationTicks": 5,
          "midi": 61,
          "name": "C#4",
          "ticks": 3575,
          "time": 38.858695652173914,
          "velocity": 0.25196850393700787
        },
        {
          "duration": 0.021739130434781373,
          "durationTicks": 2,
          "midi": 55,
          "name": "G3",
          "ticks": 3579,
          "time": 38.90217391304348,
          "velocity": 0.3228346456692913
        },
        {
          "duration": 0.06521739130435122,
          "durationTicks": 6,
          "midi": 73,
          "name": "C#5",
          "ticks": 3580,
          "time": 38.91304347826087,
          "velocity": 0.08661417322834646
        },
        {
          "duration": 0.07608695652174191,
          "durationTicks": 7,
          "midi": 54,
          "name": "F#3",
          "ticks": 3581,
          "time": 38.92391304347826,
          "velocity": 0.33858267716535434
        },
        {
          "duration": 0.032608695652179165,
          "durationTicks": 3,
          "midi": 70,
          "name": "A#4",
          "ticks": 3581,
          "time": 38.92391304347826,
          "velocity": 0.14173228346456693
        },
        {
          "duration": 0.021739130434781373,
          "durationTicks": 2,
          "midi": 58,
          "name": "A#3",
          "ticks": 3587,
          "time": 38.98913043478261,
          "velocity": 0.23622047244094488
        },
        {
          "duration": 0.021739130434781373,
          "durationTicks": 2,
          "midi": 55,
          "name": "G3",
          "ticks": 3588,
          "time": 39,
          "velocity": 0.30708661417322836
        },
        {
          "duration": 0.021739130434781373,
          "durationTicks": 2,
          "midi": 60,
          "name": "C4",
          "ticks": 3589,
          "time": 39.01086956521739,
          "velocity": 0.29133858267716534
        },
        {
          "duration": 0.05434782608696054,
          "durationTicks": 5,
          "midi": 54,
          "name": "F#3",
          "ticks": 3590,
          "time": 39.02173913043478,
          "velocity": 0.3464566929133858
        },
        {
          "duration": 0.05434782608696054,
          "durationTicks": 5,
          "midi": 68,
          "name": "G#4",
          "ticks": 3591,
          "time": 39.03260869565217,
          "velocity": 0.11811023622047244
        },
        {
          "duration": 0.0760869565217348,
          "durationTicks": 7,
          "midi": 54,
          "name": "F#3",
          "ticks": 3596,
          "time": 39.08695652173913,
          "velocity": 0.30708661417322836
        },
        {
          "duration": 0.03260869565217206,
          "durationTicks": 3,
          "midi": 61,
          "name": "C#4",
          "ticks": 3597,
          "time": 39.09782608695652,
          "velocity": 0.09448818897637795
        },
        {
          "duration": 0.03260869565217206,
          "durationTicks": 3,
          "midi": 68,
          "name": "G#4",
          "ticks": 3601,
          "time": 39.141304347826086,
          "velocity": 0.08661417322834646
        },
        {
          "duration": 0.06521739130435122,
          "durationTicks": 6,
          "midi": 54,
          "name": "F#3",
          "ticks": 3604,
          "time": 39.17391304347826,
          "velocity": 0.2755905511811024
        },
        {
          "duration": 0.06521739130435122,
          "durationTicks": 6,
          "midi": 54,
          "name": "F#3",
          "ticks": 3612,
          "time": 39.26086956521739,
          "velocity": 0.2204724409448819
        },
        {
          "duration": 0.03260869565217206,
          "durationTicks": 3,
          "midi": 73,
          "name": "C#5",
          "ticks": 3612,
          "time": 39.26086956521739,
          "velocity": 0.3937007874015748
        },
        {
          "duration": 0.05434782608696054,
          "durationTicks": 5,
          "midi": 81,
          "name": "A5",
          "ticks": 3612,
          "time": 39.26086956521739,
          "velocity": 0.30708661417322836
        },
        {
          "duration": 0.043478260869562746,
          "durationTicks": 4,
          "midi": 89,
          "name": "F6",
          "ticks": 3612,
          "time": 39.26086956521739,
          "velocity": 0.28346456692913385
        },
        {
          "duration": 0.06521739130435122,
          "durationTicks": 6,
          "midi": 66,
          "name": "F#4",
          "ticks": 3613,
          "time": 39.27173913043478,
          "velocity": 0.33858267716535434
        },
        {
          "duration": 0.03260869565217206,
          "durationTicks": 3,
          "midi": 77,
          "name": "F5",
          "ticks": 3613,
          "time": 39.27173913043478,
          "velocity": 0.3700787401574803
        },
        {
          "duration": 0.03260869565217206,
          "durationTicks": 3,
          "midi": 83,
          "name": "B5",
          "ticks": 3613,
          "time": 39.27173913043478,
          "velocity": 0.2047244094488189
        },
        {
          "duration": 0.03260869565217206,
          "durationTicks": 3,
          "midi": 86,
          "name": "D6",
          "ticks": 3613,
          "time": 39.27173913043478,
          "velocity": 0.1968503937007874
        },
        {
          "duration": 0.021739130434781373,
          "durationTicks": 2,
          "midi": 88,
          "name": "E6",
          "ticks": 3613,
          "time": 39.27173913043478,
          "velocity": 0.2677165354330709
        },
        {
          "duration": 0.05434782608696054,
          "durationTicks": 5,
          "midi": 90,
          "name": "F#6",
          "ticks": 3613,
          "time": 39.27173913043478,
          "velocity": 0.1889763779527559
        },
        {
          "duration": 0.03260869565217206,
          "durationTicks": 3,
          "midi": 92,
          "name": "G#6",
          "ticks": 3613,
          "time": 39.27173913043478,
          "velocity": 0.16535433070866143
        },
        {
          "duration": 0.021739130434781373,
          "durationTicks": 2,
          "midi": 70,
          "name": "A#4",
          "ticks": 3614,
          "time": 39.28260869565217,
          "velocity": 0.23622047244094488
        },
        {
          "duration": 0.032608695652179165,
          "durationTicks": 3,
          "midi": 79,
          "name": "G5",
          "ticks": 3614,
          "time": 39.28260869565217,
          "velocity": 0.07874015748031496
        },
        {
          "duration": 0.032608695652179165,
          "durationTicks": 3,
          "midi": 69,
          "name": "A4",
          "ticks": 3616,
          "time": 39.30434782608695,
          "velocity": 0.1968503937007874
        },
        {
          "duration": 0.03260869565217206,
          "durationTicks": 3,
          "midi": 74,
          "name": "D5",
          "ticks": 3618,
          "time": 39.32608695652174,
          "velocity": 0.2125984251968504
        },
        {
          "duration": 0.06521739130434412,
          "durationTicks": 6,
          "midi": 54,
          "name": "F#3",
          "ticks": 3619,
          "time": 39.33695652173913,
          "velocity": 0.2047244094488189
        },
        {
          "duration": 0.06521739130434412,
          "durationTicks": 6,
          "midi": 61,
          "name": "C#4",
          "ticks": 3619,
          "time": 39.33695652173913,
          "velocity": 0.23622047244094488
        },
        {
          "duration": 0.03260869565217206,
          "durationTicks": 3,
          "midi": 66,
          "name": "F#4",
          "ticks": 3625,
          "time": 39.40217391304348,
          "velocity": 0.09448818897637795
        },
        {
          "duration": 0.05434782608696054,
          "durationTicks": 5,
          "midi": 61,
          "name": "C#4",
          "ticks": 3626,
          "time": 39.41304347826087,
          "velocity": 0.09448818897637795
        },
        {
          "duration": 0.05434782608696054,
          "durationTicks": 5,
          "midi": 54,
          "name": "F#3",
          "ticks": 3627,
          "time": 39.42391304347826,
          "velocity": 0.47244094488188976
        },
        {
          "duration": 0.03260869565217206,
          "durationTicks": 3,
          "midi": 75,
          "name": "D#5",
          "ticks": 3631,
          "time": 39.46739130434783,
          "velocity": 0.18110236220472442
        },
        {
          "duration": 0.010869565217390686,
          "durationTicks": 1,
          "midi": 50,
          "name": "D3",
          "ticks": 3632,
          "time": 39.47826086956522,
          "velocity": 0.5826771653543307
        },
        {
          "duration": 0.021739130434781373,
          "durationTicks": 2,
          "midi": 56,
          "name": "G#3",
          "ticks": 3632,
          "time": 39.47826086956522,
          "velocity": 0.5354330708661418
        },
        {
          "duration": 0.010869565217390686,
          "durationTicks": 1,
          "midi": 49,
          "name": "C#3",
          "ticks": 3633,
          "time": 39.48913043478261,
          "velocity": 0.5433070866141733
        },
        {
          "duration": 0.1630434782608674,
          "durationTicks": 15,
          "midi": 47,
          "name": "B2",
          "ticks": 3634,
          "time": 39.5,
          "velocity": 0.4566929133858268
        },
        {
          "duration": 0.06521739130435122,
          "durationTicks": 6,
          "midi": 61,
          "name": "C#4",
          "ticks": 3634,
          "time": 39.5,
          "velocity": 0.3700787401574803
        },
        {
          "duration": 0.021739130434781373,
          "durationTicks": 2,
          "midi": 66,
          "name": "F#4",
          "ticks": 3634,
          "time": 39.5,
          "velocity": 0.25196850393700787
        },
        {
          "duration": 0.05434782608695343,
          "durationTicks": 5,
          "midi": 74,
          "name": "D5",
          "ticks": 3634,
          "time": 39.5,
          "velocity": 0.2047244094488189
        },
        {
          "duration": 0.021739130434781373,
          "durationTicks": 2,
          "midi": 54,
          "name": "F#3",
          "ticks": 3637,
          "time": 39.53260869565217,
          "velocity": 0.2992125984251969
        },
        {
          "duration": 0.021739130434781373,
          "durationTicks": 2,
          "midi": 54,
          "name": "F#3",
          "ticks": 3640,
          "time": 39.56521739130435,
          "velocity": 0.25196850393700787
        },
        {
          "duration": 0.0760869565217348,
          "durationTicks": 7,
          "midi": 68,
          "name": "G#4",
          "ticks": 3640,
          "time": 39.56521739130435,
          "velocity": 0.2440944881889764
        },
        {
          "duration": 0.021739130434781373,
          "durationTicks": 2,
          "midi": 60,
          "name": "C4",
          "ticks": 3641,
          "time": 39.57608695652174,
          "velocity": 0.30708661417322836
        },
        {
          "duration": 0.043478260869562746,
          "durationTicks": 4,
          "midi": 54,
          "name": "F#3",
          "ticks": 3643,
          "time": 39.59782608695652,
          "velocity": 0.33070866141732286
        },
        {
          "duration": 0.05434782608695343,
          "durationTicks": 5,
          "midi": 61,
          "name": "C#4",
          "ticks": 3643,
          "time": 39.59782608695652,
          "velocity": 0.2755905511811024
        },
        {
          "duration": 0.07608695652174191,
          "durationTicks": 7,
          "midi": 70,
          "name": "A#4",
          "ticks": 3646,
          "time": 39.630434782608695,
          "velocity": 0.15748031496062992
        },
        {
          "duration": 0.03260869565217206,
          "durationTicks": 3,
          "midi": 55,
          "name": "G3",
          "ticks": 3647,
          "time": 39.641304347826086,
          "velocity": 0.25984251968503935
        },
        {
          "duration": 0.04347826086956985,
          "durationTicks": 4,
          "midi": 54,
          "name": "F#3",
          "ticks": 3650,
          "time": 39.67391304347826,
          "velocity": 0.29133858267716534
        },
        {
          "duration": 0.021739130434781373,
          "durationTicks": 2,
          "midi": 55,
          "name": "G3",
          "ticks": 3656,
          "time": 39.73913043478261,
          "velocity": 0.2755905511811024
        },
        {
          "duration": 0.010869565217390686,
          "durationTicks": 1,
          "midi": 54,
          "name": "F#3",
          "ticks": 3658,
          "time": 39.76086956521739,
          "velocity": 0.5196850393700787
        },
        {
          "duration": 0.03260869565217206,
          "durationTicks": 3,
          "midi": 78,
          "name": "F#5",
          "ticks": 3658,
          "time": 39.76086956521739,
          "velocity": 0.2440944881889764
        },
        {
          "duration": 0.03260869565217206,
          "durationTicks": 3,
          "midi": 88,
          "name": "E6",
          "ticks": 3658,
          "time": 39.76086956521739,
          "velocity": 0.14173228346456693
        },
        {
          "duration": 0.010869565217390686,
          "durationTicks": 1,
          "midi": 50,
          "name": "D3",
          "ticks": 3659,
          "time": 39.77173913043478,
          "velocity": 0.5905511811023622
        },
        {
          "duration": 0.021739130434781373,
          "durationTicks": 2,
          "midi": 56,
          "name": "G#3",
          "ticks": 3659,
          "time": 39.77173913043478,
          "velocity": 0.5433070866141733
        },
        {
          "duration": 0.04347826086956985,
          "durationTicks": 4,
          "midi": 66,
          "name": "F#4",
          "ticks": 3659,
          "time": 39.77173913043478,
          "velocity": 0.3700787401574803
        },
        {
          "duration": 0.021739130434781373,
          "durationTicks": 2,
          "midi": 71,
          "name": "B4",
          "ticks": 3659,
          "time": 39.77173913043478,
          "velocity": 0.2677165354330709
        },
        {
          "duration": 0.010869565217390686,
          "durationTicks": 1,
          "midi": 49,
          "name": "C#3",
          "ticks": 3660,
          "time": 39.78260869565217,
          "velocity": 0.5196850393700787
        },
        {
          "duration": 0.1739130434782652,
          "durationTicks": 16,
          "midi": 47,
          "name": "B2",
          "ticks": 3661,
          "time": 39.79347826086956,
          "velocity": 0.4330708661417323
        },
        {
          "duration": 0.06521739130435122,
          "durationTicks": 6,
          "midi": 61,
          "name": "C#4",
          "ticks": 3661,
          "time": 39.79347826086956,
          "velocity": 0.3858267716535433
        },
        {
          "duration": 0.04347826086956985,
          "durationTicks": 4,
          "midi": 74,
          "name": "D5",
          "ticks": 3661,
          "time": 39.79347826086956,
          "velocity": 0.1889763779527559
        },
        {
          "duration": 0.021739130434781373,
          "durationTicks": 2,
          "midi": 68,
          "name": "G#4",
          "ticks": 3664,
          "time": 39.82608695652174,
          "velocity": 0.25196850393700787
        },
        {
          "duration": 0.021739130434781373,
          "durationTicks": 2,
          "midi": 55,
          "name": "G3",
          "ticks": 3665,
          "time": 39.83695652173913,
          "velocity": 0.2677165354330709
        },
        {
          "duration": 0.021739130434781373,
          "durationTicks": 2,
          "midi": 54,
          "name": "F#3",
          "ticks": 3667,
          "time": 39.858695652173914,
          "velocity": 0.28346456692913385
        },
        {
          "duration": 0.06521739130434412,
          "durationTicks": 6,
          "midi": 68,
          "name": "G#4",
          "ticks": 3667,
          "time": 39.858695652173914,
          "velocity": 0.25196850393700787
        },
        {
          "duration": 0.0869565217391326,
          "durationTicks": 8,
          "midi": 61,
          "name": "C#4",
          "ticks": 3669,
          "time": 39.880434782608695,
          "velocity": 0.31496062992125984
        },
        {
          "duration": 0.05434782608696054,
          "durationTicks": 5,
          "midi": 54,
          "name": "F#3",
          "ticks": 3670,
          "time": 39.891304347826086,
          "velocity": 0.33858267716535434
        },
        {
          "duration": 0.05434782608696054,
          "durationTicks": 5,
          "midi": 70,
          "name": "A#4",
          "ticks": 3673,
          "time": 39.92391304347826,
          "velocity": 0.1889763779527559
        },
        {
          "duration": 0.021739130434781373,
          "durationTicks": 2,
          "midi": 55,
          "name": "G3",
          "ticks": 3675,
          "time": 39.94565217391305,
          "velocity": 0.25984251968503935
        },
        {
          "duration": 0.06521739130434412,
          "durationTicks": 6,
          "midi": 54,
          "name": "F#3",
          "ticks": 3677,
          "time": 39.96739130434783,
          "velocity": 0.31496062992125984
        },
        {
          "duration": 0.043478260869562746,
          "durationTicks": 4,
          "midi": 70,
          "name": "A#4",
          "ticks": 3679,
          "time": 39.98913043478261,
          "velocity": 0.1889763779527559
        },
        {
          "duration": 0.032608695652179165,
          "durationTicks": 3,
          "midi": 55,
          "name": "G3",
          "ticks": 3683,
          "time": 40.03260869565217,
          "velocity": 0.29133858267716534
        },
        {
          "duration": 0.06521739130434412,
          "durationTicks": 6,
          "midi": 54,
          "name": "F#3",
          "ticks": 3686,
          "time": 40.06521739130435,
          "velocity": 0.3543307086614173
        },
        {
          "duration": 0.043478260869562746,
          "durationTicks": 4,
          "midi": 68,
          "name": "G#4",
          "ticks": 3687,
          "time": 40.07608695652174,
          "velocity": 0.15748031496062992
        },
        {
          "duration": 0.03260869565217206,
          "durationTicks": 3,
          "midi": 61,
          "name": "C#4",
          "ticks": 3692,
          "time": 40.130434782608695,
          "velocity": 0.11023622047244094
        },
        {
          "duration": 0.05434782608696054,
          "durationTicks": 5,
          "midi": 54,
          "name": "F#3",
          "ticks": 3693,
          "time": 40.141304347826086,
          "velocity": 0.30708661417322836
        },
        {
          "duration": 0.04347826086956985,
          "durationTicks": 4,
          "midi": 68,
          "name": "G#4",
          "ticks": 3696,
          "time": 40.17391304347826,
          "velocity": 0.11811023622047244
        },
        {
          "duration": 0.021739130434781373,
          "durationTicks": 2,
          "midi": 55,
          "name": "G3",
          "ticks": 3698,
          "time": 40.19565217391305,
          "velocity": 0.2283464566929134
        },
        {
          "duration": 0.06521739130434412,
          "durationTicks": 6,
          "midi": 54,
          "name": "F#3",
          "ticks": 3700,
          "time": 40.21739130434783,
          "velocity": 0.28346456692913385
        },
        {
          "duration": 0.010869565217390686,
          "durationTicks": 1,
          "midi": 52,
          "name": "E3",
          "ticks": 3756,
          "time": 40.82608695652174,
          "velocity": 0.5433070866141733
        },
        {
          "duration": 0.021739130434781373,
          "durationTicks": 2,
          "midi": 69,
          "name": "A4",
          "ticks": 3756,
          "time": 40.82608695652174,
          "velocity": 0.2677165354330709
        },
        {
          "duration": 0.03260869565217206,
          "durationTicks": 3,
          "midi": 78,
          "name": "F#5",
          "ticks": 3756,
          "time": 40.82608695652174,
          "velocity": 0.2677165354330709
        },
        {
          "duration": 0.010869565217390686,
          "durationTicks": 1,
          "midi": 50,
          "name": "D3",
          "ticks": 3757,
          "time": 40.83695652173913,
          "velocity": 0.6062992125984252
        },
        {
          "duration": 0.021739130434781373,
          "durationTicks": 2,
          "midi": 56,
          "name": "G#3",
          "ticks": 3757,
          "time": 40.83695652173913,
          "velocity": 0.5433070866141733
        },
        {
          "duration": 0.021739130434781373,
          "durationTicks": 2,
          "midi": 47,
          "name": "B2",
          "ticks": 3758,
          "time": 40.84782608695652,
          "velocity": 0.5118110236220472
        },
        {
          "duration": 0.06521739130434412,
          "durationTicks": 6,
          "midi": 61,
          "name": "C#4",
          "ticks": 3759,
          "time": 40.858695652173914,
          "velocity": 0.3700787401574803
        },
        {
          "duration": 0.021739130434781373,
          "durationTicks": 2,
          "midi": 66,
          "name": "F#4",
          "ticks": 3759,
          "time": 40.858695652173914,
          "velocity": 0.2755905511811024
        },
        {
          "duration": 0.0760869565217348,
          "durationTicks": 7,
          "midi": 74,
          "name": "D5",
          "ticks": 3759,
          "time": 40.858695652173914,
          "velocity": 0.1889763779527559
        },
        {
          "duration": 0.1630434782608674,
          "durationTicks": 15,
          "midi": 47,
          "name": "B2",
          "ticks": 3761,
          "time": 40.880434782608695,
          "velocity": 0.44881889763779526
        },
        {
          "duration": 0.09782608695652328,
          "durationTicks": 9,
          "midi": 68,
          "name": "G#4",
          "ticks": 3762,
          "time": 40.891304347826086,
          "velocity": 0.25984251968503935
        },
        {
          "duration": 0.032608695652179165,
          "durationTicks": 3,
          "midi": 54,
          "name": "F#3",
          "ticks": 3764,
          "time": 40.91304347826087,
          "velocity": 0.33070866141732286
        },
        {
          "duration": 0.08695652173912549,
          "durationTicks": 8,
          "midi": 61,
          "name": "C#4",
          "ticks": 3767,
          "time": 40.94565217391305,
          "velocity": 0.31496062992125984
        },
        {
          "duration": 0.05434782608695343,
          "durationTicks": 5,
          "midi": 54,
          "name": "F#3",
          "ticks": 3768,
          "time": 40.95652173913044,
          "velocity": 0.33070866141732286
        },
        {
          "duration": 0.07608695652174191,
          "durationTicks": 7,
          "midi": 70,
          "name": "A#4",
          "ticks": 3771,
          "time": 40.98913043478261,
          "velocity": 0.1968503937007874
        },
        {
          "duration": 0.0869565217391326,
          "durationTicks": 8,
          "midi": 54,
          "name": "F#3",
          "ticks": 3774,
          "time": 41.02173913043478,
          "velocity": 0.29133858267716534
        },
        {
          "duration": 0.021739130434781373,
          "durationTicks": 2,
          "midi": 58,
          "name": "A#3",
          "ticks": 3780,
          "time": 41.08695652173913,
          "velocity": 0.2283464566929134
        },
        {
          "duration": 0.021739130434781373,
          "durationTicks": 2,
          "midi": 55,
          "name": "G3",
          "ticks": 3782,
          "time": 41.108695652173914,
          "velocity": 0.2992125984251969
        },
        {
          "duration": 0.021739130434781373,
          "durationTicks": 2,
          "midi": 60,
          "name": "C4",
          "ticks": 3782,
          "time": 41.108695652173914,
          "velocity": 0.28346456692913385
        },
        {
          "duration": 0.18478260869565588,
          "durationTicks": 17,
          "midi": 54,
          "name": "F#3",
          "ticks": 3784,
          "time": 41.130434782608695,
          "velocity": 0.31496062992125984
        },
        {
          "duration": 0.04347826086956985,
          "durationTicks": 4,
          "midi": 61,
          "name": "C#4",
          "ticks": 3789,
          "time": 41.18478260869565,
          "velocity": 0.16535433070866143
        },
        {
          "duration": 0.043478260869562746,
          "durationTicks": 4,
          "midi": 68,
          "name": "G#4",
          "ticks": 3794,
          "time": 41.23913043478261,
          "velocity": 0.11023622047244094
        },
        {
          "duration": 0.010869565217390686,
          "durationTicks": 1,
          "midi": 52,
          "name": "E3",
          "ticks": 3801,
          "time": 41.31521739130435,
          "velocity": 0.5433070866141733
        },
        {
          "duration": 0.010869565217390686,
          "durationTicks": 1,
          "midi": 58,
          "name": "A#3",
          "ticks": 3801,
          "time": 41.31521739130435,
          "velocity": 0.5118110236220472
        },
        {
          "duration": 0.021739130434781373,
          "durationTicks": 2,
          "midi": 78,
          "name": "F#5",
          "ticks": 3801,
          "time": 41.31521739130435,
          "velocity": 0.23622047244094488
        },
        {
          "duration": 0.010869565217390686,
          "durationTicks": 1,
          "midi": 49,
          "name": "C#3",
          "ticks": 3802,
          "time": 41.32608695652174,
          "velocity": 0.5984251968503937
        },
        {
          "duration": 0.010869565217390686,
          "durationTicks": 1,
          "midi": 56,
          "name": "G#3",
          "ticks": 3802,
          "time": 41.32608695652174,
          "velocity": 0.5118110236220472
        },
        {
          "duration": 0.19565217391303946,
          "durationTicks": 18,
          "midi": 47,
          "name": "B2",
          "ticks": 3803,
          "time": 41.33695652173913,
          "velocity": 0.5118110236220472
        },
        {
          "duration": 0.05434782608695343,
          "durationTicks": 5,
          "midi": 61,
          "name": "C#4",
          "ticks": 3804,
          "time": 41.34782608695652,
          "velocity": 0.3228346456692913
        },
        {
          "duration": 0.0760869565217348,
          "durationTicks": 7,
          "midi": 74,
          "name": "D5",
          "ticks": 3804,
          "time": 41.34782608695652,
          "velocity": 0.2047244094488189
        },
        {
          "duration": 0.09782608695652328,
          "durationTicks": 9,
          "midi": 68,
          "name": "G#4",
          "ticks": 3807,
          "time": 41.380434782608695,
          "velocity": 0.2440944881889764
        },
        {
          "duration": 0.03260869565217206,
          "durationTicks": 3,
          "midi": 54,
          "name": "F#3",
          "ticks": 3809,
          "time": 41.40217391304348,
          "velocity": 0.33070866141732286
        },
        {
          "duration": 0.02173913043478848,
          "durationTicks": 2,
          "midi": 60,
          "name": "C4",
          "ticks": 3811,
          "time": 41.42391304347826,
          "velocity": 0.23622047244094488
        },
        {
          "duration": 0.15217391304347672,
          "durationTicks": 14,
          "midi": 54,
          "name": "F#3",
          "ticks": 3813,
          "time": 41.44565217391305,
          "velocity": 0.3464566929133858
        },
        {
          "duration": 0.043478260869562746,
          "durationTicks": 4,
          "midi": 61,
          "name": "C#4",
          "ticks": 3815,
          "time": 41.46739130434783,
          "velocity": 0.1732283464566929
        },
        {
          "duration": 0.043478260869562746,
          "durationTicks": 4,
          "midi": 70,
          "name": "A#4",
          "ticks": 3819,
          "time": 41.51086956521739,
          "velocity": 0.09448818897637795
        },
        {
          "duration": 0.05434782608695343,
          "durationTicks": 5,
          "midi": 70,
          "name": "A#4",
          "ticks": 3824,
          "time": 41.56521739130435,
          "velocity": 0.07874015748031496
        },
        {
          "duration": 0.21739130434782794,
          "durationTicks": 20,
          "midi": 54,
          "name": "F#3",
          "ticks": 3828,
          "time": 41.608695652173914,
          "velocity": 0.4409448818897638
        },
        {
          "duration": 0.03260869565217206,
          "durationTicks": 3,
          "midi": 75,
          "name": "D#5",
          "ticks": 3847,
          "time": 41.81521739130435,
          "velocity": 0.1889763779527559
        },
        {
          "duration": 0.03260869565217206,
          "durationTicks": 3,
          "midi": 78,
          "name": "F#5",
          "ticks": 3847,
          "time": 41.81521739130435,
          "velocity": 0.29133858267716534
        },
        {
          "duration": 0.010869565217390686,
          "durationTicks": 1,
          "midi": 52,
          "name": "E3",
          "ticks": 3848,
          "time": 41.82608695652174,
          "velocity": 0.5590551181102362
        },
        {
          "duration": 0.021739130434781373,
          "durationTicks": 2,
          "midi": 56,
          "name": "G#3",
          "ticks": 3848,
          "time": 41.82608695652174,
          "velocity": 0.5590551181102362
        },
        {
          "duration": 0.021739130434781373,
          "durationTicks": 2,
          "midi": 66,
          "name": "F#4",
          "ticks": 3848,
          "time": 41.82608695652174,
          "velocity": 0.2992125984251969
        },
        {
          "duration": 0.021739130434781373,
          "durationTicks": 2,
          "midi": 71,
          "name": "B4",
          "ticks": 3848,
          "time": 41.82608695652174,
          "velocity": 0.2440944881889764
        },
        {
          "duration": 0.010869565217390686,
          "durationTicks": 1,
          "midi": 49,
          "name": "C#3",
          "ticks": 3849,
          "time": 41.83695652173913,
          "velocity": 0.5669291338582677
        },
        {
          "duration": 0.18478260869564878,
          "durationTicks": 17,
          "midi": 47,
          "name": "B2",
          "ticks": 3850,
          "time": 41.84782608695652,
          "velocity": 0.4645669291338583
        },
        {
          "duration": 0.06521739130434412,
          "durationTicks": 6,
          "midi": 61,
          "name": "C#4",
          "ticks": 3850,
          "time": 41.84782608695652,
          "velocity": 0.4094488188976378
        },
        {
          "duration": 0.03260869565217206,
          "durationTicks": 3,
          "midi": 74,
          "name": "D5",
          "ticks": 3851,
          "time": 41.858695652173914,
          "velocity": 0.08661417322834646
        },
        {
          "duration": 0.021739130434781373,
          "durationTicks": 2,
          "midi": 70,
          "name": "A#4",
          "ticks": 3852,
          "time": 41.869565217391305,
          "velocity": 0.2283464566929134
        },
        {
          "duration": 0.021739130434781373,
          "durationTicks": 2,
          "midi": 54,
          "name": "F#3",
          "ticks": 3853,
          "time": 41.880434782608695,
          "velocity": 0.31496062992125984
        },
        {
          "duration": 0.03260869565217206,
          "durationTicks": 3,
          "midi": 55,
          "name": "G3",
          "ticks": 3855,
          "time": 41.90217391304348,
          "velocity": 0.11811023622047244
        },
        {
          "duration": 0.05434782608696054,
          "durationTicks": 5,
          "midi": 70,
          "name": "A#4",
          "ticks": 3855,
          "time": 41.90217391304348,
          "velocity": 0.18110236220472442
        },
        {
          "duration": 0.032608695652179165,
          "durationTicks": 3,
          "midi": 54,
          "name": "F#3",
          "ticks": 3858,
          "time": 41.93478260869565,
          "velocity": 0.3700787401574803
        },
        {
          "duration": 0.0760869565217348,
          "durationTicks": 7,
          "midi": 61,
          "name": "C#4",
          "ticks": 3859,
          "time": 41.94565217391305,
          "velocity": 0.33858267716535434
        },
        {
          "duration": 0.043478260869562746,
          "durationTicks": 4,
          "midi": 68,
          "name": "G#4",
          "ticks": 3859,
          "time": 41.94565217391305,
          "velocity": 0.23622047244094488
        },
        {
          "duration": 0.021739130434781373,
          "durationTicks": 2,
          "midi": 54,
          "name": "F#3",
          "ticks": 3862,
          "time": 41.97826086956522,
          "velocity": 0.33070866141732286
        },
        {
          "duration": 0.05434782608695343,
          "durationTicks": 5,
          "midi": 70,
          "name": "A#4",
          "ticks": 3862,
          "time": 41.97826086956522,
          "velocity": 0.2047244094488189
        },
        {
          "duration": 0.021739130434781373,
          "durationTicks": 2,
          "midi": 55,
          "name": "G3",
          "ticks": 3864,
          "time": 42,
          "velocity": 0.25984251968503935
        },
        {
          "duration": 0.03260869565217206,
          "durationTicks": 3,
          "midi": 60,
          "name": "C4",
          "ticks": 3866,
          "time": 42.02173913043478,
          "velocity": 0.14960629921259844
        },
        {
          "duration": 0.02173913043478848,
          "durationTicks": 2,
          "midi": 54,
          "name": "F#3",
          "ticks": 3868,
          "time": 42.04347826086956,
          "velocity": 0.33070866141732286
        },
        {
          "duration": 0.07608695652174191,
          "durationTicks": 7,
          "midi": 70,
          "name": "A#4",
          "ticks": 3868,
          "time": 42.04347826086956,
          "velocity": 0.2047244094488189
        },
        {
          "duration": 0.03260869565217206,
          "durationTicks": 3,
          "midi": 53,
          "name": "F3",
          "ticks": 3870,
          "time": 42.06521739130435,
          "velocity": 0.23622047244094488
        },
        {
          "duration": 0.021739130434781373,
          "durationTicks": 2,
          "midi": 59,
          "name": "B3",
          "ticks": 3872,
          "time": 42.08695652173913,
          "velocity": 0.2440944881889764
        },
        {
          "duration": 0.021739130434781373,
          "durationTicks": 2,
          "midi": 54,
          "name": "F#3",
          "ticks": 3874,
          "time": 42.108695652173914,
          "velocity": 0.30708661417322836
        },
        {
          "duration": 0.03260869565217206,
          "durationTicks": 3,
          "midi": 59,
          "name": "B3",
          "ticks": 3875,
          "time": 42.119565217391305,
          "velocity": 0.1732283464566929
        },
        {
          "duration": 0.04347826086956985,
          "durationTicks": 4,
          "midi": 61,
          "name": "C#4",
          "ticks": 3881,
          "time": 42.18478260869565,
          "velocity": 0.10236220472440945
        },
        {
          "duration": 0.03260869565217206,
          "durationTicks": 3,
          "midi": 54,
          "name": "F#3",
          "ticks": 3882,
          "time": 42.19565217391305,
          "velocity": 0.28346456692913385
        },
        {
          "duration": 0.04347826086956985,
          "durationTicks": 4,
          "midi": 54,
          "name": "F#3",
          "ticks": 3889,
          "time": 42.27173913043478,
          "velocity": 0.25196850393700787
        },
        {
          "duration": 0.03260869565217206,
          "durationTicks": 3,
          "midi": 47,
          "name": "B2",
          "ticks": 3896,
          "time": 42.34782608695652,
          "velocity": 0.13385826771653545
        },
        {
          "duration": 0.14130434782608603,
          "durationTicks": 13,
          "midi": 53,
          "name": "F3",
          "ticks": 3900,
          "time": 42.391304347826086,
          "velocity": 0.13385826771653545
        },
        {
          "duration": 0.05434782608695343,
          "durationTicks": 5,
          "midi": 72,
          "name": "C5",
          "ticks": 3942,
          "time": 42.84782608695652,
          "velocity": 0.23622047244094488
        },
        {
          "duration": 0.043478260869562746,
          "durationTicks": 4,
          "midi": 75,
          "name": "D#5",
          "ticks": 3943,
          "time": 42.858695652173914,
          "velocity": 0.1732283464566929
        },
        {
          "duration": 0.03260869565217206,
          "durationTicks": 3,
          "midi": 77,
          "name": "F5",
          "ticks": 3943,
          "time": 42.858695652173914,
          "velocity": 0.2440944881889764
        },
        {
          "duration": 0.04347826086956985,
          "durationTicks": 4,
          "midi": 61,
          "name": "C#4",
          "ticks": 3949,
          "time": 42.92391304347826,
          "velocity": 0.13385826771653545
        },
        {
          "duration": 0.010869565217390686,
          "durationTicks": 1,
          "midi": 54,
          "name": "F#3",
          "ticks": 3974,
          "time": 43.19565217391305,
          "velocity": 0.5275590551181102
        },
        {
          "duration": 0.03260869565217206,
          "durationTicks": 3,
          "midi": 78,
          "name": "F#5",
          "ticks": 3974,
          "time": 43.19565217391305,
          "velocity": 0.25984251968503935
        },
        {
          "duration": 0.010869565217390686,
          "durationTicks": 1,
          "midi": 50,
          "name": "D3",
          "ticks": 3975,
          "time": 43.20652173913044,
          "velocity": 0.6062992125984252
        },
        {
          "duration": 0.021739130434781373,
          "durationTicks": 2,
          "midi": 56,
          "name": "G#3",
          "ticks": 3975,
          "time": 43.20652173913044,
          "velocity": 0.5669291338582677
        },
        {
          "duration": 0.043478260869562746,
          "durationTicks": 4,
          "midi": 66,
          "name": "F#4",
          "ticks": 3975,
          "time": 43.20652173913044,
          "velocity": 0.3937007874015748
        },
        {
          "duration": 0.1739130434782581,
          "durationTicks": 16,
          "midi": 47,
          "name": "B2",
          "ticks": 3976,
          "time": 43.21739130434783,
          "velocity": 0.5275590551181102
        },
        {
          "duration": 0.06521739130434412,
          "durationTicks": 6,
          "midi": 61,
          "name": "C#4",
          "ticks": 3977,
          "time": 43.22826086956522,
          "velocity": 0.36220472440944884
        },
        {
          "duration": 0.043478260869562746,
          "durationTicks": 4,
          "midi": 74,
          "name": "D5",
          "ticks": 3977,
          "time": 43.22826086956522,
          "velocity": 0.2047244094488189
        },
        {
          "duration": 0.021739130434781373,
          "durationTicks": 2,
          "midi": 67,
          "name": "G4",
          "ticks": 3979,
          "time": 43.25,
          "velocity": 0.2677165354330709
        },
        {
          "duration": 0.021739130434781373,
          "durationTicks": 2,
          "midi": 68,
          "name": "G#4",
          "ticks": 3980,
          "time": 43.26086956521739,
          "velocity": 0.23622047244094488
        },
        {
          "duration": 0.021739130434781373,
          "durationTicks": 2,
          "midi": 55,
          "name": "G3",
          "ticks": 3981,
          "time": 43.27173913043478,
          "velocity": 0.25984251968503935
        },
        {
          "duration": 0.02173913043478848,
          "durationTicks": 2,
          "midi": 54,
          "name": "F#3",
          "ticks": 3983,
          "time": 43.29347826086956,
          "velocity": 0.28346456692913385
        },
        {
          "duration": 0.06521739130435122,
          "durationTicks": 6,
          "midi": 68,
          "name": "G#4",
          "ticks": 3983,
          "time": 43.29347826086956,
          "velocity": 0.25196850393700787
        },
        {
          "duration": 0.06521739130434412,
          "durationTicks": 6,
          "midi": 61,
          "name": "C#4",
          "ticks": 3985,
          "time": 43.31521739130435,
          "velocity": 0.3464566929133858
        },
        {
          "duration": 0.043478260869562746,
          "durationTicks": 4,
          "midi": 54,
          "name": "F#3",
          "ticks": 3986,
          "time": 43.32608695652174,
          "velocity": 0.3543307086614173
        },
        {
          "duration": 0.0760869565217348,
          "durationTicks": 7,
          "midi": 70,
          "name": "A#4",
          "ticks": 3989,
          "time": 43.358695652173914,
          "velocity": 0.2047244094488189
        },
        {
          "duration": 0.03260869565217206,
          "durationTicks": 3,
          "midi": 55,
          "name": "G3",
          "ticks": 3990,
          "time": 43.369565217391305,
          "velocity": 0.2992125984251969
        },
        {
          "duration": 0.03260869565217206,
          "durationTicks": 3,
          "midi": 66,
          "name": "F#4",
          "ticks": 3990,
          "time": 43.369565217391305,
          "velocity": 0.23622047244094488
        },
        {
          "duration": 0.043478260869562746,
          "durationTicks": 4,
          "midi": 60,
          "name": "C4",
          "ticks": 3991,
          "time": 43.380434782608695,
          "velocity": 0.2755905511811024
        },
        {
          "duration": 0.06521739130435122,
          "durationTicks": 6,
          "midi": 73,
          "name": "C#5",
          "ticks": 3991,
          "time": 43.380434782608695,
          "velocity": 0.08661417322834646
        },
        {
          "duration": 0.04347826086956985,
          "durationTicks": 4,
          "midi": 54,
          "name": "F#3",
          "ticks": 3993,
          "time": 43.40217391304348,
          "velocity": 0.3464566929133858
        },
        {
          "duration": 0.021739130434781373,
          "durationTicks": 2,
          "midi": 60,
          "name": "C4",
          "ticks": 4000,
          "time": 43.47826086956522,
          "velocity": 0.2992125984251969
        },
        {
          "duration": 0.05434782608695343,
          "durationTicks": 5,
          "midi": 54,
          "name": "F#3",
          "ticks": 4001,
          "time": 43.48913043478261,
          "velocity": 0.3543307086614173
        },
        {
          "duration": 0.021739130434781373,
          "durationTicks": 2,
          "midi": 59,
          "name": "B3",
          "ticks": 4002,
          "time": 43.5,
          "velocity": 0.2283464566929134
        },
        {
          "duration": 0.03260869565217206,
          "durationTicks": 3,
          "midi": 61,
          "name": "C#4",
          "ticks": 4004,
          "time": 43.52173913043478,
          "velocity": 0.1889763779527559
        },
        {
          "duration": 0.06521739130435122,
          "durationTicks": 6,
          "midi": 54,
          "name": "F#3",
          "ticks": 4007,
          "time": 43.55434782608695,
          "velocity": 0.33070866141732286
        },
        {
          "duration": 0.03260869565217206,
          "durationTicks": 3,
          "midi": 61,
          "name": "C#4",
          "ticks": 4008,
          "time": 43.56521739130435,
          "velocity": 0.18110236220472442
        },
        {
          "duration": 0.043478260869562746,
          "durationTicks": 4,
          "midi": 68,
          "name": "G#4",
          "ticks": 4012,
          "time": 43.608695652173914,
          "velocity": 0.09448818897637795
        },
        {
          "duration": 0.06521739130435122,
          "durationTicks": 6,
          "midi": 54,
          "name": "F#3",
          "ticks": 4015,
          "time": 43.641304347826086,
          "velocity": 0.2992125984251969
        },
        {
          "duration": 0.04347826086956985,
          "durationTicks": 4,
          "midi": 81,
          "name": "A5",
          "ticks": 4017,
          "time": 43.66304347826087,
          "velocity": 0.2755905511811024
        },
        {
          "duration": 0.04347826086956985,
          "durationTicks": 4,
          "midi": 88,
          "name": "E6",
          "ticks": 4017,
          "time": 43.66304347826087,
          "velocity": 0.2440944881889764
        },
        {
          "duration": 0.032608695652179165,
          "durationTicks": 3,
          "midi": 92,
          "name": "G#6",
          "ticks": 4017,
          "time": 43.66304347826087,
          "velocity": 0.2125984251968504
        },
        {
          "duration": 0.04347826086956985,
          "durationTicks": 4,
          "midi": 93,
          "name": "A6",
          "ticks": 4017,
          "time": 43.66304347826087,
          "velocity": 0.30708661417322836
        },
        {
          "duration": 0.02173913043478848,
          "durationTicks": 2,
          "midi": 73,
          "name": "C#5",
          "ticks": 4018,
          "time": 43.67391304347826,
          "velocity": 0.33858267716535434
        },
        {
          "duration": 0.07608695652174191,
          "durationTicks": 7,
          "midi": 77,
          "name": "F5",
          "ticks": 4018,
          "time": 43.67391304347826,
          "velocity": 0.36220472440944884
        },
        {
          "duration": 0.04347826086956985,
          "durationTicks": 4,
          "midi": 87,
          "name": "D#6",
          "ticks": 4018,
          "time": 43.67391304347826,
          "velocity": 0.2440944881889764
        },
        {
          "duration": 0.05434782608696054,
          "durationTicks": 5,
          "midi": 94,
          "name": "A#6",
          "ticks": 4018,
          "time": 43.67391304347826,
          "velocity": 0.14960629921259844
        },
        {
          "duration": 0.021739130434781373,
          "durationTicks": 2,
          "midi": 75,
          "name": "D#5",
          "ticks": 4020,
          "time": 43.69565217391305,
          "velocity": 0.23622047244094488
        },
        {
          "duration": 0.03260869565217206,
          "durationTicks": 3,
          "midi": 71,
          "name": "B4",
          "ticks": 4021,
          "time": 43.70652173913044,
          "velocity": 0.14173228346456693
        },
        {
          "duration": 0.05434782608695343,
          "durationTicks": 5,
          "midi": 54,
          "name": "F#3",
          "ticks": 4023,
          "time": 43.72826086956522,
          "velocity": 0.25984251968503935
        },
        {
          "duration": 0.043478260869562746,
          "durationTicks": 4,
          "midi": 61,
          "name": "C#4",
          "ticks": 4024,
          "time": 43.73913043478261,
          "velocity": 0.2283464566929134
        },
        {
          "duration": 0.032608695652179165,
          "durationTicks": 3,
          "midi": 55,
          "name": "G3",
          "ticks": 4028,
          "time": 43.78260869565217,
          "velocity": 0.1732283464566929
        },
        {
          "duration": 0.032608695652179165,
          "durationTicks": 3,
          "midi": 68,
          "name": "G#4",
          "ticks": 4028,
          "time": 43.78260869565217,
          "velocity": 0.09448818897637795
        },
        {
          "duration": 0.05434782608695343,
          "durationTicks": 5,
          "midi": 54,
          "name": "F#3",
          "ticks": 4031,
          "time": 43.81521739130435,
          "velocity": 0.2283464566929134
        },
        {
          "duration": 0.03260869565217206,
          "durationTicks": 3,
          "midi": 61,
          "name": "C#4",
          "ticks": 4033,
          "time": 43.83695652173913,
          "velocity": 0.08661417322834646
        },
        {
          "duration": 0.05434782608696054,
          "durationTicks": 5,
          "midi": 54,
          "name": "F#3",
          "ticks": 4038,
          "time": 43.891304347826086,
          "velocity": 0.4015748031496063
        },
        {
          "duration": 0.032608695652179165,
          "durationTicks": 3,
          "midi": 75,
          "name": "D#5",
          "ticks": 4042,
          "time": 43.93478260869565,
          "velocity": 0.18110236220472442
        },
        {
          "duration": 0.07608695652174191,
          "durationTicks": 7,
          "midi": 78,
          "name": "F#5",
          "ticks": 4042,
          "time": 43.93478260869565,
          "velocity": 0.2677165354330709
        },
        {
          "duration": 0.010869565217390686,
          "durationTicks": 1,
          "midi": 52,
          "name": "E3",
          "ticks": 4043,
          "time": 43.94565217391305,
          "velocity": 0.5669291338582677
        },
        {
          "duration": 0.021739130434781373,
          "durationTicks": 2,
          "midi": 56,
          "name": "G#3",
          "ticks": 4043,
          "time": 43.94565217391305,
          "velocity": 0.5433070866141733
        },
        {
          "duration": 0.021739130434781373,
          "durationTicks": 2,
          "midi": 66,
          "name": "F#4",
          "ticks": 4043,
          "time": 43.94565217391305,
          "velocity": 0.3543307086614173
        },
        {
          "duration": 0.010869565217390686,
          "durationTicks": 1,
          "midi": 49,
          "name": "C#3",
          "ticks": 4044,
          "time": 43.95652173913044,
          "velocity": 0.5826771653543307
        },
        {
          "duration": 0.1630434782608674,
          "durationTicks": 15,
          "midi": 47,
          "name": "B2",
          "ticks": 4045,
          "time": 43.96739130434783,
          "velocity": 0.47244094488188976
        },
        {
          "duration": 0.05434782608695343,
          "durationTicks": 5,
          "midi": 74,
          "name": "D5",
          "ticks": 4045,
          "time": 43.96739130434783,
          "velocity": 0.1968503937007874
        },
        {
          "duration": 0.05434782608695343,
          "durationTicks": 5,
          "midi": 61,
          "name": "C#4",
          "ticks": 4046,
          "time": 43.97826086956522,
          "velocity": 0.29133858267716534
        },
        {
          "duration": 0.11956521739130466,
          "durationTicks": 11,
          "midi": 68,
          "name": "G#4",
          "ticks": 4046,
          "time": 43.97826086956522,
          "velocity": 0.25984251968503935
        },
        {
          "duration": 0.032608695652179165,
          "durationTicks": 3,
          "midi": 54,
          "name": "F#3",
          "ticks": 4051,
          "time": 44.03260869565217,
          "velocity": 0.30708661417322836
        },
        {
          "duration": 0.08695652173912549,
          "durationTicks": 8,
          "midi": 61,
          "name": "C#4",
          "ticks": 4054,
          "time": 44.06521739130435,
          "velocity": 0.3228346456692913
        },
        {
          "duration": 0.021739130434781373,
          "durationTicks": 2,
          "midi": 54,
          "name": "F#3",
          "ticks": 4057,
          "time": 44.09782608695652,
          "velocity": 0.30708661417322836
        },
        {
          "duration": 0.10869565217391397,
          "durationTicks": 10,
          "midi": 70,
          "name": "A#4",
          "ticks": 4057,
          "time": 44.09782608695652,
          "velocity": 0.25984251968503935
        },
        {
          "duration": 0.021739130434781373,
          "durationTicks": 2,
          "midi": 55,
          "name": "G3",
          "ticks": 4059,
          "time": 44.119565217391305,
          "velocity": 0.2755905511811024
        },
        {
          "duration": 0.05434782608696054,
          "durationTicks": 5,
          "midi": 54,
          "name": "F#3",
          "ticks": 4061,
          "time": 44.141304347826086,
          "velocity": 0.29133858267716534
        },
        {
          "duration": 0.02173913043478848,
          "durationTicks": 2,
          "midi": 67,
          "name": "G4",
          "ticks": 4065,
          "time": 44.18478260869565,
          "velocity": 0.2440944881889764
        },
        {
          "duration": 0.03260869565217206,
          "durationTicks": 3,
          "midi": 56,
          "name": "G#3",
          "ticks": 4066,
          "time": 44.19565217391305,
          "velocity": 0.5118110236220472
        },
        {
          "duration": 0.03260869565217206,
          "durationTicks": 3,
          "midi": 73,
          "name": "C#5",
          "ticks": 4066,
          "time": 44.19565217391305,
          "velocity": 0.2125984251968504
        },
        {
          "duration": 0.03260869565217206,
          "durationTicks": 3,
          "midi": 79,
          "name": "G5",
          "ticks": 4066,
          "time": 44.19565217391305,
          "velocity": 0.2677165354330709
        },
        {
          "duration": 0.010869565217390686,
          "durationTicks": 1,
          "midi": 50,
          "name": "D3",
          "ticks": 4067,
          "time": 44.20652173913044,
          "velocity": 0.5905511811023622
        },
        {
          "duration": 0.1739130434782581,
          "durationTicks": 16,
          "midi": 47,
          "name": "B2",
          "ticks": 4068,
          "time": 44.21739130434783,
          "velocity": 0.5275590551181102
        },
        {
          "duration": 0.05434782608695343,
          "durationTicks": 5,
          "midi": 61,
          "name": "C#4",
          "ticks": 4069,
          "time": 44.22826086956522,
          "velocity": 0.3228346456692913
        },
        {
          "duration": 0.021739130434781373,
          "durationTicks": 2,
          "midi": 66,
          "name": "F#4",
          "ticks": 4069,
          "time": 44.22826086956522,
          "velocity": 0.31496062992125984
        },
        {
          "duration": 0.05434782608695343,
          "durationTicks": 5,
          "midi": 74,
          "name": "D5",
          "ticks": 4069,
          "time": 44.22826086956522,
          "velocity": 0.2283464566929134
        },
        {
          "duration": 0.03260869565217206,
          "durationTicks": 3,
          "midi": 54,
          "name": "F#3",
          "ticks": 4070,
          "time": 44.23913043478261,
          "velocity": 0.3228346456692913
        },
        {
          "duration": 0.021739130434781373,
          "durationTicks": 2,
          "midi": 67,
          "name": "G4",
          "ticks": 4071,
          "time": 44.25,
          "velocity": 0.25984251968503935
        },
        {
          "duration": 0.021739130434781373,
          "durationTicks": 2,
          "midi": 55,
          "name": "G3",
          "ticks": 4073,
          "time": 44.27173913043478,
          "velocity": 0.2755905511811024
        },
        {
          "duration": 0.021739130434781373,
          "durationTicks": 2,
          "midi": 62,
          "name": "D4",
          "ticks": 4074,
          "time": 44.28260869565217,
          "velocity": 0.25984251968503935
        },
        {
          "duration": 0.02173913043478848,
          "durationTicks": 2,
          "midi": 54,
          "name": "F#3",
          "ticks": 4075,
          "time": 44.29347826086956,
          "velocity": 0.29133858267716534
        },
        {
          "duration": 0.06521739130435122,
          "durationTicks": 6,
          "midi": 68,
          "name": "G#4",
          "ticks": 4075,
          "time": 44.29347826086956,
          "velocity": 0.25984251968503935
        },
        {
          "duration": 0.07608695652174191,
          "durationTicks": 7,
          "midi": 61,
          "name": "C#4",
          "ticks": 4076,
          "time": 44.30434782608695,
          "velocity": 0.33070866141732286
        },
        {
          "duration": 0.043478260869562746,
          "durationTicks": 4,
          "midi": 54,
          "name": "F#3",
          "ticks": 4078,
          "time": 44.32608695652174,
          "velocity": 0.3700787401574803
        },
        {
          "duration": 0.0760869565217348,
          "durationTicks": 7,
          "midi": 70,
          "name": "A#4",
          "ticks": 4081,
          "time": 44.358695652173914,
          "velocity": 0.2047244094488189
        },
        {
          "duration": 0.021739130434781373,
          "durationTicks": 2,
          "midi": 55,
          "name": "G3",
          "ticks": 4082,
          "time": 44.369565217391305,
          "velocity": 0.29133858267716534
        },
        {
          "duration": 0.03260869565217206,
          "durationTicks": 3,
          "midi": 66,
          "name": "F#4",
          "ticks": 4082,
          "time": 44.369565217391305,
          "velocity": 0.2677165354330709
        },
        {
          "duration": 0.021739130434781373,
          "durationTicks": 2,
          "midi": 60,
          "name": "C4",
          "ticks": 4083,
          "time": 44.380434782608695,
          "velocity": 0.29133858267716534
        },
        {
          "duration": 0.05434782608695343,
          "durationTicks": 5,
          "midi": 73,
          "name": "C#5",
          "ticks": 4083,
          "time": 44.380434782608695,
          "velocity": 0.10236220472440945
        },
        {
          "duration": 0.06521739130435122,
          "durationTicks": 6,
          "midi": 54,
          "name": "F#3",
          "ticks": 4084,
          "time": 44.391304347826086,
          "velocity": 0.3543307086614173
        },
        {
          "duration": 0.03260869565217206,
          "durationTicks": 3,
          "midi": 60,
          "name": "C4",
          "ticks": 4091,
          "time": 44.46739130434783,
          "velocity": 0.2440944881889764
        },
        {
          "duration": 0.05434782608695343,
          "durationTicks": 5,
          "midi": 54,
          "name": "F#3",
          "ticks": 4092,
          "time": 44.47826086956522,
          "velocity": 0.3543307086614173
        },
        {
          "duration": 0.021739130434781373,
          "durationTicks": 2,
          "midi": 59,
          "name": "B3",
          "ticks": 4094,
          "time": 44.5,
          "velocity": 0.2283464566929134
        },
        {
          "duration": 0.06521739130435122,
          "durationTicks": 6,
          "midi": 54,
          "name": "F#3",
          "ticks": 4099,
          "time": 44.55434782608695,
          "velocity": 0.3228346456692913
        },
        {
          "duration": 0.043478260869562746,
          "durationTicks": 4,
          "midi": 68,
          "name": "G#4",
          "ticks": 4104,
          "time": 44.608695652173914,
          "velocity": 0.07086614173228346
        },
        {
          "duration": 0.06521739130435122,
          "durationTicks": 6,
          "midi": 54,
          "name": "F#3",
          "ticks": 4107,
          "time": 44.641304347826086,
          "velocity": 0.29133858267716534
        },
        {
          "duration": 0.03260869565217206,
          "durationTicks": 3,
          "midi": 61,
          "name": "C#4",
          "ticks": 4115,
          "time": 44.72826086956522,
          "velocity": 0.11023622047244094
        },
        {
          "duration": 0.05434782608696054,
          "durationTicks": 5,
          "midi": 47,
          "name": "B2",
          "ticks": 4119,
          "time": 44.77173913043478,
          "velocity": 0.15748031496062992
        },
        {
          "duration": 0.021739130434781373,
          "durationTicks": 2,
          "midi": 52,
          "name": "E3",
          "ticks": 4160,
          "time": 45.21739130434783,
          "velocity": 0.5354330708661418
        },
        {
          "duration": 0.021739130434781373,
          "durationTicks": 2,
          "midi": 69,
          "name": "A4",
          "ticks": 4161,
          "time": 45.22826086956522,
          "velocity": 0.23622047244094488
        },
        {
          "duration": 0.021739130434781373,
          "durationTicks": 2,
          "midi": 78,
          "name": "F#5",
          "ticks": 4161,
          "time": 45.22826086956522,
          "velocity": 0.25196850393700787
        },
        {
          "duration": 0.010869565217390686,
          "durationTicks": 1,
          "midi": 49,
          "name": "C#3",
          "ticks": 4162,
          "time": 45.23913043478261,
          "velocity": 0.5984251968503937
        },
        {
          "duration": 0.021739130434781373,
          "durationTicks": 2,
          "midi": 56,
          "name": "G#3",
          "ticks": 4162,
          "time": 45.23913043478261,
          "velocity": 0.5433070866141733
        },
        {
          "duration": 0.021739130434781373,
          "durationTicks": 2,
          "midi": 47,
          "name": "B2",
          "ticks": 4163,
          "time": 45.25,
          "velocity": 0.5118110236220472
        },
        {
          "duration": 0.05434782608696054,
          "durationTicks": 5,
          "midi": 61,
          "name": "C#4",
          "ticks": 4164,
          "time": 45.26086956521739,
          "velocity": 0.3228346456692913
        },
        {
          "duration": 0.021739130434781373,
          "durationTicks": 2,
          "midi": 66,
          "name": "F#4",
          "ticks": 4164,
          "time": 45.26086956521739,
          "velocity": 0.25196850393700787
        },
        {
          "duration": 0.043478260869562746,
          "durationTicks": 4,
          "midi": 74,
          "name": "D5",
          "ticks": 4164,
          "time": 45.26086956521739,
          "velocity": 0.18110236220472442
        },
        {
          "duration": 0.15217391304347672,
          "durationTicks": 14,
          "midi": 47,
          "name": "B2",
          "ticks": 4166,
          "time": 45.28260869565217,
          "velocity": 0.44881889763779526
        },
        {
          "duration": 0.09782608695652328,
          "durationTicks": 9,
          "midi": 68,
          "name": "G#4",
          "ticks": 4167,
          "time": 45.29347826086956,
          "velocity": 0.23622047244094488
        },
        {
          "duration": 0.03260869565217206,
          "durationTicks": 3,
          "midi": 54,
          "name": "F#3",
          "ticks": 4169,
          "time": 45.31521739130435,
          "velocity": 0.2992125984251969
        },
        {
          "duration": 0.021739130434781373,
          "durationTicks": 2,
          "midi": 62,
          "name": "D4",
          "ticks": 4169,
          "time": 45.31521739130435,
          "velocity": 0.25196850393700787
        },
        {
          "duration": 0.08695652173912549,
          "durationTicks": 8,
          "midi": 61,
          "name": "C#4",
          "ticks": 4172,
          "time": 45.34782608695652,
          "velocity": 0.31496062992125984
        },
        {
          "duration": 0.043478260869562746,
          "durationTicks": 4,
          "midi": 54,
          "name": "F#3",
          "ticks": 4173,
          "time": 45.358695652173914,
          "velocity": 0.30708661417322836
        },
        {
          "duration": 0.07608695652174191,
          "durationTicks": 7,
          "midi": 70,
          "name": "A#4",
          "ticks": 4176,
          "time": 45.391304347826086,
          "velocity": 0.1889763779527559
        },
        {
          "duration": 0.021739130434781373,
          "durationTicks": 2,
          "midi": 55,
          "name": "G3",
          "ticks": 4177,
          "time": 45.40217391304348,
          "velocity": 0.2992125984251969
        },
        {
          "duration": 0.07608695652174191,
          "durationTicks": 7,
          "midi": 54,
          "name": "F#3",
          "ticks": 4179,
          "time": 45.42391304347826,
          "velocity": 0.29133858267716534
        },
        {
          "duration": 0.0760869565217348,
          "durationTicks": 7,
          "midi": 70,
          "name": "A#4",
          "ticks": 4184,
          "time": 45.47826086956522,
          "velocity": 0.1732283464566929
        },
        {
          "duration": 0.021739130434781373,
          "durationTicks": 2,
          "midi": 55,
          "name": "G3",
          "ticks": 4186,
          "time": 45.5,
          "velocity": 0.28346456692913385
        },
        {
          "duration": 0.04347826086956985,
          "durationTicks": 4,
          "midi": 54,
          "name": "F#3",
          "ticks": 4188,
          "time": 45.52173913043478,
          "velocity": 0.30708661417322836
        },
        {
          "duration": 0.0760869565217348,
          "durationTicks": 7,
          "midi": 54,
          "name": "F#3",
          "ticks": 4194,
          "time": 45.58695652173913,
          "velocity": 0.2677165354330709
        },
        {
          "duration": 0.043478260869562746,
          "durationTicks": 4,
          "midi": 61,
          "name": "C#4",
          "ticks": 4194,
          "time": 45.58695652173913,
          "velocity": 0.14960629921259844
        },
        {
          "duration": 0.03260869565217206,
          "durationTicks": 3,
          "midi": 68,
          "name": "G#4",
          "ticks": 4199,
          "time": 45.641304347826086,
          "velocity": 0.07086614173228346
        },
        {
          "duration": 0.06521739130435122,
          "durationTicks": 6,
          "midi": 54,
          "name": "F#3",
          "ticks": 4202,
          "time": 45.67391304347826,
          "velocity": 0.2440944881889764
        },
        {
          "duration": 0.03260869565217206,
          "durationTicks": 3,
          "midi": 54,
          "name": "F#3",
          "ticks": 4209,
          "time": 45.75,
          "velocity": 0.5039370078740157
        },
        {
          "duration": 0.03260869565217206,
          "durationTicks": 3,
          "midi": 78,
          "name": "F#5",
          "ticks": 4211,
          "time": 45.77173913043478,
          "velocity": 0.18110236220472442
        },
        {
          "duration": 0.021739130434781373,
          "durationTicks": 2,
          "midi": 49,
          "name": "C#3",
          "ticks": 4212,
          "time": 45.78260869565217,
          "velocity": 0.5905511811023622
        },
        {
          "duration": 0.021739130434781373,
          "durationTicks": 2,
          "midi": 56,
          "name": "G#3",
          "ticks": 4212,
          "time": 45.78260869565217,
          "velocity": 0.5275590551181102
        },
        {
          "duration": 0.02173913043478848,
          "durationTicks": 2,
          "midi": 67,
          "name": "G4",
          "ticks": 4213,
          "time": 45.79347826086956,
          "velocity": 0.33858267716535434
        },
        {
          "duration": 0.1630434782608745,
          "durationTicks": 15,
          "midi": 47,
          "name": "B2",
          "ticks": 4214,
          "time": 45.80434782608695,
          "velocity": 0.4566929133858268
        },
        {
          "duration": 0.05434782608696054,
          "durationTicks": 5,
          "midi": 61,
          "name": "C#4",
          "ticks": 4214,
          "time": 45.80434782608695,
          "velocity": 0.2992125984251969
        },
        {
          "duration": 0.07608695652174191,
          "durationTicks": 7,
          "midi": 74,
          "name": "D5",
          "ticks": 4214,
          "time": 45.80434782608695,
          "velocity": 0.2204724409448819
        },
        {
          "duration": 0.13043478260869534,
          "durationTicks": 12,
          "midi": 68,
          "name": "G#4",
          "ticks": 4215,
          "time": 45.81521739130435,
          "velocity": 0.25196850393700787
        },
        {
          "duration": 0.021739130434781373,
          "durationTicks": 2,
          "midi": 55,
          "name": "G3",
          "ticks": 4218,
          "time": 45.84782608695652,
          "velocity": 0.2440944881889764
        },
        {
          "duration": 0.021739130434781373,
          "durationTicks": 2,
          "midi": 54,
          "name": "F#3",
          "ticks": 4220,
          "time": 45.869565217391305,
          "velocity": 0.2755905511811024
        },
        {
          "duration": 0.03260869565217206,
          "durationTicks": 3,
          "midi": 55,
          "name": "G3",
          "ticks": 4222,
          "time": 45.891304347826086,
          "velocity": 0.28346456692913385
        },
        {
          "duration": 0.06521739130435122,
          "durationTicks": 6,
          "midi": 61,
          "name": "C#4",
          "ticks": 4222,
          "time": 45.891304347826086,
          "velocity": 0.2755905511811024
        },
        {
          "duration": 0.06521739130435122,
          "durationTicks": 6,
          "midi": 54,
          "name": "F#3",
          "ticks": 4226,
          "time": 45.93478260869565,
          "velocity": 0.2992125984251969
        },
        {
          "duration": 0.03260869565217206,
          "durationTicks": 3,
          "midi": 70,
          "name": "A#4",
          "ticks": 4228,
          "time": 45.95652173913044,
          "velocity": 0.10236220472440945
        },
        {
          "duration": 0.05434782608696054,
          "durationTicks": 5,
          "midi": 70,
          "name": "A#4",
          "ticks": 4234,
          "time": 46.02173913043478,
          "velocity": 0.10236220472440945
        },
        {
          "duration": 0.02173913043478848,
          "durationTicks": 2,
          "midi": 54,
          "name": "F#3",
          "ticks": 4236,
          "time": 46.04347826086956,
          "velocity": 0.2283464566929134
        },
        {
          "duration": 0.032608695652179165,
          "durationTicks": 3,
          "midi": 60,
          "name": "C4",
          "ticks": 4236,
          "time": 46.04347826086956,
          "velocity": 0.16535433070866143
        },
        {
          "duration": 0.06521739130434412,
          "durationTicks": 6,
          "midi": 54,
          "name": "F#3",
          "ticks": 4240,
          "time": 46.08695652173913,
          "velocity": 0.1889763779527559
        },
        {
          "duration": 0.03260869565217206,
          "durationTicks": 3,
          "midi": 55,
          "name": "G3",
          "ticks": 4246,
          "time": 46.15217391304348,
          "velocity": 0.09448818897637795
        },
        {
          "duration": 0.05434782608696054,
          "durationTicks": 5,
          "midi": 54,
          "name": "F#3",
          "ticks": 4249,
          "time": 46.18478260869565,
          "velocity": 0.16535433070866143
        },
        {
          "duration": 0.03260869565217206,
          "durationTicks": 3,
          "midi": 56,
          "name": "G#3",
          "ticks": 4256,
          "time": 46.26086956521739,
          "velocity": 0.5433070866141733
        },
        {
          "duration": 0.03260869565217206,
          "durationTicks": 3,
          "midi": 78,
          "name": "F#5",
          "ticks": 4256,
          "time": 46.26086956521739,
          "velocity": 0.25984251968503935
        },
        {
          "duration": 0.010869565217390686,
          "durationTicks": 1,
          "midi": 50,
          "name": "D3",
          "ticks": 4257,
          "time": 46.27173913043478,
          "velocity": 0.5748031496062992
        },
        {
          "duration": 0.010869565217390686,
          "durationTicks": 1,
          "midi": 49,
          "name": "C#3",
          "ticks": 4258,
          "time": 46.28260869565217,
          "velocity": 0.5511811023622047
        },
        {
          "duration": 0.021739130434781373,
          "durationTicks": 2,
          "midi": 67,
          "name": "G4",
          "ticks": 4258,
          "time": 46.28260869565217,
          "velocity": 0.3228346456692913
        },
        {
          "duration": 0.1630434782608745,
          "durationTicks": 15,
          "midi": 47,
          "name": "B2",
          "ticks": 4259,
          "time": 46.29347826086956,
          "velocity": 0.4645669291338583
        },
        {
          "duration": 0.06521739130435122,
          "durationTicks": 6,
          "midi": 61,
          "name": "C#4",
          "ticks": 4259,
          "time": 46.29347826086956,
          "velocity": 0.3464566929133858
        },
        {
          "duration": 0.04347826086956985,
          "durationTicks": 4,
          "midi": 74,
          "name": "D5",
          "ticks": 4259,
          "time": 46.29347826086956,
          "velocity": 0.18110236220472442
        },
        {
          "duration": 0.021739130434781373,
          "durationTicks": 2,
          "midi": 54,
          "name": "F#3",
          "ticks": 4261,
          "time": 46.31521739130435,
          "velocity": 0.31496062992125984
        },
        {
          "duration": 0.021739130434781373,
          "durationTicks": 2,
          "midi": 55,
          "name": "G3",
          "ticks": 4263,
          "time": 46.33695652173913,
          "velocity": 0.25984251968503935
        },
        {
          "duration": 0.0760869565217348,
          "durationTicks": 7,
          "midi": 54,
          "name": "F#3",
          "ticks": 4265,
          "time": 46.358695652173914,
          "velocity": 0.3543307086614173
        },
        {
          "duration": 0.06521739130434412,
          "durationTicks": 6,
          "midi": 68,
          "name": "G#4",
          "ticks": 4265,
          "time": 46.358695652173914,
          "velocity": 0.2440944881889764
        },
        {
          "duration": 0.021739130434781373,
          "durationTicks": 2,
          "midi": 60,
          "name": "C4",
          "ticks": 4266,
          "time": 46.369565217391305,
          "velocity": 0.33070866141732286
        },
        {
          "duration": 0.05434782608696054,
          "durationTicks": 5,
          "midi": 61,
          "name": "C#4",
          "ticks": 4268,
          "time": 46.391304347826086,
          "velocity": 0.2992125984251969
        },
        {
          "duration": 0.02173913043478848,
          "durationTicks": 2,
          "midi": 67,
          "name": "G4",
          "ticks": 4271,
          "time": 46.42391304347826,
          "velocity": 0.25196850393700787
        },
        {
          "duration": 0.07608695652174191,
          "durationTicks": 7,
          "midi": 70,
          "name": "A#4",
          "ticks": 4271,
          "time": 46.42391304347826,
          "velocity": 0.16535433070866143
        },
        {
          "duration": 0.032608695652179165,
          "durationTicks": 3,
          "midi": 55,
          "name": "G3",
          "ticks": 4272,
          "time": 46.43478260869565,
          "velocity": 0.29133858267716534
        },
        {
          "duration": 0.06521739130434412,
          "durationTicks": 6,
          "midi": 54,
          "name": "F#3",
          "ticks": 4275,
          "time": 46.46739130434783,
          "velocity": 0.2992125984251969
        },
        {
          "duration": 0.021739130434781373,
          "durationTicks": 2,
          "midi": 55,
          "name": "G3",
          "ticks": 4281,
          "time": 46.53260869565217,
          "velocity": 0.25196850393700787
        },
        {
          "duration": 0.02173913043478848,
          "durationTicks": 2,
          "midi": 60,
          "name": "C4",
          "ticks": 4282,
          "time": 46.54347826086956,
          "velocity": 0.23622047244094488
        },
        {
          "duration": 0.05434782608696054,
          "durationTicks": 5,
          "midi": 54,
          "name": "F#3",
          "ticks": 4283,
          "time": 46.55434782608695,
          "velocity": 0.2992125984251969
        },
        {
          "duration": 0.07608695652174191,
          "durationTicks": 7,
          "midi": 54,
          "name": "F#3",
          "ticks": 4289,
          "time": 46.619565217391305,
          "velocity": 0.2677165354330709
        },
        {
          "duration": 0.043478260869562746,
          "durationTicks": 4,
          "midi": 61,
          "name": "C#4",
          "ticks": 4290,
          "time": 46.630434782608695,
          "velocity": 0.11023622047244094
        },
        {
          "duration": 0.032608695652179165,
          "durationTicks": 3,
          "midi": 59,
          "name": "B3",
          "ticks": 4295,
          "time": 46.68478260869565,
          "velocity": 0.1732283464566929
        },
        {
          "duration": 0.06521739130434412,
          "durationTicks": 6,
          "midi": 54,
          "name": "F#3",
          "ticks": 4297,
          "time": 46.70652173913044,
          "velocity": 0.23622047244094488
        },
        {
          "duration": 0.03260869565217206,
          "durationTicks": 3,
          "midi": 78,
          "name": "F#5",
          "ticks": 4346,
          "time": 47.23913043478261,
          "velocity": 0.2677165354330709
        },
        {
          "duration": 0.010869565217390686,
          "durationTicks": 1,
          "midi": 52,
          "name": "E3",
          "ticks": 4347,
          "time": 47.25,
          "velocity": 0.5354330708661418
        },
        {
          "duration": 0.010869565217390686,
          "durationTicks": 1,
          "midi": 49,
          "name": "C#3",
          "ticks": 4348,
          "time": 47.26086956521739,
          "velocity": 0.5984251968503937
        },
        {
          "duration": 0.010869565217390686,
          "durationTicks": 1,
          "midi": 56,
          "name": "G#3",
          "ticks": 4348,
          "time": 47.26086956521739,
          "velocity": 0.5275590551181102
        },
        {
          "duration": 0.021739130434781373,
          "durationTicks": 2,
          "midi": 47,
          "name": "B2",
          "ticks": 4349,
          "time": 47.27173913043478,
          "velocity": 0.5118110236220472
        },
        {
          "duration": 0.04347826086956985,
          "durationTicks": 4,
          "midi": 61,
          "name": "C#4",
          "ticks": 4350,
          "time": 47.28260869565217,
          "velocity": 0.33070866141732286
        },
        {
          "duration": 0.04347826086956985,
          "durationTicks": 4,
          "midi": 74,
          "name": "D5",
          "ticks": 4350,
          "time": 47.28260869565217,
          "velocity": 0.14960629921259844
        },
        {
          "duration": 0.15217391304348382,
          "durationTicks": 14,
          "midi": 47,
          "name": "B2",
          "ticks": 4352,
          "time": 47.30434782608695,
          "velocity": 0.4645669291338583
        },
        {
          "duration": 0.09782608695651618,
          "durationTicks": 9,
          "midi": 68,
          "name": "G#4",
          "ticks": 4353,
          "time": 47.31521739130435,
          "velocity": 0.2440944881889764
        },
        {
          "duration": 0.021739130434781373,
          "durationTicks": 2,
          "midi": 55,
          "name": "G3",
          "ticks": 4354,
          "time": 47.32608695652174,
          "velocity": 0.29133858267716534
        },
        {
          "duration": 0.043478260869562746,
          "durationTicks": 4,
          "midi": 60,
          "name": "C4",
          "ticks": 4354,
          "time": 47.32608695652174,
          "velocity": 0.2992125984251969
        },
        {
          "duration": 0.021739130434781373,
          "durationTicks": 2,
          "midi": 54,
          "name": "F#3",
          "ticks": 4356,
          "time": 47.34782608695652,
          "velocity": 0.3228346456692913
        },
        {
          "duration": 0.0869565217391326,
          "durationTicks": 8,
          "midi": 61,
          "name": "C#4",
          "ticks": 4358,
          "time": 47.369565217391305,
          "velocity": 0.28346456692913385
        },
        {
          "duration": 0.043478260869562746,
          "durationTicks": 4,
          "midi": 54,
          "name": "F#3",
          "ticks": 4359,
          "time": 47.380434782608695,
          "velocity": 0.33858267716535434
        },
        {
          "duration": 0.07608695652174191,
          "durationTicks": 7,
          "midi": 70,
          "name": "A#4",
          "ticks": 4362,
          "time": 47.41304347826087,
          "velocity": 0.15748031496062992
        },
        {
          "duration": 0.02173913043478848,
          "durationTicks": 2,
          "midi": 55,
          "name": "G3",
          "ticks": 4363,
          "time": 47.42391304347826,
          "velocity": 0.31496062992125984
        },
        {
          "duration": 0.032608695652179165,
          "durationTicks": 3,
          "midi": 66,
          "name": "F#4",
          "ticks": 4363,
          "time": 47.42391304347826,
          "velocity": 0.15748031496062992
        },
        {
          "duration": 0.0760869565217348,
          "durationTicks": 7,
          "midi": 54,
          "name": "F#3",
          "ticks": 4365,
          "time": 47.44565217391305,
          "velocity": 0.31496062992125984
        },
        {
          "duration": 0.021739130434781373,
          "durationTicks": 2,
          "midi": 59,
          "name": "B3",
          "ticks": 4371,
          "time": 47.51086956521739,
          "velocity": 0.23622047244094488
        },
        {
          "duration": 0.06521739130435122,
          "durationTicks": 6,
          "midi": 54,
          "name": "F#3",
          "ticks": 4373,
          "time": 47.53260869565217,
          "velocity": 0.3543307086614173
        },
        {
          "duration": 0.06521739130435122,
          "durationTicks": 6,
          "midi": 70,
          "name": "A#4",
          "ticks": 4374,
          "time": 47.54347826086956,
          "velocity": 0.13385826771653545
        },
        {
          "duration": 0.021739130434781373,
          "durationTicks": 2,
          "midi": 47,
          "name": "B2",
          "ticks": 4376,
          "time": 47.56521739130435,
          "velocity": 0.2992125984251969
        },
        {
          "duration": 0.05434782608695343,
          "durationTicks": 5,
          "midi": 61,
          "name": "C#4",
          "ticks": 4377,
          "time": 47.57608695652174,
          "velocity": 0.2125984251968504
        },
        {
          "duration": 0.043478260869562746,
          "durationTicks": 4,
          "midi": 47,
          "name": "B2",
          "ticks": 4379,
          "time": 47.59782608695652,
          "velocity": 0.4015748031496063
        },
        {
          "duration": 0.03260869565217206,
          "durationTicks": 3,
          "midi": 70,
          "name": "A#4",
          "ticks": 4381,
          "time": 47.619565217391305,
          "velocity": 0.15748031496062992
        },
        {
          "duration": 0.0869565217391326,
          "durationTicks": 8,
          "midi": 47,
          "name": "B2",
          "ticks": 4384,
          "time": 47.65217391304348,
          "velocity": 0.47244094488188976
        },
        {
          "duration": 0.06521739130435122,
          "durationTicks": 6,
          "midi": 61,
          "name": "C#4",
          "ticks": 4384,
          "time": 47.65217391304348,
          "velocity": 0.3700787401574803
        },
        {
          "duration": 0.021739130434781373,
          "durationTicks": 2,
          "midi": 68,
          "name": "G#4",
          "ticks": 4384,
          "time": 47.65217391304348,
          "velocity": 0.23622047244094488
        },
        {
          "duration": 0.04347826086956985,
          "durationTicks": 4,
          "midi": 74,
          "name": "D5",
          "ticks": 4384,
          "time": 47.65217391304348,
          "velocity": 0.12598425196850394
        },
        {
          "duration": 0.021739130434781373,
          "durationTicks": 2,
          "midi": 54,
          "name": "F#3",
          "ticks": 4385,
          "time": 47.66304347826087,
          "velocity": 0.31496062992125984
        },
        {
          "duration": 0.06521739130435122,
          "durationTicks": 6,
          "midi": 70,
          "name": "A#4",
          "ticks": 4385,
          "time": 47.66304347826087,
          "velocity": 0.1968503937007874
        },
        {
          "duration": 0.032608695652179165,
          "durationTicks": 3,
          "midi": 55,
          "name": "G3",
          "ticks": 4387,
          "time": 47.68478260869565,
          "velocity": 0.2677165354330709
        },
        {
          "duration": 0.021739130434781373,
          "durationTicks": 2,
          "midi": 54,
          "name": "F#3",
          "ticks": 4390,
          "time": 47.71739130434783,
          "velocity": 0.28346456692913385
        },
        {
          "duration": 0.05434782608695343,
          "durationTicks": 5,
          "midi": 78,
          "name": "F#5",
          "ticks": 4392,
          "time": 47.73913043478261,
          "velocity": 0.15748031496062992
        },
        {
          "duration": 0.021739130434781373,
          "durationTicks": 2,
          "midi": 49,
          "name": "C#3",
          "ticks": 4393,
          "time": 47.75,
          "velocity": 0.5905511811023622
        },
        {
          "duration": 0.021739130434781373,
          "durationTicks": 2,
          "midi": 67,
          "name": "G4",
          "ticks": 4394,
          "time": 47.76086956521739,
          "velocity": 0.33070866141732286
        },
        {
          "duration": 0.07608695652174191,
          "durationTicks": 7,
          "midi": 74,
          "name": "D5",
          "ticks": 4394,
          "time": 47.76086956521739,
          "velocity": 0.2283464566929134
        },
        {
          "duration": 0.15217391304347672,
          "durationTicks": 14,
          "midi": 47,
          "name": "B2",
          "ticks": 4395,
          "time": 47.77173913043478,
          "velocity": 0.48031496062992124
        },
        {
          "duration": 0.13043478260869534,
          "durationTicks": 12,
          "midi": 68,
          "name": "G#4",
          "ticks": 4396,
          "time": 47.78260869565217,
          "velocity": 0.2440944881889764
        },
        {
          "duration": 0.02173913043478848,
          "durationTicks": 2,
          "midi": 55,
          "name": "G3",
          "ticks": 4398,
          "time": 47.80434782608695,
          "velocity": 0.28346456692913385
        },
        {
          "duration": 0.043478260869562746,
          "durationTicks": 4,
          "midi": 54,
          "name": "F#3",
          "ticks": 4400,
          "time": 47.82608695652174,
          "velocity": 0.3543307086614173
        },
        {
          "duration": 0.021739130434781373,
          "durationTicks": 2,
          "midi": 60,
          "name": "C4",
          "ticks": 4402,
          "time": 47.84782608695652,
          "velocity": 0.28346456692913385
        },
        {
          "duration": 0.05434782608695343,
          "durationTicks": 5,
          "midi": 61,
          "name": "C#4",
          "ticks": 4404,
          "time": 47.869565217391305,
          "velocity": 0.25984251968503935
        },
        {
          "duration": 0.11956521739130466,
          "durationTicks": 11,
          "midi": 70,
          "name": "A#4",
          "ticks": 4407,
          "time": 47.90217391304348,
          "velocity": 0.1889763779527559
        },
        {
          "duration": 0.04347826086956985,
          "durationTicks": 4,
          "midi": 54,
          "name": "F#3",
          "ticks": 4408,
          "time": 47.91304347826087,
          "velocity": 0.3779527559055118
        },
        {
          "duration": 0.021739130434781373,
          "durationTicks": 2,
          "midi": 54,
          "name": "F#3",
          "ticks": 4414,
          "time": 47.97826086956522,
          "velocity": 0.2992125984251969
        },
        {
          "duration": 0.021739130434781373,
          "durationTicks": 2,
          "midi": 53,
          "name": "F3",
          "ticks": 4416,
          "time": 48,
          "velocity": 0.33070866141732286
        },
        {
          "duration": 0.021739130434781373,
          "durationTicks": 2,
          "midi": 60,
          "name": "C4",
          "ticks": 4417,
          "time": 48.01086956521739,
          "velocity": 0.4015748031496063
        },
        {
          "duration": 0.010869565217390686,
          "durationTicks": 1,
          "midi": 50,
          "name": "D3",
          "ticks": 4419,
          "time": 48.03260869565217,
          "velocity": 0.5511811023622047
        },
        {
          "duration": 0.021739130434781373,
          "durationTicks": 2,
          "midi": 67,
          "name": "G4",
          "ticks": 4419,
          "time": 48.03260869565217,
          "velocity": 0.30708661417322836
        },
        {
          "duration": 0.010869565217390686,
          "durationTicks": 1,
          "midi": 49,
          "name": "C#3",
          "ticks": 4420,
          "time": 48.04347826086956,
          "velocity": 0.5196850393700787
        },
        {
          "duration": 0.09782608695652328,
          "durationTicks": 9,
          "midi": 74,
          "name": "D5",
          "ticks": 4420,
          "time": 48.04347826086956,
          "velocity": 0.2204724409448819
        },
        {
          "duration": 0.1739130434782652,
          "durationTicks": 16,
          "midi": 47,
          "name": "B2",
          "ticks": 4421,
          "time": 48.05434782608695,
          "velocity": 0.44881889763779526
        },
        {
          "duration": 0.05434782608696054,
          "durationTicks": 5,
          "midi": 61,
          "name": "C#4",
          "ticks": 4421,
          "time": 48.05434782608695,
          "velocity": 0.3543307086614173
        },
        {
          "duration": 0.14130434782609314,
          "durationTicks": 13,
          "midi": 68,
          "name": "G#4",
          "ticks": 4421,
          "time": 48.05434782608695,
          "velocity": 0.25984251968503935
        },
        {
          "duration": 0.021739130434781373,
          "durationTicks": 2,
          "midi": 70,
          "name": "A#4",
          "ticks": 4425,
          "time": 48.09782608695652,
          "velocity": 0.2283464566929134
        },
        {
          "duration": 0.021739130434781373,
          "durationTicks": 2,
          "midi": 54,
          "name": "F#3",
          "ticks": 4427,
          "time": 48.119565217391305,
          "velocity": 0.2283464566929134
        },
        {
          "duration": 0.021739130434781373,
          "durationTicks": 2,
          "midi": 60,
          "name": "C4",
          "ticks": 4428,
          "time": 48.130434782608695,
          "velocity": 0.29133858267716534
        },
        {
          "duration": 0.03260869565217206,
          "durationTicks": 3,
          "midi": 55,
          "name": "G3",
          "ticks": 4429,
          "time": 48.141304347826086,
          "velocity": 0.25196850393700787
        },
        {
          "duration": 0.0869565217391326,
          "durationTicks": 8,
          "midi": 61,
          "name": "C#4",
          "ticks": 4430,
          "time": 48.15217391304348,
          "velocity": 0.25984251968503935
        },
        {
          "duration": 0.06521739130435122,
          "durationTicks": 6,
          "midi": 54,
          "name": "F#3",
          "ticks": 4433,
          "time": 48.18478260869565,
          "velocity": 0.23622047244094488
        },
        {
          "duration": 0.10869565217391397,
          "durationTicks": 10,
          "midi": 70,
          "name": "A#4",
          "ticks": 4433,
          "time": 48.18478260869565,
          "velocity": 0.18110236220472442
        },
        {
          "duration": 0.02173913043478848,
          "durationTicks": 2,
          "midi": 56,
          "name": "G#3",
          "ticks": 4443,
          "time": 48.29347826086956,
          "velocity": 0.5039370078740157
        },
        {
          "duration": 0.032608695652179165,
          "durationTicks": 3,
          "midi": 73,
          "name": "C#5",
          "ticks": 4443,
          "time": 48.29347826086956,
          "velocity": 0.1968503937007874
        },
        {
          "duration": 0.04347826086956985,
          "durationTicks": 4,
          "midi": 78,
          "name": "F#5",
          "ticks": 4443,
          "time": 48.29347826086956,
          "velocity": 0.16535433070866143
        },
        {
          "duration": 0.010869565217397792,
          "durationTicks": 1,
          "midi": 49,
          "name": "C#3",
          "ticks": 4444,
          "time": 48.30434782608695,
          "velocity": 0.5905511811023622
        },
        {
          "duration": 0.021739130434781373,
          "durationTicks": 2,
          "midi": 47,
          "name": "B2",
          "ticks": 4445,
          "time": 48.31521739130435,
          "velocity": 0.5275590551181102
        },
        {
          "duration": 0.05434782608695343,
          "durationTicks": 5,
          "midi": 61,
          "name": "C#4",
          "ticks": 4445,
          "time": 48.31521739130435,
          "velocity": 0.3937007874015748
        },
        {
          "duration": 0.021739130434781373,
          "durationTicks": 2,
          "midi": 66,
          "name": "F#4",
          "ticks": 4446,
          "time": 48.32608695652174,
          "velocity": 0.2677165354330709
        },
        {
          "duration": 0.021739130434781373,
          "durationTicks": 2,
          "midi": 68,
          "name": "G#4",
          "ticks": 4446,
          "time": 48.32608695652174,
          "velocity": 0.2283464566929134
        },
        {
          "duration": 0.06521739130434412,
          "durationTicks": 6,
          "midi": 74,
          "name": "D5",
          "ticks": 4446,
          "time": 48.32608695652174,
          "velocity": 0.2047244094488189
        },
        {
          "duration": 0.13043478260869534,
          "durationTicks": 12,
          "midi": 47,
          "name": "B2",
          "ticks": 4448,
          "time": 48.34782608695652,
          "velocity": 0.4645669291338583
        },
        {
          "duration": 0.09782608695652328,
          "durationTicks": 9,
          "midi": 68,
          "name": "G#4",
          "ticks": 4449,
          "time": 48.358695652173914,
          "velocity": 0.2440944881889764
        },
        {
          "duration": 0.03260869565217206,
          "durationTicks": 3,
          "midi": 54,
          "name": "F#3",
          "ticks": 4451,
          "time": 48.380434782608695,
          "velocity": 0.31496062992125984
        },
        {
          "duration": 0.032608695652179165,
          "durationTicks": 3,
          "midi": 55,
          "name": "G3",
          "ticks": 4454,
          "time": 48.41304347826087,
          "velocity": 0.30708661417322836
        },
        {
          "duration": 0.09782608695652328,
          "durationTicks": 9,
          "midi": 61,
          "name": "C#4",
          "ticks": 4454,
          "time": 48.41304347826087,
          "velocity": 0.2755905511811024
        },
        {
          "duration": 0.06521739130434412,
          "durationTicks": 6,
          "midi": 54,
          "name": "F#3",
          "ticks": 4457,
          "time": 48.44565217391305,
          "velocity": 0.33070866141732286
        },
        {
          "duration": 0.021739130434781373,
          "durationTicks": 2,
          "midi": 67,
          "name": "G4",
          "ticks": 4458,
          "time": 48.45652173913044,
          "velocity": 0.25196850393700787
        },
        {
          "duration": 0.0760869565217348,
          "durationTicks": 7,
          "midi": 70,
          "name": "A#4",
          "ticks": 4458,
          "time": 48.45652173913044,
          "velocity": 0.12598425196850394
        },
        {
          "duration": 0.05434782608696054,
          "durationTicks": 5,
          "midi": 70,
          "name": "A#4",
          "ticks": 4466,
          "time": 48.54347826086956,
          "velocity": 0.08661417322834646
        },
        {
          "duration": 0.032608695652179165,
          "durationTicks": 3,
          "midi": 60,
          "name": "C4",
          "ticks": 4467,
          "time": 48.55434782608695,
          "velocity": 0.18110236220472442
        },
        {
          "duration": 0.021739130434781373,
          "durationTicks": 2,
          "midi": 54,
          "name": "F#3",
          "ticks": 4468,
          "time": 48.56521739130435,
          "velocity": 0.25984251968503935
        },
        {
          "duration": 0.06521739130434412,
          "durationTicks": 6,
          "midi": 54,
          "name": "F#3",
          "ticks": 4472,
          "time": 48.608695652173914,
          "velocity": 0.23622047244094488
        },
        {
          "duration": 0.06521739130434412,
          "durationTicks": 6,
          "midi": 54,
          "name": "F#3",
          "ticks": 4480,
          "time": 48.69565217391305,
          "velocity": 0.2125984251968504
        },
        {
          "duration": 0.05434782608696054,
          "durationTicks": 5,
          "midi": 54,
          "name": "F#3",
          "ticks": 4488,
          "time": 48.78260869565217,
          "velocity": 0.1889763779527559
        },
        {
          "duration": 0.05434782608695343,
          "durationTicks": 5,
          "midi": 54,
          "name": "F#3",
          "ticks": 4495,
          "time": 48.858695652173914,
          "velocity": 0.15748031496062992
        },
        {
          "duration": 0.05434782608695343,
          "durationTicks": 5,
          "midi": 54,
          "name": "F#3",
          "ticks": 4503,
          "time": 48.94565217391305,
          "velocity": 0.11023622047244094
        },
        {
          "duration": 0.032608695652179165,
          "durationTicks": 3,
          "midi": 54,
          "name": "F#3",
          "ticks": 4512,
          "time": 49.04347826086956,
          "velocity": 0.08661417322834646
        },
        {
          "duration": 0.03260869565217206,
          "durationTicks": 3,
          "midi": 75,
          "name": "D#5",
          "ticks": 4537,
          "time": 49.31521739130435,
          "velocity": 0.1968503937007874
        },
        {
          "duration": 0.03260869565217206,
          "durationTicks": 3,
          "midi": 78,
          "name": "F#5",
          "ticks": 4537,
          "time": 49.31521739130435,
          "velocity": 0.2440944881889764
        },
        {
          "duration": 0.010869565217390686,
          "durationTicks": 1,
          "midi": 50,
          "name": "D3",
          "ticks": 4538,
          "time": 49.32608695652174,
          "velocity": 0.5748031496062992
        },
        {
          "duration": 0.021739130434781373,
          "durationTicks": 2,
          "midi": 56,
          "name": "G#3",
          "ticks": 4538,
          "time": 49.32608695652174,
          "velocity": 0.5511811023622047
        },
        {
          "duration": 0.021739130434781373,
          "durationTicks": 2,
          "midi": 66,
          "name": "F#4",
          "ticks": 4538,
          "time": 49.32608695652174,
          "velocity": 0.31496062992125984
        },
        {
          "duration": 0.010869565217390686,
          "durationTicks": 1,
          "midi": 49,
          "name": "C#3",
          "ticks": 4539,
          "time": 49.33695652173913,
          "velocity": 0.5669291338582677
        },
        {
          "duration": 0.1630434782608674,
          "durationTicks": 15,
          "midi": 47,
          "name": "B2",
          "ticks": 4540,
          "time": 49.34782608695652,
          "velocity": 0.47244094488188976
        },
        {
          "duration": 0.06521739130434412,
          "durationTicks": 6,
          "midi": 61,
          "name": "C#4",
          "ticks": 4540,
          "time": 49.34782608695652,
          "velocity": 0.3858267716535433
        },
        {
          "duration": 0.08695652173912549,
          "durationTicks": 8,
          "midi": 74,
          "name": "D5",
          "ticks": 4540,
          "time": 49.34782608695652,
          "velocity": 0.2125984251968504
        },
        {
          "duration": 0.13043478260869534,
          "durationTicks": 12,
          "midi": 68,
          "name": "G#4",
          "ticks": 4541,
          "time": 49.358695652173914,
          "velocity": 0.25196850393700787
        },
        {
          "duration": 0.03260869565217206,
          "durationTicks": 3,
          "midi": 70,
          "name": "A#4",
          "ticks": 4541,
          "time": 49.358695652173914,
          "velocity": 0.1889763779527559
        },
        {
          "duration": 0.021739130434781373,
          "durationTicks": 2,
          "midi": 54,
          "name": "F#3",
          "ticks": 4543,
          "time": 49.380434782608695,
          "velocity": 0.29133858267716534
        },
        {
          "duration": 0.021739130434781373,
          "durationTicks": 2,
          "midi": 54,
          "name": "F#3",
          "ticks": 4546,
          "time": 49.41304347826087,
          "velocity": 0.23622047244094488
        },
        {
          "duration": 0.02173913043478848,
          "durationTicks": 2,
          "midi": 55,
          "name": "G3",
          "ticks": 4548,
          "time": 49.43478260869565,
          "velocity": 0.3228346456692913
        },
        {
          "duration": 0.08695652173912549,
          "durationTicks": 8,
          "midi": 61,
          "name": "C#4",
          "ticks": 4549,
          "time": 49.44565217391305,
          "velocity": 0.2992125984251969
        },
        {
          "duration": 0.021739130434781373,
          "durationTicks": 2,
          "midi": 54,
          "name": "F#3",
          "ticks": 4552,
          "time": 49.47826086956522,
          "velocity": 0.29133858267716534
        },
        {
          "duration": 0.021739130434781373,
          "durationTicks": 2,
          "midi": 55,
          "name": "G3",
          "ticks": 4554,
          "time": 49.5,
          "velocity": 0.23622047244094488
        },
        {
          "duration": 0.11956521739130466,
          "durationTicks": 11,
          "midi": 70,
          "name": "A#4",
          "ticks": 4555,
          "time": 49.51086956521739,
          "velocity": 0.2047244094488189
        },
        {
          "duration": 0.06521739130435122,
          "durationTicks": 6,
          "midi": 54,
          "name": "F#3",
          "ticks": 4556,
          "time": 49.52173913043478,
          "velocity": 0.25984251968503935
        },
        {
          "duration": 0.021739130434781373,
          "durationTicks": 2,
          "midi": 59,
          "name": "B3",
          "ticks": 4564,
          "time": 49.608695652173914,
          "velocity": 0.41732283464566927
        },
        {
          "duration": 0.043478260869562746,
          "durationTicks": 4,
          "midi": 78,
          "name": "F#5",
          "ticks": 4564,
          "time": 49.608695652173914,
          "velocity": 0.09448818897637795
        },
        {
          "duration": 0.010869565217390686,
          "durationTicks": 1,
          "midi": 49,
          "name": "C#3",
          "ticks": 4565,
          "time": 49.619565217391305,
          "velocity": 0.5354330708661418
        },
        {
          "duration": 0.021739130434781373,
          "durationTicks": 2,
          "midi": 67,
          "name": "G4",
          "ticks": 4565,
          "time": 49.619565217391305,
          "velocity": 0.30708661417322836
        },
        {
          "duration": 0.07608695652174191,
          "durationTicks": 7,
          "midi": 47,
          "name": "B2",
          "ticks": 4566,
          "time": 49.630434782608695,
          "velocity": 0.49606299212598426
        },
        {
          "duration": 0.07608695652174191,
          "durationTicks": 7,
          "midi": 74,
          "name": "D5",
          "ticks": 4566,
          "time": 49.630434782608695,
          "velocity": 0.2125984251968504
        },
        {
          "duration": 0.043478260869562746,
          "durationTicks": 4,
          "midi": 61,
          "name": "C#4",
          "ticks": 4567,
          "time": 49.641304347826086,
          "velocity": 0.23622047244094488
        },
        {
          "duration": 0.05434782608696054,
          "durationTicks": 5,
          "midi": 68,
          "name": "G#4",
          "ticks": 4567,
          "time": 49.641304347826086,
          "velocity": 0.25196850393700787
        },
        {
          "duration": 0.032608695652179165,
          "durationTicks": 3,
          "midi": 55,
          "name": "G3",
          "ticks": 4569,
          "time": 49.66304347826087,
          "velocity": 0.2755905511811024
        },
        {
          "duration": 0.010869565217390686,
          "durationTicks": 1,
          "midi": 48,
          "name": "C3",
          "ticks": 4573,
          "time": 49.70652173913044,
          "velocity": 0.5196850393700787
        },
        {
          "duration": 0.10869565217391397,
          "durationTicks": 10,
          "midi": 47,
          "name": "B2",
          "ticks": 4574,
          "time": 49.71739130434783,
          "velocity": 0.47244094488188976
        },
        {
          "duration": 0.043478260869562746,
          "durationTicks": 4,
          "midi": 61,
          "name": "C#4",
          "ticks": 4575,
          "time": 49.72826086956522,
          "velocity": 0.2047244094488189
        },
        {
          "duration": 0.021739130434781373,
          "durationTicks": 2,
          "midi": 55,
          "name": "G3",
          "ticks": 4578,
          "time": 49.76086956521739,
          "velocity": 0.2283464566929134
        },
        {
          "duration": 0.04347826086956985,
          "durationTicks": 4,
          "midi": 60,
          "name": "C4",
          "ticks": 4579,
          "time": 49.77173913043478,
          "velocity": 0.1889763779527559
        },
        {
          "duration": 0.04347826086956985,
          "durationTicks": 4,
          "midi": 54,
          "name": "F#3",
          "ticks": 4580,
          "time": 49.78260869565217,
          "velocity": 0.3228346456692913
        },
        {
          "duration": 0.021739130434781373,
          "durationTicks": 2,
          "midi": 61,
          "name": "C#4",
          "ticks": 4583,
          "time": 49.81521739130435,
          "velocity": 0.29133858267716534
        },
        {
          "duration": 0.021739130434781373,
          "durationTicks": 2,
          "midi": 58,
          "name": "A#3",
          "ticks": 4584,
          "time": 49.82608695652174,
          "velocity": 0.4330708661417323
        },
        {
          "duration": 0.03260869565217206,
          "durationTicks": 3,
          "midi": 67,
          "name": "G4",
          "ticks": 4584,
          "time": 49.82608695652174,
          "velocity": 0.25196850393700787
        },
        {
          "duration": 0.010869565217390686,
          "durationTicks": 1,
          "midi": 48,
          "name": "C3",
          "ticks": 4585,
          "time": 49.83695652173913,
          "velocity": 0.5118110236220472
        },
        {
          "duration": 0.05434782608695343,
          "durationTicks": 5,
          "midi": 61,
          "name": "C#4",
          "ticks": 4586,
          "time": 49.84782608695652,
          "velocity": 0.3779527559055118
        },
        {
          "duration": 0.09782608695652328,
          "durationTicks": 9,
          "midi": 74,
          "name": "D5",
          "ticks": 4586,
          "time": 49.84782608695652,
          "velocity": 0.2125984251968504
        },
        {
          "duration": 0.15217391304347672,
          "durationTicks": 14,
          "midi": 47,
          "name": "B2",
          "ticks": 4587,
          "time": 49.858695652173914,
          "velocity": 0.4566929133858268
        },
        {
          "duration": 0.14130434782608603,
          "durationTicks": 13,
          "midi": 68,
          "name": "G#4",
          "ticks": 4587,
          "time": 49.858695652173914,
          "velocity": 0.2204724409448819
        },
        {
          "duration": 0.021739130434781373,
          "durationTicks": 2,
          "midi": 55,
          "name": "G3",
          "ticks": 4590,
          "time": 49.891304347826086,
          "velocity": 0.23622047244094488
        },
        {
          "duration": 0.021739130434781373,
          "durationTicks": 2,
          "midi": 60,
          "name": "C4",
          "ticks": 4591,
          "time": 49.90217391304348,
          "velocity": 0.23622047244094488
        },
        {
          "duration": 0.032608695652179165,
          "durationTicks": 3,
          "midi": 54,
          "name": "F#3",
          "ticks": 4593,
          "time": 49.92391304347826,
          "velocity": 0.29133858267716534
        },
        {
          "duration": 0.05434782608695343,
          "durationTicks": 5,
          "midi": 61,
          "name": "C#4",
          "ticks": 4596,
          "time": 49.95652173913044,
          "velocity": 0.23622047244094488
        },
        {
          "duration": 0.13043478260869534,
          "durationTicks": 12,
          "midi": 70,
          "name": "A#4",
          "ticks": 4599,
          "time": 49.98913043478261,
          "velocity": 0.11811023622047244
        },
        {
          "duration": 0.05434782608695343,
          "durationTicks": 5,
          "midi": 54,
          "name": "F#3",
          "ticks": 4600,
          "time": 50,
          "velocity": 0.2440944881889764
        },
        {
          "duration": 0.03260869565217206,
          "durationTicks": 3,
          "midi": 48,
          "name": "C3",
          "ticks": 4602,
          "time": 50.02173913043478,
          "velocity": 0.09448818897637795
        },
        {
          "duration": 0.03260869565217206,
          "durationTicks": 3,
          "midi": 54,
          "name": "F#3",
          "ticks": 4608,
          "time": 50.08695652173913,
          "velocity": 0.2755905511811024
        },
        {
          "duration": 0.010869565217390686,
          "durationTicks": 1,
          "midi": 49,
          "name": "C#3",
          "ticks": 4612,
          "time": 50.130434782608695,
          "velocity": 0.5433070866141733
        },
        {
          "duration": 0.05434782608695343,
          "durationTicks": 5,
          "midi": 68,
          "name": "G#4",
          "ticks": 4612,
          "time": 50.130434782608695,
          "velocity": 0.29133858267716534
        },
        {
          "duration": 0.10869565217391397,
          "durationTicks": 10,
          "midi": 74,
          "name": "D5",
          "ticks": 4612,
          "time": 50.130434782608695,
          "velocity": 0.2204724409448819
        },
        {
          "duration": 0.021739130434781373,
          "durationTicks": 2,
          "midi": 47,
          "name": "B2",
          "ticks": 4613,
          "time": 50.141304347826086,
          "velocity": 0.4881889763779528
        },
        {
          "duration": 0.05434782608696054,
          "durationTicks": 5,
          "midi": 61,
          "name": "C#4",
          "ticks": 4614,
          "time": 50.15217391304348,
          "velocity": 0.3779527559055118
        },
        {
          "duration": 0.14130434782609314,
          "durationTicks": 13,
          "midi": 47,
          "name": "B2",
          "ticks": 4616,
          "time": 50.17391304347826,
          "velocity": 0.44881889763779526
        },
        {
          "duration": 0.032608695652179165,
          "durationTicks": 3,
          "midi": 70,
          "name": "A#4",
          "ticks": 4616,
          "time": 50.17391304347826,
          "velocity": 0.25196850393700787
        },
        {
          "duration": 0.09782608695651618,
          "durationTicks": 9,
          "midi": 68,
          "name": "G#4",
          "ticks": 4618,
          "time": 50.19565217391305,
          "velocity": 0.2283464566929134
        },
        {
          "duration": 0.021739130434781373,
          "durationTicks": 2,
          "midi": 60,
          "name": "C4",
          "ticks": 4621,
          "time": 50.22826086956522,
          "velocity": 0.28346456692913385
        },
        {
          "duration": 0.03260869565217206,
          "durationTicks": 3,
          "midi": 56,
          "name": "G#3",
          "ticks": 4622,
          "time": 50.23913043478261,
          "velocity": 0.2125984251968504
        },
        {
          "duration": 0.07608695652174191,
          "durationTicks": 7,
          "midi": 61,
          "name": "C#4",
          "ticks": 4623,
          "time": 50.25,
          "velocity": 0.25984251968503935
        },
        {
          "duration": 0.09782608695652328,
          "durationTicks": 9,
          "midi": 70,
          "name": "A#4",
          "ticks": 4626,
          "time": 50.28260869565217,
          "velocity": 0.15748031496062992
        },
        {
          "duration": 0.03260869565217206,
          "durationTicks": 3,
          "midi": 48,
          "name": "C3",
          "ticks": 4629,
          "time": 50.31521739130435,
          "velocity": 0.10236220472440945
        },
        {
          "duration": 0.03260869565217206,
          "durationTicks": 3,
          "midi": 60,
          "name": "C4",
          "ticks": 4630,
          "time": 50.32608695652174,
          "velocity": 0.12598425196850394
        },
        {
          "duration": 0.021739130434781373,
          "durationTicks": 2,
          "midi": 58,
          "name": "A#3",
          "ticks": 4633,
          "time": 50.358695652173914,
          "velocity": 0.4566929133858268
        },
        {
          "duration": 0.021739130434781373,
          "durationTicks": 2,
          "midi": 66,
          "name": "F#4",
          "ticks": 4634,
          "time": 50.369565217391305,
          "velocity": 0.2677165354330709
        },
        {
          "duration": 0.010869565217390686,
          "durationTicks": 1,
          "midi": 49,
          "name": "C#3",
          "ticks": 4635,
          "time": 50.380434782608695,
          "velocity": 0.5669291338582677
        },
        {
          "duration": 0.1630434782608674,
          "durationTicks": 15,
          "midi": 47,
          "name": "B2",
          "ticks": 4636,
          "time": 50.391304347826086,
          "velocity": 0.49606299212598426
        },
        {
          "duration": 0.07608695652174191,
          "durationTicks": 7,
          "midi": 61,
          "name": "C#4",
          "ticks": 4636,
          "time": 50.391304347826086,
          "velocity": 0.4094488188976378
        },
        {
          "duration": 0.0869565217391326,
          "durationTicks": 8,
          "midi": 74,
          "name": "D5",
          "ticks": 4636,
          "time": 50.391304347826086,
          "velocity": 0.2204724409448819
        },
        {
          "duration": 0.09782608695652328,
          "durationTicks": 9,
          "midi": 68,
          "name": "G#4",
          "ticks": 4640,
          "time": 50.43478260869565,
          "velocity": 0.25196850393700787
        },
        {
          "duration": 0.03260869565217206,
          "durationTicks": 3,
          "midi": 54,
          "name": "F#3",
          "ticks": 4642,
          "time": 50.45652173913044,
          "velocity": 0.2992125984251969
        },
        {
          "duration": 0.043478260869562746,
          "durationTicks": 4,
          "midi": 60,
          "name": "C4",
          "ticks": 4642,
          "time": 50.45652173913044,
          "velocity": 0.25984251968503935
        },
        {
          "duration": 0.021739130434781373,
          "durationTicks": 2,
          "midi": 55,
          "name": "G3",
          "ticks": 4645,
          "time": 50.48913043478261,
          "velocity": 0.31496062992125984
        },
        {
          "duration": 0.043478260869562746,
          "durationTicks": 4,
          "midi": 61,
          "name": "C#4",
          "ticks": 4646,
          "time": 50.5,
          "velocity": 0.2283464566929134
        },
        {
          "duration": 0.14130434782608603,
          "durationTicks": 13,
          "midi": 54,
          "name": "F#3",
          "ticks": 4647,
          "time": 50.51086956521739,
          "velocity": 0.28346456692913385
        },
        {
          "duration": 0.04347826086956985,
          "durationTicks": 4,
          "midi": 48,
          "name": "C3",
          "ticks": 4651,
          "time": 50.55434782608695,
          "velocity": 0.18110236220472442
        },
        {
          "duration": 0.05434782608696054,
          "durationTicks": 5,
          "midi": 70,
          "name": "A#4",
          "ticks": 4651,
          "time": 50.55434782608695,
          "velocity": 0.11811023622047244
        },
        {
          "duration": 0.05434782608696054,
          "durationTicks": 5,
          "midi": 59,
          "name": "B3",
          "ticks": 4659,
          "time": 50.641304347826086,
          "velocity": 0.11023622047244094
        },
        {
          "duration": 0.07608695652174191,
          "durationTicks": 7,
          "midi": 54,
          "name": "F#3",
          "ticks": 4662,
          "time": 50.67391304347826,
          "velocity": 0.1968503937007874
        },
        {
          "duration": 0.29347826086956275,
          "durationTicks": 27,
          "midi": 54,
          "name": "F#3",
          "ticks": 4670,
          "time": 50.76086956521739,
          "velocity": 0.14173228346456693
        },
        {
          "duration": 0.02173913043478848,
          "durationTicks": 2,
          "midi": 56,
          "name": "G#3",
          "ticks": 4731,
          "time": 51.42391304347826,
          "velocity": 0.5433070866141733
        },
        {
          "duration": 0.032608695652179165,
          "durationTicks": 3,
          "midi": 78,
          "name": "F#5",
          "ticks": 4731,
          "time": 51.42391304347826,
          "velocity": 0.25196850393700787
        },
        {
          "duration": 0.010869565217397792,
          "durationTicks": 1,
          "midi": 50,
          "name": "D3",
          "ticks": 4732,
          "time": 51.43478260869565,
          "velocity": 0.5905511811023622
        },
        {
          "duration": 0.021739130434781373,
          "durationTicks": 2,
          "midi": 47,
          "name": "B2",
          "ticks": 4733,
          "time": 51.44565217391305,
          "velocity": 0.5039370078740157
        },
        {
          "duration": 0.05434782608695343,
          "durationTicks": 5,
          "midi": 61,
          "name": "C#4",
          "ticks": 4734,
          "time": 51.45652173913044,
          "velocity": 0.4015748031496063
        },
        {
          "duration": 0.021739130434781373,
          "durationTicks": 2,
          "midi": 66,
          "name": "F#4",
          "ticks": 4734,
          "time": 51.45652173913044,
          "velocity": 0.2677165354330709
        },
        {
          "duration": 0.05434782608695343,
          "durationTicks": 5,
          "midi": 70,
          "name": "A#4",
          "ticks": 4734,
          "time": 51.45652173913044,
          "velocity": 0.23622047244094488
        },
        {
          "duration": 0.043478260869562746,
          "durationTicks": 4,
          "midi": 74,
          "name": "D5",
          "ticks": 4734,
          "time": 51.45652173913044,
          "velocity": 0.18110236220472442
        },
        {
          "duration": 0.14130434782608603,
          "durationTicks": 13,
          "midi": 47,
          "name": "B2",
          "ticks": 4736,
          "time": 51.47826086956522,
          "velocity": 0.4409448818897638
        },
        {
          "duration": 0.021739130434781373,
          "durationTicks": 2,
          "midi": 55,
          "name": "G3",
          "ticks": 4738,
          "time": 51.5,
          "velocity": 0.2283464566929134
        },
        {
          "duration": 0.06521739130435122,
          "durationTicks": 6,
          "midi": 68,
          "name": "G#4",
          "ticks": 4740,
          "time": 51.52173913043478,
          "velocity": 0.25196850393700787
        },
        {
          "duration": 0.021739130434781373,
          "durationTicks": 2,
          "midi": 60,
          "name": "C4",
          "ticks": 4741,
          "time": 51.53260869565217,
          "velocity": 0.31496062992125984
        },
        {
          "duration": 0.04347826086956985,
          "durationTicks": 4,
          "midi": 54,
          "name": "F#3",
          "ticks": 4743,
          "time": 51.55434782608695,
          "velocity": 0.31496062992125984
        },
        {
          "duration": 0.07608695652174191,
          "durationTicks": 7,
          "midi": 61,
          "name": "C#4",
          "ticks": 4743,
          "time": 51.55434782608695,
          "velocity": 0.31496062992125984
        },
        {
          "duration": 0.0760869565217348,
          "durationTicks": 7,
          "midi": 70,
          "name": "A#4",
          "ticks": 4746,
          "time": 51.58695652173913,
          "velocity": 0.2125984251968504
        },
        {
          "duration": 0.021739130434781373,
          "durationTicks": 2,
          "midi": 55,
          "name": "G3",
          "ticks": 4747,
          "time": 51.59782608695652,
          "velocity": 0.25984251968503935
        },
        {
          "duration": 0.03260869565217206,
          "durationTicks": 3,
          "midi": 66,
          "name": "F#4",
          "ticks": 4747,
          "time": 51.59782608695652,
          "velocity": 0.2047244094488189
        },
        {
          "duration": 0.05434782608695343,
          "durationTicks": 5,
          "midi": 54,
          "name": "F#3",
          "ticks": 4749,
          "time": 51.619565217391305,
          "velocity": 0.29133858267716534
        },
        {
          "duration": 0.021739130434781373,
          "durationTicks": 2,
          "midi": 55,
          "name": "G3",
          "ticks": 4756,
          "time": 51.69565217391305,
          "velocity": 0.25984251968503935
        },
        {
          "duration": 0.03260869565217206,
          "durationTicks": 3,
          "midi": 66,
          "name": "F#4",
          "ticks": 4758,
          "time": 51.71739130434783,
          "velocity": 0.3700787401574803
        },
        {
          "duration": 0.010869565217390686,
          "durationTicks": 1,
          "midi": 53,
          "name": "F3",
          "ticks": 4759,
          "time": 51.72826086956522,
          "velocity": 0.5511811023622047
        },
        {
          "duration": 0.010869565217390686,
          "durationTicks": 1,
          "midi": 49,
          "name": "C#3",
          "ticks": 4760,
          "time": 51.73913043478261,
          "velocity": 0.5905511811023622
        },
        {
          "duration": 0.010869565217390686,
          "durationTicks": 1,
          "midi": 56,
          "name": "G#3",
          "ticks": 4760,
          "time": 51.73913043478261,
          "velocity": 0.5118110236220472
        },
        {
          "duration": 0.1630434782608674,
          "durationTicks": 15,
          "midi": 47,
          "name": "B2",
          "ticks": 4761,
          "time": 51.75,
          "velocity": 0.4881889763779528
        },
        {
          "duration": 0.07608695652174191,
          "durationTicks": 7,
          "midi": 61,
          "name": "C#4",
          "ticks": 4761,
          "time": 51.75,
          "velocity": 0.41732283464566927
        },
        {
          "duration": 0.05434782608695343,
          "durationTicks": 5,
          "midi": 74,
          "name": "D5",
          "ticks": 4761,
          "time": 51.75,
          "velocity": 0.2047244094488189
        },
        {
          "duration": 0.0869565217391326,
          "durationTicks": 8,
          "midi": 68,
          "name": "G#4",
          "ticks": 4765,
          "time": 51.79347826086956,
          "velocity": 0.28346456692913385
        },
        {
          "duration": 0.03260869565217206,
          "durationTicks": 3,
          "midi": 54,
          "name": "F#3",
          "ticks": 4767,
          "time": 51.81521739130435,
          "velocity": 0.31496062992125984
        },
        {
          "duration": 0.021739130434781373,
          "durationTicks": 2,
          "midi": 60,
          "name": "C4",
          "ticks": 4768,
          "time": 51.82608695652174,
          "velocity": 0.3464566929133858
        },
        {
          "duration": 0.05434782608695343,
          "durationTicks": 5,
          "midi": 61,
          "name": "C#4",
          "ticks": 4770,
          "time": 51.84782608695652,
          "velocity": 0.31496062992125984
        },
        {
          "duration": 0.043478260869562746,
          "durationTicks": 4,
          "midi": 54,
          "name": "F#3",
          "ticks": 4771,
          "time": 51.858695652173914,
          "velocity": 0.2992125984251969
        },
        {
          "duration": 0.021739130434781373,
          "durationTicks": 2,
          "midi": 55,
          "name": "G3",
          "ticks": 4775,
          "time": 51.90217391304348,
          "velocity": 0.2992125984251969
        },
        {
          "duration": 0.021739130434781373,
          "durationTicks": 2,
          "midi": 66,
          "name": "F#4",
          "ticks": 4775,
          "time": 51.90217391304348,
          "velocity": 0.2283464566929134
        },
        {
          "duration": 0.032608695652179165,
          "durationTicks": 3,
          "midi": 48,
          "name": "C3",
          "ticks": 4776,
          "time": 51.91304347826087,
          "velocity": 0.1889763779527559
        },
        {
          "duration": 0.021739130434781373,
          "durationTicks": 2,
          "midi": 61,
          "name": "C#4",
          "ticks": 4776,
          "time": 51.91304347826087,
          "velocity": 0.25196850393700787
        },
        {
          "duration": 0.07608695652174191,
          "durationTicks": 7,
          "midi": 70,
          "name": "A#4",
          "ticks": 4776,
          "time": 51.91304347826087,
          "velocity": 0.16535433070866143
        },
        {
          "duration": 0.07608695652174191,
          "durationTicks": 7,
          "midi": 54,
          "name": "F#3",
          "ticks": 4777,
          "time": 51.92391304347826,
          "velocity": 0.25196850393700787
        },
        {
          "duration": 0.021739130434781373,
          "durationTicks": 2,
          "midi": 59,
          "name": "B3",
          "ticks": 4783,
          "time": 51.98913043478261,
          "velocity": 0.2440944881889764
        },
        {
          "duration": 0.021739130434781373,
          "durationTicks": 2,
          "midi": 55,
          "name": "G3",
          "ticks": 4784,
          "time": 52,
          "velocity": 0.2677165354330709
        },
        {
          "duration": 0.021739130434781373,
          "durationTicks": 2,
          "midi": 60,
          "name": "C4",
          "ticks": 4785,
          "time": 52.01086956521739,
          "velocity": 0.2283464566929134
        },
        {
          "duration": 0.04347826086956985,
          "durationTicks": 4,
          "midi": 54,
          "name": "F#3",
          "ticks": 4786,
          "time": 52.02173913043478,
          "velocity": 0.25984251968503935
        },
        {
          "duration": 0.08695652173912549,
          "durationTicks": 8,
          "midi": 54,
          "name": "F#3",
          "ticks": 4791,
          "time": 52.07608695652174,
          "velocity": 0.2204724409448819
        },
        {
          "duration": 0.3152173913043512,
          "durationTicks": 29,
          "midi": 54,
          "name": "F#3",
          "ticks": 4800,
          "time": 52.17391304347826,
          "velocity": 0.1889763779527559
        },
        {
          "duration": 0.03260869565217206,
          "durationTicks": 3,
          "midi": 59,
          "name": "B3",
          "ticks": 4804,
          "time": 52.21739130434783,
          "velocity": 0.11811023622047244
        },
        {
          "duration": 0.03260869565217206,
          "durationTicks": 3,
          "midi": 56,
          "name": "G#3",
          "ticks": 4829,
          "time": 52.48913043478261,
          "velocity": 0.5275590551181102
        },
        {
          "duration": 0.03260869565217206,
          "durationTicks": 3,
          "midi": 75,
          "name": "D#5",
          "ticks": 4830,
          "time": 52.5,
          "velocity": 0.1732283464566929
        },
        {
          "duration": 0.010869565217390686,
          "durationTicks": 1,
          "midi": 49,
          "name": "C#3",
          "ticks": 4831,
          "time": 52.51086956521739,
          "velocity": 0.5826771653543307
        },
        {
          "duration": 0.03260869565217206,
          "durationTicks": 3,
          "midi": 81,
          "name": "A5",
          "ticks": 4831,
          "time": 52.51086956521739,
          "velocity": 0.11023622047244094
        },
        {
          "duration": 0.20652173913043725,
          "durationTicks": 19,
          "midi": 47,
          "name": "B2",
          "ticks": 4832,
          "time": 52.52173913043478,
          "velocity": 0.49606299212598426
        },
        {
          "duration": 0.06521739130435122,
          "durationTicks": 6,
          "midi": 61,
          "name": "C#4",
          "ticks": 4833,
          "time": 52.53260869565217,
          "velocity": 0.3779527559055118
        },
        {
          "duration": 0.05434782608696054,
          "durationTicks": 5,
          "midi": 70,
          "name": "A#4",
          "ticks": 4833,
          "time": 52.53260869565217,
          "velocity": 0.23622047244094488
        },
        {
          "duration": 0.04347826086956985,
          "durationTicks": 4,
          "midi": 74,
          "name": "D5",
          "ticks": 4833,
          "time": 52.53260869565217,
          "velocity": 0.18110236220472442
        },
        {
          "duration": 0.08695652173912549,
          "durationTicks": 8,
          "midi": 68,
          "name": "G#4",
          "ticks": 4837,
          "time": 52.57608695652174,
          "velocity": 0.25196850393700787
        },
        {
          "duration": 0.0869565217391326,
          "durationTicks": 8,
          "midi": 61,
          "name": "C#4",
          "ticks": 4841,
          "time": 52.619565217391305,
          "velocity": 0.33858267716535434
        },
        {
          "duration": 0.021739130434781373,
          "durationTicks": 2,
          "midi": 54,
          "name": "F#3",
          "ticks": 4842,
          "time": 52.630434782608695,
          "velocity": 0.30708661417322836
        },
        {
          "duration": 0.07608695652174191,
          "durationTicks": 7,
          "midi": 70,
          "name": "A#4",
          "ticks": 4845,
          "time": 52.66304347826087,
          "velocity": 0.2204724409448819
        },
        {
          "duration": 0.032608695652179165,
          "durationTicks": 3,
          "midi": 66,
          "name": "F#4",
          "ticks": 4846,
          "time": 52.67391304347826,
          "velocity": 0.15748031496062992
        },
        {
          "duration": 0.021739130434781373,
          "durationTicks": 2,
          "midi": 54,
          "name": "F#3",
          "ticks": 4850,
          "time": 52.71739130434783,
          "velocity": 0.25984251968503935
        },
        {
          "duration": 0.05434782608695343,
          "durationTicks": 5,
          "midi": 70,
          "name": "A#4",
          "ticks": 4853,
          "time": 52.75,
          "velocity": 0.1968503937007874
        },
        {
          "duration": 0.04347826086956985,
          "durationTicks": 4,
          "midi": 78,
          "name": "F#5",
          "ticks": 4857,
          "time": 52.79347826086956,
          "velocity": 0.1968503937007874
        },
        {
          "duration": 0.010869565217397792,
          "durationTicks": 1,
          "midi": 50,
          "name": "D3",
          "ticks": 4858,
          "time": 52.80434782608695,
          "velocity": 0.5826771653543307
        },
        {
          "duration": 0.010869565217397792,
          "durationTicks": 1,
          "midi": 58,
          "name": "A#3",
          "ticks": 4858,
          "time": 52.80434782608695,
          "velocity": 0.5118110236220472
        },
        {
          "duration": 0.010869565217390686,
          "durationTicks": 1,
          "midi": 49,
          "name": "C#3",
          "ticks": 4859,
          "time": 52.81521739130435,
          "velocity": 0.5433070866141733
        },
        {
          "duration": 0.021739130434781373,
          "durationTicks": 2,
          "midi": 67,
          "name": "G4",
          "ticks": 4859,
          "time": 52.81521739130435,
          "velocity": 0.3779527559055118
        },
        {
          "duration": 0.15217391304347672,
          "durationTicks": 14,
          "midi": 47,
          "name": "B2",
          "ticks": 4860,
          "time": 52.82608695652174,
          "velocity": 0.4566929133858268
        },
        {
          "duration": 0.05434782608695343,
          "durationTicks": 5,
          "midi": 61,
          "name": "C#4",
          "ticks": 4860,
          "time": 52.82608695652174,
          "velocity": 0.3464566929133858
        },
        {
          "duration": 0.05434782608695343,
          "durationTicks": 5,
          "midi": 74,
          "name": "D5",
          "ticks": 4860,
          "time": 52.82608695652174,
          "velocity": 0.2125984251968504
        },
        {
          "duration": 0.021739130434781373,
          "durationTicks": 2,
          "midi": 68,
          "name": "G#4",
          "ticks": 4863,
          "time": 52.858695652173914,
          "velocity": 0.2283464566929134
        },
        {
          "duration": 0.043478260869562746,
          "durationTicks": 4,
          "midi": 54,
          "name": "F#3",
          "ticks": 4865,
          "time": 52.880434782608695,
          "velocity": 0.33858267716535434
        },
        {
          "duration": 0.043478260869562746,
          "durationTicks": 4,
          "midi": 68,
          "name": "G#4",
          "ticks": 4866,
          "time": 52.891304347826086,
          "velocity": 0.2204724409448819
        },
        {
          "duration": 0.021739130434781373,
          "durationTicks": 2,
          "midi": 60,
          "name": "C4",
          "ticks": 4867,
          "time": 52.90217391304348,
          "velocity": 0.3228346456692913
        },
        {
          "duration": 0.02173913043478848,
          "durationTicks": 2,
          "midi": 55,
          "name": "G3",
          "ticks": 4869,
          "time": 52.92391304347826,
          "velocity": 0.2755905511811024
        },
        {
          "duration": 0.05434782608696054,
          "durationTicks": 5,
          "midi": 61,
          "name": "C#4",
          "ticks": 4869,
          "time": 52.92391304347826,
          "velocity": 0.29133858267716534
        },
        {
          "duration": 0.0760869565217348,
          "durationTicks": 7,
          "midi": 54,
          "name": "F#3",
          "ticks": 4871,
          "time": 52.94565217391305,
          "velocity": 0.3543307086614173
        },
        {
          "duration": 0.021739130434781373,
          "durationTicks": 2,
          "midi": 67,
          "name": "G4",
          "ticks": 4872,
          "time": 52.95652173913044,
          "velocity": 0.25984251968503935
        },
        {
          "duration": 0.043478260869562746,
          "durationTicks": 4,
          "midi": 70,
          "name": "A#4",
          "ticks": 4875,
          "time": 52.98913043478261,
          "velocity": 0.11023622047244094
        },
        {
          "duration": 0.05434782608696054,
          "durationTicks": 5,
          "midi": 54,
          "name": "F#3",
          "ticks": 4879,
          "time": 53.03260869565217,
          "velocity": 0.29133858267716534
        },
        {
          "duration": 0.05434782608696054,
          "durationTicks": 5,
          "midi": 70,
          "name": "A#4",
          "ticks": 4880,
          "time": 53.04347826086956,
          "velocity": 0.10236220472440945
        },
        {
          "duration": 0.06521739130434412,
          "durationTicks": 6,
          "midi": 54,
          "name": "F#3",
          "ticks": 4886,
          "time": 53.108695652173914,
          "velocity": 0.2677165354330709
        },
        {
          "duration": 0.06521739130434412,
          "durationTicks": 6,
          "midi": 54,
          "name": "F#3",
          "ticks": 4894,
          "time": 53.19565217391305,
          "velocity": 0.2440944881889764
        },
        {
          "duration": 0.06521739130435122,
          "durationTicks": 6,
          "midi": 54,
          "name": "F#3",
          "ticks": 4902,
          "time": 53.28260869565217,
          "velocity": 0.1968503937007874
        },
        {
          "duration": 0.06521739130434412,
          "durationTicks": 6,
          "midi": 54,
          "name": "F#3",
          "ticks": 4909,
          "time": 53.358695652173914,
          "velocity": 0.1732283464566929
        },
        {
          "duration": 0.05434782608695343,
          "durationTicks": 5,
          "midi": 54,
          "name": "F#3",
          "ticks": 4917,
          "time": 53.44565217391305,
          "velocity": 0.13385826771653545
        },
        {
          "duration": 0.02173913043478848,
          "durationTicks": 2,
          "midi": 55,
          "name": "G3",
          "ticks": 4926,
          "time": 53.54347826086956,
          "velocity": 0.5118110236220472
        },
        {
          "duration": 0.010869565217390686,
          "durationTicks": 1,
          "midi": 49,
          "name": "C#3",
          "ticks": 4928,
          "time": 53.56521739130435,
          "velocity": 0.5748031496062992
        },
        {
          "duration": 0.010869565217390686,
          "durationTicks": 1,
          "midi": 56,
          "name": "G#3",
          "ticks": 4928,
          "time": 53.56521739130435,
          "velocity": 0.5118110236220472
        },
        {
          "duration": 0.021739130434781373,
          "durationTicks": 2,
          "midi": 67,
          "name": "G4",
          "ticks": 4928,
          "time": 53.56521739130435,
          "velocity": 0.33070866141732286
        },
        {
          "duration": 0.021739130434781373,
          "durationTicks": 2,
          "midi": 47,
          "name": "B2",
          "ticks": 4929,
          "time": 53.57608695652174,
          "velocity": 0.5039370078740157
        },
        {
          "duration": 0.06521739130434412,
          "durationTicks": 6,
          "midi": 61,
          "name": "C#4",
          "ticks": 4930,
          "time": 53.58695652173913,
          "velocity": 0.3700787401574803
        },
        {
          "duration": 0.13043478260869534,
          "durationTicks": 12,
          "midi": 68,
          "name": "G#4",
          "ticks": 4930,
          "time": 53.58695652173913,
          "velocity": 0.25196850393700787
        },
        {
          "duration": 0.08695652173912549,
          "durationTicks": 8,
          "midi": 74,
          "name": "D5",
          "ticks": 4930,
          "time": 53.58695652173913,
          "velocity": 0.2204724409448819
        },
        {
          "duration": 0.15217391304347672,
          "durationTicks": 14,
          "midi": 47,
          "name": "B2",
          "ticks": 4932,
          "time": 53.608695652173914,
          "velocity": 0.4566929133858268
        },
        {
          "duration": 0.03260869565217206,
          "durationTicks": 3,
          "midi": 70,
          "name": "A#4",
          "ticks": 4936,
          "time": 53.65217391304348,
          "velocity": 0.09448818897637795
        },
        {
          "duration": 0.02173913043478848,
          "durationTicks": 2,
          "midi": 55,
          "name": "G3",
          "ticks": 4938,
          "time": 53.67391304347826,
          "velocity": 0.2992125984251969
        },
        {
          "duration": 0.0869565217391326,
          "durationTicks": 8,
          "midi": 61,
          "name": "C#4",
          "ticks": 4938,
          "time": 53.67391304347826,
          "velocity": 0.33070866141732286
        },
        {
          "duration": 0.0760869565217348,
          "durationTicks": 7,
          "midi": 70,
          "name": "A#4",
          "ticks": 4942,
          "time": 53.71739130434783,
          "velocity": 0.1732283464566929
        },
        {
          "duration": 0.04347826086956985,
          "durationTicks": 4,
          "midi": 70,
          "name": "A#4",
          "ticks": 4950,
          "time": 53.80434782608695,
          "velocity": 0.14173228346456693
        },
        {
          "duration": 0.010869565217390686,
          "durationTicks": 1,
          "midi": 52,
          "name": "E3",
          "ticks": 4953,
          "time": 53.83695652173913,
          "velocity": 0.5118110236220472
        },
        {
          "duration": 0.043478260869562746,
          "durationTicks": 4,
          "midi": 78,
          "name": "F#5",
          "ticks": 4953,
          "time": 53.83695652173913,
          "velocity": 0.14960629921259844
        },
        {
          "duration": 0.010869565217390686,
          "durationTicks": 1,
          "midi": 49,
          "name": "C#3",
          "ticks": 4954,
          "time": 53.84782608695652,
          "velocity": 0.5669291338582677
        },
        {
          "duration": 0.021739130434781373,
          "durationTicks": 2,
          "midi": 67,
          "name": "G4",
          "ticks": 4954,
          "time": 53.84782608695652,
          "velocity": 0.33070866141732286
        },
        {
          "duration": 0.09782608695652328,
          "durationTicks": 9,
          "midi": 74,
          "name": "D5",
          "ticks": 4954,
          "time": 53.84782608695652,
          "velocity": 0.2125984251968504
        },
        {
          "duration": 0.1630434782608674,
          "durationTicks": 15,
          "midi": 47,
          "name": "B2",
          "ticks": 4955,
          "time": 53.858695652173914,
          "velocity": 0.48031496062992124
        },
        {
          "duration": 0.06521739130434412,
          "durationTicks": 6,
          "midi": 61,
          "name": "C#4",
          "ticks": 4955,
          "time": 53.858695652173914,
          "velocity": 0.3937007874015748
        },
        {
          "duration": 0.03260869565217206,
          "durationTicks": 3,
          "midi": 72,
          "name": "C5",
          "ticks": 4957,
          "time": 53.880434782608695,
          "velocity": 0.07874015748031496
        },
        {
          "duration": 0.03260869565217206,
          "durationTicks": 3,
          "midi": 55,
          "name": "G3",
          "ticks": 4958,
          "time": 53.891304347826086,
          "velocity": 0.25984251968503935
        },
        {
          "duration": 0.0869565217391326,
          "durationTicks": 8,
          "midi": 68,
          "name": "G#4",
          "ticks": 4959,
          "time": 53.90217391304348,
          "velocity": 0.2440944881889764
        },
        {
          "duration": 0.08695652173912549,
          "durationTicks": 8,
          "midi": 61,
          "name": "C#4",
          "ticks": 4964,
          "time": 53.95652173913044,
          "velocity": 0.25984251968503935
        },
        {
          "duration": 0.03260869565217206,
          "durationTicks": 3,
          "midi": 54,
          "name": "F#3",
          "ticks": 4968,
          "time": 54,
          "velocity": 0.29133858267716534
        },
        {
          "duration": 0.07608695652174191,
          "durationTicks": 7,
          "midi": 70,
          "name": "A#4",
          "ticks": 4969,
          "time": 54.01086956521739,
          "velocity": 0.16535433070866143
        },
        {
          "duration": 0.032608695652179165,
          "durationTicks": 3,
          "midi": 53,
          "name": "F3",
          "ticks": 4971,
          "time": 54.03260869565217,
          "velocity": 0.13385826771653545
        },
        {
          "duration": 0.03260869565217206,
          "durationTicks": 3,
          "midi": 66,
          "name": "F#4",
          "ticks": 4974,
          "time": 54.06521739130435,
          "velocity": 0.23622047244094488
        },
        {
          "duration": 0.010869565217390686,
          "durationTicks": 1,
          "midi": 49,
          "name": "C#3",
          "ticks": 4976,
          "time": 54.08695652173913,
          "velocity": 0.5275590551181102
        },
        {
          "duration": 0.1630434782608674,
          "durationTicks": 15,
          "midi": 47,
          "name": "B2",
          "ticks": 4977,
          "time": 54.09782608695652,
          "velocity": 0.4645669291338583
        },
        {
          "duration": 0.06521739130434412,
          "durationTicks": 6,
          "midi": 61,
          "name": "C#4",
          "ticks": 4977,
          "time": 54.09782608695652,
          "velocity": 0.3779527559055118
        },
        {
          "duration": 0.043478260869562746,
          "durationTicks": 4,
          "midi": 74,
          "name": "D5",
          "ticks": 4977,
          "time": 54.09782608695652,
          "velocity": 0.1889763779527559
        },
        {
          "duration": 0.05434782608695343,
          "durationTicks": 5,
          "midi": 68,
          "name": "G#4",
          "ticks": 4978,
          "time": 54.108695652173914,
          "velocity": 0.1968503937007874
        },
        {
          "duration": 0.021739130434781373,
          "durationTicks": 2,
          "midi": 54,
          "name": "F#3",
          "ticks": 4980,
          "time": 54.130434782608695,
          "velocity": 0.3228346456692913
        },
        {
          "duration": 0.03260869565217206,
          "durationTicks": 3,
          "midi": 55,
          "name": "G3",
          "ticks": 4982,
          "time": 54.15217391304348,
          "velocity": 0.11023622047244094
        },
        {
          "duration": 0.032608695652179165,
          "durationTicks": 3,
          "midi": 54,
          "name": "F#3",
          "ticks": 4985,
          "time": 54.18478260869565,
          "velocity": 0.33858267716535434
        },
        {
          "duration": 0.05434782608695343,
          "durationTicks": 5,
          "midi": 61,
          "name": "C#4",
          "ticks": 4986,
          "time": 54.19565217391305,
          "velocity": 0.2440944881889764
        },
        {
          "duration": 0.043478260869562746,
          "durationTicks": 4,
          "midi": 68,
          "name": "G#4",
          "ticks": 4986,
          "time": 54.19565217391305,
          "velocity": 0.15748031496062992
        },
        {
          "duration": 0.11956521739130466,
          "durationTicks": 11,
          "midi": 70,
          "name": "A#4",
          "ticks": 4989,
          "time": 54.22826086956522,
          "velocity": 0.11811023622047244
        },
        {
          "duration": 0.02173913043478848,
          "durationTicks": 2,
          "midi": 54,
          "name": "F#3",
          "ticks": 4995,
          "time": 54.29347826086956,
          "velocity": 0.2283464566929134
        },
        {
          "duration": 0.021739130434781373,
          "durationTicks": 2,
          "midi": 52,
          "name": "E3",
          "ticks": 4998,
          "time": 54.32608695652174,
          "velocity": 0.49606299212598426
        },
        {
          "duration": 0.021739130434781373,
          "durationTicks": 2,
          "midi": 58,
          "name": "A#3",
          "ticks": 4998,
          "time": 54.32608695652174,
          "velocity": 0.4566929133858268
        },
        {
          "duration": 0.021739130434781373,
          "durationTicks": 2,
          "midi": 66,
          "name": "F#4",
          "ticks": 4999,
          "time": 54.33695652173913,
          "velocity": 0.30708661417322836
        },
        {
          "duration": 0.010869565217390686,
          "durationTicks": 1,
          "midi": 49,
          "name": "C#3",
          "ticks": 5000,
          "time": 54.34782608695652,
          "velocity": 0.5433070866141733
        },
        {
          "duration": 0.1630434782608674,
          "durationTicks": 15,
          "midi": 47,
          "name": "B2",
          "ticks": 5001,
          "time": 54.358695652173914,
          "velocity": 0.47244094488188976
        },
        {
          "duration": 0.06521739130434412,
          "durationTicks": 6,
          "midi": 61,
          "name": "C#4",
          "ticks": 5001,
          "time": 54.358695652173914,
          "velocity": 0.3779527559055118
        },
        {
          "duration": 0.0760869565217348,
          "durationTicks": 7,
          "midi": 74,
          "name": "D5",
          "ticks": 5001,
          "time": 54.358695652173914,
          "velocity": 0.2125984251968504
        },
        {
          "duration": 0.021739130434781373,
          "durationTicks": 2,
          "midi": 68,
          "name": "G#4",
          "ticks": 5002,
          "time": 54.369565217391305,
          "velocity": 0.25196850393700787
        },
        {
          "duration": 0.05434782608696054,
          "durationTicks": 5,
          "midi": 54,
          "name": "F#3",
          "ticks": 5005,
          "time": 54.40217391304348,
          "velocity": 0.2992125984251969
        },
        {
          "duration": 0.0869565217391326,
          "durationTicks": 8,
          "midi": 68,
          "name": "G#4",
          "ticks": 5005,
          "time": 54.40217391304348,
          "velocity": 0.23622047244094488
        },
        {
          "duration": 0.08695652173912549,
          "durationTicks": 8,
          "midi": 61,
          "name": "C#4",
          "ticks": 5010,
          "time": 54.45652173913044,
          "velocity": 0.25196850393700787
        },
        {
          "duration": 0.03260869565217206,
          "durationTicks": 3,
          "midi": 54,
          "name": "F#3",
          "ticks": 5014,
          "time": 54.5,
          "velocity": 0.28346456692913385
        },
        {
          "duration": 0.032608695652179165,
          "durationTicks": 3,
          "midi": 59,
          "name": "B3",
          "ticks": 5018,
          "time": 54.54347826086956,
          "velocity": 0.2283464566929134
        },
        {
          "duration": 0.021739130434781373,
          "durationTicks": 2,
          "midi": 71,
          "name": "B4",
          "ticks": 5021,
          "time": 54.57608695652174,
          "velocity": 0.23622047244094488
        },
        {
          "duration": 0.010869565217390686,
          "durationTicks": 1,
          "midi": 49,
          "name": "C#3",
          "ticks": 5022,
          "time": 54.58695652173913,
          "velocity": 0.5433070866141733
        },
        {
          "duration": 0.021739130434781373,
          "durationTicks": 2,
          "midi": 60,
          "name": "C4",
          "ticks": 5022,
          "time": 54.58695652173913,
          "velocity": 0.47244094488188976
        },
        {
          "duration": 0.043478260869562746,
          "durationTicks": 4,
          "midi": 66,
          "name": "F#4",
          "ticks": 5022,
          "time": 54.58695652173913,
          "velocity": 0.25984251968503935
        },
        {
          "duration": 0.03260869565217206,
          "durationTicks": 3,
          "midi": 82,
          "name": "A#5",
          "ticks": 5022,
          "time": 54.58695652173913,
          "velocity": 0.09448818897637795
        },
        {
          "duration": 0.021739130434781373,
          "durationTicks": 2,
          "midi": 47,
          "name": "B2",
          "ticks": 5023,
          "time": 54.59782608695652,
          "velocity": 0.47244094488188976
        },
        {
          "duration": 0.10869565217391397,
          "durationTicks": 10,
          "midi": 70,
          "name": "A#4",
          "ticks": 5023,
          "time": 54.59782608695652,
          "velocity": 0.25984251968503935
        },
        {
          "duration": 0.06521739130434412,
          "durationTicks": 6,
          "midi": 61,
          "name": "C#4",
          "ticks": 5024,
          "time": 54.608695652173914,
          "velocity": 0.3700787401574803
        },
        {
          "duration": 0.13043478260869534,
          "durationTicks": 12,
          "midi": 47,
          "name": "B2",
          "ticks": 5026,
          "time": 54.630434782608695,
          "velocity": 0.4409448818897638
        },
        {
          "duration": 0.03260869565217206,
          "durationTicks": 3,
          "midi": 54,
          "name": "F#3",
          "ticks": 5026,
          "time": 54.630434782608695,
          "velocity": 0.33858267716535434
        },
        {
          "duration": 0.021739130434781373,
          "durationTicks": 2,
          "midi": 54,
          "name": "F#3",
          "ticks": 5032,
          "time": 54.69565217391305,
          "velocity": 0.36220472440944884
        },
        {
          "duration": 0.0760869565217348,
          "durationTicks": 7,
          "midi": 61,
          "name": "C#4",
          "ticks": 5032,
          "time": 54.69565217391305,
          "velocity": 0.3228346456692913
        },
        {
          "duration": 0.021739130434781373,
          "durationTicks": 2,
          "midi": 53,
          "name": "F3",
          "ticks": 5034,
          "time": 54.71739130434783,
          "velocity": 0.2992125984251969
        },
        {
          "duration": 0.05434782608695343,
          "durationTicks": 5,
          "midi": 66,
          "name": "F#4",
          "ticks": 5034,
          "time": 54.71739130434783,
          "velocity": 0.1732283464566929
        },
        {
          "duration": 0.07608695652174191,
          "durationTicks": 7,
          "midi": 70,
          "name": "A#4",
          "ticks": 5036,
          "time": 54.73913043478261,
          "velocity": 0.1732283464566929
        },
        {
          "duration": 0.03260869565217206,
          "durationTicks": 3,
          "midi": 53,
          "name": "F3",
          "ticks": 5039,
          "time": 54.77173913043478,
          "velocity": 0.28346456692913385
        },
        {
          "duration": 0.03260869565217206,
          "durationTicks": 3,
          "midi": 60,
          "name": "C4",
          "ticks": 5039,
          "time": 54.77173913043478,
          "velocity": 0.16535433070866143
        },
        {
          "duration": 0.02173913043478848,
          "durationTicks": 2,
          "midi": 54,
          "name": "F#3",
          "ticks": 5042,
          "time": 54.80434782608695,
          "velocity": 0.28346456692913385
        },
        {
          "duration": 0.03260869565217206,
          "durationTicks": 3,
          "midi": 67,
          "name": "G4",
          "ticks": 5044,
          "time": 54.82608695652174,
          "velocity": 0.3228346456692913
        },
        {
          "duration": 0.043478260869562746,
          "durationTicks": 4,
          "midi": 78,
          "name": "F#5",
          "ticks": 5044,
          "time": 54.82608695652174,
          "velocity": 0.13385826771653545
        },
        {
          "duration": 0.010869565217390686,
          "durationTicks": 1,
          "midi": 49,
          "name": "C#3",
          "ticks": 5045,
          "time": 54.83695652173913,
          "velocity": 0.5433070866141733
        },
        {
          "duration": 0.021739130434781373,
          "durationTicks": 2,
          "midi": 47,
          "name": "B2",
          "ticks": 5046,
          "time": 54.84782608695652,
          "velocity": 0.48031496062992124
        },
        {
          "duration": 0.06521739130434412,
          "durationTicks": 6,
          "midi": 74,
          "name": "D5",
          "ticks": 5046,
          "time": 54.84782608695652,
          "velocity": 0.1968503937007874
        },
        {
          "duration": 0.043478260869562746,
          "durationTicks": 4,
          "midi": 61,
          "name": "C#4",
          "ticks": 5047,
          "time": 54.858695652173914,
          "velocity": 0.29133858267716534
        },
        {
          "duration": 0.021739130434781373,
          "durationTicks": 2,
          "midi": 66,
          "name": "F#4",
          "ticks": 5047,
          "time": 54.858695652173914,
          "velocity": 0.25984251968503935
        },
        {
          "duration": 0.03260869565217206,
          "durationTicks": 3,
          "midi": 54,
          "name": "F#3",
          "ticks": 5048,
          "time": 54.869565217391305,
          "velocity": 0.3228346456692913
        },
        {
          "duration": 0.13043478260869534,
          "durationTicks": 12,
          "midi": 47,
          "name": "B2",
          "ticks": 5049,
          "time": 54.880434782608695,
          "velocity": 0.44881889763779526
        },
        {
          "duration": 0.0869565217391326,
          "durationTicks": 8,
          "midi": 68,
          "name": "G#4",
          "ticks": 5050,
          "time": 54.891304347826086,
          "velocity": 0.2283464566929134
        },
        {
          "duration": 0.032608695652179165,
          "durationTicks": 3,
          "midi": 54,
          "name": "F#3",
          "ticks": 5052,
          "time": 54.91304347826087,
          "velocity": 0.29133858267716534
        },
        {
          "duration": 0.02173913043478848,
          "durationTicks": 2,
          "midi": 60,
          "name": "C4",
          "ticks": 5054,
          "time": 54.93478260869565,
          "velocity": 0.2755905511811024
        },
        {
          "duration": 0.021739130434781373,
          "durationTicks": 2,
          "midi": 55,
          "name": "G3",
          "ticks": 5055,
          "time": 54.94565217391305,
          "velocity": 0.30708661417322836
        },
        {
          "duration": 0.0760869565217348,
          "durationTicks": 7,
          "midi": 61,
          "name": "C#4",
          "ticks": 5056,
          "time": 54.95652173913044,
          "velocity": 0.2204724409448819
        },
        {
          "duration": 0.14130434782608603,
          "durationTicks": 13,
          "midi": 54,
          "name": "F#3",
          "ticks": 5057,
          "time": 54.96739130434783,
          "velocity": 0.28346456692913385
        },
        {
          "duration": 0.07608695652174191,
          "durationTicks": 7,
          "midi": 54,
          "name": "F#3",
          "ticks": 5072,
          "time": 55.130434782608695,
          "velocity": 0.1889763779527559
        },
        {
          "duration": 0.22826086956521863,
          "durationTicks": 21,
          "midi": 54,
          "name": "F#3",
          "ticks": 5080,
          "time": 55.21739130434783,
          "velocity": 0.14173228346456693
        },
        {
          "duration": 0.021739130434781373,
          "durationTicks": 2,
          "midi": 56,
          "name": "G#3",
          "ticks": 5106,
          "time": 55.5,
          "velocity": 0.5039370078740157
        },
        {
          "duration": 0.03260869565217206,
          "durationTicks": 3,
          "midi": 78,
          "name": "F#5",
          "ticks": 5106,
          "time": 55.5,
          "velocity": 0.15748031496062992
        },
        {
          "duration": 0.010869565217390686,
          "durationTicks": 1,
          "midi": 49,
          "name": "C#3",
          "ticks": 5107,
          "time": 55.51086956521739,
          "velocity": 0.5748031496062992
        },
        {
          "duration": 0.03260869565217206,
          "durationTicks": 3,
          "midi": 67,
          "name": "G4",
          "ticks": 5107,
          "time": 55.51086956521739,
          "velocity": 0.3464566929133858
        },
        {
          "duration": 0.021739130434781373,
          "durationTicks": 2,
          "midi": 47,
          "name": "B2",
          "ticks": 5108,
          "time": 55.52173913043478,
          "velocity": 0.5039370078740157
        },
        {
          "duration": 0.0869565217391326,
          "durationTicks": 8,
          "midi": 74,
          "name": "D5",
          "ticks": 5108,
          "time": 55.52173913043478,
          "velocity": 0.2125984251968504
        },
        {
          "duration": 0.05434782608696054,
          "durationTicks": 5,
          "midi": 61,
          "name": "C#4",
          "ticks": 5109,
          "time": 55.53260869565217,
          "velocity": 0.36220472440944884
        },
        {
          "duration": 0.11956521739130466,
          "durationTicks": 11,
          "midi": 68,
          "name": "G#4",
          "ticks": 5110,
          "time": 55.54347826086956,
          "velocity": 0.25196850393700787
        },
        {
          "duration": 0.13043478260869534,
          "durationTicks": 12,
          "midi": 47,
          "name": "B2",
          "ticks": 5111,
          "time": 55.55434782608695,
          "velocity": 0.44881889763779526
        },
        {
          "duration": 0.021739130434781373,
          "durationTicks": 2,
          "midi": 62,
          "name": "D4",
          "ticks": 5114,
          "time": 55.58695652173913,
          "velocity": 0.2677165354330709
        },
        {
          "duration": 0.021739130434781373,
          "durationTicks": 2,
          "midi": 55,
          "name": "G3",
          "ticks": 5117,
          "time": 55.619565217391305,
          "velocity": 0.29133858267716534
        },
        {
          "duration": 0.0869565217391326,
          "durationTicks": 8,
          "midi": 61,
          "name": "C#4",
          "ticks": 5117,
          "time": 55.619565217391305,
          "velocity": 0.30708661417322836
        },
        {
          "duration": 0.07608695652174191,
          "durationTicks": 7,
          "midi": 70,
          "name": "A#4",
          "ticks": 5121,
          "time": 55.66304347826087,
          "velocity": 0.11811023622047244
        },
        {
          "duration": 0.04347826086956985,
          "durationTicks": 4,
          "midi": 48,
          "name": "C3",
          "ticks": 5123,
          "time": 55.68478260869565,
          "velocity": 0.16535433070866143
        },
        {
          "duration": 0.021739130434781373,
          "durationTicks": 2,
          "midi": 53,
          "name": "F3",
          "ticks": 5128,
          "time": 55.73913043478261,
          "velocity": 0.4015748031496063
        },
        {
          "duration": 0.021739130434781373,
          "durationTicks": 2,
          "midi": 66,
          "name": "F#4",
          "ticks": 5129,
          "time": 55.75,
          "velocity": 0.2992125984251969
        },
        {
          "duration": 0.10869565217391397,
          "durationTicks": 10,
          "midi": 47,
          "name": "B2",
          "ticks": 5131,
          "time": 55.77173913043478,
          "velocity": 0.4645669291338583
        },
        {
          "duration": 0.06521739130435122,
          "durationTicks": 6,
          "midi": 61,
          "name": "C#4",
          "ticks": 5131,
          "time": 55.77173913043478,
          "velocity": 0.3543307086614173
        },
        {
          "duration": 0.06521739130435122,
          "durationTicks": 6,
          "midi": 74,
          "name": "D5",
          "ticks": 5131,
          "time": 55.77173913043478,
          "velocity": 0.1968503937007874
        },
        {
          "duration": 0.05434782608696054,
          "durationTicks": 5,
          "midi": 70,
          "name": "A#4",
          "ticks": 5132,
          "time": 55.78260869565217,
          "velocity": 0.2283464566929134
        },
        {
          "duration": 0.10869565217390686,
          "durationTicks": 10,
          "midi": 68,
          "name": "G#4",
          "ticks": 5136,
          "time": 55.82608695652174,
          "velocity": 0.25984251968503935
        },
        {
          "duration": 0.043478260869562746,
          "durationTicks": 4,
          "midi": 54,
          "name": "F#3",
          "ticks": 5137,
          "time": 55.83695652173913,
          "velocity": 0.4015748031496063
        },
        {
          "duration": 0.03260869565217206,
          "durationTicks": 3,
          "midi": 61,
          "name": "C#4",
          "ticks": 5138,
          "time": 55.84782608695652,
          "velocity": 0.2283464566929134
        },
        {
          "duration": 0.043478260869562746,
          "durationTicks": 4,
          "midi": 70,
          "name": "A#4",
          "ticks": 5140,
          "time": 55.869565217391305,
          "velocity": 0.18110236220472442
        },
        {
          "duration": 0.021739130434781373,
          "durationTicks": 2,
          "midi": 56,
          "name": "G#3",
          "ticks": 5141,
          "time": 55.880434782608695,
          "velocity": 0.41732283464566927
        },
        {
          "duration": 0.06521739130435122,
          "durationTicks": 6,
          "midi": 61,
          "name": "C#4",
          "ticks": 5142,
          "time": 55.891304347826086,
          "velocity": 0.3858267716535433
        },
        {
          "duration": 0.05434782608696054,
          "durationTicks": 5,
          "midi": 74,
          "name": "D5",
          "ticks": 5142,
          "time": 55.891304347826086,
          "velocity": 0.1732283464566929
        },
        {
          "duration": 0.25,
          "durationTicks": 23,
          "midi": 47,
          "name": "B2",
          "ticks": 5143,
          "time": 55.90217391304348,
          "velocity": 0.49606299212598426
        },
        {
          "duration": 0.02173913043478848,
          "durationTicks": 2,
          "midi": 54,
          "name": "F#3",
          "ticks": 5145,
          "time": 55.92391304347826,
          "velocity": 0.2755905511811024
        },
        {
          "duration": 0.05434782608696054,
          "durationTicks": 5,
          "midi": 70,
          "name": "A#4",
          "ticks": 5145,
          "time": 55.92391304347826,
          "velocity": 0.1968503937007874
        },
        {
          "duration": 0.043478260869562746,
          "durationTicks": 4,
          "midi": 60,
          "name": "C4",
          "ticks": 5148,
          "time": 55.95652173913044,
          "velocity": 0.4409448818897638
        },
        {
          "duration": 0.03260869565217206,
          "durationTicks": 3,
          "midi": 68,
          "name": "G#4",
          "ticks": 5149,
          "time": 55.96739130434783,
          "velocity": 0.2125984251968504
        },
        {
          "duration": 0.07608695652174191,
          "durationTicks": 7,
          "midi": 74,
          "name": "D5",
          "ticks": 5151,
          "time": 55.98913043478261,
          "velocity": 0.16535433070866143
        },
        {
          "duration": 0.06521739130435122,
          "durationTicks": 6,
          "midi": 61,
          "name": "C#4",
          "ticks": 5152,
          "time": 56,
          "velocity": 0.36220472440944884
        },
        {
          "duration": 0.13043478260869534,
          "durationTicks": 12,
          "midi": 68,
          "name": "G#4",
          "ticks": 5153,
          "time": 56.01086956521739,
          "velocity": 0.2125984251968504
        },
        {
          "duration": 0.05434782608696054,
          "durationTicks": 5,
          "midi": 54,
          "name": "F#3",
          "ticks": 5157,
          "time": 56.05434782608695,
          "velocity": 0.2755905511811024
        },
        {
          "duration": 0.06521739130434412,
          "durationTicks": 6,
          "midi": 61,
          "name": "C#4",
          "ticks": 5161,
          "time": 56.09782608695652,
          "velocity": 0.2283464566929134
        },
        {
          "duration": 0.06521739130435122,
          "durationTicks": 6,
          "midi": 54,
          "name": "F#3",
          "ticks": 5164,
          "time": 56.130434782608695,
          "velocity": 0.25984251968503935
        },
        {
          "duration": 0.03260869565217206,
          "durationTicks": 3,
          "midi": 78,
          "name": "F#5",
          "ticks": 5174,
          "time": 56.23913043478261,
          "velocity": 0.13385826771653545
        },
        {
          "duration": 0.010869565217390686,
          "durationTicks": 1,
          "midi": 50,
          "name": "D3",
          "ticks": 5175,
          "time": 56.25,
          "velocity": 0.5433070866141733
        },
        {
          "duration": 0.021739130434781373,
          "durationTicks": 2,
          "midi": 56,
          "name": "G#3",
          "ticks": 5175,
          "time": 56.25,
          "velocity": 0.5039370078740157
        },
        {
          "duration": 0.03260869565217206,
          "durationTicks": 3,
          "midi": 81,
          "name": "A5",
          "ticks": 5175,
          "time": 56.25,
          "velocity": 0.11023622047244094
        },
        {
          "duration": 0.1739130434782581,
          "durationTicks": 16,
          "midi": 47,
          "name": "B2",
          "ticks": 5176,
          "time": 56.26086956521739,
          "velocity": 0.49606299212598426
        },
        {
          "duration": 0.0869565217391326,
          "durationTicks": 8,
          "midi": 74,
          "name": "D5",
          "ticks": 5176,
          "time": 56.26086956521739,
          "velocity": 0.2125984251968504
        },
        {
          "duration": 0.06521739130435122,
          "durationTicks": 6,
          "midi": 61,
          "name": "C#4",
          "ticks": 5177,
          "time": 56.27173913043478,
          "velocity": 0.4015748031496063
        },
        {
          "duration": 0.021739130434781373,
          "durationTicks": 2,
          "midi": 66,
          "name": "F#4",
          "ticks": 5177,
          "time": 56.27173913043478,
          "velocity": 0.23622047244094488
        },
        {
          "duration": 0.021739130434781373,
          "durationTicks": 2,
          "midi": 68,
          "name": "G#4",
          "ticks": 5177,
          "time": 56.27173913043478,
          "velocity": 0.23622047244094488
        },
        {
          "duration": 0.09782608695652328,
          "durationTicks": 9,
          "midi": 68,
          "name": "G#4",
          "ticks": 5180,
          "time": 56.30434782608695,
          "velocity": 0.2283464566929134
        },
        {
          "duration": 0.05434782608695343,
          "durationTicks": 5,
          "midi": 70,
          "name": "A#4",
          "ticks": 5181,
          "time": 56.31521739130435,
          "velocity": 0.2047244094488189
        },
        {
          "duration": 0.021739130434781373,
          "durationTicks": 2,
          "midi": 60,
          "name": "C4",
          "ticks": 5184,
          "time": 56.34782608695652,
          "velocity": 0.33070866141732286
        },
        {
          "duration": 0.021739130434781373,
          "durationTicks": 2,
          "midi": 55,
          "name": "G3",
          "ticks": 5185,
          "time": 56.358695652173914,
          "velocity": 0.2755905511811024
        },
        {
          "duration": 0.07608695652174191,
          "durationTicks": 7,
          "midi": 61,
          "name": "C#4",
          "ticks": 5186,
          "time": 56.369565217391305,
          "velocity": 0.30708661417322836
        },
        {
          "duration": 0.10869565217391397,
          "durationTicks": 10,
          "midi": 70,
          "name": "A#4",
          "ticks": 5189,
          "time": 56.40217391304348,
          "velocity": 0.14173228346456693
        },
        {
          "duration": 0.032608695652179165,
          "durationTicks": 3,
          "midi": 55,
          "name": "G3",
          "ticks": 5190,
          "time": 56.41304347826087,
          "velocity": 0.1732283464566929
        },
        {
          "duration": 0.043478260869562746,
          "durationTicks": 4,
          "midi": 54,
          "name": "F#3",
          "ticks": 5193,
          "time": 56.44565217391305,
          "velocity": 0.12598425196850394
        },
        {
          "duration": 0.03260869565217206,
          "durationTicks": 3,
          "midi": 58,
          "name": "A#3",
          "ticks": 5197,
          "time": 56.48913043478261,
          "velocity": 0.5039370078740157
        },
        {
          "duration": 0.03260869565217206,
          "durationTicks": 3,
          "midi": 78,
          "name": "F#5",
          "ticks": 5198,
          "time": 56.5,
          "velocity": 0.18110236220472442
        },
        {
          "duration": 0.010869565217390686,
          "durationTicks": 1,
          "midi": 50,
          "name": "D3",
          "ticks": 5199,
          "time": 56.51086956521739,
          "velocity": 0.5354330708661418
        },
        {
          "duration": 0.043478260869562746,
          "durationTicks": 4,
          "midi": 66,
          "name": "F#4",
          "ticks": 5199,
          "time": 56.51086956521739,
          "velocity": 0.36220472440944884
        },
        {
          "duration": 0.010869565217390686,
          "durationTicks": 1,
          "midi": 49,
          "name": "C#3",
          "ticks": 5200,
          "time": 56.52173913043478,
          "velocity": 0.5354330708661418
        },
        {
          "duration": 0.1630434782608745,
          "durationTicks": 15,
          "midi": 47,
          "name": "B2",
          "ticks": 5201,
          "time": 56.53260869565217,
          "velocity": 0.44881889763779526
        },
        {
          "duration": 0.06521739130435122,
          "durationTicks": 6,
          "midi": 61,
          "name": "C#4",
          "ticks": 5201,
          "time": 56.53260869565217,
          "velocity": 0.3937007874015748
        },
        {
          "duration": 0.05434782608696054,
          "durationTicks": 5,
          "midi": 74,
          "name": "D5",
          "ticks": 5201,
          "time": 56.53260869565217,
          "velocity": 0.1889763779527559
        },
        {
          "duration": 0.02173913043478848,
          "durationTicks": 2,
          "midi": 67,
          "name": "G4",
          "ticks": 5203,
          "time": 56.55434782608695,
          "velocity": 0.2755905511811024
        },
        {
          "duration": 0.03260869565217206,
          "durationTicks": 3,
          "midi": 70,
          "name": "A#4",
          "ticks": 5204,
          "time": 56.56521739130435,
          "velocity": 0.15748031496062992
        },
        {
          "duration": 0.043478260869562746,
          "durationTicks": 4,
          "midi": 54,
          "name": "F#3",
          "ticks": 5206,
          "time": 56.58695652173913,
          "velocity": 0.31496062992125984
        },
        {
          "duration": 0.021739130434781373,
          "durationTicks": 2,
          "midi": 67,
          "name": "G4",
          "ticks": 5206,
          "time": 56.58695652173913,
          "velocity": 0.25984251968503935
        },
        {
          "duration": 0.021739130434781373,
          "durationTicks": 2,
          "midi": 55,
          "name": "G3",
          "ticks": 5210,
          "time": 56.630434782608695,
          "velocity": 0.2992125984251969
        },
        {
          "duration": 0.05434782608695343,
          "durationTicks": 5,
          "midi": 61,
          "name": "C#4",
          "ticks": 5210,
          "time": 56.630434782608695,
          "velocity": 0.3228346456692913
        },
        {
          "duration": 0.06521739130435122,
          "durationTicks": 6,
          "midi": 66,
          "name": "F#4",
          "ticks": 5211,
          "time": 56.641304347826086,
          "velocity": 0.23622047244094488
        },
        {
          "duration": 0.07608695652174191,
          "durationTicks": 7,
          "midi": 54,
          "name": "F#3",
          "ticks": 5212,
          "time": 56.65217391304348,
          "velocity": 0.2992125984251969
        },
        {
          "duration": 0.14130434782608603,
          "durationTicks": 13,
          "midi": 70,
          "name": "A#4",
          "ticks": 5213,
          "time": 56.66304347826087,
          "velocity": 0.11023622047244094
        },
        {
          "duration": 0.05434782608695343,
          "durationTicks": 5,
          "midi": 54,
          "name": "F#3",
          "ticks": 5220,
          "time": 56.73913043478261,
          "velocity": 0.1889763779527559
        },
        {
          "duration": 0.0760869565217348,
          "durationTicks": 7,
          "midi": 54,
          "name": "F#3",
          "ticks": 5227,
          "time": 56.81521739130435,
          "velocity": 0.18110236220472442
        },
        {
          "duration": 0.11956521739130466,
          "durationTicks": 11,
          "midi": 54,
          "name": "F#3",
          "ticks": 5235,
          "time": 56.90217391304348,
          "velocity": 0.47244094488188976
        },
        {
          "duration": 0.03260869565217206,
          "durationTicks": 3,
          "midi": 76,
          "name": "E5",
          "ticks": 5245,
          "time": 57.01086956521739,
          "velocity": 0.1889763779527559
        },
        {
          "duration": 0.03260869565217206,
          "durationTicks": 3,
          "midi": 78,
          "name": "F#5",
          "ticks": 5245,
          "time": 57.01086956521739,
          "velocity": 0.25984251968503935
        },
        {
          "duration": 0.010869565217390686,
          "durationTicks": 1,
          "midi": 50,
          "name": "D3",
          "ticks": 5246,
          "time": 57.02173913043478,
          "velocity": 0.5669291338582677
        },
        {
          "duration": 0.021739130434781373,
          "durationTicks": 2,
          "midi": 56,
          "name": "G#3",
          "ticks": 5246,
          "time": 57.02173913043478,
          "velocity": 0.5354330708661418
        },
        {
          "duration": 0.04347826086956985,
          "durationTicks": 4,
          "midi": 66,
          "name": "F#4",
          "ticks": 5246,
          "time": 57.02173913043478,
          "velocity": 0.3700787401574803
        },
        {
          "duration": 0.021739130434781373,
          "durationTicks": 2,
          "midi": 71,
          "name": "B4",
          "ticks": 5246,
          "time": 57.02173913043478,
          "velocity": 0.23622047244094488
        },
        {
          "duration": 0.03260869565217206,
          "durationTicks": 3,
          "midi": 84,
          "name": "C6",
          "ticks": 5246,
          "time": 57.02173913043478,
          "velocity": 0.12598425196850394
        },
        {
          "duration": 0.010869565217390686,
          "durationTicks": 1,
          "midi": 49,
          "name": "C#3",
          "ticks": 5247,
          "time": 57.03260869565217,
          "velocity": 0.5196850393700787
        },
        {
          "duration": 0.15217391304348382,
          "durationTicks": 14,
          "midi": 47,
          "name": "B2",
          "ticks": 5248,
          "time": 57.04347826086956,
          "velocity": 0.4330708661417323
        },
        {
          "duration": 0.04347826086956985,
          "durationTicks": 4,
          "midi": 54,
          "name": "F#3",
          "ticks": 5248,
          "time": 57.04347826086956,
          "velocity": 0.3858267716535433
        },
        {
          "duration": 0.06521739130435122,
          "durationTicks": 6,
          "midi": 61,
          "name": "C#4",
          "ticks": 5248,
          "time": 57.04347826086956,
          "velocity": 0.3700787401574803
        },
        {
          "duration": 0.04347826086956985,
          "durationTicks": 4,
          "midi": 77,
          "name": "F5",
          "ticks": 5248,
          "time": 57.04347826086956,
          "velocity": 0.10236220472440945
        },
        {
          "duration": 0.021739130434781373,
          "durationTicks": 2,
          "midi": 67,
          "name": "G4",
          "ticks": 5250,
          "time": 57.06521739130435,
          "velocity": 0.23622047244094488
        },
        {
          "duration": 0.20652173913043015,
          "durationTicks": 19,
          "midi": 54,
          "name": "F#3",
          "ticks": 5253,
          "time": 57.09782608695652,
          "velocity": 0.3858267716535433
        },
        {
          "duration": 0.021739130434781373,
          "durationTicks": 2,
          "midi": 60,
          "name": "C4",
          "ticks": 5255,
          "time": 57.119565217391305,
          "velocity": 0.36220472440944884
        },
        {
          "duration": 0.0869565217391326,
          "durationTicks": 8,
          "midi": 61,
          "name": "C#4",
          "ticks": 5257,
          "time": 57.141304347826086,
          "velocity": 0.31496062992125984
        },
        {
          "duration": 0.13043478260869534,
          "durationTicks": 12,
          "midi": 54,
          "name": "F#3",
          "ticks": 5273,
          "time": 57.31521739130435,
          "velocity": 0.25984251968503935
        },
        {
          "duration": 0.021739130434781373,
          "durationTicks": 2,
          "midi": 58,
          "name": "A#3",
          "ticks": 5285,
          "time": 57.44565217391305,
          "velocity": 0.5039370078740157
        },
        {
          "duration": 0.05434782608695343,
          "durationTicks": 5,
          "midi": 66,
          "name": "F#4",
          "ticks": 5285,
          "time": 57.44565217391305,
          "velocity": 0.36220472440944884
        },
        {
          "duration": 0.03260869565217206,
          "durationTicks": 3,
          "midi": 73,
          "name": "C#5",
          "ticks": 5285,
          "time": 57.44565217391305,
          "velocity": 0.2125984251968504
        },
        {
          "duration": 0.010869565217390686,
          "durationTicks": 1,
          "midi": 49,
          "name": "C#3",
          "ticks": 5286,
          "time": 57.45652173913044,
          "velocity": 0.5669291338582677
        },
        {
          "duration": 0.0760869565217348,
          "durationTicks": 7,
          "midi": 47,
          "name": "B2",
          "ticks": 5287,
          "time": 57.46739130434783,
          "velocity": 0.5118110236220472
        },
        {
          "duration": 0.0760869565217348,
          "durationTicks": 7,
          "midi": 61,
          "name": "C#4",
          "ticks": 5287,
          "time": 57.46739130434783,
          "velocity": 0.4330708661417323
        },
        {
          "duration": 0.05434782608695343,
          "durationTicks": 5,
          "midi": 74,
          "name": "D5",
          "ticks": 5288,
          "time": 57.47826086956522,
          "velocity": 0.18110236220472442
        },
        {
          "duration": 0.032608695652179165,
          "durationTicks": 3,
          "midi": 67,
          "name": "G4",
          "ticks": 5295,
          "time": 57.55434782608695,
          "velocity": 0.29133858267716534
        },
        {
          "duration": 0.021739130434781373,
          "durationTicks": 2,
          "midi": 56,
          "name": "G#3",
          "ticks": 5296,
          "time": 57.56521739130435,
          "velocity": 0.47244094488188976
        },
        {
          "duration": 0.1630434782608674,
          "durationTicks": 15,
          "midi": 47,
          "name": "B2",
          "ticks": 5297,
          "time": 57.57608695652174,
          "velocity": 0.41732283464566927
        },
        {
          "duration": 0.0760869565217348,
          "durationTicks": 7,
          "midi": 61,
          "name": "C#4",
          "ticks": 5297,
          "time": 57.57608695652174,
          "velocity": 0.4330708661417323
        },
        {
          "duration": 0.043478260869562746,
          "durationTicks": 4,
          "midi": 74,
          "name": "D5",
          "ticks": 5297,
          "time": 57.57608695652174,
          "velocity": 0.12598425196850394
        },
        {
          "duration": 0.043478260869562746,
          "durationTicks": 4,
          "midi": 54,
          "name": "F#3",
          "ticks": 5298,
          "time": 57.58695652173913,
          "velocity": 0.3700787401574803
        },
        {
          "duration": 0.03260869565217206,
          "durationTicks": 3,
          "midi": 68,
          "name": "G#4",
          "ticks": 5298,
          "time": 57.58695652173913,
          "velocity": 0.23622047244094488
        },
        {
          "duration": 0.06521739130434412,
          "durationTicks": 6,
          "midi": 70,
          "name": "A#4",
          "ticks": 5300,
          "time": 57.608695652173914,
          "velocity": 0.23622047244094488
        },
        {
          "duration": 0.021739130434781373,
          "durationTicks": 2,
          "midi": 55,
          "name": "G3",
          "ticks": 5302,
          "time": 57.630434782608695,
          "velocity": 0.2677165354330709
        },
        {
          "duration": 0.05434782608696054,
          "durationTicks": 5,
          "midi": 68,
          "name": "G#4",
          "ticks": 5304,
          "time": 57.65217391304348,
          "velocity": 0.1889763779527559
        },
        {
          "duration": 0.05434782608696054,
          "durationTicks": 5,
          "midi": 54,
          "name": "F#3",
          "ticks": 5306,
          "time": 57.67391304347826,
          "velocity": 0.3464566929133858
        },
        {
          "duration": 0.05434782608696054,
          "durationTicks": 5,
          "midi": 61,
          "name": "C#4",
          "ticks": 5306,
          "time": 57.67391304347826,
          "velocity": 0.3464566929133858
        },
        {
          "duration": 0.14130434782608603,
          "durationTicks": 13,
          "midi": 70,
          "name": "A#4",
          "ticks": 5308,
          "time": 57.69565217391305,
          "velocity": 0.14173228346456693
        },
        {
          "duration": 0.021739130434781373,
          "durationTicks": 2,
          "midi": 60,
          "name": "C4",
          "ticks": 5311,
          "time": 57.72826086956522,
          "velocity": 0.30708661417322836
        },
        {
          "duration": 0.03260869565217206,
          "durationTicks": 3,
          "midi": 54,
          "name": "F#3",
          "ticks": 5315,
          "time": 57.77173913043478,
          "velocity": 0.23622047244094488
        },
        {
          "duration": 0.021739130434781373,
          "durationTicks": 2,
          "midi": 59,
          "name": "B3",
          "ticks": 5319,
          "time": 57.81521739130435,
          "velocity": 0.44881889763779526
        },
        {
          "duration": 0.03260869565217206,
          "durationTicks": 3,
          "midi": 73,
          "name": "C#5",
          "ticks": 5319,
          "time": 57.81521739130435,
          "velocity": 0.2283464566929134
        },
        {
          "duration": 0.043478260869562746,
          "durationTicks": 4,
          "midi": 78,
          "name": "F#5",
          "ticks": 5319,
          "time": 57.81521739130435,
          "velocity": 0.1732283464566929
        },
        {
          "duration": 0.010869565217390686,
          "durationTicks": 1,
          "midi": 49,
          "name": "C#3",
          "ticks": 5320,
          "time": 57.82608695652174,
          "velocity": 0.5354330708661418
        },
        {
          "duration": 0.1630434782608674,
          "durationTicks": 15,
          "midi": 47,
          "name": "B2",
          "ticks": 5321,
          "time": 57.83695652173913,
          "velocity": 0.48031496062992124
        },
        {
          "duration": 0.06521739130434412,
          "durationTicks": 6,
          "midi": 61,
          "name": "C#4",
          "ticks": 5321,
          "time": 57.83695652173913,
          "velocity": 0.4015748031496063
        },
        {
          "duration": 0.021739130434781373,
          "durationTicks": 2,
          "midi": 66,
          "name": "F#4",
          "ticks": 5322,
          "time": 57.84782608695652,
          "velocity": 0.30708661417322836
        },
        {
          "duration": 0.06521739130434412,
          "durationTicks": 6,
          "midi": 74,
          "name": "D5",
          "ticks": 5322,
          "time": 57.84782608695652,
          "velocity": 0.1968503937007874
        },
        {
          "duration": 0.09782608695652328,
          "durationTicks": 9,
          "midi": 68,
          "name": "G#4",
          "ticks": 5325,
          "time": 57.880434782608695,
          "velocity": 0.2440944881889764
        },
        {
          "duration": 0.14130434782608603,
          "durationTicks": 13,
          "midi": 54,
          "name": "F#3",
          "ticks": 5327,
          "time": 57.90217391304348,
          "velocity": 0.33070866141732286
        },
        {
          "duration": 0.07608695652174191,
          "durationTicks": 7,
          "midi": 61,
          "name": "C#4",
          "ticks": 5330,
          "time": 57.93478260869565,
          "velocity": 0.2755905511811024
        },
        {
          "duration": 0.06521739130434412,
          "durationTicks": 6,
          "midi": 70,
          "name": "A#4",
          "ticks": 5335,
          "time": 57.98913043478261,
          "velocity": 0.07874015748031496
        },
        {
          "duration": 0.0760869565217348,
          "durationTicks": 7,
          "midi": 54,
          "name": "F#3",
          "ticks": 5342,
          "time": 58.06521739130435,
          "velocity": 0.2283464566929134
        },
        {
          "duration": 0.05434782608696054,
          "durationTicks": 5,
          "midi": 54,
          "name": "F#3",
          "ticks": 5350,
          "time": 58.15217391304348,
          "velocity": 0.18110236220472442
        },
        {
          "duration": 0.043478260869562746,
          "durationTicks": 4,
          "midi": 54,
          "name": "F#3",
          "ticks": 5357,
          "time": 58.22826086956522,
          "velocity": 0.41732283464566927
        },
        {
          "duration": 0.03260869565217206,
          "durationTicks": 3,
          "midi": 78,
          "name": "F#5",
          "ticks": 5360,
          "time": 58.26086956521739,
          "velocity": 0.1732283464566929
        },
        {
          "duration": 0.010869565217390686,
          "durationTicks": 1,
          "midi": 50,
          "name": "D3",
          "ticks": 5361,
          "time": 58.27173913043478,
          "velocity": 0.5275590551181102
        },
        {
          "duration": 0.04347826086956985,
          "durationTicks": 4,
          "midi": 66,
          "name": "F#4",
          "ticks": 5361,
          "time": 58.27173913043478,
          "velocity": 0.33070866141732286
        },
        {
          "duration": 0.010869565217390686,
          "durationTicks": 1,
          "midi": 49,
          "name": "C#3",
          "ticks": 5362,
          "time": 58.28260869565217,
          "velocity": 0.5275590551181102
        },
        {
          "duration": 0.1630434782608745,
          "durationTicks": 15,
          "midi": 47,
          "name": "B2",
          "ticks": 5363,
          "time": 58.29347826086956,
          "velocity": 0.44881889763779526
        },
        {
          "duration": 0.06521739130435122,
          "durationTicks": 6,
          "midi": 61,
          "name": "C#4",
          "ticks": 5363,
          "time": 58.29347826086956,
          "velocity": 0.3858267716535433
        },
        {
          "duration": 0.04347826086956985,
          "durationTicks": 4,
          "midi": 74,
          "name": "D5",
          "ticks": 5363,
          "time": 58.29347826086956,
          "velocity": 0.18110236220472442
        },
        {
          "duration": 0.021739130434781373,
          "durationTicks": 2,
          "midi": 54,
          "name": "F#3",
          "ticks": 5365,
          "time": 58.31521739130435,
          "velocity": 0.31496062992125984
        },
        {
          "duration": 0.021739130434781373,
          "durationTicks": 2,
          "midi": 67,
          "name": "G4",
          "ticks": 5365,
          "time": 58.31521739130435,
          "velocity": 0.23622047244094488
        },
        {
          "duration": 0.043478260869562746,
          "durationTicks": 4,
          "midi": 70,
          "name": "A#4",
          "ticks": 5365,
          "time": 58.31521739130435,
          "velocity": 0.15748031496062992
        },
        {
          "duration": 0.021739130434781373,
          "durationTicks": 2,
          "midi": 55,
          "name": "G3",
          "ticks": 5367,
          "time": 58.33695652173913,
          "velocity": 0.25984251968503935
        },
        {
          "duration": 0.03260869565217206,
          "durationTicks": 3,
          "midi": 54,
          "name": "F#3",
          "ticks": 5369,
          "time": 58.358695652173914,
          "velocity": 0.30708661417322836
        },
        {
          "duration": 0.043478260869562746,
          "durationTicks": 4,
          "midi": 68,
          "name": "G#4",
          "ticks": 5369,
          "time": 58.358695652173914,
          "velocity": 0.13385826771653545
        },
        {
          "duration": 0.021739130434781373,
          "durationTicks": 2,
          "midi": 60,
          "name": "C4",
          "ticks": 5370,
          "time": 58.369565217391305,
          "velocity": 0.30708661417322836
        },
        {
          "duration": 0.05434782608696054,
          "durationTicks": 5,
          "midi": 61,
          "name": "C#4",
          "ticks": 5372,
          "time": 58.391304347826086,
          "velocity": 0.2677165354330709
        },
        {
          "duration": 0.03260869565217206,
          "durationTicks": 3,
          "midi": 54,
          "name": "F#3",
          "ticks": 5373,
          "time": 58.40217391304348,
          "velocity": 0.2440944881889764
        },
        {
          "duration": 0.02173913043478848,
          "durationTicks": 2,
          "midi": 55,
          "name": "G3",
          "ticks": 5376,
          "time": 58.43478260869565,
          "velocity": 0.23622047244094488
        },
        {
          "duration": 0.08695652173912549,
          "durationTicks": 8,
          "midi": 54,
          "name": "F#3",
          "ticks": 5378,
          "time": 58.45652173913044,
          "velocity": 0.1732283464566929
        },
        {
          "duration": 0.03260869565217206,
          "durationTicks": 3,
          "midi": 54,
          "name": "F#3",
          "ticks": 5388,
          "time": 58.56521739130435,
          "velocity": 0.14173228346456693
        }
      ]
    }
  ]
}
