{
  "header": {
    "keySignatures": [],
    "meta": [],
    "name": "",
    "ppq": 43,
    "tempos": [
      {
        "bpm": 120,
        "ticks": 0
      }
    ],
    "timeSignatures": []
  },
  "tracks": [
    {
      "channel": 0,
      "controlChanges": {},
      "instrument": {
        "family": "piano",
        "name": "acoustic grand piano",
        "number": 0
      },
      "name": "",
      "notes": [
        {
          "duration": 0.023255813953488372,
          "durationTicks": 2,
          "midi": 48,
          "name": "C3",
          "ticks": 0,
          "time": 0,
          "velocity": 0.5275590551181102
        },
        {
          "duration": 0.023255813953488372,
          "durationTicks": 2,
          "midi": 67,
          "name": "G4",
          "ticks": 1,
          "time": 0.011627906976744186,
          "velocity": 0.23622047244094488
        },
        {
          "duration": 0.011627906976744186,
          "durationTicks": 1,
          "midi": 45,
          "name": "A2",
          "ticks": 2,
          "time": 0.023255813953488372,
          "velocity": 0.6377952755905512
        },
        {
          "duration": 0.03488372093023256,
          "durationTicks": 3,
          "midi": 64,
          "name": "E4",
          "ticks": 2,
          "time": 0.023255813953488372,
          "velocity": 0.33070866141732286
        },
        {
          "duration": 0.058139534883720936,
          "durationTicks": 5,
          "midi": 70,
          "name": "A#4",
          "ticks": 2,
          "time": 0.023255813953488372,
          "velocity": 0.23622047244094488
        },
        {
          "duration": 0.011627906976744186,
          "durationTicks": 1,
          "midi": 30,
          "name": "F#1",
          "ticks": 3,
          "time": 0.03488372093023256,
          "velocity": 0.5433070866141733
        },
        {
          "duration": 0.011627906976744186,
          "durationTicks": 1,
          "midi": 44,
          "name": "G#2",
          "ticks": 3,
          "time": 0.03488372093023256,
          "velocity": 0.6220472440944882
        },
        {
          "duration": 0.011627906976744186,
          "durationTicks": 1,
          "midi": 50,
          "name": "D3",
          "ticks": 3,
          "time": 0.03488372093023256,
          "velocity": 0.5196850393700787
        },
        {
          "duration": 0.011627906976744186,
          "durationTicks": 1,
          "midi": 22,
          "name": "A#0",
          "ticks": 4,
          "time": 0.046511627906976744,
          "velocity": 0.5196850393700787
        },
        {
          "duration": 0.011627906976744186,
          "durationTicks": 1,
          "midi": 43,
          "name": "G2",
          "ticks": 4,
          "time": 0.046511627906976744,
          "velocity": 0.5748031496062992
        },
        {
          "duration": 0.011627906976744186,
          "durationTicks": 1,
          "midi": 41,
          "name": "F2",
          "ticks": 5,
          "time": 0.05813953488372093,
          "velocity": 0.5905511811023622
        },
        {
          "duration": 0.08139534883720931,
          "durationTicks": 7,
          "midi": 62,
          "name": "D4",
          "ticks": 5,
          "time": 0.05813953488372093,
          "velocity": 0.33070866141732286
        },
        {
          "duration": 0.023255813953488372,
          "durationTicks": 2,
          "midi": 40,
          "name": "E2",
          "ticks": 6,
          "time": 0.06976744186046512,
          "velocity": 0.6062992125984252
        },
        {
          "duration": 0.011627906976744193,
          "durationTicks": 1,
          "midi": 48,
          "name": "C3",
          "ticks": 6,
          "time": 0.06976744186046512,
          "velocity": 0.5354330708661418
        },
        {
          "duration": 0.011627906976744179,
          "durationTicks": 1,
          "midi": 30,
          "name": "F#1",
          "ticks": 7,
          "time": 0.08139534883720931,
          "velocity": 0.5354330708661418
        },
        {
          "duration": 0.011627906976744193,
          "durationTicks": 1,
          "midi": 37,
          "name": "C#2",
          "ticks": 8,
          "time": 0.09302325581395349,
          "velocity": 0.6614173228346457
        },
        {
          "duration": 0.011627906976744179,
          "durationTicks": 1,
          "midi": 32,
          "name": "G#1",
          "ticks": 9,
          "time": 0.10465116279069768,
          "velocity": 0.6929133858267716
        },
        {
          "duration": 0.011627906976744179,
          "durationTicks": 1,
          "midi": 42,
          "name": "F#2",
          "ticks": 9,
          "time": 0.10465116279069768,
          "velocity": 0.5118110236220472
        },
        {
          "duration": 0.023255813953488372,
          "durationTicks": 2,
          "midi": 56,
          "name": "G#3",
          "ticks": 9,
          "time": 0.10465116279069768,
          "velocity": 0.3937007874015748
        },
        {
          "duration": 0.011627906976744193,
          "durationTicks": 1,
          "midi": 34,
          "name": "A#1",
          "ticks": 10,
          "time": 0.11627906976744186,
          "velocity": 0.7322834645669292
        },
        {
          "duration": 0.046511627906976744,
          "durationTicks": 4,
          "midi": 36,
          "name": "C2",
          "ticks": 11,
          "time": 0.12790697674418605,
          "velocity": 0.6929133858267716
        },
        {
          "duration": 0.023255813953488358,
          "durationTicks": 2,
          "midi": 55,
          "name": "G3",
          "ticks": 11,
          "time": 0.12790697674418605,
          "velocity": 0.3858267716535433
        },
        {
          "duration": 0.023255813953488386,
          "durationTicks": 2,
          "midi": 62,
          "name": "D4",
          "ticks": 13,
          "time": 0.1511627906976744,
          "velocity": 0.25196850393700787
        },
        {
          "duration": 0.023255813953488358,
          "durationTicks": 2,
          "midi": 50,
          "name": "D3",
          "ticks": 14,
          "time": 0.16279069767441862,
          "velocity": 0.4881889763779528
        },
        {
          "duration": 0.011627906976744179,
          "durationTicks": 1,
          "midi": 35,
          "name": "B1",
          "ticks": 15,
          "time": 0.1744186046511628,
          "velocity": 0.6535433070866141
        },
        {
          "duration": 0.011627906976744179,
          "durationTicks": 1,
          "midi": 33,
          "name": "A1",
          "ticks": 16,
          "time": 0.18604651162790697,
          "velocity": 0.5905511811023622
        },
        {
          "duration": 0.011627906976744207,
          "durationTicks": 1,
          "midi": 32,
          "name": "G#1",
          "ticks": 17,
          "time": 0.19767441860465115,
          "velocity": 0.5590551181102362
        },
        {
          "duration": 0.011627906976744179,
          "durationTicks": 1,
          "midi": 33,
          "name": "A1",
          "ticks": 18,
          "time": 0.20930232558139536,
          "velocity": 0.5590551181102362
        },
        {
          "duration": 0.046511627906976744,
          "durationTicks": 4,
          "midi": 62,
          "name": "D4",
          "ticks": 18,
          "time": 0.20930232558139536,
          "velocity": 0.14173228346456693
        },
        {
          "duration": 0.023255813953488386,
          "durationTicks": 2,
          "midi": 42,
          "name": "F#2",
          "ticks": 20,
          "time": 0.23255813953488372,
          "velocity": 0.49606299212598426
        },
        {
          "duration": 0.023255813953488413,
          "durationTicks": 2,
          "midi": 49,
          "name": "C#3",
          "ticks": 23,
          "time": 0.26744186046511625,
          "velocity": 0.4330708661417323
        },
        {
          "duration": 0.011627906976744151,
          "durationTicks": 1,
          "midi": 35,
          "name": "B1",
          "ticks": 25,
          "time": 0.29069767441860467,
          "velocity": 0.5984251968503937
        },
        {
          "duration": 0.023255813953488413,
          "durationTicks": 2,
          "midi": 36,
          "name": "C2",
          "ticks": 26,
          "time": 0.3023255813953488,
          "velocity": 0.5984251968503937
        },
        {
          "duration": 0.011627906976744151,
          "durationTicks": 1,
          "midi": 35,
          "name": "B1",
          "ticks": 28,
          "time": 0.32558139534883723,
          "velocity": 0.5354330708661418
        },
        {
          "duration": 0.011627906976744207,
          "durationTicks": 1,
          "midi": 36,
          "name": "C2",
          "ticks": 29,
          "time": 0.3372093023255814,
          "velocity": 0.6062992125984252
        },
        {
          "duration": 0.011627906976744151,
          "durationTicks": 1,
          "midi": 35,
          "name": "B1",
          "ticks": 30,
          "time": 0.3488372093023256,
          "velocity": 0.6141732283464567
        },
        {
          "duration": 0.023255813953488413,
          "durationTicks": 2,
          "midi": 34,
          "name": "A#1",
          "ticks": 31,
          "time": 0.36046511627906974,
          "velocity": 0.5748031496062992
        },
        {
          "duration": 0.023255813953488358,
          "durationTicks": 2,
          "midi": 51,
          "name": "D#3",
          "ticks": 35,
          "time": 0.4069767441860465,
          "velocity": 0.2677165354330709
        },
        {
          "duration": 0.023255813953488358,
          "durationTicks": 2,
          "midi": 30,
          "name": "F#1",
          "ticks": 36,
          "time": 0.4186046511627907,
          "velocity": 0.5275590551181102
        },
        {
          "duration": 0.034883720930232565,
          "durationTicks": 3,
          "midi": 50,
          "name": "D3",
          "ticks": 37,
          "time": 0.43023255813953487,
          "velocity": 0.2992125984251969
        },
        {
          "duration": 0.011627906976744151,
          "durationTicks": 1,
          "midi": 34,
          "name": "A#1",
          "ticks": 38,
          "time": 0.4418604651162791,
          "velocity": 0.5984251968503937
        },
        {
          "duration": 0.011627906976744207,
          "durationTicks": 1,
          "midi": 36,
          "name": "C2",
          "ticks": 39,
          "time": 0.45348837209302323,
          "velocity": 0.5354330708661418
        },
        {
          "duration": 0.023255813953488413,
          "durationTicks": 2,
          "midi": 35,
          "name": "B1",
          "ticks": 42,
          "time": 0.4883720930232558,
          "velocity": 0.6141732283464567
        },
        {
          "duration": 0.011627906976744207,
          "durationTicks": 1,
          "midi": 34,
          "name": "A#1",
          "ticks": 44,
          "time": 0.5116279069767442,
          "velocity": 0.5354330708661418
        },
        {
          "duration": 0.011627906976744207,
          "durationTicks": 1,
          "midi": 40,
          "name": "E2",
          "ticks": 46,
          "time": 0.5348837209302325,
          "velocity": 0.5275590551181102
        },
        {
          "duration": 0.011627906976744207,
          "durationTicks": 1,
          "midi": 35,
          "name": "B1",
          "ticks": 47,
          "time": 0.5465116279069767,
          "velocity": 0.6141732283464567
        },
        {
          "duration": 0.011627906976744207,
          "durationTicks": 1,
          "midi": 32,
          "name": "G#1",
          "ticks": 48,
          "time": 0.5581395348837209,
          "velocity": 0.5826771653543307
        },
        {
          "duration": 0.011627906976744207,
          "durationTicks": 1,
          "midi": 34,
          "name": "A#1",
          "ticks": 49,
          "time": 0.5697674418604651,
          "velocity": 0.5196850393700787
        },
        {
          "duration": 0.011627906976744207,
          "durationTicks": 1,
          "midi": 40,
          "name": "E2",
          "ticks": 50,
          "time": 0.5813953488372093,
          "velocity": 0.5669291338582677
        },
        {
          "duration": 0.046511627906976716,
          "durationTicks": 4,
          "midi": 63,
          "name": "D#4",
          "ticks": 50,
          "time": 0.5813953488372093,
          "velocity": 0.31496062992125984
        },
        {
          "duration": 0.011627906976744096,
          "durationTicks": 1,
          "midi": 37,
          "name": "C#2",
          "ticks": 51,
          "time": 0.5930232558139535,
          "velocity": 0.5826771653543307
        },
        {
          "duration": 0.011627906976744207,
          "durationTicks": 1,
          "midi": 34,
          "name": "A#1",
          "ticks": 52,
          "time": 0.6046511627906976,
          "velocity": 0.5354330708661418
        },
        {
          "duration": 0.023255813953488413,
          "durationTicks": 2,
          "midi": 50,
          "name": "D3",
          "ticks": 52,
          "time": 0.6046511627906976,
          "velocity": 0.36220472440944884
        },
        {
          "duration": 0.011627906976744207,
          "durationTicks": 1,
          "midi": 40,
          "name": "E2",
          "ticks": 53,
          "time": 0.6162790697674418,
          "velocity": 0.5354330708661418
        },
        {
          "duration": 0.011627906976744207,
          "durationTicks": 1,
          "midi": 38,
          "name": "D2",
          "ticks": 54,
          "time": 0.627906976744186,
          "velocity": 0.6062992125984252
        },
        {
          "duration": 0.046511627906976716,
          "durationTicks": 4,
          "midi": 53,
          "name": "F3",
          "ticks": 54,
          "time": 0.627906976744186,
          "velocity": 0.3228346456692913
        },
        {
          "duration": 0.011627906976744207,
          "durationTicks": 1,
          "midi": 35,
          "name": "B1",
          "ticks": 55,
          "time": 0.6395348837209303,
          "velocity": 0.6535433070866141
        },
        {
          "duration": 0.011627906976744096,
          "durationTicks": 1,
          "midi": 34,
          "name": "A#1",
          "ticks": 56,
          "time": 0.6511627906976745,
          "velocity": 0.6614173228346457
        },
        {
          "duration": 0.011627906976744207,
          "durationTicks": 1,
          "midi": 36,
          "name": "C2",
          "ticks": 57,
          "time": 0.6627906976744186,
          "velocity": 0.6456692913385826
        },
        {
          "duration": 0.011627906976744207,
          "durationTicks": 1,
          "midi": 37,
          "name": "C#2",
          "ticks": 58,
          "time": 0.6744186046511628,
          "velocity": 0.6299212598425197
        },
        {
          "duration": 0.023255813953488413,
          "durationTicks": 2,
          "midi": 35,
          "name": "B1",
          "ticks": 59,
          "time": 0.686046511627907,
          "velocity": 0.6850393700787402
        },
        {
          "duration": 0.023255813953488413,
          "durationTicks": 2,
          "midi": 50,
          "name": "D3",
          "ticks": 59,
          "time": 0.686046511627907,
          "velocity": 0.2677165354330709
        },
        {
          "duration": 0.046511627906976716,
          "durationTicks": 4,
          "midi": 36,
          "name": "C2",
          "ticks": 61,
          "time": 0.7093023255813954,
          "velocity": 0.6456692913385826
        },
        {
          "duration": 0.03488372093023262,
          "durationTicks": 3,
          "midi": 50,
          "name": "D3",
          "ticks": 63,
          "time": 0.7325581395348837,
          "velocity": 0.25196850393700787
        },
        {
          "duration": 0.011627906976744207,
          "durationTicks": 1,
          "midi": 35,
          "name": "B1",
          "ticks": 65,
          "time": 0.7558139534883721,
          "velocity": 0.5984251968503937
        },
        {
          "duration": 0.011627906976744207,
          "durationTicks": 1,
          "midi": 34,
          "name": "A#1",
          "ticks": 66,
          "time": 0.7674418604651163,
          "velocity": 0.5118110236220472
        },
        {
          "duration": 0.011627906976744207,
          "durationTicks": 1,
          "midi": 35,
          "name": "B1",
          "ticks": 69,
          "time": 0.8023255813953488,
          "velocity": 0.5196850393700787
        },
        {
          "duration": 0.011627906976744207,
          "durationTicks": 1,
          "midi": 33,
          "name": "A1",
          "ticks": 76,
          "time": 0.8837209302325582,
          "velocity": 0.5196850393700787
        },
        {
          "duration": 0.011627906976744096,
          "durationTicks": 1,
          "midi": 34,
          "name": "A#1",
          "ticks": 77,
          "time": 0.8953488372093024,
          "velocity": 0.5118110236220472
        },
        {
          "duration": 0.011627906976744207,
          "durationTicks": 1,
          "midi": 36,
          "name": "C2",
          "ticks": 80,
          "time": 0.9302325581395349,
          "velocity": 0.5118110236220472
        },
        {
          "duration": 0.011627906976744207,
          "durationTicks": 1,
          "midi": 35,
          "name": "B1",
          "ticks": 81,
          "time": 0.9418604651162791,
          "velocity": 0.5433070866141733
        },
        {
          "duration": 0.011627906976744207,
          "durationTicks": 1,
          "midi": 38,
          "name": "D2",
          "ticks": 84,
          "time": 0.9767441860465116,
          "velocity": 0.5433070866141733
        },
        {
          "duration": 0.011627906976744207,
          "durationTicks": 1,
          "midi": 35,
          "name": "B1",
          "ticks": 85,
          "time": 0.9883720930232558,
          "velocity": 0.5669291338582677
        },
        {
          "duration": 0.011627906976744207,
          "durationTicks": 1,
          "midi": 34,
          "name": "A#1",
          "ticks": 86,
          "time": 1,
          "velocity": 0.5433070866141733
        },
        {
          "duration": 0.011627906976744207,
          "durationTicks": 1,
          "midi": 33,
          "name": "A1",
          "ticks": 90,
          "time": 1.0465116279069768,
          "velocity": 0.5275590551181102
        },
        {
          "duration": 0.011627906976743985,
          "durationTicks": 1,
          "midi": 36,
          "name": "C2",
          "ticks": 91,
          "time": 1.058139534883721,
          "velocity": 0.5275590551181102
        },
        {
          "duration": 0.011627906976744207,
          "durationTicks": 1,
          "midi": 35,
          "name": "B1",
          "ticks": 94,
          "time": 1.0930232558139534,
          "velocity": 0.5354330708661418
        },
        {
          "duration": 0.011627906976744207,
          "durationTicks": 1,
          "midi": 34,
          "name": "A#1",
          "ticks": 95,
          "time": 1.1046511627906976,
          "velocity": 0.5511811023622047
        },
        {
          "duration": 0.011627906976744207,
          "durationTicks": 1,
          "midi": 48,
          "name": "C3",
          "ticks": 95,
          "time": 1.1046511627906976,
          "velocity": 0.5590551181102362
        },
        {
          "duration": 0.04651162790697683,
          "durationTicks": 4,
          "midi": 64,
          "name": "E4",
          "ticks": 95,
          "time": 1.1046511627906976,
          "velocity": 0.33858267716535434
        },
        {
          "duration": 0.023255813953488413,
          "durationTicks": 2,
          "midi": 67,
          "name": "G4",
          "ticks": 95,
          "time": 1.1046511627906976,
          "velocity": 0.25196850393700787
        },
        {
          "duration": 0.011627906976744207,
          "durationTicks": 1,
          "midi": 45,
          "name": "A2",
          "ticks": 96,
          "time": 1.1162790697674418,
          "velocity": 0.6141732283464567
        },
        {
          "duration": 0.058139534883721034,
          "durationTicks": 5,
          "midi": 70,
          "name": "A#4",
          "ticks": 96,
          "time": 1.1162790697674418,
          "velocity": 0.2440944881889764
        },
        {
          "duration": 0.011627906976744207,
          "durationTicks": 1,
          "midi": 32,
          "name": "G#1",
          "ticks": 97,
          "time": 1.127906976744186,
          "velocity": 0.5275590551181102
        },
        {
          "duration": 0.023255813953488413,
          "durationTicks": 2,
          "midi": 44,
          "name": "G#2",
          "ticks": 97,
          "time": 1.127906976744186,
          "velocity": 0.5905511811023622
        },
        {
          "duration": 0.023255813953488413,
          "durationTicks": 2,
          "midi": 50,
          "name": "D3",
          "ticks": 97,
          "time": 1.127906976744186,
          "velocity": 0.5275590551181102
        },
        {
          "duration": 0.011627906976744207,
          "durationTicks": 1,
          "midi": 22,
          "name": "A#0",
          "ticks": 98,
          "time": 1.1395348837209303,
          "velocity": 0.5118110236220472
        },
        {
          "duration": 0.011627906976744207,
          "durationTicks": 1,
          "midi": 40,
          "name": "E2",
          "ticks": 99,
          "time": 1.1511627906976745,
          "velocity": 0.5984251968503937
        },
        {
          "duration": 0.08139534883720922,
          "durationTicks": 7,
          "midi": 62,
          "name": "D4",
          "ticks": 99,
          "time": 1.1511627906976745,
          "velocity": 0.3464566929133858
        },
        {
          "duration": 0.011627906976744207,
          "durationTicks": 1,
          "midi": 36,
          "name": "C2",
          "ticks": 100,
          "time": 1.1627906976744187,
          "velocity": 0.5590551181102362
        },
        {
          "duration": 0.011627906976744207,
          "durationTicks": 1,
          "midi": 32,
          "name": "G#1",
          "ticks": 101,
          "time": 1.1744186046511629,
          "velocity": 0.5905511811023622
        },
        {
          "duration": 0.011627906976744207,
          "durationTicks": 1,
          "midi": 40,
          "name": "E2",
          "ticks": 101,
          "time": 1.1744186046511629,
          "velocity": 0.5118110236220472
        },
        {
          "duration": 0.02325581395348819,
          "durationTicks": 2,
          "midi": 33,
          "name": "A1",
          "ticks": 102,
          "time": 1.186046511627907,
          "velocity": 0.6771653543307087
        },
        {
          "duration": 0.023255813953488413,
          "durationTicks": 2,
          "midi": 56,
          "name": "G#3",
          "ticks": 103,
          "time": 1.197674418604651,
          "velocity": 0.4015748031496063
        },
        {
          "duration": 0.011627906976744207,
          "durationTicks": 1,
          "midi": 34,
          "name": "A#1",
          "ticks": 104,
          "time": 1.2093023255813953,
          "velocity": 0.7165354330708661
        },
        {
          "duration": 0.023255813953488413,
          "durationTicks": 2,
          "midi": 36,
          "name": "C2",
          "ticks": 105,
          "time": 1.2209302325581395,
          "velocity": 0.6850393700787402
        },
        {
          "duration": 0.023255813953488413,
          "durationTicks": 2,
          "midi": 55,
          "name": "G3",
          "ticks": 105,
          "time": 1.2209302325581395,
          "velocity": 0.3858267716535433
        },
        {
          "duration": 0.023255813953488413,
          "durationTicks": 2,
          "midi": 35,
          "name": "B1",
          "ticks": 107,
          "time": 1.244186046511628,
          "velocity": 0.6220472440944882
        },
        {
          "duration": 0.023255813953488413,
          "durationTicks": 2,
          "midi": 62,
          "name": "D4",
          "ticks": 107,
          "time": 1.244186046511628,
          "velocity": 0.2440944881889764
        },
        {
          "duration": 0.023255813953488413,
          "durationTicks": 2,
          "midi": 50,
          "name": "D3",
          "ticks": 108,
          "time": 1.255813953488372,
          "velocity": 0.49606299212598426
        },
        {
          "duration": 0.011627906976744207,
          "durationTicks": 1,
          "midi": 36,
          "name": "C2",
          "ticks": 109,
          "time": 1.2674418604651163,
          "velocity": 0.6456692913385826
        },
        {
          "duration": 0.011627906976744207,
          "durationTicks": 1,
          "midi": 35,
          "name": "B1",
          "ticks": 110,
          "time": 1.2790697674418605,
          "velocity": 0.5984251968503937
        },
        {
          "duration": 0.011627906976744207,
          "durationTicks": 1,
          "midi": 33,
          "name": "A1",
          "ticks": 111,
          "time": 1.2906976744186047,
          "velocity": 0.5669291338582677
        },
        {
          "duration": 0.02325581395348819,
          "durationTicks": 2,
          "midi": 44,
          "name": "G#2",
          "ticks": 111,
          "time": 1.2906976744186047,
          "velocity": 0.47244094488188976
        },
        {
          "duration": 0.011627906976743985,
          "durationTicks": 1,
          "midi": 34,
          "name": "A#1",
          "ticks": 112,
          "time": 1.302325581395349,
          "velocity": 0.5669291338582677
        },
        {
          "duration": 0.0348837209302324,
          "durationTicks": 3,
          "midi": 62,
          "name": "D4",
          "ticks": 112,
          "time": 1.302325581395349,
          "velocity": 0.12598425196850394
        },
        {
          "duration": 0.011627906976744207,
          "durationTicks": 1,
          "midi": 40,
          "name": "E2",
          "ticks": 113,
          "time": 1.313953488372093,
          "velocity": 0.5354330708661418
        },
        {
          "duration": 0.023255813953488413,
          "durationTicks": 2,
          "midi": 42,
          "name": "F#2",
          "ticks": 114,
          "time": 1.3255813953488371,
          "velocity": 0.5511811023622047
        },
        {
          "duration": 0.023255813953488413,
          "durationTicks": 2,
          "midi": 31,
          "name": "G1",
          "ticks": 117,
          "time": 1.3604651162790697,
          "velocity": 0.5039370078740157
        },
        {
          "duration": 0.011627906976744207,
          "durationTicks": 1,
          "midi": 34,
          "name": "A#1",
          "ticks": 119,
          "time": 1.3837209302325582,
          "velocity": 0.5196850393700787
        },
        {
          "duration": 0.023255813953488413,
          "durationTicks": 2,
          "midi": 39,
          "name": "D#2",
          "ticks": 120,
          "time": 1.3953488372093024,
          "velocity": 0.44881889763779526
        },
        {
          "duration": 0.011627906976743985,
          "durationTicks": 1,
          "midi": 35,
          "name": "B1",
          "ticks": 123,
          "time": 1.430232558139535,
          "velocity": 0.5748031496062992
        },
        {
          "duration": 0.023255813953488413,
          "durationTicks": 2,
          "midi": 34,
          "name": "A#1",
          "ticks": 124,
          "time": 1.441860465116279,
          "velocity": 0.5748031496062992
        },
        {
          "duration": 0.023255813953488413,
          "durationTicks": 2,
          "midi": 51,
          "name": "D#3",
          "ticks": 129,
          "time": 1.5,
          "velocity": 0.25984251968503935
        },
        {
          "duration": 0.023255813953488413,
          "durationTicks": 2,
          "midi": 31,
          "name": "G1",
          "ticks": 130,
          "time": 1.5116279069767442,
          "velocity": 0.5433070866141733
        },
        {
          "duration": 0.023255813953488413,
          "durationTicks": 2,
          "midi": 50,
          "name": "D3",
          "ticks": 131,
          "time": 1.5232558139534884,
          "velocity": 0.30708661417322836
        },
        {
          "duration": 0.011627906976744207,
          "durationTicks": 1,
          "midi": 34,
          "name": "A#1",
          "ticks": 132,
          "time": 1.5348837209302326,
          "velocity": 0.5826771653543307
        },
        {
          "duration": 0.011627906976744207,
          "durationTicks": 1,
          "midi": 36,
          "name": "C2",
          "ticks": 133,
          "time": 1.5465116279069768,
          "velocity": 0.5196850393700787
        },
        {
          "duration": 0.03488372093023262,
          "durationTicks": 3,
          "midi": 35,
          "name": "B1",
          "ticks": 136,
          "time": 1.5813953488372092,
          "velocity": 0.6062992125984252
        },
        {
          "duration": 0.023255813953488413,
          "durationTicks": 2,
          "midi": 47,
          "name": "B2",
          "ticks": 139,
          "time": 1.6162790697674418,
          "velocity": 0.36220472440944884
        },
        {
          "duration": 0.011627906976744207,
          "durationTicks": 1,
          "midi": 38,
          "name": "D2",
          "ticks": 140,
          "time": 1.627906976744186,
          "velocity": 0.5196850393700787
        },
        {
          "duration": 0.011627906976744207,
          "durationTicks": 1,
          "midi": 36,
          "name": "C2",
          "ticks": 141,
          "time": 1.6395348837209303,
          "velocity": 0.5826771653543307
        },
        {
          "duration": 0.011627906976744207,
          "durationTicks": 1,
          "midi": 34,
          "name": "A#1",
          "ticks": 142,
          "time": 1.6511627906976745,
          "velocity": 0.5433070866141733
        },
        {
          "duration": 0.011627906976744207,
          "durationTicks": 1,
          "midi": 45,
          "name": "A2",
          "ticks": 143,
          "time": 1.6627906976744187,
          "velocity": 0.5196850393700787
        },
        {
          "duration": 0.011627906976744207,
          "durationTicks": 1,
          "midi": 40,
          "name": "E2",
          "ticks": 144,
          "time": 1.6744186046511629,
          "velocity": 0.5669291338582677
        },
        {
          "duration": 0.046511627906976605,
          "durationTicks": 4,
          "midi": 63,
          "name": "D#4",
          "ticks": 144,
          "time": 1.6744186046511629,
          "velocity": 0.31496062992125984
        },
        {
          "duration": 0.011627906976743985,
          "durationTicks": 1,
          "midi": 38,
          "name": "D2",
          "ticks": 145,
          "time": 1.686046511627907,
          "velocity": 0.5590551181102362
        },
        {
          "duration": 0.011627906976744207,
          "durationTicks": 1,
          "midi": 36,
          "name": "C2",
          "ticks": 146,
          "time": 1.697674418604651,
          "velocity": 0.5196850393700787
        },
        {
          "duration": 0.023255813953488413,
          "durationTicks": 2,
          "midi": 50,
          "name": "D3",
          "ticks": 146,
          "time": 1.697674418604651,
          "velocity": 0.36220472440944884
        },
        {
          "duration": 0.023255813953488413,
          "durationTicks": 2,
          "midi": 37,
          "name": "C#2",
          "ticks": 147,
          "time": 1.7093023255813953,
          "velocity": 0.6220472440944882
        },
        {
          "duration": 0.04651162790697683,
          "durationTicks": 4,
          "midi": 53,
          "name": "F3",
          "ticks": 148,
          "time": 1.7209302325581395,
          "velocity": 0.33070866141732286
        },
        {
          "duration": 0.011627906976744207,
          "durationTicks": 1,
          "midi": 36,
          "name": "C2",
          "ticks": 149,
          "time": 1.7325581395348837,
          "velocity": 0.6535433070866141
        },
        {
          "duration": 0.011627906976744207,
          "durationTicks": 1,
          "midi": 35,
          "name": "B1",
          "ticks": 150,
          "time": 1.744186046511628,
          "velocity": 0.6614173228346457
        },
        {
          "duration": 0.023255813953488413,
          "durationTicks": 2,
          "midi": 36,
          "name": "C2",
          "ticks": 151,
          "time": 1.755813953488372,
          "velocity": 0.6614173228346457
        },
        {
          "duration": 0.023255813953488413,
          "durationTicks": 2,
          "midi": 35,
          "name": "B1",
          "ticks": 153,
          "time": 1.7790697674418605,
          "velocity": 0.6771653543307087
        },
        {
          "duration": 0.023255813953488413,
          "durationTicks": 2,
          "midi": 50,
          "name": "D3",
          "ticks": 153,
          "time": 1.7790697674418605,
          "velocity": 0.2677165354330709
        },
        {
          "duration": 0.046511627906976605,
          "durationTicks": 4,
          "midi": 36,
          "name": "C2",
          "ticks": 155,
          "time": 1.802325581395349,
          "velocity": 0.6535433070866141
        },
        {
          "duration": 0.03488372093023262,
          "durationTicks": 3,
          "midi": 50,
          "name": "D3",
          "ticks": 157,
          "time": 1.8255813953488371,
          "velocity": 0.25196850393700787
        },
        {
          "duration": 0.03488372093023262,
          "durationTicks": 3,
          "midi": 35,
          "name": "B1",
          "ticks": 159,
          "time": 1.8488372093023255,
          "velocity": 0.6062992125984252
        },
        {
          "duration": 0.011627906976744207,
          "durationTicks": 1,
          "midi": 36,
          "name": "C2",
          "ticks": 163,
          "time": 1.8953488372093024,
          "velocity": 0.5118110236220472
        },
        {
          "duration": 0.023255813953488413,
          "durationTicks": 2,
          "midi": 34,
          "name": "A#1",
          "ticks": 170,
          "time": 1.9767441860465116,
          "velocity": 0.5196850393700787
        },
        {
          "duration": 0.023255813953488413,
          "durationTicks": 2,
          "midi": 37,
          "name": "C#2",
          "ticks": 173,
          "time": 2.011627906976744,
          "velocity": 0.4645669291338583
        },
        {
          "duration": 0.011627906976744207,
          "durationTicks": 1,
          "midi": 35,
          "name": "B1",
          "ticks": 175,
          "time": 2.0348837209302326,
          "velocity": 0.5433070866141733
        },
        {
          "duration": 0.011627906976744207,
          "durationTicks": 1,
          "midi": 34,
          "name": "A#1",
          "ticks": 176,
          "time": 2.046511627906977,
          "velocity": 0.5354330708661418
        },
        {
          "duration": 0.011627906976744207,
          "durationTicks": 1,
          "midi": 38,
          "name": "D2",
          "ticks": 178,
          "time": 2.0697674418604652,
          "velocity": 0.5433070866141733
        },
        {
          "duration": 0.011627906976744207,
          "durationTicks": 1,
          "midi": 36,
          "name": "C2",
          "ticks": 179,
          "time": 2.0813953488372094,
          "velocity": 0.5826771653543307
        },
        {
          "duration": 0.011627906976744207,
          "durationTicks": 1,
          "midi": 34,
          "name": "A#1",
          "ticks": 180,
          "time": 2.0930232558139537,
          "velocity": 0.5669291338582677
        },
        {
          "duration": 0.011627906976744207,
          "durationTicks": 1,
          "midi": 35,
          "name": "B1",
          "ticks": 181,
          "time": 2.104651162790698,
          "velocity": 0.5354330708661418
        },
        {
          "duration": 0.011627906976744207,
          "durationTicks": 1,
          "midi": 33,
          "name": "A1",
          "ticks": 184,
          "time": 2.13953488372093,
          "velocity": 0.5433070866141733
        },
        {
          "duration": 0.011627906976744207,
          "durationTicks": 1,
          "midi": 36,
          "name": "C2",
          "ticks": 185,
          "time": 2.1511627906976742,
          "velocity": 0.5748031496062992
        },
        {
          "duration": 0.023255813953488413,
          "durationTicks": 2,
          "midi": 37,
          "name": "C#2",
          "ticks": 186,
          "time": 2.1627906976744184,
          "velocity": 0.47244094488188976
        },
        {
          "duration": 0.011627906976744207,
          "durationTicks": 1,
          "midi": 35,
          "name": "B1",
          "ticks": 188,
          "time": 2.186046511627907,
          "velocity": 0.5433070866141733
        },
        {
          "duration": 0.023255813953488413,
          "durationTicks": 2,
          "midi": 34,
          "name": "A#1",
          "ticks": 189,
          "time": 2.197674418604651,
          "velocity": 0.5826771653543307
        },
        {
          "duration": 0.011627906976744207,
          "durationTicks": 1,
          "midi": 48,
          "name": "C3",
          "ticks": 189,
          "time": 2.197674418604651,
          "velocity": 0.5590551181102362
        },
        {
          "duration": 0.04651162790697683,
          "durationTicks": 4,
          "midi": 64,
          "name": "E4",
          "ticks": 189,
          "time": 2.197674418604651,
          "velocity": 0.33070866141732286
        },
        {
          "duration": 0.023255813953488413,
          "durationTicks": 2,
          "midi": 67,
          "name": "G4",
          "ticks": 189,
          "time": 2.197674418604651,
          "velocity": 0.2440944881889764
        },
        {
          "duration": 0.011627906976744207,
          "durationTicks": 1,
          "midi": 45,
          "name": "A2",
          "ticks": 190,
          "time": 2.2093023255813953,
          "velocity": 0.6062992125984252
        },
        {
          "duration": 0.058139534883721034,
          "durationTicks": 5,
          "midi": 70,
          "name": "A#4",
          "ticks": 190,
          "time": 2.2093023255813953,
          "velocity": 0.2440944881889764
        },
        {
          "duration": 0.011627906976744207,
          "durationTicks": 1,
          "midi": 32,
          "name": "G#1",
          "ticks": 191,
          "time": 2.2209302325581395,
          "velocity": 0.5511811023622047
        },
        {
          "duration": 0.023255813953488413,
          "durationTicks": 2,
          "midi": 44,
          "name": "G#2",
          "ticks": 191,
          "time": 2.2209302325581395,
          "velocity": 0.5826771653543307
        },
        {
          "duration": 0.023255813953488413,
          "durationTicks": 2,
          "midi": 50,
          "name": "D3",
          "ticks": 191,
          "time": 2.2209302325581395,
          "velocity": 0.5118110236220472
        },
        {
          "duration": 0.011627906976744207,
          "durationTicks": 1,
          "midi": 23,
          "name": "B0",
          "ticks": 192,
          "time": 2.2325581395348837,
          "velocity": 0.5196850393700787
        },
        {
          "duration": 0.011627906976744207,
          "durationTicks": 1,
          "midi": 39,
          "name": "D#2",
          "ticks": 193,
          "time": 2.244186046511628,
          "velocity": 0.6141732283464567
        },
        {
          "duration": 0.011627906976744207,
          "durationTicks": 1,
          "midi": 49,
          "name": "C#3",
          "ticks": 193,
          "time": 2.244186046511628,
          "velocity": 0.5118110236220472
        },
        {
          "duration": 0.08139534883720945,
          "durationTicks": 7,
          "midi": 62,
          "name": "D4",
          "ticks": 193,
          "time": 2.244186046511628,
          "velocity": 0.33858267716535434
        },
        {
          "duration": 0.011627906976744207,
          "durationTicks": 1,
          "midi": 36,
          "name": "C2",
          "ticks": 194,
          "time": 2.255813953488372,
          "velocity": 0.5905511811023622
        },
        {
          "duration": 0.023255813953488413,
          "durationTicks": 2,
          "midi": 31,
          "name": "G1",
          "ticks": 195,
          "time": 2.2674418604651163,
          "velocity": 0.6692913385826772
        },
        {
          "duration": 0.011627906976744207,
          "durationTicks": 1,
          "midi": 40,
          "name": "E2",
          "ticks": 195,
          "time": 2.2674418604651163,
          "velocity": 0.5118110236220472
        },
        {
          "duration": 0.023255813953488413,
          "durationTicks": 2,
          "midi": 57,
          "name": "A3",
          "ticks": 195,
          "time": 2.2674418604651163,
          "velocity": 0.3937007874015748
        },
        {
          "duration": 0.011627906976744207,
          "durationTicks": 1,
          "midi": 33,
          "name": "A1",
          "ticks": 197,
          "time": 2.2906976744186047,
          "velocity": 0.6850393700787402
        },
        {
          "duration": 0.023255813953488413,
          "durationTicks": 2,
          "midi": 56,
          "name": "G#3",
          "ticks": 197,
          "time": 2.2906976744186047,
          "velocity": 0.4015748031496063
        },
        {
          "duration": 0.011627906976744207,
          "durationTicks": 1,
          "midi": 34,
          "name": "A#1",
          "ticks": 198,
          "time": 2.302325581395349,
          "velocity": 0.7165354330708661
        },
        {
          "duration": 0.011627906976744207,
          "durationTicks": 1,
          "midi": 36,
          "name": "C2",
          "ticks": 199,
          "time": 2.313953488372093,
          "velocity": 0.6771653543307087
        },
        {
          "duration": 0.023255813953488413,
          "durationTicks": 2,
          "midi": 55,
          "name": "G3",
          "ticks": 199,
          "time": 2.313953488372093,
          "velocity": 0.3858267716535433
        },
        {
          "duration": 0.011627906976744207,
          "durationTicks": 1,
          "midi": 37,
          "name": "C#2",
          "ticks": 200,
          "time": 2.3255813953488373,
          "velocity": 0.6220472440944882
        },
        {
          "duration": 0.011627906976744207,
          "durationTicks": 1,
          "midi": 35,
          "name": "B1",
          "ticks": 201,
          "time": 2.3372093023255816,
          "velocity": 0.6141732283464567
        },
        {
          "duration": 0.023255813953488413,
          "durationTicks": 2,
          "midi": 62,
          "name": "D4",
          "ticks": 201,
          "time": 2.3372093023255816,
          "velocity": 0.2440944881889764
        },
        {
          "duration": 0.011627906976744207,
          "durationTicks": 1,
          "midi": 34,
          "name": "A#1",
          "ticks": 202,
          "time": 2.3488372093023258,
          "velocity": 0.6299212598425197
        },
        {
          "duration": 0.023255813953488413,
          "durationTicks": 2,
          "midi": 50,
          "name": "D3",
          "ticks": 202,
          "time": 2.3488372093023258,
          "velocity": 0.49606299212598426
        },
        {
          "duration": 0.02325581395348797,
          "durationTicks": 2,
          "midi": 35,
          "name": "B1",
          "ticks": 203,
          "time": 2.36046511627907,
          "velocity": 0.6377952755905512
        },
        {
          "duration": 0.011627906976744207,
          "durationTicks": 1,
          "midi": 33,
          "name": "A1",
          "ticks": 205,
          "time": 2.383720930232558,
          "velocity": 0.5511811023622047
        },
        {
          "duration": 0.011627906976744207,
          "durationTicks": 1,
          "midi": 34,
          "name": "A#1",
          "ticks": 206,
          "time": 2.395348837209302,
          "velocity": 0.5590551181102362
        },
        {
          "duration": 0.03488372093023262,
          "durationTicks": 3,
          "midi": 62,
          "name": "D4",
          "ticks": 206,
          "time": 2.395348837209302,
          "velocity": 0.12598425196850394
        },
        {
          "duration": 0.011627906976744207,
          "durationTicks": 1,
          "midi": 40,
          "name": "E2",
          "ticks": 207,
          "time": 2.4069767441860463,
          "velocity": 0.5433070866141733
        },
        {
          "duration": 0.023255813953488413,
          "durationTicks": 2,
          "midi": 42,
          "name": "F#2",
          "ticks": 208,
          "time": 2.4186046511627906,
          "velocity": 0.5590551181102362
        },
        {
          "duration": 0.023255813953488413,
          "durationTicks": 2,
          "midi": 30,
          "name": "F#1",
          "ticks": 209,
          "time": 2.4302325581395348,
          "velocity": 0.5118110236220472
        },
        {
          "duration": 0.023255813953488413,
          "durationTicks": 2,
          "midi": 31,
          "name": "G1",
          "ticks": 211,
          "time": 2.453488372093023,
          "velocity": 0.5275590551181102
        },
        {
          "duration": 0.011627906976744207,
          "durationTicks": 1,
          "midi": 34,
          "name": "A#1",
          "ticks": 213,
          "time": 2.4767441860465116,
          "velocity": 0.5275590551181102
        },
        {
          "duration": 0.023255813953488413,
          "durationTicks": 2,
          "midi": 34,
          "name": "A#1",
          "ticks": 217,
          "time": 2.5232558139534884,
          "velocity": 0.5905511811023622
        },
        {
          "duration": 0.011627906976744207,
          "durationTicks": 1,
          "midi": 32,
          "name": "G#1",
          "ticks": 219,
          "time": 2.546511627906977,
          "velocity": 0.5196850393700787
        },
        {
          "duration": 0.011627906976744207,
          "durationTicks": 1,
          "midi": 30,
          "name": "F#1",
          "ticks": 223,
          "time": 2.5930232558139537,
          "velocity": 0.5275590551181102
        },
        {
          "duration": 0.023255813953488413,
          "durationTicks": 2,
          "midi": 51,
          "name": "D#3",
          "ticks": 223,
          "time": 2.5930232558139537,
          "velocity": 0.2677165354330709
        },
        {
          "duration": 0.02325581395348797,
          "durationTicks": 2,
          "midi": 31,
          "name": "G1",
          "ticks": 224,
          "time": 2.604651162790698,
          "velocity": 0.5669291338582677
        },
        {
          "duration": 0.034883720930232176,
          "durationTicks": 3,
          "midi": 50,
          "name": "D3",
          "ticks": 225,
          "time": 2.616279069767442,
          "velocity": 0.30708661417322836
        },
        {
          "duration": 0.011627906976744207,
          "durationTicks": 1,
          "midi": 34,
          "name": "A#1",
          "ticks": 226,
          "time": 2.627906976744186,
          "velocity": 0.5905511811023622
        },
        {
          "duration": 0.011627906976744207,
          "durationTicks": 1,
          "midi": 31,
          "name": "G1",
          "ticks": 229,
          "time": 2.6627906976744184,
          "velocity": 0.5196850393700787
        },
        {
          "duration": 0.011627906976744207,
          "durationTicks": 1,
          "midi": 34,
          "name": "A#1",
          "ticks": 230,
          "time": 2.6744186046511627,
          "velocity": 0.6141732283464567
        },
        {
          "duration": 0.023255813953488413,
          "durationTicks": 2,
          "midi": 35,
          "name": "B1",
          "ticks": 231,
          "time": 2.686046511627907,
          "velocity": 0.5905511811023622
        },
        {
          "duration": 0.023255813953488413,
          "durationTicks": 2,
          "midi": 47,
          "name": "B2",
          "ticks": 233,
          "time": 2.7093023255813953,
          "velocity": 0.36220472440944884
        },
        {
          "duration": 0.011627906976744207,
          "durationTicks": 1,
          "midi": 37,
          "name": "C#2",
          "ticks": 234,
          "time": 2.7209302325581395,
          "velocity": 0.5354330708661418
        },
        {
          "duration": 0.011627906976744207,
          "durationTicks": 1,
          "midi": 36,
          "name": "C2",
          "ticks": 235,
          "time": 2.7325581395348837,
          "velocity": 0.5826771653543307
        },
        {
          "duration": 0.011627906976744207,
          "durationTicks": 1,
          "midi": 34,
          "name": "A#1",
          "ticks": 236,
          "time": 2.744186046511628,
          "velocity": 0.5354330708661418
        },
        {
          "duration": 0.011627906976744207,
          "durationTicks": 1,
          "midi": 45,
          "name": "A2",
          "ticks": 237,
          "time": 2.755813953488372,
          "velocity": 0.5196850393700787
        },
        {
          "duration": 0.058139534883721034,
          "durationTicks": 5,
          "midi": 63,
          "name": "D#4",
          "ticks": 237,
          "time": 2.755813953488372,
          "velocity": 0.33070866141732286
        },
        {
          "duration": 0.011627906976744207,
          "durationTicks": 1,
          "midi": 40,
          "name": "E2",
          "ticks": 238,
          "time": 2.7674418604651163,
          "velocity": 0.5669291338582677
        },
        {
          "duration": 0.011627906976744207,
          "durationTicks": 1,
          "midi": 38,
          "name": "D2",
          "ticks": 239,
          "time": 2.7790697674418605,
          "velocity": 0.5511811023622047
        },
        {
          "duration": 0.03488372093023262,
          "durationTicks": 3,
          "midi": 54,
          "name": "F#3",
          "ticks": 239,
          "time": 2.7790697674418605,
          "velocity": 0.36220472440944884
        },
        {
          "duration": 0.023255813953488413,
          "durationTicks": 2,
          "midi": 50,
          "name": "D3",
          "ticks": 240,
          "time": 2.7906976744186047,
          "velocity": 0.36220472440944884
        },
        {
          "duration": 0.023255813953488413,
          "durationTicks": 2,
          "midi": 37,
          "name": "C#2",
          "ticks": 241,
          "time": 2.802325581395349,
          "velocity": 0.6220472440944882
        },
        {
          "duration": 0.04651162790697683,
          "durationTicks": 4,
          "midi": 53,
          "name": "F3",
          "ticks": 242,
          "time": 2.813953488372093,
          "velocity": 0.33070866141732286
        },
        {
          "duration": 0.011627906976744207,
          "durationTicks": 1,
          "midi": 36,
          "name": "C2",
          "ticks": 243,
          "time": 2.8255813953488373,
          "velocity": 0.6535433070866141
        },
        {
          "duration": 0.011627906976744207,
          "durationTicks": 1,
          "midi": 35,
          "name": "B1",
          "ticks": 244,
          "time": 2.8372093023255816,
          "velocity": 0.6535433070866141
        },
        {
          "duration": 0.023255813953488413,
          "durationTicks": 2,
          "midi": 36,
          "name": "C2",
          "ticks": 245,
          "time": 2.8488372093023258,
          "velocity": 0.6614173228346457
        },
        {
          "duration": 0.02325581395348797,
          "durationTicks": 2,
          "midi": 35,
          "name": "B1",
          "ticks": 247,
          "time": 2.872093023255814,
          "velocity": 0.6692913385826772
        },
        {
          "duration": 0.02325581395348797,
          "durationTicks": 2,
          "midi": 50,
          "name": "D3",
          "ticks": 247,
          "time": 2.872093023255814,
          "velocity": 0.2677165354330709
        },
        {
          "duration": 0.04651162790697683,
          "durationTicks": 4,
          "midi": 36,
          "name": "C2",
          "ticks": 249,
          "time": 2.895348837209302,
          "velocity": 0.6535433070866141
        },
        {
          "duration": 0.03488372093023262,
          "durationTicks": 3,
          "midi": 50,
          "name": "D3",
          "ticks": 251,
          "time": 2.9186046511627906,
          "velocity": 0.25196850393700787
        },
        {
          "duration": 0.03488372093023262,
          "durationTicks": 3,
          "midi": 35,
          "name": "B1",
          "ticks": 253,
          "time": 2.941860465116279,
          "velocity": 0.6062992125984252
        },
        {
          "duration": 0.023255813953488413,
          "durationTicks": 2,
          "midi": 41,
          "name": "F2",
          "ticks": 260,
          "time": 3.0232558139534884,
          "velocity": 0.33070866141732286
        },
        {
          "duration": 0.023255813953488413,
          "durationTicks": 2,
          "midi": 35,
          "name": "B1",
          "ticks": 265,
          "time": 3.0813953488372094,
          "velocity": 0.5196850393700787
        },
        {
          "duration": 0.02325581395348797,
          "durationTicks": 2,
          "midi": 37,
          "name": "C#2",
          "ticks": 267,
          "time": 3.104651162790698,
          "velocity": 0.4645669291338583
        },
        {
          "duration": 0.023255813953488413,
          "durationTicks": 2,
          "midi": 35,
          "name": "B1",
          "ticks": 269,
          "time": 3.127906976744186,
          "velocity": 0.5433070866141733
        },
        {
          "duration": 0.011627906976744207,
          "durationTicks": 1,
          "midi": 36,
          "name": "C2",
          "ticks": 271,
          "time": 3.1511627906976742,
          "velocity": 0.5118110236220472
        },
        {
          "duration": 0.011627906976744207,
          "durationTicks": 1,
          "midi": 38,
          "name": "D2",
          "ticks": 272,
          "time": 3.1627906976744184,
          "velocity": 0.5433070866141733
        },
        {
          "duration": 0.011627906976744207,
          "durationTicks": 1,
          "midi": 36,
          "name": "C2",
          "ticks": 273,
          "time": 3.1744186046511627,
          "velocity": 0.5826771653543307
        },
        {
          "duration": 0.011627906976744207,
          "durationTicks": 1,
          "midi": 34,
          "name": "A#1",
          "ticks": 274,
          "time": 3.186046511627907,
          "velocity": 0.5669291338582677
        },
        {
          "duration": 0.011627906976744207,
          "durationTicks": 1,
          "midi": 35,
          "name": "B1",
          "ticks": 275,
          "time": 3.197674418604651,
          "velocity": 0.5275590551181102
        },
        {
          "duration": 0.011627906976744207,
          "durationTicks": 1,
          "midi": 33,
          "name": "A1",
          "ticks": 278,
          "time": 3.2325581395348837,
          "velocity": 0.5433070866141733
        },
        {
          "duration": 0.011627906976744207,
          "durationTicks": 1,
          "midi": 36,
          "name": "C2",
          "ticks": 279,
          "time": 3.244186046511628,
          "velocity": 0.5748031496062992
        },
        {
          "duration": 0.023255813953488413,
          "durationTicks": 2,
          "midi": 37,
          "name": "C#2",
          "ticks": 280,
          "time": 3.255813953488372,
          "velocity": 0.47244094488188976
        },
        {
          "duration": 0.011627906976744207,
          "durationTicks": 1,
          "midi": 35,
          "name": "B1",
          "ticks": 282,
          "time": 3.2790697674418605,
          "velocity": 0.5511811023622047
        },
        {
          "duration": 0.023255813953488413,
          "durationTicks": 2,
          "midi": 34,
          "name": "A#1",
          "ticks": 283,
          "time": 3.2906976744186047,
          "velocity": 0.5826771653543307
        },
        {
          "duration": 0.011627906976744207,
          "durationTicks": 1,
          "midi": 48,
          "name": "C3",
          "ticks": 283,
          "time": 3.2906976744186047,
          "velocity": 0.5669291338582677
        },
        {
          "duration": 0.04651162790697683,
          "durationTicks": 4,
          "midi": 64,
          "name": "E4",
          "ticks": 283,
          "time": 3.2906976744186047,
          "velocity": 0.33070866141732286
        },
        {
          "duration": 0.023255813953488413,
          "durationTicks": 2,
          "midi": 67,
          "name": "G4",
          "ticks": 283,
          "time": 3.2906976744186047,
          "velocity": 0.23622047244094488
        },
        {
          "duration": 0.011627906976744207,
          "durationTicks": 1,
          "midi": 45,
          "name": "A2",
          "ticks": 284,
          "time": 3.302325581395349,
          "velocity": 0.6062992125984252
        },
        {
          "duration": 0.03488372093023262,
          "durationTicks": 3,
          "midi": 50,
          "name": "D3",
          "ticks": 284,
          "time": 3.302325581395349,
          "velocity": 0.5905511811023622
        },
        {
          "duration": 0.058139534883721034,
          "durationTicks": 5,
          "midi": 70,
          "name": "A#4",
          "ticks": 284,
          "time": 3.302325581395349,
          "velocity": 0.2440944881889764
        },
        {
          "duration": 0.011627906976744207,
          "durationTicks": 1,
          "midi": 32,
          "name": "G#1",
          "ticks": 285,
          "time": 3.313953488372093,
          "velocity": 0.5433070866141733
        },
        {
          "duration": 0.023255813953488413,
          "durationTicks": 2,
          "midi": 44,
          "name": "G#2",
          "ticks": 285,
          "time": 3.313953488372093,
          "velocity": 0.5826771653543307
        },
        {
          "duration": 0.011627906976744207,
          "durationTicks": 1,
          "midi": 23,
          "name": "B0",
          "ticks": 286,
          "time": 3.3255813953488373,
          "velocity": 0.5275590551181102
        },
        {
          "duration": 0.011627906976744207,
          "durationTicks": 1,
          "midi": 39,
          "name": "D#2",
          "ticks": 287,
          "time": 3.3372093023255816,
          "velocity": 0.6141732283464567
        },
        {
          "duration": 0.011627906976744207,
          "durationTicks": 1,
          "midi": 49,
          "name": "C#3",
          "ticks": 287,
          "time": 3.3372093023255816,
          "velocity": 0.5118110236220472
        },
        {
          "duration": 0.081395348837209,
          "durationTicks": 7,
          "midi": 62,
          "name": "D4",
          "ticks": 287,
          "time": 3.3372093023255816,
          "velocity": 0.33858267716535434
        },
        {
          "duration": 0.011627906976744207,
          "durationTicks": 1,
          "midi": 36,
          "name": "C2",
          "ticks": 288,
          "time": 3.3488372093023258,
          "velocity": 0.5905511811023622
        },
        {
          "duration": 0.02325581395348797,
          "durationTicks": 2,
          "midi": 31,
          "name": "G1",
          "ticks": 289,
          "time": 3.36046511627907,
          "velocity": 0.6692913385826772
        },
        {
          "duration": 0.011627906976744207,
          "durationTicks": 1,
          "midi": 40,
          "name": "E2",
          "ticks": 289,
          "time": 3.36046511627907,
          "velocity": 0.5196850393700787
        },
        {
          "duration": 0.02325581395348797,
          "durationTicks": 2,
          "midi": 57,
          "name": "A3",
          "ticks": 289,
          "time": 3.36046511627907,
          "velocity": 0.3937007874015748
        },
        {
          "duration": 0.011627906976744207,
          "durationTicks": 1,
          "midi": 33,
          "name": "A1",
          "ticks": 291,
          "time": 3.383720930232558,
          "velocity": 0.6929133858267716
        },
        {
          "duration": 0.023255813953488413,
          "durationTicks": 2,
          "midi": 56,
          "name": "G#3",
          "ticks": 291,
          "time": 3.383720930232558,
          "velocity": 0.4015748031496063
        },
        {
          "duration": 0.011627906976744207,
          "durationTicks": 1,
          "midi": 35,
          "name": "B1",
          "ticks": 292,
          "time": 3.395348837209302,
          "velocity": 0.7244094488188977
        },
        {
          "duration": 0.011627906976744207,
          "durationTicks": 1,
          "midi": 36,
          "name": "C2",
          "ticks": 293,
          "time": 3.4069767441860463,
          "velocity": 0.6692913385826772
        },
        {
          "duration": 0.023255813953488413,
          "durationTicks": 2,
          "midi": 55,
          "name": "G3",
          "ticks": 293,
          "time": 3.4069767441860463,
          "velocity": 0.3779527559055118
        },
        {
          "duration": 0.011627906976744207,
          "durationTicks": 1,
          "midi": 37,
          "name": "C#2",
          "ticks": 294,
          "time": 3.4186046511627906,
          "velocity": 0.6220472440944882
        },
        {
          "duration": 0.011627906976744207,
          "durationTicks": 1,
          "midi": 35,
          "name": "B1",
          "ticks": 295,
          "time": 3.4302325581395348,
          "velocity": 0.6141732283464567
        },
        {
          "duration": 0.023255813953488413,
          "durationTicks": 2,
          "midi": 62,
          "name": "D4",
          "ticks": 295,
          "time": 3.4302325581395348,
          "velocity": 0.2440944881889764
        },
        {
          "duration": 0.011627906976744207,
          "durationTicks": 1,
          "midi": 34,
          "name": "A#1",
          "ticks": 296,
          "time": 3.441860465116279,
          "velocity": 0.6299212598425197
        },
        {
          "duration": 0.023255813953488413,
          "durationTicks": 2,
          "midi": 50,
          "name": "D3",
          "ticks": 296,
          "time": 3.441860465116279,
          "velocity": 0.49606299212598426
        },
        {
          "duration": 0.011627906976744207,
          "durationTicks": 1,
          "midi": 36,
          "name": "C2",
          "ticks": 297,
          "time": 3.453488372093023,
          "velocity": 0.6377952755905512
        },
        {
          "duration": 0.011627906976744207,
          "durationTicks": 1,
          "midi": 35,
          "name": "B1",
          "ticks": 298,
          "time": 3.4651162790697674,
          "velocity": 0.5826771653543307
        },
        {
          "duration": 0.011627906976744207,
          "durationTicks": 1,
          "midi": 33,
          "name": "A1",
          "ticks": 299,
          "time": 3.4767441860465116,
          "velocity": 0.5511811023622047
        },
        {
          "duration": 0.011627906976744207,
          "durationTicks": 1,
          "midi": 34,
          "name": "A#1",
          "ticks": 300,
          "time": 3.488372093023256,
          "velocity": 0.5590551181102362
        },
        {
          "duration": 0.03488372093023262,
          "durationTicks": 3,
          "midi": 62,
          "name": "D4",
          "ticks": 300,
          "time": 3.488372093023256,
          "velocity": 0.12598425196850394
        },
        {
          "duration": 0.011627906976744207,
          "durationTicks": 1,
          "midi": 40,
          "name": "E2",
          "ticks": 301,
          "time": 3.5,
          "velocity": 0.5354330708661418
        },
        {
          "duration": 0.023255813953488413,
          "durationTicks": 2,
          "midi": 42,
          "name": "F#2",
          "ticks": 302,
          "time": 3.511627906976744,
          "velocity": 0.5590551181102362
        },
        {
          "duration": 0.023255813953488413,
          "durationTicks": 2,
          "midi": 30,
          "name": "F#1",
          "ticks": 303,
          "time": 3.5232558139534884,
          "velocity": 0.5118110236220472
        },
        {
          "duration": 0.023255813953488413,
          "durationTicks": 2,
          "midi": 31,
          "name": "G1",
          "ticks": 305,
          "time": 3.546511627906977,
          "velocity": 0.5275590551181102
        },
        {
          "duration": 0.03488372093023262,
          "durationTicks": 3,
          "midi": 78,
          "name": "F#5",
          "ticks": 306,
          "time": 3.558139534883721,
          "velocity": 0.2440944881889764
        },
        {
          "duration": 0.04651162790697683,
          "durationTicks": 4,
          "midi": 83,
          "name": "B5",
          "ticks": 306,
          "time": 3.558139534883721,
          "velocity": 0.25984251968503935
        },
        {
          "duration": 0.03488372093023262,
          "durationTicks": 3,
          "midi": 86,
          "name": "D6",
          "ticks": 306,
          "time": 3.558139534883721,
          "velocity": 0.1732283464566929
        },
        {
          "duration": 0.0697674418604648,
          "durationTicks": 6,
          "midi": 92,
          "name": "G#6",
          "ticks": 306,
          "time": 3.558139534883721,
          "velocity": 0.16535433070866143
        },
        {
          "duration": 0.04651162790697683,
          "durationTicks": 4,
          "midi": 94,
          "name": "A#6",
          "ticks": 306,
          "time": 3.558139534883721,
          "velocity": 0.1889763779527559
        },
        {
          "duration": 0.0697674418604648,
          "durationTicks": 6,
          "midi": 99,
          "name": "D#7",
          "ticks": 306,
          "time": 3.558139534883721,
          "velocity": 0.25196850393700787
        },
        {
          "duration": 0.04651162790697683,
          "durationTicks": 4,
          "midi": 100,
          "name": "E7",
          "ticks": 306,
          "time": 3.558139534883721,
          "velocity": 0.2204724409448819
        },
        {
          "duration": 0.011627906976744207,
          "durationTicks": 1,
          "midi": 34,
          "name": "A#1",
          "ticks": 307,
          "time": 3.5697674418604652,
          "velocity": 0.5354330708661418
        },
        {
          "duration": 0.11627906976744162,
          "durationTicks": 10,
          "midi": 60,
          "name": "C4",
          "ticks": 307,
          "time": 3.5697674418604652,
          "velocity": 0.2283464566929134
        },
        {
          "duration": 0.05813953488372059,
          "durationTicks": 5,
          "midi": 82,
          "name": "A#5",
          "ticks": 307,
          "time": 3.5697674418604652,
          "velocity": 0.1889763779527559
        },
        {
          "duration": 0.03488372093023262,
          "durationTicks": 3,
          "midi": 87,
          "name": "D#6",
          "ticks": 307,
          "time": 3.5697674418604652,
          "velocity": 0.1889763779527559
        },
        {
          "duration": 0.04651162790697683,
          "durationTicks": 4,
          "midi": 88,
          "name": "E6",
          "ticks": 307,
          "time": 3.5697674418604652,
          "velocity": 0.15748031496062992
        },
        {
          "duration": 0.0697674418604648,
          "durationTicks": 6,
          "midi": 89,
          "name": "F6",
          "ticks": 307,
          "time": 3.5697674418604652,
          "velocity": 0.23622047244094488
        },
        {
          "duration": 0.03488372093023262,
          "durationTicks": 3,
          "midi": 96,
          "name": "C7",
          "ticks": 307,
          "time": 3.5697674418604652,
          "velocity": 0.16535433070866143
        },
        {
          "duration": 0.05813953488372059,
          "durationTicks": 5,
          "midi": 97,
          "name": "C#7",
          "ticks": 307,
          "time": 3.5697674418604652,
          "velocity": 0.13385826771653545
        },
        {
          "duration": 0.04651162790697683,
          "durationTicks": 4,
          "midi": 98,
          "name": "D7",
          "ticks": 307,
          "time": 3.5697674418604652,
          "velocity": 0.1889763779527559
        },
        {
          "duration": 0.03488372093023262,
          "durationTicks": 3,
          "midi": 102,
          "name": "F#7",
          "ticks": 307,
          "time": 3.5697674418604652,
          "velocity": 0.13385826771653545
        },
        {
          "duration": 0.034883720930232176,
          "durationTicks": 3,
          "midi": 84,
          "name": "C6",
          "ticks": 310,
          "time": 3.604651162790698,
          "velocity": 0.13385826771653545
        },
        {
          "duration": 0.04651162790697638,
          "durationTicks": 4,
          "midi": 93,
          "name": "A6",
          "ticks": 310,
          "time": 3.604651162790698,
          "velocity": 0.11023622047244094
        },
        {
          "duration": 0.011627906976743763,
          "durationTicks": 1,
          "midi": 34,
          "name": "A#1",
          "ticks": 311,
          "time": 3.616279069767442,
          "velocity": 0.5826771653543307
        },
        {
          "duration": 0.011627906976744207,
          "durationTicks": 1,
          "midi": 33,
          "name": "A1",
          "ticks": 312,
          "time": 3.627906976744186,
          "velocity": 0.5669291338582677
        },
        {
          "duration": 0.011627906976744207,
          "durationTicks": 1,
          "midi": 32,
          "name": "G#1",
          "ticks": 313,
          "time": 3.63953488372093,
          "velocity": 0.5118110236220472
        },
        {
          "duration": 0.03488372093023262,
          "durationTicks": 3,
          "midi": 31,
          "name": "G1",
          "ticks": 317,
          "time": 3.686046511627907,
          "velocity": 0.5590551181102362
        },
        {
          "duration": 0.023255813953488413,
          "durationTicks": 2,
          "midi": 51,
          "name": "D#3",
          "ticks": 317,
          "time": 3.686046511627907,
          "velocity": 0.25196850393700787
        },
        {
          "duration": 0.023255813953488413,
          "durationTicks": 2,
          "midi": 50,
          "name": "D3",
          "ticks": 319,
          "time": 3.7093023255813953,
          "velocity": 0.29133858267716534
        },
        {
          "duration": 0.011627906976744207,
          "durationTicks": 1,
          "midi": 34,
          "name": "A#1",
          "ticks": 320,
          "time": 3.7209302325581395,
          "velocity": 0.5905511811023622
        },
        {
          "duration": 0.011627906976744207,
          "durationTicks": 1,
          "midi": 38,
          "name": "D2",
          "ticks": 321,
          "time": 3.7325581395348837,
          "velocity": 0.5118110236220472
        },
        {
          "duration": 0.011627906976744207,
          "durationTicks": 1,
          "midi": 31,
          "name": "G1",
          "ticks": 323,
          "time": 3.755813953488372,
          "velocity": 0.5118110236220472
        },
        {
          "duration": 0.011627906976744207,
          "durationTicks": 1,
          "midi": 34,
          "name": "A#1",
          "ticks": 324,
          "time": 3.7674418604651163,
          "velocity": 0.5984251968503937
        },
        {
          "duration": 0.023255813953488413,
          "durationTicks": 2,
          "midi": 35,
          "name": "B1",
          "ticks": 325,
          "time": 3.7790697674418605,
          "velocity": 0.5748031496062992
        },
        {
          "duration": 0.011627906976744207,
          "durationTicks": 1,
          "midi": 37,
          "name": "C#2",
          "ticks": 328,
          "time": 3.813953488372093,
          "velocity": 0.5354330708661418
        },
        {
          "duration": 0.011627906976744207,
          "durationTicks": 1,
          "midi": 36,
          "name": "C2",
          "ticks": 329,
          "time": 3.8255813953488373,
          "velocity": 0.5748031496062992
        },
        {
          "duration": 0.023255813953488413,
          "durationTicks": 2,
          "midi": 50,
          "name": "D3",
          "ticks": 329,
          "time": 3.8255813953488373,
          "velocity": 0.4566929133858268
        },
        {
          "duration": 0.011627906976744207,
          "durationTicks": 1,
          "midi": 34,
          "name": "A#1",
          "ticks": 330,
          "time": 3.8372093023255816,
          "velocity": 0.5275590551181102
        },
        {
          "duration": 0.03488372093023262,
          "durationTicks": 3,
          "midi": 71,
          "name": "B4",
          "ticks": 330,
          "time": 3.8372093023255816,
          "velocity": 0.07874015748031496
        },
        {
          "duration": 0.011627906976744207,
          "durationTicks": 1,
          "midi": 45,
          "name": "A2",
          "ticks": 331,
          "time": 3.8488372093023258,
          "velocity": 0.5196850393700787
        },
        {
          "duration": 0.05813953488372059,
          "durationTicks": 5,
          "midi": 63,
          "name": "D#4",
          "ticks": 331,
          "time": 3.8488372093023258,
          "velocity": 0.33070866141732286
        },
        {
          "duration": 0.011627906976744207,
          "durationTicks": 1,
          "midi": 40,
          "name": "E2",
          "ticks": 332,
          "time": 3.86046511627907,
          "velocity": 0.5669291338582677
        },
        {
          "duration": 0.02325581395348797,
          "durationTicks": 2,
          "midi": 53,
          "name": "F3",
          "ticks": 332,
          "time": 3.86046511627907,
          "velocity": 0.3937007874015748
        },
        {
          "duration": 0.011627906976743763,
          "durationTicks": 1,
          "midi": 38,
          "name": "D2",
          "ticks": 333,
          "time": 3.872093023255814,
          "velocity": 0.5590551181102362
        },
        {
          "duration": 0.011627906976744207,
          "durationTicks": 1,
          "midi": 36,
          "name": "C2",
          "ticks": 334,
          "time": 3.883720930232558,
          "velocity": 0.5196850393700787
        },
        {
          "duration": 0.023255813953488413,
          "durationTicks": 2,
          "midi": 50,
          "name": "D3",
          "ticks": 334,
          "time": 3.883720930232558,
          "velocity": 0.36220472440944884
        },
        {
          "duration": 0.023255813953488413,
          "durationTicks": 2,
          "midi": 37,
          "name": "C#2",
          "ticks": 335,
          "time": 3.895348837209302,
          "velocity": 0.6220472440944882
        },
        {
          "duration": 0.04651162790697683,
          "durationTicks": 4,
          "midi": 53,
          "name": "F3",
          "ticks": 336,
          "time": 3.9069767441860463,
          "velocity": 0.33070866141732286
        },
        {
          "duration": 0.011627906976744207,
          "durationTicks": 1,
          "midi": 36,
          "name": "C2",
          "ticks": 337,
          "time": 3.9186046511627906,
          "velocity": 0.6535433070866141
        },
        {
          "duration": 0.011627906976744207,
          "durationTicks": 1,
          "midi": 35,
          "name": "B1",
          "ticks": 338,
          "time": 3.9302325581395348,
          "velocity": 0.6614173228346457
        },
        {
          "duration": 0.023255813953488413,
          "durationTicks": 2,
          "midi": 36,
          "name": "C2",
          "ticks": 339,
          "time": 3.941860465116279,
          "velocity": 0.6614173228346457
        },
        {
          "duration": 0.023255813953488413,
          "durationTicks": 2,
          "midi": 35,
          "name": "B1",
          "ticks": 341,
          "time": 3.9651162790697674,
          "velocity": 0.6771653543307087
        },
        {
          "duration": 0.023255813953488413,
          "durationTicks": 2,
          "midi": 50,
          "name": "D3",
          "ticks": 341,
          "time": 3.9651162790697674,
          "velocity": 0.2677165354330709
        },
        {
          "duration": 0.04651162790697683,
          "durationTicks": 4,
          "midi": 36,
          "name": "C2",
          "ticks": 343,
          "time": 3.988372093023256,
          "velocity": 0.6535433070866141
        },
        {
          "duration": 0.03488372093023262,
          "durationTicks": 3,
          "midi": 50,
          "name": "D3",
          "ticks": 345,
          "time": 4.011627906976744,
          "velocity": 0.25196850393700787
        },
        {
          "duration": 0.011627906976744207,
          "durationTicks": 1,
          "midi": 35,
          "name": "B1",
          "ticks": 347,
          "time": 4.034883720930233,
          "velocity": 0.6062992125984252
        },
        {
          "duration": 0.011627906976744207,
          "durationTicks": 1,
          "midi": 34,
          "name": "A#1",
          "ticks": 348,
          "time": 4.046511627906977,
          "velocity": 0.5354330708661418
        },
        {
          "duration": 0.011627906976744207,
          "durationTicks": 1,
          "midi": 36,
          "name": "C2",
          "ticks": 351,
          "time": 4.0813953488372094,
          "velocity": 0.5118110236220472
        },
        {
          "duration": 0.04651162790697683,
          "durationTicks": 4,
          "midi": 78,
          "name": "F#5",
          "ticks": 353,
          "time": 4.104651162790698,
          "velocity": 0.25196850393700787
        },
        {
          "duration": 0.06976744186046524,
          "durationTicks": 6,
          "midi": 91,
          "name": "G6",
          "ticks": 353,
          "time": 4.104651162790698,
          "velocity": 0.2125984251968504
        },
        {
          "duration": 0.12790697674418627,
          "durationTicks": 11,
          "midi": 93,
          "name": "A6",
          "ticks": 353,
          "time": 4.104651162790698,
          "velocity": 0.2755905511811024
        },
        {
          "duration": 0.06976744186046524,
          "durationTicks": 6,
          "midi": 94,
          "name": "A#6",
          "ticks": 353,
          "time": 4.104651162790698,
          "velocity": 0.29133858267716534
        },
        {
          "duration": 0.06976744186046524,
          "durationTicks": 6,
          "midi": 97,
          "name": "C#7",
          "ticks": 353,
          "time": 4.104651162790698,
          "velocity": 0.16535433070866143
        },
        {
          "duration": 0.10465116279069786,
          "durationTicks": 9,
          "midi": 98,
          "name": "D7",
          "ticks": 353,
          "time": 4.104651162790698,
          "velocity": 0.15748031496062992
        },
        {
          "duration": 0.058139534883721034,
          "durationTicks": 5,
          "midi": 99,
          "name": "D#7",
          "ticks": 353,
          "time": 4.104651162790698,
          "velocity": 0.2125984251968504
        },
        {
          "duration": 0.06976744186046524,
          "durationTicks": 6,
          "midi": 100,
          "name": "E7",
          "ticks": 353,
          "time": 4.104651162790698,
          "velocity": 0.2440944881889764
        },
        {
          "duration": 0.03488372093023262,
          "durationTicks": 3,
          "midi": 101,
          "name": "F7",
          "ticks": 353,
          "time": 4.104651162790698,
          "velocity": 0.1889763779527559
        },
        {
          "duration": 0.04651162790697683,
          "durationTicks": 4,
          "midi": 83,
          "name": "B5",
          "ticks": 354,
          "time": 4.116279069767442,
          "velocity": 0.25196850393700787
        },
        {
          "duration": 0.03488372093023262,
          "durationTicks": 3,
          "midi": 86,
          "name": "D6",
          "ticks": 354,
          "time": 4.116279069767442,
          "velocity": 0.25196850393700787
        },
        {
          "duration": 0.04651162790697683,
          "durationTicks": 4,
          "midi": 87,
          "name": "D#6",
          "ticks": 354,
          "time": 4.116279069767442,
          "velocity": 0.25196850393700787
        },
        {
          "duration": 0.10465116279069786,
          "durationTicks": 9,
          "midi": 89,
          "name": "F6",
          "ticks": 354,
          "time": 4.116279069767442,
          "velocity": 0.25984251968503935
        },
        {
          "duration": 0.058139534883721034,
          "durationTicks": 5,
          "midi": 60,
          "name": "C4",
          "ticks": 355,
          "time": 4.127906976744186,
          "velocity": 0.18110236220472442
        },
        {
          "duration": 0.08139534883720945,
          "durationTicks": 7,
          "midi": 85,
          "name": "C#6",
          "ticks": 355,
          "time": 4.127906976744186,
          "velocity": 0.25984251968503935
        },
        {
          "duration": 0.03488372093023262,
          "durationTicks": 3,
          "midi": 88,
          "name": "E6",
          "ticks": 356,
          "time": 4.1395348837209305,
          "velocity": 0.2047244094488189
        },
        {
          "duration": 0.058139534883721034,
          "durationTicks": 5,
          "midi": 92,
          "name": "G#6",
          "ticks": 356,
          "time": 4.1395348837209305,
          "velocity": 0.2755905511811024
        },
        {
          "duration": 0.04651162790697683,
          "durationTicks": 4,
          "midi": 96,
          "name": "C7",
          "ticks": 356,
          "time": 4.1395348837209305,
          "velocity": 0.09448818897637795
        },
        {
          "duration": 0.058139534883721034,
          "durationTicks": 5,
          "midi": 77,
          "name": "F5",
          "ticks": 357,
          "time": 4.151162790697675,
          "velocity": 0.1732283464566929
        },
        {
          "duration": 0.03488372093023262,
          "durationTicks": 3,
          "midi": 82,
          "name": "A#5",
          "ticks": 357,
          "time": 4.151162790697675,
          "velocity": 0.14173228346456693
        },
        {
          "duration": 0.03488372093023262,
          "durationTicks": 3,
          "midi": 84,
          "name": "C6",
          "ticks": 357,
          "time": 4.151162790697675,
          "velocity": 0.14173228346456693
        },
        {
          "duration": 0.03488372093023262,
          "durationTicks": 3,
          "midi": 55,
          "name": "G3",
          "ticks": 358,
          "time": 4.162790697674419,
          "velocity": 0.11811023622047244
        },
        {
          "duration": 0.023255813953488413,
          "durationTicks": 2,
          "midi": 34,
          "name": "A#1",
          "ticks": 359,
          "time": 4.174418604651163,
          "velocity": 0.5433070866141733
        },
        {
          "duration": 0.023255813953488413,
          "durationTicks": 2,
          "midi": 48,
          "name": "C3",
          "ticks": 362,
          "time": 4.209302325581396,
          "velocity": 0.2677165354330709
        },
        {
          "duration": 0.011627906976744207,
          "durationTicks": 1,
          "midi": 35,
          "name": "B1",
          "ticks": 363,
          "time": 4.22093023255814,
          "velocity": 0.5748031496062992
        },
        {
          "duration": 0.011627906976744207,
          "durationTicks": 1,
          "midi": 34,
          "name": "A#1",
          "ticks": 364,
          "time": 4.232558139534884,
          "velocity": 0.5590551181102362
        },
        {
          "duration": 0.011627906976744207,
          "durationTicks": 1,
          "midi": 39,
          "name": "D#2",
          "ticks": 366,
          "time": 4.255813953488372,
          "velocity": 0.5275590551181102
        },
        {
          "duration": 0.011627906976744207,
          "durationTicks": 1,
          "midi": 36,
          "name": "C2",
          "ticks": 367,
          "time": 4.267441860465116,
          "velocity": 0.5826771653543307
        },
        {
          "duration": 0.023255813953488413,
          "durationTicks": 2,
          "midi": 34,
          "name": "A#1",
          "ticks": 368,
          "time": 4.27906976744186,
          "velocity": 0.5748031496062992
        },
        {
          "duration": 0.011627906976744207,
          "durationTicks": 1,
          "midi": 33,
          "name": "A1",
          "ticks": 372,
          "time": 4.325581395348837,
          "velocity": 0.5748031496062992
        },
        {
          "duration": 0.011627906976744207,
          "durationTicks": 1,
          "midi": 35,
          "name": "B1",
          "ticks": 373,
          "time": 4.337209302325581,
          "velocity": 0.5905511811023622
        },
        {
          "duration": 0.011627906976744207,
          "durationTicks": 1,
          "midi": 34,
          "name": "A#1",
          "ticks": 376,
          "time": 4.372093023255814,
          "velocity": 0.5511811023622047
        },
        {
          "duration": 0.04651162790697683,
          "durationTicks": 4,
          "midi": 64,
          "name": "E4",
          "ticks": 376,
          "time": 4.372093023255814,
          "velocity": 0.33070866141732286
        },
        {
          "duration": 0.011627906976744207,
          "durationTicks": 1,
          "midi": 33,
          "name": "A1",
          "ticks": 377,
          "time": 4.383720930232558,
          "velocity": 0.5826771653543307
        },
        {
          "duration": 0.011627906976744207,
          "durationTicks": 1,
          "midi": 48,
          "name": "C3",
          "ticks": 377,
          "time": 4.383720930232558,
          "velocity": 0.5669291338582677
        },
        {
          "duration": 0.023255813953488413,
          "durationTicks": 2,
          "midi": 67,
          "name": "G4",
          "ticks": 377,
          "time": 4.383720930232558,
          "velocity": 0.23622047244094488
        },
        {
          "duration": 0.011627906976744207,
          "durationTicks": 1,
          "midi": 34,
          "name": "A#1",
          "ticks": 378,
          "time": 4.395348837209302,
          "velocity": 0.5905511811023622
        },
        {
          "duration": 0.011627906976744207,
          "durationTicks": 1,
          "midi": 45,
          "name": "A2",
          "ticks": 378,
          "time": 4.395348837209302,
          "velocity": 0.6062992125984252
        },
        {
          "duration": 0.03488372093023262,
          "durationTicks": 3,
          "midi": 50,
          "name": "D3",
          "ticks": 378,
          "time": 4.395348837209302,
          "velocity": 0.5905511811023622
        },
        {
          "duration": 0.058139534883721034,
          "durationTicks": 5,
          "midi": 70,
          "name": "A#4",
          "ticks": 378,
          "time": 4.395348837209302,
          "velocity": 0.2440944881889764
        },
        {
          "duration": 0.011627906976744207,
          "durationTicks": 1,
          "midi": 32,
          "name": "G#1",
          "ticks": 379,
          "time": 4.406976744186046,
          "velocity": 0.5354330708661418
        },
        {
          "duration": 0.023255813953488413,
          "durationTicks": 2,
          "midi": 44,
          "name": "G#2",
          "ticks": 379,
          "time": 4.406976744186046,
          "velocity": 0.5905511811023622
        },
        {
          "duration": 0.011627906976744207,
          "durationTicks": 1,
          "midi": 23,
          "name": "B0",
          "ticks": 380,
          "time": 4.4186046511627906,
          "velocity": 0.5354330708661418
        },
        {
          "duration": 0.011627906976744207,
          "durationTicks": 1,
          "midi": 39,
          "name": "D#2",
          "ticks": 381,
          "time": 4.430232558139535,
          "velocity": 0.6377952755905512
        },
        {
          "duration": 0.011627906976744207,
          "durationTicks": 1,
          "midi": 49,
          "name": "C#3",
          "ticks": 381,
          "time": 4.430232558139535,
          "velocity": 0.5118110236220472
        },
        {
          "duration": 0.08139534883720945,
          "durationTicks": 7,
          "midi": 62,
          "name": "D4",
          "ticks": 381,
          "time": 4.430232558139535,
          "velocity": 0.33858267716535434
        },
        {
          "duration": 0.011627906976744207,
          "durationTicks": 1,
          "midi": 32,
          "name": "G#1",
          "ticks": 382,
          "time": 4.441860465116279,
          "velocity": 0.6062992125984252
        },
        {
          "duration": 0.011627906976744207,
          "durationTicks": 1,
          "midi": 48,
          "name": "C3",
          "ticks": 382,
          "time": 4.441860465116279,
          "velocity": 0.5354330708661418
        },
        {
          "duration": 0.023255813953488413,
          "durationTicks": 2,
          "midi": 31,
          "name": "G1",
          "ticks": 383,
          "time": 4.453488372093023,
          "velocity": 0.6771653543307087
        },
        {
          "duration": 0.023255813953488413,
          "durationTicks": 2,
          "midi": 57,
          "name": "A3",
          "ticks": 383,
          "time": 4.453488372093023,
          "velocity": 0.3937007874015748
        },
        {
          "duration": 0.011627906976744207,
          "durationTicks": 1,
          "midi": 33,
          "name": "A1",
          "ticks": 385,
          "time": 4.476744186046512,
          "velocity": 0.6929133858267716
        },
        {
          "duration": 0.023255813953488413,
          "durationTicks": 2,
          "midi": 56,
          "name": "G#3",
          "ticks": 385,
          "time": 4.476744186046512,
          "velocity": 0.4015748031496063
        },
        {
          "duration": 0.011627906976744207,
          "durationTicks": 1,
          "midi": 35,
          "name": "B1",
          "ticks": 386,
          "time": 4.488372093023256,
          "velocity": 0.7165354330708661
        },
        {
          "duration": 0.011627906976744207,
          "durationTicks": 1,
          "midi": 37,
          "name": "C#2",
          "ticks": 387,
          "time": 4.5,
          "velocity": 0.6614173228346457
        },
        {
          "duration": 0.023255813953488413,
          "durationTicks": 2,
          "midi": 55,
          "name": "G3",
          "ticks": 387,
          "time": 4.5,
          "velocity": 0.3779527559055118
        },
        {
          "duration": 0.011627906976744207,
          "durationTicks": 1,
          "midi": 36,
          "name": "C2",
          "ticks": 388,
          "time": 4.511627906976744,
          "velocity": 0.6220472440944882
        },
        {
          "duration": 0.023255813953488413,
          "durationTicks": 2,
          "midi": 34,
          "name": "A#1",
          "ticks": 389,
          "time": 4.523255813953488,
          "velocity": 0.6299212598425197
        },
        {
          "duration": 0.023255813953488413,
          "durationTicks": 2,
          "midi": 62,
          "name": "D4",
          "ticks": 389,
          "time": 4.523255813953488,
          "velocity": 0.23622047244094488
        },
        {
          "duration": 0.023255813953488413,
          "durationTicks": 2,
          "midi": 50,
          "name": "D3",
          "ticks": 390,
          "time": 4.534883720930233,
          "velocity": 0.49606299212598426
        },
        {
          "duration": 0.011627906976744207,
          "durationTicks": 1,
          "midi": 36,
          "name": "C2",
          "ticks": 391,
          "time": 4.546511627906977,
          "velocity": 0.6299212598425197
        },
        {
          "duration": 0.011627906976744207,
          "durationTicks": 1,
          "midi": 35,
          "name": "B1",
          "ticks": 392,
          "time": 4.558139534883721,
          "velocity": 0.5826771653543307
        },
        {
          "duration": 0.011627906976744207,
          "durationTicks": 1,
          "midi": 34,
          "name": "A#1",
          "ticks": 393,
          "time": 4.569767441860465,
          "velocity": 0.5669291338582677
        },
        {
          "duration": 0.011627906976744207,
          "durationTicks": 1,
          "midi": 33,
          "name": "A1",
          "ticks": 394,
          "time": 4.5813953488372094,
          "velocity": 0.5590551181102362
        },
        {
          "duration": 0.03488372093023262,
          "durationTicks": 3,
          "midi": 62,
          "name": "D4",
          "ticks": 394,
          "time": 4.5813953488372094,
          "velocity": 0.12598425196850394
        },
        {
          "duration": 0.011627906976744207,
          "durationTicks": 1,
          "midi": 30,
          "name": "F#1",
          "ticks": 395,
          "time": 4.593023255813954,
          "velocity": 0.5275590551181102
        },
        {
          "duration": 0.011627906976744207,
          "durationTicks": 1,
          "midi": 40,
          "name": "E2",
          "ticks": 395,
          "time": 4.593023255813954,
          "velocity": 0.5275590551181102
        },
        {
          "duration": 0.023255813953488413,
          "durationTicks": 2,
          "midi": 42,
          "name": "F#2",
          "ticks": 396,
          "time": 4.604651162790698,
          "velocity": 0.5590551181102362
        },
        {
          "duration": 0.023255813953488413,
          "durationTicks": 2,
          "midi": 30,
          "name": "F#1",
          "ticks": 397,
          "time": 4.616279069767442,
          "velocity": 0.5433070866141733
        },
        {
          "duration": 0.011627906976744207,
          "durationTicks": 1,
          "midi": 31,
          "name": "G1",
          "ticks": 399,
          "time": 4.6395348837209305,
          "velocity": 0.5511811023622047
        },
        {
          "duration": 0.011627906976744207,
          "durationTicks": 1,
          "midi": 30,
          "name": "F#1",
          "ticks": 400,
          "time": 4.651162790697675,
          "velocity": 0.5590551181102362
        },
        {
          "duration": 0.011627906976744207,
          "durationTicks": 1,
          "midi": 31,
          "name": "G1",
          "ticks": 401,
          "time": 4.662790697674419,
          "velocity": 0.5354330708661418
        },
        {
          "duration": 0.011627906976744207,
          "durationTicks": 1,
          "midi": 29,
          "name": "F1",
          "ticks": 404,
          "time": 4.6976744186046515,
          "velocity": 0.5433070866141733
        },
        {
          "duration": 0.023255813953488413,
          "durationTicks": 2,
          "midi": 34,
          "name": "A#1",
          "ticks": 405,
          "time": 4.709302325581396,
          "velocity": 0.6141732283464567
        },
        {
          "duration": 0.023255813953488413,
          "durationTicks": 2,
          "midi": 44,
          "name": "G#2",
          "ticks": 409,
          "time": 4.755813953488372,
          "velocity": 0.3700787401574803
        },
        {
          "duration": 0.011627906976744207,
          "durationTicks": 1,
          "midi": 29,
          "name": "F1",
          "ticks": 410,
          "time": 4.767441860465116,
          "velocity": 0.5118110236220472
        },
        {
          "duration": 0.03488372093023262,
          "durationTicks": 3,
          "midi": 31,
          "name": "G1",
          "ticks": 411,
          "time": 4.77906976744186,
          "velocity": 0.5669291338582677
        },
        {
          "duration": 0.023255813953488413,
          "durationTicks": 2,
          "midi": 51,
          "name": "D#3",
          "ticks": 411,
          "time": 4.77906976744186,
          "velocity": 0.2677165354330709
        },
        {
          "duration": 0.023255813953488413,
          "durationTicks": 2,
          "midi": 50,
          "name": "D3",
          "ticks": 413,
          "time": 4.8023255813953485,
          "velocity": 0.2992125984251969
        },
        {
          "duration": 0.011627906976744207,
          "durationTicks": 1,
          "midi": 34,
          "name": "A#1",
          "ticks": 414,
          "time": 4.813953488372093,
          "velocity": 0.5826771653543307
        },
        {
          "duration": 0.023255813953488413,
          "durationTicks": 2,
          "midi": 38,
          "name": "D2",
          "ticks": 415,
          "time": 4.825581395348837,
          "velocity": 0.5039370078740157
        },
        {
          "duration": 0.011627906976744207,
          "durationTicks": 1,
          "midi": 34,
          "name": "A#1",
          "ticks": 417,
          "time": 4.848837209302325,
          "velocity": 0.5433070866141733
        },
        {
          "duration": 0.011627906976744207,
          "durationTicks": 1,
          "midi": 35,
          "name": "B1",
          "ticks": 418,
          "time": 4.8604651162790695,
          "velocity": 0.6141732283464567
        },
        {
          "duration": 0.03488372093023262,
          "durationTicks": 3,
          "midi": 36,
          "name": "C2",
          "ticks": 419,
          "time": 4.872093023255814,
          "velocity": 0.5669291338582677
        },
        {
          "duration": 0.011627906976744207,
          "durationTicks": 1,
          "midi": 37,
          "name": "C#2",
          "ticks": 422,
          "time": 4.906976744186046,
          "velocity": 0.5354330708661418
        },
        {
          "duration": 0.011627906976744207,
          "durationTicks": 1,
          "midi": 36,
          "name": "C2",
          "ticks": 423,
          "time": 4.9186046511627906,
          "velocity": 0.5590551181102362
        },
        {
          "duration": 0.011627906976744207,
          "durationTicks": 1,
          "midi": 34,
          "name": "A#1",
          "ticks": 424,
          "time": 4.930232558139535,
          "velocity": 0.5275590551181102
        },
        {
          "duration": 0.011627906976744207,
          "durationTicks": 1,
          "midi": 43,
          "name": "G2",
          "ticks": 425,
          "time": 4.941860465116279,
          "velocity": 0.5433070866141733
        },
        {
          "duration": 0.06976744186046524,
          "durationTicks": 6,
          "midi": 63,
          "name": "D#4",
          "ticks": 425,
          "time": 4.941860465116279,
          "velocity": 0.33070866141732286
        },
        {
          "duration": 0.011627906976744207,
          "durationTicks": 1,
          "midi": 40,
          "name": "E2",
          "ticks": 426,
          "time": 4.953488372093023,
          "velocity": 0.5748031496062992
        },
        {
          "duration": 0.011627906976744207,
          "durationTicks": 1,
          "midi": 39,
          "name": "D#2",
          "ticks": 427,
          "time": 4.965116279069767,
          "velocity": 0.5433070866141733
        },
        {
          "duration": 0.023255813953488413,
          "durationTicks": 2,
          "midi": 36,
          "name": "C2",
          "ticks": 428,
          "time": 4.976744186046512,
          "velocity": 0.5590551181102362
        },
        {
          "duration": 0.023255813953488413,
          "durationTicks": 2,
          "midi": 50,
          "name": "D3",
          "ticks": 428,
          "time": 4.976744186046512,
          "velocity": 0.3543307086614173
        },
        {
          "duration": 0.023255813953488413,
          "durationTicks": 2,
          "midi": 54,
          "name": "F#3",
          "ticks": 428,
          "time": 4.976744186046512,
          "velocity": 0.29133858267716534
        },
        {
          "duration": 0.011627906976744207,
          "durationTicks": 1,
          "midi": 37,
          "name": "C#2",
          "ticks": 430,
          "time": 5,
          "velocity": 0.6220472440944882
        },
        {
          "duration": 0.04651162790697683,
          "durationTicks": 4,
          "midi": 53,
          "name": "F3",
          "ticks": 430,
          "time": 5,
          "velocity": 0.33070866141732286
        },
        {
          "duration": 0.011627906976744207,
          "durationTicks": 1,
          "midi": 36,
          "name": "C2",
          "ticks": 431,
          "time": 5.011627906976744,
          "velocity": 0.6456692913385826
        },
        {
          "duration": 0.011627906976744207,
          "durationTicks": 1,
          "midi": 35,
          "name": "B1",
          "ticks": 432,
          "time": 5.023255813953488,
          "velocity": 0.6535433070866141
        },
        {
          "duration": 0.023255813953488413,
          "durationTicks": 2,
          "midi": 36,
          "name": "C2",
          "ticks": 433,
          "time": 5.034883720930233,
          "velocity": 0.6614173228346457
        },
        {
          "duration": 0.023255813953488413,
          "durationTicks": 2,
          "midi": 35,
          "name": "B1",
          "ticks": 435,
          "time": 5.058139534883721,
          "velocity": 0.6692913385826772
        },
        {
          "duration": 0.03488372093023262,
          "durationTicks": 3,
          "midi": 53,
          "name": "F3",
          "ticks": 435,
          "time": 5.058139534883721,
          "velocity": 0.2677165354330709
        },
        {
          "duration": 0.04651162790697683,
          "durationTicks": 4,
          "midi": 36,
          "name": "C2",
          "ticks": 437,
          "time": 5.0813953488372094,
          "velocity": 0.6614173228346457
        },
        {
          "duration": 0.03488372093023262,
          "durationTicks": 3,
          "midi": 50,
          "name": "D3",
          "ticks": 439,
          "time": 5.104651162790698,
          "velocity": 0.25196850393700787
        },
        {
          "duration": 0.011627906976744207,
          "durationTicks": 1,
          "midi": 35,
          "name": "B1",
          "ticks": 441,
          "time": 5.127906976744186,
          "velocity": 0.6062992125984252
        },
        {
          "duration": 0.011627906976744207,
          "durationTicks": 1,
          "midi": 34,
          "name": "A#1",
          "ticks": 442,
          "time": 5.1395348837209305,
          "velocity": 0.5354330708661418
        },
        {
          "duration": 0.011627906976744207,
          "durationTicks": 1,
          "midi": 36,
          "name": "C2",
          "ticks": 445,
          "time": 5.174418604651163,
          "velocity": 0.5118110236220472
        },
        {
          "duration": 0.023255813953488413,
          "durationTicks": 2,
          "midi": 34,
          "name": "A#1",
          "ticks": 452,
          "time": 5.255813953488372,
          "velocity": 0.5275590551181102
        },
        {
          "duration": 0.011627906976744207,
          "durationTicks": 1,
          "midi": 35,
          "name": "B1",
          "ticks": 457,
          "time": 5.313953488372093,
          "velocity": 0.5590551181102362
        },
        {
          "duration": 0.011627906976744207,
          "durationTicks": 1,
          "midi": 34,
          "name": "A#1",
          "ticks": 458,
          "time": 5.325581395348837,
          "velocity": 0.5590551181102362
        },
        {
          "duration": 0.011627906976744207,
          "durationTicks": 1,
          "midi": 36,
          "name": "C2",
          "ticks": 459,
          "time": 5.337209302325581,
          "velocity": 0.5118110236220472
        },
        {
          "duration": 0.011627906976744207,
          "durationTicks": 1,
          "midi": 39,
          "name": "D#2",
          "ticks": 460,
          "time": 5.348837209302325,
          "velocity": 0.5433070866141733
        },
        {
          "duration": 0.011627906976744207,
          "durationTicks": 1,
          "midi": 36,
          "name": "C2",
          "ticks": 461,
          "time": 5.3604651162790695,
          "velocity": 0.5984251968503937
        },
        {
          "duration": 0.011627906976744207,
          "durationTicks": 1,
          "midi": 34,
          "name": "A#1",
          "ticks": 462,
          "time": 5.372093023255814,
          "velocity": 0.5748031496062992
        },
        {
          "duration": 0.011627906976744207,
          "durationTicks": 1,
          "midi": 35,
          "name": "B1",
          "ticks": 463,
          "time": 5.383720930232558,
          "velocity": 0.5196850393700787
        },
        {
          "duration": 0.011627906976744207,
          "durationTicks": 1,
          "midi": 32,
          "name": "G#1",
          "ticks": 466,
          "time": 5.4186046511627906,
          "velocity": 0.5590551181102362
        },
        {
          "duration": 0.011627906976744207,
          "durationTicks": 1,
          "midi": 35,
          "name": "B1",
          "ticks": 467,
          "time": 5.430232558139535,
          "velocity": 0.5826771653543307
        },
        {
          "duration": 0.011627906976744207,
          "durationTicks": 1,
          "midi": 35,
          "name": "B1",
          "ticks": 470,
          "time": 5.465116279069767,
          "velocity": 0.5590551181102362
        },
        {
          "duration": 0.04651162790697683,
          "durationTicks": 4,
          "midi": 64,
          "name": "E4",
          "ticks": 470,
          "time": 5.465116279069767,
          "velocity": 0.33070866141732286
        },
        {
          "duration": 0.023255813953488413,
          "durationTicks": 2,
          "midi": 34,
          "name": "A#1",
          "ticks": 471,
          "time": 5.476744186046512,
          "velocity": 0.5826771653543307
        },
        {
          "duration": 0.011627906976744207,
          "durationTicks": 1,
          "midi": 48,
          "name": "C3",
          "ticks": 471,
          "time": 5.476744186046512,
          "velocity": 0.5748031496062992
        },
        {
          "duration": 0.023255813953488413,
          "durationTicks": 2,
          "midi": 67,
          "name": "G4",
          "ticks": 471,
          "time": 5.476744186046512,
          "velocity": 0.2283464566929134
        },
        {
          "duration": 0.011627906976744207,
          "durationTicks": 1,
          "midi": 45,
          "name": "A2",
          "ticks": 472,
          "time": 5.488372093023256,
          "velocity": 0.6062992125984252
        },
        {
          "duration": 0.03488372093023262,
          "durationTicks": 3,
          "midi": 50,
          "name": "D3",
          "ticks": 472,
          "time": 5.488372093023256,
          "velocity": 0.5826771653543307
        },
        {
          "duration": 0.058139534883721034,
          "durationTicks": 5,
          "midi": 70,
          "name": "A#4",
          "ticks": 472,
          "time": 5.488372093023256,
          "velocity": 0.2440944881889764
        },
        {
          "duration": 0.011627906976744207,
          "durationTicks": 1,
          "midi": 31,
          "name": "G1",
          "ticks": 473,
          "time": 5.5,
          "velocity": 0.5433070866141733
        },
        {
          "duration": 0.011627906976744207,
          "durationTicks": 1,
          "midi": 44,
          "name": "G#2",
          "ticks": 473,
          "time": 5.5,
          "velocity": 0.5748031496062992
        },
        {
          "duration": 0.011627906976744207,
          "durationTicks": 1,
          "midi": 23,
          "name": "B0",
          "ticks": 474,
          "time": 5.511627906976744,
          "velocity": 0.5354330708661418
        },
        {
          "duration": 0.011627906976744207,
          "durationTicks": 1,
          "midi": 43,
          "name": "G2",
          "ticks": 474,
          "time": 5.511627906976744,
          "velocity": 0.5984251968503937
        },
        {
          "duration": 0.011627906976744207,
          "durationTicks": 1,
          "midi": 39,
          "name": "D#2",
          "ticks": 475,
          "time": 5.523255813953488,
          "velocity": 0.6299212598425197
        },
        {
          "duration": 0.011627906976744207,
          "durationTicks": 1,
          "midi": 49,
          "name": "C#3",
          "ticks": 475,
          "time": 5.523255813953488,
          "velocity": 0.5118110236220472
        },
        {
          "duration": 0.08139534883720945,
          "durationTicks": 7,
          "midi": 62,
          "name": "D4",
          "ticks": 475,
          "time": 5.523255813953488,
          "velocity": 0.33070866141732286
        },
        {
          "duration": 0.011627906976744207,
          "durationTicks": 1,
          "midi": 32,
          "name": "G#1",
          "ticks": 476,
          "time": 5.534883720930233,
          "velocity": 0.6062992125984252
        },
        {
          "duration": 0.023255813953488413,
          "durationTicks": 2,
          "midi": 48,
          "name": "C3",
          "ticks": 476,
          "time": 5.534883720930233,
          "velocity": 0.5354330708661418
        },
        {
          "duration": 0.023255813953488413,
          "durationTicks": 2,
          "midi": 31,
          "name": "G1",
          "ticks": 477,
          "time": 5.546511627906977,
          "velocity": 0.6850393700787402
        },
        {
          "duration": 0.023255813953488413,
          "durationTicks": 2,
          "midi": 57,
          "name": "A3",
          "ticks": 477,
          "time": 5.546511627906977,
          "velocity": 0.3858267716535433
        },
        {
          "duration": 0.011627906976744207,
          "durationTicks": 1,
          "midi": 33,
          "name": "A1",
          "ticks": 479,
          "time": 5.569767441860465,
          "velocity": 0.6929133858267716
        },
        {
          "duration": 0.023255813953488413,
          "durationTicks": 2,
          "midi": 56,
          "name": "G#3",
          "ticks": 479,
          "time": 5.569767441860465,
          "velocity": 0.4015748031496063
        },
        {
          "duration": 0.011627906976744207,
          "durationTicks": 1,
          "midi": 35,
          "name": "B1",
          "ticks": 480,
          "time": 5.5813953488372094,
          "velocity": 0.7165354330708661
        },
        {
          "duration": 0.011627906976744207,
          "durationTicks": 1,
          "midi": 37,
          "name": "C#2",
          "ticks": 481,
          "time": 5.593023255813954,
          "velocity": 0.6692913385826772
        },
        {
          "duration": 0.023255813953488413,
          "durationTicks": 2,
          "midi": 55,
          "name": "G3",
          "ticks": 481,
          "time": 5.593023255813954,
          "velocity": 0.3779527559055118
        },
        {
          "duration": 0.011627906976744207,
          "durationTicks": 1,
          "midi": 36,
          "name": "C2",
          "ticks": 482,
          "time": 5.604651162790698,
          "velocity": 0.6299212598425197
        },
        {
          "duration": 0.011627906976744207,
          "durationTicks": 1,
          "midi": 35,
          "name": "B1",
          "ticks": 483,
          "time": 5.616279069767442,
          "velocity": 0.6220472440944882
        },
        {
          "duration": 0.023255813953488413,
          "durationTicks": 2,
          "midi": 62,
          "name": "D4",
          "ticks": 483,
          "time": 5.616279069767442,
          "velocity": 0.2440944881889764
        },
        {
          "duration": 0.011627906976744207,
          "durationTicks": 1,
          "midi": 34,
          "name": "A#1",
          "ticks": 484,
          "time": 5.627906976744186,
          "velocity": 0.6299212598425197
        },
        {
          "duration": 0.023255813953488413,
          "durationTicks": 2,
          "midi": 50,
          "name": "D3",
          "ticks": 484,
          "time": 5.627906976744186,
          "velocity": 0.4881889763779528
        },
        {
          "duration": 0.011627906976744207,
          "durationTicks": 1,
          "midi": 36,
          "name": "C2",
          "ticks": 485,
          "time": 5.6395348837209305,
          "velocity": 0.6220472440944882
        },
        {
          "duration": 0.011627906976744207,
          "durationTicks": 1,
          "midi": 35,
          "name": "B1",
          "ticks": 486,
          "time": 5.651162790697675,
          "velocity": 0.5748031496062992
        },
        {
          "duration": 0.011627906976744207,
          "durationTicks": 1,
          "midi": 33,
          "name": "A1",
          "ticks": 487,
          "time": 5.662790697674419,
          "velocity": 0.5590551181102362
        },
        {
          "duration": 0.011627906976744207,
          "durationTicks": 1,
          "midi": 34,
          "name": "A#1",
          "ticks": 488,
          "time": 5.674418604651163,
          "velocity": 0.5669291338582677
        },
        {
          "duration": 0.03488372093023262,
          "durationTicks": 3,
          "midi": 62,
          "name": "D4",
          "ticks": 488,
          "time": 5.674418604651163,
          "velocity": 0.13385826771653545
        },
        {
          "duration": 0.011627906976744207,
          "durationTicks": 1,
          "midi": 30,
          "name": "F#1",
          "ticks": 489,
          "time": 5.686046511627907,
          "velocity": 0.5196850393700787
        },
        {
          "duration": 0.011627906976744207,
          "durationTicks": 1,
          "midi": 40,
          "name": "E2",
          "ticks": 489,
          "time": 5.686046511627907,
          "velocity": 0.5433070866141733
        },
        {
          "duration": 0.023255813953488413,
          "durationTicks": 2,
          "midi": 42,
          "name": "F#2",
          "ticks": 490,
          "time": 5.6976744186046515,
          "velocity": 0.5590551181102362
        },
        {
          "duration": 0.023255813953488413,
          "durationTicks": 2,
          "midi": 30,
          "name": "F#1",
          "ticks": 491,
          "time": 5.709302325581396,
          "velocity": 0.5433070866141733
        },
        {
          "duration": 0.011627906976744207,
          "durationTicks": 1,
          "midi": 31,
          "name": "G1",
          "ticks": 493,
          "time": 5.732558139534884,
          "velocity": 0.5433070866141733
        },
        {
          "duration": 0.011627906976743319,
          "durationTicks": 1,
          "midi": 30,
          "name": "F#1",
          "ticks": 494,
          "time": 5.744186046511628,
          "velocity": 0.5511811023622047
        },
        {
          "duration": 0.011627906976744207,
          "durationTicks": 1,
          "midi": 34,
          "name": "A#1",
          "ticks": 495,
          "time": 5.755813953488372,
          "velocity": 0.5354330708661418
        },
        {
          "duration": 0.011627906976744207,
          "durationTicks": 1,
          "midi": 30,
          "name": "F#1",
          "ticks": 498,
          "time": 5.790697674418604,
          "velocity": 0.5433070866141733
        },
        {
          "duration": 0.011627906976744207,
          "durationTicks": 1,
          "midi": 34,
          "name": "A#1",
          "ticks": 499,
          "time": 5.8023255813953485,
          "velocity": 0.5984251968503937
        },
        {
          "duration": 0.011627906976744207,
          "durationTicks": 1,
          "midi": 33,
          "name": "A1",
          "ticks": 500,
          "time": 5.813953488372093,
          "velocity": 0.5826771653543307
        },
        {
          "duration": 0.03488372093023262,
          "durationTicks": 3,
          "midi": 31,
          "name": "G1",
          "ticks": 505,
          "time": 5.872093023255814,
          "velocity": 0.5669291338582677
        },
        {
          "duration": 0.04651162790697683,
          "durationTicks": 4,
          "midi": 50,
          "name": "D3",
          "ticks": 506,
          "time": 5.883720930232558,
          "velocity": 0.30708661417322836
        },
        {
          "duration": 0.011627906976744207,
          "durationTicks": 1,
          "midi": 34,
          "name": "A#1",
          "ticks": 508,
          "time": 5.906976744186046,
          "velocity": 0.5748031496062992
        },
        {
          "duration": 0.011627906976744207,
          "durationTicks": 1,
          "midi": 33,
          "name": "A1",
          "ticks": 511,
          "time": 5.941860465116279,
          "velocity": 0.5275590551181102
        },
        {
          "duration": 0.023255813953488413,
          "durationTicks": 2,
          "midi": 35,
          "name": "B1",
          "ticks": 512,
          "time": 5.953488372093023,
          "velocity": 0.6062992125984252
        },
        {
          "duration": 0.023255813953488413,
          "durationTicks": 2,
          "midi": 37,
          "name": "C#2",
          "ticks": 515,
          "time": 5.988372093023256,
          "velocity": 0.5433070866141733
        },
        {
          "duration": 0.011627906976744207,
          "durationTicks": 1,
          "midi": 36,
          "name": "C2",
          "ticks": 517,
          "time": 6.011627906976744,
          "velocity": 0.5590551181102362
        },
        {
          "duration": 0.011627906976744207,
          "durationTicks": 1,
          "midi": 34,
          "name": "A#1",
          "ticks": 518,
          "time": 6.023255813953488,
          "velocity": 0.5118110236220472
        },
        {
          "duration": 0.011627906976744207,
          "durationTicks": 1,
          "midi": 43,
          "name": "G2",
          "ticks": 519,
          "time": 6.034883720930233,
          "velocity": 0.5275590551181102
        },
        {
          "duration": 0.06976744186046524,
          "durationTicks": 6,
          "midi": 63,
          "name": "D#4",
          "ticks": 519,
          "time": 6.034883720930233,
          "velocity": 0.33070866141732286
        },
        {
          "duration": 0.011627906976744207,
          "durationTicks": 1,
          "midi": 40,
          "name": "E2",
          "ticks": 520,
          "time": 6.046511627906977,
          "velocity": 0.5669291338582677
        },
        {
          "duration": 0.011627906976744207,
          "durationTicks": 1,
          "midi": 38,
          "name": "D2",
          "ticks": 521,
          "time": 6.058139534883721,
          "velocity": 0.5354330708661418
        },
        {
          "duration": 0.023255813953488413,
          "durationTicks": 2,
          "midi": 36,
          "name": "C2",
          "ticks": 522,
          "time": 6.069767441860465,
          "velocity": 0.5511811023622047
        },
        {
          "duration": 0.023255813953488413,
          "durationTicks": 2,
          "midi": 50,
          "name": "D3",
          "ticks": 522,
          "time": 6.069767441860465,
          "velocity": 0.3543307086614173
        },
        {
          "duration": 0.023255813953488413,
          "durationTicks": 2,
          "midi": 54,
          "name": "F#3",
          "ticks": 522,
          "time": 6.069767441860465,
          "velocity": 0.29133858267716534
        },
        {
          "duration": 0.011627906976744207,
          "durationTicks": 1,
          "midi": 37,
          "name": "C#2",
          "ticks": 524,
          "time": 6.093023255813954,
          "velocity": 0.6220472440944882
        },
        {
          "duration": 0.04651162790697683,
          "durationTicks": 4,
          "midi": 53,
          "name": "F3",
          "ticks": 524,
          "time": 6.093023255813954,
          "velocity": 0.33070866141732286
        },
        {
          "duration": 0.011627906976744207,
          "durationTicks": 1,
          "midi": 36,
          "name": "C2",
          "ticks": 525,
          "time": 6.104651162790698,
          "velocity": 0.6456692913385826
        },
        {
          "duration": 0.011627906976744207,
          "durationTicks": 1,
          "midi": 35,
          "name": "B1",
          "ticks": 526,
          "time": 6.116279069767442,
          "velocity": 0.6614173228346457
        },
        {
          "duration": 0.023255813953488413,
          "durationTicks": 2,
          "midi": 36,
          "name": "C2",
          "ticks": 527,
          "time": 6.127906976744186,
          "velocity": 0.6692913385826772
        },
        {
          "duration": 0.023255813953488413,
          "durationTicks": 2,
          "midi": 35,
          "name": "B1",
          "ticks": 529,
          "time": 6.151162790697675,
          "velocity": 0.6692913385826772
        },
        {
          "duration": 0.03488372093023262,
          "durationTicks": 3,
          "midi": 53,
          "name": "F3",
          "ticks": 529,
          "time": 6.151162790697675,
          "velocity": 0.2677165354330709
        },
        {
          "duration": 0.04651162790697683,
          "durationTicks": 4,
          "midi": 36,
          "name": "C2",
          "ticks": 531,
          "time": 6.174418604651163,
          "velocity": 0.6456692913385826
        },
        {
          "duration": 0.03488372093023262,
          "durationTicks": 3,
          "midi": 50,
          "name": "D3",
          "ticks": 533,
          "time": 6.1976744186046515,
          "velocity": 0.25196850393700787
        },
        {
          "duration": 0.011627906976744207,
          "durationTicks": 1,
          "midi": 35,
          "name": "B1",
          "ticks": 535,
          "time": 6.22093023255814,
          "velocity": 0.6062992125984252
        },
        {
          "duration": 0.011627906976744207,
          "durationTicks": 1,
          "midi": 34,
          "name": "A#1",
          "ticks": 536,
          "time": 6.232558139534884,
          "velocity": 0.5433070866141733
        },
        {
          "duration": 0.023255813953488413,
          "durationTicks": 2,
          "midi": 41,
          "name": "F2",
          "ticks": 542,
          "time": 6.3023255813953485,
          "velocity": 0.33070866141732286
        },
        {
          "duration": 0.03488372093023262,
          "durationTicks": 3,
          "midi": 34,
          "name": "A#1",
          "ticks": 546,
          "time": 6.348837209302325,
          "velocity": 0.5275590551181102
        },
        {
          "duration": 0.023255813953488413,
          "durationTicks": 2,
          "midi": 37,
          "name": "C#2",
          "ticks": 549,
          "time": 6.383720930232558,
          "velocity": 0.47244094488188976
        },
        {
          "duration": 0.011627906976744207,
          "durationTicks": 1,
          "midi": 35,
          "name": "B1",
          "ticks": 551,
          "time": 6.406976744186046,
          "velocity": 0.5511811023622047
        },
        {
          "duration": 0.011627906976744207,
          "durationTicks": 1,
          "midi": 34,
          "name": "A#1",
          "ticks": 552,
          "time": 6.4186046511627906,
          "velocity": 0.5511811023622047
        },
        {
          "duration": 0.011627906976744207,
          "durationTicks": 1,
          "midi": 38,
          "name": "D2",
          "ticks": 554,
          "time": 6.441860465116279,
          "velocity": 0.5433070866141733
        },
        {
          "duration": 0.011627906976744207,
          "durationTicks": 1,
          "midi": 36,
          "name": "C2",
          "ticks": 555,
          "time": 6.453488372093023,
          "velocity": 0.5905511811023622
        },
        {
          "duration": 0.011627906976744207,
          "durationTicks": 1,
          "midi": 34,
          "name": "A#1",
          "ticks": 556,
          "time": 6.465116279069767,
          "velocity": 0.5748031496062992
        },
        {
          "duration": 0.011627906976744207,
          "durationTicks": 1,
          "midi": 35,
          "name": "B1",
          "ticks": 557,
          "time": 6.476744186046512,
          "velocity": 0.5275590551181102
        },
        {
          "duration": 0.011627906976744207,
          "durationTicks": 1,
          "midi": 33,
          "name": "A1",
          "ticks": 560,
          "time": 6.511627906976744,
          "velocity": 0.5590551181102362
        },
        {
          "duration": 0.011627906976744207,
          "durationTicks": 1,
          "midi": 36,
          "name": "C2",
          "ticks": 561,
          "time": 6.523255813953488,
          "velocity": 0.5748031496062992
        },
        {
          "duration": 0.023255813953488413,
          "durationTicks": 2,
          "midi": 37,
          "name": "C#2",
          "ticks": 562,
          "time": 6.534883720930233,
          "velocity": 0.4409448818897638
        },
        {
          "duration": 0.011627906976744207,
          "durationTicks": 1,
          "midi": 35,
          "name": "B1",
          "ticks": 564,
          "time": 6.558139534883721,
          "velocity": 0.5511811023622047
        },
        {
          "duration": 0.04651162790697683,
          "durationTicks": 4,
          "midi": 64,
          "name": "E4",
          "ticks": 564,
          "time": 6.558139534883721,
          "velocity": 0.33070866141732286
        },
        {
          "duration": 0.023255813953488413,
          "durationTicks": 2,
          "midi": 34,
          "name": "A#1",
          "ticks": 565,
          "time": 6.569767441860465,
          "velocity": 0.5826771653543307
        },
        {
          "duration": 0.011627906976744207,
          "durationTicks": 1,
          "midi": 48,
          "name": "C3",
          "ticks": 565,
          "time": 6.569767441860465,
          "velocity": 0.5748031496062992
        },
        {
          "duration": 0.023255813953488413,
          "durationTicks": 2,
          "midi": 67,
          "name": "G4",
          "ticks": 565,
          "time": 6.569767441860465,
          "velocity": 0.2283464566929134
        },
        {
          "duration": 0.011627906976744207,
          "durationTicks": 1,
          "midi": 45,
          "name": "A2",
          "ticks": 566,
          "time": 6.5813953488372094,
          "velocity": 0.6062992125984252
        },
        {
          "duration": 0.03488372093023262,
          "durationTicks": 3,
          "midi": 50,
          "name": "D3",
          "ticks": 566,
          "time": 6.5813953488372094,
          "velocity": 0.5826771653543307
        },
        {
          "duration": 0.058139534883721034,
          "durationTicks": 5,
          "midi": 70,
          "name": "A#4",
          "ticks": 566,
          "time": 6.5813953488372094,
          "velocity": 0.2440944881889764
        },
        {
          "duration": 0.011627906976744207,
          "durationTicks": 1,
          "midi": 31,
          "name": "G1",
          "ticks": 567,
          "time": 6.593023255813954,
          "velocity": 0.5433070866141733
        },
        {
          "duration": 0.011627906976744207,
          "durationTicks": 1,
          "midi": 44,
          "name": "G#2",
          "ticks": 567,
          "time": 6.593023255813954,
          "velocity": 0.5748031496062992
        },
        {
          "duration": 0.011627906976744207,
          "durationTicks": 1,
          "midi": 22,
          "name": "A#0",
          "ticks": 568,
          "time": 6.604651162790698,
          "velocity": 0.5354330708661418
        },
        {
          "duration": 0.011627906976744207,
          "durationTicks": 1,
          "midi": 43,
          "name": "G2",
          "ticks": 568,
          "time": 6.604651162790698,
          "velocity": 0.5905511811023622
        },
        {
          "duration": 0.011627906976744207,
          "durationTicks": 1,
          "midi": 38,
          "name": "D2",
          "ticks": 569,
          "time": 6.616279069767442,
          "velocity": 0.6299212598425197
        },
        {
          "duration": 0.011627906976744207,
          "durationTicks": 1,
          "midi": 49,
          "name": "C#3",
          "ticks": 569,
          "time": 6.616279069767442,
          "velocity": 0.5196850393700787
        },
        {
          "duration": 0.08139534883720945,
          "durationTicks": 7,
          "midi": 62,
          "name": "D4",
          "ticks": 569,
          "time": 6.616279069767442,
          "velocity": 0.33070866141732286
        },
        {
          "duration": 0.011627906976744207,
          "durationTicks": 1,
          "midi": 32,
          "name": "G#1",
          "ticks": 570,
          "time": 6.627906976744186,
          "velocity": 0.5984251968503937
        },
        {
          "duration": 0.023255813953488413,
          "durationTicks": 2,
          "midi": 48,
          "name": "C3",
          "ticks": 570,
          "time": 6.627906976744186,
          "velocity": 0.5354330708661418
        },
        {
          "duration": 0.023255813953488413,
          "durationTicks": 2,
          "midi": 31,
          "name": "G1",
          "ticks": 571,
          "time": 6.6395348837209305,
          "velocity": 0.6850393700787402
        },
        {
          "duration": 0.023255813953488413,
          "durationTicks": 2,
          "midi": 57,
          "name": "A3",
          "ticks": 571,
          "time": 6.6395348837209305,
          "velocity": 0.3858267716535433
        },
        {
          "duration": 0.011627906976744207,
          "durationTicks": 1,
          "midi": 33,
          "name": "A1",
          "ticks": 573,
          "time": 6.662790697674419,
          "velocity": 0.7007874015748031
        },
        {
          "duration": 0.023255813953488413,
          "durationTicks": 2,
          "midi": 56,
          "name": "G#3",
          "ticks": 573,
          "time": 6.662790697674419,
          "velocity": 0.4015748031496063
        },
        {
          "duration": 0.011627906976744207,
          "durationTicks": 1,
          "midi": 35,
          "name": "B1",
          "ticks": 574,
          "time": 6.674418604651163,
          "velocity": 0.7165354330708661
        },
        {
          "duration": 0.011627906976744207,
          "durationTicks": 1,
          "midi": 37,
          "name": "C#2",
          "ticks": 575,
          "time": 6.686046511627907,
          "velocity": 0.6614173228346457
        },
        {
          "duration": 0.023255813953488413,
          "durationTicks": 2,
          "midi": 55,
          "name": "G3",
          "ticks": 575,
          "time": 6.686046511627907,
          "velocity": 0.3700787401574803
        },
        {
          "duration": 0.011627906976744207,
          "durationTicks": 1,
          "midi": 36,
          "name": "C2",
          "ticks": 576,
          "time": 6.6976744186046515,
          "velocity": 0.6220472440944882
        },
        {
          "duration": 0.023255813953488413,
          "durationTicks": 2,
          "midi": 53,
          "name": "F3",
          "ticks": 576,
          "time": 6.6976744186046515,
          "velocity": 0.4094488188976378
        },
        {
          "duration": 0.011627906976744207,
          "durationTicks": 1,
          "midi": 35,
          "name": "B1",
          "ticks": 577,
          "time": 6.709302325581396,
          "velocity": 0.6220472440944882
        },
        {
          "duration": 0.023255813953488413,
          "durationTicks": 2,
          "midi": 62,
          "name": "D4",
          "ticks": 577,
          "time": 6.709302325581396,
          "velocity": 0.2440944881889764
        },
        {
          "duration": 0.011627906976744207,
          "durationTicks": 1,
          "midi": 34,
          "name": "A#1",
          "ticks": 578,
          "time": 6.72093023255814,
          "velocity": 0.6377952755905512
        },
        {
          "duration": 0.023255813953488413,
          "durationTicks": 2,
          "midi": 50,
          "name": "D3",
          "ticks": 578,
          "time": 6.72093023255814,
          "velocity": 0.4881889763779528
        },
        {
          "duration": 0.011627906976744207,
          "durationTicks": 1,
          "midi": 36,
          "name": "C2",
          "ticks": 579,
          "time": 6.732558139534884,
          "velocity": 0.6299212598425197
        },
        {
          "duration": 0.011627906976743319,
          "durationTicks": 1,
          "midi": 35,
          "name": "B1",
          "ticks": 580,
          "time": 6.744186046511628,
          "velocity": 0.5748031496062992
        },
        {
          "duration": 0.011627906976744207,
          "durationTicks": 1,
          "midi": 33,
          "name": "A1",
          "ticks": 581,
          "time": 6.755813953488372,
          "velocity": 0.5511811023622047
        },
        {
          "duration": 0.011627906976744207,
          "durationTicks": 1,
          "midi": 34,
          "name": "A#1",
          "ticks": 582,
          "time": 6.767441860465116,
          "velocity": 0.5511811023622047
        },
        {
          "duration": 0.03488372093023262,
          "durationTicks": 3,
          "midi": 62,
          "name": "D4",
          "ticks": 582,
          "time": 6.767441860465116,
          "velocity": 0.13385826771653545
        },
        {
          "duration": 0.011627906976744207,
          "durationTicks": 1,
          "midi": 40,
          "name": "E2",
          "ticks": 583,
          "time": 6.77906976744186,
          "velocity": 0.5433070866141733
        },
        {
          "duration": 0.023255813953488413,
          "durationTicks": 2,
          "midi": 42,
          "name": "F#2",
          "ticks": 584,
          "time": 6.790697674418604,
          "velocity": 0.5590551181102362
        },
        {
          "duration": 0.023255813953488413,
          "durationTicks": 2,
          "midi": 30,
          "name": "F#1",
          "ticks": 585,
          "time": 6.8023255813953485,
          "velocity": 0.5354330708661418
        },
        {
          "duration": 0.011627906976744207,
          "durationTicks": 1,
          "midi": 31,
          "name": "G1",
          "ticks": 587,
          "time": 6.825581395348837,
          "velocity": 0.5354330708661418
        },
        {
          "duration": 0.011627906976744207,
          "durationTicks": 1,
          "midi": 30,
          "name": "F#1",
          "ticks": 588,
          "time": 6.837209302325581,
          "velocity": 0.5433070866141733
        },
        {
          "duration": 0.011627906976744207,
          "durationTicks": 1,
          "midi": 34,
          "name": "A#1",
          "ticks": 589,
          "time": 6.848837209302325,
          "velocity": 0.5354330708661418
        },
        {
          "duration": 0.011627906976744207,
          "durationTicks": 1,
          "midi": 30,
          "name": "F#1",
          "ticks": 592,
          "time": 6.883720930232558,
          "velocity": 0.5354330708661418
        },
        {
          "duration": 0.011627906976744207,
          "durationTicks": 1,
          "midi": 34,
          "name": "A#1",
          "ticks": 593,
          "time": 6.895348837209302,
          "velocity": 0.5984251968503937
        },
        {
          "duration": 0.011627906976744207,
          "durationTicks": 1,
          "midi": 33,
          "name": "A1",
          "ticks": 594,
          "time": 6.906976744186046,
          "velocity": 0.5826771653543307
        },
        {
          "duration": 0.023255813953488413,
          "durationTicks": 2,
          "midi": 43,
          "name": "G2",
          "ticks": 597,
          "time": 6.941860465116279,
          "velocity": 0.3779527559055118
        },
        {
          "duration": 0.03488372093023262,
          "durationTicks": 3,
          "midi": 31,
          "name": "G1",
          "ticks": 599,
          "time": 6.965116279069767,
          "velocity": 0.5669291338582677
        },
        {
          "duration": 0.04651162790697683,
          "durationTicks": 4,
          "midi": 50,
          "name": "D3",
          "ticks": 600,
          "time": 6.976744186046512,
          "velocity": 0.30708661417322836
        },
        {
          "duration": 0.011627906976744207,
          "durationTicks": 1,
          "midi": 34,
          "name": "A#1",
          "ticks": 602,
          "time": 7,
          "velocity": 0.5826771653543307
        },
        {
          "duration": 0.011627906976744207,
          "durationTicks": 1,
          "midi": 33,
          "name": "A1",
          "ticks": 605,
          "time": 7.034883720930233,
          "velocity": 0.5354330708661418
        },
        {
          "duration": 0.03488372093023262,
          "durationTicks": 3,
          "midi": 35,
          "name": "B1",
          "ticks": 606,
          "time": 7.046511627906977,
          "velocity": 0.6141732283464567
        },
        {
          "duration": 0.023255813953488413,
          "durationTicks": 2,
          "midi": 37,
          "name": "C#2",
          "ticks": 609,
          "time": 7.0813953488372094,
          "velocity": 0.5511811023622047
        },
        {
          "duration": 0.011627906976744207,
          "durationTicks": 1,
          "midi": 36,
          "name": "C2",
          "ticks": 611,
          "time": 7.104651162790698,
          "velocity": 0.5669291338582677
        },
        {
          "duration": 0.011627906976744207,
          "durationTicks": 1,
          "midi": 34,
          "name": "A#1",
          "ticks": 612,
          "time": 7.116279069767442,
          "velocity": 0.5196850393700787
        },
        {
          "duration": 0.011627906976744207,
          "durationTicks": 1,
          "midi": 42,
          "name": "F#2",
          "ticks": 613,
          "time": 7.127906976744186,
          "velocity": 0.5354330708661418
        },
        {
          "duration": 0.06976744186046524,
          "durationTicks": 6,
          "midi": 63,
          "name": "D#4",
          "ticks": 613,
          "time": 7.127906976744186,
          "velocity": 0.33858267716535434
        },
        {
          "duration": 0.011627906976744207,
          "durationTicks": 1,
          "midi": 40,
          "name": "E2",
          "ticks": 614,
          "time": 7.1395348837209305,
          "velocity": 0.5669291338582677
        },
        {
          "duration": 0.011627906976744207,
          "durationTicks": 1,
          "midi": 38,
          "name": "D2",
          "ticks": 615,
          "time": 7.151162790697675,
          "velocity": 0.5354330708661418
        },
        {
          "duration": 0.011627906976744207,
          "durationTicks": 1,
          "midi": 36,
          "name": "C2",
          "ticks": 616,
          "time": 7.162790697674419,
          "velocity": 0.5118110236220472
        },
        {
          "duration": 0.023255813953488413,
          "durationTicks": 2,
          "midi": 50,
          "name": "D3",
          "ticks": 616,
          "time": 7.162790697674419,
          "velocity": 0.3543307086614173
        },
        {
          "duration": 0.023255813953488413,
          "durationTicks": 2,
          "midi": 54,
          "name": "F#3",
          "ticks": 616,
          "time": 7.162790697674419,
          "velocity": 0.29133858267716534
        },
        {
          "duration": 0.023255813953488413,
          "durationTicks": 2,
          "midi": 37,
          "name": "C#2",
          "ticks": 617,
          "time": 7.174418604651163,
          "velocity": 0.6220472440944882
        },
        {
          "duration": 0.04651162790697683,
          "durationTicks": 4,
          "midi": 53,
          "name": "F3",
          "ticks": 618,
          "time": 7.186046511627907,
          "velocity": 0.33070866141732286
        },
        {
          "duration": 0.011627906976744207,
          "durationTicks": 1,
          "midi": 36,
          "name": "C2",
          "ticks": 619,
          "time": 7.1976744186046515,
          "velocity": 0.6456692913385826
        },
        {
          "duration": 0.011627906976744207,
          "durationTicks": 1,
          "midi": 35,
          "name": "B1",
          "ticks": 620,
          "time": 7.209302325581396,
          "velocity": 0.6535433070866141
        },
        {
          "duration": 0.023255813953488413,
          "durationTicks": 2,
          "midi": 36,
          "name": "C2",
          "ticks": 621,
          "time": 7.22093023255814,
          "velocity": 0.6614173228346457
        },
        {
          "duration": 0.023255813953487525,
          "durationTicks": 2,
          "midi": 35,
          "name": "B1",
          "ticks": 623,
          "time": 7.244186046511628,
          "velocity": 0.6692913385826772
        },
        {
          "duration": 0.03488372093023173,
          "durationTicks": 3,
          "midi": 53,
          "name": "F3",
          "ticks": 623,
          "time": 7.244186046511628,
          "velocity": 0.2677165354330709
        },
        {
          "duration": 0.04651162790697683,
          "durationTicks": 4,
          "midi": 36,
          "name": "C2",
          "ticks": 625,
          "time": 7.267441860465116,
          "velocity": 0.6456692913385826
        },
        {
          "duration": 0.03488372093023262,
          "durationTicks": 3,
          "midi": 50,
          "name": "D3",
          "ticks": 627,
          "time": 7.290697674418604,
          "velocity": 0.25196850393700787
        },
        {
          "duration": 0.011627906976744207,
          "durationTicks": 1,
          "midi": 35,
          "name": "B1",
          "ticks": 629,
          "time": 7.313953488372093,
          "velocity": 0.5984251968503937
        },
        {
          "duration": 0.011627906976744207,
          "durationTicks": 1,
          "midi": 34,
          "name": "A#1",
          "ticks": 630,
          "time": 7.325581395348837,
          "velocity": 0.5354330708661418
        },
        {
          "duration": 0.023255813953488413,
          "durationTicks": 2,
          "midi": 41,
          "name": "F2",
          "ticks": 636,
          "time": 7.395348837209302,
          "velocity": 0.33070866141732286
        },
        {
          "duration": 0.03488372093023262,
          "durationTicks": 3,
          "midi": 34,
          "name": "A#1",
          "ticks": 640,
          "time": 7.441860465116279,
          "velocity": 0.5196850393700787
        },
        {
          "duration": 0.023255813953488413,
          "durationTicks": 2,
          "midi": 37,
          "name": "C#2",
          "ticks": 643,
          "time": 7.476744186046512,
          "velocity": 0.48031496062992124
        },
        {
          "duration": 0.011627906976744207,
          "durationTicks": 1,
          "midi": 35,
          "name": "B1",
          "ticks": 645,
          "time": 7.5,
          "velocity": 0.5511811023622047
        },
        {
          "duration": 0.011627906976744207,
          "durationTicks": 1,
          "midi": 34,
          "name": "A#1",
          "ticks": 646,
          "time": 7.511627906976744,
          "velocity": 0.5433070866141733
        },
        {
          "duration": 0.011627906976744207,
          "durationTicks": 1,
          "midi": 38,
          "name": "D2",
          "ticks": 648,
          "time": 7.534883720930233,
          "velocity": 0.5511811023622047
        },
        {
          "duration": 0.011627906976744207,
          "durationTicks": 1,
          "midi": 36,
          "name": "C2",
          "ticks": 649,
          "time": 7.546511627906977,
          "velocity": 0.5905511811023622
        },
        {
          "duration": 0.011627906976744207,
          "durationTicks": 1,
          "midi": 34,
          "name": "A#1",
          "ticks": 650,
          "time": 7.558139534883721,
          "velocity": 0.5669291338582677
        },
        {
          "duration": 0.011627906976744207,
          "durationTicks": 1,
          "midi": 35,
          "name": "B1",
          "ticks": 651,
          "time": 7.569767441860465,
          "velocity": 0.5196850393700787
        },
        {
          "duration": 0.011627906976744207,
          "durationTicks": 1,
          "midi": 33,
          "name": "A1",
          "ticks": 654,
          "time": 7.604651162790698,
          "velocity": 0.5590551181102362
        },
        {
          "duration": 0.011627906976744207,
          "durationTicks": 1,
          "midi": 36,
          "name": "C2",
          "ticks": 655,
          "time": 7.616279069767442,
          "velocity": 0.5669291338582677
        },
        {
          "duration": 0.023255813953488413,
          "durationTicks": 2,
          "midi": 37,
          "name": "C#2",
          "ticks": 656,
          "time": 7.627906976744186,
          "velocity": 0.4566929133858268
        },
        {
          "duration": 0.011627906976744207,
          "durationTicks": 1,
          "midi": 35,
          "name": "B1",
          "ticks": 658,
          "time": 7.651162790697675,
          "velocity": 0.5511811023622047
        },
        {
          "duration": 0.04651162790697683,
          "durationTicks": 4,
          "midi": 64,
          "name": "E4",
          "ticks": 658,
          "time": 7.651162790697675,
          "velocity": 0.33070866141732286
        },
        {
          "duration": 0.023255813953488413,
          "durationTicks": 2,
          "midi": 34,
          "name": "A#1",
          "ticks": 659,
          "time": 7.662790697674419,
          "velocity": 0.5748031496062992
        },
        {
          "duration": 0.011627906976744207,
          "durationTicks": 1,
          "midi": 48,
          "name": "C3",
          "ticks": 659,
          "time": 7.662790697674419,
          "velocity": 0.5826771653543307
        },
        {
          "duration": 0.011627906976744207,
          "durationTicks": 1,
          "midi": 45,
          "name": "A2",
          "ticks": 660,
          "time": 7.674418604651163,
          "velocity": 0.6062992125984252
        },
        {
          "duration": 0.03488372093023262,
          "durationTicks": 3,
          "midi": 50,
          "name": "D3",
          "ticks": 660,
          "time": 7.674418604651163,
          "velocity": 0.5826771653543307
        },
        {
          "duration": 0.023255813953488413,
          "durationTicks": 2,
          "midi": 60,
          "name": "C4",
          "ticks": 660,
          "time": 7.674418604651163,
          "velocity": 0.31496062992125984
        },
        {
          "duration": 0.058139534883721034,
          "durationTicks": 5,
          "midi": 70,
          "name": "A#4",
          "ticks": 660,
          "time": 7.674418604651163,
          "velocity": 0.25196850393700787
        },
        {
          "duration": 0.011627906976744207,
          "durationTicks": 1,
          "midi": 31,
          "name": "G1",
          "ticks": 661,
          "time": 7.686046511627907,
          "velocity": 0.5354330708661418
        },
        {
          "duration": 0.011627906976744207,
          "durationTicks": 1,
          "midi": 44,
          "name": "G#2",
          "ticks": 661,
          "time": 7.686046511627907,
          "velocity": 0.5748031496062992
        },
        {
          "duration": 0.011627906976744207,
          "durationTicks": 1,
          "midi": 22,
          "name": "A#0",
          "ticks": 662,
          "time": 7.6976744186046515,
          "velocity": 0.5275590551181102
        },
        {
          "duration": 0.011627906976744207,
          "durationTicks": 1,
          "midi": 43,
          "name": "G2",
          "ticks": 662,
          "time": 7.6976744186046515,
          "velocity": 0.5984251968503937
        },
        {
          "duration": 0.011627906976744207,
          "durationTicks": 1,
          "midi": 38,
          "name": "D2",
          "ticks": 663,
          "time": 7.709302325581396,
          "velocity": 0.6299212598425197
        },
        {
          "duration": 0.011627906976744207,
          "durationTicks": 1,
          "midi": 49,
          "name": "C#3",
          "ticks": 663,
          "time": 7.709302325581396,
          "velocity": 0.5196850393700787
        },
        {
          "duration": 0.08139534883720856,
          "durationTicks": 7,
          "midi": 62,
          "name": "D4",
          "ticks": 663,
          "time": 7.709302325581396,
          "velocity": 0.33070866141732286
        },
        {
          "duration": 0.011627906976744207,
          "durationTicks": 1,
          "midi": 32,
          "name": "G#1",
          "ticks": 664,
          "time": 7.72093023255814,
          "velocity": 0.5984251968503937
        },
        {
          "duration": 0.023255813953488413,
          "durationTicks": 2,
          "midi": 48,
          "name": "C3",
          "ticks": 664,
          "time": 7.72093023255814,
          "velocity": 0.5354330708661418
        },
        {
          "duration": 0.023255813953487525,
          "durationTicks": 2,
          "midi": 31,
          "name": "G1",
          "ticks": 665,
          "time": 7.732558139534884,
          "velocity": 0.6850393700787402
        },
        {
          "duration": 0.023255813953487525,
          "durationTicks": 2,
          "midi": 57,
          "name": "A3",
          "ticks": 665,
          "time": 7.732558139534884,
          "velocity": 0.3858267716535433
        },
        {
          "duration": 0.011627906976744207,
          "durationTicks": 1,
          "midi": 33,
          "name": "A1",
          "ticks": 667,
          "time": 7.755813953488372,
          "velocity": 0.7007874015748031
        },
        {
          "duration": 0.023255813953488413,
          "durationTicks": 2,
          "midi": 56,
          "name": "G#3",
          "ticks": 667,
          "time": 7.755813953488372,
          "velocity": 0.3937007874015748
        },
        {
          "duration": 0.011627906976744207,
          "durationTicks": 1,
          "midi": 35,
          "name": "B1",
          "ticks": 668,
          "time": 7.767441860465116,
          "velocity": 0.7165354330708661
        },
        {
          "duration": 0.011627906976744207,
          "durationTicks": 1,
          "midi": 37,
          "name": "C#2",
          "ticks": 669,
          "time": 7.77906976744186,
          "velocity": 0.6614173228346457
        },
        {
          "duration": 0.023255813953488413,
          "durationTicks": 2,
          "midi": 55,
          "name": "G3",
          "ticks": 669,
          "time": 7.77906976744186,
          "velocity": 0.3700787401574803
        },
        {
          "duration": 0.011627906976744207,
          "durationTicks": 1,
          "midi": 36,
          "name": "C2",
          "ticks": 670,
          "time": 7.790697674418604,
          "velocity": 0.6220472440944882
        },
        {
          "duration": 0.023255813953488413,
          "durationTicks": 2,
          "midi": 53,
          "name": "F3",
          "ticks": 670,
          "time": 7.790697674418604,
          "velocity": 0.4094488188976378
        },
        {
          "duration": 0.011627906976744207,
          "durationTicks": 1,
          "midi": 35,
          "name": "B1",
          "ticks": 671,
          "time": 7.8023255813953485,
          "velocity": 0.6220472440944882
        },
        {
          "duration": 0.023255813953488413,
          "durationTicks": 2,
          "midi": 62,
          "name": "D4",
          "ticks": 671,
          "time": 7.8023255813953485,
          "velocity": 0.23622047244094488
        },
        {
          "duration": 0.011627906976744207,
          "durationTicks": 1,
          "midi": 34,
          "name": "A#1",
          "ticks": 672,
          "time": 7.813953488372093,
          "velocity": 0.6377952755905512
        },
        {
          "duration": 0.023255813953488413,
          "durationTicks": 2,
          "midi": 50,
          "name": "D3",
          "ticks": 672,
          "time": 7.813953488372093,
          "velocity": 0.4881889763779528
        },
        {
          "duration": 0.011627906976744207,
          "durationTicks": 1,
          "midi": 36,
          "name": "C2",
          "ticks": 673,
          "time": 7.825581395348837,
          "velocity": 0.6299212598425197
        },
        {
          "duration": 0.011627906976744207,
          "durationTicks": 1,
          "midi": 35,
          "name": "B1",
          "ticks": 674,
          "time": 7.837209302325581,
          "velocity": 0.5748031496062992
        },
        {
          "duration": 0.011627906976744207,
          "durationTicks": 1,
          "midi": 33,
          "name": "A1",
          "ticks": 675,
          "time": 7.848837209302325,
          "velocity": 0.5590551181102362
        },
        {
          "duration": 0.011627906976744207,
          "durationTicks": 1,
          "midi": 34,
          "name": "A#1",
          "ticks": 676,
          "time": 7.8604651162790695,
          "velocity": 0.5511811023622047
        },
        {
          "duration": 0.03488372093023262,
          "durationTicks": 3,
          "midi": 62,
          "name": "D4",
          "ticks": 676,
          "time": 7.8604651162790695,
          "velocity": 0.13385826771653545
        },
        {
          "duration": 0.011627906976744207,
          "durationTicks": 1,
          "midi": 40,
          "name": "E2",
          "ticks": 677,
          "time": 7.872093023255814,
          "velocity": 0.5433070866141733
        },
        {
          "duration": 0.023255813953488413,
          "durationTicks": 2,
          "midi": 42,
          "name": "F#2",
          "ticks": 678,
          "time": 7.883720930232558,
          "velocity": 0.5590551181102362
        },
        {
          "duration": 0.011627906976744207,
          "durationTicks": 1,
          "midi": 30,
          "name": "F#1",
          "ticks": 679,
          "time": 7.895348837209302,
          "velocity": 0.5275590551181102
        },
        {
          "duration": 0.011627906976744207,
          "durationTicks": 1,
          "midi": 29,
          "name": "F1",
          "ticks": 680,
          "time": 7.906976744186046,
          "velocity": 0.5196850393700787
        },
        {
          "duration": 0.023255813953488413,
          "durationTicks": 2,
          "midi": 31,
          "name": "G1",
          "ticks": 681,
          "time": 7.9186046511627906,
          "velocity": 0.5354330708661418
        },
        {
          "duration": 0.03488372093023262,
          "durationTicks": 3,
          "midi": 78,
          "name": "F#5",
          "ticks": 682,
          "time": 7.930232558139535,
          "velocity": 0.2440944881889764
        },
        {
          "duration": 0.06976744186046524,
          "durationTicks": 6,
          "midi": 82,
          "name": "A#5",
          "ticks": 682,
          "time": 7.930232558139535,
          "velocity": 0.1968503937007874
        },
        {
          "duration": 0.04651162790697683,
          "durationTicks": 4,
          "midi": 83,
          "name": "B5",
          "ticks": 682,
          "time": 7.930232558139535,
          "velocity": 0.25984251968503935
        },
        {
          "duration": 0.058139534883721034,
          "durationTicks": 5,
          "midi": 92,
          "name": "G#6",
          "ticks": 682,
          "time": 7.930232558139535,
          "velocity": 0.16535433070866143
        },
        {
          "duration": 0.06976744186046524,
          "durationTicks": 6,
          "midi": 99,
          "name": "D#7",
          "ticks": 682,
          "time": 7.930232558139535,
          "velocity": 0.2440944881889764
        },
        {
          "duration": 0.04651162790697683,
          "durationTicks": 4,
          "midi": 100,
          "name": "E7",
          "ticks": 682,
          "time": 7.930232558139535,
          "velocity": 0.2283464566929134
        },
        {
          "duration": 0.011627906976744207,
          "durationTicks": 1,
          "midi": 34,
          "name": "A#1",
          "ticks": 683,
          "time": 7.941860465116279,
          "velocity": 0.5354330708661418
        },
        {
          "duration": 0.10465116279069786,
          "durationTicks": 9,
          "midi": 60,
          "name": "C4",
          "ticks": 683,
          "time": 7.941860465116279,
          "velocity": 0.2204724409448819
        },
        {
          "duration": 0.03488372093023262,
          "durationTicks": 3,
          "midi": 87,
          "name": "D#6",
          "ticks": 683,
          "time": 7.941860465116279,
          "velocity": 0.1889763779527559
        },
        {
          "duration": 0.04651162790697683,
          "durationTicks": 4,
          "midi": 88,
          "name": "E6",
          "ticks": 683,
          "time": 7.941860465116279,
          "velocity": 0.14960629921259844
        },
        {
          "duration": 0.058139534883721034,
          "durationTicks": 5,
          "midi": 89,
          "name": "F6",
          "ticks": 683,
          "time": 7.941860465116279,
          "velocity": 0.23622047244094488
        },
        {
          "duration": 0.03488372093023262,
          "durationTicks": 3,
          "midi": 96,
          "name": "C7",
          "ticks": 683,
          "time": 7.941860465116279,
          "velocity": 0.16535433070866143
        },
        {
          "duration": 0.04651162790697683,
          "durationTicks": 4,
          "midi": 97,
          "name": "C#7",
          "ticks": 683,
          "time": 7.941860465116279,
          "velocity": 0.14960629921259844
        },
        {
          "duration": 0.04651162790697683,
          "durationTicks": 4,
          "midi": 98,
          "name": "D7",
          "ticks": 683,
          "time": 7.941860465116279,
          "velocity": 0.18110236220472442
        },
        {
          "duration": 0.03488372093023262,
          "durationTicks": 3,
          "midi": 102,
          "name": "F#7",
          "ticks": 683,
          "time": 7.941860465116279,
          "velocity": 0.13385826771653545
        },
        {
          "duration": 0.011627906976744207,
          "durationTicks": 1,
          "midi": 30,
          "name": "F#1",
          "ticks": 686,
          "time": 7.976744186046512,
          "velocity": 0.5275590551181102
        },
        {
          "duration": 0.03488372093023173,
          "durationTicks": 3,
          "midi": 84,
          "name": "C6",
          "ticks": 686,
          "time": 7.976744186046512,
          "velocity": 0.13385826771653545
        },
        {
          "duration": 0.04651162790697683,
          "durationTicks": 4,
          "midi": 93,
          "name": "A6",
          "ticks": 686,
          "time": 7.976744186046512,
          "velocity": 0.11811023622047244
        },
        {
          "duration": 0.011627906976744207,
          "durationTicks": 1,
          "midi": 34,
          "name": "A#1",
          "ticks": 687,
          "time": 7.988372093023256,
          "velocity": 0.5826771653543307
        },
        {
          "duration": 0.011627906976743319,
          "durationTicks": 1,
          "midi": 33,
          "name": "A1",
          "ticks": 688,
          "time": 8,
          "velocity": 0.5590551181102362
        },
        {
          "duration": 0.03488372093023351,
          "durationTicks": 3,
          "midi": 31,
          "name": "G1",
          "ticks": 693,
          "time": 8.05813953488372,
          "velocity": 0.5590551181102362
        },
        {
          "duration": 0.023255813953488413,
          "durationTicks": 2,
          "midi": 51,
          "name": "D#3",
          "ticks": 693,
          "time": 8.05813953488372,
          "velocity": 0.25984251968503935
        },
        {
          "duration": 0.023255813953488413,
          "durationTicks": 2,
          "midi": 50,
          "name": "D3",
          "ticks": 695,
          "time": 8.081395348837209,
          "velocity": 0.29133858267716534
        },
        {
          "duration": 0.011627906976743319,
          "durationTicks": 1,
          "midi": 35,
          "name": "B1",
          "ticks": 696,
          "time": 8.093023255813954,
          "velocity": 0.5826771653543307
        },
        {
          "duration": 0.023255813953488413,
          "durationTicks": 2,
          "midi": 38,
          "name": "D2",
          "ticks": 697,
          "time": 8.104651162790697,
          "velocity": 0.5039370078740157
        },
        {
          "duration": 0.011627906976745095,
          "durationTicks": 1,
          "midi": 33,
          "name": "A1",
          "ticks": 699,
          "time": 8.127906976744185,
          "velocity": 0.5275590551181102
        },
        {
          "duration": 0.03488372093023173,
          "durationTicks": 3,
          "midi": 35,
          "name": "B1",
          "ticks": 700,
          "time": 8.13953488372093,
          "velocity": 0.6062992125984252
        },
        {
          "duration": 0.011627906976743319,
          "durationTicks": 1,
          "midi": 37,
          "name": "C#2",
          "ticks": 704,
          "time": 8.186046511627907,
          "velocity": 0.5511811023622047
        },
        {
          "duration": 0.011627906976745095,
          "durationTicks": 1,
          "midi": 36,
          "name": "C2",
          "ticks": 705,
          "time": 8.19767441860465,
          "velocity": 0.5669291338582677
        },
        {
          "duration": 0.023255813953488413,
          "durationTicks": 2,
          "midi": 50,
          "name": "D3",
          "ticks": 705,
          "time": 8.19767441860465,
          "velocity": 0.47244094488188976
        },
        {
          "duration": 0.011627906976743319,
          "durationTicks": 1,
          "midi": 34,
          "name": "A#1",
          "ticks": 706,
          "time": 8.209302325581396,
          "velocity": 0.5196850393700787
        },
        {
          "duration": 0.011627906976745095,
          "durationTicks": 1,
          "midi": 42,
          "name": "F#2",
          "ticks": 707,
          "time": 8.220930232558139,
          "velocity": 0.5354330708661418
        },
        {
          "duration": 0.06976744186046524,
          "durationTicks": 6,
          "midi": 63,
          "name": "D#4",
          "ticks": 707,
          "time": 8.220930232558139,
          "velocity": 0.33070866141732286
        },
        {
          "duration": 0.011627906976743319,
          "durationTicks": 1,
          "midi": 40,
          "name": "E2",
          "ticks": 708,
          "time": 8.232558139534884,
          "velocity": 0.5669291338582677
        },
        {
          "duration": 0.011627906976745095,
          "durationTicks": 1,
          "midi": 37,
          "name": "C#2",
          "ticks": 709,
          "time": 8.244186046511627,
          "velocity": 0.5511811023622047
        },
        {
          "duration": 0.011627906976743319,
          "durationTicks": 1,
          "midi": 36,
          "name": "C2",
          "ticks": 710,
          "time": 8.255813953488373,
          "velocity": 0.5118110236220472
        },
        {
          "duration": 0.023255813953488413,
          "durationTicks": 2,
          "midi": 50,
          "name": "D3",
          "ticks": 710,
          "time": 8.255813953488373,
          "velocity": 0.3464566929133858
        },
        {
          "duration": 0.023255813953488413,
          "durationTicks": 2,
          "midi": 37,
          "name": "C#2",
          "ticks": 711,
          "time": 8.267441860465116,
          "velocity": 0.6299212598425197
        },
        {
          "duration": 0.04651162790697683,
          "durationTicks": 4,
          "midi": 53,
          "name": "F3",
          "ticks": 712,
          "time": 8.279069767441861,
          "velocity": 0.33070866141732286
        },
        {
          "duration": 0.011627906976745095,
          "durationTicks": 1,
          "midi": 36,
          "name": "C2",
          "ticks": 713,
          "time": 8.290697674418604,
          "velocity": 0.6535433070866141
        },
        {
          "duration": 0.011627906976743319,
          "durationTicks": 1,
          "midi": 35,
          "name": "B1",
          "ticks": 714,
          "time": 8.30232558139535,
          "velocity": 0.6614173228346457
        },
        {
          "duration": 0.023255813953488413,
          "durationTicks": 2,
          "midi": 36,
          "name": "C2",
          "ticks": 715,
          "time": 8.313953488372093,
          "velocity": 0.6614173228346457
        },
        {
          "duration": 0.023255813953488413,
          "durationTicks": 2,
          "midi": 35,
          "name": "B1",
          "ticks": 717,
          "time": 8.337209302325581,
          "velocity": 0.6771653543307087
        },
        {
          "duration": 0.04651162790697683,
          "durationTicks": 4,
          "midi": 36,
          "name": "C2",
          "ticks": 719,
          "time": 8.36046511627907,
          "velocity": 0.6456692913385826
        },
        {
          "duration": 0.03488372093023351,
          "durationTicks": 3,
          "midi": 50,
          "name": "D3",
          "ticks": 721,
          "time": 8.383720930232558,
          "velocity": 0.25196850393700787
        },
        {
          "duration": 0.011627906976745095,
          "durationTicks": 1,
          "midi": 35,
          "name": "B1",
          "ticks": 723,
          "time": 8.406976744186046,
          "velocity": 0.5984251968503937
        },
        {
          "duration": 0.011627906976743319,
          "durationTicks": 1,
          "midi": 34,
          "name": "A#1",
          "ticks": 724,
          "time": 8.418604651162791,
          "velocity": 0.5275590551181102
        },
        {
          "duration": 0.011627906976745095,
          "durationTicks": 1,
          "midi": 35,
          "name": "B1",
          "ticks": 727,
          "time": 8.453488372093023,
          "velocity": 0.5118110236220472
        },
        {
          "duration": 0.023255813953488413,
          "durationTicks": 2,
          "midi": 44,
          "name": "G#2",
          "ticks": 728,
          "time": 8.465116279069768,
          "velocity": 0.29133858267716534
        },
        {
          "duration": 0.04651162790697683,
          "durationTicks": 4,
          "midi": 78,
          "name": "F#5",
          "ticks": 729,
          "time": 8.476744186046512,
          "velocity": 0.25196850393700787
        },
        {
          "duration": 0.03488372093023173,
          "durationTicks": 3,
          "midi": 86,
          "name": "D6",
          "ticks": 729,
          "time": 8.476744186046512,
          "velocity": 0.2283464566929134
        },
        {
          "duration": 0.058139534883720145,
          "durationTicks": 5,
          "midi": 87,
          "name": "D#6",
          "ticks": 729,
          "time": 8.476744186046512,
          "velocity": 0.25984251968503935
        },
        {
          "duration": 0.11627906976744207,
          "durationTicks": 10,
          "midi": 89,
          "name": "F6",
          "ticks": 729,
          "time": 8.476744186046512,
          "velocity": 0.2755905511811024
        },
        {
          "duration": 0.06976744186046524,
          "durationTicks": 6,
          "midi": 91,
          "name": "G6",
          "ticks": 729,
          "time": 8.476744186046512,
          "velocity": 0.2047244094488189
        },
        {
          "duration": 0.11627906976744207,
          "durationTicks": 10,
          "midi": 93,
          "name": "A6",
          "ticks": 729,
          "time": 8.476744186046512,
          "velocity": 0.28346456692913385
        },
        {
          "duration": 0.06976744186046524,
          "durationTicks": 6,
          "midi": 94,
          "name": "A#6",
          "ticks": 729,
          "time": 8.476744186046512,
          "velocity": 0.29133858267716534
        },
        {
          "duration": 0.06976744186046524,
          "durationTicks": 6,
          "midi": 97,
          "name": "C#7",
          "ticks": 729,
          "time": 8.476744186046512,
          "velocity": 0.1732283464566929
        },
        {
          "duration": 0.06976744186046524,
          "durationTicks": 6,
          "midi": 100,
          "name": "E7",
          "ticks": 729,
          "time": 8.476744186046512,
          "velocity": 0.23622047244094488
        },
        {
          "duration": 0.03488372093023173,
          "durationTicks": 3,
          "midi": 68,
          "name": "G#4",
          "ticks": 730,
          "time": 8.488372093023257,
          "velocity": 0.09448818897637795
        },
        {
          "duration": 0.04651162790697505,
          "durationTicks": 4,
          "midi": 83,
          "name": "B5",
          "ticks": 730,
          "time": 8.488372093023257,
          "velocity": 0.2440944881889764
        },
        {
          "duration": 0.06976744186046346,
          "durationTicks": 6,
          "midi": 96,
          "name": "C7",
          "ticks": 730,
          "time": 8.488372093023257,
          "velocity": 0.10236220472440945
        },
        {
          "duration": 0.04651162790697683,
          "durationTicks": 4,
          "midi": 60,
          "name": "C4",
          "ticks": 731,
          "time": 8.5,
          "velocity": 0.18110236220472442
        },
        {
          "duration": 0.06976744186046524,
          "durationTicks": 6,
          "midi": 85,
          "name": "C#6",
          "ticks": 731,
          "time": 8.5,
          "velocity": 0.2677165354330709
        },
        {
          "duration": 0.05813953488372192,
          "durationTicks": 5,
          "midi": 92,
          "name": "G#6",
          "ticks": 732,
          "time": 8.511627906976743,
          "velocity": 0.25984251968503935
        },
        {
          "duration": 0.058139534883720145,
          "durationTicks": 5,
          "midi": 77,
          "name": "F5",
          "ticks": 733,
          "time": 8.523255813953488,
          "velocity": 0.16535433070866143
        },
        {
          "duration": 0.011627906976745095,
          "durationTicks": 1,
          "midi": 33,
          "name": "A1",
          "ticks": 734,
          "time": 8.534883720930232,
          "velocity": 0.5118110236220472
        },
        {
          "duration": 0.03488372093023351,
          "durationTicks": 3,
          "midi": 55,
          "name": "G3",
          "ticks": 734,
          "time": 8.534883720930232,
          "velocity": 0.11023622047244094
        },
        {
          "duration": 0.023255813953488413,
          "durationTicks": 2,
          "midi": 34,
          "name": "A#1",
          "ticks": 735,
          "time": 8.546511627906977,
          "velocity": 0.5433070866141733
        },
        {
          "duration": 0.04651162790697683,
          "durationTicks": 4,
          "midi": 86,
          "name": "D6",
          "ticks": 736,
          "time": 8.55813953488372,
          "velocity": 0.16535433070866143
        },
        {
          "duration": 0.023255813953488413,
          "durationTicks": 2,
          "midi": 48,
          "name": "C3",
          "ticks": 738,
          "time": 8.581395348837209,
          "velocity": 0.2677165354330709
        },
        {
          "duration": 0.011627906976743319,
          "durationTicks": 1,
          "midi": 35,
          "name": "B1",
          "ticks": 739,
          "time": 8.593023255813954,
          "velocity": 0.5748031496062992
        },
        {
          "duration": 0.011627906976745095,
          "durationTicks": 1,
          "midi": 34,
          "name": "A#1",
          "ticks": 740,
          "time": 8.604651162790697,
          "velocity": 0.5511811023622047
        },
        {
          "duration": 0.011627906976745095,
          "durationTicks": 1,
          "midi": 39,
          "name": "D#2",
          "ticks": 742,
          "time": 8.627906976744185,
          "velocity": 0.5433070866141733
        },
        {
          "duration": 0.011627906976743319,
          "durationTicks": 1,
          "midi": 35,
          "name": "B1",
          "ticks": 743,
          "time": 8.63953488372093,
          "velocity": 0.5826771653543307
        },
        {
          "duration": 0.011627906976745095,
          "durationTicks": 1,
          "midi": 34,
          "name": "A#1",
          "ticks": 744,
          "time": 8.651162790697674,
          "velocity": 0.5669291338582677
        },
        {
          "duration": 0.011627906976743319,
          "durationTicks": 1,
          "midi": 35,
          "name": "B1",
          "ticks": 745,
          "time": 8.662790697674419,
          "velocity": 0.5354330708661418
        },
        {
          "duration": 0.011627906976745095,
          "durationTicks": 1,
          "midi": 33,
          "name": "A1",
          "ticks": 748,
          "time": 8.69767441860465,
          "velocity": 0.5826771653543307
        },
        {
          "duration": 0.011627906976743319,
          "durationTicks": 1,
          "midi": 35,
          "name": "B1",
          "ticks": 749,
          "time": 8.709302325581396,
          "velocity": 0.5748031496062992
        },
        {
          "duration": 0.011627906976745095,
          "durationTicks": 1,
          "midi": 34,
          "name": "A#1",
          "ticks": 752,
          "time": 8.744186046511627,
          "velocity": 0.5590551181102362
        },
        {
          "duration": 0.04651162790697683,
          "durationTicks": 4,
          "midi": 64,
          "name": "E4",
          "ticks": 752,
          "time": 8.744186046511627,
          "velocity": 0.33070866141732286
        },
        {
          "duration": 0.011627906976743319,
          "durationTicks": 1,
          "midi": 33,
          "name": "A1",
          "ticks": 753,
          "time": 8.755813953488373,
          "velocity": 0.5905511811023622
        },
        {
          "duration": 0.011627906976743319,
          "durationTicks": 1,
          "midi": 48,
          "name": "C3",
          "ticks": 753,
          "time": 8.755813953488373,
          "velocity": 0.5905511811023622
        },
        {
          "duration": 0.011627906976745095,
          "durationTicks": 1,
          "midi": 34,
          "name": "A#1",
          "ticks": 754,
          "time": 8.767441860465116,
          "velocity": 0.5826771653543307
        },
        {
          "duration": 0.011627906976745095,
          "durationTicks": 1,
          "midi": 45,
          "name": "A2",
          "ticks": 754,
          "time": 8.767441860465116,
          "velocity": 0.6062992125984252
        },
        {
          "duration": 0.03488372093023351,
          "durationTicks": 3,
          "midi": 50,
          "name": "D3",
          "ticks": 754,
          "time": 8.767441860465116,
          "velocity": 0.5826771653543307
        },
        {
          "duration": 0.023255813953488413,
          "durationTicks": 2,
          "midi": 60,
          "name": "C4",
          "ticks": 754,
          "time": 8.767441860465116,
          "velocity": 0.31496062992125984
        },
        {
          "duration": 0.05813953488372192,
          "durationTicks": 5,
          "midi": 70,
          "name": "A#4",
          "ticks": 754,
          "time": 8.767441860465116,
          "velocity": 0.25196850393700787
        },
        {
          "duration": 0.011627906976743319,
          "durationTicks": 1,
          "midi": 31,
          "name": "G1",
          "ticks": 755,
          "time": 8.779069767441861,
          "velocity": 0.5275590551181102
        },
        {
          "duration": 0.011627906976743319,
          "durationTicks": 1,
          "midi": 44,
          "name": "G#2",
          "ticks": 755,
          "time": 8.779069767441861,
          "velocity": 0.5669291338582677
        },
        {
          "duration": 0.011627906976745095,
          "durationTicks": 1,
          "midi": 22,
          "name": "A#0",
          "ticks": 756,
          "time": 8.790697674418604,
          "velocity": 0.5354330708661418
        },
        {
          "duration": 0.011627906976745095,
          "durationTicks": 1,
          "midi": 43,
          "name": "G2",
          "ticks": 756,
          "time": 8.790697674418604,
          "velocity": 0.5984251968503937
        },
        {
          "duration": 0.011627906976743319,
          "durationTicks": 1,
          "midi": 38,
          "name": "D2",
          "ticks": 757,
          "time": 8.80232558139535,
          "velocity": 0.6456692913385826
        },
        {
          "duration": 0.011627906976743319,
          "durationTicks": 1,
          "midi": 49,
          "name": "C#3",
          "ticks": 757,
          "time": 8.80232558139535,
          "velocity": 0.5196850393700787
        },
        {
          "duration": 0.08139534883720856,
          "durationTicks": 7,
          "midi": 62,
          "name": "D4",
          "ticks": 757,
          "time": 8.80232558139535,
          "velocity": 0.3228346456692913
        },
        {
          "duration": 0.011627906976745095,
          "durationTicks": 1,
          "midi": 32,
          "name": "G#1",
          "ticks": 758,
          "time": 8.813953488372093,
          "velocity": 0.6141732283464567
        },
        {
          "duration": 0.023255813953488413,
          "durationTicks": 2,
          "midi": 48,
          "name": "C3",
          "ticks": 758,
          "time": 8.813953488372093,
          "velocity": 0.5275590551181102
        },
        {
          "duration": 0.023255813953488413,
          "durationTicks": 2,
          "midi": 31,
          "name": "G1",
          "ticks": 759,
          "time": 8.825581395348838,
          "velocity": 0.6850393700787402
        },
        {
          "duration": 0.023255813953488413,
          "durationTicks": 2,
          "midi": 57,
          "name": "A3",
          "ticks": 759,
          "time": 8.825581395348838,
          "velocity": 0.3858267716535433
        },
        {
          "duration": 0.011627906976743319,
          "durationTicks": 1,
          "midi": 33,
          "name": "A1",
          "ticks": 761,
          "time": 8.848837209302326,
          "velocity": 0.7007874015748031
        },
        {
          "duration": 0.023255813953488413,
          "durationTicks": 2,
          "midi": 56,
          "name": "G#3",
          "ticks": 761,
          "time": 8.848837209302326,
          "velocity": 0.3937007874015748
        },
        {
          "duration": 0.011627906976745095,
          "durationTicks": 1,
          "midi": 35,
          "name": "B1",
          "ticks": 762,
          "time": 8.86046511627907,
          "velocity": 0.7086614173228346
        },
        {
          "duration": 0.011627906976743319,
          "durationTicks": 1,
          "midi": 37,
          "name": "C#2",
          "ticks": 763,
          "time": 8.872093023255815,
          "velocity": 0.6535433070866141
        },
        {
          "duration": 0.023255813953488413,
          "durationTicks": 2,
          "midi": 55,
          "name": "G3",
          "ticks": 763,
          "time": 8.872093023255815,
          "velocity": 0.36220472440944884
        },
        {
          "duration": 0.011627906976745095,
          "durationTicks": 1,
          "midi": 36,
          "name": "C2",
          "ticks": 764,
          "time": 8.883720930232558,
          "velocity": 0.6220472440944882
        },
        {
          "duration": 0.011627906976743319,
          "durationTicks": 1,
          "midi": 34,
          "name": "A#1",
          "ticks": 765,
          "time": 8.895348837209303,
          "velocity": 0.6220472440944882
        },
        {
          "duration": 0.023255813953488413,
          "durationTicks": 2,
          "midi": 62,
          "name": "D4",
          "ticks": 765,
          "time": 8.895348837209303,
          "velocity": 0.23622047244094488
        },
        {
          "duration": 0.011627906976745095,
          "durationTicks": 1,
          "midi": 35,
          "name": "B1",
          "ticks": 766,
          "time": 8.906976744186046,
          "velocity": 0.6377952755905512
        },
        {
          "duration": 0.011627906976743319,
          "durationTicks": 1,
          "midi": 36,
          "name": "C2",
          "ticks": 767,
          "time": 8.918604651162791,
          "velocity": 0.6220472440944882
        },
        {
          "duration": 0.011627906976745095,
          "durationTicks": 1,
          "midi": 35,
          "name": "B1",
          "ticks": 768,
          "time": 8.930232558139535,
          "velocity": 0.5748031496062992
        },
        {
          "duration": 0.011627906976743319,
          "durationTicks": 1,
          "midi": 33,
          "name": "A1",
          "ticks": 769,
          "time": 8.94186046511628,
          "velocity": 0.5669291338582677
        },
        {
          "duration": 0.011627906976745095,
          "durationTicks": 1,
          "midi": 32,
          "name": "G#1",
          "ticks": 770,
          "time": 8.953488372093023,
          "velocity": 0.5590551181102362
        },
        {
          "duration": 0.03488372093023351,
          "durationTicks": 3,
          "midi": 62,
          "name": "D4",
          "ticks": 770,
          "time": 8.953488372093023,
          "velocity": 0.12598425196850394
        },
        {
          "duration": 0.011627906976743319,
          "durationTicks": 1,
          "midi": 30,
          "name": "F#1",
          "ticks": 771,
          "time": 8.965116279069768,
          "velocity": 0.5275590551181102
        },
        {
          "duration": 0.011627906976743319,
          "durationTicks": 1,
          "midi": 41,
          "name": "F2",
          "ticks": 771,
          "time": 8.965116279069768,
          "velocity": 0.5354330708661418
        },
        {
          "duration": 0.023255813953488413,
          "durationTicks": 2,
          "midi": 42,
          "name": "F#2",
          "ticks": 772,
          "time": 8.976744186046512,
          "velocity": 0.5590551181102362
        },
        {
          "duration": 0.023255813953486637,
          "durationTicks": 2,
          "midi": 30,
          "name": "F#1",
          "ticks": 773,
          "time": 8.988372093023257,
          "velocity": 0.5433070866141733
        },
        {
          "duration": 0.011627906976745095,
          "durationTicks": 1,
          "midi": 31,
          "name": "G1",
          "ticks": 775,
          "time": 9.011627906976743,
          "velocity": 0.5511811023622047
        },
        {
          "duration": 0.011627906976743319,
          "durationTicks": 1,
          "midi": 30,
          "name": "F#1",
          "ticks": 776,
          "time": 9.023255813953488,
          "velocity": 0.5590551181102362
        },
        {
          "duration": 0.011627906976745095,
          "durationTicks": 1,
          "midi": 31,
          "name": "G1",
          "ticks": 777,
          "time": 9.034883720930232,
          "velocity": 0.5275590551181102
        },
        {
          "duration": 0.011627906976743319,
          "durationTicks": 1,
          "midi": 33,
          "name": "A1",
          "ticks": 780,
          "time": 9.069767441860465,
          "velocity": 0.5590551181102362
        },
        {
          "duration": 0.023255813953488413,
          "durationTicks": 2,
          "midi": 34,
          "name": "A#1",
          "ticks": 781,
          "time": 9.081395348837209,
          "velocity": 0.6141732283464567
        },
        {
          "duration": 0.023255813953488413,
          "durationTicks": 2,
          "midi": 43,
          "name": "G2",
          "ticks": 785,
          "time": 9.127906976744185,
          "velocity": 0.3700787401574803
        },
        {
          "duration": 0.011627906976743319,
          "durationTicks": 1,
          "midi": 29,
          "name": "F1",
          "ticks": 786,
          "time": 9.13953488372093,
          "velocity": 0.5196850393700787
        },
        {
          "duration": 0.03488372093023351,
          "durationTicks": 3,
          "midi": 31,
          "name": "G1",
          "ticks": 787,
          "time": 9.151162790697674,
          "velocity": 0.5590551181102362
        },
        {
          "duration": 0.06976744186046524,
          "durationTicks": 6,
          "midi": 50,
          "name": "D3",
          "ticks": 788,
          "time": 9.162790697674419,
          "velocity": 0.2992125984251969
        },
        {
          "duration": 0.011627906976743319,
          "durationTicks": 1,
          "midi": 35,
          "name": "B1",
          "ticks": 790,
          "time": 9.186046511627907,
          "velocity": 0.5748031496062992
        },
        {
          "duration": 0.023255813953488413,
          "durationTicks": 2,
          "midi": 38,
          "name": "D2",
          "ticks": 791,
          "time": 9.19767441860465,
          "velocity": 0.5039370078740157
        },
        {
          "duration": 0.011627906976745095,
          "durationTicks": 1,
          "midi": 33,
          "name": "A1",
          "ticks": 793,
          "time": 9.220930232558139,
          "velocity": 0.5590551181102362
        },
        {
          "duration": 0.011627906976743319,
          "durationTicks": 1,
          "midi": 35,
          "name": "B1",
          "ticks": 794,
          "time": 9.232558139534884,
          "velocity": 0.6062992125984252
        },
        {
          "duration": 0.03488372093023351,
          "durationTicks": 3,
          "midi": 36,
          "name": "C2",
          "ticks": 795,
          "time": 9.244186046511627,
          "velocity": 0.5433070866141733
        },
        {
          "duration": 0.011627906976743319,
          "durationTicks": 1,
          "midi": 37,
          "name": "C#2",
          "ticks": 798,
          "time": 9.279069767441861,
          "velocity": 0.5433070866141733
        },
        {
          "duration": 0.011627906976745095,
          "durationTicks": 1,
          "midi": 36,
          "name": "C2",
          "ticks": 799,
          "time": 9.290697674418604,
          "velocity": 0.5511811023622047
        },
        {
          "duration": 0.011627906976743319,
          "durationTicks": 1,
          "midi": 34,
          "name": "A#1",
          "ticks": 800,
          "time": 9.30232558139535,
          "velocity": 0.5275590551181102
        },
        {
          "duration": 0.011627906976745095,
          "durationTicks": 1,
          "midi": 41,
          "name": "F2",
          "ticks": 801,
          "time": 9.313953488372093,
          "velocity": 0.5511811023622047
        },
        {
          "duration": 0.06976744186046524,
          "durationTicks": 6,
          "midi": 63,
          "name": "D#4",
          "ticks": 801,
          "time": 9.313953488372093,
          "velocity": 0.33858267716535434
        },
        {
          "duration": 0.011627906976743319,
          "durationTicks": 1,
          "midi": 40,
          "name": "E2",
          "ticks": 802,
          "time": 9.325581395348838,
          "velocity": 0.5748031496062992
        },
        {
          "duration": 0.011627906976745095,
          "durationTicks": 1,
          "midi": 38,
          "name": "D2",
          "ticks": 803,
          "time": 9.337209302325581,
          "velocity": 0.5433070866141733
        },
        {
          "duration": 0.011627906976743319,
          "durationTicks": 1,
          "midi": 36,
          "name": "C2",
          "ticks": 804,
          "time": 9.348837209302326,
          "velocity": 0.5275590551181102
        },
        {
          "duration": 0.023255813953488413,
          "durationTicks": 2,
          "midi": 50,
          "name": "D3",
          "ticks": 804,
          "time": 9.348837209302326,
          "velocity": 0.3464566929133858
        },
        {
          "duration": 0.023255813953488413,
          "durationTicks": 2,
          "midi": 37,
          "name": "C#2",
          "ticks": 805,
          "time": 9.36046511627907,
          "velocity": 0.6220472440944882
        },
        {
          "duration": 0.04651162790697683,
          "durationTicks": 4,
          "midi": 53,
          "name": "F3",
          "ticks": 806,
          "time": 9.372093023255815,
          "velocity": 0.33070866141732286
        },
        {
          "duration": 0.011627906976745095,
          "durationTicks": 1,
          "midi": 36,
          "name": "C2",
          "ticks": 807,
          "time": 9.383720930232558,
          "velocity": 0.6456692913385826
        },
        {
          "duration": 0.011627906976743319,
          "durationTicks": 1,
          "midi": 35,
          "name": "B1",
          "ticks": 808,
          "time": 9.395348837209303,
          "velocity": 0.6614173228346457
        },
        {
          "duration": 0.023255813953488413,
          "durationTicks": 2,
          "midi": 36,
          "name": "C2",
          "ticks": 809,
          "time": 9.406976744186046,
          "velocity": 0.6614173228346457
        },
        {
          "duration": 0.023255813953488413,
          "durationTicks": 2,
          "midi": 50,
          "name": "D3",
          "ticks": 810,
          "time": 9.418604651162791,
          "velocity": 0.25196850393700787
        },
        {
          "duration": 0.011627906976745095,
          "durationTicks": 1,
          "midi": 35,
          "name": "B1",
          "ticks": 811,
          "time": 9.430232558139535,
          "velocity": 0.6299212598425197
        },
        {
          "duration": 0.058139534883720145,
          "durationTicks": 5,
          "midi": 36,
          "name": "C2",
          "ticks": 812,
          "time": 9.44186046511628,
          "velocity": 0.6771653543307087
        },
        {
          "duration": 0.03488372093023173,
          "durationTicks": 3,
          "midi": 50,
          "name": "D3",
          "ticks": 815,
          "time": 9.476744186046512,
          "velocity": 0.25196850393700787
        },
        {
          "duration": 0.011627906976743319,
          "durationTicks": 1,
          "midi": 35,
          "name": "B1",
          "ticks": 817,
          "time": 9.5,
          "velocity": 0.5984251968503937
        },
        {
          "duration": 0.011627906976745095,
          "durationTicks": 1,
          "midi": 34,
          "name": "A#1",
          "ticks": 818,
          "time": 9.511627906976743,
          "velocity": 0.5275590551181102
        },
        {
          "duration": 0.011627906976743319,
          "durationTicks": 1,
          "midi": 36,
          "name": "C2",
          "ticks": 821,
          "time": 9.546511627906977,
          "velocity": 0.5118110236220472
        },
        {
          "duration": 0.023255813953488413,
          "durationTicks": 2,
          "midi": 34,
          "name": "A#1",
          "ticks": 828,
          "time": 9.627906976744185,
          "velocity": 0.5196850393700787
        },
        {
          "duration": 0.023255813953488413,
          "durationTicks": 2,
          "midi": 34,
          "name": "A#1",
          "ticks": 833,
          "time": 9.686046511627907,
          "velocity": 0.5590551181102362
        },
        {
          "duration": 0.011627906976745095,
          "durationTicks": 1,
          "midi": 38,
          "name": "D2",
          "ticks": 836,
          "time": 9.720930232558139,
          "velocity": 0.5590551181102362
        },
        {
          "duration": 0.011627906976743319,
          "durationTicks": 1,
          "midi": 36,
          "name": "C2",
          "ticks": 837,
          "time": 9.732558139534884,
          "velocity": 0.5984251968503937
        },
        {
          "duration": 0.011627906976745095,
          "durationTicks": 1,
          "midi": 34,
          "name": "A#1",
          "ticks": 838,
          "time": 9.744186046511627,
          "velocity": 0.5748031496062992
        },
        {
          "duration": 0.011627906976745095,
          "durationTicks": 1,
          "midi": 33,
          "name": "A1",
          "ticks": 842,
          "time": 9.790697674418604,
          "velocity": 0.5748031496062992
        },
        {
          "duration": 0.011627906976743319,
          "durationTicks": 1,
          "midi": 36,
          "name": "C2",
          "ticks": 843,
          "time": 9.80232558139535,
          "velocity": 0.5748031496062992
        },
        {
          "duration": 0.023255813953488413,
          "durationTicks": 2,
          "midi": 37,
          "name": "C#2",
          "ticks": 844,
          "time": 9.813953488372093,
          "velocity": 0.47244094488188976
        },
        {
          "duration": 0.011627906976745095,
          "durationTicks": 1,
          "midi": 35,
          "name": "B1",
          "ticks": 846,
          "time": 9.837209302325581,
          "velocity": 0.5669291338582677
        },
        {
          "duration": 0.04651162790697683,
          "durationTicks": 4,
          "midi": 64,
          "name": "E4",
          "ticks": 846,
          "time": 9.837209302325581,
          "velocity": 0.33070866141732286
        },
        {
          "duration": 0.011627906976743319,
          "durationTicks": 1,
          "midi": 33,
          "name": "A1",
          "ticks": 847,
          "time": 9.848837209302326,
          "velocity": 0.5826771653543307
        },
        {
          "duration": 0.011627906976743319,
          "durationTicks": 1,
          "midi": 48,
          "name": "C3",
          "ticks": 847,
          "time": 9.848837209302326,
          "velocity": 0.5905511811023622
        },
        {
          "duration": 0.011627906976745095,
          "durationTicks": 1,
          "midi": 34,
          "name": "A#1",
          "ticks": 848,
          "time": 9.86046511627907,
          "velocity": 0.5669291338582677
        },
        {
          "duration": 0.011627906976745095,
          "durationTicks": 1,
          "midi": 45,
          "name": "A2",
          "ticks": 848,
          "time": 9.86046511627907,
          "velocity": 0.6062992125984252
        },
        {
          "duration": 0.03488372093023351,
          "durationTicks": 3,
          "midi": 50,
          "name": "D3",
          "ticks": 848,
          "time": 9.86046511627907,
          "velocity": 0.5826771653543307
        },
        {
          "duration": 0.05813953488372192,
          "durationTicks": 5,
          "midi": 70,
          "name": "A#4",
          "ticks": 848,
          "time": 9.86046511627907,
          "velocity": 0.25196850393700787
        },
        {
          "duration": 0.011627906976743319,
          "durationTicks": 1,
          "midi": 31,
          "name": "G1",
          "ticks": 849,
          "time": 9.872093023255815,
          "velocity": 0.5354330708661418
        },
        {
          "duration": 0.011627906976743319,
          "durationTicks": 1,
          "midi": 44,
          "name": "G#2",
          "ticks": 849,
          "time": 9.872093023255815,
          "velocity": 0.5669291338582677
        },
        {
          "duration": 0.011627906976745095,
          "durationTicks": 1,
          "midi": 22,
          "name": "A#0",
          "ticks": 850,
          "time": 9.883720930232558,
          "velocity": 0.5354330708661418
        },
        {
          "duration": 0.011627906976745095,
          "durationTicks": 1,
          "midi": 42,
          "name": "F#2",
          "ticks": 850,
          "time": 9.883720930232558,
          "velocity": 0.6062992125984252
        },
        {
          "duration": 0.011627906976743319,
          "durationTicks": 1,
          "midi": 38,
          "name": "D2",
          "ticks": 851,
          "time": 9.895348837209303,
          "velocity": 0.6377952755905512
        },
        {
          "duration": 0.011627906976743319,
          "durationTicks": 1,
          "midi": 49,
          "name": "C#3",
          "ticks": 851,
          "time": 9.895348837209303,
          "velocity": 0.5196850393700787
        },
        {
          "duration": 0.011627906976745095,
          "durationTicks": 1,
          "midi": 32,
          "name": "G#1",
          "ticks": 852,
          "time": 9.906976744186046,
          "velocity": 0.6062992125984252
        },
        {
          "duration": 0.023255813953488413,
          "durationTicks": 2,
          "midi": 48,
          "name": "C3",
          "ticks": 852,
          "time": 9.906976744186046,
          "velocity": 0.5275590551181102
        },
        {
          "duration": 0.023255813953488413,
          "durationTicks": 2,
          "midi": 31,
          "name": "G1",
          "ticks": 853,
          "time": 9.918604651162791,
          "velocity": 0.6850393700787402
        },
        {
          "duration": 0.023255813953488413,
          "durationTicks": 2,
          "midi": 57,
          "name": "A3",
          "ticks": 853,
          "time": 9.918604651162791,
          "velocity": 0.3858267716535433
        },
        {
          "duration": 0.058139534883720145,
          "durationTicks": 5,
          "midi": 62,
          "name": "D4",
          "ticks": 853,
          "time": 9.918604651162791,
          "velocity": 0.3228346456692913
        },
        {
          "duration": 0.011627906976743319,
          "durationTicks": 1,
          "midi": 33,
          "name": "A1",
          "ticks": 855,
          "time": 9.94186046511628,
          "velocity": 0.7007874015748031
        },
        {
          "duration": 0.023255813953488413,
          "durationTicks": 2,
          "midi": 56,
          "name": "G#3",
          "ticks": 855,
          "time": 9.94186046511628,
          "velocity": 0.3937007874015748
        },
        {
          "duration": 0.011627906976745095,
          "durationTicks": 1,
          "midi": 35,
          "name": "B1",
          "ticks": 856,
          "time": 9.953488372093023,
          "velocity": 0.7086614173228346
        },
        {
          "duration": 0.011627906976743319,
          "durationTicks": 1,
          "midi": 37,
          "name": "C#2",
          "ticks": 857,
          "time": 9.965116279069768,
          "velocity": 0.6614173228346457
        },
        {
          "duration": 0.023255813953488413,
          "durationTicks": 2,
          "midi": 55,
          "name": "G3",
          "ticks": 857,
          "time": 9.965116279069768,
          "velocity": 0.3543307086614173
        },
        {
          "duration": 0.011627906976745095,
          "durationTicks": 1,
          "midi": 36,
          "name": "C2",
          "ticks": 858,
          "time": 9.976744186046512,
          "velocity": 0.6299212598425197
        },
        {
          "duration": 0.023255813953486637,
          "durationTicks": 2,
          "midi": 34,
          "name": "A#1",
          "ticks": 859,
          "time": 9.988372093023257,
          "velocity": 0.6299212598425197
        },
        {
          "duration": 0.023255813953486637,
          "durationTicks": 2,
          "midi": 62,
          "name": "D4",
          "ticks": 859,
          "time": 9.988372093023257,
          "velocity": 0.23622047244094488
        },
        {
          "duration": 0.011627906976745095,
          "durationTicks": 1,
          "midi": 36,
          "name": "C2",
          "ticks": 861,
          "time": 10.011627906976743,
          "velocity": 0.6141732283464567
        },
        {
          "duration": 0.011627906976743319,
          "durationTicks": 1,
          "midi": 35,
          "name": "B1",
          "ticks": 862,
          "time": 10.023255813953488,
          "velocity": 0.5669291338582677
        },
        {
          "duration": 0.011627906976745095,
          "durationTicks": 1,
          "midi": 33,
          "name": "A1",
          "ticks": 863,
          "time": 10.034883720930232,
          "velocity": 0.5669291338582677
        },
        {
          "duration": 0.011627906976743319,
          "durationTicks": 1,
          "midi": 34,
          "name": "A#1",
          "ticks": 864,
          "time": 10.046511627906977,
          "velocity": 0.5511811023622047
        },
        {
          "duration": 0.03488372093023173,
          "durationTicks": 3,
          "midi": 62,
          "name": "D4",
          "ticks": 864,
          "time": 10.046511627906977,
          "velocity": 0.13385826771653545
        },
        {
          "duration": 0.011627906976745095,
          "durationTicks": 1,
          "midi": 30,
          "name": "F#1",
          "ticks": 865,
          "time": 10.05813953488372,
          "velocity": 0.5196850393700787
        },
        {
          "duration": 0.011627906976745095,
          "durationTicks": 1,
          "midi": 41,
          "name": "F2",
          "ticks": 865,
          "time": 10.05813953488372,
          "velocity": 0.5511811023622047
        },
        {
          "duration": 0.023255813953488413,
          "durationTicks": 2,
          "midi": 42,
          "name": "F#2",
          "ticks": 866,
          "time": 10.069767441860465,
          "velocity": 0.5511811023622047
        },
        {
          "duration": 0.023255813953488413,
          "durationTicks": 2,
          "midi": 30,
          "name": "F#1",
          "ticks": 867,
          "time": 10.081395348837209,
          "velocity": 0.5433070866141733
        },
        {
          "duration": 0.023255813953488413,
          "durationTicks": 2,
          "midi": 31,
          "name": "G1",
          "ticks": 869,
          "time": 10.104651162790697,
          "velocity": 0.5511811023622047
        },
        {
          "duration": 0.011627906976745095,
          "durationTicks": 1,
          "midi": 34,
          "name": "A#1",
          "ticks": 871,
          "time": 10.127906976744185,
          "velocity": 0.5275590551181102
        },
        {
          "duration": 0.011627906976743319,
          "durationTicks": 1,
          "midi": 30,
          "name": "F#1",
          "ticks": 874,
          "time": 10.162790697674419,
          "velocity": 0.5511811023622047
        },
        {
          "duration": 0.011627906976745095,
          "durationTicks": 1,
          "midi": 34,
          "name": "A#1",
          "ticks": 875,
          "time": 10.174418604651162,
          "velocity": 0.5984251968503937
        },
        {
          "duration": 0.011627906976743319,
          "durationTicks": 1,
          "midi": 33,
          "name": "A1",
          "ticks": 876,
          "time": 10.186046511627907,
          "velocity": 0.5748031496062992
        },
        {
          "duration": 0.011627906976743319,
          "durationTicks": 1,
          "midi": 29,
          "name": "F1",
          "ticks": 880,
          "time": 10.232558139534884,
          "velocity": 0.5196850393700787
        },
        {
          "duration": 0.03488372093023351,
          "durationTicks": 3,
          "midi": 31,
          "name": "G1",
          "ticks": 881,
          "time": 10.244186046511627,
          "velocity": 0.5669291338582677
        },
        {
          "duration": 0.06976744186046524,
          "durationTicks": 6,
          "midi": 50,
          "name": "D3",
          "ticks": 882,
          "time": 10.255813953488373,
          "velocity": 0.2992125984251969
        },
        {
          "duration": 0.011627906976743319,
          "durationTicks": 1,
          "midi": 35,
          "name": "B1",
          "ticks": 884,
          "time": 10.279069767441861,
          "velocity": 0.5669291338582677
        },
        {
          "duration": 0.023255813953488413,
          "durationTicks": 2,
          "midi": 38,
          "name": "D2",
          "ticks": 885,
          "time": 10.290697674418604,
          "velocity": 0.49606299212598426
        },
        {
          "duration": 0.011627906976745095,
          "durationTicks": 1,
          "midi": 33,
          "name": "A1",
          "ticks": 887,
          "time": 10.313953488372093,
          "velocity": 0.5511811023622047
        },
        {
          "duration": 0.011627906976743319,
          "durationTicks": 1,
          "midi": 35,
          "name": "B1",
          "ticks": 888,
          "time": 10.325581395348838,
          "velocity": 0.6062992125984252
        },
        {
          "duration": 0.023255813953488413,
          "durationTicks": 2,
          "midi": 36,
          "name": "C2",
          "ticks": 889,
          "time": 10.337209302325581,
          "velocity": 0.5511811023622047
        },
        {
          "duration": 0.023255813953488413,
          "durationTicks": 2,
          "midi": 36,
          "name": "C2",
          "ticks": 892,
          "time": 10.372093023255815,
          "velocity": 0.5590551181102362
        },
        {
          "duration": 0.011627906976743319,
          "durationTicks": 1,
          "midi": 34,
          "name": "A#1",
          "ticks": 894,
          "time": 10.395348837209303,
          "velocity": 0.5118110236220472
        },
        {
          "duration": 0.011627906976745095,
          "durationTicks": 1,
          "midi": 41,
          "name": "F2",
          "ticks": 895,
          "time": 10.406976744186046,
          "velocity": 0.5433070866141733
        },
        {
          "duration": 0.06976744186046524,
          "durationTicks": 6,
          "midi": 63,
          "name": "D#4",
          "ticks": 895,
          "time": 10.406976744186046,
          "velocity": 0.33070866141732286
        },
        {
          "duration": 0.011627906976743319,
          "durationTicks": 1,
          "midi": 40,
          "name": "E2",
          "ticks": 896,
          "time": 10.418604651162791,
          "velocity": 0.5669291338582677
        },
        {
          "duration": 0.011627906976745095,
          "durationTicks": 1,
          "midi": 38,
          "name": "D2",
          "ticks": 897,
          "time": 10.430232558139535,
          "velocity": 0.5354330708661418
        },
        {
          "duration": 0.011627906976743319,
          "durationTicks": 1,
          "midi": 36,
          "name": "C2",
          "ticks": 898,
          "time": 10.44186046511628,
          "velocity": 0.5118110236220472
        },
        {
          "duration": 0.023255813953488413,
          "durationTicks": 2,
          "midi": 50,
          "name": "D3",
          "ticks": 898,
          "time": 10.44186046511628,
          "velocity": 0.33858267716535434
        },
        {
          "duration": 0.023255813953488413,
          "durationTicks": 2,
          "midi": 37,
          "name": "C#2",
          "ticks": 899,
          "time": 10.453488372093023,
          "velocity": 0.6220472440944882
        },
        {
          "duration": 0.04651162790697505,
          "durationTicks": 4,
          "midi": 53,
          "name": "F3",
          "ticks": 900,
          "time": 10.465116279069768,
          "velocity": 0.33070866141732286
        },
        {
          "duration": 0.011627906976745095,
          "durationTicks": 1,
          "midi": 36,
          "name": "C2",
          "ticks": 901,
          "time": 10.476744186046512,
          "velocity": 0.6456692913385826
        },
        {
          "duration": 0.011627906976743319,
          "durationTicks": 1,
          "midi": 35,
          "name": "B1",
          "ticks": 902,
          "time": 10.488372093023257,
          "velocity": 0.6614173228346457
        },
        {
          "duration": 0.023255813953488413,
          "durationTicks": 2,
          "midi": 36,
          "name": "C2",
          "ticks": 903,
          "time": 10.5,
          "velocity": 0.6692913385826772
        },
        {
          "duration": 0.023255813953488413,
          "durationTicks": 2,
          "midi": 50,
          "name": "D3",
          "ticks": 904,
          "time": 10.511627906976743,
          "velocity": 0.25196850393700787
        },
        {
          "duration": 0.011627906976743319,
          "durationTicks": 1,
          "midi": 35,
          "name": "B1",
          "ticks": 905,
          "time": 10.523255813953488,
          "velocity": 0.6299212598425197
        },
        {
          "duration": 0.05813953488372192,
          "durationTicks": 5,
          "midi": 36,
          "name": "C2",
          "ticks": 906,
          "time": 10.534883720930232,
          "velocity": 0.6692913385826772
        },
        {
          "duration": 0.03488372093023173,
          "durationTicks": 3,
          "midi": 50,
          "name": "D3",
          "ticks": 909,
          "time": 10.569767441860465,
          "velocity": 0.25196850393700787
        },
        {
          "duration": 0.011627906976743319,
          "durationTicks": 1,
          "midi": 35,
          "name": "B1",
          "ticks": 911,
          "time": 10.593023255813954,
          "velocity": 0.5984251968503937
        },
        {
          "duration": 0.011627906976745095,
          "durationTicks": 1,
          "midi": 34,
          "name": "A#1",
          "ticks": 912,
          "time": 10.604651162790697,
          "velocity": 0.5275590551181102
        },
        {
          "duration": 0.023255813953488413,
          "durationTicks": 2,
          "midi": 44,
          "name": "G#2",
          "ticks": 916,
          "time": 10.651162790697674,
          "velocity": 0.28346456692913385
        },
        {
          "duration": 0.03488372093023351,
          "durationTicks": 3,
          "midi": 34,
          "name": "A#1",
          "ticks": 922,
          "time": 10.720930232558139,
          "velocity": 0.5196850393700787
        },
        {
          "duration": 0.011627906976743319,
          "durationTicks": 1,
          "midi": 35,
          "name": "B1",
          "ticks": 927,
          "time": 10.779069767441861,
          "velocity": 0.5590551181102362
        },
        {
          "duration": 0.011627906976745095,
          "durationTicks": 1,
          "midi": 34,
          "name": "A#1",
          "ticks": 928,
          "time": 10.790697674418604,
          "velocity": 0.5433070866141733
        },
        {
          "duration": 0.011627906976745095,
          "durationTicks": 1,
          "midi": 38,
          "name": "D2",
          "ticks": 930,
          "time": 10.813953488372093,
          "velocity": 0.5590551181102362
        },
        {
          "duration": 0.011627906976743319,
          "durationTicks": 1,
          "midi": 35,
          "name": "B1",
          "ticks": 931,
          "time": 10.825581395348838,
          "velocity": 0.5905511811023622
        },
        {
          "duration": 0.011627906976745095,
          "durationTicks": 1,
          "midi": 34,
          "name": "A#1",
          "ticks": 932,
          "time": 10.837209302325581,
          "velocity": 0.5669291338582677
        },
        {
          "duration": 0.011627906976743319,
          "durationTicks": 1,
          "midi": 35,
          "name": "B1",
          "ticks": 933,
          "time": 10.848837209302326,
          "velocity": 0.5118110236220472
        },
        {
          "duration": 0.011627906976745095,
          "durationTicks": 1,
          "midi": 33,
          "name": "A1",
          "ticks": 936,
          "time": 10.883720930232558,
          "velocity": 0.5748031496062992
        },
        {
          "duration": 0.011627906976743319,
          "durationTicks": 1,
          "midi": 36,
          "name": "C2",
          "ticks": 937,
          "time": 10.895348837209303,
          "velocity": 0.5669291338582677
        },
        {
          "duration": 0.023255813953488413,
          "durationTicks": 2,
          "midi": 37,
          "name": "C#2",
          "ticks": 938,
          "time": 10.906976744186046,
          "velocity": 0.4645669291338583
        },
        {
          "duration": 0.011627906976745095,
          "durationTicks": 1,
          "midi": 35,
          "name": "B1",
          "ticks": 940,
          "time": 10.930232558139535,
          "velocity": 0.5590551181102362
        },
        {
          "duration": 0.04651162790697683,
          "durationTicks": 4,
          "midi": 64,
          "name": "E4",
          "ticks": 940,
          "time": 10.930232558139535,
          "velocity": 0.33070866141732286
        },
        {
          "duration": 0.023255813953488413,
          "durationTicks": 2,
          "midi": 34,
          "name": "A#1",
          "ticks": 941,
          "time": 10.94186046511628,
          "velocity": 0.5826771653543307
        },
        {
          "duration": 0.011627906976743319,
          "durationTicks": 1,
          "midi": 48,
          "name": "C3",
          "ticks": 941,
          "time": 10.94186046511628,
          "velocity": 0.5905511811023622
        },
        {
          "duration": 0.011627906976745095,
          "durationTicks": 1,
          "midi": 45,
          "name": "A2",
          "ticks": 942,
          "time": 10.953488372093023,
          "velocity": 0.6062992125984252
        },
        {
          "duration": 0.03488372093023351,
          "durationTicks": 3,
          "midi": 50,
          "name": "D3",
          "ticks": 942,
          "time": 10.953488372093023,
          "velocity": 0.5748031496062992
        },
        {
          "duration": 0.058139534883720145,
          "durationTicks": 5,
          "midi": 70,
          "name": "A#4",
          "ticks": 942,
          "time": 10.953488372093023,
          "velocity": 0.25196850393700787
        },
        {
          "duration": 0.011627906976743319,
          "durationTicks": 1,
          "midi": 31,
          "name": "G1",
          "ticks": 943,
          "time": 10.965116279069768,
          "velocity": 0.5275590551181102
        },
        {
          "duration": 0.011627906976743319,
          "durationTicks": 1,
          "midi": 44,
          "name": "G#2",
          "ticks": 943,
          "time": 10.965116279069768,
          "velocity": 0.5669291338582677
        },
        {
          "duration": 0.011627906976745095,
          "durationTicks": 1,
          "midi": 22,
          "name": "A#0",
          "ticks": 944,
          "time": 10.976744186046512,
          "velocity": 0.5275590551181102
        },
        {
          "duration": 0.011627906976745095,
          "durationTicks": 1,
          "midi": 42,
          "name": "F#2",
          "ticks": 944,
          "time": 10.976744186046512,
          "velocity": 0.6062992125984252
        },
        {
          "duration": 0.011627906976743319,
          "durationTicks": 1,
          "midi": 38,
          "name": "D2",
          "ticks": 945,
          "time": 10.988372093023257,
          "velocity": 0.6377952755905512
        },
        {
          "duration": 0.011627906976743319,
          "durationTicks": 1,
          "midi": 49,
          "name": "C#3",
          "ticks": 945,
          "time": 10.988372093023257,
          "velocity": 0.5275590551181102
        },
        {
          "duration": 0.011627906976743319,
          "durationTicks": 1,
          "midi": 32,
          "name": "G#1",
          "ticks": 946,
          "time": 11,
          "velocity": 0.6062992125984252
        },
        {
          "duration": 0.023255813953488413,
          "durationTicks": 2,
          "midi": 48,
          "name": "C3",
          "ticks": 946,
          "time": 11,
          "velocity": 0.5275590551181102
        },
        {
          "duration": 0.023255813953488413,
          "durationTicks": 2,
          "midi": 31,
          "name": "G1",
          "ticks": 947,
          "time": 11.011627906976743,
          "velocity": 0.6850393700787402
        },
        {
          "duration": 0.023255813953488413,
          "durationTicks": 2,
          "midi": 57,
          "name": "A3",
          "ticks": 947,
          "time": 11.011627906976743,
          "velocity": 0.3858267716535433
        },
        {
          "duration": 0.09302325581395365,
          "durationTicks": 8,
          "midi": 62,
          "name": "D4",
          "ticks": 947,
          "time": 11.011627906976743,
          "velocity": 0.3228346456692913
        },
        {
          "duration": 0.011627906976745095,
          "durationTicks": 1,
          "midi": 33,
          "name": "A1",
          "ticks": 949,
          "time": 11.034883720930232,
          "velocity": 0.7086614173228346
        },
        {
          "duration": 0.023255813953488413,
          "durationTicks": 2,
          "midi": 56,
          "name": "G#3",
          "ticks": 949,
          "time": 11.034883720930232,
          "velocity": 0.3937007874015748
        },
        {
          "duration": 0.011627906976743319,
          "durationTicks": 1,
          "midi": 35,
          "name": "B1",
          "ticks": 950,
          "time": 11.046511627906977,
          "velocity": 0.7086614173228346
        },
        {
          "duration": 0.011627906976745095,
          "durationTicks": 1,
          "midi": 37,
          "name": "C#2",
          "ticks": 951,
          "time": 11.05813953488372,
          "velocity": 0.6535433070866141
        },
        {
          "duration": 0.023255813953488413,
          "durationTicks": 2,
          "midi": 55,
          "name": "G3",
          "ticks": 951,
          "time": 11.05813953488372,
          "velocity": 0.3543307086614173
        },
        {
          "duration": 0.011627906976743319,
          "durationTicks": 1,
          "midi": 36,
          "name": "C2",
          "ticks": 952,
          "time": 11.069767441860465,
          "velocity": 0.6220472440944882
        },
        {
          "duration": 0.011627906976745095,
          "durationTicks": 1,
          "midi": 34,
          "name": "A#1",
          "ticks": 953,
          "time": 11.081395348837209,
          "velocity": 0.6220472440944882
        },
        {
          "duration": 0.011627906976743319,
          "durationTicks": 1,
          "midi": 35,
          "name": "B1",
          "ticks": 954,
          "time": 11.093023255813954,
          "velocity": 0.6377952755905512
        },
        {
          "duration": 0.023255813953488413,
          "durationTicks": 2,
          "midi": 56,
          "name": "G#3",
          "ticks": 954,
          "time": 11.093023255813954,
          "velocity": 0.25984251968503935
        },
        {
          "duration": 0.011627906976745095,
          "durationTicks": 1,
          "midi": 36,
          "name": "C2",
          "ticks": 955,
          "time": 11.104651162790697,
          "velocity": 0.6220472440944882
        },
        {
          "duration": 0.011627906976743319,
          "durationTicks": 1,
          "midi": 35,
          "name": "B1",
          "ticks": 956,
          "time": 11.116279069767442,
          "velocity": 0.5669291338582677
        },
        {
          "duration": 0.011627906976745095,
          "durationTicks": 1,
          "midi": 33,
          "name": "A1",
          "ticks": 957,
          "time": 11.127906976744185,
          "velocity": 0.5590551181102362
        },
        {
          "duration": 0.011627906976743319,
          "durationTicks": 1,
          "midi": 34,
          "name": "A#1",
          "ticks": 958,
          "time": 11.13953488372093,
          "velocity": 0.5433070866141733
        },
        {
          "duration": 0.03488372093023173,
          "durationTicks": 3,
          "midi": 62,
          "name": "D4",
          "ticks": 958,
          "time": 11.13953488372093,
          "velocity": 0.13385826771653545
        },
        {
          "duration": 0.011627906976745095,
          "durationTicks": 1,
          "midi": 41,
          "name": "F2",
          "ticks": 959,
          "time": 11.151162790697674,
          "velocity": 0.5511811023622047
        },
        {
          "duration": 0.023255813953488413,
          "durationTicks": 2,
          "midi": 42,
          "name": "F#2",
          "ticks": 960,
          "time": 11.162790697674419,
          "velocity": 0.5511811023622047
        },
        {
          "duration": 0.023255813953488413,
          "durationTicks": 2,
          "midi": 30,
          "name": "F#1",
          "ticks": 961,
          "time": 11.174418604651162,
          "velocity": 0.5354330708661418
        },
        {
          "duration": 0.023255813953488413,
          "durationTicks": 2,
          "midi": 31,
          "name": "G1",
          "ticks": 963,
          "time": 11.19767441860465,
          "velocity": 0.5433070866141733
        },
        {
          "duration": 0.011627906976745095,
          "durationTicks": 1,
          "midi": 34,
          "name": "A#1",
          "ticks": 965,
          "time": 11.220930232558139,
          "velocity": 0.5196850393700787
        },
        {
          "duration": 0.023255813953488413,
          "durationTicks": 2,
          "midi": 45,
          "name": "A2",
          "ticks": 966,
          "time": 11.232558139534884,
          "velocity": 0.4094488188976378
        },
        {
          "duration": 0.011627906976743319,
          "durationTicks": 1,
          "midi": 33,
          "name": "A1",
          "ticks": 968,
          "time": 11.255813953488373,
          "velocity": 0.5511811023622047
        },
        {
          "duration": 0.011627906976745095,
          "durationTicks": 1,
          "midi": 34,
          "name": "A#1",
          "ticks": 969,
          "time": 11.267441860465116,
          "velocity": 0.5984251968503937
        },
        {
          "duration": 0.011627906976743319,
          "durationTicks": 1,
          "midi": 33,
          "name": "A1",
          "ticks": 970,
          "time": 11.279069767441861,
          "velocity": 0.5748031496062992
        },
        {
          "duration": 0.011627906976743319,
          "durationTicks": 1,
          "midi": 29,
          "name": "F1",
          "ticks": 974,
          "time": 11.325581395348838,
          "velocity": 0.5118110236220472
        },
        {
          "duration": 0.03488372093023351,
          "durationTicks": 3,
          "midi": 31,
          "name": "G1",
          "ticks": 975,
          "time": 11.337209302325581,
          "velocity": 0.5669291338582677
        },
        {
          "duration": 0.058139534883720145,
          "durationTicks": 5,
          "midi": 50,
          "name": "D3",
          "ticks": 976,
          "time": 11.348837209302326,
          "velocity": 0.2992125984251969
        },
        {
          "duration": 0.011627906976743319,
          "durationTicks": 1,
          "midi": 35,
          "name": "B1",
          "ticks": 978,
          "time": 11.372093023255815,
          "velocity": 0.5748031496062992
        },
        {
          "duration": 0.023255813953488413,
          "durationTicks": 2,
          "midi": 38,
          "name": "D2",
          "ticks": 979,
          "time": 11.383720930232558,
          "velocity": 0.49606299212598426
        },
        {
          "duration": 0.011627906976745095,
          "durationTicks": 1,
          "midi": 33,
          "name": "A1",
          "ticks": 981,
          "time": 11.406976744186046,
          "velocity": 0.5590551181102362
        },
        {
          "duration": 0.03488372093023173,
          "durationTicks": 3,
          "midi": 35,
          "name": "B1",
          "ticks": 982,
          "time": 11.418604651162791,
          "velocity": 0.6141732283464567
        },
        {
          "duration": 0.011627906976743319,
          "durationTicks": 1,
          "midi": 36,
          "name": "C2",
          "ticks": 986,
          "time": 11.465116279069768,
          "velocity": 0.5590551181102362
        },
        {
          "duration": 0.011627906976745095,
          "durationTicks": 1,
          "midi": 35,
          "name": "B1",
          "ticks": 987,
          "time": 11.476744186046512,
          "velocity": 0.5590551181102362
        },
        {
          "duration": 0.011627906976743319,
          "durationTicks": 1,
          "midi": 34,
          "name": "A#1",
          "ticks": 988,
          "time": 11.488372093023257,
          "velocity": 0.5196850393700787
        },
        {
          "duration": 0.011627906976743319,
          "durationTicks": 1,
          "midi": 41,
          "name": "F2",
          "ticks": 989,
          "time": 11.5,
          "velocity": 0.5433070866141733
        },
        {
          "duration": 0.06976744186046524,
          "durationTicks": 6,
          "midi": 63,
          "name": "D#4",
          "ticks": 989,
          "time": 11.5,
          "velocity": 0.33070866141732286
        },
        {
          "duration": 0.011627906976745095,
          "durationTicks": 1,
          "midi": 40,
          "name": "E2",
          "ticks": 990,
          "time": 11.511627906976743,
          "velocity": 0.5669291338582677
        },
        {
          "duration": 0.011627906976743319,
          "durationTicks": 1,
          "midi": 38,
          "name": "D2",
          "ticks": 991,
          "time": 11.523255813953488,
          "velocity": 0.5354330708661418
        },
        {
          "duration": 0.011627906976745095,
          "durationTicks": 1,
          "midi": 36,
          "name": "C2",
          "ticks": 992,
          "time": 11.534883720930232,
          "velocity": 0.5118110236220472
        },
        {
          "duration": 0.023255813953488413,
          "durationTicks": 2,
          "midi": 50,
          "name": "D3",
          "ticks": 992,
          "time": 11.534883720930232,
          "velocity": 0.33858267716535434
        },
        {
          "duration": 0.023255813953488413,
          "durationTicks": 2,
          "midi": 37,
          "name": "C#2",
          "ticks": 993,
          "time": 11.546511627906977,
          "velocity": 0.6299212598425197
        },
        {
          "duration": 0.04651162790697683,
          "durationTicks": 4,
          "midi": 53,
          "name": "F3",
          "ticks": 994,
          "time": 11.55813953488372,
          "velocity": 0.33070866141732286
        },
        {
          "duration": 0.011627906976743319,
          "durationTicks": 1,
          "midi": 36,
          "name": "C2",
          "ticks": 995,
          "time": 11.569767441860465,
          "velocity": 0.6456692913385826
        },
        {
          "duration": 0.011627906976745095,
          "durationTicks": 1,
          "midi": 35,
          "name": "B1",
          "ticks": 996,
          "time": 11.581395348837209,
          "velocity": 0.6614173228346457
        },
        {
          "duration": 0.023255813953488413,
          "durationTicks": 2,
          "midi": 36,
          "name": "C2",
          "ticks": 997,
          "time": 11.593023255813954,
          "velocity": 0.6614173228346457
        },
        {
          "duration": 0.011627906976743319,
          "durationTicks": 1,
          "midi": 35,
          "name": "B1",
          "ticks": 999,
          "time": 11.616279069767442,
          "velocity": 0.6377952755905512
        },
        {
          "duration": 0.05813953488372192,
          "durationTicks": 5,
          "midi": 36,
          "name": "C2",
          "ticks": 1000,
          "time": 11.627906976744185,
          "velocity": 0.6692913385826772
        },
        {
          "duration": 0.03488372093023173,
          "durationTicks": 3,
          "midi": 50,
          "name": "D3",
          "ticks": 1003,
          "time": 11.662790697674419,
          "velocity": 0.2440944881889764
        },
        {
          "duration": 0.011627906976743319,
          "durationTicks": 1,
          "midi": 35,
          "name": "B1",
          "ticks": 1005,
          "time": 11.686046511627907,
          "velocity": 0.5905511811023622
        },
        {
          "duration": 0.011627906976745095,
          "durationTicks": 1,
          "midi": 34,
          "name": "A#1",
          "ticks": 1006,
          "time": 11.69767441860465,
          "velocity": 0.5196850393700787
        },
        {
          "duration": 0.023255813953488413,
          "durationTicks": 2,
          "midi": 44,
          "name": "G#2",
          "ticks": 1010,
          "time": 11.744186046511627,
          "velocity": 0.2755905511811024
        },
        {
          "duration": 0.023255813953488413,
          "durationTicks": 2,
          "midi": 34,
          "name": "A#1",
          "ticks": 1016,
          "time": 11.813953488372093,
          "velocity": 0.5118110236220472
        },
        {
          "duration": 0.011627906976743319,
          "durationTicks": 1,
          "midi": 35,
          "name": "B1",
          "ticks": 1021,
          "time": 11.872093023255815,
          "velocity": 0.5511811023622047
        },
        {
          "duration": 0.011627906976745095,
          "durationTicks": 1,
          "midi": 34,
          "name": "A#1",
          "ticks": 1022,
          "time": 11.883720930232558,
          "velocity": 0.5354330708661418
        },
        {
          "duration": 0.011627906976745095,
          "durationTicks": 1,
          "midi": 38,
          "name": "D2",
          "ticks": 1024,
          "time": 11.906976744186046,
          "velocity": 0.5669291338582677
        },
        {
          "duration": 0.011627906976743319,
          "durationTicks": 1,
          "midi": 35,
          "name": "B1",
          "ticks": 1025,
          "time": 11.918604651162791,
          "velocity": 0.5826771653543307
        },
        {
          "duration": 0.011627906976745095,
          "durationTicks": 1,
          "midi": 34,
          "name": "A#1",
          "ticks": 1026,
          "time": 11.930232558139535,
          "velocity": 0.5669291338582677
        },
        {
          "duration": 0.011627906976745095,
          "durationTicks": 1,
          "midi": 34,
          "name": "A#1",
          "ticks": 1030,
          "time": 11.976744186046512,
          "velocity": 0.5748031496062992
        },
        {
          "duration": 0.011627906976743319,
          "durationTicks": 1,
          "midi": 36,
          "name": "C2",
          "ticks": 1031,
          "time": 11.988372093023257,
          "velocity": 0.5590551181102362
        },
        {
          "duration": 0.011627906976743319,
          "durationTicks": 1,
          "midi": 35,
          "name": "B1",
          "ticks": 1034,
          "time": 12.023255813953488,
          "velocity": 0.5590551181102362
        },
        {
          "duration": 0.04651162790697683,
          "durationTicks": 4,
          "midi": 64,
          "name": "E4",
          "ticks": 1034,
          "time": 12.023255813953488,
          "velocity": 0.33070866141732286
        },
        {
          "duration": 0.011627906976745095,
          "durationTicks": 1,
          "midi": 34,
          "name": "A#1",
          "ticks": 1035,
          "time": 12.034883720930232,
          "velocity": 0.5826771653543307
        },
        {
          "duration": 0.011627906976745095,
          "durationTicks": 1,
          "midi": 48,
          "name": "C3",
          "ticks": 1035,
          "time": 12.034883720930232,
          "velocity": 0.5984251968503937
        },
        {
          "duration": 0.011627906976743319,
          "durationTicks": 1,
          "midi": 45,
          "name": "A2",
          "ticks": 1036,
          "time": 12.046511627906977,
          "velocity": 0.6062992125984252
        },
        {
          "duration": 0.03488372093023173,
          "durationTicks": 3,
          "midi": 50,
          "name": "D3",
          "ticks": 1036,
          "time": 12.046511627906977,
          "velocity": 0.5748031496062992
        },
        {
          "duration": 0.058139534883720145,
          "durationTicks": 5,
          "midi": 70,
          "name": "A#4",
          "ticks": 1036,
          "time": 12.046511627906977,
          "velocity": 0.25196850393700787
        },
        {
          "duration": 0.011627906976745095,
          "durationTicks": 1,
          "midi": 31,
          "name": "G1",
          "ticks": 1037,
          "time": 12.05813953488372,
          "velocity": 0.5196850393700787
        },
        {
          "duration": 0.011627906976745095,
          "durationTicks": 1,
          "midi": 44,
          "name": "G#2",
          "ticks": 1037,
          "time": 12.05813953488372,
          "velocity": 0.5669291338582677
        },
        {
          "duration": 0.011627906976743319,
          "durationTicks": 1,
          "midi": 21,
          "name": "A0",
          "ticks": 1038,
          "time": 12.069767441860465,
          "velocity": 0.5196850393700787
        },
        {
          "duration": 0.011627906976743319,
          "durationTicks": 1,
          "midi": 42,
          "name": "F#2",
          "ticks": 1038,
          "time": 12.069767441860465,
          "velocity": 0.6062992125984252
        },
        {
          "duration": 0.011627906976745095,
          "durationTicks": 1,
          "midi": 38,
          "name": "D2",
          "ticks": 1039,
          "time": 12.081395348837209,
          "velocity": 0.6377952755905512
        },
        {
          "duration": 0.011627906976745095,
          "durationTicks": 1,
          "midi": 49,
          "name": "C#3",
          "ticks": 1039,
          "time": 12.081395348837209,
          "velocity": 0.5275590551181102
        },
        {
          "duration": 0.011627906976743319,
          "durationTicks": 1,
          "midi": 32,
          "name": "G#1",
          "ticks": 1040,
          "time": 12.093023255813954,
          "velocity": 0.5984251968503937
        },
        {
          "duration": 0.011627906976743319,
          "durationTicks": 1,
          "midi": 48,
          "name": "C3",
          "ticks": 1040,
          "time": 12.093023255813954,
          "velocity": 0.5275590551181102
        },
        {
          "duration": 0.023255813953488413,
          "durationTicks": 2,
          "midi": 31,
          "name": "G1",
          "ticks": 1041,
          "time": 12.104651162790697,
          "velocity": 0.6850393700787402
        },
        {
          "duration": 0.09302325581395365,
          "durationTicks": 8,
          "midi": 62,
          "name": "D4",
          "ticks": 1041,
          "time": 12.104651162790697,
          "velocity": 0.3228346456692913
        },
        {
          "duration": 0.03488372093023173,
          "durationTicks": 3,
          "midi": 56,
          "name": "G#3",
          "ticks": 1042,
          "time": 12.116279069767442,
          "velocity": 0.3937007874015748
        },
        {
          "duration": 0.011627906976745095,
          "durationTicks": 1,
          "midi": 33,
          "name": "A1",
          "ticks": 1043,
          "time": 12.127906976744185,
          "velocity": 0.7086614173228346
        },
        {
          "duration": 0.011627906976743319,
          "durationTicks": 1,
          "midi": 35,
          "name": "B1",
          "ticks": 1044,
          "time": 12.13953488372093,
          "velocity": 0.7086614173228346
        },
        {
          "duration": 0.011627906976745095,
          "durationTicks": 1,
          "midi": 37,
          "name": "C#2",
          "ticks": 1045,
          "time": 12.151162790697674,
          "velocity": 0.6535433070866141
        },
        {
          "duration": 0.023255813953488413,
          "durationTicks": 2,
          "midi": 55,
          "name": "G3",
          "ticks": 1045,
          "time": 12.151162790697674,
          "velocity": 0.3464566929133858
        },
        {
          "duration": 0.011627906976743319,
          "durationTicks": 1,
          "midi": 36,
          "name": "C2",
          "ticks": 1046,
          "time": 12.162790697674419,
          "velocity": 0.6220472440944882
        },
        {
          "duration": 0.011627906976745095,
          "durationTicks": 1,
          "midi": 34,
          "name": "A#1",
          "ticks": 1047,
          "time": 12.174418604651162,
          "velocity": 0.6220472440944882
        },
        {
          "duration": 0.011627906976743319,
          "durationTicks": 1,
          "midi": 35,
          "name": "B1",
          "ticks": 1048,
          "time": 12.186046511627907,
          "velocity": 0.6377952755905512
        },
        {
          "duration": 0.023255813953488413,
          "durationTicks": 2,
          "midi": 56,
          "name": "G#3",
          "ticks": 1048,
          "time": 12.186046511627907,
          "velocity": 0.25984251968503935
        },
        {
          "duration": 0.011627906976745095,
          "durationTicks": 1,
          "midi": 36,
          "name": "C2",
          "ticks": 1049,
          "time": 12.19767441860465,
          "velocity": 0.6220472440944882
        },
        {
          "duration": 0.011627906976743319,
          "durationTicks": 1,
          "midi": 35,
          "name": "B1",
          "ticks": 1050,
          "time": 12.209302325581396,
          "velocity": 0.5669291338582677
        },
        {
          "duration": 0.011627906976745095,
          "durationTicks": 1,
          "midi": 33,
          "name": "A1",
          "ticks": 1051,
          "time": 12.220930232558139,
          "velocity": 0.5590551181102362
        },
        {
          "duration": 0.011627906976743319,
          "durationTicks": 1,
          "midi": 34,
          "name": "A#1",
          "ticks": 1052,
          "time": 12.232558139534884,
          "velocity": 0.5354330708661418
        },
        {
          "duration": 0.03488372093023173,
          "durationTicks": 3,
          "midi": 62,
          "name": "D4",
          "ticks": 1052,
          "time": 12.232558139534884,
          "velocity": 0.13385826771653545
        },
        {
          "duration": 0.011627906976745095,
          "durationTicks": 1,
          "midi": 41,
          "name": "F2",
          "ticks": 1053,
          "time": 12.244186046511627,
          "velocity": 0.5511811023622047
        },
        {
          "duration": 0.023255813953488413,
          "durationTicks": 2,
          "midi": 42,
          "name": "F#2",
          "ticks": 1054,
          "time": 12.255813953488373,
          "velocity": 0.5511811023622047
        },
        {
          "duration": 0.023255813953488413,
          "durationTicks": 2,
          "midi": 30,
          "name": "F#1",
          "ticks": 1055,
          "time": 12.267441860465116,
          "velocity": 0.5275590551181102
        },
        {
          "duration": 0.023255813953488413,
          "durationTicks": 2,
          "midi": 31,
          "name": "G1",
          "ticks": 1057,
          "time": 12.290697674418604,
          "velocity": 0.5433070866141733
        },
        {
          "duration": 0.03488372093023173,
          "durationTicks": 3,
          "midi": 78,
          "name": "F#5",
          "ticks": 1058,
          "time": 12.30232558139535,
          "velocity": 0.23622047244094488
        },
        {
          "duration": 0.04651162790697683,
          "durationTicks": 4,
          "midi": 83,
          "name": "B5",
          "ticks": 1058,
          "time": 12.30232558139535,
          "velocity": 0.25196850393700787
        },
        {
          "duration": 0.04651162790697683,
          "durationTicks": 4,
          "midi": 87,
          "name": "D#6",
          "ticks": 1058,
          "time": 12.30232558139535,
          "velocity": 0.1968503937007874
        },
        {
          "duration": 0.058139534883720145,
          "durationTicks": 5,
          "midi": 92,
          "name": "G#6",
          "ticks": 1058,
          "time": 12.30232558139535,
          "velocity": 0.15748031496062992
        },
        {
          "duration": 0.04651162790697683,
          "durationTicks": 4,
          "midi": 94,
          "name": "A#6",
          "ticks": 1058,
          "time": 12.30232558139535,
          "velocity": 0.18110236220472442
        },
        {
          "duration": 0.058139534883720145,
          "durationTicks": 5,
          "midi": 97,
          "name": "C#7",
          "ticks": 1058,
          "time": 12.30232558139535,
          "velocity": 0.15748031496062992
        },
        {
          "duration": 0.058139534883720145,
          "durationTicks": 5,
          "midi": 98,
          "name": "D7",
          "ticks": 1058,
          "time": 12.30232558139535,
          "velocity": 0.1968503937007874
        },
        {
          "duration": 0.06976744186046524,
          "durationTicks": 6,
          "midi": 99,
          "name": "D#7",
          "ticks": 1058,
          "time": 12.30232558139535,
          "velocity": 0.2440944881889764
        },
        {
          "duration": 0.04651162790697683,
          "durationTicks": 4,
          "midi": 100,
          "name": "E7",
          "ticks": 1058,
          "time": 12.30232558139535,
          "velocity": 0.23622047244094488
        },
        {
          "duration": 0.011627906976745095,
          "durationTicks": 1,
          "midi": 34,
          "name": "A#1",
          "ticks": 1059,
          "time": 12.313953488372093,
          "velocity": 0.5196850393700787
        },
        {
          "duration": 0.10465116279069875,
          "durationTicks": 9,
          "midi": 60,
          "name": "C4",
          "ticks": 1059,
          "time": 12.313953488372093,
          "velocity": 0.2204724409448819
        },
        {
          "duration": 0.04651162790697683,
          "durationTicks": 4,
          "midi": 88,
          "name": "E6",
          "ticks": 1059,
          "time": 12.313953488372093,
          "velocity": 0.16535433070866143
        },
        {
          "duration": 0.05813953488372192,
          "durationTicks": 5,
          "midi": 89,
          "name": "F6",
          "ticks": 1059,
          "time": 12.313953488372093,
          "velocity": 0.2283464566929134
        },
        {
          "duration": 0.03488372093023351,
          "durationTicks": 3,
          "midi": 96,
          "name": "C7",
          "ticks": 1059,
          "time": 12.313953488372093,
          "velocity": 0.14960629921259844
        },
        {
          "duration": 0.03488372093023351,
          "durationTicks": 3,
          "midi": 102,
          "name": "F#7",
          "ticks": 1059,
          "time": 12.313953488372093,
          "velocity": 0.14173228346456693
        },
        {
          "duration": 0.04651162790697683,
          "durationTicks": 4,
          "midi": 82,
          "name": "A#5",
          "ticks": 1060,
          "time": 12.325581395348838,
          "velocity": 0.11811023622047244
        },
        {
          "duration": 0.03488372093023351,
          "durationTicks": 3,
          "midi": 90,
          "name": "F#6",
          "ticks": 1061,
          "time": 12.337209302325581,
          "velocity": 0.09448818897637795
        },
        {
          "duration": 0.011627906976743319,
          "durationTicks": 1,
          "midi": 33,
          "name": "A1",
          "ticks": 1062,
          "time": 12.348837209302326,
          "velocity": 0.5433070866141733
        },
        {
          "duration": 0.03488372093023173,
          "durationTicks": 3,
          "midi": 84,
          "name": "C6",
          "ticks": 1062,
          "time": 12.348837209302326,
          "velocity": 0.13385826771653545
        },
        {
          "duration": 0.04651162790697683,
          "durationTicks": 4,
          "midi": 93,
          "name": "A6",
          "ticks": 1062,
          "time": 12.348837209302326,
          "velocity": 0.12598425196850394
        },
        {
          "duration": 0.011627906976745095,
          "durationTicks": 1,
          "midi": 34,
          "name": "A#1",
          "ticks": 1063,
          "time": 12.36046511627907,
          "velocity": 0.5826771653543307
        },
        {
          "duration": 0.011627906976743319,
          "durationTicks": 1,
          "midi": 33,
          "name": "A1",
          "ticks": 1064,
          "time": 12.372093023255815,
          "velocity": 0.5511811023622047
        },
        {
          "duration": 0.023255813953488413,
          "durationTicks": 2,
          "midi": 41,
          "name": "F2",
          "ticks": 1066,
          "time": 12.395348837209303,
          "velocity": 0.3937007874015748
        },
        {
          "duration": 0.023255813953488413,
          "durationTicks": 2,
          "midi": 31,
          "name": "G1",
          "ticks": 1069,
          "time": 12.430232558139535,
          "velocity": 0.5511811023622047
        },
        {
          "duration": 0.03488372093023173,
          "durationTicks": 3,
          "midi": 50,
          "name": "D3",
          "ticks": 1070,
          "time": 12.44186046511628,
          "velocity": 0.29133858267716534
        },
        {
          "duration": 0.011627906976745095,
          "durationTicks": 1,
          "midi": 32,
          "name": "G#1",
          "ticks": 1071,
          "time": 12.453488372093023,
          "velocity": 0.5590551181102362
        },
        {
          "duration": 0.011627906976743319,
          "durationTicks": 1,
          "midi": 35,
          "name": "B1",
          "ticks": 1072,
          "time": 12.465116279069768,
          "velocity": 0.5748031496062992
        },
        {
          "duration": 0.011627906976743319,
          "durationTicks": 1,
          "midi": 33,
          "name": "A1",
          "ticks": 1075,
          "time": 12.5,
          "velocity": 0.5433070866141733
        },
        {
          "duration": 0.03488372093023351,
          "durationTicks": 3,
          "midi": 35,
          "name": "B1",
          "ticks": 1076,
          "time": 12.511627906976743,
          "velocity": 0.6062992125984252
        },
        {
          "duration": 0.011627906976745095,
          "durationTicks": 1,
          "midi": 37,
          "name": "C#2",
          "ticks": 1080,
          "time": 12.55813953488372,
          "velocity": 0.5590551181102362
        },
        {
          "duration": 0.011627906976743319,
          "durationTicks": 1,
          "midi": 35,
          "name": "B1",
          "ticks": 1081,
          "time": 12.569767441860465,
          "velocity": 0.5669291338582677
        },
        {
          "duration": 0.011627906976745095,
          "durationTicks": 1,
          "midi": 33,
          "name": "A1",
          "ticks": 1082,
          "time": 12.581395348837209,
          "velocity": 0.5196850393700787
        },
        {
          "duration": 0.011627906976743319,
          "durationTicks": 1,
          "midi": 41,
          "name": "F2",
          "ticks": 1083,
          "time": 12.593023255813954,
          "velocity": 0.5433070866141733
        },
        {
          "duration": 0.09302325581395365,
          "durationTicks": 8,
          "midi": 63,
          "name": "D#4",
          "ticks": 1083,
          "time": 12.593023255813954,
          "velocity": 0.33070866141732286
        },
        {
          "duration": 0.011627906976745095,
          "durationTicks": 1,
          "midi": 40,
          "name": "E2",
          "ticks": 1084,
          "time": 12.604651162790697,
          "velocity": 0.5669291338582677
        },
        {
          "duration": 0.011627906976743319,
          "durationTicks": 1,
          "midi": 37,
          "name": "C#2",
          "ticks": 1085,
          "time": 12.616279069767442,
          "velocity": 0.5511811023622047
        },
        {
          "duration": 0.011627906976745095,
          "durationTicks": 1,
          "midi": 36,
          "name": "C2",
          "ticks": 1086,
          "time": 12.627906976744185,
          "velocity": 0.5118110236220472
        },
        {
          "duration": 0.023255813953488413,
          "durationTicks": 2,
          "midi": 50,
          "name": "D3",
          "ticks": 1086,
          "time": 12.627906976744185,
          "velocity": 0.33070866141732286
        },
        {
          "duration": 0.023255813953488413,
          "durationTicks": 2,
          "midi": 37,
          "name": "C#2",
          "ticks": 1087,
          "time": 12.63953488372093,
          "velocity": 0.6377952755905512
        },
        {
          "duration": 0.04651162790697683,
          "durationTicks": 4,
          "midi": 53,
          "name": "F3",
          "ticks": 1088,
          "time": 12.651162790697674,
          "velocity": 0.33070866141732286
        },
        {
          "duration": 0.023255813953488413,
          "durationTicks": 2,
          "midi": 35,
          "name": "B1",
          "ticks": 1089,
          "time": 12.662790697674419,
          "velocity": 0.6614173228346457
        },
        {
          "duration": 0.023255813953488413,
          "durationTicks": 2,
          "midi": 36,
          "name": "C2",
          "ticks": 1091,
          "time": 12.686046511627907,
          "velocity": 0.6614173228346457
        },
        {
          "duration": 0.023255813953488413,
          "durationTicks": 2,
          "midi": 50,
          "name": "D3",
          "ticks": 1092,
          "time": 12.69767441860465,
          "velocity": 0.25196850393700787
        },
        {
          "duration": 0.011627906976743319,
          "durationTicks": 1,
          "midi": 35,
          "name": "B1",
          "ticks": 1093,
          "time": 12.709302325581396,
          "velocity": 0.6456692913385826
        },
        {
          "duration": 0.05813953488372192,
          "durationTicks": 5,
          "midi": 36,
          "name": "C2",
          "ticks": 1094,
          "time": 12.720930232558139,
          "velocity": 0.6771653543307087
        },
        {
          "duration": 0.03488372093023173,
          "durationTicks": 3,
          "midi": 50,
          "name": "D3",
          "ticks": 1097,
          "time": 12.755813953488373,
          "velocity": 0.2440944881889764
        },
        {
          "duration": 0.011627906976743319,
          "durationTicks": 1,
          "midi": 35,
          "name": "B1",
          "ticks": 1099,
          "time": 12.779069767441861,
          "velocity": 0.5905511811023622
        },
        {
          "duration": 0.011627906976745095,
          "durationTicks": 1,
          "midi": 34,
          "name": "A#1",
          "ticks": 1100,
          "time": 12.790697674418604,
          "velocity": 0.5196850393700787
        },
        {
          "duration": 0.011627906976743319,
          "durationTicks": 1,
          "midi": 35,
          "name": "B1",
          "ticks": 1103,
          "time": 12.825581395348838,
          "velocity": 0.5118110236220472
        },
        {
          "duration": 0.023255813953488413,
          "durationTicks": 2,
          "midi": 44,
          "name": "G#2",
          "ticks": 1104,
          "time": 12.837209302325581,
          "velocity": 0.29133858267716534
        },
        {
          "duration": 0.023255813953488413,
          "durationTicks": 2,
          "midi": 30,
          "name": "F#1",
          "ticks": 1105,
          "time": 12.848837209302326,
          "velocity": 0.3937007874015748
        },
        {
          "duration": 0.04651162790697683,
          "durationTicks": 4,
          "midi": 78,
          "name": "F#5",
          "ticks": 1105,
          "time": 12.848837209302326,
          "velocity": 0.25196850393700787
        },
        {
          "duration": 0.03488372093023173,
          "durationTicks": 3,
          "midi": 80,
          "name": "G#5",
          "ticks": 1105,
          "time": 12.848837209302326,
          "velocity": 0.15748031496062992
        },
        {
          "duration": 0.058139534883720145,
          "durationTicks": 5,
          "midi": 83,
          "name": "B5",
          "ticks": 1105,
          "time": 12.848837209302326,
          "velocity": 0.23622047244094488
        },
        {
          "duration": 0.058139534883720145,
          "durationTicks": 5,
          "midi": 87,
          "name": "D#6",
          "ticks": 1105,
          "time": 12.848837209302326,
          "velocity": 0.25984251968503935
        },
        {
          "duration": 0.11627906976744207,
          "durationTicks": 10,
          "midi": 89,
          "name": "F6",
          "ticks": 1105,
          "time": 12.848837209302326,
          "velocity": 0.28346456692913385
        },
        {
          "duration": 0.04651162790697683,
          "durationTicks": 4,
          "midi": 93,
          "name": "A6",
          "ticks": 1105,
          "time": 12.848837209302326,
          "velocity": 0.29133858267716534
        },
        {
          "duration": 0.06976744186046524,
          "durationTicks": 6,
          "midi": 94,
          "name": "A#6",
          "ticks": 1105,
          "time": 12.848837209302326,
          "velocity": 0.29133858267716534
        },
        {
          "duration": 0.06976744186046524,
          "durationTicks": 6,
          "midi": 97,
          "name": "C#7",
          "ticks": 1105,
          "time": 12.848837209302326,
          "velocity": 0.1732283464566929
        },
        {
          "duration": 0.09302325581395365,
          "durationTicks": 8,
          "midi": 98,
          "name": "D7",
          "ticks": 1105,
          "time": 12.848837209302326,
          "velocity": 0.15748031496062992
        },
        {
          "duration": 0.06976744186046524,
          "durationTicks": 6,
          "midi": 100,
          "name": "E7",
          "ticks": 1105,
          "time": 12.848837209302326,
          "velocity": 0.2283464566929134
        },
        {
          "duration": 0.05813953488372192,
          "durationTicks": 5,
          "midi": 91,
          "name": "G6",
          "ticks": 1106,
          "time": 12.86046511627907,
          "velocity": 0.1889763779527559
        },
        {
          "duration": 0.05813953488372192,
          "durationTicks": 5,
          "midi": 96,
          "name": "C7",
          "ticks": 1106,
          "time": 12.86046511627907,
          "velocity": 0.11023622047244094
        },
        {
          "duration": 0.04651162790697683,
          "durationTicks": 4,
          "midi": 60,
          "name": "C4",
          "ticks": 1107,
          "time": 12.872093023255815,
          "velocity": 0.1889763779527559
        },
        {
          "duration": 0.06976744186046524,
          "durationTicks": 6,
          "midi": 85,
          "name": "C#6",
          "ticks": 1107,
          "time": 12.872093023255815,
          "velocity": 0.2755905511811024
        },
        {
          "duration": 0.05813953488372192,
          "durationTicks": 5,
          "midi": 92,
          "name": "G#6",
          "ticks": 1108,
          "time": 12.883720930232558,
          "velocity": 0.25196850393700787
        },
        {
          "duration": 0.058139534883720145,
          "durationTicks": 5,
          "midi": 77,
          "name": "F5",
          "ticks": 1109,
          "time": 12.895348837209303,
          "velocity": 0.16535433070866143
        },
        {
          "duration": 0.011627906976745095,
          "durationTicks": 1,
          "midi": 33,
          "name": "A1",
          "ticks": 1110,
          "time": 12.906976744186046,
          "velocity": 0.5196850393700787
        },
        {
          "duration": 0.03488372093023351,
          "durationTicks": 3,
          "midi": 55,
          "name": "G3",
          "ticks": 1110,
          "time": 12.906976744186046,
          "velocity": 0.11811023622047244
        },
        {
          "duration": 0.05813953488372192,
          "durationTicks": 5,
          "midi": 93,
          "name": "A6",
          "ticks": 1110,
          "time": 12.906976744186046,
          "velocity": 0.11811023622047244
        },
        {
          "duration": 0.023255813953488413,
          "durationTicks": 2,
          "midi": 34,
          "name": "A#1",
          "ticks": 1111,
          "time": 12.918604651162791,
          "velocity": 0.5354330708661418
        },
        {
          "duration": 0.04651162790697683,
          "durationTicks": 4,
          "midi": 86,
          "name": "D6",
          "ticks": 1112,
          "time": 12.930232558139535,
          "velocity": 0.16535433070866143
        },
        {
          "duration": 0.011627906976745095,
          "durationTicks": 1,
          "midi": 37,
          "name": "C#2",
          "ticks": 1114,
          "time": 12.953488372093023,
          "velocity": 0.5275590551181102
        },
        {
          "duration": 0.023255813953488413,
          "durationTicks": 2,
          "midi": 48,
          "name": "C3",
          "ticks": 1114,
          "time": 12.953488372093023,
          "velocity": 0.25984251968503935
        },
        {
          "duration": 0.011627906976743319,
          "durationTicks": 1,
          "midi": 35,
          "name": "B1",
          "ticks": 1115,
          "time": 12.965116279069768,
          "velocity": 0.5748031496062992
        },
        {
          "duration": 0.011627906976745095,
          "durationTicks": 1,
          "midi": 34,
          "name": "A#1",
          "ticks": 1116,
          "time": 12.976744186046512,
          "velocity": 0.5433070866141733
        },
        {
          "duration": 0.011627906976743319,
          "durationTicks": 1,
          "midi": 38,
          "name": "D2",
          "ticks": 1118,
          "time": 13,
          "velocity": 0.5590551181102362
        },
        {
          "duration": 0.011627906976745095,
          "durationTicks": 1,
          "midi": 35,
          "name": "B1",
          "ticks": 1119,
          "time": 13.011627906976743,
          "velocity": 0.5826771653543307
        },
        {
          "duration": 0.011627906976743319,
          "durationTicks": 1,
          "midi": 33,
          "name": "A1",
          "ticks": 1120,
          "time": 13.023255813953488,
          "velocity": 0.5669291338582677
        },
        {
          "duration": 0.011627906976745095,
          "durationTicks": 1,
          "midi": 35,
          "name": "B1",
          "ticks": 1121,
          "time": 13.034883720930232,
          "velocity": 0.5196850393700787
        },
        {
          "duration": 0.011627906976743319,
          "durationTicks": 1,
          "midi": 34,
          "name": "A#1",
          "ticks": 1124,
          "time": 13.069767441860465,
          "velocity": 0.5905511811023622
        },
        {
          "duration": 0.011627906976745095,
          "durationTicks": 1,
          "midi": 36,
          "name": "C2",
          "ticks": 1125,
          "time": 13.081395348837209,
          "velocity": 0.5590551181102362
        },
        {
          "duration": 0.03488372093023173,
          "durationTicks": 3,
          "midi": 34,
          "name": "A#1",
          "ticks": 1128,
          "time": 13.116279069767442,
          "velocity": 0.6299212598425197
        },
        {
          "duration": 0.023255813953488413,
          "durationTicks": 2,
          "midi": 59,
          "name": "B3",
          "ticks": 1128,
          "time": 13.116279069767442,
          "velocity": 0.4330708661417323
        },
        {
          "duration": 0.04651162790697683,
          "durationTicks": 4,
          "midi": 74,
          "name": "D5",
          "ticks": 1128,
          "time": 13.116279069767442,
          "velocity": 0.1968503937007874
        },
        {
          "duration": 0.011627906976745095,
          "durationTicks": 1,
          "midi": 50,
          "name": "D3",
          "ticks": 1129,
          "time": 13.127906976744185,
          "velocity": 0.5984251968503937
        },
        {
          "duration": 0.03488372093023351,
          "durationTicks": 3,
          "midi": 64,
          "name": "E4",
          "ticks": 1129,
          "time": 13.127906976744185,
          "velocity": 0.3228346456692913
        },
        {
          "duration": 0.011627906976743319,
          "durationTicks": 1,
          "midi": 45,
          "name": "A2",
          "ticks": 1130,
          "time": 13.13953488372093,
          "velocity": 0.5748031496062992
        },
        {
          "duration": 0.011627906976743319,
          "durationTicks": 1,
          "midi": 51,
          "name": "D#3",
          "ticks": 1130,
          "time": 13.13953488372093,
          "velocity": 0.5669291338582677
        },
        {
          "duration": 0.023255813953488413,
          "durationTicks": 2,
          "midi": 68,
          "name": "G#4",
          "ticks": 1130,
          "time": 13.13953488372093,
          "velocity": 0.2992125984251969
        },
        {
          "duration": 0.011627906976745095,
          "durationTicks": 1,
          "midi": 32,
          "name": "G#1",
          "ticks": 1131,
          "time": 13.151162790697674,
          "velocity": 0.5826771653543307
        },
        {
          "duration": 0.011627906976745095,
          "durationTicks": 1,
          "midi": 43,
          "name": "G2",
          "ticks": 1131,
          "time": 13.151162790697674,
          "velocity": 0.5511811023622047
        },
        {
          "duration": 0.023255813953488413,
          "durationTicks": 2,
          "midi": 50,
          "name": "D3",
          "ticks": 1131,
          "time": 13.151162790697674,
          "velocity": 0.4645669291338583
        },
        {
          "duration": 0.04651162790697683,
          "durationTicks": 4,
          "midi": 56,
          "name": "G#3",
          "ticks": 1131,
          "time": 13.151162790697674,
          "velocity": 0.49606299212598426
        },
        {
          "duration": 0.011627906976743319,
          "durationTicks": 1,
          "midi": 41,
          "name": "F2",
          "ticks": 1132,
          "time": 13.162790697674419,
          "velocity": 0.6535433070866141
        },
        {
          "duration": 0.011627906976745095,
          "durationTicks": 1,
          "midi": 39,
          "name": "D#2",
          "ticks": 1133,
          "time": 13.174418604651162,
          "velocity": 0.6062992125984252
        },
        {
          "duration": 0.12790697674418716,
          "durationTicks": 11,
          "midi": 62,
          "name": "D4",
          "ticks": 1133,
          "time": 13.174418604651162,
          "velocity": 0.4094488188976378
        },
        {
          "duration": 0.03488372093023351,
          "durationTicks": 3,
          "midi": 71,
          "name": "B4",
          "ticks": 1133,
          "time": 13.174418604651162,
          "velocity": 0.09448818897637795
        },
        {
          "duration": 0.011627906976743319,
          "durationTicks": 1,
          "midi": 33,
          "name": "A1",
          "ticks": 1134,
          "time": 13.186046511627907,
          "velocity": 0.5748031496062992
        },
        {
          "duration": 0.011627906976743319,
          "durationTicks": 1,
          "midi": 41,
          "name": "F2",
          "ticks": 1134,
          "time": 13.186046511627907,
          "velocity": 0.5354330708661418
        },
        {
          "duration": 0.011627906976743319,
          "durationTicks": 1,
          "midi": 48,
          "name": "C3",
          "ticks": 1134,
          "time": 13.186046511627907,
          "velocity": 0.5196850393700787
        },
        {
          "duration": 0.011627906976745095,
          "durationTicks": 1,
          "midi": 29,
          "name": "F1",
          "ticks": 1135,
          "time": 13.19767441860465,
          "velocity": 0.6771653543307087
        },
        {
          "duration": 0.023255813953488413,
          "durationTicks": 2,
          "midi": 57,
          "name": "A3",
          "ticks": 1135,
          "time": 13.19767441860465,
          "velocity": 0.47244094488188976
        },
        {
          "duration": 0.011627906976743319,
          "durationTicks": 1,
          "midi": 31,
          "name": "G1",
          "ticks": 1136,
          "time": 13.209302325581396,
          "velocity": 0.7244094488188977
        },
        {
          "duration": 0.011627906976743319,
          "durationTicks": 1,
          "midi": 41,
          "name": "F2",
          "ticks": 1136,
          "time": 13.209302325581396,
          "velocity": 0.5196850393700787
        },
        {
          "duration": 0.011627906976745095,
          "durationTicks": 1,
          "midi": 33,
          "name": "A1",
          "ticks": 1137,
          "time": 13.220930232558139,
          "velocity": 0.7480314960629921
        },
        {
          "duration": 0.023255813953488413,
          "durationTicks": 2,
          "midi": 56,
          "name": "G#3",
          "ticks": 1137,
          "time": 13.220930232558139,
          "velocity": 0.44881889763779526
        },
        {
          "duration": 0.011627906976743319,
          "durationTicks": 1,
          "midi": 35,
          "name": "B1",
          "ticks": 1138,
          "time": 13.232558139534884,
          "velocity": 0.7637795275590551
        },
        {
          "duration": 0.011627906976745095,
          "durationTicks": 1,
          "midi": 37,
          "name": "C#2",
          "ticks": 1139,
          "time": 13.244186046511627,
          "velocity": 0.7165354330708661
        },
        {
          "duration": 0.011627906976745095,
          "durationTicks": 1,
          "midi": 48,
          "name": "C3",
          "ticks": 1139,
          "time": 13.244186046511627,
          "velocity": 0.5196850393700787
        },
        {
          "duration": 0.011627906976743319,
          "durationTicks": 1,
          "midi": 35,
          "name": "B1",
          "ticks": 1140,
          "time": 13.255813953488373,
          "velocity": 0.6850393700787402
        },
        {
          "duration": 0.011627906976745095,
          "durationTicks": 1,
          "midi": 34,
          "name": "A#1",
          "ticks": 1141,
          "time": 13.267441860465116,
          "velocity": 0.7007874015748031
        },
        {
          "duration": 0.011627906976743319,
          "durationTicks": 1,
          "midi": 35,
          "name": "B1",
          "ticks": 1142,
          "time": 13.279069767441861,
          "velocity": 0.7086614173228346
        },
        {
          "duration": 0.011627906976743319,
          "durationTicks": 1,
          "midi": 50,
          "name": "D3",
          "ticks": 1142,
          "time": 13.279069767441861,
          "velocity": 0.5196850393700787
        },
        {
          "duration": 0.011627906976745095,
          "durationTicks": 1,
          "midi": 36,
          "name": "C2",
          "ticks": 1143,
          "time": 13.290697674418604,
          "velocity": 0.6535433070866141
        },
        {
          "duration": 0.011627906976745095,
          "durationTicks": 1,
          "midi": 49,
          "name": "C#3",
          "ticks": 1143,
          "time": 13.290697674418604,
          "velocity": 0.5118110236220472
        },
        {
          "duration": 0.011627906976743319,
          "durationTicks": 1,
          "midi": 34,
          "name": "A#1",
          "ticks": 1144,
          "time": 13.30232558139535,
          "velocity": 0.5984251968503937
        },
        {
          "duration": 0.011627906976743319,
          "durationTicks": 1,
          "midi": 43,
          "name": "G2",
          "ticks": 1144,
          "time": 13.30232558139535,
          "velocity": 0.5354330708661418
        },
        {
          "duration": 0.011627906976745095,
          "durationTicks": 1,
          "midi": 33,
          "name": "A1",
          "ticks": 1145,
          "time": 13.313953488372093,
          "velocity": 0.6456692913385826
        },
        {
          "duration": 0.011627906976743319,
          "durationTicks": 1,
          "midi": 35,
          "name": "B1",
          "ticks": 1146,
          "time": 13.325581395348838,
          "velocity": 0.6220472440944882
        },
        {
          "duration": 0.04651162790697683,
          "durationTicks": 4,
          "midi": 62,
          "name": "D4",
          "ticks": 1146,
          "time": 13.325581395348838,
          "velocity": 0.1889763779527559
        },
        {
          "duration": 0.011627906976745095,
          "durationTicks": 1,
          "midi": 31,
          "name": "G1",
          "ticks": 1147,
          "time": 13.337209302325581,
          "velocity": 0.5511811023622047
        },
        {
          "duration": 0.011627906976745095,
          "durationTicks": 1,
          "midi": 41,
          "name": "F2",
          "ticks": 1147,
          "time": 13.337209302325581,
          "velocity": 0.5590551181102362
        },
        {
          "duration": 0.011627906976743319,
          "durationTicks": 1,
          "midi": 42,
          "name": "F#2",
          "ticks": 1148,
          "time": 13.348837209302326,
          "velocity": 0.5669291338582677
        },
        {
          "duration": 0.011627906976745095,
          "durationTicks": 1,
          "midi": 28,
          "name": "E1",
          "ticks": 1149,
          "time": 13.36046511627907,
          "velocity": 0.5196850393700787
        },
        {
          "duration": 0.011627906976745095,
          "durationTicks": 1,
          "midi": 41,
          "name": "F2",
          "ticks": 1149,
          "time": 13.36046511627907,
          "velocity": 0.5669291338582677
        },
        {
          "duration": 0.011627906976743319,
          "durationTicks": 1,
          "midi": 37,
          "name": "C#2",
          "ticks": 1150,
          "time": 13.372093023255815,
          "velocity": 0.5826771653543307
        },
        {
          "duration": 0.023255813953488413,
          "durationTicks": 2,
          "midi": 48,
          "name": "C3",
          "ticks": 1150,
          "time": 13.372093023255815,
          "velocity": 0.4881889763779528
        },
        {
          "duration": 0.011627906976745095,
          "durationTicks": 1,
          "midi": 32,
          "name": "G#1",
          "ticks": 1151,
          "time": 13.383720930232558,
          "velocity": 0.5905511811023622
        },
        {
          "duration": 0.011627906976743319,
          "durationTicks": 1,
          "midi": 31,
          "name": "G1",
          "ticks": 1152,
          "time": 13.395348837209303,
          "velocity": 0.5984251968503937
        },
        {
          "duration": 0.011627906976745095,
          "durationTicks": 1,
          "midi": 30,
          "name": "F#1",
          "ticks": 1153,
          "time": 13.406976744186046,
          "velocity": 0.5511811023622047
        },
        {
          "duration": 0.011627906976745095,
          "durationTicks": 1,
          "midi": 46,
          "name": "A#2",
          "ticks": 1153,
          "time": 13.406976744186046,
          "velocity": 0.5118110236220472
        },
        {
          "duration": 0.06976744186046524,
          "durationTicks": 6,
          "midi": 56,
          "name": "G#3",
          "ticks": 1153,
          "time": 13.406976744186046,
          "velocity": 0.3464566929133858
        },
        {
          "duration": 0.011627906976743319,
          "durationTicks": 1,
          "midi": 28,
          "name": "E1",
          "ticks": 1154,
          "time": 13.418604651162791,
          "velocity": 0.5118110236220472
        },
        {
          "duration": 0.011627906976743319,
          "durationTicks": 1,
          "midi": 40,
          "name": "E2",
          "ticks": 1154,
          "time": 13.418604651162791,
          "velocity": 0.5669291338582677
        },
        {
          "duration": 0.011627906976745095,
          "durationTicks": 1,
          "midi": 29,
          "name": "F1",
          "ticks": 1155,
          "time": 13.430232558139535,
          "velocity": 0.5748031496062992
        },
        {
          "duration": 0.011627906976743319,
          "durationTicks": 1,
          "midi": 31,
          "name": "G1",
          "ticks": 1156,
          "time": 13.44186046511628,
          "velocity": 0.6062992125984252
        },
        {
          "duration": 0.011627906976745095,
          "durationTicks": 1,
          "midi": 33,
          "name": "A1",
          "ticks": 1157,
          "time": 13.453488372093023,
          "velocity": 0.6377952755905512
        },
        {
          "duration": 0.023255813953488413,
          "durationTicks": 2,
          "midi": 48,
          "name": "C3",
          "ticks": 1157,
          "time": 13.453488372093023,
          "velocity": 0.3464566929133858
        },
        {
          "duration": 0.011627906976743319,
          "durationTicks": 1,
          "midi": 35,
          "name": "B1",
          "ticks": 1158,
          "time": 13.465116279069768,
          "velocity": 0.5826771653543307
        },
        {
          "duration": 0.058139534883720145,
          "durationTicks": 5,
          "midi": 62,
          "name": "D4",
          "ticks": 1158,
          "time": 13.465116279069768,
          "velocity": 0.2677165354330709
        },
        {
          "duration": 0.04651162790697505,
          "durationTicks": 4,
          "midi": 56,
          "name": "G#3",
          "ticks": 1160,
          "time": 13.488372093023257,
          "velocity": 0.2440944881889764
        },
        {
          "duration": 0.011627906976743319,
          "durationTicks": 1,
          "midi": 35,
          "name": "B1",
          "ticks": 1161,
          "time": 13.5,
          "velocity": 0.5669291338582677
        },
        {
          "duration": 0.023255813953488413,
          "durationTicks": 2,
          "midi": 31,
          "name": "G1",
          "ticks": 1162,
          "time": 13.511627906976743,
          "velocity": 0.5669291338582677
        },
        {
          "duration": 0.023255813953488413,
          "durationTicks": 2,
          "midi": 50,
          "name": "D3",
          "ticks": 1162,
          "time": 13.511627906976743,
          "velocity": 0.36220472440944884
        },
        {
          "duration": 0.023255813953488413,
          "durationTicks": 2,
          "midi": 41,
          "name": "F2",
          "ticks": 1164,
          "time": 13.534883720930232,
          "velocity": 0.5826771653543307
        },
        {
          "duration": 0.023255813953488413,
          "durationTicks": 2,
          "midi": 51,
          "name": "D#3",
          "ticks": 1164,
          "time": 13.534883720930232,
          "velocity": 0.33070866141732286
        },
        {
          "duration": 0.03488372093023351,
          "durationTicks": 3,
          "midi": 62,
          "name": "D4",
          "ticks": 1164,
          "time": 13.534883720930232,
          "velocity": 0.12598425196850394
        },
        {
          "duration": 0.023255813953488413,
          "durationTicks": 2,
          "midi": 40,
          "name": "E2",
          "ticks": 1166,
          "time": 13.55813953488372,
          "velocity": 0.5826771653543307
        },
        {
          "duration": 0.011627906976743319,
          "durationTicks": 1,
          "midi": 32,
          "name": "G#1",
          "ticks": 1169,
          "time": 13.593023255813954,
          "velocity": 0.5196850393700787
        },
        {
          "duration": 0.011627906976745095,
          "durationTicks": 1,
          "midi": 35,
          "name": "B1",
          "ticks": 1170,
          "time": 13.604651162790697,
          "velocity": 0.5984251968503937
        },
        {
          "duration": 0.011627906976743319,
          "durationTicks": 1,
          "midi": 39,
          "name": "D#2",
          "ticks": 1171,
          "time": 13.616279069767442,
          "velocity": 0.5433070866141733
        },
        {
          "duration": 0.03488372093023173,
          "durationTicks": 3,
          "midi": 35,
          "name": "B1",
          "ticks": 1173,
          "time": 13.63953488372093,
          "velocity": 0.5748031496062992
        },
        {
          "duration": 0.023255813953488413,
          "durationTicks": 2,
          "midi": 55,
          "name": "G3",
          "ticks": 1174,
          "time": 13.651162790697674,
          "velocity": 0.2755905511811024
        },
        {
          "duration": 0.011627906976745095,
          "durationTicks": 1,
          "midi": 33,
          "name": "A1",
          "ticks": 1176,
          "time": 13.674418604651162,
          "velocity": 0.5905511811023622
        },
        {
          "duration": 0.011627906976745095,
          "durationTicks": 1,
          "midi": 44,
          "name": "G#2",
          "ticks": 1176,
          "time": 13.674418604651162,
          "velocity": 0.5433070866141733
        },
        {
          "duration": 0.011627906976743319,
          "durationTicks": 1,
          "midi": 31,
          "name": "G1",
          "ticks": 1177,
          "time": 13.686046511627907,
          "velocity": 0.5511811023622047
        },
        {
          "duration": 0.023255813953488413,
          "durationTicks": 2,
          "midi": 41,
          "name": "F2",
          "ticks": 1177,
          "time": 13.686046511627907,
          "velocity": 0.6535433070866141
        },
        {
          "duration": 0.023255813953488413,
          "durationTicks": 2,
          "midi": 63,
          "name": "D#4",
          "ticks": 1177,
          "time": 13.686046511627907,
          "velocity": 0.3700787401574803
        },
        {
          "duration": 0.011627906976745095,
          "durationTicks": 1,
          "midi": 30,
          "name": "F#1",
          "ticks": 1178,
          "time": 13.69767441860465,
          "velocity": 0.5669291338582677
        },
        {
          "duration": 0.011627906976743319,
          "durationTicks": 1,
          "midi": 37,
          "name": "C#2",
          "ticks": 1179,
          "time": 13.709302325581396,
          "velocity": 0.6377952755905512
        },
        {
          "duration": 0.023255813953488413,
          "durationTicks": 2,
          "midi": 62,
          "name": "D4",
          "ticks": 1179,
          "time": 13.709302325581396,
          "velocity": 0.3858267716535433
        },
        {
          "duration": 0.011627906976745095,
          "durationTicks": 1,
          "midi": 35,
          "name": "B1",
          "ticks": 1180,
          "time": 13.720930232558139,
          "velocity": 0.5433070866141733
        },
        {
          "duration": 0.011627906976745095,
          "durationTicks": 1,
          "midi": 43,
          "name": "G2",
          "ticks": 1180,
          "time": 13.720930232558139,
          "velocity": 0.5275590551181102
        },
        {
          "duration": 0.011627906976743319,
          "durationTicks": 1,
          "midi": 34,
          "name": "A#1",
          "ticks": 1181,
          "time": 13.732558139534884,
          "velocity": 0.6220472440944882
        },
        {
          "duration": 0.011627906976745095,
          "durationTicks": 1,
          "midi": 37,
          "name": "C#2",
          "ticks": 1182,
          "time": 13.744186046511627,
          "velocity": 0.6929133858267716
        },
        {
          "duration": 0.023255813953488413,
          "durationTicks": 2,
          "midi": 53,
          "name": "F3",
          "ticks": 1182,
          "time": 13.744186046511627,
          "velocity": 0.3779527559055118
        },
        {
          "duration": 0.11627906976744207,
          "durationTicks": 10,
          "midi": 62,
          "name": "D4",
          "ticks": 1182,
          "time": 13.744186046511627,
          "velocity": 0.2677165354330709
        },
        {
          "duration": 0.011627906976743319,
          "durationTicks": 1,
          "midi": 35,
          "name": "B1",
          "ticks": 1183,
          "time": 13.755813953488373,
          "velocity": 0.7007874015748031
        },
        {
          "duration": 0.011627906976745095,
          "durationTicks": 1,
          "midi": 34,
          "name": "A#1",
          "ticks": 1184,
          "time": 13.767441860465116,
          "velocity": 0.7086614173228346
        },
        {
          "duration": 0.023255813953488413,
          "durationTicks": 2,
          "midi": 36,
          "name": "C2",
          "ticks": 1185,
          "time": 13.779069767441861,
          "velocity": 0.7244094488188977
        },
        {
          "duration": 0.023255813953488413,
          "durationTicks": 2,
          "midi": 35,
          "name": "B1",
          "ticks": 1187,
          "time": 13.80232558139535,
          "velocity": 0.7007874015748031
        },
        {
          "duration": 0.023255813953488413,
          "durationTicks": 2,
          "midi": 56,
          "name": "G#3",
          "ticks": 1188,
          "time": 13.813953488372093,
          "velocity": 0.23622047244094488
        },
        {
          "duration": 0.04651162790697683,
          "durationTicks": 4,
          "midi": 36,
          "name": "C2",
          "ticks": 1189,
          "time": 13.825581395348838,
          "velocity": 0.6771653543307087
        },
        {
          "duration": 0.023255813953488413,
          "durationTicks": 2,
          "midi": 50,
          "name": "D3",
          "ticks": 1190,
          "time": 13.837209302325581,
          "velocity": 0.30708661417322836
        },
        {
          "duration": 0.011627906976743319,
          "durationTicks": 1,
          "midi": 35,
          "name": "B1",
          "ticks": 1193,
          "time": 13.872093023255815,
          "velocity": 0.5511811023622047
        },
        {
          "duration": 0.023255813953488413,
          "durationTicks": 2,
          "midi": 53,
          "name": "F3",
          "ticks": 1193,
          "time": 13.872093023255815,
          "velocity": 0.23622047244094488
        },
        {
          "duration": 0.023255813953488413,
          "durationTicks": 2,
          "midi": 48,
          "name": "C3",
          "ticks": 1196,
          "time": 13.906976744186046,
          "velocity": 0.2992125984251969
        },
        {
          "duration": 0.023255813953488413,
          "durationTicks": 2,
          "midi": 31,
          "name": "G1",
          "ticks": 1197,
          "time": 13.918604651162791,
          "velocity": 0.4409448818897638
        },
        {
          "duration": 0.023255813953488413,
          "durationTicks": 2,
          "midi": 41,
          "name": "F2",
          "ticks": 1200,
          "time": 13.953488372093023,
          "velocity": 0.5748031496062992
        },
        {
          "duration": 0.023255813953488413,
          "durationTicks": 2,
          "midi": 50,
          "name": "D3",
          "ticks": 1201,
          "time": 13.965116279069768,
          "velocity": 0.28346456692913385
        },
        {
          "duration": 0.058139534883720145,
          "durationTicks": 5,
          "midi": 56,
          "name": "G#3",
          "ticks": 1201,
          "time": 13.965116279069768,
          "velocity": 0.33070866141732286
        },
        {
          "duration": 0.011627906976745095,
          "durationTicks": 1,
          "midi": 40,
          "name": "E2",
          "ticks": 1202,
          "time": 13.976744186046512,
          "velocity": 0.5984251968503937
        },
        {
          "duration": 0.011627906976743319,
          "durationTicks": 1,
          "midi": 36,
          "name": "C2",
          "ticks": 1203,
          "time": 13.988372093023257,
          "velocity": 0.5590551181102362
        },
        {
          "duration": 0.011627906976743319,
          "durationTicks": 1,
          "midi": 33,
          "name": "A1",
          "ticks": 1204,
          "time": 14,
          "velocity": 0.5748031496062992
        },
        {
          "duration": 0.011627906976745095,
          "durationTicks": 1,
          "midi": 35,
          "name": "B1",
          "ticks": 1205,
          "time": 14.011627906976743,
          "velocity": 0.5984251968503937
        },
        {
          "duration": 0.05813953488372192,
          "durationTicks": 5,
          "midi": 62,
          "name": "D4",
          "ticks": 1205,
          "time": 14.011627906976743,
          "velocity": 0.2440944881889764
        },
        {
          "duration": 0.023255813953488413,
          "durationTicks": 2,
          "midi": 36,
          "name": "C2",
          "ticks": 1208,
          "time": 14.046511627906977,
          "velocity": 0.6456692913385826
        },
        {
          "duration": 0.011627906976743319,
          "durationTicks": 1,
          "midi": 34,
          "name": "A#1",
          "ticks": 1210,
          "time": 14.069767441860465,
          "velocity": 0.5905511811023622
        },
        {
          "duration": 0.011627906976745095,
          "durationTicks": 1,
          "midi": 35,
          "name": "B1",
          "ticks": 1211,
          "time": 14.081395348837209,
          "velocity": 0.5590551181102362
        },
        {
          "duration": 0.04651162790697683,
          "durationTicks": 4,
          "midi": 62,
          "name": "D4",
          "ticks": 1211,
          "time": 14.081395348837209,
          "velocity": 0.14173228346456693
        },
        {
          "duration": 0.011627906976743319,
          "durationTicks": 1,
          "midi": 38,
          "name": "D2",
          "ticks": 1212,
          "time": 14.093023255813954,
          "velocity": 0.5748031496062992
        },
        {
          "duration": 0.011627906976745095,
          "durationTicks": 1,
          "midi": 37,
          "name": "C#2",
          "ticks": 1213,
          "time": 14.104651162790697,
          "velocity": 0.5984251968503937
        },
        {
          "duration": 0.011627906976743319,
          "durationTicks": 1,
          "midi": 32,
          "name": "G#1",
          "ticks": 1214,
          "time": 14.116279069767442,
          "velocity": 0.5354330708661418
        },
        {
          "duration": 0.023255813953488413,
          "durationTicks": 2,
          "midi": 28,
          "name": "E1",
          "ticks": 1216,
          "time": 14.13953488372093,
          "velocity": 0.4645669291338583
        },
        {
          "duration": 0.011627906976743319,
          "durationTicks": 1,
          "midi": 33,
          "name": "A1",
          "ticks": 1218,
          "time": 14.162790697674419,
          "velocity": 0.5275590551181102
        },
        {
          "duration": 0.011627906976743319,
          "durationTicks": 1,
          "midi": 33,
          "name": "A1",
          "ticks": 1222,
          "time": 14.209302325581396,
          "velocity": 0.5826771653543307
        },
        {
          "duration": 0.03488372093023173,
          "durationTicks": 3,
          "midi": 51,
          "name": "D#3",
          "ticks": 1222,
          "time": 14.209302325581396,
          "velocity": 0.5826771653543307
        },
        {
          "duration": 0.011627906976745095,
          "durationTicks": 1,
          "midi": 34,
          "name": "A#1",
          "ticks": 1223,
          "time": 14.220930232558139,
          "velocity": 0.6220472440944882
        },
        {
          "duration": 0.023255813953488413,
          "durationTicks": 2,
          "midi": 64,
          "name": "E4",
          "ticks": 1223,
          "time": 14.220930232558139,
          "velocity": 0.31496062992125984
        },
        {
          "duration": 0.011627906976743319,
          "durationTicks": 1,
          "midi": 33,
          "name": "A1",
          "ticks": 1224,
          "time": 14.232558139534884,
          "velocity": 0.5905511811023622
        },
        {
          "duration": 0.023255813953488413,
          "durationTicks": 2,
          "midi": 68,
          "name": "G#4",
          "ticks": 1224,
          "time": 14.232558139534884,
          "velocity": 0.29133858267716534
        },
        {
          "duration": 0.03488372093023173,
          "durationTicks": 3,
          "midi": 70,
          "name": "A#4",
          "ticks": 1224,
          "time": 14.232558139534884,
          "velocity": 0.1889763779527559
        },
        {
          "duration": 0.011627906976745095,
          "durationTicks": 1,
          "midi": 31,
          "name": "G1",
          "ticks": 1225,
          "time": 14.244186046511627,
          "velocity": 0.5748031496062992
        },
        {
          "duration": 0.023255813953488413,
          "durationTicks": 2,
          "midi": 50,
          "name": "D3",
          "ticks": 1225,
          "time": 14.244186046511627,
          "velocity": 0.4645669291338583
        },
        {
          "duration": 0.04651162790697683,
          "durationTicks": 4,
          "midi": 56,
          "name": "G#3",
          "ticks": 1225,
          "time": 14.244186046511627,
          "velocity": 0.4881889763779528
        },
        {
          "duration": 0.011627906976743319,
          "durationTicks": 1,
          "midi": 19,
          "name": "G0",
          "ticks": 1226,
          "time": 14.255813953488373,
          "velocity": 0.5118110236220472
        },
        {
          "duration": 0.011627906976743319,
          "durationTicks": 1,
          "midi": 41,
          "name": "F2",
          "ticks": 1226,
          "time": 14.255813953488373,
          "velocity": 0.6614173228346457
        },
        {
          "duration": 0.011627906976745095,
          "durationTicks": 1,
          "midi": 40,
          "name": "E2",
          "ticks": 1227,
          "time": 14.267441860465116,
          "velocity": 0.6220472440944882
        },
        {
          "duration": 0.011627906976743319,
          "durationTicks": 1,
          "midi": 33,
          "name": "A1",
          "ticks": 1228,
          "time": 14.279069767441861,
          "velocity": 0.5669291338582677
        },
        {
          "duration": 0.011627906976743319,
          "durationTicks": 1,
          "midi": 41,
          "name": "F2",
          "ticks": 1228,
          "time": 14.279069767441861,
          "velocity": 0.5433070866141733
        },
        {
          "duration": 0.011627906976743319,
          "durationTicks": 1,
          "midi": 48,
          "name": "C3",
          "ticks": 1228,
          "time": 14.279069767441861,
          "velocity": 0.5196850393700787
        },
        {
          "duration": 0.023255813953488413,
          "durationTicks": 2,
          "midi": 31,
          "name": "G1",
          "ticks": 1229,
          "time": 14.290697674418604,
          "velocity": 0.7086614173228346
        },
        {
          "duration": 0.023255813953488413,
          "durationTicks": 2,
          "midi": 57,
          "name": "A3",
          "ticks": 1229,
          "time": 14.290697674418604,
          "velocity": 0.47244094488188976
        },
        {
          "duration": 0.011627906976745095,
          "durationTicks": 1,
          "midi": 33,
          "name": "A1",
          "ticks": 1231,
          "time": 14.313953488372093,
          "velocity": 0.7401574803149606
        },
        {
          "duration": 0.023255813953488413,
          "durationTicks": 2,
          "midi": 56,
          "name": "G#3",
          "ticks": 1231,
          "time": 14.313953488372093,
          "velocity": 0.4409448818897638
        },
        {
          "duration": 0.011627906976743319,
          "durationTicks": 1,
          "midi": 36,
          "name": "C2",
          "ticks": 1232,
          "time": 14.325581395348838,
          "velocity": 0.7480314960629921
        },
        {
          "duration": 0.011627906976745095,
          "durationTicks": 1,
          "midi": 37,
          "name": "C#2",
          "ticks": 1233,
          "time": 14.337209302325581,
          "velocity": 0.6929133858267716
        },
        {
          "duration": 0.011627906976743319,
          "durationTicks": 1,
          "midi": 35,
          "name": "B1",
          "ticks": 1234,
          "time": 14.348837209302326,
          "velocity": 0.6614173228346457
        },
        {
          "duration": 0.011627906976745095,
          "durationTicks": 1,
          "midi": 34,
          "name": "A#1",
          "ticks": 1235,
          "time": 14.36046511627907,
          "velocity": 0.6850393700787402
        },
        {
          "duration": 0.011627906976743319,
          "durationTicks": 1,
          "midi": 35,
          "name": "B1",
          "ticks": 1236,
          "time": 14.372093023255815,
          "velocity": 0.6771653543307087
        },
        {
          "duration": 0.011627906976743319,
          "durationTicks": 1,
          "midi": 50,
          "name": "D3",
          "ticks": 1236,
          "time": 14.372093023255815,
          "velocity": 0.5118110236220472
        },
        {
          "duration": 0.011627906976745095,
          "durationTicks": 1,
          "midi": 36,
          "name": "C2",
          "ticks": 1237,
          "time": 14.383720930232558,
          "velocity": 0.6062992125984252
        },
        {
          "duration": 0.011627906976743319,
          "durationTicks": 1,
          "midi": 33,
          "name": "A1",
          "ticks": 1238,
          "time": 14.395348837209303,
          "velocity": 0.5669291338582677
        },
        {
          "duration": 0.011627906976743319,
          "durationTicks": 1,
          "midi": 44,
          "name": "G#2",
          "ticks": 1238,
          "time": 14.395348837209303,
          "velocity": 0.5354330708661418
        },
        {
          "duration": 0.011627906976745095,
          "durationTicks": 1,
          "midi": 34,
          "name": "A#1",
          "ticks": 1239,
          "time": 14.406976744186046,
          "velocity": 0.6299212598425197
        },
        {
          "duration": 0.011627906976743319,
          "durationTicks": 1,
          "midi": 35,
          "name": "B1",
          "ticks": 1240,
          "time": 14.418604651162791,
          "velocity": 0.5826771653543307
        },
        {
          "duration": 0.04651162790697683,
          "durationTicks": 4,
          "midi": 62,
          "name": "D4",
          "ticks": 1240,
          "time": 14.418604651162791,
          "velocity": 0.1889763779527559
        },
        {
          "duration": 0.011627906976745095,
          "durationTicks": 1,
          "midi": 31,
          "name": "G1",
          "ticks": 1241,
          "time": 14.430232558139535,
          "velocity": 0.5354330708661418
        },
        {
          "duration": 0.011627906976745095,
          "durationTicks": 1,
          "midi": 41,
          "name": "F2",
          "ticks": 1241,
          "time": 14.430232558139535,
          "velocity": 0.5511811023622047
        },
        {
          "duration": 0.011627906976743319,
          "durationTicks": 1,
          "midi": 30,
          "name": "F#1",
          "ticks": 1242,
          "time": 14.44186046511628,
          "velocity": 0.5196850393700787
        },
        {
          "duration": 0.011627906976743319,
          "durationTicks": 1,
          "midi": 42,
          "name": "F#2",
          "ticks": 1242,
          "time": 14.44186046511628,
          "velocity": 0.5433070866141733
        },
        {
          "duration": 0.011627906976745095,
          "durationTicks": 1,
          "midi": 29,
          "name": "F1",
          "ticks": 1243,
          "time": 14.453488372093023,
          "velocity": 0.5354330708661418
        },
        {
          "duration": 0.011627906976743319,
          "durationTicks": 1,
          "midi": 30,
          "name": "F#1",
          "ticks": 1244,
          "time": 14.465116279069768,
          "velocity": 0.5511811023622047
        },
        {
          "duration": 0.023255813953488413,
          "durationTicks": 2,
          "midi": 48,
          "name": "C3",
          "ticks": 1244,
          "time": 14.465116279069768,
          "velocity": 0.47244094488188976
        },
        {
          "duration": 0.023255813953488413,
          "durationTicks": 2,
          "midi": 31,
          "name": "G1",
          "ticks": 1245,
          "time": 14.476744186046512,
          "velocity": 0.5905511811023622
        },
        {
          "duration": 0.011627906976743319,
          "durationTicks": 1,
          "midi": 30,
          "name": "F#1",
          "ticks": 1247,
          "time": 14.5,
          "velocity": 0.5590551181102362
        },
        {
          "duration": 0.011627906976743319,
          "durationTicks": 1,
          "midi": 45,
          "name": "A2",
          "ticks": 1247,
          "time": 14.5,
          "velocity": 0.5118110236220472
        },
        {
          "duration": 0.06976744186046524,
          "durationTicks": 6,
          "midi": 56,
          "name": "G#3",
          "ticks": 1247,
          "time": 14.5,
          "velocity": 0.3543307086614173
        },
        {
          "duration": 0.011627906976745095,
          "durationTicks": 1,
          "midi": 28,
          "name": "E1",
          "ticks": 1248,
          "time": 14.511627906976743,
          "velocity": 0.5354330708661418
        },
        {
          "duration": 0.011627906976745095,
          "durationTicks": 1,
          "midi": 41,
          "name": "F2",
          "ticks": 1248,
          "time": 14.511627906976743,
          "velocity": 0.5669291338582677
        },
        {
          "duration": 0.011627906976743319,
          "durationTicks": 1,
          "midi": 37,
          "name": "C#2",
          "ticks": 1249,
          "time": 14.523255813953488,
          "velocity": 0.5905511811023622
        },
        {
          "duration": 0.011627906976745095,
          "durationTicks": 1,
          "midi": 31,
          "name": "G1",
          "ticks": 1250,
          "time": 14.534883720930232,
          "velocity": 0.6062992125984252
        },
        {
          "duration": 0.011627906976743319,
          "durationTicks": 1,
          "midi": 32,
          "name": "G#1",
          "ticks": 1251,
          "time": 14.546511627906977,
          "velocity": 0.6141732283464567
        },
        {
          "duration": 0.023255813953488413,
          "durationTicks": 2,
          "midi": 48,
          "name": "C3",
          "ticks": 1251,
          "time": 14.546511627906977,
          "velocity": 0.33858267716535434
        },
        {
          "duration": 0.011627906976745095,
          "durationTicks": 1,
          "midi": 35,
          "name": "B1",
          "ticks": 1252,
          "time": 14.55813953488372,
          "velocity": 0.5669291338582677
        },
        {
          "duration": 0.05813953488372192,
          "durationTicks": 5,
          "midi": 62,
          "name": "D4",
          "ticks": 1252,
          "time": 14.55813953488372,
          "velocity": 0.2677165354330709
        },
        {
          "duration": 0.04651162790697683,
          "durationTicks": 4,
          "midi": 56,
          "name": "G#3",
          "ticks": 1254,
          "time": 14.581395348837209,
          "velocity": 0.23622047244094488
        },
        {
          "duration": 0.011627906976743319,
          "durationTicks": 1,
          "midi": 34,
          "name": "A#1",
          "ticks": 1255,
          "time": 14.593023255813954,
          "velocity": 0.5669291338582677
        },
        {
          "duration": 0.011627906976745095,
          "durationTicks": 1,
          "midi": 31,
          "name": "G1",
          "ticks": 1256,
          "time": 14.604651162790697,
          "velocity": 0.5511811023622047
        },
        {
          "duration": 0.023255813953488413,
          "durationTicks": 2,
          "midi": 50,
          "name": "D3",
          "ticks": 1256,
          "time": 14.604651162790697,
          "velocity": 0.36220472440944884
        },
        {
          "duration": 0.011627906976743319,
          "durationTicks": 1,
          "midi": 30,
          "name": "F#1",
          "ticks": 1257,
          "time": 14.616279069767442,
          "velocity": 0.5118110236220472
        },
        {
          "duration": 0.023255813953488413,
          "durationTicks": 2,
          "midi": 41,
          "name": "F2",
          "ticks": 1258,
          "time": 14.627906976744185,
          "velocity": 0.5748031496062992
        },
        {
          "duration": 0.023255813953488413,
          "durationTicks": 2,
          "midi": 51,
          "name": "D#3",
          "ticks": 1258,
          "time": 14.627906976744185,
          "velocity": 0.3228346456692913
        },
        {
          "duration": 0.03488372093023351,
          "durationTicks": 3,
          "midi": 62,
          "name": "D4",
          "ticks": 1258,
          "time": 14.627906976744185,
          "velocity": 0.12598425196850394
        },
        {
          "duration": 0.023255813953488413,
          "durationTicks": 2,
          "midi": 40,
          "name": "E2",
          "ticks": 1260,
          "time": 14.651162790697674,
          "velocity": 0.5669291338582677
        },
        {
          "duration": 0.011627906976743319,
          "durationTicks": 1,
          "midi": 32,
          "name": "G#1",
          "ticks": 1263,
          "time": 14.686046511627907,
          "velocity": 0.5118110236220472
        },
        {
          "duration": 0.011627906976745095,
          "durationTicks": 1,
          "midi": 36,
          "name": "C2",
          "ticks": 1264,
          "time": 14.69767441860465,
          "velocity": 0.5905511811023622
        },
        {
          "duration": 0.011627906976743319,
          "durationTicks": 1,
          "midi": 39,
          "name": "D#2",
          "ticks": 1265,
          "time": 14.709302325581396,
          "velocity": 0.5196850393700787
        },
        {
          "duration": 0.023255813953488413,
          "durationTicks": 2,
          "midi": 35,
          "name": "B1",
          "ticks": 1268,
          "time": 14.744186046511627,
          "velocity": 0.5748031496062992
        },
        {
          "duration": 0.023255813953488413,
          "durationTicks": 2,
          "midi": 55,
          "name": "G3",
          "ticks": 1268,
          "time": 14.744186046511627,
          "velocity": 0.2755905511811024
        },
        {
          "duration": 0.011627906976745095,
          "durationTicks": 1,
          "midi": 33,
          "name": "A1",
          "ticks": 1270,
          "time": 14.767441860465116,
          "velocity": 0.5748031496062992
        },
        {
          "duration": 0.011627906976745095,
          "durationTicks": 1,
          "midi": 44,
          "name": "G#2",
          "ticks": 1270,
          "time": 14.767441860465116,
          "velocity": 0.5433070866141733
        },
        {
          "duration": 0.023255813953488413,
          "durationTicks": 2,
          "midi": 57,
          "name": "A3",
          "ticks": 1270,
          "time": 14.767441860465116,
          "velocity": 0.4015748031496063
        },
        {
          "duration": 0.011627906976743319,
          "durationTicks": 1,
          "midi": 30,
          "name": "F#1",
          "ticks": 1271,
          "time": 14.779069767441861,
          "velocity": 0.5354330708661418
        },
        {
          "duration": 0.023255813953488413,
          "durationTicks": 2,
          "midi": 41,
          "name": "F2",
          "ticks": 1271,
          "time": 14.779069767441861,
          "velocity": 0.6535433070866141
        },
        {
          "duration": 0.023255813953488413,
          "durationTicks": 2,
          "midi": 63,
          "name": "D#4",
          "ticks": 1271,
          "time": 14.779069767441861,
          "velocity": 0.3700787401574803
        },
        {
          "duration": 0.03488372093023173,
          "durationTicks": 3,
          "midi": 67,
          "name": "G4",
          "ticks": 1271,
          "time": 14.779069767441861,
          "velocity": 0.29133858267716534
        },
        {
          "duration": 0.011627906976743319,
          "durationTicks": 1,
          "midi": 37,
          "name": "C#2",
          "ticks": 1273,
          "time": 14.80232558139535,
          "velocity": 0.6377952755905512
        },
        {
          "duration": 0.023255813953488413,
          "durationTicks": 2,
          "midi": 62,
          "name": "D4",
          "ticks": 1273,
          "time": 14.80232558139535,
          "velocity": 0.3858267716535433
        },
        {
          "duration": 0.011627906976745095,
          "durationTicks": 1,
          "midi": 35,
          "name": "B1",
          "ticks": 1274,
          "time": 14.813953488372093,
          "velocity": 0.5275590551181102
        },
        {
          "duration": 0.011627906976745095,
          "durationTicks": 1,
          "midi": 43,
          "name": "G2",
          "ticks": 1274,
          "time": 14.813953488372093,
          "velocity": 0.5275590551181102
        },
        {
          "duration": 0.011627906976743319,
          "durationTicks": 1,
          "midi": 34,
          "name": "A#1",
          "ticks": 1275,
          "time": 14.825581395348838,
          "velocity": 0.6220472440944882
        },
        {
          "duration": 0.011627906976745095,
          "durationTicks": 1,
          "midi": 37,
          "name": "C#2",
          "ticks": 1276,
          "time": 14.837209302325581,
          "velocity": 0.6929133858267716
        },
        {
          "duration": 0.023255813953488413,
          "durationTicks": 2,
          "midi": 53,
          "name": "F3",
          "ticks": 1276,
          "time": 14.837209302325581,
          "velocity": 0.3779527559055118
        },
        {
          "duration": 0.11627906976744207,
          "durationTicks": 10,
          "midi": 62,
          "name": "D4",
          "ticks": 1276,
          "time": 14.837209302325581,
          "velocity": 0.25984251968503935
        },
        {
          "duration": 0.011627906976743319,
          "durationTicks": 1,
          "midi": 35,
          "name": "B1",
          "ticks": 1277,
          "time": 14.848837209302326,
          "velocity": 0.6929133858267716
        },
        {
          "duration": 0.011627906976745095,
          "durationTicks": 1,
          "midi": 34,
          "name": "A#1",
          "ticks": 1278,
          "time": 14.86046511627907,
          "velocity": 0.7086614173228346
        },
        {
          "duration": 0.023255813953488413,
          "durationTicks": 2,
          "midi": 36,
          "name": "C2",
          "ticks": 1279,
          "time": 14.872093023255815,
          "velocity": 0.7165354330708661
        },
        {
          "duration": 0.023255813953488413,
          "durationTicks": 2,
          "midi": 35,
          "name": "B1",
          "ticks": 1281,
          "time": 14.895348837209303,
          "velocity": 0.6929133858267716
        },
        {
          "duration": 0.023255813953488413,
          "durationTicks": 2,
          "midi": 56,
          "name": "G#3",
          "ticks": 1282,
          "time": 14.906976744186046,
          "velocity": 0.23622047244094488
        },
        {
          "duration": 0.04651162790697683,
          "durationTicks": 4,
          "midi": 36,
          "name": "C2",
          "ticks": 1283,
          "time": 14.918604651162791,
          "velocity": 0.6535433070866141
        },
        {
          "duration": 0.023255813953488413,
          "durationTicks": 2,
          "midi": 50,
          "name": "D3",
          "ticks": 1284,
          "time": 14.930232558139535,
          "velocity": 0.2992125984251969
        },
        {
          "duration": 0.023255813953488413,
          "durationTicks": 2,
          "midi": 35,
          "name": "B1",
          "ticks": 1287,
          "time": 14.965116279069768,
          "velocity": 0.5511811023622047
        },
        {
          "duration": 0.023255813953488413,
          "durationTicks": 2,
          "midi": 53,
          "name": "F3",
          "ticks": 1287,
          "time": 14.965116279069768,
          "velocity": 0.23622047244094488
        },
        {
          "duration": 0.023255813953488413,
          "durationTicks": 2,
          "midi": 48,
          "name": "C3",
          "ticks": 1290,
          "time": 15,
          "velocity": 0.28346456692913385
        },
        {
          "duration": 0.023255813953488413,
          "durationTicks": 2,
          "midi": 31,
          "name": "G1",
          "ticks": 1291,
          "time": 15.011627906976743,
          "velocity": 0.41732283464566927
        },
        {
          "duration": 0.023255813953488413,
          "durationTicks": 2,
          "midi": 41,
          "name": "F2",
          "ticks": 1294,
          "time": 15.046511627906977,
          "velocity": 0.5669291338582677
        },
        {
          "duration": 0.023255813953488413,
          "durationTicks": 2,
          "midi": 50,
          "name": "D3",
          "ticks": 1295,
          "time": 15.05813953488372,
          "velocity": 0.2755905511811024
        },
        {
          "duration": 0.05813953488372192,
          "durationTicks": 5,
          "midi": 56,
          "name": "G#3",
          "ticks": 1295,
          "time": 15.05813953488372,
          "velocity": 0.3228346456692913
        },
        {
          "duration": 0.011627906976743319,
          "durationTicks": 1,
          "midi": 40,
          "name": "E2",
          "ticks": 1296,
          "time": 15.069767441860465,
          "velocity": 0.5984251968503937
        },
        {
          "duration": 0.011627906976745095,
          "durationTicks": 1,
          "midi": 36,
          "name": "C2",
          "ticks": 1297,
          "time": 15.081395348837209,
          "velocity": 0.5433070866141733
        },
        {
          "duration": 0.011627906976743319,
          "durationTicks": 1,
          "midi": 31,
          "name": "G1",
          "ticks": 1298,
          "time": 15.093023255813954,
          "velocity": 0.5590551181102362
        },
        {
          "duration": 0.011627906976745095,
          "durationTicks": 1,
          "midi": 35,
          "name": "B1",
          "ticks": 1299,
          "time": 15.104651162790697,
          "velocity": 0.5905511811023622
        },
        {
          "duration": 0.05813953488372192,
          "durationTicks": 5,
          "midi": 62,
          "name": "D4",
          "ticks": 1299,
          "time": 15.104651162790697,
          "velocity": 0.25196850393700787
        },
        {
          "duration": 0.023255813953488413,
          "durationTicks": 2,
          "midi": 36,
          "name": "C2",
          "ticks": 1302,
          "time": 15.13953488372093,
          "velocity": 0.6377952755905512
        },
        {
          "duration": 0.011627906976743319,
          "durationTicks": 1,
          "midi": 34,
          "name": "A#1",
          "ticks": 1304,
          "time": 15.162790697674419,
          "velocity": 0.5905511811023622
        },
        {
          "duration": 0.011627906976745095,
          "durationTicks": 1,
          "midi": 35,
          "name": "B1",
          "ticks": 1305,
          "time": 15.174418604651162,
          "velocity": 0.5590551181102362
        },
        {
          "duration": 0.04651162790697683,
          "durationTicks": 4,
          "midi": 62,
          "name": "D4",
          "ticks": 1305,
          "time": 15.174418604651162,
          "velocity": 0.14173228346456693
        },
        {
          "duration": 0.011627906976743319,
          "durationTicks": 1,
          "midi": 38,
          "name": "D2",
          "ticks": 1306,
          "time": 15.186046511627907,
          "velocity": 0.5826771653543307
        },
        {
          "duration": 0.011627906976745095,
          "durationTicks": 1,
          "midi": 37,
          "name": "C#2",
          "ticks": 1307,
          "time": 15.19767441860465,
          "velocity": 0.5905511811023622
        },
        {
          "duration": 0.011627906976743319,
          "durationTicks": 1,
          "midi": 32,
          "name": "G#1",
          "ticks": 1308,
          "time": 15.209302325581396,
          "velocity": 0.5275590551181102
        },
        {
          "duration": 0.011627906976743319,
          "durationTicks": 1,
          "midi": 34,
          "name": "A#1",
          "ticks": 1312,
          "time": 15.255813953488373,
          "velocity": 0.5275590551181102
        },
        {
          "duration": 0.023255813953488413,
          "durationTicks": 2,
          "midi": 34,
          "name": "A#1",
          "ticks": 1316,
          "time": 15.30232558139535,
          "velocity": 0.6141732283464567
        },
        {
          "duration": 0.03488372093023173,
          "durationTicks": 3,
          "midi": 51,
          "name": "D#3",
          "ticks": 1316,
          "time": 15.30232558139535,
          "velocity": 0.5905511811023622
        },
        {
          "duration": 0.03488372093023351,
          "durationTicks": 3,
          "midi": 64,
          "name": "E4",
          "ticks": 1317,
          "time": 15.313953488372093,
          "velocity": 0.3228346456692913
        },
        {
          "duration": 0.03488372093023351,
          "durationTicks": 3,
          "midi": 74,
          "name": "D5",
          "ticks": 1317,
          "time": 15.313953488372093,
          "velocity": 0.18110236220472442
        },
        {
          "duration": 0.011627906976743319,
          "durationTicks": 1,
          "midi": 33,
          "name": "A1",
          "ticks": 1318,
          "time": 15.325581395348838,
          "velocity": 0.5905511811023622
        },
        {
          "duration": 0.023255813953488413,
          "durationTicks": 2,
          "midi": 68,
          "name": "G#4",
          "ticks": 1318,
          "time": 15.325581395348838,
          "velocity": 0.2992125984251969
        },
        {
          "duration": 0.03488372093023173,
          "durationTicks": 3,
          "midi": 70,
          "name": "A#4",
          "ticks": 1318,
          "time": 15.325581395348838,
          "velocity": 0.1968503937007874
        },
        {
          "duration": 0.011627906976745095,
          "durationTicks": 1,
          "midi": 31,
          "name": "G1",
          "ticks": 1319,
          "time": 15.337209302325581,
          "velocity": 0.5748031496062992
        },
        {
          "duration": 0.023255813953488413,
          "durationTicks": 2,
          "midi": 50,
          "name": "D3",
          "ticks": 1319,
          "time": 15.337209302325581,
          "velocity": 0.4645669291338583
        },
        {
          "duration": 0.04651162790697683,
          "durationTicks": 4,
          "midi": 56,
          "name": "G#3",
          "ticks": 1319,
          "time": 15.337209302325581,
          "velocity": 0.4881889763779528
        },
        {
          "duration": 0.011627906976743319,
          "durationTicks": 1,
          "midi": 41,
          "name": "F2",
          "ticks": 1320,
          "time": 15.348837209302326,
          "velocity": 0.6614173228346457
        },
        {
          "duration": 0.011627906976745095,
          "durationTicks": 1,
          "midi": 40,
          "name": "E2",
          "ticks": 1321,
          "time": 15.36046511627907,
          "velocity": 0.6062992125984252
        },
        {
          "duration": 0.011627906976743319,
          "durationTicks": 1,
          "midi": 33,
          "name": "A1",
          "ticks": 1322,
          "time": 15.372093023255815,
          "velocity": 0.5590551181102362
        },
        {
          "duration": 0.011627906976743319,
          "durationTicks": 1,
          "midi": 41,
          "name": "F2",
          "ticks": 1322,
          "time": 15.372093023255815,
          "velocity": 0.5433070866141733
        },
        {
          "duration": 0.011627906976743319,
          "durationTicks": 1,
          "midi": 48,
          "name": "C3",
          "ticks": 1322,
          "time": 15.372093023255815,
          "velocity": 0.5196850393700787
        },
        {
          "duration": 0.023255813953488413,
          "durationTicks": 2,
          "midi": 31,
          "name": "G1",
          "ticks": 1323,
          "time": 15.383720930232558,
          "velocity": 0.7165354330708661
        },
        {
          "duration": 0.023255813953488413,
          "durationTicks": 2,
          "midi": 57,
          "name": "A3",
          "ticks": 1323,
          "time": 15.383720930232558,
          "velocity": 0.48031496062992124
        },
        {
          "duration": 0.011627906976743319,
          "durationTicks": 1,
          "midi": 41,
          "name": "F2",
          "ticks": 1324,
          "time": 15.395348837209303,
          "velocity": 0.5196850393700787
        },
        {
          "duration": 0.011627906976745095,
          "durationTicks": 1,
          "midi": 33,
          "name": "A1",
          "ticks": 1325,
          "time": 15.406976744186046,
          "velocity": 0.7480314960629921
        },
        {
          "duration": 0.023255813953488413,
          "durationTicks": 2,
          "midi": 56,
          "name": "G#3",
          "ticks": 1325,
          "time": 15.406976744186046,
          "velocity": 0.44881889763779526
        },
        {
          "duration": 0.011627906976743319,
          "durationTicks": 1,
          "midi": 36,
          "name": "C2",
          "ticks": 1326,
          "time": 15.418604651162791,
          "velocity": 0.7559055118110236
        },
        {
          "duration": 0.011627906976745095,
          "durationTicks": 1,
          "midi": 37,
          "name": "C#2",
          "ticks": 1327,
          "time": 15.430232558139535,
          "velocity": 0.6929133858267716
        },
        {
          "duration": 0.011627906976743319,
          "durationTicks": 1,
          "midi": 35,
          "name": "B1",
          "ticks": 1328,
          "time": 15.44186046511628,
          "velocity": 0.6614173228346457
        },
        {
          "duration": 0.011627906976745095,
          "durationTicks": 1,
          "midi": 34,
          "name": "A#1",
          "ticks": 1329,
          "time": 15.453488372093023,
          "velocity": 0.6929133858267716
        },
        {
          "duration": 0.011627906976743319,
          "durationTicks": 1,
          "midi": 35,
          "name": "B1",
          "ticks": 1330,
          "time": 15.465116279069768,
          "velocity": 0.6929133858267716
        },
        {
          "duration": 0.011627906976743319,
          "durationTicks": 1,
          "midi": 50,
          "name": "D3",
          "ticks": 1330,
          "time": 15.465116279069768,
          "velocity": 0.5118110236220472
        },
        {
          "duration": 0.011627906976745095,
          "durationTicks": 1,
          "midi": 36,
          "name": "C2",
          "ticks": 1331,
          "time": 15.476744186046512,
          "velocity": 0.6220472440944882
        },
        {
          "duration": 0.011627906976745095,
          "durationTicks": 1,
          "midi": 49,
          "name": "C#3",
          "ticks": 1331,
          "time": 15.476744186046512,
          "velocity": 0.5118110236220472
        },
        {
          "duration": 0.011627906976743319,
          "durationTicks": 1,
          "midi": 33,
          "name": "A1",
          "ticks": 1332,
          "time": 15.488372093023257,
          "velocity": 0.5905511811023622
        },
        {
          "duration": 0.011627906976743319,
          "durationTicks": 1,
          "midi": 44,
          "name": "G#2",
          "ticks": 1332,
          "time": 15.488372093023257,
          "velocity": 0.5354330708661418
        },
        {
          "duration": 0.011627906976743319,
          "durationTicks": 1,
          "midi": 34,
          "name": "A#1",
          "ticks": 1333,
          "time": 15.5,
          "velocity": 0.6377952755905512
        },
        {
          "duration": 0.011627906976745095,
          "durationTicks": 1,
          "midi": 35,
          "name": "B1",
          "ticks": 1334,
          "time": 15.511627906976743,
          "velocity": 0.5826771653543307
        },
        {
          "duration": 0.04651162790697683,
          "durationTicks": 4,
          "midi": 62,
          "name": "D4",
          "ticks": 1334,
          "time": 15.511627906976743,
          "velocity": 0.1889763779527559
        },
        {
          "duration": 0.011627906976743319,
          "durationTicks": 1,
          "midi": 31,
          "name": "G1",
          "ticks": 1335,
          "time": 15.523255813953488,
          "velocity": 0.5275590551181102
        },
        {
          "duration": 0.011627906976743319,
          "durationTicks": 1,
          "midi": 41,
          "name": "F2",
          "ticks": 1335,
          "time": 15.523255813953488,
          "velocity": 0.5433070866141733
        },
        {
          "duration": 0.011627906976745095,
          "durationTicks": 1,
          "midi": 42,
          "name": "F#2",
          "ticks": 1336,
          "time": 15.534883720930232,
          "velocity": 0.5511811023622047
        },
        {
          "duration": 0.011627906976743319,
          "durationTicks": 1,
          "midi": 29,
          "name": "F1",
          "ticks": 1337,
          "time": 15.546511627906977,
          "velocity": 0.5118110236220472
        },
        {
          "duration": 0.011627906976743319,
          "durationTicks": 1,
          "midi": 41,
          "name": "F2",
          "ticks": 1337,
          "time": 15.546511627906977,
          "velocity": 0.5354330708661418
        },
        {
          "duration": 0.011627906976745095,
          "durationTicks": 1,
          "midi": 36,
          "name": "C2",
          "ticks": 1338,
          "time": 15.55813953488372,
          "velocity": 0.5433070866141733
        },
        {
          "duration": 0.023255813953488413,
          "durationTicks": 2,
          "midi": 31,
          "name": "G1",
          "ticks": 1339,
          "time": 15.569767441860465,
          "velocity": 0.5905511811023622
        },
        {
          "duration": 0.023255813953488413,
          "durationTicks": 2,
          "midi": 55,
          "name": "G3",
          "ticks": 1339,
          "time": 15.569767441860465,
          "velocity": 0.2440944881889764
        },
        {
          "duration": 0.011627906976743319,
          "durationTicks": 1,
          "midi": 30,
          "name": "F#1",
          "ticks": 1341,
          "time": 15.593023255813954,
          "velocity": 0.5433070866141733
        },
        {
          "duration": 0.011627906976743319,
          "durationTicks": 1,
          "midi": 45,
          "name": "A2",
          "ticks": 1341,
          "time": 15.593023255813954,
          "velocity": 0.5118110236220472
        },
        {
          "duration": 0.06976744186046524,
          "durationTicks": 6,
          "midi": 56,
          "name": "G#3",
          "ticks": 1341,
          "time": 15.593023255813954,
          "velocity": 0.3543307086614173
        },
        {
          "duration": 0.011627906976745095,
          "durationTicks": 1,
          "midi": 28,
          "name": "E1",
          "ticks": 1342,
          "time": 15.604651162790697,
          "velocity": 0.5196850393700787
        },
        {
          "duration": 0.011627906976745095,
          "durationTicks": 1,
          "midi": 41,
          "name": "F2",
          "ticks": 1342,
          "time": 15.604651162790697,
          "velocity": 0.5590551181102362
        },
        {
          "duration": 0.011627906976743319,
          "durationTicks": 1,
          "midi": 37,
          "name": "C#2",
          "ticks": 1343,
          "time": 15.616279069767442,
          "velocity": 0.5748031496062992
        },
        {
          "duration": 0.023255813953488413,
          "durationTicks": 2,
          "midi": 32,
          "name": "G#1",
          "ticks": 1344,
          "time": 15.627906976744185,
          "velocity": 0.6220472440944882
        },
        {
          "duration": 0.023255813953488413,
          "durationTicks": 2,
          "midi": 48,
          "name": "C3",
          "ticks": 1345,
          "time": 15.63953488372093,
          "velocity": 0.3464566929133858
        },
        {
          "duration": 0.011627906976745095,
          "durationTicks": 1,
          "midi": 35,
          "name": "B1",
          "ticks": 1346,
          "time": 15.651162790697674,
          "velocity": 0.5669291338582677
        },
        {
          "duration": 0.05813953488372192,
          "durationTicks": 5,
          "midi": 62,
          "name": "D4",
          "ticks": 1346,
          "time": 15.651162790697674,
          "velocity": 0.2755905511811024
        },
        {
          "duration": 0.04651162790697683,
          "durationTicks": 4,
          "midi": 56,
          "name": "G#3",
          "ticks": 1348,
          "time": 15.674418604651162,
          "velocity": 0.23622047244094488
        },
        {
          "duration": 0.011627906976743319,
          "durationTicks": 1,
          "midi": 35,
          "name": "B1",
          "ticks": 1349,
          "time": 15.686046511627907,
          "velocity": 0.5590551181102362
        },
        {
          "duration": 0.011627906976745095,
          "durationTicks": 1,
          "midi": 31,
          "name": "G1",
          "ticks": 1350,
          "time": 15.69767441860465,
          "velocity": 0.5511811023622047
        },
        {
          "duration": 0.023255813953488413,
          "durationTicks": 2,
          "midi": 50,
          "name": "D3",
          "ticks": 1350,
          "time": 15.69767441860465,
          "velocity": 0.3543307086614173
        },
        {
          "duration": 0.023255813953488413,
          "durationTicks": 2,
          "midi": 30,
          "name": "F#1",
          "ticks": 1351,
          "time": 15.709302325581396,
          "velocity": 0.5196850393700787
        },
        {
          "duration": 0.023255813953488413,
          "durationTicks": 2,
          "midi": 41,
          "name": "F2",
          "ticks": 1352,
          "time": 15.720930232558139,
          "velocity": 0.5748031496062992
        },
        {
          "duration": 0.023255813953488413,
          "durationTicks": 2,
          "midi": 51,
          "name": "D#3",
          "ticks": 1352,
          "time": 15.720930232558139,
          "velocity": 0.3228346456692913
        },
        {
          "duration": 0.03488372093023351,
          "durationTicks": 3,
          "midi": 62,
          "name": "D4",
          "ticks": 1352,
          "time": 15.720930232558139,
          "velocity": 0.12598425196850394
        },
        {
          "duration": 0.023255813953488413,
          "durationTicks": 2,
          "midi": 40,
          "name": "E2",
          "ticks": 1354,
          "time": 15.744186046511627,
          "velocity": 0.5748031496062992
        },
        {
          "duration": 0.011627906976743319,
          "durationTicks": 1,
          "midi": 32,
          "name": "G#1",
          "ticks": 1357,
          "time": 15.779069767441861,
          "velocity": 0.5196850393700787
        },
        {
          "duration": 0.011627906976745095,
          "durationTicks": 1,
          "midi": 35,
          "name": "B1",
          "ticks": 1358,
          "time": 15.790697674418604,
          "velocity": 0.5984251968503937
        },
        {
          "duration": 0.011627906976743319,
          "durationTicks": 1,
          "midi": 39,
          "name": "D#2",
          "ticks": 1359,
          "time": 15.80232558139535,
          "velocity": 0.5196850393700787
        },
        {
          "duration": 0.03488372093023173,
          "durationTicks": 3,
          "midi": 35,
          "name": "B1",
          "ticks": 1361,
          "time": 15.825581395348838,
          "velocity": 0.5826771653543307
        },
        {
          "duration": 0.023255813953488413,
          "durationTicks": 2,
          "midi": 55,
          "name": "G3",
          "ticks": 1362,
          "time": 15.837209302325581,
          "velocity": 0.28346456692913385
        },
        {
          "duration": 0.023255813953488413,
          "durationTicks": 2,
          "midi": 44,
          "name": "G#2",
          "ticks": 1363,
          "time": 15.848837209302326,
          "velocity": 0.5511811023622047
        },
        {
          "duration": 0.011627906976745095,
          "durationTicks": 1,
          "midi": 33,
          "name": "A1",
          "ticks": 1364,
          "time": 15.86046511627907,
          "velocity": 0.5826771653543307
        },
        {
          "duration": 0.023255813953488413,
          "durationTicks": 2,
          "midi": 57,
          "name": "A3",
          "ticks": 1364,
          "time": 15.86046511627907,
          "velocity": 0.4094488188976378
        },
        {
          "duration": 0.011627906976743319,
          "durationTicks": 1,
          "midi": 30,
          "name": "F#1",
          "ticks": 1365,
          "time": 15.872093023255815,
          "velocity": 0.5354330708661418
        },
        {
          "duration": 0.023255813953488413,
          "durationTicks": 2,
          "midi": 41,
          "name": "F2",
          "ticks": 1365,
          "time": 15.872093023255815,
          "velocity": 0.6614173228346457
        },
        {
          "duration": 0.023255813953488413,
          "durationTicks": 2,
          "midi": 63,
          "name": "D#4",
          "ticks": 1365,
          "time": 15.872093023255815,
          "velocity": 0.3779527559055118
        },
        {
          "duration": 0.03488372093023173,
          "durationTicks": 3,
          "midi": 67,
          "name": "G4",
          "ticks": 1365,
          "time": 15.872093023255815,
          "velocity": 0.2992125984251969
        },
        {
          "duration": 0.011627906976743319,
          "durationTicks": 1,
          "midi": 37,
          "name": "C#2",
          "ticks": 1367,
          "time": 15.895348837209303,
          "velocity": 0.6377952755905512
        },
        {
          "duration": 0.023255813953488413,
          "durationTicks": 2,
          "midi": 62,
          "name": "D4",
          "ticks": 1367,
          "time": 15.895348837209303,
          "velocity": 0.3858267716535433
        },
        {
          "duration": 0.011627906976745095,
          "durationTicks": 1,
          "midi": 35,
          "name": "B1",
          "ticks": 1368,
          "time": 15.906976744186046,
          "velocity": 0.5354330708661418
        },
        {
          "duration": 0.011627906976745095,
          "durationTicks": 1,
          "midi": 43,
          "name": "G2",
          "ticks": 1368,
          "time": 15.906976744186046,
          "velocity": 0.5196850393700787
        },
        {
          "duration": 0.011627906976743319,
          "durationTicks": 1,
          "midi": 34,
          "name": "A#1",
          "ticks": 1369,
          "time": 15.918604651162791,
          "velocity": 0.6299212598425197
        },
        {
          "duration": 0.011627906976745095,
          "durationTicks": 1,
          "midi": 37,
          "name": "C#2",
          "ticks": 1370,
          "time": 15.930232558139535,
          "velocity": 0.7007874015748031
        },
        {
          "duration": 0.023255813953488413,
          "durationTicks": 2,
          "midi": 53,
          "name": "F3",
          "ticks": 1370,
          "time": 15.930232558139535,
          "velocity": 0.3779527559055118
        },
        {
          "duration": 0.11627906976744207,
          "durationTicks": 10,
          "midi": 62,
          "name": "D4",
          "ticks": 1370,
          "time": 15.930232558139535,
          "velocity": 0.25984251968503935
        },
        {
          "duration": 0.011627906976743319,
          "durationTicks": 1,
          "midi": 35,
          "name": "B1",
          "ticks": 1371,
          "time": 15.94186046511628,
          "velocity": 0.7007874015748031
        },
        {
          "duration": 0.011627906976745095,
          "durationTicks": 1,
          "midi": 34,
          "name": "A#1",
          "ticks": 1372,
          "time": 15.953488372093023,
          "velocity": 0.7086614173228346
        },
        {
          "duration": 0.023255813953488413,
          "durationTicks": 2,
          "midi": 36,
          "name": "C2",
          "ticks": 1373,
          "time": 15.965116279069768,
          "velocity": 0.7244094488188977
        },
        {
          "duration": 0.011627906976743319,
          "durationTicks": 1,
          "midi": 34,
          "name": "A#1",
          "ticks": 1375,
          "time": 15.988372093023257,
          "velocity": 0.6692913385826772
        },
        {
          "duration": 0.011627906976745095,
          "durationTicks": 1,
          "midi": 35,
          "name": "B1",
          "ticks": 1376,
          "time": 16,
          "velocity": 0.6929133858267716
        },
        {
          "duration": 0.023255813953486637,
          "durationTicks": 2,
          "midi": 56,
          "name": "G#3",
          "ticks": 1376,
          "time": 16,
          "velocity": 0.23622047244094488
        },
        {
          "duration": 0.04651162790697683,
          "durationTicks": 4,
          "midi": 36,
          "name": "C2",
          "ticks": 1377,
          "time": 16.011627906976745,
          "velocity": 0.6614173228346457
        },
        {
          "duration": 0.02325581395349019,
          "durationTicks": 2,
          "midi": 50,
          "name": "D3",
          "ticks": 1378,
          "time": 16.023255813953487,
          "velocity": 0.30708661417322836
        },
        {
          "duration": 0.023255813953486637,
          "durationTicks": 2,
          "midi": 35,
          "name": "B1",
          "ticks": 1381,
          "time": 16.058139534883722,
          "velocity": 0.5354330708661418
        },
        {
          "duration": 0.023255813953486637,
          "durationTicks": 2,
          "midi": 53,
          "name": "F3",
          "ticks": 1381,
          "time": 16.058139534883722,
          "velocity": 0.2440944881889764
        },
        {
          "duration": 0.02325581395349019,
          "durationTicks": 2,
          "midi": 37,
          "name": "C#2",
          "ticks": 1383,
          "time": 16.08139534883721,
          "velocity": 0.36220472440944884
        },
        {
          "duration": 0.023255813953486637,
          "durationTicks": 2,
          "midi": 48,
          "name": "C3",
          "ticks": 1384,
          "time": 16.093023255813954,
          "velocity": 0.28346456692913385
        },
        {
          "duration": 0.02325581395349019,
          "durationTicks": 2,
          "midi": 42,
          "name": "F#2",
          "ticks": 1387,
          "time": 16.127906976744185,
          "velocity": 0.4645669291338583
        },
        {
          "duration": 0.023255813953486637,
          "durationTicks": 2,
          "midi": 60,
          "name": "C4",
          "ticks": 1388,
          "time": 16.13953488372093,
          "velocity": 0.2677165354330709
        },
        {
          "duration": 0.03488372093023173,
          "durationTicks": 3,
          "midi": 68,
          "name": "G#4",
          "ticks": 1388,
          "time": 16.13953488372093,
          "velocity": 0.14960629921259844
        },
        {
          "duration": 0.011627906976741542,
          "durationTicks": 1,
          "midi": 41,
          "name": "F2",
          "ticks": 1389,
          "time": 16.151162790697676,
          "velocity": 0.5748031496062992
        },
        {
          "duration": 0.023255813953486637,
          "durationTicks": 2,
          "midi": 50,
          "name": "D3",
          "ticks": 1389,
          "time": 16.151162790697676,
          "velocity": 0.2755905511811024
        },
        {
          "duration": 0.011627906976745095,
          "durationTicks": 1,
          "midi": 40,
          "name": "E2",
          "ticks": 1390,
          "time": 16.162790697674417,
          "velocity": 0.5984251968503937
        },
        {
          "duration": 0.011627906976745095,
          "durationTicks": 1,
          "midi": 36,
          "name": "C2",
          "ticks": 1391,
          "time": 16.174418604651162,
          "velocity": 0.5433070866141733
        },
        {
          "duration": 0.03488372093023173,
          "durationTicks": 3,
          "midi": 56,
          "name": "G#3",
          "ticks": 1391,
          "time": 16.174418604651162,
          "velocity": 0.3228346456692913
        },
        {
          "duration": 0.011627906976745095,
          "durationTicks": 1,
          "midi": 32,
          "name": "G#1",
          "ticks": 1392,
          "time": 16.186046511627907,
          "velocity": 0.5669291338582677
        },
        {
          "duration": 0.011627906976741542,
          "durationTicks": 1,
          "midi": 35,
          "name": "B1",
          "ticks": 1393,
          "time": 16.197674418604652,
          "velocity": 0.5905511811023622
        },
        {
          "duration": 0.05813953488371837,
          "durationTicks": 5,
          "midi": 62,
          "name": "D4",
          "ticks": 1393,
          "time": 16.197674418604652,
          "velocity": 0.25196850393700787
        },
        {
          "duration": 0.023255813953486637,
          "durationTicks": 2,
          "midi": 36,
          "name": "C2",
          "ticks": 1396,
          "time": 16.232558139534884,
          "velocity": 0.6377952755905512
        },
        {
          "duration": 0.011627906976745095,
          "durationTicks": 1,
          "midi": 34,
          "name": "A#1",
          "ticks": 1398,
          "time": 16.25581395348837,
          "velocity": 0.5826771653543307
        },
        {
          "duration": 0.011627906976745095,
          "durationTicks": 1,
          "midi": 35,
          "name": "B1",
          "ticks": 1399,
          "time": 16.267441860465116,
          "velocity": 0.5590551181102362
        },
        {
          "duration": 0.04651162790697683,
          "durationTicks": 4,
          "midi": 62,
          "name": "D4",
          "ticks": 1399,
          "time": 16.267441860465116,
          "velocity": 0.14173228346456693
        },
        {
          "duration": 0.011627906976745095,
          "durationTicks": 1,
          "midi": 38,
          "name": "D2",
          "ticks": 1400,
          "time": 16.27906976744186,
          "velocity": 0.5826771653543307
        },
        {
          "duration": 0.011627906976741542,
          "durationTicks": 1,
          "midi": 37,
          "name": "C#2",
          "ticks": 1401,
          "time": 16.290697674418606,
          "velocity": 0.5905511811023622
        },
        {
          "duration": 0.011627906976745095,
          "durationTicks": 1,
          "midi": 33,
          "name": "A1",
          "ticks": 1402,
          "time": 16.302325581395348,
          "velocity": 0.5196850393700787
        },
        {
          "duration": 0.011627906976745095,
          "durationTicks": 1,
          "midi": 34,
          "name": "A#1",
          "ticks": 1406,
          "time": 16.348837209302324,
          "velocity": 0.5275590551181102
        },
        {
          "duration": 0.023255813953486637,
          "durationTicks": 2,
          "midi": 29,
          "name": "F1",
          "ticks": 1408,
          "time": 16.372093023255815,
          "velocity": 0.48031496062992124
        },
        {
          "duration": 0.02325581395349019,
          "durationTicks": 2,
          "midi": 34,
          "name": "A#1",
          "ticks": 1410,
          "time": 16.3953488372093,
          "velocity": 0.6220472440944882
        },
        {
          "duration": 0.034883720930235285,
          "durationTicks": 3,
          "midi": 51,
          "name": "D#3",
          "ticks": 1410,
          "time": 16.3953488372093,
          "velocity": 0.5826771653543307
        },
        {
          "duration": 0.04651162790697683,
          "durationTicks": 4,
          "midi": 74,
          "name": "D5",
          "ticks": 1410,
          "time": 16.3953488372093,
          "velocity": 0.18110236220472442
        },
        {
          "duration": 0.02325581395349019,
          "durationTicks": 2,
          "midi": 64,
          "name": "E4",
          "ticks": 1411,
          "time": 16.406976744186046,
          "velocity": 0.2992125984251969
        },
        {
          "duration": 0.011627906976745095,
          "durationTicks": 1,
          "midi": 33,
          "name": "A1",
          "ticks": 1412,
          "time": 16.41860465116279,
          "velocity": 0.5905511811023622
        },
        {
          "duration": 0.03488372093023173,
          "durationTicks": 3,
          "midi": 68,
          "name": "G#4",
          "ticks": 1412,
          "time": 16.41860465116279,
          "velocity": 0.29133858267716534
        },
        {
          "duration": 0.03488372093023173,
          "durationTicks": 3,
          "midi": 70,
          "name": "A#4",
          "ticks": 1412,
          "time": 16.41860465116279,
          "velocity": 0.1889763779527559
        },
        {
          "duration": 0.011627906976741542,
          "durationTicks": 1,
          "midi": 32,
          "name": "G#1",
          "ticks": 1413,
          "time": 16.430232558139537,
          "velocity": 0.5826771653543307
        },
        {
          "duration": 0.023255813953486637,
          "durationTicks": 2,
          "midi": 50,
          "name": "D3",
          "ticks": 1413,
          "time": 16.430232558139537,
          "velocity": 0.4645669291338583
        },
        {
          "duration": 0.04651162790697683,
          "durationTicks": 4,
          "midi": 56,
          "name": "G#3",
          "ticks": 1413,
          "time": 16.430232558139537,
          "velocity": 0.4881889763779528
        },
        {
          "duration": 0.011627906976745095,
          "durationTicks": 1,
          "midi": 41,
          "name": "F2",
          "ticks": 1414,
          "time": 16.441860465116278,
          "velocity": 0.6614173228346457
        },
        {
          "duration": 0.011627906976745095,
          "durationTicks": 1,
          "midi": 40,
          "name": "E2",
          "ticks": 1415,
          "time": 16.453488372093023,
          "velocity": 0.6141732283464567
        },
        {
          "duration": 0.011627906976745095,
          "durationTicks": 1,
          "midi": 33,
          "name": "A1",
          "ticks": 1416,
          "time": 16.46511627906977,
          "velocity": 0.5590551181102362
        },
        {
          "duration": 0.011627906976745095,
          "durationTicks": 1,
          "midi": 41,
          "name": "F2",
          "ticks": 1416,
          "time": 16.46511627906977,
          "velocity": 0.5433070866141733
        },
        {
          "duration": 0.011627906976745095,
          "durationTicks": 1,
          "midi": 48,
          "name": "C3",
          "ticks": 1416,
          "time": 16.46511627906977,
          "velocity": 0.5118110236220472
        },
        {
          "duration": 0.023255813953486637,
          "durationTicks": 2,
          "midi": 31,
          "name": "G1",
          "ticks": 1417,
          "time": 16.476744186046513,
          "velocity": 0.7086614173228346
        },
        {
          "duration": 0.011627906976741542,
          "durationTicks": 1,
          "midi": 49,
          "name": "C#3",
          "ticks": 1417,
          "time": 16.476744186046513,
          "velocity": 0.5118110236220472
        },
        {
          "duration": 0.011627906976745095,
          "durationTicks": 1,
          "midi": 41,
          "name": "F2",
          "ticks": 1418,
          "time": 16.488372093023255,
          "velocity": 0.5118110236220472
        },
        {
          "duration": 0.03488372093023173,
          "durationTicks": 3,
          "midi": 56,
          "name": "G#3",
          "ticks": 1418,
          "time": 16.488372093023255,
          "velocity": 0.44881889763779526
        },
        {
          "duration": 0.011627906976745095,
          "durationTicks": 1,
          "midi": 33,
          "name": "A1",
          "ticks": 1419,
          "time": 16.5,
          "velocity": 0.7480314960629921
        },
        {
          "duration": 0.011627906976741542,
          "durationTicks": 1,
          "midi": 36,
          "name": "C2",
          "ticks": 1420,
          "time": 16.511627906976745,
          "velocity": 0.7480314960629921
        },
        {
          "duration": 0.011627906976745095,
          "durationTicks": 1,
          "midi": 37,
          "name": "C#2",
          "ticks": 1421,
          "time": 16.523255813953487,
          "velocity": 0.6850393700787402
        },
        {
          "duration": 0.011627906976745095,
          "durationTicks": 1,
          "midi": 35,
          "name": "B1",
          "ticks": 1422,
          "time": 16.53488372093023,
          "velocity": 0.6535433070866141
        },
        {
          "duration": 0.02325581395349019,
          "durationTicks": 2,
          "midi": 52,
          "name": "E3",
          "ticks": 1422,
          "time": 16.53488372093023,
          "velocity": 0.4566929133858268
        },
        {
          "duration": 0.011627906976745095,
          "durationTicks": 1,
          "midi": 34,
          "name": "A#1",
          "ticks": 1423,
          "time": 16.546511627906977,
          "velocity": 0.6850393700787402
        },
        {
          "duration": 0.011627906976741542,
          "durationTicks": 1,
          "midi": 35,
          "name": "B1",
          "ticks": 1424,
          "time": 16.558139534883722,
          "velocity": 0.6771653543307087
        },
        {
          "duration": 0.011627906976741542,
          "durationTicks": 1,
          "midi": 50,
          "name": "D3",
          "ticks": 1424,
          "time": 16.558139534883722,
          "velocity": 0.5118110236220472
        },
        {
          "duration": 0.011627906976745095,
          "durationTicks": 1,
          "midi": 36,
          "name": "C2",
          "ticks": 1425,
          "time": 16.569767441860463,
          "velocity": 0.6062992125984252
        },
        {
          "duration": 0.011627906976745095,
          "durationTicks": 1,
          "midi": 49,
          "name": "C#3",
          "ticks": 1425,
          "time": 16.569767441860463,
          "velocity": 0.5118110236220472
        },
        {
          "duration": 0.011627906976745095,
          "durationTicks": 1,
          "midi": 33,
          "name": "A1",
          "ticks": 1426,
          "time": 16.58139534883721,
          "velocity": 0.5826771653543307
        },
        {
          "duration": 0.011627906976745095,
          "durationTicks": 1,
          "midi": 44,
          "name": "G#2",
          "ticks": 1426,
          "time": 16.58139534883721,
          "velocity": 0.5275590551181102
        },
        {
          "duration": 0.011627906976745095,
          "durationTicks": 1,
          "midi": 34,
          "name": "A#1",
          "ticks": 1427,
          "time": 16.593023255813954,
          "velocity": 0.6299212598425197
        },
        {
          "duration": 0.011627906976741542,
          "durationTicks": 1,
          "midi": 35,
          "name": "B1",
          "ticks": 1428,
          "time": 16.6046511627907,
          "velocity": 0.5669291338582677
        },
        {
          "duration": 0.04651162790697683,
          "durationTicks": 4,
          "midi": 62,
          "name": "D4",
          "ticks": 1428,
          "time": 16.6046511627907,
          "velocity": 0.18110236220472442
        },
        {
          "duration": 0.011627906976745095,
          "durationTicks": 1,
          "midi": 31,
          "name": "G1",
          "ticks": 1429,
          "time": 16.61627906976744,
          "velocity": 0.5196850393700787
        },
        {
          "duration": 0.011627906976745095,
          "durationTicks": 1,
          "midi": 41,
          "name": "F2",
          "ticks": 1429,
          "time": 16.61627906976744,
          "velocity": 0.5511811023622047
        },
        {
          "duration": 0.011627906976745095,
          "durationTicks": 1,
          "midi": 42,
          "name": "F#2",
          "ticks": 1430,
          "time": 16.627906976744185,
          "velocity": 0.5433070866141733
        },
        {
          "duration": 0.011627906976745095,
          "durationTicks": 1,
          "midi": 29,
          "name": "F1",
          "ticks": 1431,
          "time": 16.63953488372093,
          "velocity": 0.5118110236220472
        },
        {
          "duration": 0.011627906976745095,
          "durationTicks": 1,
          "midi": 41,
          "name": "F2",
          "ticks": 1431,
          "time": 16.63953488372093,
          "velocity": 0.5275590551181102
        },
        {
          "duration": 0.011627906976741542,
          "durationTicks": 1,
          "midi": 30,
          "name": "F#1",
          "ticks": 1432,
          "time": 16.651162790697676,
          "velocity": 0.5433070866141733
        },
        {
          "duration": 0.023255813953486637,
          "durationTicks": 2,
          "midi": 48,
          "name": "C3",
          "ticks": 1432,
          "time": 16.651162790697676,
          "velocity": 0.48031496062992124
        },
        {
          "duration": 0.02325581395349019,
          "durationTicks": 2,
          "midi": 31,
          "name": "G1",
          "ticks": 1433,
          "time": 16.662790697674417,
          "velocity": 0.5826771653543307
        },
        {
          "duration": 0.02325581395349019,
          "durationTicks": 2,
          "midi": 55,
          "name": "G3",
          "ticks": 1433,
          "time": 16.662790697674417,
          "velocity": 0.2440944881889764
        },
        {
          "duration": 0.03488372093023173,
          "durationTicks": 3,
          "midi": 64,
          "name": "E4",
          "ticks": 1434,
          "time": 16.674418604651162,
          "velocity": 0.1889763779527559
        },
        {
          "duration": 0.03488372093023173,
          "durationTicks": 3,
          "midi": 78,
          "name": "F#5",
          "ticks": 1434,
          "time": 16.674418604651162,
          "velocity": 0.2204724409448819
        },
        {
          "duration": 0.04651162790697683,
          "durationTicks": 4,
          "midi": 83,
          "name": "B5",
          "ticks": 1434,
          "time": 16.674418604651162,
          "velocity": 0.2440944881889764
        },
        {
          "duration": 0.03488372093023173,
          "durationTicks": 3,
          "midi": 87,
          "name": "D#6",
          "ticks": 1434,
          "time": 16.674418604651162,
          "velocity": 0.2047244094488189
        },
        {
          "duration": 0.05813953488372192,
          "durationTicks": 5,
          "midi": 92,
          "name": "G#6",
          "ticks": 1434,
          "time": 16.674418604651162,
          "velocity": 0.15748031496062992
        },
        {
          "duration": 0.04651162790697683,
          "durationTicks": 4,
          "midi": 94,
          "name": "A#6",
          "ticks": 1434,
          "time": 16.674418604651162,
          "velocity": 0.18110236220472442
        },
        {
          "duration": 0.05813953488372192,
          "durationTicks": 5,
          "midi": 97,
          "name": "C#7",
          "ticks": 1434,
          "time": 16.674418604651162,
          "velocity": 0.14173228346456693
        },
        {
          "duration": 0.05813953488372192,
          "durationTicks": 5,
          "midi": 98,
          "name": "D7",
          "ticks": 1434,
          "time": 16.674418604651162,
          "velocity": 0.2047244094488189
        },
        {
          "duration": 0.06976744186046702,
          "durationTicks": 6,
          "midi": 99,
          "name": "D#7",
          "ticks": 1434,
          "time": 16.674418604651162,
          "velocity": 0.23622047244094488
        },
        {
          "duration": 0.04651162790697683,
          "durationTicks": 4,
          "midi": 100,
          "name": "E7",
          "ticks": 1434,
          "time": 16.674418604651162,
          "velocity": 0.23622047244094488
        },
        {
          "duration": 0.011627906976745095,
          "durationTicks": 1,
          "midi": 30,
          "name": "F#1",
          "ticks": 1435,
          "time": 16.686046511627907,
          "velocity": 0.5433070866141733
        },
        {
          "duration": 0.04651162790697683,
          "durationTicks": 4,
          "midi": 56,
          "name": "G#3",
          "ticks": 1435,
          "time": 16.686046511627907,
          "velocity": 0.2992125984251969
        },
        {
          "duration": 0.04651162790697683,
          "durationTicks": 4,
          "midi": 88,
          "name": "E6",
          "ticks": 1435,
          "time": 16.686046511627907,
          "velocity": 0.14960629921259844
        },
        {
          "duration": 0.05813953488372192,
          "durationTicks": 5,
          "midi": 89,
          "name": "F6",
          "ticks": 1435,
          "time": 16.686046511627907,
          "velocity": 0.2204724409448819
        },
        {
          "duration": 0.04651162790697683,
          "durationTicks": 4,
          "midi": 96,
          "name": "C7",
          "ticks": 1435,
          "time": 16.686046511627907,
          "velocity": 0.15748031496062992
        },
        {
          "duration": 0.011627906976741542,
          "durationTicks": 1,
          "midi": 28,
          "name": "E1",
          "ticks": 1436,
          "time": 16.697674418604652,
          "velocity": 0.5196850393700787
        },
        {
          "duration": 0.011627906976741542,
          "durationTicks": 1,
          "midi": 41,
          "name": "F2",
          "ticks": 1436,
          "time": 16.697674418604652,
          "velocity": 0.5669291338582677
        },
        {
          "duration": 0.011627906976745095,
          "durationTicks": 1,
          "midi": 37,
          "name": "C#2",
          "ticks": 1437,
          "time": 16.709302325581394,
          "velocity": 0.5748031496062992
        },
        {
          "duration": 0.034883720930235285,
          "durationTicks": 3,
          "midi": 90,
          "name": "F#6",
          "ticks": 1437,
          "time": 16.709302325581394,
          "velocity": 0.09448818897637795
        },
        {
          "duration": 0.02325581395349019,
          "durationTicks": 2,
          "midi": 32,
          "name": "G#1",
          "ticks": 1438,
          "time": 16.72093023255814,
          "velocity": 0.6062992125984252
        },
        {
          "duration": 0.08139534883720856,
          "durationTicks": 7,
          "midi": 62,
          "name": "D4",
          "ticks": 1438,
          "time": 16.72093023255814,
          "velocity": 0.28346456692913385
        },
        {
          "duration": 0.03488372093023173,
          "durationTicks": 3,
          "midi": 84,
          "name": "C6",
          "ticks": 1438,
          "time": 16.72093023255814,
          "velocity": 0.12598425196850394
        },
        {
          "duration": 0.03488372093023173,
          "durationTicks": 3,
          "midi": 93,
          "name": "A6",
          "ticks": 1438,
          "time": 16.72093023255814,
          "velocity": 0.12598425196850394
        },
        {
          "duration": 0.011627906976741542,
          "durationTicks": 1,
          "midi": 35,
          "name": "B1",
          "ticks": 1440,
          "time": 16.74418604651163,
          "velocity": 0.5511811023622047
        },
        {
          "duration": 0.02325581395349019,
          "durationTicks": 2,
          "midi": 52,
          "name": "E3",
          "ticks": 1441,
          "time": 16.75581395348837,
          "velocity": 0.2992125984251969
        },
        {
          "duration": 0.011627906976745095,
          "durationTicks": 1,
          "midi": 35,
          "name": "B1",
          "ticks": 1443,
          "time": 16.77906976744186,
          "velocity": 0.5511811023622047
        },
        {
          "duration": 0.03488372093023173,
          "durationTicks": 3,
          "midi": 50,
          "name": "D3",
          "ticks": 1443,
          "time": 16.77906976744186,
          "velocity": 0.3543307086614173
        },
        {
          "duration": 0.011627906976741542,
          "durationTicks": 1,
          "midi": 31,
          "name": "G1",
          "ticks": 1444,
          "time": 16.790697674418606,
          "velocity": 0.5275590551181102
        },
        {
          "duration": 0.02325581395349019,
          "durationTicks": 2,
          "midi": 41,
          "name": "F2",
          "ticks": 1446,
          "time": 16.813953488372093,
          "velocity": 0.5748031496062992
        },
        {
          "duration": 0.02325581395349019,
          "durationTicks": 2,
          "midi": 51,
          "name": "D#3",
          "ticks": 1446,
          "time": 16.813953488372093,
          "velocity": 0.30708661417322836
        },
        {
          "duration": 0.023255813953486637,
          "durationTicks": 2,
          "midi": 40,
          "name": "E2",
          "ticks": 1448,
          "time": 16.837209302325583,
          "velocity": 0.5748031496062992
        },
        {
          "duration": 0.011627906976741542,
          "durationTicks": 1,
          "midi": 35,
          "name": "B1",
          "ticks": 1452,
          "time": 16.88372093023256,
          "velocity": 0.5905511811023622
        },
        {
          "duration": 0.011627906976745095,
          "durationTicks": 1,
          "midi": 36,
          "name": "C2",
          "ticks": 1453,
          "time": 16.8953488372093,
          "velocity": 0.5118110236220472
        },
        {
          "duration": 0.023255813953486637,
          "durationTicks": 2,
          "midi": 35,
          "name": "B1",
          "ticks": 1456,
          "time": 16.930232558139537,
          "velocity": 0.5826771653543307
        },
        {
          "duration": 0.023255813953486637,
          "durationTicks": 2,
          "midi": 55,
          "name": "G3",
          "ticks": 1456,
          "time": 16.930232558139537,
          "velocity": 0.29133858267716534
        },
        {
          "duration": 0.02325581395349019,
          "durationTicks": 2,
          "midi": 44,
          "name": "G#2",
          "ticks": 1457,
          "time": 16.941860465116278,
          "velocity": 0.5433070866141733
        },
        {
          "duration": 0.011627906976745095,
          "durationTicks": 1,
          "midi": 33,
          "name": "A1",
          "ticks": 1458,
          "time": 16.953488372093023,
          "velocity": 0.5826771653543307
        },
        {
          "duration": 0.02325581395349019,
          "durationTicks": 2,
          "midi": 57,
          "name": "A3",
          "ticks": 1458,
          "time": 16.953488372093023,
          "velocity": 0.4015748031496063
        },
        {
          "duration": 0.011627906976745095,
          "durationTicks": 1,
          "midi": 30,
          "name": "F#1",
          "ticks": 1459,
          "time": 16.96511627906977,
          "velocity": 0.5433070866141733
        },
        {
          "duration": 0.023255813953486637,
          "durationTicks": 2,
          "midi": 41,
          "name": "F2",
          "ticks": 1459,
          "time": 16.96511627906977,
          "velocity": 0.6614173228346457
        },
        {
          "duration": 0.023255813953486637,
          "durationTicks": 2,
          "midi": 63,
          "name": "D#4",
          "ticks": 1459,
          "time": 16.96511627906977,
          "velocity": 0.3779527559055118
        },
        {
          "duration": 0.03488372093023173,
          "durationTicks": 3,
          "midi": 67,
          "name": "G4",
          "ticks": 1459,
          "time": 16.96511627906977,
          "velocity": 0.2992125984251969
        },
        {
          "duration": 0.011627906976745095,
          "durationTicks": 1,
          "midi": 37,
          "name": "C#2",
          "ticks": 1461,
          "time": 16.988372093023255,
          "velocity": 0.6377952755905512
        },
        {
          "duration": 0.02325581395349019,
          "durationTicks": 2,
          "midi": 62,
          "name": "D4",
          "ticks": 1461,
          "time": 16.988372093023255,
          "velocity": 0.3779527559055118
        },
        {
          "duration": 0.023255813953486637,
          "durationTicks": 2,
          "midi": 35,
          "name": "B1",
          "ticks": 1462,
          "time": 17,
          "velocity": 0.6299212598425197
        },
        {
          "duration": 0.011627906976745095,
          "durationTicks": 1,
          "midi": 37,
          "name": "C#2",
          "ticks": 1464,
          "time": 17.023255813953487,
          "velocity": 0.7007874015748031
        },
        {
          "duration": 0.02325581395349019,
          "durationTicks": 2,
          "midi": 53,
          "name": "F3",
          "ticks": 1464,
          "time": 17.023255813953487,
          "velocity": 0.3779527559055118
        },
        {
          "duration": 0.10465116279069875,
          "durationTicks": 9,
          "midi": 62,
          "name": "D4",
          "ticks": 1464,
          "time": 17.023255813953487,
          "velocity": 0.25984251968503935
        },
        {
          "duration": 0.011627906976745095,
          "durationTicks": 1,
          "midi": 35,
          "name": "B1",
          "ticks": 1465,
          "time": 17.03488372093023,
          "velocity": 0.7007874015748031
        },
        {
          "duration": 0.011627906976745095,
          "durationTicks": 1,
          "midi": 34,
          "name": "A#1",
          "ticks": 1466,
          "time": 17.046511627906977,
          "velocity": 0.7086614173228346
        },
        {
          "duration": 0.023255813953486637,
          "durationTicks": 2,
          "midi": 36,
          "name": "C2",
          "ticks": 1467,
          "time": 17.058139534883722,
          "velocity": 0.7165354330708661
        },
        {
          "duration": 0.011627906976745095,
          "durationTicks": 1,
          "midi": 34,
          "name": "A#1",
          "ticks": 1469,
          "time": 17.08139534883721,
          "velocity": 0.6771653543307087
        },
        {
          "duration": 0.011627906976745095,
          "durationTicks": 1,
          "midi": 35,
          "name": "B1",
          "ticks": 1470,
          "time": 17.093023255813954,
          "velocity": 0.6929133858267716
        },
        {
          "duration": 0.023255813953486637,
          "durationTicks": 2,
          "midi": 56,
          "name": "G#3",
          "ticks": 1470,
          "time": 17.093023255813954,
          "velocity": 0.2283464566929134
        },
        {
          "duration": 0.011627906976741542,
          "durationTicks": 1,
          "midi": 36,
          "name": "C2",
          "ticks": 1471,
          "time": 17.1046511627907,
          "velocity": 0.6456692913385826
        },
        {
          "duration": 0.011627906976745095,
          "durationTicks": 1,
          "midi": 37,
          "name": "C#2",
          "ticks": 1472,
          "time": 17.11627906976744,
          "velocity": 0.5590551181102362
        },
        {
          "duration": 0.02325581395349019,
          "durationTicks": 2,
          "midi": 50,
          "name": "D3",
          "ticks": 1472,
          "time": 17.11627906976744,
          "velocity": 0.2992125984251969
        },
        {
          "duration": 0.034883720930235285,
          "durationTicks": 3,
          "midi": 60,
          "name": "C4",
          "ticks": 1472,
          "time": 17.11627906976744,
          "velocity": 0.07086614173228346
        },
        {
          "duration": 0.011627906976745095,
          "durationTicks": 1,
          "midi": 36,
          "name": "C2",
          "ticks": 1473,
          "time": 17.127906976744185,
          "velocity": 0.5275590551181102
        },
        {
          "duration": 0.03488372093023173,
          "durationTicks": 3,
          "midi": 35,
          "name": "B1",
          "ticks": 1474,
          "time": 17.13953488372093,
          "velocity": 0.5590551181102362
        },
        {
          "duration": 0.023255813953486637,
          "durationTicks": 2,
          "midi": 53,
          "name": "F3",
          "ticks": 1475,
          "time": 17.151162790697676,
          "velocity": 0.2440944881889764
        },
        {
          "duration": 0.02325581395349019,
          "durationTicks": 2,
          "midi": 37,
          "name": "C#2",
          "ticks": 1477,
          "time": 17.174418604651162,
          "velocity": 0.41732283464566927
        },
        {
          "duration": 0.023255813953486637,
          "durationTicks": 2,
          "midi": 48,
          "name": "C3",
          "ticks": 1478,
          "time": 17.186046511627907,
          "velocity": 0.28346456692913385
        },
        {
          "duration": 0.08139534883721211,
          "durationTicks": 7,
          "midi": 91,
          "name": "G6",
          "ticks": 1480,
          "time": 17.209302325581394,
          "velocity": 0.1889763779527559
        },
        {
          "duration": 0.04651162790697683,
          "durationTicks": 4,
          "midi": 78,
          "name": "F#5",
          "ticks": 1481,
          "time": 17.22093023255814,
          "velocity": 0.23622047244094488
        },
        {
          "duration": 0.03488372093023173,
          "durationTicks": 3,
          "midi": 80,
          "name": "G#5",
          "ticks": 1481,
          "time": 17.22093023255814,
          "velocity": 0.13385826771653545
        },
        {
          "duration": 0.04651162790697683,
          "durationTicks": 4,
          "midi": 83,
          "name": "B5",
          "ticks": 1481,
          "time": 17.22093023255814,
          "velocity": 0.23622047244094488
        },
        {
          "duration": 0.03488372093023173,
          "durationTicks": 3,
          "midi": 86,
          "name": "D6",
          "ticks": 1481,
          "time": 17.22093023255814,
          "velocity": 0.25196850393700787
        },
        {
          "duration": 0.04651162790697683,
          "durationTicks": 4,
          "midi": 87,
          "name": "D#6",
          "ticks": 1481,
          "time": 17.22093023255814,
          "velocity": 0.25196850393700787
        },
        {
          "duration": 0.11627906976744384,
          "durationTicks": 10,
          "midi": 90,
          "name": "F#6",
          "ticks": 1481,
          "time": 17.22093023255814,
          "velocity": 0.25196850393700787
        },
        {
          "duration": 0.04651162790697683,
          "durationTicks": 4,
          "midi": 93,
          "name": "A6",
          "ticks": 1481,
          "time": 17.22093023255814,
          "velocity": 0.28346456692913385
        },
        {
          "duration": 0.05813953488372192,
          "durationTicks": 5,
          "midi": 94,
          "name": "A#6",
          "ticks": 1481,
          "time": 17.22093023255814,
          "velocity": 0.29133858267716534
        },
        {
          "duration": 0.06976744186046702,
          "durationTicks": 6,
          "midi": 97,
          "name": "C#7",
          "ticks": 1481,
          "time": 17.22093023255814,
          "velocity": 0.16535433070866143
        },
        {
          "duration": 0.06976744186046702,
          "durationTicks": 6,
          "midi": 100,
          "name": "E7",
          "ticks": 1481,
          "time": 17.22093023255814,
          "velocity": 0.23622047244094488
        },
        {
          "duration": 0.06976744186046702,
          "durationTicks": 6,
          "midi": 101,
          "name": "F7",
          "ticks": 1481,
          "time": 17.22093023255814,
          "velocity": 0.15748031496062992
        },
        {
          "duration": 0.03488372093023173,
          "durationTicks": 3,
          "midi": 51,
          "name": "D#3",
          "ticks": 1482,
          "time": 17.232558139534884,
          "velocity": 0.28346456692913385
        },
        {
          "duration": 0.023255813953486637,
          "durationTicks": 2,
          "midi": 60,
          "name": "C4",
          "ticks": 1482,
          "time": 17.232558139534884,
          "velocity": 0.3228346456692913
        },
        {
          "duration": 0.03488372093023173,
          "durationTicks": 3,
          "midi": 68,
          "name": "G#4",
          "ticks": 1482,
          "time": 17.232558139534884,
          "velocity": 0.18110236220472442
        },
        {
          "duration": 0.03488372093023173,
          "durationTicks": 3,
          "midi": 79,
          "name": "G5",
          "ticks": 1482,
          "time": 17.232558139534884,
          "velocity": 0.11811023622047244
        },
        {
          "duration": 0.10465116279069875,
          "durationTicks": 9,
          "midi": 89,
          "name": "F6",
          "ticks": 1482,
          "time": 17.232558139534884,
          "velocity": 0.2755905511811024
        },
        {
          "duration": 0.05813953488372192,
          "durationTicks": 5,
          "midi": 96,
          "name": "C7",
          "ticks": 1482,
          "time": 17.232558139534884,
          "velocity": 0.09448818897637795
        },
        {
          "duration": 0.011627906976741542,
          "durationTicks": 1,
          "midi": 41,
          "name": "F2",
          "ticks": 1483,
          "time": 17.24418604651163,
          "velocity": 0.5826771653543307
        },
        {
          "duration": 0.05813953488371837,
          "durationTicks": 5,
          "midi": 56,
          "name": "G#3",
          "ticks": 1483,
          "time": 17.24418604651163,
          "velocity": 0.3543307086614173
        },
        {
          "duration": 0.04651162790697683,
          "durationTicks": 4,
          "midi": 82,
          "name": "A#5",
          "ticks": 1483,
          "time": 17.24418604651163,
          "velocity": 0.13385826771653545
        },
        {
          "duration": 0.06976744186046346,
          "durationTicks": 6,
          "midi": 85,
          "name": "C#6",
          "ticks": 1483,
          "time": 17.24418604651163,
          "velocity": 0.2677165354330709
        },
        {
          "duration": 0.011627906976745095,
          "durationTicks": 1,
          "midi": 40,
          "name": "E2",
          "ticks": 1484,
          "time": 17.25581395348837,
          "velocity": 0.6062992125984252
        },
        {
          "duration": 0.05813953488372192,
          "durationTicks": 5,
          "midi": 92,
          "name": "G#6",
          "ticks": 1484,
          "time": 17.25581395348837,
          "velocity": 0.2283464566929134
        },
        {
          "duration": 0.011627906976745095,
          "durationTicks": 1,
          "midi": 35,
          "name": "B1",
          "ticks": 1485,
          "time": 17.267441860465116,
          "velocity": 0.5433070866141733
        },
        {
          "duration": 0.02325581395349019,
          "durationTicks": 2,
          "midi": 60,
          "name": "C4",
          "ticks": 1485,
          "time": 17.267441860465116,
          "velocity": 0.29133858267716534
        },
        {
          "duration": 0.05813953488372192,
          "durationTicks": 5,
          "midi": 77,
          "name": "F5",
          "ticks": 1485,
          "time": 17.267441860465116,
          "velocity": 0.1732283464566929
        },
        {
          "duration": 0.011627906976745095,
          "durationTicks": 1,
          "midi": 31,
          "name": "G1",
          "ticks": 1486,
          "time": 17.27906976744186,
          "velocity": 0.5748031496062992
        },
        {
          "duration": 0.05813953488372192,
          "durationTicks": 5,
          "midi": 93,
          "name": "A6",
          "ticks": 1486,
          "time": 17.27906976744186,
          "velocity": 0.11811023622047244
        },
        {
          "duration": 0.011627906976741542,
          "durationTicks": 1,
          "midi": 35,
          "name": "B1",
          "ticks": 1487,
          "time": 17.290697674418606,
          "velocity": 0.5984251968503937
        },
        {
          "duration": 0.04651162790697683,
          "durationTicks": 4,
          "midi": 62,
          "name": "D4",
          "ticks": 1487,
          "time": 17.290697674418606,
          "velocity": 0.25984251968503935
        },
        {
          "duration": 0.04651162790697683,
          "durationTicks": 4,
          "midi": 36,
          "name": "C2",
          "ticks": 1488,
          "time": 17.302325581395348,
          "velocity": 0.6456692913385826
        },
        {
          "duration": 0.011627906976745095,
          "durationTicks": 1,
          "midi": 34,
          "name": "A#1",
          "ticks": 1492,
          "time": 17.348837209302324,
          "velocity": 0.5905511811023622
        },
        {
          "duration": 0.011627906976745095,
          "durationTicks": 1,
          "midi": 35,
          "name": "B1",
          "ticks": 1493,
          "time": 17.36046511627907,
          "velocity": 0.5511811023622047
        },
        {
          "duration": 0.011627906976745095,
          "durationTicks": 1,
          "midi": 38,
          "name": "D2",
          "ticks": 1494,
          "time": 17.372093023255815,
          "velocity": 0.5748031496062992
        },
        {
          "duration": 0.011627906976741542,
          "durationTicks": 1,
          "midi": 36,
          "name": "C2",
          "ticks": 1495,
          "time": 17.38372093023256,
          "velocity": 0.5826771653543307
        },
        {
          "duration": 0.011627906976745095,
          "durationTicks": 1,
          "midi": 32,
          "name": "G#1",
          "ticks": 1496,
          "time": 17.3953488372093,
          "velocity": 0.5354330708661418
        },
        {
          "duration": 0.011627906976745095,
          "durationTicks": 1,
          "midi": 34,
          "name": "A#1",
          "ticks": 1500,
          "time": 17.441860465116278,
          "velocity": 0.5511811023622047
        },
        {
          "duration": 0.023255813953486637,
          "durationTicks": 2,
          "midi": 60,
          "name": "C4",
          "ticks": 1503,
          "time": 17.476744186046513,
          "velocity": 0.3464566929133858
        },
        {
          "duration": 0.011627906976745095,
          "durationTicks": 1,
          "midi": 33,
          "name": "A1",
          "ticks": 1504,
          "time": 17.488372093023255,
          "velocity": 0.5748031496062992
        },
        {
          "duration": 0.04651162790697683,
          "durationTicks": 4,
          "midi": 74,
          "name": "D5",
          "ticks": 1504,
          "time": 17.488372093023255,
          "velocity": 0.1889763779527559
        },
        {
          "duration": 0.011627906976745095,
          "durationTicks": 1,
          "midi": 34,
          "name": "A#1",
          "ticks": 1505,
          "time": 17.5,
          "velocity": 0.6220472440944882
        },
        {
          "duration": 0.023255813953486637,
          "durationTicks": 2,
          "midi": 51,
          "name": "D#3",
          "ticks": 1505,
          "time": 17.5,
          "velocity": 0.5905511811023622
        },
        {
          "duration": 0.023255813953486637,
          "durationTicks": 2,
          "midi": 64,
          "name": "E4",
          "ticks": 1505,
          "time": 17.5,
          "velocity": 0.31496062992125984
        },
        {
          "duration": 0.011627906976741542,
          "durationTicks": 1,
          "midi": 33,
          "name": "A1",
          "ticks": 1506,
          "time": 17.511627906976745,
          "velocity": 0.5826771653543307
        },
        {
          "duration": 0.023255813953486637,
          "durationTicks": 2,
          "midi": 68,
          "name": "G#4",
          "ticks": 1506,
          "time": 17.511627906976745,
          "velocity": 0.2992125984251969
        },
        {
          "duration": 0.03488372093023173,
          "durationTicks": 3,
          "midi": 70,
          "name": "A#4",
          "ticks": 1506,
          "time": 17.511627906976745,
          "velocity": 0.1968503937007874
        },
        {
          "duration": 0.011627906976745095,
          "durationTicks": 1,
          "midi": 44,
          "name": "G#2",
          "ticks": 1507,
          "time": 17.523255813953487,
          "velocity": 0.5826771653543307
        },
        {
          "duration": 0.02325581395349019,
          "durationTicks": 2,
          "midi": 50,
          "name": "D3",
          "ticks": 1507,
          "time": 17.523255813953487,
          "velocity": 0.47244094488188976
        },
        {
          "duration": 0.011627906976745095,
          "durationTicks": 1,
          "midi": 41,
          "name": "F2",
          "ticks": 1508,
          "time": 17.53488372093023,
          "velocity": 0.6614173228346457
        },
        {
          "duration": 0.011627906976745095,
          "durationTicks": 1,
          "midi": 40,
          "name": "E2",
          "ticks": 1509,
          "time": 17.546511627906977,
          "velocity": 0.6062992125984252
        },
        {
          "duration": 0.011627906976745095,
          "durationTicks": 1,
          "midi": 49,
          "name": "C#3",
          "ticks": 1509,
          "time": 17.546511627906977,
          "velocity": 0.5196850393700787
        },
        {
          "duration": 0.011627906976741542,
          "durationTicks": 1,
          "midi": 32,
          "name": "G#1",
          "ticks": 1510,
          "time": 17.558139534883722,
          "velocity": 0.5748031496062992
        },
        {
          "duration": 0.011627906976741542,
          "durationTicks": 1,
          "midi": 41,
          "name": "F2",
          "ticks": 1510,
          "time": 17.558139534883722,
          "velocity": 0.5590551181102362
        },
        {
          "duration": 0.011627906976741542,
          "durationTicks": 1,
          "midi": 48,
          "name": "C3",
          "ticks": 1510,
          "time": 17.558139534883722,
          "velocity": 0.5118110236220472
        },
        {
          "duration": 0.02325581395349019,
          "durationTicks": 2,
          "midi": 31,
          "name": "G1",
          "ticks": 1511,
          "time": 17.569767441860463,
          "velocity": 0.7165354330708661
        },
        {
          "duration": 0.011627906976745095,
          "durationTicks": 1,
          "midi": 49,
          "name": "C#3",
          "ticks": 1511,
          "time": 17.569767441860463,
          "velocity": 0.5118110236220472
        },
        {
          "duration": 0.034883720930235285,
          "durationTicks": 3,
          "midi": 70,
          "name": "A#4",
          "ticks": 1511,
          "time": 17.569767441860463,
          "velocity": 0.10236220472440945
        },
        {
          "duration": 0.011627906976745095,
          "durationTicks": 1,
          "midi": 41,
          "name": "F2",
          "ticks": 1512,
          "time": 17.58139534883721,
          "velocity": 0.5433070866141733
        },
        {
          "duration": 0.05813953488372192,
          "durationTicks": 5,
          "midi": 56,
          "name": "G#3",
          "ticks": 1512,
          "time": 17.58139534883721,
          "velocity": 0.4566929133858268
        },
        {
          "duration": 0.011627906976745095,
          "durationTicks": 1,
          "midi": 33,
          "name": "A1",
          "ticks": 1513,
          "time": 17.593023255813954,
          "velocity": 0.7480314960629921
        },
        {
          "duration": 0.011627906976741542,
          "durationTicks": 1,
          "midi": 36,
          "name": "C2",
          "ticks": 1514,
          "time": 17.6046511627907,
          "velocity": 0.7480314960629921
        },
        {
          "duration": 0.011627906976745095,
          "durationTicks": 1,
          "midi": 37,
          "name": "C#2",
          "ticks": 1515,
          "time": 17.61627906976744,
          "velocity": 0.6850393700787402
        },
        {
          "duration": 0.011627906976745095,
          "durationTicks": 1,
          "midi": 35,
          "name": "B1",
          "ticks": 1516,
          "time": 17.627906976744185,
          "velocity": 0.6614173228346457
        },
        {
          "duration": 0.02325581395349019,
          "durationTicks": 2,
          "midi": 52,
          "name": "E3",
          "ticks": 1516,
          "time": 17.627906976744185,
          "velocity": 0.4645669291338583
        },
        {
          "duration": 0.011627906976745095,
          "durationTicks": 1,
          "midi": 34,
          "name": "A#1",
          "ticks": 1517,
          "time": 17.63953488372093,
          "velocity": 0.7007874015748031
        },
        {
          "duration": 0.023255813953486637,
          "durationTicks": 2,
          "midi": 36,
          "name": "C2",
          "ticks": 1518,
          "time": 17.651162790697676,
          "velocity": 0.6850393700787402
        },
        {
          "duration": 0.011627906976741542,
          "durationTicks": 1,
          "midi": 50,
          "name": "D3",
          "ticks": 1518,
          "time": 17.651162790697676,
          "velocity": 0.5118110236220472
        },
        {
          "duration": 0.011627906976745095,
          "durationTicks": 1,
          "midi": 49,
          "name": "C#3",
          "ticks": 1519,
          "time": 17.662790697674417,
          "velocity": 0.5118110236220472
        },
        {
          "duration": 0.011627906976745095,
          "durationTicks": 1,
          "midi": 33,
          "name": "A1",
          "ticks": 1520,
          "time": 17.674418604651162,
          "velocity": 0.5984251968503937
        },
        {
          "duration": 0.011627906976745095,
          "durationTicks": 1,
          "midi": 44,
          "name": "G#2",
          "ticks": 1520,
          "time": 17.674418604651162,
          "velocity": 0.5354330708661418
        },
        {
          "duration": 0.011627906976745095,
          "durationTicks": 1,
          "midi": 34,
          "name": "A#1",
          "ticks": 1521,
          "time": 17.686046511627907,
          "velocity": 0.6377952755905512
        },
        {
          "duration": 0.011627906976741542,
          "durationTicks": 1,
          "midi": 32,
          "name": "G#1",
          "ticks": 1522,
          "time": 17.697674418604652,
          "velocity": 0.5905511811023622
        },
        {
          "duration": 0.04651162790697683,
          "durationTicks": 4,
          "midi": 62,
          "name": "D4",
          "ticks": 1522,
          "time": 17.697674418604652,
          "velocity": 0.18110236220472442
        },
        {
          "duration": 0.011627906976745095,
          "durationTicks": 1,
          "midi": 31,
          "name": "G1",
          "ticks": 1523,
          "time": 17.709302325581394,
          "velocity": 0.5433070866141733
        },
        {
          "duration": 0.011627906976745095,
          "durationTicks": 1,
          "midi": 41,
          "name": "F2",
          "ticks": 1523,
          "time": 17.709302325581394,
          "velocity": 0.5433070866141733
        },
        {
          "duration": 0.011627906976745095,
          "durationTicks": 1,
          "midi": 30,
          "name": "F#1",
          "ticks": 1524,
          "time": 17.72093023255814,
          "velocity": 0.5196850393700787
        },
        {
          "duration": 0.011627906976745095,
          "durationTicks": 1,
          "midi": 42,
          "name": "F#2",
          "ticks": 1524,
          "time": 17.72093023255814,
          "velocity": 0.5590551181102362
        },
        {
          "duration": 0.011627906976745095,
          "durationTicks": 1,
          "midi": 29,
          "name": "F1",
          "ticks": 1525,
          "time": 17.732558139534884,
          "velocity": 0.5275590551181102
        },
        {
          "duration": 0.011627906976745095,
          "durationTicks": 1,
          "midi": 41,
          "name": "F2",
          "ticks": 1525,
          "time": 17.732558139534884,
          "velocity": 0.5354330708661418
        },
        {
          "duration": 0.011627906976741542,
          "durationTicks": 1,
          "midi": 30,
          "name": "F#1",
          "ticks": 1526,
          "time": 17.74418604651163,
          "velocity": 0.5590551181102362
        },
        {
          "duration": 0.02325581395349019,
          "durationTicks": 2,
          "midi": 31,
          "name": "G1",
          "ticks": 1527,
          "time": 17.75581395348837,
          "velocity": 0.5984251968503937
        },
        {
          "duration": 0.02325581395349019,
          "durationTicks": 2,
          "midi": 55,
          "name": "G3",
          "ticks": 1527,
          "time": 17.75581395348837,
          "velocity": 0.25196850393700787
        },
        {
          "duration": 0.011627906976745095,
          "durationTicks": 1,
          "midi": 30,
          "name": "F#1",
          "ticks": 1529,
          "time": 17.77906976744186,
          "velocity": 0.5511811023622047
        },
        {
          "duration": 0.04651162790697683,
          "durationTicks": 4,
          "midi": 56,
          "name": "G#3",
          "ticks": 1529,
          "time": 17.77906976744186,
          "velocity": 0.31496062992125984
        },
        {
          "duration": 0.011627906976741542,
          "durationTicks": 1,
          "midi": 28,
          "name": "E1",
          "ticks": 1530,
          "time": 17.790697674418606,
          "velocity": 0.5354330708661418
        },
        {
          "duration": 0.011627906976741542,
          "durationTicks": 1,
          "midi": 41,
          "name": "F2",
          "ticks": 1530,
          "time": 17.790697674418606,
          "velocity": 0.5590551181102362
        },
        {
          "duration": 0.011627906976745095,
          "durationTicks": 1,
          "midi": 29,
          "name": "F1",
          "ticks": 1531,
          "time": 17.802325581395348,
          "velocity": 0.5826771653543307
        },
        {
          "duration": 0.011627906976745095,
          "durationTicks": 1,
          "midi": 32,
          "name": "G#1",
          "ticks": 1532,
          "time": 17.813953488372093,
          "velocity": 0.6062992125984252
        },
        {
          "duration": 0.08139534883720856,
          "durationTicks": 7,
          "midi": 62,
          "name": "D4",
          "ticks": 1532,
          "time": 17.813953488372093,
          "velocity": 0.2755905511811024
        },
        {
          "duration": 0.011627906976745095,
          "durationTicks": 1,
          "midi": 33,
          "name": "A1",
          "ticks": 1533,
          "time": 17.825581395348838,
          "velocity": 0.6299212598425197
        },
        {
          "duration": 0.011627906976741542,
          "durationTicks": 1,
          "midi": 35,
          "name": "B1",
          "ticks": 1534,
          "time": 17.837209302325583,
          "velocity": 0.5511811023622047
        },
        {
          "duration": 0.02325581395349019,
          "durationTicks": 2,
          "midi": 52,
          "name": "E3",
          "ticks": 1535,
          "time": 17.848837209302324,
          "velocity": 0.2992125984251969
        },
        {
          "duration": 0.04651162790697683,
          "durationTicks": 4,
          "midi": 56,
          "name": "G#3",
          "ticks": 1536,
          "time": 17.86046511627907,
          "velocity": 0.23622047244094488
        },
        {
          "duration": 0.011627906976745095,
          "durationTicks": 1,
          "midi": 34,
          "name": "A#1",
          "ticks": 1537,
          "time": 17.872093023255815,
          "velocity": 0.5669291338582677
        },
        {
          "duration": 0.03488372093023173,
          "durationTicks": 3,
          "midi": 50,
          "name": "D3",
          "ticks": 1537,
          "time": 17.872093023255815,
          "velocity": 0.3543307086614173
        },
        {
          "duration": 0.011627906976741542,
          "durationTicks": 1,
          "midi": 31,
          "name": "G1",
          "ticks": 1538,
          "time": 17.88372093023256,
          "velocity": 0.5511811023622047
        },
        {
          "duration": 0.011627906976745095,
          "durationTicks": 1,
          "midi": 29,
          "name": "F1",
          "ticks": 1539,
          "time": 17.8953488372093,
          "velocity": 0.5196850393700787
        },
        {
          "duration": 0.02325581395349019,
          "durationTicks": 2,
          "midi": 41,
          "name": "F2",
          "ticks": 1540,
          "time": 17.906976744186046,
          "velocity": 0.5826771653543307
        },
        {
          "duration": 0.02325581395349019,
          "durationTicks": 2,
          "midi": 51,
          "name": "D#3",
          "ticks": 1540,
          "time": 17.906976744186046,
          "velocity": 0.31496062992125984
        },
        {
          "duration": 0.03488372093023173,
          "durationTicks": 3,
          "midi": 62,
          "name": "D4",
          "ticks": 1540,
          "time": 17.906976744186046,
          "velocity": 0.12598425196850394
        },
        {
          "duration": 0.023255813953486637,
          "durationTicks": 2,
          "midi": 40,
          "name": "E2",
          "ticks": 1542,
          "time": 17.930232558139537,
          "velocity": 0.5748031496062992
        },
        {
          "duration": 0.011627906976745095,
          "durationTicks": 1,
          "midi": 30,
          "name": "F#1",
          "ticks": 1545,
          "time": 17.96511627906977,
          "velocity": 0.5354330708661418
        },
        {
          "duration": 0.011627906976741542,
          "durationTicks": 1,
          "midi": 36,
          "name": "C2",
          "ticks": 1546,
          "time": 17.976744186046513,
          "velocity": 0.5905511811023622
        },
        {
          "duration": 0.011627906976745095,
          "durationTicks": 1,
          "midi": 39,
          "name": "D#2",
          "ticks": 1547,
          "time": 17.988372093023255,
          "velocity": 0.5196850393700787
        },
        {
          "duration": 0.03488372093023173,
          "durationTicks": 3,
          "midi": 35,
          "name": "B1",
          "ticks": 1549,
          "time": 18.011627906976745,
          "velocity": 0.5748031496062992
        },
        {
          "duration": 0.02325581395349019,
          "durationTicks": 2,
          "midi": 55,
          "name": "G3",
          "ticks": 1550,
          "time": 18.023255813953487,
          "velocity": 0.2992125984251969
        },
        {
          "duration": 0.02325581395349019,
          "durationTicks": 2,
          "midi": 44,
          "name": "G#2",
          "ticks": 1551,
          "time": 18.03488372093023,
          "velocity": 0.5511811023622047
        },
        {
          "duration": 0.011627906976745095,
          "durationTicks": 1,
          "midi": 33,
          "name": "A1",
          "ticks": 1552,
          "time": 18.046511627906977,
          "velocity": 0.5905511811023622
        },
        {
          "duration": 0.023255813953486637,
          "durationTicks": 2,
          "midi": 57,
          "name": "A3",
          "ticks": 1552,
          "time": 18.046511627906977,
          "velocity": 0.4094488188976378
        },
        {
          "duration": 0.011627906976741542,
          "durationTicks": 1,
          "midi": 30,
          "name": "F#1",
          "ticks": 1553,
          "time": 18.058139534883722,
          "velocity": 0.5433070866141733
        },
        {
          "duration": 0.023255813953486637,
          "durationTicks": 2,
          "midi": 41,
          "name": "F2",
          "ticks": 1553,
          "time": 18.058139534883722,
          "velocity": 0.6614173228346457
        },
        {
          "duration": 0.023255813953486637,
          "durationTicks": 2,
          "midi": 63,
          "name": "D#4",
          "ticks": 1553,
          "time": 18.058139534883722,
          "velocity": 0.3779527559055118
        },
        {
          "duration": 0.03488372093023173,
          "durationTicks": 3,
          "midi": 67,
          "name": "G4",
          "ticks": 1553,
          "time": 18.058139534883722,
          "velocity": 0.2992125984251969
        },
        {
          "duration": 0.011627906976745095,
          "durationTicks": 1,
          "midi": 37,
          "name": "C#2",
          "ticks": 1555,
          "time": 18.08139534883721,
          "velocity": 0.6377952755905512
        },
        {
          "duration": 0.13953488372093048,
          "durationTicks": 12,
          "midi": 62,
          "name": "D4",
          "ticks": 1555,
          "time": 18.08139534883721,
          "velocity": 0.3779527559055118
        },
        {
          "duration": 0.011627906976745095,
          "durationTicks": 1,
          "midi": 34,
          "name": "A#1",
          "ticks": 1556,
          "time": 18.093023255813954,
          "velocity": 0.5433070866141733
        },
        {
          "duration": 0.011627906976745095,
          "durationTicks": 1,
          "midi": 43,
          "name": "G2",
          "ticks": 1556,
          "time": 18.093023255813954,
          "velocity": 0.5118110236220472
        },
        {
          "duration": 0.011627906976741542,
          "durationTicks": 1,
          "midi": 35,
          "name": "B1",
          "ticks": 1557,
          "time": 18.1046511627907,
          "velocity": 0.6377952755905512
        },
        {
          "duration": 0.011627906976745095,
          "durationTicks": 1,
          "midi": 37,
          "name": "C#2",
          "ticks": 1558,
          "time": 18.11627906976744,
          "velocity": 0.7007874015748031
        },
        {
          "duration": 0.011627906976745095,
          "durationTicks": 1,
          "midi": 35,
          "name": "B1",
          "ticks": 1559,
          "time": 18.127906976744185,
          "velocity": 0.6929133858267716
        },
        {
          "duration": 0.011627906976745095,
          "durationTicks": 1,
          "midi": 34,
          "name": "A#1",
          "ticks": 1560,
          "time": 18.13953488372093,
          "velocity": 0.7086614173228346
        },
        {
          "duration": 0.023255813953486637,
          "durationTicks": 2,
          "midi": 36,
          "name": "C2",
          "ticks": 1561,
          "time": 18.151162790697676,
          "velocity": 0.7165354330708661
        },
        {
          "duration": 0.011627906976745095,
          "durationTicks": 1,
          "midi": 34,
          "name": "A#1",
          "ticks": 1563,
          "time": 18.174418604651162,
          "velocity": 0.6692913385826772
        },
        {
          "duration": 0.011627906976745095,
          "durationTicks": 1,
          "midi": 35,
          "name": "B1",
          "ticks": 1564,
          "time": 18.186046511627907,
          "velocity": 0.7007874015748031
        },
        {
          "duration": 0.023255813953486637,
          "durationTicks": 2,
          "midi": 56,
          "name": "G#3",
          "ticks": 1564,
          "time": 18.186046511627907,
          "velocity": 0.23622047244094488
        },
        {
          "duration": 0.04651162790697683,
          "durationTicks": 4,
          "midi": 36,
          "name": "C2",
          "ticks": 1565,
          "time": 18.197674418604652,
          "velocity": 0.6614173228346457
        },
        {
          "duration": 0.02325581395349019,
          "durationTicks": 2,
          "midi": 50,
          "name": "D3",
          "ticks": 1566,
          "time": 18.209302325581394,
          "velocity": 0.2992125984251969
        },
        {
          "duration": 0.034883720930235285,
          "durationTicks": 3,
          "midi": 60,
          "name": "C4",
          "ticks": 1566,
          "time": 18.209302325581394,
          "velocity": 0.07086614173228346
        },
        {
          "duration": 0.011627906976741542,
          "durationTicks": 1,
          "midi": 35,
          "name": "B1",
          "ticks": 1569,
          "time": 18.24418604651163,
          "velocity": 0.5354330708661418
        },
        {
          "duration": 0.03488372093023173,
          "durationTicks": 3,
          "midi": 53,
          "name": "F3",
          "ticks": 1569,
          "time": 18.24418604651163,
          "velocity": 0.23622047244094488
        },
        {
          "duration": 0.023255813953486637,
          "durationTicks": 2,
          "midi": 48,
          "name": "C3",
          "ticks": 1572,
          "time": 18.27906976744186,
          "velocity": 0.28346456692913385
        },
        {
          "duration": 0.023255813953486637,
          "durationTicks": 2,
          "midi": 31,
          "name": "G1",
          "ticks": 1573,
          "time": 18.290697674418606,
          "velocity": 0.4409448818897638
        },
        {
          "duration": 0.023255813953486637,
          "durationTicks": 2,
          "midi": 41,
          "name": "F2",
          "ticks": 1576,
          "time": 18.325581395348838,
          "velocity": 0.5826771653543307
        },
        {
          "duration": 0.023255813953486637,
          "durationTicks": 2,
          "midi": 60,
          "name": "C4",
          "ticks": 1576,
          "time": 18.325581395348838,
          "velocity": 0.2677165354330709
        },
        {
          "duration": 0.03488372093023173,
          "durationTicks": 3,
          "midi": 68,
          "name": "G#4",
          "ticks": 1576,
          "time": 18.325581395348838,
          "velocity": 0.14960629921259844
        },
        {
          "duration": 0.023255813953486637,
          "durationTicks": 2,
          "midi": 50,
          "name": "D3",
          "ticks": 1577,
          "time": 18.337209302325583,
          "velocity": 0.2677165354330709
        },
        {
          "duration": 0.011627906976745095,
          "durationTicks": 1,
          "midi": 40,
          "name": "E2",
          "ticks": 1578,
          "time": 18.348837209302324,
          "velocity": 0.5984251968503937
        },
        {
          "duration": 0.011627906976745095,
          "durationTicks": 1,
          "midi": 36,
          "name": "C2",
          "ticks": 1579,
          "time": 18.36046511627907,
          "velocity": 0.5433070866141733
        },
        {
          "duration": 0.03488372093023173,
          "durationTicks": 3,
          "midi": 56,
          "name": "G#3",
          "ticks": 1579,
          "time": 18.36046511627907,
          "velocity": 0.3228346456692913
        },
        {
          "duration": 0.011627906976745095,
          "durationTicks": 1,
          "midi": 32,
          "name": "G#1",
          "ticks": 1580,
          "time": 18.372093023255815,
          "velocity": 0.5748031496062992
        },
        {
          "duration": 0.011627906976741542,
          "durationTicks": 1,
          "midi": 35,
          "name": "B1",
          "ticks": 1581,
          "time": 18.38372093023256,
          "velocity": 0.5905511811023622
        },
        {
          "duration": 0.05813953488371837,
          "durationTicks": 5,
          "midi": 62,
          "name": "D4",
          "ticks": 1581,
          "time": 18.38372093023256,
          "velocity": 0.25196850393700787
        },
        {
          "duration": 0.023255813953486637,
          "durationTicks": 2,
          "midi": 36,
          "name": "C2",
          "ticks": 1584,
          "time": 18.41860465116279,
          "velocity": 0.6377952755905512
        },
        {
          "duration": 0.011627906976745095,
          "durationTicks": 1,
          "midi": 34,
          "name": "A#1",
          "ticks": 1586,
          "time": 18.441860465116278,
          "velocity": 0.5826771653543307
        },
        {
          "duration": 0.011627906976745095,
          "durationTicks": 1,
          "midi": 36,
          "name": "C2",
          "ticks": 1587,
          "time": 18.453488372093023,
          "velocity": 0.5590551181102362
        },
        {
          "duration": 0.04651162790697683,
          "durationTicks": 4,
          "midi": 62,
          "name": "D4",
          "ticks": 1587,
          "time": 18.453488372093023,
          "velocity": 0.14173228346456693
        },
        {
          "duration": 0.011627906976745095,
          "durationTicks": 1,
          "midi": 38,
          "name": "D2",
          "ticks": 1588,
          "time": 18.46511627906977,
          "velocity": 0.5826771653543307
        },
        {
          "duration": 0.011627906976741542,
          "durationTicks": 1,
          "midi": 36,
          "name": "C2",
          "ticks": 1589,
          "time": 18.476744186046513,
          "velocity": 0.5905511811023622
        },
        {
          "duration": 0.011627906976745095,
          "durationTicks": 1,
          "midi": 32,
          "name": "G#1",
          "ticks": 1590,
          "time": 18.488372093023255,
          "velocity": 0.5275590551181102
        },
        {
          "duration": 0.011627906976745095,
          "durationTicks": 1,
          "midi": 34,
          "name": "A#1",
          "ticks": 1594,
          "time": 18.53488372093023,
          "velocity": 0.5354330708661418
        },
        {
          "duration": 0.011627906976745095,
          "durationTicks": 1,
          "midi": 29,
          "name": "F1",
          "ticks": 1597,
          "time": 18.569767441860463,
          "velocity": 0.5118110236220472
        },
        {
          "duration": 0.02325581395349019,
          "durationTicks": 2,
          "midi": 34,
          "name": "A#1",
          "ticks": 1598,
          "time": 18.58139534883721,
          "velocity": 0.6220472440944882
        },
        {
          "duration": 0.03488372093023173,
          "durationTicks": 3,
          "midi": 51,
          "name": "D#3",
          "ticks": 1598,
          "time": 18.58139534883721,
          "velocity": 0.5905511811023622
        },
        {
          "duration": 0.03488372093023173,
          "durationTicks": 3,
          "midi": 74,
          "name": "D5",
          "ticks": 1598,
          "time": 18.58139534883721,
          "velocity": 0.1732283464566929
        },
        {
          "duration": 0.023255813953486637,
          "durationTicks": 2,
          "midi": 64,
          "name": "E4",
          "ticks": 1599,
          "time": 18.593023255813954,
          "velocity": 0.2992125984251969
        },
        {
          "duration": 0.011627906976741542,
          "durationTicks": 1,
          "midi": 33,
          "name": "A1",
          "ticks": 1600,
          "time": 18.6046511627907,
          "velocity": 0.5984251968503937
        },
        {
          "duration": 0.05813953488371837,
          "durationTicks": 5,
          "midi": 56,
          "name": "G#3",
          "ticks": 1600,
          "time": 18.6046511627907,
          "velocity": 0.4881889763779528
        },
        {
          "duration": 0.03488372093023173,
          "durationTicks": 3,
          "midi": 70,
          "name": "A#4",
          "ticks": 1600,
          "time": 18.6046511627907,
          "velocity": 0.1968503937007874
        },
        {
          "duration": 0.011627906976745095,
          "durationTicks": 1,
          "midi": 44,
          "name": "G#2",
          "ticks": 1601,
          "time": 18.61627906976744,
          "velocity": 0.5905511811023622
        },
        {
          "duration": 0.02325581395349019,
          "durationTicks": 2,
          "midi": 40,
          "name": "E2",
          "ticks": 1602,
          "time": 18.627906976744185,
          "velocity": 0.6614173228346457
        },
        {
          "duration": 0.13953488372093048,
          "durationTicks": 12,
          "midi": 62,
          "name": "D4",
          "ticks": 1602,
          "time": 18.627906976744185,
          "velocity": 0.4015748031496063
        },
        {
          "duration": 0.023255813953486637,
          "durationTicks": 2,
          "midi": 48,
          "name": "C3",
          "ticks": 1603,
          "time": 18.63953488372093,
          "velocity": 0.5275590551181102
        },
        {
          "duration": 0.011627906976741542,
          "durationTicks": 1,
          "midi": 33,
          "name": "A1",
          "ticks": 1604,
          "time": 18.651162790697676,
          "velocity": 0.5748031496062992
        },
        {
          "duration": 0.011627906976741542,
          "durationTicks": 1,
          "midi": 41,
          "name": "F2",
          "ticks": 1604,
          "time": 18.651162790697676,
          "velocity": 0.5433070866141733
        },
        {
          "duration": 0.02325581395349019,
          "durationTicks": 2,
          "midi": 31,
          "name": "G1",
          "ticks": 1605,
          "time": 18.662790697674417,
          "velocity": 0.7086614173228346
        },
        {
          "duration": 0.011627906976745095,
          "durationTicks": 1,
          "midi": 49,
          "name": "C#3",
          "ticks": 1605,
          "time": 18.662790697674417,
          "velocity": 0.5118110236220472
        },
        {
          "duration": 0.011627906976745095,
          "durationTicks": 1,
          "midi": 41,
          "name": "F2",
          "ticks": 1606,
          "time": 18.674418604651162,
          "velocity": 0.5275590551181102
        },
        {
          "duration": 0.05813953488372192,
          "durationTicks": 5,
          "midi": 56,
          "name": "G#3",
          "ticks": 1606,
          "time": 18.674418604651162,
          "velocity": 0.44881889763779526
        },
        {
          "duration": 0.011627906976745095,
          "durationTicks": 1,
          "midi": 33,
          "name": "A1",
          "ticks": 1607,
          "time": 18.686046511627907,
          "velocity": 0.7480314960629921
        },
        {
          "duration": 0.011627906976741542,
          "durationTicks": 1,
          "midi": 36,
          "name": "C2",
          "ticks": 1608,
          "time": 18.697674418604652,
          "velocity": 0.7401574803149606
        },
        {
          "duration": 0.011627906976745095,
          "durationTicks": 1,
          "midi": 37,
          "name": "C#2",
          "ticks": 1609,
          "time": 18.709302325581394,
          "velocity": 0.6850393700787402
        },
        {
          "duration": 0.011627906976745095,
          "durationTicks": 1,
          "midi": 35,
          "name": "B1",
          "ticks": 1610,
          "time": 18.72093023255814,
          "velocity": 0.6614173228346457
        },
        {
          "duration": 0.02325581395349019,
          "durationTicks": 2,
          "midi": 52,
          "name": "E3",
          "ticks": 1610,
          "time": 18.72093023255814,
          "velocity": 0.4645669291338583
        },
        {
          "duration": 0.011627906976745095,
          "durationTicks": 1,
          "midi": 34,
          "name": "A#1",
          "ticks": 1611,
          "time": 18.732558139534884,
          "velocity": 0.6850393700787402
        },
        {
          "duration": 0.011627906976741542,
          "durationTicks": 1,
          "midi": 35,
          "name": "B1",
          "ticks": 1612,
          "time": 18.74418604651163,
          "velocity": 0.6692913385826772
        },
        {
          "duration": 0.011627906976741542,
          "durationTicks": 1,
          "midi": 50,
          "name": "D3",
          "ticks": 1612,
          "time": 18.74418604651163,
          "velocity": 0.5118110236220472
        },
        {
          "duration": 0.011627906976745095,
          "durationTicks": 1,
          "midi": 36,
          "name": "C2",
          "ticks": 1613,
          "time": 18.75581395348837,
          "velocity": 0.5905511811023622
        },
        {
          "duration": 0.011627906976745095,
          "durationTicks": 1,
          "midi": 33,
          "name": "A1",
          "ticks": 1614,
          "time": 18.767441860465116,
          "velocity": 0.5826771653543307
        },
        {
          "duration": 0.011627906976745095,
          "durationTicks": 1,
          "midi": 44,
          "name": "G#2",
          "ticks": 1614,
          "time": 18.767441860465116,
          "velocity": 0.5275590551181102
        },
        {
          "duration": 0.011627906976745095,
          "durationTicks": 1,
          "midi": 34,
          "name": "A#1",
          "ticks": 1615,
          "time": 18.77906976744186,
          "velocity": 0.6299212598425197
        },
        {
          "duration": 0.011627906976741542,
          "durationTicks": 1,
          "midi": 32,
          "name": "G#1",
          "ticks": 1616,
          "time": 18.790697674418606,
          "velocity": 0.5669291338582677
        },
        {
          "duration": 0.03488372093023173,
          "durationTicks": 3,
          "midi": 62,
          "name": "D4",
          "ticks": 1616,
          "time": 18.790697674418606,
          "velocity": 0.18110236220472442
        },
        {
          "duration": 0.011627906976745095,
          "durationTicks": 1,
          "midi": 31,
          "name": "G1",
          "ticks": 1617,
          "time": 18.802325581395348,
          "velocity": 0.5275590551181102
        },
        {
          "duration": 0.011627906976745095,
          "durationTicks": 1,
          "midi": 41,
          "name": "F2",
          "ticks": 1617,
          "time": 18.802325581395348,
          "velocity": 0.5511811023622047
        },
        {
          "duration": 0.02325581395349019,
          "durationTicks": 2,
          "midi": 29,
          "name": "F1",
          "ticks": 1618,
          "time": 18.813953488372093,
          "velocity": 0.5354330708661418
        },
        {
          "duration": 0.011627906976745095,
          "durationTicks": 1,
          "midi": 42,
          "name": "F#2",
          "ticks": 1618,
          "time": 18.813953488372093,
          "velocity": 0.5433070866141733
        },
        {
          "duration": 0.023255813953486637,
          "durationTicks": 2,
          "midi": 48,
          "name": "C3",
          "ticks": 1619,
          "time": 18.825581395348838,
          "velocity": 0.48031496062992124
        },
        {
          "duration": 0.011627906976741542,
          "durationTicks": 1,
          "midi": 30,
          "name": "F#1",
          "ticks": 1620,
          "time": 18.837209302325583,
          "velocity": 0.5590551181102362
        },
        {
          "duration": 0.02325581395349019,
          "durationTicks": 2,
          "midi": 31,
          "name": "G1",
          "ticks": 1621,
          "time": 18.848837209302324,
          "velocity": 0.5984251968503937
        },
        {
          "duration": 0.02325581395349019,
          "durationTicks": 2,
          "midi": 55,
          "name": "G3",
          "ticks": 1621,
          "time": 18.848837209302324,
          "velocity": 0.2440944881889764
        },
        {
          "duration": 0.011627906976745095,
          "durationTicks": 1,
          "midi": 30,
          "name": "F#1",
          "ticks": 1623,
          "time": 18.872093023255815,
          "velocity": 0.5511811023622047
        },
        {
          "duration": 0.011627906976745095,
          "durationTicks": 1,
          "midi": 37,
          "name": "C#2",
          "ticks": 1623,
          "time": 18.872093023255815,
          "velocity": 0.5196850393700787
        },
        {
          "duration": 0.04651162790697683,
          "durationTicks": 4,
          "midi": 56,
          "name": "G#3",
          "ticks": 1623,
          "time": 18.872093023255815,
          "velocity": 0.31496062992125984
        },
        {
          "duration": 0.011627906976741542,
          "durationTicks": 1,
          "midi": 28,
          "name": "E1",
          "ticks": 1624,
          "time": 18.88372093023256,
          "velocity": 0.5433070866141733
        },
        {
          "duration": 0.011627906976741542,
          "durationTicks": 1,
          "midi": 41,
          "name": "F2",
          "ticks": 1624,
          "time": 18.88372093023256,
          "velocity": 0.5590551181102362
        },
        {
          "duration": 0.011627906976745095,
          "durationTicks": 1,
          "midi": 30,
          "name": "F#1",
          "ticks": 1625,
          "time": 18.8953488372093,
          "velocity": 0.5905511811023622
        },
        {
          "duration": 0.011627906976745095,
          "durationTicks": 1,
          "midi": 32,
          "name": "G#1",
          "ticks": 1626,
          "time": 18.906976744186046,
          "velocity": 0.6062992125984252
        },
        {
          "duration": 0.08139534883720856,
          "durationTicks": 7,
          "midi": 62,
          "name": "D4",
          "ticks": 1626,
          "time": 18.906976744186046,
          "velocity": 0.2755905511811024
        },
        {
          "duration": 0.011627906976745095,
          "durationTicks": 1,
          "midi": 33,
          "name": "A1",
          "ticks": 1627,
          "time": 18.91860465116279,
          "velocity": 0.6220472440944882
        },
        {
          "duration": 0.011627906976741542,
          "durationTicks": 1,
          "midi": 35,
          "name": "B1",
          "ticks": 1628,
          "time": 18.930232558139537,
          "velocity": 0.5433070866141733
        },
        {
          "duration": 0.02325581395349019,
          "durationTicks": 2,
          "midi": 52,
          "name": "E3",
          "ticks": 1629,
          "time": 18.941860465116278,
          "velocity": 0.2992125984251969
        },
        {
          "duration": 0.04651162790697683,
          "durationTicks": 4,
          "midi": 56,
          "name": "G#3",
          "ticks": 1630,
          "time": 18.953488372093023,
          "velocity": 0.2283464566929134
        },
        {
          "duration": 0.011627906976745095,
          "durationTicks": 1,
          "midi": 35,
          "name": "B1",
          "ticks": 1631,
          "time": 18.96511627906977,
          "velocity": 0.5748031496062992
        },
        {
          "duration": 0.011627906976741542,
          "durationTicks": 1,
          "midi": 31,
          "name": "G1",
          "ticks": 1632,
          "time": 18.976744186046513,
          "velocity": 0.5511811023622047
        },
        {
          "duration": 0.023255813953486637,
          "durationTicks": 2,
          "midi": 50,
          "name": "D3",
          "ticks": 1632,
          "time": 18.976744186046513,
          "velocity": 0.3543307086614173
        },
        {
          "duration": 0.011627906976745095,
          "durationTicks": 1,
          "midi": 30,
          "name": "F#1",
          "ticks": 1633,
          "time": 18.988372093023255,
          "velocity": 0.5118110236220472
        },
        {
          "duration": 0.011627906976745095,
          "durationTicks": 1,
          "midi": 41,
          "name": "F2",
          "ticks": 1634,
          "time": 19,
          "velocity": 0.5433070866141733
        },
        {
          "duration": 0.03488372093023173,
          "durationTicks": 3,
          "midi": 62,
          "name": "D4",
          "ticks": 1634,
          "time": 19,
          "velocity": 0.12598425196850394
        },
        {
          "duration": 0.011627906976741542,
          "durationTicks": 1,
          "midi": 28,
          "name": "E1",
          "ticks": 1635,
          "time": 19.011627906976745,
          "velocity": 0.5748031496062992
        },
        {
          "duration": 0.011627906976745095,
          "durationTicks": 1,
          "midi": 39,
          "name": "D#2",
          "ticks": 1636,
          "time": 19.023255813953487,
          "velocity": 0.5669291338582677
        },
        {
          "duration": 0.011627906976745095,
          "durationTicks": 1,
          "midi": 40,
          "name": "E2",
          "ticks": 1637,
          "time": 19.03488372093023,
          "velocity": 0.5354330708661418
        },
        {
          "duration": 0.023255813953486637,
          "durationTicks": 2,
          "midi": 29,
          "name": "F1",
          "ticks": 1638,
          "time": 19.046511627906977,
          "velocity": 0.5275590551181102
        },
        {
          "duration": 0.011627906976745095,
          "durationTicks": 1,
          "midi": 36,
          "name": "C2",
          "ticks": 1640,
          "time": 19.069767441860463,
          "velocity": 0.5905511811023622
        },
        {
          "duration": 0.011627906976745095,
          "durationTicks": 1,
          "midi": 39,
          "name": "D#2",
          "ticks": 1641,
          "time": 19.08139534883721,
          "velocity": 0.5118110236220472
        },
        {
          "duration": 0.023255813953486637,
          "durationTicks": 2,
          "midi": 35,
          "name": "B1",
          "ticks": 1643,
          "time": 19.1046511627907,
          "velocity": 0.5826771653543307
        },
        {
          "duration": 0.02325581395349019,
          "durationTicks": 2,
          "midi": 55,
          "name": "G3",
          "ticks": 1644,
          "time": 19.11627906976744,
          "velocity": 0.2992125984251969
        },
        {
          "duration": 0.011627906976745095,
          "durationTicks": 1,
          "midi": 34,
          "name": "A#1",
          "ticks": 1645,
          "time": 19.127906976744185,
          "velocity": 0.5511811023622047
        },
        {
          "duration": 0.02325581395349019,
          "durationTicks": 2,
          "midi": 44,
          "name": "G#2",
          "ticks": 1645,
          "time": 19.127906976744185,
          "velocity": 0.5433070866141733
        },
        {
          "duration": 0.011627906976745095,
          "durationTicks": 1,
          "midi": 33,
          "name": "A1",
          "ticks": 1646,
          "time": 19.13953488372093,
          "velocity": 0.5748031496062992
        },
        {
          "duration": 0.023255813953486637,
          "durationTicks": 2,
          "midi": 57,
          "name": "A3",
          "ticks": 1646,
          "time": 19.13953488372093,
          "velocity": 0.4015748031496063
        },
        {
          "duration": 0.011627906976741542,
          "durationTicks": 1,
          "midi": 30,
          "name": "F#1",
          "ticks": 1647,
          "time": 19.151162790697676,
          "velocity": 0.5354330708661418
        },
        {
          "duration": 0.023255813953486637,
          "durationTicks": 2,
          "midi": 41,
          "name": "F2",
          "ticks": 1647,
          "time": 19.151162790697676,
          "velocity": 0.6614173228346457
        },
        {
          "duration": 0.023255813953486637,
          "durationTicks": 2,
          "midi": 63,
          "name": "D#4",
          "ticks": 1647,
          "time": 19.151162790697676,
          "velocity": 0.3779527559055118
        },
        {
          "duration": 0.03488372093023173,
          "durationTicks": 3,
          "midi": 67,
          "name": "G4",
          "ticks": 1647,
          "time": 19.151162790697676,
          "velocity": 0.29133858267716534
        },
        {
          "duration": 0.011627906976745095,
          "durationTicks": 1,
          "midi": 37,
          "name": "C#2",
          "ticks": 1649,
          "time": 19.174418604651162,
          "velocity": 0.6220472440944882
        },
        {
          "duration": 0.13953488372093048,
          "durationTicks": 12,
          "midi": 62,
          "name": "D4",
          "ticks": 1649,
          "time": 19.174418604651162,
          "velocity": 0.3700787401574803
        },
        {
          "duration": 0.011627906976745095,
          "durationTicks": 1,
          "midi": 34,
          "name": "A#1",
          "ticks": 1650,
          "time": 19.186046511627907,
          "velocity": 0.5275590551181102
        },
        {
          "duration": 0.011627906976741542,
          "durationTicks": 1,
          "midi": 35,
          "name": "B1",
          "ticks": 1651,
          "time": 19.197674418604652,
          "velocity": 0.6377952755905512
        },
        {
          "duration": 0.011627906976745095,
          "durationTicks": 1,
          "midi": 37,
          "name": "C#2",
          "ticks": 1652,
          "time": 19.209302325581394,
          "velocity": 0.6929133858267716
        },
        {
          "duration": 0.011627906976745095,
          "durationTicks": 1,
          "midi": 35,
          "name": "B1",
          "ticks": 1653,
          "time": 19.22093023255814,
          "velocity": 0.6929133858267716
        },
        {
          "duration": 0.011627906976745095,
          "durationTicks": 1,
          "midi": 34,
          "name": "A#1",
          "ticks": 1654,
          "time": 19.232558139534884,
          "velocity": 0.7086614173228346
        },
        {
          "duration": 0.023255813953486637,
          "durationTicks": 2,
          "midi": 36,
          "name": "C2",
          "ticks": 1655,
          "time": 19.24418604651163,
          "velocity": 0.7165354330708661
        },
        {
          "duration": 0.011627906976745095,
          "durationTicks": 1,
          "midi": 34,
          "name": "A#1",
          "ticks": 1657,
          "time": 19.267441860465116,
          "velocity": 0.6692913385826772
        },
        {
          "duration": 0.011627906976745095,
          "durationTicks": 1,
          "midi": 35,
          "name": "B1",
          "ticks": 1658,
          "time": 19.27906976744186,
          "velocity": 0.6929133858267716
        },
        {
          "duration": 0.03488372093023173,
          "durationTicks": 3,
          "midi": 56,
          "name": "G#3",
          "ticks": 1658,
          "time": 19.27906976744186,
          "velocity": 0.23622047244094488
        },
        {
          "duration": 0.04651162790697683,
          "durationTicks": 4,
          "midi": 36,
          "name": "C2",
          "ticks": 1659,
          "time": 19.290697674418606,
          "velocity": 0.6456692913385826
        },
        {
          "duration": 0.02325581395349019,
          "durationTicks": 2,
          "midi": 50,
          "name": "D3",
          "ticks": 1660,
          "time": 19.302325581395348,
          "velocity": 0.2992125984251969
        },
        {
          "duration": 0.023255813953486637,
          "durationTicks": 2,
          "midi": 35,
          "name": "B1",
          "ticks": 1663,
          "time": 19.337209302325583,
          "velocity": 0.5433070866141733
        },
        {
          "duration": 0.03488372093023173,
          "durationTicks": 3,
          "midi": 53,
          "name": "F3",
          "ticks": 1663,
          "time": 19.337209302325583,
          "velocity": 0.2440944881889764
        },
        {
          "duration": 0.02325581395349019,
          "durationTicks": 2,
          "midi": 37,
          "name": "C#2",
          "ticks": 1665,
          "time": 19.36046511627907,
          "velocity": 0.3779527559055118
        },
        {
          "duration": 0.023255813953486637,
          "durationTicks": 2,
          "midi": 48,
          "name": "C3",
          "ticks": 1666,
          "time": 19.372093023255815,
          "velocity": 0.2755905511811024
        },
        {
          "duration": 0.023255813953486637,
          "durationTicks": 2,
          "midi": 31,
          "name": "G1",
          "ticks": 1667,
          "time": 19.38372093023256,
          "velocity": 0.4094488188976378
        },
        {
          "duration": 0.02325581395349019,
          "durationTicks": 2,
          "midi": 42,
          "name": "F#2",
          "ticks": 1669,
          "time": 19.406976744186046,
          "velocity": 0.48031496062992124
        },
        {
          "duration": 0.023255813953486637,
          "durationTicks": 2,
          "midi": 60,
          "name": "C4",
          "ticks": 1670,
          "time": 19.41860465116279,
          "velocity": 0.2677165354330709
        },
        {
          "duration": 0.03488372093023173,
          "durationTicks": 3,
          "midi": 68,
          "name": "G#4",
          "ticks": 1670,
          "time": 19.41860465116279,
          "velocity": 0.14960629921259844
        },
        {
          "duration": 0.011627906976741542,
          "durationTicks": 1,
          "midi": 41,
          "name": "F2",
          "ticks": 1671,
          "time": 19.430232558139537,
          "velocity": 0.5826771653543307
        },
        {
          "duration": 0.023255813953486637,
          "durationTicks": 2,
          "midi": 50,
          "name": "D3",
          "ticks": 1671,
          "time": 19.430232558139537,
          "velocity": 0.25984251968503935
        },
        {
          "duration": 0.011627906976745095,
          "durationTicks": 1,
          "midi": 40,
          "name": "E2",
          "ticks": 1672,
          "time": 19.441860465116278,
          "velocity": 0.5905511811023622
        },
        {
          "duration": 0.011627906976745095,
          "durationTicks": 1,
          "midi": 35,
          "name": "B1",
          "ticks": 1673,
          "time": 19.453488372093023,
          "velocity": 0.5354330708661418
        },
        {
          "duration": 0.03488372093023173,
          "durationTicks": 3,
          "midi": 56,
          "name": "G#3",
          "ticks": 1673,
          "time": 19.453488372093023,
          "velocity": 0.3228346456692913
        },
        {
          "duration": 0.011627906976745095,
          "durationTicks": 1,
          "midi": 32,
          "name": "G#1",
          "ticks": 1674,
          "time": 19.46511627906977,
          "velocity": 0.5748031496062992
        },
        {
          "duration": 0.011627906976741542,
          "durationTicks": 1,
          "midi": 35,
          "name": "B1",
          "ticks": 1675,
          "time": 19.476744186046513,
          "velocity": 0.5826771653543307
        },
        {
          "duration": 0.05813953488371837,
          "durationTicks": 5,
          "midi": 62,
          "name": "D4",
          "ticks": 1675,
          "time": 19.476744186046513,
          "velocity": 0.25196850393700787
        },
        {
          "duration": 0.023255813953486637,
          "durationTicks": 2,
          "midi": 36,
          "name": "C2",
          "ticks": 1678,
          "time": 19.511627906976745,
          "velocity": 0.6377952755905512
        },
        {
          "duration": 0.011627906976745095,
          "durationTicks": 1,
          "midi": 34,
          "name": "A#1",
          "ticks": 1680,
          "time": 19.53488372093023,
          "velocity": 0.5826771653543307
        },
        {
          "duration": 0.011627906976745095,
          "durationTicks": 1,
          "midi": 36,
          "name": "C2",
          "ticks": 1681,
          "time": 19.546511627906977,
          "velocity": 0.5590551181102362
        },
        {
          "duration": 0.04651162790697683,
          "durationTicks": 4,
          "midi": 62,
          "name": "D4",
          "ticks": 1681,
          "time": 19.546511627906977,
          "velocity": 0.13385826771653545
        },
        {
          "duration": 0.011627906976741542,
          "durationTicks": 1,
          "midi": 38,
          "name": "D2",
          "ticks": 1682,
          "time": 19.558139534883722,
          "velocity": 0.5826771653543307
        },
        {
          "duration": 0.011627906976745095,
          "durationTicks": 1,
          "midi": 36,
          "name": "C2",
          "ticks": 1683,
          "time": 19.569767441860463,
          "velocity": 0.5826771653543307
        },
        {
          "duration": 0.011627906976745095,
          "durationTicks": 1,
          "midi": 32,
          "name": "G#1",
          "ticks": 1684,
          "time": 19.58139534883721,
          "velocity": 0.5196850393700787
        },
        {
          "duration": 0.011627906976745095,
          "durationTicks": 1,
          "midi": 34,
          "name": "A#1",
          "ticks": 1688,
          "time": 19.627906976744185,
          "velocity": 0.5354330708661418
        },
        {
          "duration": 0.02325581395349019,
          "durationTicks": 2,
          "midi": 34,
          "name": "A#1",
          "ticks": 1692,
          "time": 19.674418604651162,
          "velocity": 0.6141732283464567
        },
        {
          "duration": 0.03488372093023173,
          "durationTicks": 3,
          "midi": 51,
          "name": "D#3",
          "ticks": 1692,
          "time": 19.674418604651162,
          "velocity": 0.5984251968503937
        },
        {
          "duration": 0.04651162790697683,
          "durationTicks": 4,
          "midi": 74,
          "name": "D5",
          "ticks": 1692,
          "time": 19.674418604651162,
          "velocity": 0.18110236220472442
        },
        {
          "duration": 0.03488372093023173,
          "durationTicks": 3,
          "midi": 64,
          "name": "E4",
          "ticks": 1693,
          "time": 19.686046511627907,
          "velocity": 0.3464566929133858
        },
        {
          "duration": 0.011627906976741542,
          "durationTicks": 1,
          "midi": 33,
          "name": "A1",
          "ticks": 1694,
          "time": 19.697674418604652,
          "velocity": 0.5905511811023622
        },
        {
          "duration": 0.05813953488371837,
          "durationTicks": 5,
          "midi": 56,
          "name": "G#3",
          "ticks": 1694,
          "time": 19.697674418604652,
          "velocity": 0.4881889763779528
        },
        {
          "duration": 0.03488372093023173,
          "durationTicks": 3,
          "midi": 70,
          "name": "A#4",
          "ticks": 1694,
          "time": 19.697674418604652,
          "velocity": 0.1968503937007874
        },
        {
          "duration": 0.011627906976745095,
          "durationTicks": 1,
          "midi": 44,
          "name": "G#2",
          "ticks": 1695,
          "time": 19.709302325581394,
          "velocity": 0.5984251968503937
        },
        {
          "duration": 0.02325581395349019,
          "durationTicks": 2,
          "midi": 40,
          "name": "E2",
          "ticks": 1696,
          "time": 19.72093023255814,
          "velocity": 0.6535433070866141
        },
        {
          "duration": 0.13953488372093048,
          "durationTicks": 12,
          "midi": 62,
          "name": "D4",
          "ticks": 1696,
          "time": 19.72093023255814,
          "velocity": 0.4015748031496063
        },
        {
          "duration": 0.023255813953486637,
          "durationTicks": 2,
          "midi": 48,
          "name": "C3",
          "ticks": 1697,
          "time": 19.732558139534884,
          "velocity": 0.5275590551181102
        },
        {
          "duration": 0.023255813953486637,
          "durationTicks": 2,
          "midi": 33,
          "name": "A1",
          "ticks": 1698,
          "time": 19.74418604651163,
          "velocity": 0.6771653543307087
        },
        {
          "duration": 0.011627906976741542,
          "durationTicks": 1,
          "midi": 41,
          "name": "F2",
          "ticks": 1698,
          "time": 19.74418604651163,
          "velocity": 0.5511811023622047
        },
        {
          "duration": 0.011627906976745095,
          "durationTicks": 1,
          "midi": 49,
          "name": "C#3",
          "ticks": 1699,
          "time": 19.75581395348837,
          "velocity": 0.5118110236220472
        },
        {
          "duration": 0.034883720930235285,
          "durationTicks": 3,
          "midi": 70,
          "name": "A#4",
          "ticks": 1699,
          "time": 19.75581395348837,
          "velocity": 0.10236220472440945
        },
        {
          "duration": 0.011627906976745095,
          "durationTicks": 1,
          "midi": 31,
          "name": "G1",
          "ticks": 1700,
          "time": 19.767441860465116,
          "velocity": 0.7244094488188977
        },
        {
          "duration": 0.011627906976745095,
          "durationTicks": 1,
          "midi": 41,
          "name": "F2",
          "ticks": 1700,
          "time": 19.767441860465116,
          "velocity": 0.5433070866141733
        },
        {
          "duration": 0.05813953488372192,
          "durationTicks": 5,
          "midi": 56,
          "name": "G#3",
          "ticks": 1700,
          "time": 19.767441860465116,
          "velocity": 0.44881889763779526
        },
        {
          "duration": 0.011627906976745095,
          "durationTicks": 1,
          "midi": 33,
          "name": "A1",
          "ticks": 1701,
          "time": 19.77906976744186,
          "velocity": 0.7559055118110236
        },
        {
          "duration": 0.011627906976741542,
          "durationTicks": 1,
          "midi": 36,
          "name": "C2",
          "ticks": 1702,
          "time": 19.790697674418606,
          "velocity": 0.7480314960629921
        },
        {
          "duration": 0.011627906976745095,
          "durationTicks": 1,
          "midi": 37,
          "name": "C#2",
          "ticks": 1703,
          "time": 19.802325581395348,
          "velocity": 0.6850393700787402
        },
        {
          "duration": 0.011627906976745095,
          "durationTicks": 1,
          "midi": 35,
          "name": "B1",
          "ticks": 1704,
          "time": 19.813953488372093,
          "velocity": 0.6692913385826772
        },
        {
          "duration": 0.02325581395349019,
          "durationTicks": 2,
          "midi": 52,
          "name": "E3",
          "ticks": 1704,
          "time": 19.813953488372093,
          "velocity": 0.47244094488188976
        },
        {
          "duration": 0.011627906976745095,
          "durationTicks": 1,
          "midi": 34,
          "name": "A#1",
          "ticks": 1705,
          "time": 19.825581395348838,
          "velocity": 0.7007874015748031
        },
        {
          "duration": 0.011627906976741542,
          "durationTicks": 1,
          "midi": 36,
          "name": "C2",
          "ticks": 1706,
          "time": 19.837209302325583,
          "velocity": 0.6850393700787402
        },
        {
          "duration": 0.011627906976741542,
          "durationTicks": 1,
          "midi": 50,
          "name": "D3",
          "ticks": 1706,
          "time": 19.837209302325583,
          "velocity": 0.5118110236220472
        },
        {
          "duration": 0.011627906976745095,
          "durationTicks": 1,
          "midi": 35,
          "name": "B1",
          "ticks": 1707,
          "time": 19.848837209302324,
          "velocity": 0.6062992125984252
        },
        {
          "duration": 0.011627906976745095,
          "durationTicks": 1,
          "midi": 33,
          "name": "A1",
          "ticks": 1708,
          "time": 19.86046511627907,
          "velocity": 0.5905511811023622
        },
        {
          "duration": 0.011627906976745095,
          "durationTicks": 1,
          "midi": 44,
          "name": "G#2",
          "ticks": 1708,
          "time": 19.86046511627907,
          "velocity": 0.5275590551181102
        },
        {
          "duration": 0.011627906976745095,
          "durationTicks": 1,
          "midi": 34,
          "name": "A#1",
          "ticks": 1709,
          "time": 19.872093023255815,
          "velocity": 0.6377952755905512
        },
        {
          "duration": 0.011627906976741542,
          "durationTicks": 1,
          "midi": 32,
          "name": "G#1",
          "ticks": 1710,
          "time": 19.88372093023256,
          "velocity": 0.5669291338582677
        },
        {
          "duration": 0.03488372093023173,
          "durationTicks": 3,
          "midi": 62,
          "name": "D4",
          "ticks": 1710,
          "time": 19.88372093023256,
          "velocity": 0.18110236220472442
        },
        {
          "duration": 0.011627906976745095,
          "durationTicks": 1,
          "midi": 31,
          "name": "G1",
          "ticks": 1711,
          "time": 19.8953488372093,
          "velocity": 0.5275590551181102
        },
        {
          "duration": 0.011627906976745095,
          "durationTicks": 1,
          "midi": 41,
          "name": "F2",
          "ticks": 1711,
          "time": 19.8953488372093,
          "velocity": 0.5433070866141733
        },
        {
          "duration": 0.02325581395349019,
          "durationTicks": 2,
          "midi": 29,
          "name": "F1",
          "ticks": 1712,
          "time": 19.906976744186046,
          "velocity": 0.5118110236220472
        },
        {
          "duration": 0.011627906976745095,
          "durationTicks": 1,
          "midi": 42,
          "name": "F#2",
          "ticks": 1712,
          "time": 19.906976744186046,
          "velocity": 0.5511811023622047
        },
        {
          "duration": 0.011627906976745095,
          "durationTicks": 1,
          "midi": 41,
          "name": "F2",
          "ticks": 1713,
          "time": 19.91860465116279,
          "velocity": 0.5354330708661418
        },
        {
          "duration": 0.023255813953486637,
          "durationTicks": 2,
          "midi": 48,
          "name": "C3",
          "ticks": 1713,
          "time": 19.91860465116279,
          "velocity": 0.48031496062992124
        },
        {
          "duration": 0.011627906976741542,
          "durationTicks": 1,
          "midi": 30,
          "name": "F#1",
          "ticks": 1714,
          "time": 19.930232558139537,
          "velocity": 0.5511811023622047
        },
        {
          "duration": 0.02325581395349019,
          "durationTicks": 2,
          "midi": 31,
          "name": "G1",
          "ticks": 1715,
          "time": 19.941860465116278,
          "velocity": 0.5905511811023622
        },
        {
          "duration": 0.02325581395349019,
          "durationTicks": 2,
          "midi": 55,
          "name": "G3",
          "ticks": 1715,
          "time": 19.941860465116278,
          "velocity": 0.25196850393700787
        },
        {
          "duration": 0.011627906976745095,
          "durationTicks": 1,
          "midi": 30,
          "name": "F#1",
          "ticks": 1717,
          "time": 19.96511627906977,
          "velocity": 0.5354330708661418
        },
        {
          "duration": 0.011627906976745095,
          "durationTicks": 1,
          "midi": 39,
          "name": "D#2",
          "ticks": 1717,
          "time": 19.96511627906977,
          "velocity": 0.5354330708661418
        },
        {
          "duration": 0.04651162790697683,
          "durationTicks": 4,
          "midi": 56,
          "name": "G#3",
          "ticks": 1717,
          "time": 19.96511627906977,
          "velocity": 0.31496062992125984
        },
        {
          "duration": 0.011627906976741542,
          "durationTicks": 1,
          "midi": 27,
          "name": "D#1",
          "ticks": 1718,
          "time": 19.976744186046513,
          "velocity": 0.5275590551181102
        },
        {
          "duration": 0.011627906976741542,
          "durationTicks": 1,
          "midi": 40,
          "name": "E2",
          "ticks": 1718,
          "time": 19.976744186046513,
          "velocity": 0.5590551181102362
        },
        {
          "duration": 0.011627906976745095,
          "durationTicks": 1,
          "midi": 30,
          "name": "F#1",
          "ticks": 1719,
          "time": 19.988372093023255,
          "velocity": 0.5826771653543307
        },
        {
          "duration": 0.011627906976745095,
          "durationTicks": 1,
          "midi": 32,
          "name": "G#1",
          "ticks": 1720,
          "time": 20,
          "velocity": 0.6062992125984252
        },
        {
          "duration": 0.08139534883720856,
          "durationTicks": 7,
          "midi": 62,
          "name": "D4",
          "ticks": 1720,
          "time": 20,
          "velocity": 0.2755905511811024
        },
        {
          "duration": 0.011627906976741542,
          "durationTicks": 1,
          "midi": 33,
          "name": "A1",
          "ticks": 1721,
          "time": 20.011627906976745,
          "velocity": 0.6220472440944882
        },
        {
          "duration": 0.011627906976745095,
          "durationTicks": 1,
          "midi": 35,
          "name": "B1",
          "ticks": 1722,
          "time": 20.023255813953487,
          "velocity": 0.5433070866141733
        },
        {
          "duration": 0.02325581395349019,
          "durationTicks": 2,
          "midi": 52,
          "name": "E3",
          "ticks": 1723,
          "time": 20.03488372093023,
          "velocity": 0.2992125984251969
        },
        {
          "duration": 0.04651162790697683,
          "durationTicks": 4,
          "midi": 56,
          "name": "G#3",
          "ticks": 1724,
          "time": 20.046511627906977,
          "velocity": 0.2283464566929134
        },
        {
          "duration": 0.011627906976741542,
          "durationTicks": 1,
          "midi": 35,
          "name": "B1",
          "ticks": 1725,
          "time": 20.058139534883722,
          "velocity": 0.5669291338582677
        },
        {
          "duration": 0.03488372093023173,
          "durationTicks": 3,
          "midi": 50,
          "name": "D3",
          "ticks": 1725,
          "time": 20.058139534883722,
          "velocity": 0.3543307086614173
        },
        {
          "duration": 0.011627906976745095,
          "durationTicks": 1,
          "midi": 31,
          "name": "G1",
          "ticks": 1726,
          "time": 20.069767441860463,
          "velocity": 0.5511811023622047
        },
        {
          "duration": 0.011627906976745095,
          "durationTicks": 1,
          "midi": 29,
          "name": "F1",
          "ticks": 1727,
          "time": 20.08139534883721,
          "velocity": 0.5118110236220472
        },
        {
          "duration": 0.011627906976745095,
          "durationTicks": 1,
          "midi": 41,
          "name": "F2",
          "ticks": 1728,
          "time": 20.093023255813954,
          "velocity": 0.5511811023622047
        },
        {
          "duration": 0.03488372093023173,
          "durationTicks": 3,
          "midi": 62,
          "name": "D4",
          "ticks": 1728,
          "time": 20.093023255813954,
          "velocity": 0.12598425196850394
        },
        {
          "duration": 0.011627906976741542,
          "durationTicks": 1,
          "midi": 42,
          "name": "F#2",
          "ticks": 1729,
          "time": 20.1046511627907,
          "velocity": 0.5826771653543307
        },
        {
          "duration": 0.011627906976745095,
          "durationTicks": 1,
          "midi": 39,
          "name": "D#2",
          "ticks": 1730,
          "time": 20.11627906976744,
          "velocity": 0.5748031496062992
        },
        {
          "duration": 0.011627906976745095,
          "durationTicks": 1,
          "midi": 40,
          "name": "E2",
          "ticks": 1731,
          "time": 20.127906976744185,
          "velocity": 0.5354330708661418
        },
        {
          "duration": 0.023255813953486637,
          "durationTicks": 2,
          "midi": 29,
          "name": "F1",
          "ticks": 1732,
          "time": 20.13953488372093,
          "velocity": 0.5354330708661418
        },
        {
          "duration": 0.011627906976745095,
          "durationTicks": 1,
          "midi": 36,
          "name": "C2",
          "ticks": 1734,
          "time": 20.162790697674417,
          "velocity": 0.5984251968503937
        },
        {
          "duration": 0.011627906976745095,
          "durationTicks": 1,
          "midi": 39,
          "name": "D#2",
          "ticks": 1735,
          "time": 20.174418604651162,
          "velocity": 0.5118110236220472
        },
        {
          "duration": 0.023255813953486637,
          "durationTicks": 2,
          "midi": 35,
          "name": "B1",
          "ticks": 1737,
          "time": 20.197674418604652,
          "velocity": 0.5826771653543307
        },
        {
          "duration": 0.02325581395349019,
          "durationTicks": 2,
          "midi": 55,
          "name": "G3",
          "ticks": 1738,
          "time": 20.209302325581394,
          "velocity": 0.30708661417322836
        },
        {
          "duration": 0.011627906976745095,
          "durationTicks": 1,
          "midi": 34,
          "name": "A#1",
          "ticks": 1739,
          "time": 20.22093023255814,
          "velocity": 0.5590551181102362
        },
        {
          "duration": 0.02325581395349019,
          "durationTicks": 2,
          "midi": 44,
          "name": "G#2",
          "ticks": 1739,
          "time": 20.22093023255814,
          "velocity": 0.5511811023622047
        },
        {
          "duration": 0.011627906976745095,
          "durationTicks": 1,
          "midi": 33,
          "name": "A1",
          "ticks": 1740,
          "time": 20.232558139534884,
          "velocity": 0.5826771653543307
        },
        {
          "duration": 0.023255813953486637,
          "durationTicks": 2,
          "midi": 57,
          "name": "A3",
          "ticks": 1740,
          "time": 20.232558139534884,
          "velocity": 0.4094488188976378
        },
        {
          "duration": 0.011627906976741542,
          "durationTicks": 1,
          "midi": 30,
          "name": "F#1",
          "ticks": 1741,
          "time": 20.24418604651163,
          "velocity": 0.5433070866141733
        },
        {
          "duration": 0.023255813953486637,
          "durationTicks": 2,
          "midi": 41,
          "name": "F2",
          "ticks": 1741,
          "time": 20.24418604651163,
          "velocity": 0.6614173228346457
        },
        {
          "duration": 0.023255813953486637,
          "durationTicks": 2,
          "midi": 63,
          "name": "D#4",
          "ticks": 1741,
          "time": 20.24418604651163,
          "velocity": 0.3858267716535433
        },
        {
          "duration": 0.03488372093023173,
          "durationTicks": 3,
          "midi": 67,
          "name": "G4",
          "ticks": 1741,
          "time": 20.24418604651163,
          "velocity": 0.29133858267716534
        },
        {
          "duration": 0.011627906976745095,
          "durationTicks": 1,
          "midi": 37,
          "name": "C#2",
          "ticks": 1743,
          "time": 20.267441860465116,
          "velocity": 0.6220472440944882
        },
        {
          "duration": 0.02325581395349019,
          "durationTicks": 2,
          "midi": 56,
          "name": "G#3",
          "ticks": 1743,
          "time": 20.267441860465116,
          "velocity": 0.4015748031496063
        },
        {
          "duration": 0.13953488372093048,
          "durationTicks": 12,
          "midi": 62,
          "name": "D4",
          "ticks": 1743,
          "time": 20.267441860465116,
          "velocity": 0.3700787401574803
        },
        {
          "duration": 0.011627906976745095,
          "durationTicks": 1,
          "midi": 34,
          "name": "A#1",
          "ticks": 1744,
          "time": 20.27906976744186,
          "velocity": 0.5354330708661418
        },
        {
          "duration": 0.011627906976741542,
          "durationTicks": 1,
          "midi": 35,
          "name": "B1",
          "ticks": 1745,
          "time": 20.290697674418606,
          "velocity": 0.6456692913385826
        },
        {
          "duration": 0.011627906976745095,
          "durationTicks": 1,
          "midi": 36,
          "name": "C2",
          "ticks": 1746,
          "time": 20.302325581395348,
          "velocity": 0.7007874015748031
        },
        {
          "duration": 0.011627906976745095,
          "durationTicks": 1,
          "midi": 35,
          "name": "B1",
          "ticks": 1747,
          "time": 20.313953488372093,
          "velocity": 0.6929133858267716
        },
        {
          "duration": 0.011627906976745095,
          "durationTicks": 1,
          "midi": 34,
          "name": "A#1",
          "ticks": 1748,
          "time": 20.325581395348838,
          "velocity": 0.7165354330708661
        },
        {
          "duration": 0.023255813953486637,
          "durationTicks": 2,
          "midi": 36,
          "name": "C2",
          "ticks": 1749,
          "time": 20.337209302325583,
          "velocity": 0.7165354330708661
        },
        {
          "duration": 0.011627906976745095,
          "durationTicks": 1,
          "midi": 34,
          "name": "A#1",
          "ticks": 1751,
          "time": 20.36046511627907,
          "velocity": 0.6771653543307087
        },
        {
          "duration": 0.011627906976745095,
          "durationTicks": 1,
          "midi": 35,
          "name": "B1",
          "ticks": 1752,
          "time": 20.372093023255815,
          "velocity": 0.6929133858267716
        },
        {
          "duration": 0.023255813953486637,
          "durationTicks": 2,
          "midi": 56,
          "name": "G#3",
          "ticks": 1752,
          "time": 20.372093023255815,
          "velocity": 0.23622047244094488
        },
        {
          "duration": 0.04651162790697683,
          "durationTicks": 4,
          "midi": 36,
          "name": "C2",
          "ticks": 1753,
          "time": 20.38372093023256,
          "velocity": 0.6456692913385826
        },
        {
          "duration": 0.02325581395349019,
          "durationTicks": 2,
          "midi": 50,
          "name": "D3",
          "ticks": 1754,
          "time": 20.3953488372093,
          "velocity": 0.2992125984251969
        },
        {
          "duration": 0.023255813953486637,
          "durationTicks": 2,
          "midi": 35,
          "name": "B1",
          "ticks": 1757,
          "time": 20.430232558139537,
          "velocity": 0.5275590551181102
        },
        {
          "duration": 0.023255813953486637,
          "durationTicks": 2,
          "midi": 53,
          "name": "F3",
          "ticks": 1757,
          "time": 20.430232558139537,
          "velocity": 0.2440944881889764
        },
        {
          "duration": 0.02325581395349019,
          "durationTicks": 2,
          "midi": 37,
          "name": "C#2",
          "ticks": 1759,
          "time": 20.453488372093023,
          "velocity": 0.3700787401574803
        },
        {
          "duration": 0.023255813953486637,
          "durationTicks": 2,
          "midi": 48,
          "name": "C3",
          "ticks": 1760,
          "time": 20.46511627906977,
          "velocity": 0.28346456692913385
        },
        {
          "duration": 0.023255813953486637,
          "durationTicks": 2,
          "midi": 42,
          "name": "F#2",
          "ticks": 1763,
          "time": 20.5,
          "velocity": 0.4881889763779528
        },
        {
          "duration": 0.023255813953486637,
          "durationTicks": 2,
          "midi": 60,
          "name": "C4",
          "ticks": 1764,
          "time": 20.511627906976745,
          "velocity": 0.2677165354330709
        },
        {
          "duration": 0.03488372093023173,
          "durationTicks": 3,
          "midi": 68,
          "name": "G#4",
          "ticks": 1764,
          "time": 20.511627906976745,
          "velocity": 0.14960629921259844
        },
        {
          "duration": 0.011627906976745095,
          "durationTicks": 1,
          "midi": 41,
          "name": "F2",
          "ticks": 1765,
          "time": 20.523255813953487,
          "velocity": 0.5826771653543307
        },
        {
          "duration": 0.02325581395349019,
          "durationTicks": 2,
          "midi": 50,
          "name": "D3",
          "ticks": 1765,
          "time": 20.523255813953487,
          "velocity": 0.2677165354330709
        },
        {
          "duration": 0.011627906976745095,
          "durationTicks": 1,
          "midi": 38,
          "name": "D2",
          "ticks": 1766,
          "time": 20.53488372093023,
          "velocity": 0.5905511811023622
        },
        {
          "duration": 0.011627906976745095,
          "durationTicks": 1,
          "midi": 34,
          "name": "A#1",
          "ticks": 1767,
          "time": 20.546511627906977,
          "velocity": 0.5275590551181102
        },
        {
          "duration": 0.03488372093023173,
          "durationTicks": 3,
          "midi": 56,
          "name": "G#3",
          "ticks": 1767,
          "time": 20.546511627906977,
          "velocity": 0.3228346456692913
        },
        {
          "duration": 0.011627906976741542,
          "durationTicks": 1,
          "midi": 32,
          "name": "G#1",
          "ticks": 1768,
          "time": 20.558139534883722,
          "velocity": 0.5748031496062992
        },
        {
          "duration": 0.02325581395349019,
          "durationTicks": 2,
          "midi": 36,
          "name": "C2",
          "ticks": 1769,
          "time": 20.569767441860463,
          "velocity": 0.5826771653543307
        },
        {
          "duration": 0.05813953488372192,
          "durationTicks": 5,
          "midi": 62,
          "name": "D4",
          "ticks": 1769,
          "time": 20.569767441860463,
          "velocity": 0.25196850393700787
        },
        {
          "duration": 0.023255813953486637,
          "durationTicks": 2,
          "midi": 36,
          "name": "C2",
          "ticks": 1772,
          "time": 20.6046511627907,
          "velocity": 0.6299212598425197
        },
        {
          "duration": 0.011627906976745095,
          "durationTicks": 1,
          "midi": 34,
          "name": "A#1",
          "ticks": 1774,
          "time": 20.627906976744185,
          "velocity": 0.5748031496062992
        },
        {
          "duration": 0.011627906976745095,
          "durationTicks": 1,
          "midi": 36,
          "name": "C2",
          "ticks": 1775,
          "time": 20.63953488372093,
          "velocity": 0.5590551181102362
        },
        {
          "duration": 0.04651162790697683,
          "durationTicks": 4,
          "midi": 62,
          "name": "D4",
          "ticks": 1775,
          "time": 20.63953488372093,
          "velocity": 0.13385826771653545
        },
        {
          "duration": 0.011627906976741542,
          "durationTicks": 1,
          "midi": 38,
          "name": "D2",
          "ticks": 1776,
          "time": 20.651162790697676,
          "velocity": 0.5905511811023622
        },
        {
          "duration": 0.011627906976745095,
          "durationTicks": 1,
          "midi": 36,
          "name": "C2",
          "ticks": 1777,
          "time": 20.662790697674417,
          "velocity": 0.5826771653543307
        },
        {
          "duration": 0.011627906976745095,
          "durationTicks": 1,
          "midi": 34,
          "name": "A#1",
          "ticks": 1782,
          "time": 20.72093023255814,
          "velocity": 0.5275590551181102
        },
        {
          "duration": 0.02325581395349019,
          "durationTicks": 2,
          "midi": 34,
          "name": "A#1",
          "ticks": 1786,
          "time": 20.767441860465116,
          "velocity": 0.6141732283464567
        },
        {
          "duration": 0.03488372093023173,
          "durationTicks": 3,
          "midi": 51,
          "name": "D#3",
          "ticks": 1786,
          "time": 20.767441860465116,
          "velocity": 0.5905511811023622
        },
        {
          "duration": 0.03488372093023173,
          "durationTicks": 3,
          "midi": 74,
          "name": "D5",
          "ticks": 1786,
          "time": 20.767441860465116,
          "velocity": 0.1732283464566929
        },
        {
          "duration": 0.023255813953486637,
          "durationTicks": 2,
          "midi": 64,
          "name": "E4",
          "ticks": 1787,
          "time": 20.77906976744186,
          "velocity": 0.30708661417322836
        },
        {
          "duration": 0.011627906976741542,
          "durationTicks": 1,
          "midi": 33,
          "name": "A1",
          "ticks": 1788,
          "time": 20.790697674418606,
          "velocity": 0.5905511811023622
        },
        {
          "duration": 0.05813953488371837,
          "durationTicks": 5,
          "midi": 56,
          "name": "G#3",
          "ticks": 1788,
          "time": 20.790697674418606,
          "velocity": 0.48031496062992124
        },
        {
          "duration": 0.03488372093023173,
          "durationTicks": 3,
          "midi": 70,
          "name": "A#4",
          "ticks": 1788,
          "time": 20.790697674418606,
          "velocity": 0.2047244094488189
        },
        {
          "duration": 0.011627906976745095,
          "durationTicks": 1,
          "midi": 44,
          "name": "G#2",
          "ticks": 1789,
          "time": 20.802325581395348,
          "velocity": 0.5984251968503937
        },
        {
          "duration": 0.02325581395349019,
          "durationTicks": 2,
          "midi": 40,
          "name": "E2",
          "ticks": 1790,
          "time": 20.813953488372093,
          "velocity": 0.6614173228346457
        },
        {
          "duration": 0.11627906976744384,
          "durationTicks": 10,
          "midi": 62,
          "name": "D4",
          "ticks": 1790,
          "time": 20.813953488372093,
          "velocity": 0.3937007874015748
        },
        {
          "duration": 0.023255813953486637,
          "durationTicks": 2,
          "midi": 48,
          "name": "C3",
          "ticks": 1791,
          "time": 20.825581395348838,
          "velocity": 0.5275590551181102
        },
        {
          "duration": 0.011627906976741542,
          "durationTicks": 1,
          "midi": 33,
          "name": "A1",
          "ticks": 1792,
          "time": 20.837209302325583,
          "velocity": 0.5748031496062992
        },
        {
          "duration": 0.011627906976741542,
          "durationTicks": 1,
          "midi": 41,
          "name": "F2",
          "ticks": 1792,
          "time": 20.837209302325583,
          "velocity": 0.5433070866141733
        },
        {
          "duration": 0.02325581395349019,
          "durationTicks": 2,
          "midi": 31,
          "name": "G1",
          "ticks": 1793,
          "time": 20.848837209302324,
          "velocity": 0.7086614173228346
        },
        {
          "duration": 0.011627906976745095,
          "durationTicks": 1,
          "midi": 49,
          "name": "C#3",
          "ticks": 1793,
          "time": 20.848837209302324,
          "velocity": 0.5118110236220472
        },
        {
          "duration": 0.011627906976745095,
          "durationTicks": 1,
          "midi": 41,
          "name": "F2",
          "ticks": 1794,
          "time": 20.86046511627907,
          "velocity": 0.5354330708661418
        },
        {
          "duration": 0.08139534883720856,
          "durationTicks": 7,
          "midi": 56,
          "name": "G#3",
          "ticks": 1794,
          "time": 20.86046511627907,
          "velocity": 0.44881889763779526
        },
        {
          "duration": 0.011627906976745095,
          "durationTicks": 1,
          "midi": 33,
          "name": "A1",
          "ticks": 1795,
          "time": 20.872093023255815,
          "velocity": 0.7480314960629921
        },
        {
          "duration": 0.023255813953486637,
          "durationTicks": 2,
          "midi": 36,
          "name": "C2",
          "ticks": 1796,
          "time": 20.88372093023256,
          "velocity": 0.7401574803149606
        },
        {
          "duration": 0.02325581395349019,
          "durationTicks": 2,
          "midi": 35,
          "name": "B1",
          "ticks": 1798,
          "time": 20.906976744186046,
          "velocity": 0.6850393700787402
        },
        {
          "duration": 0.02325581395349019,
          "durationTicks": 2,
          "midi": 52,
          "name": "E3",
          "ticks": 1798,
          "time": 20.906976744186046,
          "velocity": 0.47244094488188976
        },
        {
          "duration": 0.011627906976741542,
          "durationTicks": 1,
          "midi": 36,
          "name": "C2",
          "ticks": 1800,
          "time": 20.930232558139537,
          "velocity": 0.6692913385826772
        },
        {
          "duration": 0.011627906976741542,
          "durationTicks": 1,
          "midi": 50,
          "name": "D3",
          "ticks": 1800,
          "time": 20.930232558139537,
          "velocity": 0.5118110236220472
        },
        {
          "duration": 0.011627906976745095,
          "durationTicks": 1,
          "midi": 35,
          "name": "B1",
          "ticks": 1801,
          "time": 20.941860465116278,
          "velocity": 0.5905511811023622
        },
        {
          "duration": 0.011627906976745095,
          "durationTicks": 1,
          "midi": 33,
          "name": "A1",
          "ticks": 1802,
          "time": 20.953488372093023,
          "velocity": 0.5826771653543307
        },
        {
          "duration": 0.011627906976745095,
          "durationTicks": 1,
          "midi": 44,
          "name": "G#2",
          "ticks": 1802,
          "time": 20.953488372093023,
          "velocity": 0.5275590551181102
        },
        {
          "duration": 0.011627906976745095,
          "durationTicks": 1,
          "midi": 34,
          "name": "A#1",
          "ticks": 1803,
          "time": 20.96511627906977,
          "velocity": 0.6299212598425197
        },
        {
          "duration": 0.011627906976741542,
          "durationTicks": 1,
          "midi": 32,
          "name": "G#1",
          "ticks": 1804,
          "time": 20.976744186046513,
          "velocity": 0.5511811023622047
        },
        {
          "duration": 0.03488372093023173,
          "durationTicks": 3,
          "midi": 62,
          "name": "D4",
          "ticks": 1804,
          "time": 20.976744186046513,
          "velocity": 0.18110236220472442
        },
        {
          "duration": 0.011627906976745095,
          "durationTicks": 1,
          "midi": 31,
          "name": "G1",
          "ticks": 1805,
          "time": 20.988372093023255,
          "velocity": 0.5118110236220472
        },
        {
          "duration": 0.011627906976745095,
          "durationTicks": 1,
          "midi": 41,
          "name": "F2",
          "ticks": 1805,
          "time": 20.988372093023255,
          "velocity": 0.5511811023622047
        },
        {
          "duration": 0.023255813953486637,
          "durationTicks": 2,
          "midi": 29,
          "name": "F1",
          "ticks": 1806,
          "time": 21,
          "velocity": 0.5196850393700787
        },
        {
          "duration": 0.011627906976745095,
          "durationTicks": 1,
          "midi": 42,
          "name": "F#2",
          "ticks": 1806,
          "time": 21,
          "velocity": 0.5433070866141733
        },
        {
          "duration": 0.011627906976741542,
          "durationTicks": 1,
          "midi": 41,
          "name": "F2",
          "ticks": 1807,
          "time": 21.011627906976745,
          "velocity": 0.5196850393700787
        },
        {
          "duration": 0.023255813953486637,
          "durationTicks": 2,
          "midi": 48,
          "name": "C3",
          "ticks": 1807,
          "time": 21.011627906976745,
          "velocity": 0.48031496062992124
        },
        {
          "duration": 0.011627906976745095,
          "durationTicks": 1,
          "midi": 30,
          "name": "F#1",
          "ticks": 1808,
          "time": 21.023255813953487,
          "velocity": 0.5511811023622047
        },
        {
          "duration": 0.02325581395349019,
          "durationTicks": 2,
          "midi": 31,
          "name": "G1",
          "ticks": 1809,
          "time": 21.03488372093023,
          "velocity": 0.5826771653543307
        },
        {
          "duration": 0.02325581395349019,
          "durationTicks": 2,
          "midi": 55,
          "name": "G3",
          "ticks": 1809,
          "time": 21.03488372093023,
          "velocity": 0.25196850393700787
        },
        {
          "duration": 0.04651162790697683,
          "durationTicks": 4,
          "midi": 78,
          "name": "F#5",
          "ticks": 1809,
          "time": 21.03488372093023,
          "velocity": 0.2283464566929134
        },
        {
          "duration": 0.03488372093023173,
          "durationTicks": 3,
          "midi": 64,
          "name": "E4",
          "ticks": 1810,
          "time": 21.046511627906977,
          "velocity": 0.1889763779527559
        },
        {
          "duration": 0.03488372093023173,
          "durationTicks": 3,
          "midi": 83,
          "name": "B5",
          "ticks": 1810,
          "time": 21.046511627906977,
          "velocity": 0.25196850393700787
        },
        {
          "duration": 0.03488372093023173,
          "durationTicks": 3,
          "midi": 87,
          "name": "D#6",
          "ticks": 1810,
          "time": 21.046511627906977,
          "velocity": 0.1968503937007874
        },
        {
          "duration": 0.05813953488372192,
          "durationTicks": 5,
          "midi": 92,
          "name": "G#6",
          "ticks": 1810,
          "time": 21.046511627906977,
          "velocity": 0.14173228346456693
        },
        {
          "duration": 0.03488372093023173,
          "durationTicks": 3,
          "midi": 94,
          "name": "A#6",
          "ticks": 1810,
          "time": 21.046511627906977,
          "velocity": 0.1889763779527559
        },
        {
          "duration": 0.05813953488372192,
          "durationTicks": 5,
          "midi": 96,
          "name": "C7",
          "ticks": 1810,
          "time": 21.046511627906977,
          "velocity": 0.1732283464566929
        },
        {
          "duration": 0.05813953488372192,
          "durationTicks": 5,
          "midi": 97,
          "name": "C#7",
          "ticks": 1810,
          "time": 21.046511627906977,
          "velocity": 0.11811023622047244
        },
        {
          "duration": 0.05813953488372192,
          "durationTicks": 5,
          "midi": 98,
          "name": "D7",
          "ticks": 1810,
          "time": 21.046511627906977,
          "velocity": 0.2204724409448819
        },
        {
          "duration": 0.06976744186046346,
          "durationTicks": 6,
          "midi": 99,
          "name": "D#7",
          "ticks": 1810,
          "time": 21.046511627906977,
          "velocity": 0.2440944881889764
        },
        {
          "duration": 0.04651162790697683,
          "durationTicks": 4,
          "midi": 100,
          "name": "E7",
          "ticks": 1810,
          "time": 21.046511627906977,
          "velocity": 0.2440944881889764
        },
        {
          "duration": 0.05813953488372192,
          "durationTicks": 5,
          "midi": 101,
          "name": "F7",
          "ticks": 1810,
          "time": 21.046511627906977,
          "velocity": 0.08661417322834646
        },
        {
          "duration": 0.03488372093023173,
          "durationTicks": 3,
          "midi": 103,
          "name": "G7",
          "ticks": 1810,
          "time": 21.046511627906977,
          "velocity": 0.07874015748031496
        },
        {
          "duration": 0.011627906976741542,
          "durationTicks": 1,
          "midi": 30,
          "name": "F#1",
          "ticks": 1811,
          "time": 21.058139534883722,
          "velocity": 0.5354330708661418
        },
        {
          "duration": 0.011627906976741542,
          "durationTicks": 1,
          "midi": 39,
          "name": "D#2",
          "ticks": 1811,
          "time": 21.058139534883722,
          "velocity": 0.5354330708661418
        },
        {
          "duration": 0.023255813953486637,
          "durationTicks": 2,
          "midi": 56,
          "name": "G#3",
          "ticks": 1811,
          "time": 21.058139534883722,
          "velocity": 0.29133858267716534
        },
        {
          "duration": 0.03488372093023173,
          "durationTicks": 3,
          "midi": 79,
          "name": "G5",
          "ticks": 1811,
          "time": 21.058139534883722,
          "velocity": 0.10236220472440945
        },
        {
          "duration": 0.04651162790697683,
          "durationTicks": 4,
          "midi": 88,
          "name": "E6",
          "ticks": 1811,
          "time": 21.058139534883722,
          "velocity": 0.15748031496062992
        },
        {
          "duration": 0.05813953488371837,
          "durationTicks": 5,
          "midi": 89,
          "name": "F6",
          "ticks": 1811,
          "time": 21.058139534883722,
          "velocity": 0.2047244094488189
        },
        {
          "duration": 0.011627906976745095,
          "durationTicks": 1,
          "midi": 28,
          "name": "E1",
          "ticks": 1812,
          "time": 21.069767441860463,
          "velocity": 0.5275590551181102
        },
        {
          "duration": 0.011627906976745095,
          "durationTicks": 1,
          "midi": 41,
          "name": "F2",
          "ticks": 1812,
          "time": 21.069767441860463,
          "velocity": 0.5590551181102362
        },
        {
          "duration": 0.011627906976745095,
          "durationTicks": 1,
          "midi": 30,
          "name": "F#1",
          "ticks": 1813,
          "time": 21.08139534883721,
          "velocity": 0.5826771653543307
        },
        {
          "duration": 0.11627906976744384,
          "durationTicks": 10,
          "midi": 62,
          "name": "D4",
          "ticks": 1813,
          "time": 21.08139534883721,
          "velocity": 0.29133858267716534
        },
        {
          "duration": 0.03488372093023173,
          "durationTicks": 3,
          "midi": 84,
          "name": "C6",
          "ticks": 1813,
          "time": 21.08139534883721,
          "velocity": 0.11811023622047244
        },
        {
          "duration": 0.04651162790697683,
          "durationTicks": 4,
          "midi": 93,
          "name": "A6",
          "ticks": 1813,
          "time": 21.08139534883721,
          "velocity": 0.12598425196850394
        },
        {
          "duration": 0.011627906976745095,
          "durationTicks": 1,
          "midi": 32,
          "name": "G#1",
          "ticks": 1814,
          "time": 21.093023255813954,
          "velocity": 0.5905511811023622
        },
        {
          "duration": 0.011627906976741542,
          "durationTicks": 1,
          "midi": 33,
          "name": "A1",
          "ticks": 1815,
          "time": 21.1046511627907,
          "velocity": 0.6062992125984252
        },
        {
          "duration": 0.011627906976745095,
          "durationTicks": 1,
          "midi": 35,
          "name": "B1",
          "ticks": 1816,
          "time": 21.11627906976744,
          "velocity": 0.5196850393700787
        },
        {
          "duration": 0.02325581395349019,
          "durationTicks": 2,
          "midi": 52,
          "name": "E3",
          "ticks": 1817,
          "time": 21.127906976744185,
          "velocity": 0.30708661417322836
        },
        {
          "duration": 0.011627906976741542,
          "durationTicks": 1,
          "midi": 35,
          "name": "B1",
          "ticks": 1819,
          "time": 21.151162790697676,
          "velocity": 0.5590551181102362
        },
        {
          "duration": 0.03488372093023173,
          "durationTicks": 3,
          "midi": 50,
          "name": "D3",
          "ticks": 1819,
          "time": 21.151162790697676,
          "velocity": 0.3464566929133858
        },
        {
          "duration": 0.011627906976745095,
          "durationTicks": 1,
          "midi": 31,
          "name": "G1",
          "ticks": 1820,
          "time": 21.162790697674417,
          "velocity": 0.5275590551181102
        },
        {
          "duration": 0.011627906976745095,
          "durationTicks": 1,
          "midi": 41,
          "name": "F2",
          "ticks": 1822,
          "time": 21.186046511627907,
          "velocity": 0.5433070866141733
        },
        {
          "duration": 0.011627906976741542,
          "durationTicks": 1,
          "midi": 38,
          "name": "D2",
          "ticks": 1823,
          "time": 21.197674418604652,
          "velocity": 0.5826771653543307
        },
        {
          "duration": 0.02325581395349019,
          "durationTicks": 2,
          "midi": 40,
          "name": "E2",
          "ticks": 1824,
          "time": 21.209302325581394,
          "velocity": 0.5669291338582677
        },
        {
          "duration": 0.023255813953486637,
          "durationTicks": 2,
          "midi": 29,
          "name": "F1",
          "ticks": 1826,
          "time": 21.232558139534884,
          "velocity": 0.5275590551181102
        },
        {
          "duration": 0.011627906976745095,
          "durationTicks": 1,
          "midi": 36,
          "name": "C2",
          "ticks": 1828,
          "time": 21.25581395348837,
          "velocity": 0.5905511811023622
        },
        {
          "duration": 0.011627906976745095,
          "durationTicks": 1,
          "midi": 35,
          "name": "B1",
          "ticks": 1832,
          "time": 21.302325581395348,
          "velocity": 0.5905511811023622
        },
        {
          "duration": 0.02325581395349019,
          "durationTicks": 2,
          "midi": 55,
          "name": "G3",
          "ticks": 1832,
          "time": 21.302325581395348,
          "velocity": 0.30708661417322836
        },
        {
          "duration": 0.011627906976745095,
          "durationTicks": 1,
          "midi": 34,
          "name": "A#1",
          "ticks": 1833,
          "time": 21.313953488372093,
          "velocity": 0.5669291338582677
        },
        {
          "duration": 0.02325581395349019,
          "durationTicks": 2,
          "midi": 64,
          "name": "E4",
          "ticks": 1833,
          "time": 21.313953488372093,
          "velocity": 0.3464566929133858
        },
        {
          "duration": 0.011627906976745095,
          "durationTicks": 1,
          "midi": 33,
          "name": "A1",
          "ticks": 1834,
          "time": 21.325581395348838,
          "velocity": 0.5826771653543307
        },
        {
          "duration": 0.023255813953486637,
          "durationTicks": 2,
          "midi": 57,
          "name": "A3",
          "ticks": 1834,
          "time": 21.325581395348838,
          "velocity": 0.4015748031496063
        },
        {
          "duration": 0.011627906976741542,
          "durationTicks": 1,
          "midi": 30,
          "name": "F#1",
          "ticks": 1835,
          "time": 21.337209302325583,
          "velocity": 0.5511811023622047
        },
        {
          "duration": 0.023255813953486637,
          "durationTicks": 2,
          "midi": 41,
          "name": "F2",
          "ticks": 1835,
          "time": 21.337209302325583,
          "velocity": 0.6614173228346457
        },
        {
          "duration": 0.023255813953486637,
          "durationTicks": 2,
          "midi": 63,
          "name": "D#4",
          "ticks": 1835,
          "time": 21.337209302325583,
          "velocity": 0.3858267716535433
        },
        {
          "duration": 0.03488372093023173,
          "durationTicks": 3,
          "midi": 67,
          "name": "G4",
          "ticks": 1835,
          "time": 21.337209302325583,
          "velocity": 0.29133858267716534
        },
        {
          "duration": 0.011627906976745095,
          "durationTicks": 1,
          "midi": 37,
          "name": "C#2",
          "ticks": 1837,
          "time": 21.36046511627907,
          "velocity": 0.6220472440944882
        },
        {
          "duration": 0.02325581395349019,
          "durationTicks": 2,
          "midi": 56,
          "name": "G#3",
          "ticks": 1837,
          "time": 21.36046511627907,
          "velocity": 0.3937007874015748
        },
        {
          "duration": 0.13953488372093048,
          "durationTicks": 12,
          "midi": 62,
          "name": "D4",
          "ticks": 1837,
          "time": 21.36046511627907,
          "velocity": 0.36220472440944884
        },
        {
          "duration": 0.011627906976745095,
          "durationTicks": 1,
          "midi": 34,
          "name": "A#1",
          "ticks": 1838,
          "time": 21.372093023255815,
          "velocity": 0.5275590551181102
        },
        {
          "duration": 0.011627906976741542,
          "durationTicks": 1,
          "midi": 35,
          "name": "B1",
          "ticks": 1839,
          "time": 21.38372093023256,
          "velocity": 0.6456692913385826
        },
        {
          "duration": 0.011627906976745095,
          "durationTicks": 1,
          "midi": 36,
          "name": "C2",
          "ticks": 1840,
          "time": 21.3953488372093,
          "velocity": 0.7007874015748031
        },
        {
          "duration": 0.02325581395349019,
          "durationTicks": 2,
          "midi": 53,
          "name": "F3",
          "ticks": 1840,
          "time": 21.3953488372093,
          "velocity": 0.3700787401574803
        },
        {
          "duration": 0.02325581395349019,
          "durationTicks": 2,
          "midi": 35,
          "name": "B1",
          "ticks": 1841,
          "time": 21.406976744186046,
          "velocity": 0.7165354330708661
        },
        {
          "duration": 0.023255813953486637,
          "durationTicks": 2,
          "midi": 36,
          "name": "C2",
          "ticks": 1843,
          "time": 21.430232558139537,
          "velocity": 0.7165354330708661
        },
        {
          "duration": 0.011627906976745095,
          "durationTicks": 1,
          "midi": 34,
          "name": "A#1",
          "ticks": 1845,
          "time": 21.453488372093023,
          "velocity": 0.6771653543307087
        },
        {
          "duration": 0.011627906976745095,
          "durationTicks": 1,
          "midi": 35,
          "name": "B1",
          "ticks": 1846,
          "time": 21.46511627906977,
          "velocity": 0.6929133858267716
        },
        {
          "duration": 0.011627906976741542,
          "durationTicks": 1,
          "midi": 36,
          "name": "C2",
          "ticks": 1847,
          "time": 21.476744186046513,
          "velocity": 0.6377952755905512
        },
        {
          "duration": 0.011627906976745095,
          "durationTicks": 1,
          "midi": 37,
          "name": "C#2",
          "ticks": 1848,
          "time": 21.488372093023255,
          "velocity": 0.5433070866141733
        },
        {
          "duration": 0.02325581395349019,
          "durationTicks": 2,
          "midi": 50,
          "name": "D3",
          "ticks": 1848,
          "time": 21.488372093023255,
          "velocity": 0.2992125984251969
        },
        {
          "duration": 0.011627906976745095,
          "durationTicks": 1,
          "midi": 36,
          "name": "C2",
          "ticks": 1849,
          "time": 21.5,
          "velocity": 0.5354330708661418
        },
        {
          "duration": 0.03488372093023173,
          "durationTicks": 3,
          "midi": 35,
          "name": "B1",
          "ticks": 1850,
          "time": 21.511627906976745,
          "velocity": 0.5590551181102362
        },
        {
          "duration": 0.023255813953486637,
          "durationTicks": 2,
          "midi": 48,
          "name": "C3",
          "ticks": 1850,
          "time": 21.511627906976745,
          "velocity": 0.31496062992125984
        },
        {
          "duration": 0.023255813953486637,
          "durationTicks": 2,
          "midi": 48,
          "name": "C3",
          "ticks": 1854,
          "time": 21.558139534883722,
          "velocity": 0.2755905511811024
        },
        {
          "duration": 0.04651162790697683,
          "durationTicks": 4,
          "midi": 78,
          "name": "F#5",
          "ticks": 1856,
          "time": 21.58139534883721,
          "velocity": 0.2440944881889764
        },
        {
          "duration": 0.08139534883720856,
          "durationTicks": 7,
          "midi": 91,
          "name": "G6",
          "ticks": 1856,
          "time": 21.58139534883721,
          "velocity": 0.2047244094488189
        },
        {
          "duration": 0.03488372093023173,
          "durationTicks": 3,
          "midi": 93,
          "name": "A6",
          "ticks": 1856,
          "time": 21.58139534883721,
          "velocity": 0.25984251968503935
        },
        {
          "duration": 0.10465116279069875,
          "durationTicks": 9,
          "midi": 98,
          "name": "D7",
          "ticks": 1856,
          "time": 21.58139534883721,
          "velocity": 0.1732283464566929
        },
        {
          "duration": 0.05813953488372192,
          "durationTicks": 5,
          "midi": 99,
          "name": "D#7",
          "ticks": 1856,
          "time": 21.58139534883721,
          "velocity": 0.2047244094488189
        },
        {
          "duration": 0.03488372093023173,
          "durationTicks": 3,
          "midi": 80,
          "name": "G#5",
          "ticks": 1857,
          "time": 21.593023255813954,
          "velocity": 0.11811023622047244
        },
        {
          "duration": 0.04651162790697683,
          "durationTicks": 4,
          "midi": 83,
          "name": "B5",
          "ticks": 1857,
          "time": 21.593023255813954,
          "velocity": 0.23622047244094488
        },
        {
          "duration": 0.03488372093023173,
          "durationTicks": 3,
          "midi": 86,
          "name": "D6",
          "ticks": 1857,
          "time": 21.593023255813954,
          "velocity": 0.25196850393700787
        },
        {
          "duration": 0.04651162790697683,
          "durationTicks": 4,
          "midi": 87,
          "name": "D#6",
          "ticks": 1857,
          "time": 21.593023255813954,
          "velocity": 0.25196850393700787
        },
        {
          "duration": 0.09302325581395365,
          "durationTicks": 8,
          "midi": 90,
          "name": "F#6",
          "ticks": 1857,
          "time": 21.593023255813954,
          "velocity": 0.2440944881889764
        },
        {
          "duration": 0.05813953488372192,
          "durationTicks": 5,
          "midi": 94,
          "name": "A#6",
          "ticks": 1857,
          "time": 21.593023255813954,
          "velocity": 0.28346456692913385
        },
        {
          "duration": 0.06976744186046346,
          "durationTicks": 6,
          "midi": 97,
          "name": "C#7",
          "ticks": 1857,
          "time": 21.593023255813954,
          "velocity": 0.16535433070866143
        },
        {
          "duration": 0.06976744186046346,
          "durationTicks": 6,
          "midi": 100,
          "name": "E7",
          "ticks": 1857,
          "time": 21.593023255813954,
          "velocity": 0.25196850393700787
        },
        {
          "duration": 0.023255813953486637,
          "durationTicks": 2,
          "midi": 51,
          "name": "D#3",
          "ticks": 1858,
          "time": 21.6046511627907,
          "velocity": 0.29133858267716534
        },
        {
          "duration": 0.023255813953486637,
          "durationTicks": 2,
          "midi": 60,
          "name": "C4",
          "ticks": 1858,
          "time": 21.6046511627907,
          "velocity": 0.33070866141732286
        },
        {
          "duration": 0.03488372093023173,
          "durationTicks": 3,
          "midi": 68,
          "name": "G#4",
          "ticks": 1858,
          "time": 21.6046511627907,
          "velocity": 0.18110236220472442
        },
        {
          "duration": 0.1046511627906952,
          "durationTicks": 9,
          "midi": 89,
          "name": "F6",
          "ticks": 1858,
          "time": 21.6046511627907,
          "velocity": 0.2677165354330709
        },
        {
          "duration": 0.05813953488371837,
          "durationTicks": 5,
          "midi": 96,
          "name": "C7",
          "ticks": 1858,
          "time": 21.6046511627907,
          "velocity": 0.09448818897637795
        },
        {
          "duration": 0.011627906976745095,
          "durationTicks": 1,
          "midi": 41,
          "name": "F2",
          "ticks": 1859,
          "time": 21.61627906976744,
          "velocity": 0.5905511811023622
        },
        {
          "duration": 0.04651162790697683,
          "durationTicks": 4,
          "midi": 82,
          "name": "A#5",
          "ticks": 1859,
          "time": 21.61627906976744,
          "velocity": 0.13385826771653545
        },
        {
          "duration": 0.06976744186046702,
          "durationTicks": 6,
          "midi": 85,
          "name": "C#6",
          "ticks": 1859,
          "time": 21.61627906976744,
          "velocity": 0.25984251968503935
        },
        {
          "duration": 0.06976744186046702,
          "durationTicks": 6,
          "midi": 92,
          "name": "G#6",
          "ticks": 1859,
          "time": 21.61627906976744,
          "velocity": 0.29133858267716534
        },
        {
          "duration": 0.011627906976745095,
          "durationTicks": 1,
          "midi": 40,
          "name": "E2",
          "ticks": 1860,
          "time": 21.627906976744185,
          "velocity": 0.5984251968503937
        },
        {
          "duration": 0.05813953488372192,
          "durationTicks": 5,
          "midi": 77,
          "name": "F5",
          "ticks": 1860,
          "time": 21.627906976744185,
          "velocity": 0.1732283464566929
        },
        {
          "duration": 0.08139534883720856,
          "durationTicks": 7,
          "midi": 93,
          "name": "A6",
          "ticks": 1860,
          "time": 21.627906976744185,
          "velocity": 0.15748031496062992
        },
        {
          "duration": 0.011627906976745095,
          "durationTicks": 1,
          "midi": 34,
          "name": "A#1",
          "ticks": 1861,
          "time": 21.63953488372093,
          "velocity": 0.5433070866141733
        },
        {
          "duration": 0.03488372093023173,
          "durationTicks": 3,
          "midi": 56,
          "name": "G#3",
          "ticks": 1861,
          "time": 21.63953488372093,
          "velocity": 0.3464566929133858
        },
        {
          "duration": 0.023255813953486637,
          "durationTicks": 2,
          "midi": 60,
          "name": "C4",
          "ticks": 1861,
          "time": 21.63953488372093,
          "velocity": 0.29133858267716534
        },
        {
          "duration": 0.011627906976741542,
          "durationTicks": 1,
          "midi": 31,
          "name": "G1",
          "ticks": 1862,
          "time": 21.651162790697676,
          "velocity": 0.5826771653543307
        },
        {
          "duration": 0.011627906976745095,
          "durationTicks": 1,
          "midi": 35,
          "name": "B1",
          "ticks": 1863,
          "time": 21.662790697674417,
          "velocity": 0.5905511811023622
        },
        {
          "duration": 0.04651162790697683,
          "durationTicks": 4,
          "midi": 62,
          "name": "D4",
          "ticks": 1863,
          "time": 21.662790697674417,
          "velocity": 0.25984251968503935
        },
        {
          "duration": 0.03488372093023173,
          "durationTicks": 3,
          "midi": 36,
          "name": "C2",
          "ticks": 1864,
          "time": 21.674418604651162,
          "velocity": 0.6377952755905512
        },
        {
          "duration": 0.011627906976745095,
          "durationTicks": 1,
          "midi": 35,
          "name": "B1",
          "ticks": 1867,
          "time": 21.709302325581394,
          "velocity": 0.6456692913385826
        },
        {
          "duration": 0.011627906976745095,
          "durationTicks": 1,
          "midi": 34,
          "name": "A#1",
          "ticks": 1868,
          "time": 21.72093023255814,
          "velocity": 0.5748031496062992
        },
        {
          "duration": 0.011627906976745095,
          "durationTicks": 1,
          "midi": 36,
          "name": "C2",
          "ticks": 1869,
          "time": 21.732558139534884,
          "velocity": 0.5511811023622047
        },
        {
          "duration": 0.023255813953486637,
          "durationTicks": 2,
          "midi": 55,
          "name": "G3",
          "ticks": 1869,
          "time": 21.732558139534884,
          "velocity": 0.2440944881889764
        },
        {
          "duration": 0.011627906976741542,
          "durationTicks": 1,
          "midi": 38,
          "name": "D2",
          "ticks": 1870,
          "time": 21.74418604651163,
          "velocity": 0.5826771653543307
        },
        {
          "duration": 0.011627906976745095,
          "durationTicks": 1,
          "midi": 36,
          "name": "C2",
          "ticks": 1871,
          "time": 21.75581395348837,
          "velocity": 0.5748031496062992
        },
        {
          "duration": 0.011627906976745095,
          "durationTicks": 1,
          "midi": 32,
          "name": "G#1",
          "ticks": 1872,
          "time": 21.767441860465116,
          "velocity": 0.5275590551181102
        },
        {
          "duration": 0.02325581395349019,
          "durationTicks": 2,
          "midi": 42,
          "name": "F#2",
          "ticks": 1872,
          "time": 21.767441860465116,
          "velocity": 0.4566929133858268
        },
        {
          "duration": 0.011627906976745095,
          "durationTicks": 1,
          "midi": 34,
          "name": "A#1",
          "ticks": 1876,
          "time": 21.813953488372093,
          "velocity": 0.5511811023622047
        },
        {
          "duration": 0.02325581395349019,
          "durationTicks": 2,
          "midi": 60,
          "name": "C4",
          "ticks": 1879,
          "time": 21.848837209302324,
          "velocity": 0.36220472440944884
        },
        {
          "duration": 0.011627906976745095,
          "durationTicks": 1,
          "midi": 33,
          "name": "A1",
          "ticks": 1880,
          "time": 21.86046511627907,
          "velocity": 0.5826771653543307
        },
        {
          "duration": 0.04651162790697683,
          "durationTicks": 4,
          "midi": 74,
          "name": "D5",
          "ticks": 1880,
          "time": 21.86046511627907,
          "velocity": 0.1968503937007874
        },
        {
          "duration": 0.011627906976745095,
          "durationTicks": 1,
          "midi": 34,
          "name": "A#1",
          "ticks": 1881,
          "time": 21.872093023255815,
          "velocity": 0.6141732283464567
        },
        {
          "duration": 0.023255813953486637,
          "durationTicks": 2,
          "midi": 51,
          "name": "D#3",
          "ticks": 1881,
          "time": 21.872093023255815,
          "velocity": 0.5984251968503937
        },
        {
          "duration": 0.011627906976741542,
          "durationTicks": 1,
          "midi": 33,
          "name": "A1",
          "ticks": 1882,
          "time": 21.88372093023256,
          "velocity": 0.5905511811023622
        },
        {
          "duration": 0.05813953488371837,
          "durationTicks": 5,
          "midi": 56,
          "name": "G#3",
          "ticks": 1882,
          "time": 21.88372093023256,
          "velocity": 0.4881889763779528
        },
        {
          "duration": 0.023255813953486637,
          "durationTicks": 2,
          "midi": 59,
          "name": "B3",
          "ticks": 1882,
          "time": 21.88372093023256,
          "velocity": 0.3543307086614173
        },
        {
          "duration": 0.03488372093023173,
          "durationTicks": 3,
          "midi": 70,
          "name": "A#4",
          "ticks": 1882,
          "time": 21.88372093023256,
          "velocity": 0.1968503937007874
        },
        {
          "duration": 0.011627906976745095,
          "durationTicks": 1,
          "midi": 24,
          "name": "C1",
          "ticks": 1883,
          "time": 21.8953488372093,
          "velocity": 0.5275590551181102
        },
        {
          "duration": 0.011627906976745095,
          "durationTicks": 1,
          "midi": 44,
          "name": "G#2",
          "ticks": 1883,
          "time": 21.8953488372093,
          "velocity": 0.6062992125984252
        },
        {
          "duration": 0.02325581395349019,
          "durationTicks": 2,
          "midi": 40,
          "name": "E2",
          "ticks": 1884,
          "time": 21.906976744186046,
          "velocity": 0.6614173228346457
        },
        {
          "duration": 0.13953488372093048,
          "durationTicks": 12,
          "midi": 62,
          "name": "D4",
          "ticks": 1884,
          "time": 21.906976744186046,
          "velocity": 0.4015748031496063
        },
        {
          "duration": 0.023255813953486637,
          "durationTicks": 2,
          "midi": 48,
          "name": "C3",
          "ticks": 1885,
          "time": 21.91860465116279,
          "velocity": 0.5275590551181102
        },
        {
          "duration": 0.011627906976741542,
          "durationTicks": 1,
          "midi": 32,
          "name": "G#1",
          "ticks": 1886,
          "time": 21.930232558139537,
          "velocity": 0.5905511811023622
        },
        {
          "duration": 0.011627906976741542,
          "durationTicks": 1,
          "midi": 41,
          "name": "F2",
          "ticks": 1886,
          "time": 21.930232558139537,
          "velocity": 0.5590551181102362
        },
        {
          "duration": 0.011627906976745095,
          "durationTicks": 1,
          "midi": 34,
          "name": "A#1",
          "ticks": 1887,
          "time": 21.941860465116278,
          "velocity": 0.6850393700787402
        },
        {
          "duration": 0.011627906976745095,
          "durationTicks": 1,
          "midi": 49,
          "name": "C#3",
          "ticks": 1887,
          "time": 21.941860465116278,
          "velocity": 0.5118110236220472
        },
        {
          "duration": 0.034883720930235285,
          "durationTicks": 3,
          "midi": 70,
          "name": "A#4",
          "ticks": 1887,
          "time": 21.941860465116278,
          "velocity": 0.11023622047244094
        },
        {
          "duration": 0.011627906976745095,
          "durationTicks": 1,
          "midi": 32,
          "name": "G#1",
          "ticks": 1888,
          "time": 21.953488372093023,
          "velocity": 0.7165354330708661
        },
        {
          "duration": 0.011627906976745095,
          "durationTicks": 1,
          "midi": 42,
          "name": "F#2",
          "ticks": 1888,
          "time": 21.953488372093023,
          "velocity": 0.5590551181102362
        },
        {
          "duration": 0.04651162790697683,
          "durationTicks": 4,
          "midi": 56,
          "name": "G#3",
          "ticks": 1888,
          "time": 21.953488372093023,
          "velocity": 0.4566929133858268
        },
        {
          "duration": 0.011627906976745095,
          "durationTicks": 1,
          "midi": 34,
          "name": "A#1",
          "ticks": 1889,
          "time": 21.96511627906977,
          "velocity": 0.7559055118110236
        },
        {
          "duration": 0.023255813953486637,
          "durationTicks": 2,
          "midi": 36,
          "name": "C2",
          "ticks": 1890,
          "time": 21.976744186046513,
          "velocity": 0.7401574803149606
        },
        {
          "duration": 0.023255813953486637,
          "durationTicks": 2,
          "midi": 34,
          "name": "A#1",
          "ticks": 1892,
          "time": 22,
          "velocity": 0.7007874015748031
        },
        {
          "duration": 0.023255813953486637,
          "durationTicks": 2,
          "midi": 52,
          "name": "E3",
          "ticks": 1892,
          "time": 22,
          "velocity": 0.48031496062992124
        },
        {
          "duration": 0.023255813953486637,
          "durationTicks": 2,
          "midi": 56,
          "name": "G#3",
          "ticks": 1893,
          "time": 22.011627906976745,
          "velocity": 0.3543307086614173
        },
        {
          "duration": 0.011627906976745095,
          "durationTicks": 1,
          "midi": 36,
          "name": "C2",
          "ticks": 1894,
          "time": 22.023255813953487,
          "velocity": 0.6771653543307087
        },
        {
          "duration": 0.011627906976745095,
          "durationTicks": 1,
          "midi": 50,
          "name": "D3",
          "ticks": 1894,
          "time": 22.023255813953487,
          "velocity": 0.5118110236220472
        },
        {
          "duration": 0.011627906976745095,
          "durationTicks": 1,
          "midi": 35,
          "name": "B1",
          "ticks": 1895,
          "time": 22.03488372093023,
          "velocity": 0.5984251968503937
        },
        {
          "duration": 0.011627906976745095,
          "durationTicks": 1,
          "midi": 49,
          "name": "C#3",
          "ticks": 1895,
          "time": 22.03488372093023,
          "velocity": 0.5118110236220472
        },
        {
          "duration": 0.011627906976745095,
          "durationTicks": 1,
          "midi": 33,
          "name": "A1",
          "ticks": 1896,
          "time": 22.046511627906977,
          "velocity": 0.5984251968503937
        },
        {
          "duration": 0.011627906976745095,
          "durationTicks": 1,
          "midi": 44,
          "name": "G#2",
          "ticks": 1896,
          "time": 22.046511627906977,
          "velocity": 0.5275590551181102
        },
        {
          "duration": 0.011627906976741542,
          "durationTicks": 1,
          "midi": 34,
          "name": "A#1",
          "ticks": 1897,
          "time": 22.058139534883722,
          "velocity": 0.6377952755905512
        },
        {
          "duration": 0.011627906976745095,
          "durationTicks": 1,
          "midi": 32,
          "name": "G#1",
          "ticks": 1898,
          "time": 22.069767441860463,
          "velocity": 0.5826771653543307
        },
        {
          "duration": 0.02325581395349019,
          "durationTicks": 2,
          "midi": 50,
          "name": "D3",
          "ticks": 1898,
          "time": 22.069767441860463,
          "velocity": 0.4645669291338583
        },
        {
          "duration": 0.011627906976745095,
          "durationTicks": 1,
          "midi": 31,
          "name": "G1",
          "ticks": 1899,
          "time": 22.08139534883721,
          "velocity": 0.5433070866141733
        },
        {
          "duration": 0.02325581395349019,
          "durationTicks": 2,
          "midi": 42,
          "name": "F#2",
          "ticks": 1899,
          "time": 22.08139534883721,
          "velocity": 0.5590551181102362
        },
        {
          "duration": 0.023255813953486637,
          "durationTicks": 2,
          "midi": 29,
          "name": "F1",
          "ticks": 1900,
          "time": 22.093023255813954,
          "velocity": 0.5275590551181102
        },
        {
          "duration": 0.011627906976741542,
          "durationTicks": 1,
          "midi": 41,
          "name": "F2",
          "ticks": 1901,
          "time": 22.1046511627907,
          "velocity": 0.5275590551181102
        },
        {
          "duration": 0.023255813953486637,
          "durationTicks": 2,
          "midi": 48,
          "name": "C3",
          "ticks": 1901,
          "time": 22.1046511627907,
          "velocity": 0.48031496062992124
        },
        {
          "duration": 0.011627906976745095,
          "durationTicks": 1,
          "midi": 30,
          "name": "F#1",
          "ticks": 1902,
          "time": 22.11627906976744,
          "velocity": 0.5669291338582677
        },
        {
          "duration": 0.02325581395349019,
          "durationTicks": 2,
          "midi": 31,
          "name": "G1",
          "ticks": 1903,
          "time": 22.127906976744185,
          "velocity": 0.5905511811023622
        },
        {
          "duration": 0.02325581395349019,
          "durationTicks": 2,
          "midi": 55,
          "name": "G3",
          "ticks": 1903,
          "time": 22.127906976744185,
          "velocity": 0.25196850393700787
        },
        {
          "duration": 0.011627906976741542,
          "durationTicks": 1,
          "midi": 30,
          "name": "F#1",
          "ticks": 1905,
          "time": 22.151162790697676,
          "velocity": 0.5433070866141733
        },
        {
          "duration": 0.011627906976741542,
          "durationTicks": 1,
          "midi": 40,
          "name": "E2",
          "ticks": 1905,
          "time": 22.151162790697676,
          "velocity": 0.5433070866141733
        },
        {
          "duration": 0.04651162790697683,
          "durationTicks": 4,
          "midi": 56,
          "name": "G#3",
          "ticks": 1905,
          "time": 22.151162790697676,
          "velocity": 0.3228346456692913
        },
        {
          "duration": 0.011627906976745095,
          "durationTicks": 1,
          "midi": 28,
          "name": "E1",
          "ticks": 1906,
          "time": 22.162790697674417,
          "velocity": 0.5433070866141733
        },
        {
          "duration": 0.011627906976745095,
          "durationTicks": 1,
          "midi": 41,
          "name": "F2",
          "ticks": 1906,
          "time": 22.162790697674417,
          "velocity": 0.5511811023622047
        },
        {
          "duration": 0.011627906976745095,
          "durationTicks": 1,
          "midi": 30,
          "name": "F#1",
          "ticks": 1907,
          "time": 22.174418604651162,
          "velocity": 0.5905511811023622
        },
        {
          "duration": 0.011627906976745095,
          "durationTicks": 1,
          "midi": 32,
          "name": "G#1",
          "ticks": 1908,
          "time": 22.186046511627907,
          "velocity": 0.6141732283464567
        },
        {
          "duration": 0.08139534883720856,
          "durationTicks": 7,
          "midi": 62,
          "name": "D4",
          "ticks": 1908,
          "time": 22.186046511627907,
          "velocity": 0.2755905511811024
        },
        {
          "duration": 0.011627906976741542,
          "durationTicks": 1,
          "midi": 34,
          "name": "A#1",
          "ticks": 1909,
          "time": 22.197674418604652,
          "velocity": 0.6299212598425197
        },
        {
          "duration": 0.011627906976745095,
          "durationTicks": 1,
          "midi": 31,
          "name": "G1",
          "ticks": 1910,
          "time": 22.209302325581394,
          "velocity": 0.5196850393700787
        },
        {
          "duration": 0.02325581395349019,
          "durationTicks": 2,
          "midi": 52,
          "name": "E3",
          "ticks": 1911,
          "time": 22.22093023255814,
          "velocity": 0.29133858267716534
        },
        {
          "duration": 0.04651162790697683,
          "durationTicks": 4,
          "midi": 56,
          "name": "G#3",
          "ticks": 1912,
          "time": 22.232558139534884,
          "velocity": 0.2283464566929134
        },
        {
          "duration": 0.011627906976741542,
          "durationTicks": 1,
          "midi": 35,
          "name": "B1",
          "ticks": 1913,
          "time": 22.24418604651163,
          "velocity": 0.5590551181102362
        },
        {
          "duration": 0.03488372093023173,
          "durationTicks": 3,
          "midi": 50,
          "name": "D3",
          "ticks": 1913,
          "time": 22.24418604651163,
          "velocity": 0.3543307086614173
        },
        {
          "duration": 0.011627906976745095,
          "durationTicks": 1,
          "midi": 31,
          "name": "G1",
          "ticks": 1914,
          "time": 22.25581395348837,
          "velocity": 0.5511811023622047
        },
        {
          "duration": 0.011627906976745095,
          "durationTicks": 1,
          "midi": 42,
          "name": "F#2",
          "ticks": 1915,
          "time": 22.267441860465116,
          "velocity": 0.5196850393700787
        },
        {
          "duration": 0.011627906976745095,
          "durationTicks": 1,
          "midi": 41,
          "name": "F2",
          "ticks": 1916,
          "time": 22.27906976744186,
          "velocity": 0.5590551181102362
        },
        {
          "duration": 0.03488372093023173,
          "durationTicks": 3,
          "midi": 62,
          "name": "D4",
          "ticks": 1916,
          "time": 22.27906976744186,
          "velocity": 0.11811023622047244
        },
        {
          "duration": 0.011627906976741542,
          "durationTicks": 1,
          "midi": 37,
          "name": "C#2",
          "ticks": 1917,
          "time": 22.290697674418606,
          "velocity": 0.5905511811023622
        },
        {
          "duration": 0.011627906976745095,
          "durationTicks": 1,
          "midi": 39,
          "name": "D#2",
          "ticks": 1918,
          "time": 22.302325581395348,
          "velocity": 0.5748031496062992
        },
        {
          "duration": 0.011627906976745095,
          "durationTicks": 1,
          "midi": 40,
          "name": "E2",
          "ticks": 1919,
          "time": 22.313953488372093,
          "velocity": 0.5354330708661418
        },
        {
          "duration": 0.011627906976741542,
          "durationTicks": 1,
          "midi": 31,
          "name": "G1",
          "ticks": 1921,
          "time": 22.337209302325583,
          "velocity": 0.5590551181102362
        },
        {
          "duration": 0.011627906976745095,
          "durationTicks": 1,
          "midi": 36,
          "name": "C2",
          "ticks": 1922,
          "time": 22.348837209302324,
          "velocity": 0.5905511811023622
        },
        {
          "duration": 0.011627906976745095,
          "durationTicks": 1,
          "midi": 36,
          "name": "C2",
          "ticks": 1926,
          "time": 22.3953488372093,
          "velocity": 0.5748031496062992
        },
        {
          "duration": 0.02325581395349019,
          "durationTicks": 2,
          "midi": 55,
          "name": "G3",
          "ticks": 1926,
          "time": 22.3953488372093,
          "velocity": 0.30708661417322836
        },
        {
          "duration": 0.02325581395349019,
          "durationTicks": 2,
          "midi": 34,
          "name": "A#1",
          "ticks": 1927,
          "time": 22.406976744186046,
          "velocity": 0.5984251968503937
        },
        {
          "duration": 0.023255813953486637,
          "durationTicks": 2,
          "midi": 57,
          "name": "A3",
          "ticks": 1928,
          "time": 22.41860465116279,
          "velocity": 0.4094488188976378
        },
        {
          "duration": 0.011627906976741542,
          "durationTicks": 1,
          "midi": 30,
          "name": "F#1",
          "ticks": 1929,
          "time": 22.430232558139537,
          "velocity": 0.5511811023622047
        },
        {
          "duration": 0.023255813953486637,
          "durationTicks": 2,
          "midi": 41,
          "name": "F2",
          "ticks": 1929,
          "time": 22.430232558139537,
          "velocity": 0.6614173228346457
        },
        {
          "duration": 0.023255813953486637,
          "durationTicks": 2,
          "midi": 63,
          "name": "D#4",
          "ticks": 1929,
          "time": 22.430232558139537,
          "velocity": 0.3858267716535433
        },
        {
          "duration": 0.03488372093023173,
          "durationTicks": 3,
          "midi": 67,
          "name": "G4",
          "ticks": 1929,
          "time": 22.430232558139537,
          "velocity": 0.29133858267716534
        },
        {
          "duration": 0.011627906976745095,
          "durationTicks": 1,
          "midi": 37,
          "name": "C#2",
          "ticks": 1931,
          "time": 22.453488372093023,
          "velocity": 0.6220472440944882
        },
        {
          "duration": 0.02325581395349019,
          "durationTicks": 2,
          "midi": 56,
          "name": "G#3",
          "ticks": 1931,
          "time": 22.453488372093023,
          "velocity": 0.4015748031496063
        },
        {
          "duration": 0.13953488372093048,
          "durationTicks": 12,
          "midi": 62,
          "name": "D4",
          "ticks": 1931,
          "time": 22.453488372093023,
          "velocity": 0.3700787401574803
        },
        {
          "duration": 0.011627906976745095,
          "durationTicks": 1,
          "midi": 34,
          "name": "A#1",
          "ticks": 1932,
          "time": 22.46511627906977,
          "velocity": 0.5433070866141733
        },
        {
          "duration": 0.011627906976741542,
          "durationTicks": 1,
          "midi": 36,
          "name": "C2",
          "ticks": 1933,
          "time": 22.476744186046513,
          "velocity": 0.6535433070866141
        },
        {
          "duration": 0.011627906976745095,
          "durationTicks": 1,
          "midi": 37,
          "name": "C#2",
          "ticks": 1934,
          "time": 22.488372093023255,
          "velocity": 0.7007874015748031
        },
        {
          "duration": 0.02325581395349019,
          "durationTicks": 2,
          "midi": 53,
          "name": "F3",
          "ticks": 1934,
          "time": 22.488372093023255,
          "velocity": 0.36220472440944884
        },
        {
          "duration": 0.011627906976745095,
          "durationTicks": 1,
          "midi": 35,
          "name": "B1",
          "ticks": 1935,
          "time": 22.5,
          "velocity": 0.6929133858267716
        },
        {
          "duration": 0.011627906976741542,
          "durationTicks": 1,
          "midi": 34,
          "name": "A#1",
          "ticks": 1936,
          "time": 22.511627906976745,
          "velocity": 0.7165354330708661
        },
        {
          "duration": 0.02325581395349019,
          "durationTicks": 2,
          "midi": 36,
          "name": "C2",
          "ticks": 1937,
          "time": 22.523255813953487,
          "velocity": 0.7165354330708661
        },
        {
          "duration": 0.02325581395349019,
          "durationTicks": 2,
          "midi": 55,
          "name": "G3",
          "ticks": 1938,
          "time": 22.53488372093023,
          "velocity": 0.23622047244094488
        },
        {
          "duration": 0.011627906976745095,
          "durationTicks": 1,
          "midi": 34,
          "name": "A#1",
          "ticks": 1939,
          "time": 22.546511627906977,
          "velocity": 0.6771653543307087
        },
        {
          "duration": 0.05813953488371837,
          "durationTicks": 5,
          "midi": 36,
          "name": "C2",
          "ticks": 1940,
          "time": 22.558139534883722,
          "velocity": 0.7007874015748031
        },
        {
          "duration": 0.011627906976745095,
          "durationTicks": 1,
          "midi": 35,
          "name": "B1",
          "ticks": 1945,
          "time": 22.61627906976744,
          "velocity": 0.5275590551181102
        },
        {
          "duration": 0.023255813953486637,
          "durationTicks": 2,
          "midi": 48,
          "name": "C3",
          "ticks": 1948,
          "time": 22.651162790697676,
          "velocity": 0.29133858267716534
        },
        {
          "duration": 0.02325581395349019,
          "durationTicks": 2,
          "midi": 31,
          "name": "G1",
          "ticks": 1949,
          "time": 22.662790697674417,
          "velocity": 0.4330708661417323
        },
        {
          "duration": 0.023255813953486637,
          "durationTicks": 2,
          "midi": 41,
          "name": "F2",
          "ticks": 1952,
          "time": 22.697674418604652,
          "velocity": 0.5905511811023622
        },
        {
          "duration": 0.023255813953486637,
          "durationTicks": 2,
          "midi": 60,
          "name": "C4",
          "ticks": 1952,
          "time": 22.697674418604652,
          "velocity": 0.2677165354330709
        },
        {
          "duration": 0.03488372093023173,
          "durationTicks": 3,
          "midi": 68,
          "name": "G#4",
          "ticks": 1952,
          "time": 22.697674418604652,
          "velocity": 0.14960629921259844
        },
        {
          "duration": 0.02325581395349019,
          "durationTicks": 2,
          "midi": 50,
          "name": "D3",
          "ticks": 1953,
          "time": 22.709302325581394,
          "velocity": 0.25984251968503935
        },
        {
          "duration": 0.011627906976745095,
          "durationTicks": 1,
          "midi": 38,
          "name": "D2",
          "ticks": 1954,
          "time": 22.72093023255814,
          "velocity": 0.5905511811023622
        },
        {
          "duration": 0.011627906976745095,
          "durationTicks": 1,
          "midi": 34,
          "name": "A#1",
          "ticks": 1955,
          "time": 22.732558139534884,
          "velocity": 0.5433070866141733
        },
        {
          "duration": 0.023255813953486637,
          "durationTicks": 2,
          "midi": 56,
          "name": "G#3",
          "ticks": 1955,
          "time": 22.732558139534884,
          "velocity": 0.3228346456692913
        },
        {
          "duration": 0.011627906976741542,
          "durationTicks": 1,
          "midi": 32,
          "name": "G#1",
          "ticks": 1956,
          "time": 22.74418604651163,
          "velocity": 0.5905511811023622
        },
        {
          "duration": 0.011627906976745095,
          "durationTicks": 1,
          "midi": 35,
          "name": "B1",
          "ticks": 1957,
          "time": 22.75581395348837,
          "velocity": 0.5748031496062992
        },
        {
          "duration": 0.02325581395349019,
          "durationTicks": 2,
          "midi": 57,
          "name": "A3",
          "ticks": 1957,
          "time": 22.75581395348837,
          "velocity": 0.31496062992125984
        },
        {
          "duration": 0.05813953488372192,
          "durationTicks": 5,
          "midi": 62,
          "name": "D4",
          "ticks": 1957,
          "time": 22.75581395348837,
          "velocity": 0.25196850393700787
        },
        {
          "duration": 0.011627906976741542,
          "durationTicks": 1,
          "midi": 36,
          "name": "C2",
          "ticks": 1960,
          "time": 22.790697674418606,
          "velocity": 0.6299212598425197
        },
        {
          "duration": 0.011627906976745095,
          "durationTicks": 1,
          "midi": 35,
          "name": "B1",
          "ticks": 1961,
          "time": 22.802325581395348,
          "velocity": 0.6299212598425197
        },
        {
          "duration": 0.011627906976745095,
          "durationTicks": 1,
          "midi": 34,
          "name": "A#1",
          "ticks": 1962,
          "time": 22.813953488372093,
          "velocity": 0.5748031496062992
        },
        {
          "duration": 0.011627906976745095,
          "durationTicks": 1,
          "midi": 36,
          "name": "C2",
          "ticks": 1963,
          "time": 22.825581395348838,
          "velocity": 0.5511811023622047
        },
        {
          "duration": 0.04651162790697683,
          "durationTicks": 4,
          "midi": 62,
          "name": "D4",
          "ticks": 1963,
          "time": 22.825581395348838,
          "velocity": 0.13385826771653545
        },
        {
          "duration": 0.011627906976741542,
          "durationTicks": 1,
          "midi": 38,
          "name": "D2",
          "ticks": 1964,
          "time": 22.837209302325583,
          "velocity": 0.5905511811023622
        },
        {
          "duration": 0.011627906976745095,
          "durationTicks": 1,
          "midi": 36,
          "name": "C2",
          "ticks": 1965,
          "time": 22.848837209302324,
          "velocity": 0.5826771653543307
        },
        {
          "duration": 0.011627906976745095,
          "durationTicks": 1,
          "midi": 32,
          "name": "G#1",
          "ticks": 1966,
          "time": 22.86046511627907,
          "velocity": 0.5196850393700787
        },
        {
          "duration": 0.023255813953486637,
          "durationTicks": 2,
          "midi": 44,
          "name": "G#2",
          "ticks": 1967,
          "time": 22.872093023255815,
          "velocity": 0.3937007874015748
        },
        {
          "duration": 0.011627906976745095,
          "durationTicks": 1,
          "midi": 34,
          "name": "A#1",
          "ticks": 1970,
          "time": 22.906976744186046,
          "velocity": 0.5433070866141733
        },
        {
          "duration": 0.011627906976745095,
          "durationTicks": 1,
          "midi": 30,
          "name": "F#1",
          "ticks": 1973,
          "time": 22.941860465116278,
          "velocity": 0.5196850393700787
        },
        {
          "duration": 0.02325581395349019,
          "durationTicks": 2,
          "midi": 34,
          "name": "A#1",
          "ticks": 1974,
          "time": 22.953488372093023,
          "velocity": 0.6220472440944882
        },
        {
          "duration": 0.03488372093023173,
          "durationTicks": 3,
          "midi": 51,
          "name": "D#3",
          "ticks": 1974,
          "time": 22.953488372093023,
          "velocity": 0.5905511811023622
        },
        {
          "duration": 0.03488372093023173,
          "durationTicks": 3,
          "midi": 74,
          "name": "D5",
          "ticks": 1974,
          "time": 22.953488372093023,
          "velocity": 0.1732283464566929
        },
        {
          "duration": 0.023255813953486637,
          "durationTicks": 2,
          "midi": 64,
          "name": "E4",
          "ticks": 1975,
          "time": 22.96511627906977,
          "velocity": 0.31496062992125984
        },
        {
          "duration": 0.011627906976741542,
          "durationTicks": 1,
          "midi": 33,
          "name": "A1",
          "ticks": 1976,
          "time": 22.976744186046513,
          "velocity": 0.5984251968503937
        },
        {
          "duration": 0.05813953488371837,
          "durationTicks": 5,
          "midi": 56,
          "name": "G#3",
          "ticks": 1976,
          "time": 22.976744186046513,
          "velocity": 0.48031496062992124
        },
        {
          "duration": 0.03488372093023173,
          "durationTicks": 3,
          "midi": 70,
          "name": "A#4",
          "ticks": 1976,
          "time": 22.976744186046513,
          "velocity": 0.2047244094488189
        },
        {
          "duration": 0.011627906976745095,
          "durationTicks": 1,
          "midi": 25,
          "name": "C#1",
          "ticks": 1977,
          "time": 22.988372093023255,
          "velocity": 0.5275590551181102
        },
        {
          "duration": 0.011627906976745095,
          "durationTicks": 1,
          "midi": 43,
          "name": "G2",
          "ticks": 1977,
          "time": 22.988372093023255,
          "velocity": 0.6141732283464567
        },
        {
          "duration": 0.023255813953486637,
          "durationTicks": 2,
          "midi": 40,
          "name": "E2",
          "ticks": 1978,
          "time": 23,
          "velocity": 0.6614173228346457
        },
        {
          "duration": 0.11627906976744029,
          "durationTicks": 10,
          "midi": 62,
          "name": "D4",
          "ticks": 1978,
          "time": 23,
          "velocity": 0.4015748031496063
        },
        {
          "duration": 0.023255813953486637,
          "durationTicks": 2,
          "midi": 48,
          "name": "C3",
          "ticks": 1979,
          "time": 23.011627906976745,
          "velocity": 0.5275590551181102
        },
        {
          "duration": 0.011627906976745095,
          "durationTicks": 1,
          "midi": 33,
          "name": "A1",
          "ticks": 1980,
          "time": 23.023255813953487,
          "velocity": 0.5905511811023622
        },
        {
          "duration": 0.011627906976745095,
          "durationTicks": 1,
          "midi": 41,
          "name": "F2",
          "ticks": 1980,
          "time": 23.023255813953487,
          "velocity": 0.5433070866141733
        },
        {
          "duration": 0.02325581395349019,
          "durationTicks": 2,
          "midi": 31,
          "name": "G1",
          "ticks": 1981,
          "time": 23.03488372093023,
          "velocity": 0.7165354330708661
        },
        {
          "duration": 0.011627906976745095,
          "durationTicks": 1,
          "midi": 49,
          "name": "C#3",
          "ticks": 1981,
          "time": 23.03488372093023,
          "velocity": 0.5118110236220472
        },
        {
          "duration": 0.011627906976745095,
          "durationTicks": 1,
          "midi": 41,
          "name": "F2",
          "ticks": 1982,
          "time": 23.046511627906977,
          "velocity": 0.5433070866141733
        },
        {
          "duration": 0.04651162790697683,
          "durationTicks": 4,
          "midi": 56,
          "name": "G#3",
          "ticks": 1982,
          "time": 23.046511627906977,
          "velocity": 0.44881889763779526
        },
        {
          "duration": 0.011627906976741542,
          "durationTicks": 1,
          "midi": 34,
          "name": "A#1",
          "ticks": 1983,
          "time": 23.058139534883722,
          "velocity": 0.7559055118110236
        },
        {
          "duration": 0.02325581395349019,
          "durationTicks": 2,
          "midi": 36,
          "name": "C2",
          "ticks": 1984,
          "time": 23.069767441860463,
          "velocity": 0.7322834645669292
        },
        {
          "duration": 0.023255813953486637,
          "durationTicks": 2,
          "midi": 35,
          "name": "B1",
          "ticks": 1986,
          "time": 23.093023255813954,
          "velocity": 0.6929133858267716
        },
        {
          "duration": 0.023255813953486637,
          "durationTicks": 2,
          "midi": 56,
          "name": "G#3",
          "ticks": 1987,
          "time": 23.1046511627907,
          "velocity": 0.3464566929133858
        },
        {
          "duration": 0.011627906976745095,
          "durationTicks": 1,
          "midi": 36,
          "name": "C2",
          "ticks": 1988,
          "time": 23.11627906976744,
          "velocity": 0.6614173228346457
        },
        {
          "duration": 0.011627906976745095,
          "durationTicks": 1,
          "midi": 50,
          "name": "D3",
          "ticks": 1988,
          "time": 23.11627906976744,
          "velocity": 0.5118110236220472
        },
        {
          "duration": 0.011627906976745095,
          "durationTicks": 1,
          "midi": 35,
          "name": "B1",
          "ticks": 1989,
          "time": 23.127906976744185,
          "velocity": 0.5748031496062992
        },
        {
          "duration": 0.011627906976745095,
          "durationTicks": 1,
          "midi": 33,
          "name": "A1",
          "ticks": 1990,
          "time": 23.13953488372093,
          "velocity": 0.5905511811023622
        },
        {
          "duration": 0.023255813953486637,
          "durationTicks": 2,
          "midi": 44,
          "name": "G#2",
          "ticks": 1990,
          "time": 23.13953488372093,
          "velocity": 0.5196850393700787
        },
        {
          "duration": 0.011627906976741542,
          "durationTicks": 1,
          "midi": 34,
          "name": "A#1",
          "ticks": 1991,
          "time": 23.151162790697676,
          "velocity": 0.6299212598425197
        },
        {
          "duration": 0.011627906976745095,
          "durationTicks": 1,
          "midi": 32,
          "name": "G#1",
          "ticks": 1992,
          "time": 23.162790697674417,
          "velocity": 0.5590551181102362
        },
        {
          "duration": 0.011627906976745095,
          "durationTicks": 1,
          "midi": 37,
          "name": "C#2",
          "ticks": 1992,
          "time": 23.162790697674417,
          "velocity": 0.5275590551181102
        },
        {
          "duration": 0.02325581395349019,
          "durationTicks": 2,
          "midi": 50,
          "name": "D3",
          "ticks": 1992,
          "time": 23.162790697674417,
          "velocity": 0.47244094488188976
        },
        {
          "duration": 0.011627906976745095,
          "durationTicks": 1,
          "midi": 31,
          "name": "G1",
          "ticks": 1993,
          "time": 23.174418604651162,
          "velocity": 0.5275590551181102
        },
        {
          "duration": 0.02325581395349019,
          "durationTicks": 2,
          "midi": 42,
          "name": "F#2",
          "ticks": 1993,
          "time": 23.174418604651162,
          "velocity": 0.5511811023622047
        },
        {
          "duration": 0.023255813953486637,
          "durationTicks": 2,
          "midi": 29,
          "name": "F1",
          "ticks": 1994,
          "time": 23.186046511627907,
          "velocity": 0.5354330708661418
        },
        {
          "duration": 0.023255813953486637,
          "durationTicks": 2,
          "midi": 48,
          "name": "C3",
          "ticks": 1995,
          "time": 23.197674418604652,
          "velocity": 0.48031496062992124
        },
        {
          "duration": 0.011627906976745095,
          "durationTicks": 1,
          "midi": 30,
          "name": "F#1",
          "ticks": 1996,
          "time": 23.209302325581394,
          "velocity": 0.5590551181102362
        },
        {
          "duration": 0.02325581395349019,
          "durationTicks": 2,
          "midi": 31,
          "name": "G1",
          "ticks": 1997,
          "time": 23.22093023255814,
          "velocity": 0.5984251968503937
        },
        {
          "duration": 0.02325581395349019,
          "durationTicks": 2,
          "midi": 55,
          "name": "G3",
          "ticks": 1997,
          "time": 23.22093023255814,
          "velocity": 0.25196850393700787
        },
        {
          "duration": 0.05813953488372192,
          "durationTicks": 5,
          "midi": 98,
          "name": "D7",
          "ticks": 1997,
          "time": 23.22093023255814,
          "velocity": 0.2047244094488189
        },
        {
          "duration": 0.03488372093023173,
          "durationTicks": 3,
          "midi": 64,
          "name": "E4",
          "ticks": 1998,
          "time": 23.232558139534884,
          "velocity": 0.18110236220472442
        },
        {
          "duration": 0.03488372093023173,
          "durationTicks": 3,
          "midi": 87,
          "name": "D#6",
          "ticks": 1998,
          "time": 23.232558139534884,
          "velocity": 0.15748031496062992
        },
        {
          "duration": 0.06976744186046346,
          "durationTicks": 6,
          "midi": 89,
          "name": "F6",
          "ticks": 1998,
          "time": 23.232558139534884,
          "velocity": 0.2283464566929134
        },
        {
          "duration": 0.04651162790697683,
          "durationTicks": 4,
          "midi": 92,
          "name": "G#6",
          "ticks": 1998,
          "time": 23.232558139534884,
          "velocity": 0.11811023622047244
        },
        {
          "duration": 0.06976744186046346,
          "durationTicks": 6,
          "midi": 93,
          "name": "A6",
          "ticks": 1998,
          "time": 23.232558139534884,
          "velocity": 0.11023622047244094
        },
        {
          "duration": 0.03488372093023173,
          "durationTicks": 3,
          "midi": 94,
          "name": "A#6",
          "ticks": 1998,
          "time": 23.232558139534884,
          "velocity": 0.16535433070866143
        },
        {
          "duration": 0.04651162790697683,
          "durationTicks": 4,
          "midi": 97,
          "name": "C#7",
          "ticks": 1998,
          "time": 23.232558139534884,
          "velocity": 0.1732283464566929
        },
        {
          "duration": 0.05813953488372192,
          "durationTicks": 5,
          "midi": 99,
          "name": "D#7",
          "ticks": 1998,
          "time": 23.232558139534884,
          "velocity": 0.1732283464566929
        },
        {
          "duration": 0.05813953488372192,
          "durationTicks": 5,
          "midi": 100,
          "name": "E7",
          "ticks": 1998,
          "time": 23.232558139534884,
          "velocity": 0.1968503937007874
        },
        {
          "duration": 0.03488372093023173,
          "durationTicks": 3,
          "midi": 103,
          "name": "G7",
          "ticks": 1998,
          "time": 23.232558139534884,
          "velocity": 0.09448818897637795
        },
        {
          "duration": 0.011627906976741542,
          "durationTicks": 1,
          "midi": 30,
          "name": "F#1",
          "ticks": 1999,
          "time": 23.24418604651163,
          "velocity": 0.5433070866141733
        },
        {
          "duration": 0.011627906976741542,
          "durationTicks": 1,
          "midi": 39,
          "name": "D#2",
          "ticks": 1999,
          "time": 23.24418604651163,
          "velocity": 0.5433070866141733
        },
        {
          "duration": 0.023255813953486637,
          "durationTicks": 2,
          "midi": 56,
          "name": "G#3",
          "ticks": 1999,
          "time": 23.24418604651163,
          "velocity": 0.2992125984251969
        },
        {
          "duration": 0.06976744186046346,
          "durationTicks": 6,
          "midi": 79,
          "name": "G5",
          "ticks": 1999,
          "time": 23.24418604651163,
          "velocity": 0.08661417322834646
        },
        {
          "duration": 0.03488372093023173,
          "durationTicks": 3,
          "midi": 83,
          "name": "B5",
          "ticks": 1999,
          "time": 23.24418604651163,
          "velocity": 0.1968503937007874
        },
        {
          "duration": 0.04651162790697683,
          "durationTicks": 4,
          "midi": 90,
          "name": "F#6",
          "ticks": 1999,
          "time": 23.24418604651163,
          "velocity": 0.09448818897637795
        },
        {
          "duration": 0.011627906976745095,
          "durationTicks": 1,
          "midi": 28,
          "name": "E1",
          "ticks": 2000,
          "time": 23.25581395348837,
          "velocity": 0.5511811023622047
        },
        {
          "duration": 0.011627906976745095,
          "durationTicks": 1,
          "midi": 41,
          "name": "F2",
          "ticks": 2000,
          "time": 23.25581395348837,
          "velocity": 0.5590551181102362
        },
        {
          "duration": 0.034883720930235285,
          "durationTicks": 3,
          "midi": 85,
          "name": "C#6",
          "ticks": 2000,
          "time": 23.25581395348837,
          "velocity": 0.12598425196850394
        },
        {
          "duration": 0.011627906976745095,
          "durationTicks": 1,
          "midi": 30,
          "name": "F#1",
          "ticks": 2001,
          "time": 23.267441860465116,
          "velocity": 0.5905511811023622
        },
        {
          "duration": 0.02325581395349019,
          "durationTicks": 2,
          "midi": 57,
          "name": "A3",
          "ticks": 2001,
          "time": 23.267441860465116,
          "velocity": 0.2992125984251969
        },
        {
          "duration": 0.11627906976744384,
          "durationTicks": 10,
          "midi": 62,
          "name": "D4",
          "ticks": 2001,
          "time": 23.267441860465116,
          "velocity": 0.29133858267716534
        },
        {
          "duration": 0.03488372093023173,
          "durationTicks": 3,
          "midi": 84,
          "name": "C6",
          "ticks": 2001,
          "time": 23.267441860465116,
          "velocity": 0.13385826771653545
        },
        {
          "duration": 0.011627906976745095,
          "durationTicks": 1,
          "midi": 32,
          "name": "G#1",
          "ticks": 2002,
          "time": 23.27906976744186,
          "velocity": 0.5984251968503937
        },
        {
          "duration": 0.011627906976741542,
          "durationTicks": 1,
          "midi": 33,
          "name": "A1",
          "ticks": 2003,
          "time": 23.290697674418606,
          "velocity": 0.6062992125984252
        },
        {
          "duration": 0.011627906976745095,
          "durationTicks": 1,
          "midi": 31,
          "name": "G1",
          "ticks": 2004,
          "time": 23.302325581395348,
          "velocity": 0.5118110236220472
        },
        {
          "duration": 0.011627906976741542,
          "durationTicks": 1,
          "midi": 35,
          "name": "B1",
          "ticks": 2007,
          "time": 23.337209302325583,
          "velocity": 0.5669291338582677
        },
        {
          "duration": 0.03488372093023173,
          "durationTicks": 3,
          "midi": 50,
          "name": "D3",
          "ticks": 2007,
          "time": 23.337209302325583,
          "velocity": 0.3464566929133858
        },
        {
          "duration": 0.011627906976745095,
          "durationTicks": 1,
          "midi": 31,
          "name": "G1",
          "ticks": 2008,
          "time": 23.348837209302324,
          "velocity": 0.5354330708661418
        },
        {
          "duration": 0.03488372093023173,
          "durationTicks": 3,
          "midi": 93,
          "name": "A6",
          "ticks": 2009,
          "time": 23.36046511627907,
          "velocity": 0.08661417322834646
        },
        {
          "duration": 0.04651162790697683,
          "durationTicks": 4,
          "midi": 99,
          "name": "D#7",
          "ticks": 2009,
          "time": 23.36046511627907,
          "velocity": 0.14173228346456693
        },
        {
          "duration": 0.03488372093023173,
          "durationTicks": 3,
          "midi": 100,
          "name": "E7",
          "ticks": 2009,
          "time": 23.36046511627907,
          "velocity": 0.18110236220472442
        },
        {
          "duration": 0.011627906976745095,
          "durationTicks": 1,
          "midi": 41,
          "name": "F2",
          "ticks": 2010,
          "time": 23.372093023255815,
          "velocity": 0.5433070866141733
        },
        {
          "duration": 0.04651162790697683,
          "durationTicks": 4,
          "midi": 101,
          "name": "F7",
          "ticks": 2010,
          "time": 23.372093023255815,
          "velocity": 0.15748031496062992
        },
        {
          "duration": 0.011627906976741542,
          "durationTicks": 1,
          "midi": 36,
          "name": "C2",
          "ticks": 2011,
          "time": 23.38372093023256,
          "velocity": 0.5826771653543307
        },
        {
          "duration": 0.02325581395349019,
          "durationTicks": 2,
          "midi": 40,
          "name": "E2",
          "ticks": 2012,
          "time": 23.3953488372093,
          "velocity": 0.5669291338582677
        },
        {
          "duration": 0.023255813953486637,
          "durationTicks": 2,
          "midi": 29,
          "name": "F1",
          "ticks": 2014,
          "time": 23.41860465116279,
          "velocity": 0.5354330708661418
        },
        {
          "duration": 0.011627906976745095,
          "durationTicks": 1,
          "midi": 36,
          "name": "C2",
          "ticks": 2016,
          "time": 23.441860465116278,
          "velocity": 0.5826771653543307
        },
        {
          "duration": 0.011627906976745095,
          "durationTicks": 1,
          "midi": 36,
          "name": "C2",
          "ticks": 2020,
          "time": 23.488372093023255,
          "velocity": 0.5826771653543307
        },
        {
          "duration": 0.02325581395349019,
          "durationTicks": 2,
          "midi": 55,
          "name": "G3",
          "ticks": 2020,
          "time": 23.488372093023255,
          "velocity": 0.31496062992125984
        },
        {
          "duration": 0.011627906976745095,
          "durationTicks": 1,
          "midi": 34,
          "name": "A#1",
          "ticks": 2021,
          "time": 23.5,
          "velocity": 0.5590551181102362
        },
        {
          "duration": 0.023255813953486637,
          "durationTicks": 2,
          "midi": 64,
          "name": "E4",
          "ticks": 2021,
          "time": 23.5,
          "velocity": 0.33858267716535434
        },
        {
          "duration": 0.03488372093023173,
          "durationTicks": 3,
          "midi": 80,
          "name": "G#5",
          "ticks": 2021,
          "time": 23.5,
          "velocity": 0.14173228346456693
        },
        {
          "duration": 0.06976744186046346,
          "durationTicks": 6,
          "midi": 87,
          "name": "D#6",
          "ticks": 2021,
          "time": 23.5,
          "velocity": 0.1732283464566929
        },
        {
          "duration": 0.05813953488372192,
          "durationTicks": 5,
          "midi": 90,
          "name": "F#6",
          "ticks": 2021,
          "time": 23.5,
          "velocity": 0.10236220472440945
        },
        {
          "duration": 0.03488372093023173,
          "durationTicks": 3,
          "midi": 94,
          "name": "A#6",
          "ticks": 2021,
          "time": 23.5,
          "velocity": 0.16535433070866143
        },
        {
          "duration": 0.05813953488372192,
          "durationTicks": 5,
          "midi": 98,
          "name": "D7",
          "ticks": 2021,
          "time": 23.5,
          "velocity": 0.2283464566929134
        },
        {
          "duration": 0.04651162790697683,
          "durationTicks": 4,
          "midi": 100,
          "name": "E7",
          "ticks": 2021,
          "time": 23.5,
          "velocity": 0.1889763779527559
        },
        {
          "duration": 0.03488372093023173,
          "durationTicks": 3,
          "midi": 103,
          "name": "G7",
          "ticks": 2021,
          "time": 23.5,
          "velocity": 0.11023622047244094
        },
        {
          "duration": 0.011627906976741542,
          "durationTicks": 1,
          "midi": 33,
          "name": "A1",
          "ticks": 2022,
          "time": 23.511627906976745,
          "velocity": 0.5748031496062992
        },
        {
          "duration": 0.03488372093023173,
          "durationTicks": 3,
          "midi": 83,
          "name": "B5",
          "ticks": 2022,
          "time": 23.511627906976745,
          "velocity": 0.2047244094488189
        },
        {
          "duration": 0.05813953488371837,
          "durationTicks": 5,
          "midi": 89,
          "name": "F6",
          "ticks": 2022,
          "time": 23.511627906976745,
          "velocity": 0.23622047244094488
        },
        {
          "duration": 0.03488372093023173,
          "durationTicks": 3,
          "midi": 96,
          "name": "C7",
          "ticks": 2022,
          "time": 23.511627906976745,
          "velocity": 0.1732283464566929
        },
        {
          "duration": 0.04651162790697683,
          "durationTicks": 4,
          "midi": 97,
          "name": "C#7",
          "ticks": 2022,
          "time": 23.511627906976745,
          "velocity": 0.18110236220472442
        },
        {
          "duration": 0.05813953488371837,
          "durationTicks": 5,
          "midi": 99,
          "name": "D#7",
          "ticks": 2022,
          "time": 23.511627906976745,
          "velocity": 0.1732283464566929
        },
        {
          "duration": 0.011627906976745095,
          "durationTicks": 1,
          "midi": 30,
          "name": "F#1",
          "ticks": 2023,
          "time": 23.523255813953487,
          "velocity": 0.5433070866141733
        },
        {
          "duration": 0.02325581395349019,
          "durationTicks": 2,
          "midi": 41,
          "name": "F2",
          "ticks": 2023,
          "time": 23.523255813953487,
          "velocity": 0.6692913385826772
        },
        {
          "duration": 0.02325581395349019,
          "durationTicks": 2,
          "midi": 63,
          "name": "D#4",
          "ticks": 2023,
          "time": 23.523255813953487,
          "velocity": 0.3779527559055118
        },
        {
          "duration": 0.034883720930235285,
          "durationTicks": 3,
          "midi": 67,
          "name": "G4",
          "ticks": 2023,
          "time": 23.523255813953487,
          "velocity": 0.25196850393700787
        },
        {
          "duration": 0.04651162790697683,
          "durationTicks": 4,
          "midi": 78,
          "name": "F#5",
          "ticks": 2024,
          "time": 23.53488372093023,
          "velocity": 0.08661417322834646
        },
        {
          "duration": 0.011627906976745095,
          "durationTicks": 1,
          "midi": 37,
          "name": "C#2",
          "ticks": 2025,
          "time": 23.546511627906977,
          "velocity": 0.6220472440944882
        },
        {
          "duration": 0.08139534883720856,
          "durationTicks": 7,
          "midi": 62,
          "name": "D4",
          "ticks": 2025,
          "time": 23.546511627906977,
          "velocity": 0.3464566929133858
        },
        {
          "duration": 0.03488372093023173,
          "durationTicks": 3,
          "midi": 84,
          "name": "C6",
          "ticks": 2025,
          "time": 23.546511627906977,
          "velocity": 0.14960629921259844
        },
        {
          "duration": 0.03488372093023173,
          "durationTicks": 3,
          "midi": 93,
          "name": "A6",
          "ticks": 2025,
          "time": 23.546511627906977,
          "velocity": 0.11023622047244094
        },
        {
          "duration": 0.011627906976741542,
          "durationTicks": 1,
          "midi": 34,
          "name": "A#1",
          "ticks": 2026,
          "time": 23.558139534883722,
          "velocity": 0.5433070866141733
        },
        {
          "duration": 0.011627906976745095,
          "durationTicks": 1,
          "midi": 35,
          "name": "B1",
          "ticks": 2027,
          "time": 23.569767441860463,
          "velocity": 0.6535433070866141
        },
        {
          "duration": 0.011627906976745095,
          "durationTicks": 1,
          "midi": 36,
          "name": "C2",
          "ticks": 2028,
          "time": 23.58139534883721,
          "velocity": 0.7007874015748031
        },
        {
          "duration": 0.023255813953486637,
          "durationTicks": 2,
          "midi": 35,
          "name": "B1",
          "ticks": 2029,
          "time": 23.593023255813954,
          "velocity": 0.7165354330708661
        },
        {
          "duration": 0.023255813953486637,
          "durationTicks": 2,
          "midi": 54,
          "name": "F#3",
          "ticks": 2029,
          "time": 23.593023255813954,
          "velocity": 0.33070866141732286
        },
        {
          "duration": 0.02325581395349019,
          "durationTicks": 2,
          "midi": 36,
          "name": "C2",
          "ticks": 2031,
          "time": 23.61627906976744,
          "velocity": 0.7165354330708661
        },
        {
          "duration": 0.03488372093023173,
          "durationTicks": 3,
          "midi": 100,
          "name": "E7",
          "ticks": 2032,
          "time": 23.627906976744185,
          "velocity": 0.1968503937007874
        },
        {
          "duration": 0.06976744186046702,
          "durationTicks": 6,
          "midi": 101,
          "name": "F7",
          "ticks": 2032,
          "time": 23.627906976744185,
          "velocity": 0.1732283464566929
        },
        {
          "duration": 0.011627906976745095,
          "durationTicks": 1,
          "midi": 34,
          "name": "A#1",
          "ticks": 2033,
          "time": 23.63953488372093,
          "velocity": 0.6771653543307087
        },
        {
          "duration": 0.05813953488372192,
          "durationTicks": 5,
          "midi": 62,
          "name": "D4",
          "ticks": 2033,
          "time": 23.63953488372093,
          "velocity": 0.1732283464566929
        },
        {
          "duration": 0.04651162790697683,
          "durationTicks": 4,
          "midi": 99,
          "name": "D#7",
          "ticks": 2033,
          "time": 23.63953488372093,
          "velocity": 0.15748031496062992
        },
        {
          "duration": 0.04651162790697683,
          "durationTicks": 4,
          "midi": 36,
          "name": "C2",
          "ticks": 2034,
          "time": 23.651162790697676,
          "velocity": 0.6929133858267716
        },
        {
          "duration": 0.02325581395349019,
          "durationTicks": 2,
          "midi": 50,
          "name": "D3",
          "ticks": 2036,
          "time": 23.674418604651162,
          "velocity": 0.2992125984251969
        },
        {
          "duration": 0.03488372093023173,
          "durationTicks": 3,
          "midi": 35,
          "name": "B1",
          "ticks": 2038,
          "time": 23.697674418604652,
          "velocity": 0.5511811023622047
        },
        {
          "duration": 0.023255813953486637,
          "durationTicks": 2,
          "midi": 48,
          "name": "C3",
          "ticks": 2038,
          "time": 23.697674418604652,
          "velocity": 0.31496062992125984
        },
        {
          "duration": 0.034883720930235285,
          "durationTicks": 3,
          "midi": 53,
          "name": "F3",
          "ticks": 2039,
          "time": 23.709302325581394,
          "velocity": 0.23622047244094488
        },
        {
          "duration": 0.04651162790697683,
          "durationTicks": 4,
          "midi": 78,
          "name": "F#5",
          "ticks": 2044,
          "time": 23.767441860465116,
          "velocity": 0.2125984251968504
        },
        {
          "duration": 0.04651162790697683,
          "durationTicks": 4,
          "midi": 87,
          "name": "D#6",
          "ticks": 2044,
          "time": 23.767441860465116,
          "velocity": 0.2204724409448819
        },
        {
          "duration": 0.05813953488372192,
          "durationTicks": 5,
          "midi": 91,
          "name": "G6",
          "ticks": 2044,
          "time": 23.767441860465116,
          "velocity": 0.1968503937007874
        },
        {
          "duration": 0.03488372093023173,
          "durationTicks": 3,
          "midi": 92,
          "name": "G#6",
          "ticks": 2044,
          "time": 23.767441860465116,
          "velocity": 0.2125984251968504
        },
        {
          "duration": 0.06976744186046702,
          "durationTicks": 6,
          "midi": 98,
          "name": "D7",
          "ticks": 2044,
          "time": 23.767441860465116,
          "velocity": 0.1889763779527559
        },
        {
          "duration": 0.06976744186046702,
          "durationTicks": 6,
          "midi": 100,
          "name": "E7",
          "ticks": 2044,
          "time": 23.767441860465116,
          "velocity": 0.1968503937007874
        },
        {
          "duration": 0.023255813953486637,
          "durationTicks": 2,
          "midi": 42,
          "name": "F#2",
          "ticks": 2045,
          "time": 23.77906976744186,
          "velocity": 0.49606299212598426
        },
        {
          "duration": 0.03488372093023173,
          "durationTicks": 3,
          "midi": 86,
          "name": "D6",
          "ticks": 2045,
          "time": 23.77906976744186,
          "velocity": 0.2440944881889764
        },
        {
          "duration": 0.11627906976744029,
          "durationTicks": 10,
          "midi": 89,
          "name": "F6",
          "ticks": 2045,
          "time": 23.77906976744186,
          "velocity": 0.2992125984251969
        },
        {
          "duration": 0.05813953488372192,
          "durationTicks": 5,
          "midi": 90,
          "name": "F#6",
          "ticks": 2045,
          "time": 23.77906976744186,
          "velocity": 0.2755905511811024
        },
        {
          "duration": 0.11627906976744029,
          "durationTicks": 10,
          "midi": 93,
          "name": "A6",
          "ticks": 2045,
          "time": 23.77906976744186,
          "velocity": 0.29133858267716534
        },
        {
          "duration": 0.04651162790697683,
          "durationTicks": 4,
          "midi": 94,
          "name": "A#6",
          "ticks": 2045,
          "time": 23.77906976744186,
          "velocity": 0.2755905511811024
        },
        {
          "duration": 0.04651162790697683,
          "durationTicks": 4,
          "midi": 96,
          "name": "C7",
          "ticks": 2045,
          "time": 23.77906976744186,
          "velocity": 0.11811023622047244
        },
        {
          "duration": 0.06976744186046346,
          "durationTicks": 6,
          "midi": 97,
          "name": "C#7",
          "ticks": 2045,
          "time": 23.77906976744186,
          "velocity": 0.1732283464566929
        },
        {
          "duration": 0.023255813953486637,
          "durationTicks": 2,
          "midi": 51,
          "name": "D#3",
          "ticks": 2046,
          "time": 23.790697674418606,
          "velocity": 0.2992125984251969
        },
        {
          "duration": 0.023255813953486637,
          "durationTicks": 2,
          "midi": 60,
          "name": "C4",
          "ticks": 2046,
          "time": 23.790697674418606,
          "velocity": 0.3228346456692913
        },
        {
          "duration": 0.03488372093023173,
          "durationTicks": 3,
          "midi": 68,
          "name": "G#4",
          "ticks": 2046,
          "time": 23.790697674418606,
          "velocity": 0.14173228346456693
        },
        {
          "duration": 0.06976744186046346,
          "durationTicks": 6,
          "midi": 79,
          "name": "G5",
          "ticks": 2046,
          "time": 23.790697674418606,
          "velocity": 0.10236220472440945
        },
        {
          "duration": 0.08139534883720856,
          "durationTicks": 7,
          "midi": 85,
          "name": "C#6",
          "ticks": 2046,
          "time": 23.790697674418606,
          "velocity": 0.2755905511811024
        },
        {
          "duration": 0.011627906976745095,
          "durationTicks": 1,
          "midi": 41,
          "name": "F2",
          "ticks": 2047,
          "time": 23.802325581395348,
          "velocity": 0.5984251968503937
        },
        {
          "duration": 0.011627906976745095,
          "durationTicks": 1,
          "midi": 38,
          "name": "D2",
          "ticks": 2048,
          "time": 23.813953488372093,
          "velocity": 0.5984251968503937
        },
        {
          "duration": 0.05813953488372192,
          "durationTicks": 5,
          "midi": 77,
          "name": "F5",
          "ticks": 2048,
          "time": 23.813953488372093,
          "velocity": 0.13385826771653545
        },
        {
          "duration": 0.03488372093023173,
          "durationTicks": 3,
          "midi": 84,
          "name": "C6",
          "ticks": 2048,
          "time": 23.813953488372093,
          "velocity": 0.15748031496062992
        },
        {
          "duration": 0.04651162790697683,
          "durationTicks": 4,
          "midi": 92,
          "name": "G#6",
          "ticks": 2048,
          "time": 23.813953488372093,
          "velocity": 0.1968503937007874
        },
        {
          "duration": 0.011627906976745095,
          "durationTicks": 1,
          "midi": 34,
          "name": "A#1",
          "ticks": 2049,
          "time": 23.825581395348838,
          "velocity": 0.5433070866141733
        },
        {
          "duration": 0.03488372093023173,
          "durationTicks": 3,
          "midi": 56,
          "name": "G#3",
          "ticks": 2049,
          "time": 23.825581395348838,
          "velocity": 0.33858267716535434
        },
        {
          "duration": 0.023255813953486637,
          "durationTicks": 2,
          "midi": 60,
          "name": "C4",
          "ticks": 2049,
          "time": 23.825581395348838,
          "velocity": 0.2992125984251969
        },
        {
          "duration": 0.011627906976741542,
          "durationTicks": 1,
          "midi": 32,
          "name": "G#1",
          "ticks": 2050,
          "time": 23.837209302325583,
          "velocity": 0.5905511811023622
        },
        {
          "duration": 0.011627906976745095,
          "durationTicks": 1,
          "midi": 35,
          "name": "B1",
          "ticks": 2051,
          "time": 23.848837209302324,
          "velocity": 0.5905511811023622
        },
        {
          "duration": 0.04651162790697683,
          "durationTicks": 4,
          "midi": 62,
          "name": "D4",
          "ticks": 2051,
          "time": 23.848837209302324,
          "velocity": 0.25984251968503935
        },
        {
          "duration": 0.04651162790697683,
          "durationTicks": 4,
          "midi": 86,
          "name": "D6",
          "ticks": 2051,
          "time": 23.848837209302324,
          "velocity": 0.14960629921259844
        },
        {
          "duration": 0.011627906976745095,
          "durationTicks": 1,
          "midi": 35,
          "name": "B1",
          "ticks": 2053,
          "time": 23.872093023255815,
          "velocity": 0.5354330708661418
        },
        {
          "duration": 0.011627906976741542,
          "durationTicks": 1,
          "midi": 36,
          "name": "C2",
          "ticks": 2054,
          "time": 23.88372093023256,
          "velocity": 0.6456692913385826
        },
        {
          "duration": 0.011627906976745095,
          "durationTicks": 1,
          "midi": 35,
          "name": "B1",
          "ticks": 2055,
          "time": 23.8953488372093,
          "velocity": 0.6456692913385826
        },
        {
          "duration": 0.011627906976745095,
          "durationTicks": 1,
          "midi": 34,
          "name": "A#1",
          "ticks": 2056,
          "time": 23.906976744186046,
          "velocity": 0.5826771653543307
        },
        {
          "duration": 0.03488372093023173,
          "durationTicks": 3,
          "midi": 93,
          "name": "A6",
          "ticks": 2056,
          "time": 23.906976744186046,
          "velocity": 0.13385826771653545
        },
        {
          "duration": 0.03488372093023173,
          "durationTicks": 3,
          "midi": 100,
          "name": "E7",
          "ticks": 2056,
          "time": 23.906976744186046,
          "velocity": 0.1889763779527559
        },
        {
          "duration": 0.03488372093023173,
          "durationTicks": 3,
          "midi": 101,
          "name": "F7",
          "ticks": 2056,
          "time": 23.906976744186046,
          "velocity": 0.16535433070866143
        },
        {
          "duration": 0.011627906976745095,
          "durationTicks": 1,
          "midi": 36,
          "name": "C2",
          "ticks": 2057,
          "time": 23.91860465116279,
          "velocity": 0.5511811023622047
        },
        {
          "duration": 0.023255813953486637,
          "durationTicks": 2,
          "midi": 55,
          "name": "G3",
          "ticks": 2057,
          "time": 23.91860465116279,
          "velocity": 0.23622047244094488
        },
        {
          "duration": 0.03488372093023173,
          "durationTicks": 3,
          "midi": 99,
          "name": "D#7",
          "ticks": 2057,
          "time": 23.91860465116279,
          "velocity": 0.14173228346456693
        },
        {
          "duration": 0.011627906976741542,
          "durationTicks": 1,
          "midi": 38,
          "name": "D2",
          "ticks": 2058,
          "time": 23.930232558139537,
          "velocity": 0.5826771653543307
        },
        {
          "duration": 0.011627906976745095,
          "durationTicks": 1,
          "midi": 36,
          "name": "C2",
          "ticks": 2059,
          "time": 23.941860465116278,
          "velocity": 0.5748031496062992
        },
        {
          "duration": 0.011627906976745095,
          "durationTicks": 1,
          "midi": 32,
          "name": "G#1",
          "ticks": 2060,
          "time": 23.953488372093023,
          "velocity": 0.5196850393700787
        },
        {
          "duration": 0.02325581395349019,
          "durationTicks": 2,
          "midi": 35,
          "name": "B1",
          "ticks": 2063,
          "time": 23.988372093023255,
          "velocity": 0.5590551181102362
        },
        {
          "duration": 0.02325581395349019,
          "durationTicks": 2,
          "midi": 33,
          "name": "A1",
          "ticks": 2067,
          "time": 24.03488372093023,
          "velocity": 0.5826771653543307
        },
        {
          "duration": 0.02325581395349019,
          "durationTicks": 2,
          "midi": 60,
          "name": "C4",
          "ticks": 2067,
          "time": 24.03488372093023,
          "velocity": 0.3858267716535433
        },
        {
          "duration": 0.011627906976745095,
          "durationTicks": 1,
          "midi": 52,
          "name": "E3",
          "ticks": 2068,
          "time": 24.046511627906977,
          "velocity": 0.5118110236220472
        },
        {
          "duration": 0.03488372093023173,
          "durationTicks": 3,
          "midi": 74,
          "name": "D5",
          "ticks": 2068,
          "time": 24.046511627906977,
          "velocity": 0.1889763779527559
        },
        {
          "duration": 0.011627906976741542,
          "durationTicks": 1,
          "midi": 34,
          "name": "A#1",
          "ticks": 2069,
          "time": 24.058139534883722,
          "velocity": 0.6141732283464567
        },
        {
          "duration": 0.023255813953486637,
          "durationTicks": 2,
          "midi": 51,
          "name": "D#3",
          "ticks": 2069,
          "time": 24.058139534883722,
          "velocity": 0.5984251968503937
        },
        {
          "duration": 0.023255813953486637,
          "durationTicks": 2,
          "midi": 64,
          "name": "E4",
          "ticks": 2069,
          "time": 24.058139534883722,
          "velocity": 0.3228346456692913
        },
        {
          "duration": 0.011627906976745095,
          "durationTicks": 1,
          "midi": 33,
          "name": "A1",
          "ticks": 2070,
          "time": 24.069767441860463,
          "velocity": 0.5905511811023622
        },
        {
          "duration": 0.05813953488372192,
          "durationTicks": 5,
          "midi": 56,
          "name": "G#3",
          "ticks": 2070,
          "time": 24.069767441860463,
          "velocity": 0.48031496062992124
        },
        {
          "duration": 0.034883720930235285,
          "durationTicks": 3,
          "midi": 70,
          "name": "A#4",
          "ticks": 2070,
          "time": 24.069767441860463,
          "velocity": 0.2047244094488189
        },
        {
          "duration": 0.011627906976745095,
          "durationTicks": 1,
          "midi": 23,
          "name": "B0",
          "ticks": 2071,
          "time": 24.08139534883721,
          "velocity": 0.5354330708661418
        },
        {
          "duration": 0.011627906976745095,
          "durationTicks": 1,
          "midi": 43,
          "name": "G2",
          "ticks": 2071,
          "time": 24.08139534883721,
          "velocity": 0.6141732283464567
        },
        {
          "duration": 0.023255813953486637,
          "durationTicks": 2,
          "midi": 40,
          "name": "E2",
          "ticks": 2072,
          "time": 24.093023255813954,
          "velocity": 0.6614173228346457
        },
        {
          "duration": 0.11627906976744029,
          "durationTicks": 10,
          "midi": 62,
          "name": "D4",
          "ticks": 2072,
          "time": 24.093023255813954,
          "velocity": 0.4015748031496063
        },
        {
          "duration": 0.023255813953486637,
          "durationTicks": 2,
          "midi": 48,
          "name": "C3",
          "ticks": 2073,
          "time": 24.1046511627907,
          "velocity": 0.5275590551181102
        },
        {
          "duration": 0.011627906976745095,
          "durationTicks": 1,
          "midi": 32,
          "name": "G#1",
          "ticks": 2074,
          "time": 24.11627906976744,
          "velocity": 0.5984251968503937
        },
        {
          "duration": 0.011627906976745095,
          "durationTicks": 1,
          "midi": 41,
          "name": "F2",
          "ticks": 2074,
          "time": 24.11627906976744,
          "velocity": 0.5669291338582677
        },
        {
          "duration": 0.011627906976745095,
          "durationTicks": 1,
          "midi": 34,
          "name": "A#1",
          "ticks": 2075,
          "time": 24.127906976744185,
          "velocity": 0.6929133858267716
        },
        {
          "duration": 0.011627906976745095,
          "durationTicks": 1,
          "midi": 49,
          "name": "C#3",
          "ticks": 2075,
          "time": 24.127906976744185,
          "velocity": 0.5118110236220472
        },
        {
          "duration": 0.03488372093023173,
          "durationTicks": 3,
          "midi": 70,
          "name": "A#4",
          "ticks": 2075,
          "time": 24.127906976744185,
          "velocity": 0.10236220472440945
        },
        {
          "duration": 0.011627906976745095,
          "durationTicks": 1,
          "midi": 32,
          "name": "G#1",
          "ticks": 2076,
          "time": 24.13953488372093,
          "velocity": 0.7244094488188977
        },
        {
          "duration": 0.011627906976745095,
          "durationTicks": 1,
          "midi": 42,
          "name": "F#2",
          "ticks": 2076,
          "time": 24.13953488372093,
          "velocity": 0.5669291338582677
        },
        {
          "duration": 0.04651162790697683,
          "durationTicks": 4,
          "midi": 56,
          "name": "G#3",
          "ticks": 2076,
          "time": 24.13953488372093,
          "velocity": 0.4566929133858268
        },
        {
          "duration": 0.011627906976741542,
          "durationTicks": 1,
          "midi": 34,
          "name": "A#1",
          "ticks": 2077,
          "time": 24.151162790697676,
          "velocity": 0.7637795275590551
        },
        {
          "duration": 0.02325581395349019,
          "durationTicks": 2,
          "midi": 36,
          "name": "C2",
          "ticks": 2078,
          "time": 24.162790697674417,
          "velocity": 0.7401574803149606
        },
        {
          "duration": 0.023255813953486637,
          "durationTicks": 2,
          "midi": 34,
          "name": "A#1",
          "ticks": 2080,
          "time": 24.186046511627907,
          "velocity": 0.7007874015748031
        },
        {
          "duration": 0.023255813953486637,
          "durationTicks": 2,
          "midi": 56,
          "name": "G#3",
          "ticks": 2081,
          "time": 24.197674418604652,
          "velocity": 0.3543307086614173
        },
        {
          "duration": 0.011627906976745095,
          "durationTicks": 1,
          "midi": 36,
          "name": "C2",
          "ticks": 2082,
          "time": 24.209302325581394,
          "velocity": 0.6771653543307087
        },
        {
          "duration": 0.011627906976745095,
          "durationTicks": 1,
          "midi": 50,
          "name": "D3",
          "ticks": 2082,
          "time": 24.209302325581394,
          "velocity": 0.5118110236220472
        },
        {
          "duration": 0.011627906976745095,
          "durationTicks": 1,
          "midi": 35,
          "name": "B1",
          "ticks": 2083,
          "time": 24.22093023255814,
          "velocity": 0.5984251968503937
        },
        {
          "duration": 0.011627906976745095,
          "durationTicks": 1,
          "midi": 33,
          "name": "A1",
          "ticks": 2084,
          "time": 24.232558139534884,
          "velocity": 0.6141732283464567
        },
        {
          "duration": 0.023255813953486637,
          "durationTicks": 2,
          "midi": 44,
          "name": "G#2",
          "ticks": 2084,
          "time": 24.232558139534884,
          "velocity": 0.5196850393700787
        },
        {
          "duration": 0.011627906976741542,
          "durationTicks": 1,
          "midi": 34,
          "name": "A#1",
          "ticks": 2085,
          "time": 24.24418604651163,
          "velocity": 0.6377952755905512
        },
        {
          "duration": 0.011627906976745095,
          "durationTicks": 1,
          "midi": 32,
          "name": "G#1",
          "ticks": 2086,
          "time": 24.25581395348837,
          "velocity": 0.5748031496062992
        },
        {
          "duration": 0.011627906976745095,
          "durationTicks": 1,
          "midi": 37,
          "name": "C#2",
          "ticks": 2086,
          "time": 24.25581395348837,
          "velocity": 0.5275590551181102
        },
        {
          "duration": 0.02325581395349019,
          "durationTicks": 2,
          "midi": 50,
          "name": "D3",
          "ticks": 2086,
          "time": 24.25581395348837,
          "velocity": 0.4645669291338583
        },
        {
          "duration": 0.011627906976745095,
          "durationTicks": 1,
          "midi": 31,
          "name": "G1",
          "ticks": 2087,
          "time": 24.267441860465116,
          "velocity": 0.5354330708661418
        },
        {
          "duration": 0.011627906976745095,
          "durationTicks": 1,
          "midi": 42,
          "name": "F#2",
          "ticks": 2087,
          "time": 24.267441860465116,
          "velocity": 0.5511811023622047
        },
        {
          "duration": 0.023255813953486637,
          "durationTicks": 2,
          "midi": 29,
          "name": "F1",
          "ticks": 2088,
          "time": 24.27906976744186,
          "velocity": 0.5275590551181102
        },
        {
          "duration": 0.023255813953486637,
          "durationTicks": 2,
          "midi": 41,
          "name": "F2",
          "ticks": 2088,
          "time": 24.27906976744186,
          "velocity": 0.5590551181102362
        },
        {
          "duration": 0.023255813953486637,
          "durationTicks": 2,
          "midi": 48,
          "name": "C3",
          "ticks": 2089,
          "time": 24.290697674418606,
          "velocity": 0.48031496062992124
        },
        {
          "duration": 0.011627906976745095,
          "durationTicks": 1,
          "midi": 30,
          "name": "F#1",
          "ticks": 2090,
          "time": 24.302325581395348,
          "velocity": 0.5669291338582677
        },
        {
          "duration": 0.02325581395349019,
          "durationTicks": 2,
          "midi": 31,
          "name": "G1",
          "ticks": 2091,
          "time": 24.313953488372093,
          "velocity": 0.5905511811023622
        },
        {
          "duration": 0.02325581395349019,
          "durationTicks": 2,
          "midi": 55,
          "name": "G3",
          "ticks": 2091,
          "time": 24.313953488372093,
          "velocity": 0.25196850393700787
        },
        {
          "duration": 0.011627906976741542,
          "durationTicks": 1,
          "midi": 30,
          "name": "F#1",
          "ticks": 2093,
          "time": 24.337209302325583,
          "velocity": 0.5433070866141733
        },
        {
          "duration": 0.023255813953486637,
          "durationTicks": 2,
          "midi": 41,
          "name": "F2",
          "ticks": 2093,
          "time": 24.337209302325583,
          "velocity": 0.5433070866141733
        },
        {
          "duration": 0.04651162790697683,
          "durationTicks": 4,
          "midi": 56,
          "name": "G#3",
          "ticks": 2093,
          "time": 24.337209302325583,
          "velocity": 0.3228346456692913
        },
        {
          "duration": 0.011627906976745095,
          "durationTicks": 1,
          "midi": 28,
          "name": "E1",
          "ticks": 2094,
          "time": 24.348837209302324,
          "velocity": 0.5511811023622047
        },
        {
          "duration": 0.011627906976745095,
          "durationTicks": 1,
          "midi": 30,
          "name": "F#1",
          "ticks": 2095,
          "time": 24.36046511627907,
          "velocity": 0.5905511811023622
        },
        {
          "duration": 0.011627906976745095,
          "durationTicks": 1,
          "midi": 32,
          "name": "G#1",
          "ticks": 2096,
          "time": 24.372093023255815,
          "velocity": 0.6141732283464567
        },
        {
          "duration": 0.12790697674418539,
          "durationTicks": 11,
          "midi": 62,
          "name": "D4",
          "ticks": 2096,
          "time": 24.372093023255815,
          "velocity": 0.2677165354330709
        },
        {
          "duration": 0.011627906976741542,
          "durationTicks": 1,
          "midi": 34,
          "name": "A#1",
          "ticks": 2097,
          "time": 24.38372093023256,
          "velocity": 0.6377952755905512
        },
        {
          "duration": 0.011627906976745095,
          "durationTicks": 1,
          "midi": 31,
          "name": "G1",
          "ticks": 2098,
          "time": 24.3953488372093,
          "velocity": 0.5196850393700787
        },
        {
          "duration": 0.02325581395349019,
          "durationTicks": 2,
          "midi": 57,
          "name": "A3",
          "ticks": 2098,
          "time": 24.3953488372093,
          "velocity": 0.31496062992125984
        },
        {
          "duration": 0.02325581395349019,
          "durationTicks": 2,
          "midi": 52,
          "name": "E3",
          "ticks": 2099,
          "time": 24.406976744186046,
          "velocity": 0.2992125984251969
        },
        {
          "duration": 0.011627906976745095,
          "durationTicks": 1,
          "midi": 28,
          "name": "E1",
          "ticks": 2100,
          "time": 24.41860465116279,
          "velocity": 0.5118110236220472
        },
        {
          "duration": 0.04651162790697683,
          "durationTicks": 4,
          "midi": 56,
          "name": "G#3",
          "ticks": 2100,
          "time": 24.41860465116279,
          "velocity": 0.2204724409448819
        },
        {
          "duration": 0.011627906976741542,
          "durationTicks": 1,
          "midi": 35,
          "name": "B1",
          "ticks": 2101,
          "time": 24.430232558139537,
          "velocity": 0.5511811023622047
        },
        {
          "duration": 0.03488372093023173,
          "durationTicks": 3,
          "midi": 50,
          "name": "D3",
          "ticks": 2101,
          "time": 24.430232558139537,
          "velocity": 0.3464566929133858
        },
        {
          "duration": 0.011627906976745095,
          "durationTicks": 1,
          "midi": 30,
          "name": "F#1",
          "ticks": 2102,
          "time": 24.441860465116278,
          "velocity": 0.5511811023622047
        },
        {
          "duration": 0.034883720930235285,
          "durationTicks": 3,
          "midi": 41,
          "name": "F2",
          "ticks": 2102,
          "time": 24.441860465116278,
          "velocity": 0.5669291338582677
        },
        {
          "duration": 0.011627906976745095,
          "durationTicks": 1,
          "midi": 30,
          "name": "F#1",
          "ticks": 2104,
          "time": 24.46511627906977,
          "velocity": 0.5118110236220472
        },
        {
          "duration": 0.011627906976741542,
          "durationTicks": 1,
          "midi": 37,
          "name": "C#2",
          "ticks": 2105,
          "time": 24.476744186046513,
          "velocity": 0.5984251968503937
        },
        {
          "duration": 0.011627906976745095,
          "durationTicks": 1,
          "midi": 39,
          "name": "D#2",
          "ticks": 2106,
          "time": 24.488372093023255,
          "velocity": 0.5669291338582677
        },
        {
          "duration": 0.011627906976745095,
          "durationTicks": 1,
          "midi": 40,
          "name": "E2",
          "ticks": 2107,
          "time": 24.5,
          "velocity": 0.5275590551181102
        },
        {
          "duration": 0.011627906976745095,
          "durationTicks": 1,
          "midi": 32,
          "name": "G#1",
          "ticks": 2109,
          "time": 24.523255813953487,
          "velocity": 0.5748031496062992
        },
        {
          "duration": 0.011627906976745095,
          "durationTicks": 1,
          "midi": 36,
          "name": "C2",
          "ticks": 2110,
          "time": 24.53488372093023,
          "velocity": 0.5905511811023622
        },
        {
          "duration": 0.011627906976745095,
          "durationTicks": 1,
          "midi": 35,
          "name": "B1",
          "ticks": 2114,
          "time": 24.58139534883721,
          "velocity": 0.5748031496062992
        },
        {
          "duration": 0.023255813953486637,
          "durationTicks": 2,
          "midi": 34,
          "name": "A#1",
          "ticks": 2115,
          "time": 24.593023255813954,
          "velocity": 0.5905511811023622
        },
        {
          "duration": 0.011627906976745095,
          "durationTicks": 1,
          "midi": 44,
          "name": "G#2",
          "ticks": 2115,
          "time": 24.593023255813954,
          "velocity": 0.5118110236220472
        },
        {
          "duration": 0.023255813953486637,
          "durationTicks": 2,
          "midi": 57,
          "name": "A3",
          "ticks": 2116,
          "time": 24.6046511627907,
          "velocity": 0.41732283464566927
        },
        {
          "duration": 0.011627906976745095,
          "durationTicks": 1,
          "midi": 30,
          "name": "F#1",
          "ticks": 2117,
          "time": 24.61627906976744,
          "velocity": 0.5433070866141733
        },
        {
          "duration": 0.02325581395349019,
          "durationTicks": 2,
          "midi": 41,
          "name": "F2",
          "ticks": 2117,
          "time": 24.61627906976744,
          "velocity": 0.6614173228346457
        },
        {
          "duration": 0.02325581395349019,
          "durationTicks": 2,
          "midi": 63,
          "name": "D#4",
          "ticks": 2117,
          "time": 24.61627906976744,
          "velocity": 0.3858267716535433
        },
        {
          "duration": 0.02325581395349019,
          "durationTicks": 2,
          "midi": 67,
          "name": "G4",
          "ticks": 2117,
          "time": 24.61627906976744,
          "velocity": 0.29133858267716534
        },
        {
          "duration": 0.011627906976745095,
          "durationTicks": 1,
          "midi": 36,
          "name": "C2",
          "ticks": 2119,
          "time": 24.63953488372093,
          "velocity": 0.6141732283464567
        },
        {
          "duration": 0.023255813953486637,
          "durationTicks": 2,
          "midi": 56,
          "name": "G#3",
          "ticks": 2119,
          "time": 24.63953488372093,
          "velocity": 0.4094488188976378
        },
        {
          "duration": 0.13953488372093048,
          "durationTicks": 12,
          "midi": 62,
          "name": "D4",
          "ticks": 2119,
          "time": 24.63953488372093,
          "velocity": 0.36220472440944884
        },
        {
          "duration": 0.011627906976741542,
          "durationTicks": 1,
          "midi": 34,
          "name": "A#1",
          "ticks": 2120,
          "time": 24.651162790697676,
          "velocity": 0.5590551181102362
        },
        {
          "duration": 0.011627906976745095,
          "durationTicks": 1,
          "midi": 36,
          "name": "C2",
          "ticks": 2121,
          "time": 24.662790697674417,
          "velocity": 0.6614173228346457
        },
        {
          "duration": 0.011627906976745095,
          "durationTicks": 1,
          "midi": 37,
          "name": "C#2",
          "ticks": 2122,
          "time": 24.674418604651162,
          "velocity": 0.7086614173228346
        },
        {
          "duration": 0.023255813953486637,
          "durationTicks": 2,
          "midi": 35,
          "name": "B1",
          "ticks": 2123,
          "time": 24.686046511627907,
          "velocity": 0.7165354330708661
        },
        {
          "duration": 0.023255813953486637,
          "durationTicks": 2,
          "midi": 54,
          "name": "F#3",
          "ticks": 2123,
          "time": 24.686046511627907,
          "velocity": 0.3228346456692913
        },
        {
          "duration": 0.02325581395349019,
          "durationTicks": 2,
          "midi": 36,
          "name": "C2",
          "ticks": 2125,
          "time": 24.709302325581394,
          "velocity": 0.7086614173228346
        },
        {
          "duration": 0.02325581395349019,
          "durationTicks": 2,
          "midi": 55,
          "name": "G3",
          "ticks": 2126,
          "time": 24.72093023255814,
          "velocity": 0.23622047244094488
        },
        {
          "duration": 0.011627906976745095,
          "durationTicks": 1,
          "midi": 34,
          "name": "A#1",
          "ticks": 2127,
          "time": 24.732558139534884,
          "velocity": 0.6771653543307087
        },
        {
          "duration": 0.05813953488371837,
          "durationTicks": 5,
          "midi": 36,
          "name": "C2",
          "ticks": 2128,
          "time": 24.74418604651163,
          "velocity": 0.7007874015748031
        },
        {
          "duration": 0.011627906976745095,
          "durationTicks": 1,
          "midi": 35,
          "name": "B1",
          "ticks": 2133,
          "time": 24.802325581395348,
          "velocity": 0.5196850393700787
        },
        {
          "duration": 0.023255813953486637,
          "durationTicks": 2,
          "midi": 48,
          "name": "C3",
          "ticks": 2136,
          "time": 24.837209302325583,
          "velocity": 0.28346456692913385
        },
        {
          "duration": 0.02325581395349019,
          "durationTicks": 2,
          "midi": 31,
          "name": "G1",
          "ticks": 2137,
          "time": 24.848837209302324,
          "velocity": 0.4251968503937008
        },
        {
          "duration": 0.011627906976741542,
          "durationTicks": 1,
          "midi": 41,
          "name": "F2",
          "ticks": 2140,
          "time": 24.88372093023256,
          "velocity": 0.5196850393700787
        },
        {
          "duration": 0.023255813953486637,
          "durationTicks": 2,
          "midi": 60,
          "name": "C4",
          "ticks": 2140,
          "time": 24.88372093023256,
          "velocity": 0.25984251968503935
        },
        {
          "duration": 0.03488372093023173,
          "durationTicks": 3,
          "midi": 68,
          "name": "G#4",
          "ticks": 2140,
          "time": 24.88372093023256,
          "velocity": 0.14960629921259844
        },
        {
          "duration": 0.011627906976745095,
          "durationTicks": 1,
          "midi": 40,
          "name": "E2",
          "ticks": 2141,
          "time": 24.8953488372093,
          "velocity": 0.5984251968503937
        },
        {
          "duration": 0.02325581395349019,
          "durationTicks": 2,
          "midi": 50,
          "name": "D3",
          "ticks": 2141,
          "time": 24.8953488372093,
          "velocity": 0.25984251968503935
        },
        {
          "duration": 0.011627906976745095,
          "durationTicks": 1,
          "midi": 38,
          "name": "D2",
          "ticks": 2142,
          "time": 24.906976744186046,
          "velocity": 0.5826771653543307
        },
        {
          "duration": 0.011627906976745095,
          "durationTicks": 1,
          "midi": 34,
          "name": "A#1",
          "ticks": 2143,
          "time": 24.91860465116279,
          "velocity": 0.5433070866141733
        },
        {
          "duration": 0.023255813953486637,
          "durationTicks": 2,
          "midi": 56,
          "name": "G#3",
          "ticks": 2143,
          "time": 24.91860465116279,
          "velocity": 0.33070866141732286
        },
        {
          "duration": 0.12790697674418539,
          "durationTicks": 11,
          "midi": 62,
          "name": "D4",
          "ticks": 2143,
          "time": 24.91860465116279,
          "velocity": 0.25196850393700787
        },
        {
          "duration": 0.011627906976741542,
          "durationTicks": 1,
          "midi": 32,
          "name": "G#1",
          "ticks": 2144,
          "time": 24.930232558139537,
          "velocity": 0.5905511811023622
        },
        {
          "duration": 0.02325581395349019,
          "durationTicks": 2,
          "midi": 36,
          "name": "C2",
          "ticks": 2145,
          "time": 24.941860465116278,
          "velocity": 0.5669291338582677
        },
        {
          "duration": 0.02325581395349019,
          "durationTicks": 2,
          "midi": 57,
          "name": "A3",
          "ticks": 2145,
          "time": 24.941860465116278,
          "velocity": 0.31496062992125984
        },
        {
          "duration": 0.02325581395349019,
          "durationTicks": 2,
          "midi": 35,
          "name": "B1",
          "ticks": 2146,
          "time": 24.953488372093023,
          "velocity": 0.5039370078740157
        },
        {
          "duration": 0.011627906976741542,
          "durationTicks": 1,
          "midi": 36,
          "name": "C2",
          "ticks": 2148,
          "time": 24.976744186046513,
          "velocity": 0.6299212598425197
        },
        {
          "duration": 0.011627906976745095,
          "durationTicks": 1,
          "midi": 35,
          "name": "B1",
          "ticks": 2149,
          "time": 24.988372093023255,
          "velocity": 0.6220472440944882
        },
        {
          "duration": 0.011627906976745095,
          "durationTicks": 1,
          "midi": 34,
          "name": "A#1",
          "ticks": 2150,
          "time": 25,
          "velocity": 0.5748031496062992
        },
        {
          "duration": 0.011627906976741542,
          "durationTicks": 1,
          "midi": 37,
          "name": "C#2",
          "ticks": 2151,
          "time": 25.011627906976745,
          "velocity": 0.5590551181102362
        },
        {
          "duration": 0.011627906976745095,
          "durationTicks": 1,
          "midi": 38,
          "name": "D2",
          "ticks": 2152,
          "time": 25.023255813953487,
          "velocity": 0.5984251968503937
        },
        {
          "duration": 0.011627906976745095,
          "durationTicks": 1,
          "midi": 36,
          "name": "C2",
          "ticks": 2153,
          "time": 25.03488372093023,
          "velocity": 0.5748031496062992
        },
        {
          "duration": 0.011627906976745095,
          "durationTicks": 1,
          "midi": 32,
          "name": "G#1",
          "ticks": 2154,
          "time": 25.046511627906977,
          "velocity": 0.5118110236220472
        },
        {
          "duration": 0.011627906976745095,
          "durationTicks": 1,
          "midi": 34,
          "name": "A#1",
          "ticks": 2158,
          "time": 25.093023255813954,
          "velocity": 0.5354330708661418
        },
        {
          "duration": 0.011627906976745095,
          "durationTicks": 1,
          "midi": 33,
          "name": "A1",
          "ticks": 2161,
          "time": 25.127906976744185,
          "velocity": 0.5196850393700787
        },
        {
          "duration": 0.023255813953486637,
          "durationTicks": 2,
          "midi": 34,
          "name": "A#1",
          "ticks": 2162,
          "time": 25.13953488372093,
          "velocity": 0.6141732283464567
        },
        {
          "duration": 0.03488372093023173,
          "durationTicks": 3,
          "midi": 51,
          "name": "D#3",
          "ticks": 2162,
          "time": 25.13953488372093,
          "velocity": 0.5905511811023622
        },
        {
          "duration": 0.03488372093023173,
          "durationTicks": 3,
          "midi": 74,
          "name": "D5",
          "ticks": 2162,
          "time": 25.13953488372093,
          "velocity": 0.1732283464566929
        },
        {
          "duration": 0.023255813953486637,
          "durationTicks": 2,
          "midi": 64,
          "name": "E4",
          "ticks": 2163,
          "time": 25.151162790697676,
          "velocity": 0.31496062992125984
        },
        {
          "duration": 0.011627906976745095,
          "durationTicks": 1,
          "midi": 33,
          "name": "A1",
          "ticks": 2164,
          "time": 25.162790697674417,
          "velocity": 0.5984251968503937
        },
        {
          "duration": 0.011627906976745095,
          "durationTicks": 1,
          "midi": 44,
          "name": "G#2",
          "ticks": 2164,
          "time": 25.162790697674417,
          "velocity": 0.5669291338582677
        },
        {
          "duration": 0.034883720930235285,
          "durationTicks": 3,
          "midi": 70,
          "name": "A#4",
          "ticks": 2164,
          "time": 25.162790697674417,
          "velocity": 0.2047244094488189
        },
        {
          "duration": 0.011627906976745095,
          "durationTicks": 1,
          "midi": 24,
          "name": "C1",
          "ticks": 2165,
          "time": 25.174418604651162,
          "velocity": 0.5354330708661418
        },
        {
          "duration": 0.011627906976745095,
          "durationTicks": 1,
          "midi": 43,
          "name": "G2",
          "ticks": 2165,
          "time": 25.174418604651162,
          "velocity": 0.6220472440944882
        },
        {
          "duration": 0.023255813953486637,
          "durationTicks": 2,
          "midi": 40,
          "name": "E2",
          "ticks": 2166,
          "time": 25.186046511627907,
          "velocity": 0.6614173228346457
        },
        {
          "duration": 0.11627906976744029,
          "durationTicks": 10,
          "midi": 62,
          "name": "D4",
          "ticks": 2166,
          "time": 25.186046511627907,
          "velocity": 0.4015748031496063
        },
        {
          "duration": 0.023255813953486637,
          "durationTicks": 2,
          "midi": 48,
          "name": "C3",
          "ticks": 2167,
          "time": 25.197674418604652,
          "velocity": 0.5275590551181102
        },
        {
          "duration": 0.011627906976745095,
          "durationTicks": 1,
          "midi": 32,
          "name": "G#1",
          "ticks": 2168,
          "time": 25.209302325581394,
          "velocity": 0.5984251968503937
        },
        {
          "duration": 0.011627906976745095,
          "durationTicks": 1,
          "midi": 41,
          "name": "F2",
          "ticks": 2168,
          "time": 25.209302325581394,
          "velocity": 0.5511811023622047
        },
        {
          "duration": 0.011627906976745095,
          "durationTicks": 1,
          "midi": 31,
          "name": "G1",
          "ticks": 2169,
          "time": 25.22093023255814,
          "velocity": 0.6771653543307087
        },
        {
          "duration": 0.011627906976745095,
          "durationTicks": 1,
          "midi": 32,
          "name": "G#1",
          "ticks": 2170,
          "time": 25.232558139534884,
          "velocity": 0.7086614173228346
        },
        {
          "duration": 0.011627906976745095,
          "durationTicks": 1,
          "midi": 42,
          "name": "F#2",
          "ticks": 2170,
          "time": 25.232558139534884,
          "velocity": 0.5433070866141733
        },
        {
          "duration": 0.04651162790697683,
          "durationTicks": 4,
          "midi": 56,
          "name": "G#3",
          "ticks": 2170,
          "time": 25.232558139534884,
          "velocity": 0.44881889763779526
        },
        {
          "duration": 0.011627906976741542,
          "durationTicks": 1,
          "midi": 34,
          "name": "A#1",
          "ticks": 2171,
          "time": 25.24418604651163,
          "velocity": 0.7559055118110236
        },
        {
          "duration": 0.02325581395349019,
          "durationTicks": 2,
          "midi": 36,
          "name": "C2",
          "ticks": 2172,
          "time": 25.25581395348837,
          "velocity": 0.7322834645669292
        },
        {
          "duration": 0.011627906976745095,
          "durationTicks": 1,
          "midi": 34,
          "name": "A#1",
          "ticks": 2174,
          "time": 25.27906976744186,
          "velocity": 0.6692913385826772
        },
        {
          "duration": 0.011627906976741542,
          "durationTicks": 1,
          "midi": 35,
          "name": "B1",
          "ticks": 2175,
          "time": 25.290697674418606,
          "velocity": 0.6850393700787402
        },
        {
          "duration": 0.023255813953486637,
          "durationTicks": 2,
          "midi": 56,
          "name": "G#3",
          "ticks": 2175,
          "time": 25.290697674418606,
          "velocity": 0.3543307086614173
        },
        {
          "duration": 0.011627906976745095,
          "durationTicks": 1,
          "midi": 36,
          "name": "C2",
          "ticks": 2176,
          "time": 25.302325581395348,
          "velocity": 0.6535433070866141
        },
        {
          "duration": 0.011627906976745095,
          "durationTicks": 1,
          "midi": 50,
          "name": "D3",
          "ticks": 2176,
          "time": 25.302325581395348,
          "velocity": 0.5118110236220472
        },
        {
          "duration": 0.011627906976745095,
          "durationTicks": 1,
          "midi": 35,
          "name": "B1",
          "ticks": 2177,
          "time": 25.313953488372093,
          "velocity": 0.5669291338582677
        },
        {
          "duration": 0.011627906976745095,
          "durationTicks": 1,
          "midi": 33,
          "name": "A1",
          "ticks": 2178,
          "time": 25.325581395348838,
          "velocity": 0.5905511811023622
        },
        {
          "duration": 0.023255813953486637,
          "durationTicks": 2,
          "midi": 44,
          "name": "G#2",
          "ticks": 2178,
          "time": 25.325581395348838,
          "velocity": 0.5196850393700787
        },
        {
          "duration": 0.011627906976741542,
          "durationTicks": 1,
          "midi": 35,
          "name": "B1",
          "ticks": 2179,
          "time": 25.337209302325583,
          "velocity": 0.6299212598425197
        },
        {
          "duration": 0.011627906976745095,
          "durationTicks": 1,
          "midi": 32,
          "name": "G#1",
          "ticks": 2180,
          "time": 25.348837209302324,
          "velocity": 0.5590551181102362
        },
        {
          "duration": 0.011627906976745095,
          "durationTicks": 1,
          "midi": 37,
          "name": "C#2",
          "ticks": 2180,
          "time": 25.348837209302324,
          "velocity": 0.5354330708661418
        },
        {
          "duration": 0.02325581395349019,
          "durationTicks": 2,
          "midi": 50,
          "name": "D3",
          "ticks": 2180,
          "time": 25.348837209302324,
          "velocity": 0.47244094488188976
        },
        {
          "duration": 0.011627906976745095,
          "durationTicks": 1,
          "midi": 31,
          "name": "G1",
          "ticks": 2181,
          "time": 25.36046511627907,
          "velocity": 0.5196850393700787
        },
        {
          "duration": 0.02325581395349019,
          "durationTicks": 2,
          "midi": 42,
          "name": "F#2",
          "ticks": 2181,
          "time": 25.36046511627907,
          "velocity": 0.5433070866141733
        },
        {
          "duration": 0.023255813953486637,
          "durationTicks": 2,
          "midi": 29,
          "name": "F1",
          "ticks": 2182,
          "time": 25.372093023255815,
          "velocity": 0.5275590551181102
        },
        {
          "duration": 0.023255813953486637,
          "durationTicks": 2,
          "midi": 48,
          "name": "C3",
          "ticks": 2183,
          "time": 25.38372093023256,
          "velocity": 0.48031496062992124
        },
        {
          "duration": 0.011627906976745095,
          "durationTicks": 1,
          "midi": 30,
          "name": "F#1",
          "ticks": 2184,
          "time": 25.3953488372093,
          "velocity": 0.5590551181102362
        },
        {
          "duration": 0.02325581395349019,
          "durationTicks": 2,
          "midi": 31,
          "name": "G1",
          "ticks": 2185,
          "time": 25.406976744186046,
          "velocity": 0.5905511811023622
        },
        {
          "duration": 0.02325581395349019,
          "durationTicks": 2,
          "midi": 55,
          "name": "G3",
          "ticks": 2185,
          "time": 25.406976744186046,
          "velocity": 0.25984251968503935
        },
        {
          "duration": 0.03488372093023173,
          "durationTicks": 3,
          "midi": 78,
          "name": "F#5",
          "ticks": 2185,
          "time": 25.406976744186046,
          "velocity": 0.23622047244094488
        },
        {
          "duration": 0.04651162790697683,
          "durationTicks": 4,
          "midi": 94,
          "name": "A#6",
          "ticks": 2185,
          "time": 25.406976744186046,
          "velocity": 0.1968503937007874
        },
        {
          "duration": 0.06976744186046702,
          "durationTicks": 6,
          "midi": 100,
          "name": "E7",
          "ticks": 2185,
          "time": 25.406976744186046,
          "velocity": 0.2047244094488189
        },
        {
          "duration": 0.03488372093023173,
          "durationTicks": 3,
          "midi": 64,
          "name": "E4",
          "ticks": 2186,
          "time": 25.41860465116279,
          "velocity": 0.18110236220472442
        },
        {
          "duration": 0.03488372093023173,
          "durationTicks": 3,
          "midi": 80,
          "name": "G#5",
          "ticks": 2186,
          "time": 25.41860465116279,
          "velocity": 0.10236220472440945
        },
        {
          "duration": 0.04651162790697683,
          "durationTicks": 4,
          "midi": 83,
          "name": "B5",
          "ticks": 2186,
          "time": 25.41860465116279,
          "velocity": 0.25196850393700787
        },
        {
          "duration": 0.03488372093023173,
          "durationTicks": 3,
          "midi": 87,
          "name": "D#6",
          "ticks": 2186,
          "time": 25.41860465116279,
          "velocity": 0.1968503937007874
        },
        {
          "duration": 0.04651162790697683,
          "durationTicks": 4,
          "midi": 88,
          "name": "E6",
          "ticks": 2186,
          "time": 25.41860465116279,
          "velocity": 0.14960629921259844
        },
        {
          "duration": 0.06976744186046346,
          "durationTicks": 6,
          "midi": 89,
          "name": "F6",
          "ticks": 2186,
          "time": 25.41860465116279,
          "velocity": 0.2204724409448819
        },
        {
          "duration": 0.05813953488372192,
          "durationTicks": 5,
          "midi": 92,
          "name": "G#6",
          "ticks": 2186,
          "time": 25.41860465116279,
          "velocity": 0.14960629921259844
        },
        {
          "duration": 0.05813953488372192,
          "durationTicks": 5,
          "midi": 96,
          "name": "C7",
          "ticks": 2186,
          "time": 25.41860465116279,
          "velocity": 0.16535433070866143
        },
        {
          "duration": 0.05813953488372192,
          "durationTicks": 5,
          "midi": 97,
          "name": "C#7",
          "ticks": 2186,
          "time": 25.41860465116279,
          "velocity": 0.11811023622047244
        },
        {
          "duration": 0.06976744186046346,
          "durationTicks": 6,
          "midi": 98,
          "name": "D7",
          "ticks": 2186,
          "time": 25.41860465116279,
          "velocity": 0.2125984251968504
        },
        {
          "duration": 0.05813953488372192,
          "durationTicks": 5,
          "midi": 99,
          "name": "D#7",
          "ticks": 2186,
          "time": 25.41860465116279,
          "velocity": 0.2440944881889764
        },
        {
          "duration": 0.03488372093023173,
          "durationTicks": 3,
          "midi": 103,
          "name": "G7",
          "ticks": 2186,
          "time": 25.41860465116279,
          "velocity": 0.11023622047244094
        },
        {
          "duration": 0.011627906976741542,
          "durationTicks": 1,
          "midi": 30,
          "name": "F#1",
          "ticks": 2187,
          "time": 25.430232558139537,
          "velocity": 0.5275590551181102
        },
        {
          "duration": 0.023255813953486637,
          "durationTicks": 2,
          "midi": 40,
          "name": "E2",
          "ticks": 2187,
          "time": 25.430232558139537,
          "velocity": 0.5590551181102362
        },
        {
          "duration": 0.023255813953486637,
          "durationTicks": 2,
          "midi": 56,
          "name": "G#3",
          "ticks": 2187,
          "time": 25.430232558139537,
          "velocity": 0.29133858267716534
        },
        {
          "duration": 0.03488372093023173,
          "durationTicks": 3,
          "midi": 79,
          "name": "G5",
          "ticks": 2187,
          "time": 25.430232558139537,
          "velocity": 0.12598425196850394
        },
        {
          "duration": 0.011627906976745095,
          "durationTicks": 1,
          "midi": 27,
          "name": "D#1",
          "ticks": 2188,
          "time": 25.441860465116278,
          "velocity": 0.5511811023622047
        },
        {
          "duration": 0.034883720930235285,
          "durationTicks": 3,
          "midi": 77,
          "name": "F5",
          "ticks": 2188,
          "time": 25.441860465116278,
          "velocity": 0.14173228346456693
        },
        {
          "duration": 0.011627906976745095,
          "durationTicks": 1,
          "midi": 30,
          "name": "F#1",
          "ticks": 2189,
          "time": 25.453488372093023,
          "velocity": 0.5905511811023622
        },
        {
          "duration": 0.02325581395349019,
          "durationTicks": 2,
          "midi": 57,
          "name": "A3",
          "ticks": 2189,
          "time": 25.453488372093023,
          "velocity": 0.30708661417322836
        },
        {
          "duration": 0.03488372093023173,
          "durationTicks": 3,
          "midi": 82,
          "name": "A#5",
          "ticks": 2189,
          "time": 25.453488372093023,
          "velocity": 0.11023622047244094
        },
        {
          "duration": 0.03488372093023173,
          "durationTicks": 3,
          "midi": 84,
          "name": "C6",
          "ticks": 2189,
          "time": 25.453488372093023,
          "velocity": 0.11811023622047244
        },
        {
          "duration": 0.04651162790697683,
          "durationTicks": 4,
          "midi": 93,
          "name": "A6",
          "ticks": 2189,
          "time": 25.453488372093023,
          "velocity": 0.12598425196850394
        },
        {
          "duration": 0.011627906976745095,
          "durationTicks": 1,
          "midi": 32,
          "name": "G#1",
          "ticks": 2190,
          "time": 25.46511627906977,
          "velocity": 0.5984251968503937
        },
        {
          "duration": 0.011627906976741542,
          "durationTicks": 1,
          "midi": 33,
          "name": "A1",
          "ticks": 2191,
          "time": 25.476744186046513,
          "velocity": 0.6062992125984252
        },
        {
          "duration": 0.08139534883720856,
          "durationTicks": 7,
          "midi": 62,
          "name": "D4",
          "ticks": 2191,
          "time": 25.476744186046513,
          "velocity": 0.29133858267716534
        },
        {
          "duration": 0.03488372093023173,
          "durationTicks": 3,
          "midi": 90,
          "name": "F#6",
          "ticks": 2191,
          "time": 25.476744186046513,
          "velocity": 0.12598425196850394
        },
        {
          "duration": 0.011627906976745095,
          "durationTicks": 1,
          "midi": 35,
          "name": "B1",
          "ticks": 2195,
          "time": 25.523255813953487,
          "velocity": 0.5590551181102362
        },
        {
          "duration": 0.034883720930235285,
          "durationTicks": 3,
          "midi": 50,
          "name": "D3",
          "ticks": 2195,
          "time": 25.523255813953487,
          "velocity": 0.3543307086614173
        },
        {
          "duration": 0.011627906976745095,
          "durationTicks": 1,
          "midi": 31,
          "name": "G1",
          "ticks": 2196,
          "time": 25.53488372093023,
          "velocity": 0.5275590551181102
        },
        {
          "duration": 0.023255813953486637,
          "durationTicks": 2,
          "midi": 30,
          "name": "F#1",
          "ticks": 2197,
          "time": 25.546511627906977,
          "velocity": 0.49606299212598426
        },
        {
          "duration": 0.011627906976741542,
          "durationTicks": 1,
          "midi": 41,
          "name": "F2",
          "ticks": 2198,
          "time": 25.558139534883722,
          "velocity": 0.5433070866141733
        },
        {
          "duration": 0.011627906976745095,
          "durationTicks": 1,
          "midi": 36,
          "name": "C2",
          "ticks": 2199,
          "time": 25.569767441860463,
          "velocity": 0.5905511811023622
        },
        {
          "duration": 0.02325581395349019,
          "durationTicks": 2,
          "midi": 40,
          "name": "E2",
          "ticks": 2200,
          "time": 25.58139534883721,
          "velocity": 0.5669291338582677
        },
        {
          "duration": 0.023255813953486637,
          "durationTicks": 2,
          "midi": 30,
          "name": "F#1",
          "ticks": 2202,
          "time": 25.6046511627907,
          "velocity": 0.5433070866141733
        },
        {
          "duration": 0.011627906976745095,
          "durationTicks": 1,
          "midi": 36,
          "name": "C2",
          "ticks": 2204,
          "time": 25.627906976744185,
          "velocity": 0.5826771653543307
        },
        {
          "duration": 0.02325581395349019,
          "durationTicks": 2,
          "midi": 36,
          "name": "C2",
          "ticks": 2207,
          "time": 25.662790697674417,
          "velocity": 0.5905511811023622
        },
        {
          "duration": 0.011627906976745095,
          "durationTicks": 1,
          "midi": 34,
          "name": "A#1",
          "ticks": 2209,
          "time": 25.686046511627907,
          "velocity": 0.5590551181102362
        },
        {
          "duration": 0.011627906976745095,
          "durationTicks": 1,
          "midi": 44,
          "name": "G#2",
          "ticks": 2209,
          "time": 25.686046511627907,
          "velocity": 0.5118110236220472
        },
        {
          "duration": 0.023255813953486637,
          "durationTicks": 2,
          "midi": 64,
          "name": "E4",
          "ticks": 2209,
          "time": 25.686046511627907,
          "velocity": 0.3543307086614173
        },
        {
          "duration": 0.011627906976741542,
          "durationTicks": 1,
          "midi": 33,
          "name": "A1",
          "ticks": 2210,
          "time": 25.697674418604652,
          "velocity": 0.5748031496062992
        },
        {
          "duration": 0.011627906976745095,
          "durationTicks": 1,
          "midi": 29,
          "name": "F1",
          "ticks": 2211,
          "time": 25.709302325581394,
          "velocity": 0.5590551181102362
        },
        {
          "duration": 0.02325581395349019,
          "durationTicks": 2,
          "midi": 41,
          "name": "F2",
          "ticks": 2211,
          "time": 25.709302325581394,
          "velocity": 0.6692913385826772
        },
        {
          "duration": 0.02325581395349019,
          "durationTicks": 2,
          "midi": 63,
          "name": "D#4",
          "ticks": 2211,
          "time": 25.709302325581394,
          "velocity": 0.3858267716535433
        },
        {
          "duration": 0.02325581395349019,
          "durationTicks": 2,
          "midi": 67,
          "name": "G4",
          "ticks": 2211,
          "time": 25.709302325581394,
          "velocity": 0.28346456692913385
        },
        {
          "duration": 0.02325581395349019,
          "durationTicks": 2,
          "midi": 56,
          "name": "G#3",
          "ticks": 2212,
          "time": 25.72093023255814,
          "velocity": 0.3858267716535433
        },
        {
          "duration": 0.011627906976745095,
          "durationTicks": 1,
          "midi": 36,
          "name": "C2",
          "ticks": 2213,
          "time": 25.732558139534884,
          "velocity": 0.6062992125984252
        },
        {
          "duration": 0.08139534883720856,
          "durationTicks": 7,
          "midi": 62,
          "name": "D4",
          "ticks": 2213,
          "time": 25.732558139534884,
          "velocity": 0.3543307086614173
        },
        {
          "duration": 0.011627906976741542,
          "durationTicks": 1,
          "midi": 34,
          "name": "A#1",
          "ticks": 2214,
          "time": 25.74418604651163,
          "velocity": 0.5354330708661418
        },
        {
          "duration": 0.02325581395349019,
          "durationTicks": 2,
          "midi": 36,
          "name": "C2",
          "ticks": 2215,
          "time": 25.75581395348837,
          "velocity": 0.7007874015748031
        },
        {
          "duration": 0.023255813953486637,
          "durationTicks": 2,
          "midi": 35,
          "name": "B1",
          "ticks": 2217,
          "time": 25.77906976744186,
          "velocity": 0.7165354330708661
        },
        {
          "duration": 0.023255813953486637,
          "durationTicks": 2,
          "midi": 54,
          "name": "F#3",
          "ticks": 2217,
          "time": 25.77906976744186,
          "velocity": 0.3228346456692913
        },
        {
          "duration": 0.02325581395349019,
          "durationTicks": 2,
          "midi": 36,
          "name": "C2",
          "ticks": 2219,
          "time": 25.802325581395348,
          "velocity": 0.7086614173228346
        },
        {
          "duration": 0.011627906976745095,
          "durationTicks": 1,
          "midi": 34,
          "name": "A#1",
          "ticks": 2221,
          "time": 25.825581395348838,
          "velocity": 0.6771653543307087
        },
        {
          "duration": 0.04651162790697683,
          "durationTicks": 4,
          "midi": 62,
          "name": "D4",
          "ticks": 2221,
          "time": 25.825581395348838,
          "velocity": 0.16535433070866143
        },
        {
          "duration": 0.04651162790697683,
          "durationTicks": 4,
          "midi": 36,
          "name": "C2",
          "ticks": 2222,
          "time": 25.837209302325583,
          "velocity": 0.6850393700787402
        },
        {
          "duration": 0.03488372093023173,
          "durationTicks": 3,
          "midi": 35,
          "name": "B1",
          "ticks": 2226,
          "time": 25.88372093023256,
          "velocity": 0.5669291338582677
        },
        {
          "duration": 0.023255813953486637,
          "durationTicks": 2,
          "midi": 48,
          "name": "C3",
          "ticks": 2226,
          "time": 25.88372093023256,
          "velocity": 0.30708661417322836
        },
        {
          "duration": 0.04651162790697683,
          "durationTicks": 4,
          "midi": 78,
          "name": "F#5",
          "ticks": 2232,
          "time": 25.953488372093023,
          "velocity": 0.2440944881889764
        },
        {
          "duration": 0.09302325581395365,
          "durationTicks": 8,
          "midi": 91,
          "name": "G6",
          "ticks": 2232,
          "time": 25.953488372093023,
          "velocity": 0.2047244094488189
        },
        {
          "duration": 0.03488372093023173,
          "durationTicks": 3,
          "midi": 93,
          "name": "A6",
          "ticks": 2232,
          "time": 25.953488372093023,
          "velocity": 0.2677165354330709
        },
        {
          "duration": 0.06976744186046346,
          "durationTicks": 6,
          "midi": 94,
          "name": "A#6",
          "ticks": 2232,
          "time": 25.953488372093023,
          "velocity": 0.29133858267716534
        },
        {
          "duration": 0.08139534883720856,
          "durationTicks": 7,
          "midi": 97,
          "name": "C#7",
          "ticks": 2232,
          "time": 25.953488372093023,
          "velocity": 0.1732283464566929
        },
        {
          "duration": 0.06976744186046346,
          "durationTicks": 6,
          "midi": 98,
          "name": "D7",
          "ticks": 2232,
          "time": 25.953488372093023,
          "velocity": 0.1732283464566929
        },
        {
          "duration": 0.05813953488372192,
          "durationTicks": 5,
          "midi": 99,
          "name": "D#7",
          "ticks": 2232,
          "time": 25.953488372093023,
          "velocity": 0.2125984251968504
        },
        {
          "duration": 0.023255813953486637,
          "durationTicks": 2,
          "midi": 42,
          "name": "F#2",
          "ticks": 2233,
          "time": 25.96511627906977,
          "velocity": 0.5039370078740157
        },
        {
          "duration": 0.04651162790697683,
          "durationTicks": 4,
          "midi": 83,
          "name": "B5",
          "ticks": 2233,
          "time": 25.96511627906977,
          "velocity": 0.2440944881889764
        },
        {
          "duration": 0.03488372093023173,
          "durationTicks": 3,
          "midi": 86,
          "name": "D6",
          "ticks": 2233,
          "time": 25.96511627906977,
          "velocity": 0.25984251968503935
        },
        {
          "duration": 0.023255813953486637,
          "durationTicks": 2,
          "midi": 87,
          "name": "D#6",
          "ticks": 2233,
          "time": 25.96511627906977,
          "velocity": 0.2440944881889764
        },
        {
          "duration": 0.11627906976744029,
          "durationTicks": 10,
          "midi": 89,
          "name": "F6",
          "ticks": 2233,
          "time": 25.96511627906977,
          "velocity": 0.25984251968503935
        },
        {
          "duration": 0.04651162790697683,
          "durationTicks": 4,
          "midi": 90,
          "name": "F#6",
          "ticks": 2233,
          "time": 25.96511627906977,
          "velocity": 0.2440944881889764
        },
        {
          "duration": 0.06976744186046346,
          "durationTicks": 6,
          "midi": 100,
          "name": "E7",
          "ticks": 2233,
          "time": 25.96511627906977,
          "velocity": 0.25196850393700787
        },
        {
          "duration": 0.023255813953486637,
          "durationTicks": 2,
          "midi": 51,
          "name": "D#3",
          "ticks": 2234,
          "time": 25.976744186046513,
          "velocity": 0.2992125984251969
        },
        {
          "duration": 0.023255813953486637,
          "durationTicks": 2,
          "midi": 60,
          "name": "C4",
          "ticks": 2234,
          "time": 25.976744186046513,
          "velocity": 0.33070866141732286
        },
        {
          "duration": 0.08139534883720856,
          "durationTicks": 7,
          "midi": 85,
          "name": "C#6",
          "ticks": 2234,
          "time": 25.976744186046513,
          "velocity": 0.25984251968503935
        },
        {
          "duration": 0.05813953488371837,
          "durationTicks": 5,
          "midi": 96,
          "name": "C7",
          "ticks": 2234,
          "time": 25.976744186046513,
          "velocity": 0.10236220472440945
        },
        {
          "duration": 0.011627906976745095,
          "durationTicks": 1,
          "midi": 41,
          "name": "F2",
          "ticks": 2235,
          "time": 25.988372093023255,
          "velocity": 0.5984251968503937
        },
        {
          "duration": 0.04651162790697683,
          "durationTicks": 4,
          "midi": 82,
          "name": "A#5",
          "ticks": 2235,
          "time": 25.988372093023255,
          "velocity": 0.14173228346456693
        },
        {
          "duration": 0.04651162790697683,
          "durationTicks": 4,
          "midi": 92,
          "name": "G#6",
          "ticks": 2235,
          "time": 25.988372093023255,
          "velocity": 0.28346456692913385
        },
        {
          "duration": 0.011627906976745095,
          "durationTicks": 1,
          "midi": 38,
          "name": "D2",
          "ticks": 2236,
          "time": 26,
          "velocity": 0.5905511811023622
        },
        {
          "duration": 0.05813953488372192,
          "durationTicks": 5,
          "midi": 77,
          "name": "F5",
          "ticks": 2236,
          "time": 26,
          "velocity": 0.18110236220472442
        },
        {
          "duration": 0.08139534883720856,
          "durationTicks": 7,
          "midi": 93,
          "name": "A6",
          "ticks": 2236,
          "time": 26,
          "velocity": 0.12598425196850394
        },
        {
          "duration": 0.011627906976741542,
          "durationTicks": 1,
          "midi": 34,
          "name": "A#1",
          "ticks": 2237,
          "time": 26.011627906976745,
          "velocity": 0.5590551181102362
        },
        {
          "duration": 0.03488372093023173,
          "durationTicks": 3,
          "midi": 56,
          "name": "G#3",
          "ticks": 2237,
          "time": 26.011627906976745,
          "velocity": 0.3464566929133858
        },
        {
          "duration": 0.011627906976745095,
          "durationTicks": 1,
          "midi": 32,
          "name": "G#1",
          "ticks": 2238,
          "time": 26.023255813953487,
          "velocity": 0.5984251968503937
        },
        {
          "duration": 0.04651162790697683,
          "durationTicks": 4,
          "midi": 36,
          "name": "C2",
          "ticks": 2239,
          "time": 26.03488372093023,
          "velocity": 0.6456692913385826
        },
        {
          "duration": 0.04651162790697683,
          "durationTicks": 4,
          "midi": 62,
          "name": "D4",
          "ticks": 2239,
          "time": 26.03488372093023,
          "velocity": 0.25984251968503935
        },
        {
          "duration": 0.011627906976745095,
          "durationTicks": 1,
          "midi": 35,
          "name": "B1",
          "ticks": 2243,
          "time": 26.08139534883721,
          "velocity": 0.6377952755905512
        },
        {
          "duration": 0.011627906976745095,
          "durationTicks": 1,
          "midi": 34,
          "name": "A#1",
          "ticks": 2244,
          "time": 26.093023255813954,
          "velocity": 0.5748031496062992
        },
        {
          "duration": 0.023255813953486637,
          "durationTicks": 2,
          "midi": 38,
          "name": "D2",
          "ticks": 2245,
          "time": 26.1046511627907,
          "velocity": 0.5826771653543307
        },
        {
          "duration": 0.023255813953486637,
          "durationTicks": 2,
          "midi": 55,
          "name": "G3",
          "ticks": 2245,
          "time": 26.1046511627907,
          "velocity": 0.25196850393700787
        },
        {
          "duration": 0.011627906976745095,
          "durationTicks": 1,
          "midi": 35,
          "name": "B1",
          "ticks": 2247,
          "time": 26.127906976744185,
          "velocity": 0.5669291338582677
        },
        {
          "duration": 0.011627906976745095,
          "durationTicks": 1,
          "midi": 32,
          "name": "G#1",
          "ticks": 2248,
          "time": 26.13953488372093,
          "velocity": 0.5275590551181102
        },
        {
          "duration": 0.011627906976745095,
          "durationTicks": 1,
          "midi": 34,
          "name": "A#1",
          "ticks": 2252,
          "time": 26.186046511627907,
          "velocity": 0.5590551181102362
        },
        {
          "duration": 0.011627906976745095,
          "durationTicks": 1,
          "midi": 31,
          "name": "G1",
          "ticks": 2255,
          "time": 26.22093023255814,
          "velocity": 0.5196850393700787
        },
        {
          "duration": 0.02325581395349019,
          "durationTicks": 2,
          "midi": 65,
          "name": "F4",
          "ticks": 2255,
          "time": 26.22093023255814,
          "velocity": 0.2755905511811024
        },
        {
          "duration": 0.011627906976745095,
          "durationTicks": 1,
          "midi": 33,
          "name": "A1",
          "ticks": 2256,
          "time": 26.232558139534884,
          "velocity": 0.5984251968503937
        },
        {
          "duration": 0.03488372093023173,
          "durationTicks": 3,
          "midi": 51,
          "name": "D#3",
          "ticks": 2256,
          "time": 26.232558139534884,
          "velocity": 0.5905511811023622
        },
        {
          "duration": 0.05813953488372192,
          "durationTicks": 5,
          "midi": 74,
          "name": "D5",
          "ticks": 2256,
          "time": 26.232558139534884,
          "velocity": 0.18110236220472442
        },
        {
          "duration": 0.011627906976741542,
          "durationTicks": 1,
          "midi": 34,
          "name": "A#1",
          "ticks": 2257,
          "time": 26.24418604651163,
          "velocity": 0.6141732283464567
        },
        {
          "duration": 0.023255813953486637,
          "durationTicks": 2,
          "midi": 64,
          "name": "E4",
          "ticks": 2257,
          "time": 26.24418604651163,
          "velocity": 0.33070866141732286
        },
        {
          "duration": 0.011627906976745095,
          "durationTicks": 1,
          "midi": 33,
          "name": "A1",
          "ticks": 2258,
          "time": 26.25581395348837,
          "velocity": 0.5905511811023622
        },
        {
          "duration": 0.011627906976745095,
          "durationTicks": 1,
          "midi": 44,
          "name": "G#2",
          "ticks": 2258,
          "time": 26.25581395348837,
          "velocity": 0.5748031496062992
        },
        {
          "duration": 0.034883720930235285,
          "durationTicks": 3,
          "midi": 70,
          "name": "A#4",
          "ticks": 2258,
          "time": 26.25581395348837,
          "velocity": 0.1968503937007874
        },
        {
          "duration": 0.011627906976745095,
          "durationTicks": 1,
          "midi": 22,
          "name": "A#0",
          "ticks": 2259,
          "time": 26.267441860465116,
          "velocity": 0.5354330708661418
        },
        {
          "duration": 0.011627906976745095,
          "durationTicks": 1,
          "midi": 43,
          "name": "G2",
          "ticks": 2259,
          "time": 26.267441860465116,
          "velocity": 0.6220472440944882
        },
        {
          "duration": 0.023255813953486637,
          "durationTicks": 2,
          "midi": 40,
          "name": "E2",
          "ticks": 2260,
          "time": 26.27906976744186,
          "velocity": 0.6535433070866141
        },
        {
          "duration": 0.11627906976744029,
          "durationTicks": 10,
          "midi": 62,
          "name": "D4",
          "ticks": 2260,
          "time": 26.27906976744186,
          "velocity": 0.4015748031496063
        },
        {
          "duration": 0.023255813953486637,
          "durationTicks": 2,
          "midi": 48,
          "name": "C3",
          "ticks": 2261,
          "time": 26.290697674418606,
          "velocity": 0.5354330708661418
        },
        {
          "duration": 0.011627906976745095,
          "durationTicks": 1,
          "midi": 32,
          "name": "G#1",
          "ticks": 2262,
          "time": 26.302325581395348,
          "velocity": 0.6141732283464567
        },
        {
          "duration": 0.011627906976745095,
          "durationTicks": 1,
          "midi": 41,
          "name": "F2",
          "ticks": 2262,
          "time": 26.302325581395348,
          "velocity": 0.5748031496062992
        },
        {
          "duration": 0.011627906976745095,
          "durationTicks": 1,
          "midi": 34,
          "name": "A#1",
          "ticks": 2263,
          "time": 26.313953488372093,
          "velocity": 0.6929133858267716
        },
        {
          "duration": 0.03488372093023173,
          "durationTicks": 3,
          "midi": 70,
          "name": "A#4",
          "ticks": 2263,
          "time": 26.313953488372093,
          "velocity": 0.10236220472440945
        },
        {
          "duration": 0.011627906976745095,
          "durationTicks": 1,
          "midi": 32,
          "name": "G#1",
          "ticks": 2264,
          "time": 26.325581395348838,
          "velocity": 0.7244094488188977
        },
        {
          "duration": 0.011627906976745095,
          "durationTicks": 1,
          "midi": 42,
          "name": "F#2",
          "ticks": 2264,
          "time": 26.325581395348838,
          "velocity": 0.5669291338582677
        },
        {
          "duration": 0.04651162790697683,
          "durationTicks": 4,
          "midi": 56,
          "name": "G#3",
          "ticks": 2264,
          "time": 26.325581395348838,
          "velocity": 0.4566929133858268
        },
        {
          "duration": 0.011627906976741542,
          "durationTicks": 1,
          "midi": 34,
          "name": "A#1",
          "ticks": 2265,
          "time": 26.337209302325583,
          "velocity": 0.7637795275590551
        },
        {
          "duration": 0.02325581395349019,
          "durationTicks": 2,
          "midi": 36,
          "name": "C2",
          "ticks": 2266,
          "time": 26.348837209302324,
          "velocity": 0.7322834645669292
        },
        {
          "duration": 0.011627906976745095,
          "durationTicks": 1,
          "midi": 34,
          "name": "A#1",
          "ticks": 2268,
          "time": 26.372093023255815,
          "velocity": 0.6771653543307087
        },
        {
          "duration": 0.011627906976741542,
          "durationTicks": 1,
          "midi": 35,
          "name": "B1",
          "ticks": 2269,
          "time": 26.38372093023256,
          "velocity": 0.7007874015748031
        },
        {
          "duration": 0.023255813953486637,
          "durationTicks": 2,
          "midi": 56,
          "name": "G#3",
          "ticks": 2269,
          "time": 26.38372093023256,
          "velocity": 0.36220472440944884
        },
        {
          "duration": 0.011627906976745095,
          "durationTicks": 1,
          "midi": 36,
          "name": "C2",
          "ticks": 2270,
          "time": 26.3953488372093,
          "velocity": 0.6692913385826772
        },
        {
          "duration": 0.011627906976745095,
          "durationTicks": 1,
          "midi": 50,
          "name": "D3",
          "ticks": 2270,
          "time": 26.3953488372093,
          "velocity": 0.5118110236220472
        },
        {
          "duration": 0.011627906976745095,
          "durationTicks": 1,
          "midi": 35,
          "name": "B1",
          "ticks": 2271,
          "time": 26.406976744186046,
          "velocity": 0.5905511811023622
        },
        {
          "duration": 0.011627906976745095,
          "durationTicks": 1,
          "midi": 33,
          "name": "A1",
          "ticks": 2272,
          "time": 26.41860465116279,
          "velocity": 0.6062992125984252
        },
        {
          "duration": 0.023255813953486637,
          "durationTicks": 2,
          "midi": 44,
          "name": "G#2",
          "ticks": 2272,
          "time": 26.41860465116279,
          "velocity": 0.5196850393700787
        },
        {
          "duration": 0.011627906976741542,
          "durationTicks": 1,
          "midi": 34,
          "name": "A#1",
          "ticks": 2273,
          "time": 26.430232558139537,
          "velocity": 0.6377952755905512
        },
        {
          "duration": 0.02325581395349019,
          "durationTicks": 2,
          "midi": 31,
          "name": "G1",
          "ticks": 2274,
          "time": 26.441860465116278,
          "velocity": 0.5748031496062992
        },
        {
          "duration": 0.011627906976745095,
          "durationTicks": 1,
          "midi": 37,
          "name": "C#2",
          "ticks": 2274,
          "time": 26.441860465116278,
          "velocity": 0.5275590551181102
        },
        {
          "duration": 0.034883720930235285,
          "durationTicks": 3,
          "midi": 62,
          "name": "D4",
          "ticks": 2274,
          "time": 26.441860465116278,
          "velocity": 0.18110236220472442
        },
        {
          "duration": 0.011627906976745095,
          "durationTicks": 1,
          "midi": 42,
          "name": "F#2",
          "ticks": 2275,
          "time": 26.453488372093023,
          "velocity": 0.5511811023622047
        },
        {
          "duration": 0.023255813953486637,
          "durationTicks": 2,
          "midi": 29,
          "name": "F1",
          "ticks": 2276,
          "time": 26.46511627906977,
          "velocity": 0.5433070866141733
        },
        {
          "duration": 0.023255813953486637,
          "durationTicks": 2,
          "midi": 41,
          "name": "F2",
          "ticks": 2276,
          "time": 26.46511627906977,
          "velocity": 0.5511811023622047
        },
        {
          "duration": 0.023255813953486637,
          "durationTicks": 2,
          "midi": 48,
          "name": "C3",
          "ticks": 2277,
          "time": 26.476744186046513,
          "velocity": 0.48031496062992124
        },
        {
          "duration": 0.03488372093023173,
          "durationTicks": 3,
          "midi": 31,
          "name": "G1",
          "ticks": 2278,
          "time": 26.488372093023255,
          "velocity": 0.5984251968503937
        },
        {
          "duration": 0.023255813953486637,
          "durationTicks": 2,
          "midi": 55,
          "name": "G3",
          "ticks": 2279,
          "time": 26.5,
          "velocity": 0.25984251968503935
        },
        {
          "duration": 0.011627906976745095,
          "durationTicks": 1,
          "midi": 29,
          "name": "F1",
          "ticks": 2281,
          "time": 26.523255813953487,
          "velocity": 0.5433070866141733
        },
        {
          "duration": 0.02325581395349019,
          "durationTicks": 2,
          "midi": 41,
          "name": "F2",
          "ticks": 2281,
          "time": 26.523255813953487,
          "velocity": 0.5511811023622047
        },
        {
          "duration": 0.04651162790697683,
          "durationTicks": 4,
          "midi": 56,
          "name": "G#3",
          "ticks": 2281,
          "time": 26.523255813953487,
          "velocity": 0.33070866141732286
        },
        {
          "duration": 0.02325581395349019,
          "durationTicks": 2,
          "midi": 60,
          "name": "C4",
          "ticks": 2281,
          "time": 26.523255813953487,
          "velocity": 0.2283464566929134
        },
        {
          "duration": 0.011627906976745095,
          "durationTicks": 1,
          "midi": 28,
          "name": "E1",
          "ticks": 2282,
          "time": 26.53488372093023,
          "velocity": 0.5590551181102362
        },
        {
          "duration": 0.011627906976745095,
          "durationTicks": 1,
          "midi": 30,
          "name": "F#1",
          "ticks": 2283,
          "time": 26.546511627906977,
          "velocity": 0.5984251968503937
        },
        {
          "duration": 0.011627906976741542,
          "durationTicks": 1,
          "midi": 32,
          "name": "G#1",
          "ticks": 2284,
          "time": 26.558139534883722,
          "velocity": 0.6141732283464567
        },
        {
          "duration": 0.12790697674418539,
          "durationTicks": 11,
          "midi": 62,
          "name": "D4",
          "ticks": 2284,
          "time": 26.558139534883722,
          "velocity": 0.2677165354330709
        },
        {
          "duration": 0.011627906976745095,
          "durationTicks": 1,
          "midi": 34,
          "name": "A#1",
          "ticks": 2285,
          "time": 26.569767441860463,
          "velocity": 0.6299212598425197
        },
        {
          "duration": 0.02325581395349019,
          "durationTicks": 2,
          "midi": 57,
          "name": "A3",
          "ticks": 2286,
          "time": 26.58139534883721,
          "velocity": 0.31496062992125984
        },
        {
          "duration": 0.011627906976741542,
          "durationTicks": 1,
          "midi": 28,
          "name": "E1",
          "ticks": 2288,
          "time": 26.6046511627907,
          "velocity": 0.5275590551181102
        },
        {
          "duration": 0.03488372093023173,
          "durationTicks": 3,
          "midi": 56,
          "name": "G#3",
          "ticks": 2288,
          "time": 26.6046511627907,
          "velocity": 0.2204724409448819
        },
        {
          "duration": 0.02325581395349019,
          "durationTicks": 2,
          "midi": 31,
          "name": "G1",
          "ticks": 2289,
          "time": 26.61627906976744,
          "velocity": 0.5590551181102362
        },
        {
          "duration": 0.034883720930235285,
          "durationTicks": 3,
          "midi": 50,
          "name": "D3",
          "ticks": 2289,
          "time": 26.61627906976744,
          "velocity": 0.3464566929133858
        },
        {
          "duration": 0.023255813953486637,
          "durationTicks": 2,
          "midi": 30,
          "name": "F#1",
          "ticks": 2291,
          "time": 26.63953488372093,
          "velocity": 0.5196850393700787
        },
        {
          "duration": 0.023255813953486637,
          "durationTicks": 2,
          "midi": 41,
          "name": "F2",
          "ticks": 2291,
          "time": 26.63953488372093,
          "velocity": 0.5669291338582677
        },
        {
          "duration": 0.011627906976745095,
          "durationTicks": 1,
          "midi": 37,
          "name": "C#2",
          "ticks": 2293,
          "time": 26.662790697674417,
          "velocity": 0.5984251968503937
        },
        {
          "duration": 0.011627906976745095,
          "durationTicks": 1,
          "midi": 39,
          "name": "D#2",
          "ticks": 2294,
          "time": 26.674418604651162,
          "velocity": 0.5669291338582677
        },
        {
          "duration": 0.011627906976745095,
          "durationTicks": 1,
          "midi": 40,
          "name": "E2",
          "ticks": 2295,
          "time": 26.686046511627907,
          "velocity": 0.5196850393700787
        },
        {
          "duration": 0.011627906976745095,
          "durationTicks": 1,
          "midi": 32,
          "name": "G#1",
          "ticks": 2297,
          "time": 26.709302325581394,
          "velocity": 0.5748031496062992
        },
        {
          "duration": 0.011627906976745095,
          "durationTicks": 1,
          "midi": 36,
          "name": "C2",
          "ticks": 2298,
          "time": 26.72093023255814,
          "velocity": 0.5748031496062992
        },
        {
          "duration": 0.011627906976745095,
          "durationTicks": 1,
          "midi": 35,
          "name": "B1",
          "ticks": 2301,
          "time": 26.75581395348837,
          "velocity": 0.5118110236220472
        },
        {
          "duration": 0.011627906976745095,
          "durationTicks": 1,
          "midi": 36,
          "name": "C2",
          "ticks": 2302,
          "time": 26.767441860465116,
          "velocity": 0.5748031496062992
        },
        {
          "duration": 0.023255813953486637,
          "durationTicks": 2,
          "midi": 34,
          "name": "A#1",
          "ticks": 2303,
          "time": 26.77906976744186,
          "velocity": 0.5905511811023622
        },
        {
          "duration": 0.011627906976745095,
          "durationTicks": 1,
          "midi": 44,
          "name": "G#2",
          "ticks": 2303,
          "time": 26.77906976744186,
          "velocity": 0.5196850393700787
        },
        {
          "duration": 0.023255813953486637,
          "durationTicks": 2,
          "midi": 57,
          "name": "A3",
          "ticks": 2304,
          "time": 26.790697674418606,
          "velocity": 0.4251968503937008
        },
        {
          "duration": 0.011627906976745095,
          "durationTicks": 1,
          "midi": 30,
          "name": "F#1",
          "ticks": 2305,
          "time": 26.802325581395348,
          "velocity": 0.5511811023622047
        },
        {
          "duration": 0.02325581395349019,
          "durationTicks": 2,
          "midi": 41,
          "name": "F2",
          "ticks": 2305,
          "time": 26.802325581395348,
          "velocity": 0.6692913385826772
        },
        {
          "duration": 0.02325581395349019,
          "durationTicks": 2,
          "midi": 63,
          "name": "D#4",
          "ticks": 2305,
          "time": 26.802325581395348,
          "velocity": 0.3937007874015748
        },
        {
          "duration": 0.02325581395349019,
          "durationTicks": 2,
          "midi": 56,
          "name": "G#3",
          "ticks": 2306,
          "time": 26.813953488372093,
          "velocity": 0.3937007874015748
        },
        {
          "duration": 0.011627906976745095,
          "durationTicks": 1,
          "midi": 36,
          "name": "C2",
          "ticks": 2307,
          "time": 26.825581395348838,
          "velocity": 0.6062992125984252
        },
        {
          "duration": 0.13953488372093048,
          "durationTicks": 12,
          "midi": 62,
          "name": "D4",
          "ticks": 2307,
          "time": 26.825581395348838,
          "velocity": 0.3543307086614173
        },
        {
          "duration": 0.011627906976741542,
          "durationTicks": 1,
          "midi": 33,
          "name": "A1",
          "ticks": 2308,
          "time": 26.837209302325583,
          "velocity": 0.5590551181102362
        },
        {
          "duration": 0.02325581395349019,
          "durationTicks": 2,
          "midi": 36,
          "name": "C2",
          "ticks": 2309,
          "time": 26.848837209302324,
          "velocity": 0.7007874015748031
        },
        {
          "duration": 0.023255813953486637,
          "durationTicks": 2,
          "midi": 35,
          "name": "B1",
          "ticks": 2311,
          "time": 26.872093023255815,
          "velocity": 0.7244094488188977
        },
        {
          "duration": 0.023255813953486637,
          "durationTicks": 2,
          "midi": 54,
          "name": "F#3",
          "ticks": 2311,
          "time": 26.872093023255815,
          "velocity": 0.3228346456692913
        },
        {
          "duration": 0.011627906976745095,
          "durationTicks": 1,
          "midi": 36,
          "name": "C2",
          "ticks": 2313,
          "time": 26.8953488372093,
          "velocity": 0.7086614173228346
        },
        {
          "duration": 0.02325581395349019,
          "durationTicks": 2,
          "midi": 35,
          "name": "B1",
          "ticks": 2314,
          "time": 26.906976744186046,
          "velocity": 0.6850393700787402
        },
        {
          "duration": 0.02325581395349019,
          "durationTicks": 2,
          "midi": 55,
          "name": "G3",
          "ticks": 2314,
          "time": 26.906976744186046,
          "velocity": 0.2283464566929134
        },
        {
          "duration": 0.05813953488371837,
          "durationTicks": 5,
          "midi": 36,
          "name": "C2",
          "ticks": 2316,
          "time": 26.930232558139537,
          "velocity": 0.7007874015748031
        },
        {
          "duration": 0.011627906976745095,
          "durationTicks": 1,
          "midi": 35,
          "name": "B1",
          "ticks": 2321,
          "time": 26.988372093023255,
          "velocity": 0.5196850393700787
        },
        {
          "duration": 0.023255813953486637,
          "durationTicks": 2,
          "midi": 34,
          "name": "A#1",
          "ticks": 2322,
          "time": 27,
          "velocity": 0.4015748031496063
        },
        {
          "duration": 0.02325581395349019,
          "durationTicks": 2,
          "midi": 48,
          "name": "C3",
          "ticks": 2324,
          "time": 27.023255813953487,
          "velocity": 0.29133858267716534
        },
        {
          "duration": 0.023255813953486637,
          "durationTicks": 2,
          "midi": 41,
          "name": "F2",
          "ticks": 2327,
          "time": 27.058139534883722,
          "velocity": 0.5275590551181102
        },
        {
          "duration": 0.02325581395349019,
          "durationTicks": 2,
          "midi": 60,
          "name": "C4",
          "ticks": 2328,
          "time": 27.069767441860463,
          "velocity": 0.2677165354330709
        },
        {
          "duration": 0.034883720930235285,
          "durationTicks": 3,
          "midi": 68,
          "name": "G#4",
          "ticks": 2328,
          "time": 27.069767441860463,
          "velocity": 0.14173228346456693
        },
        {
          "duration": 0.011627906976745095,
          "durationTicks": 1,
          "midi": 40,
          "name": "E2",
          "ticks": 2329,
          "time": 27.08139534883721,
          "velocity": 0.5984251968503937
        },
        {
          "duration": 0.02325581395349019,
          "durationTicks": 2,
          "midi": 50,
          "name": "D3",
          "ticks": 2329,
          "time": 27.08139534883721,
          "velocity": 0.25196850393700787
        },
        {
          "duration": 0.011627906976745095,
          "durationTicks": 1,
          "midi": 38,
          "name": "D2",
          "ticks": 2330,
          "time": 27.093023255813954,
          "velocity": 0.5905511811023622
        },
        {
          "duration": 0.011627906976741542,
          "durationTicks": 1,
          "midi": 34,
          "name": "A#1",
          "ticks": 2331,
          "time": 27.1046511627907,
          "velocity": 0.5511811023622047
        },
        {
          "duration": 0.023255813953486637,
          "durationTicks": 2,
          "midi": 56,
          "name": "G#3",
          "ticks": 2331,
          "time": 27.1046511627907,
          "velocity": 0.33070866141732286
        },
        {
          "duration": 0.12790697674418539,
          "durationTicks": 11,
          "midi": 62,
          "name": "D4",
          "ticks": 2331,
          "time": 27.1046511627907,
          "velocity": 0.25196850393700787
        },
        {
          "duration": 0.011627906976745095,
          "durationTicks": 1,
          "midi": 33,
          "name": "A1",
          "ticks": 2332,
          "time": 27.11627906976744,
          "velocity": 0.5984251968503937
        },
        {
          "duration": 0.02325581395349019,
          "durationTicks": 2,
          "midi": 36,
          "name": "C2",
          "ticks": 2333,
          "time": 27.127906976744185,
          "velocity": 0.5590551181102362
        },
        {
          "duration": 0.02325581395349019,
          "durationTicks": 2,
          "midi": 57,
          "name": "A3",
          "ticks": 2333,
          "time": 27.127906976744185,
          "velocity": 0.31496062992125984
        },
        {
          "duration": 0.023255813953486637,
          "durationTicks": 2,
          "midi": 35,
          "name": "B1",
          "ticks": 2334,
          "time": 27.13953488372093,
          "velocity": 0.5196850393700787
        },
        {
          "duration": 0.04651162790697683,
          "durationTicks": 4,
          "midi": 56,
          "name": "G#3",
          "ticks": 2335,
          "time": 27.151162790697676,
          "velocity": 0.2125984251968504
        },
        {
          "duration": 0.011627906976745095,
          "durationTicks": 1,
          "midi": 36,
          "name": "C2",
          "ticks": 2336,
          "time": 27.162790697674417,
          "velocity": 0.6377952755905512
        },
        {
          "duration": 0.011627906976745095,
          "durationTicks": 1,
          "midi": 35,
          "name": "B1",
          "ticks": 2337,
          "time": 27.174418604651162,
          "velocity": 0.6220472440944882
        },
        {
          "duration": 0.011627906976745095,
          "durationTicks": 1,
          "midi": 34,
          "name": "A#1",
          "ticks": 2338,
          "time": 27.186046511627907,
          "velocity": 0.5748031496062992
        },
        {
          "duration": 0.023255813953486637,
          "durationTicks": 2,
          "midi": 38,
          "name": "D2",
          "ticks": 2339,
          "time": 27.197674418604652,
          "velocity": 0.5984251968503937
        },
        {
          "duration": 0.011627906976745095,
          "durationTicks": 1,
          "midi": 36,
          "name": "C2",
          "ticks": 2341,
          "time": 27.22093023255814,
          "velocity": 0.5748031496062992
        },
        {
          "duration": 0.011627906976745095,
          "durationTicks": 1,
          "midi": 32,
          "name": "G#1",
          "ticks": 2342,
          "time": 27.232558139534884,
          "velocity": 0.5118110236220472
        },
        {
          "duration": 0.023255813953486637,
          "durationTicks": 2,
          "midi": 42,
          "name": "F#2",
          "ticks": 2342,
          "time": 27.232558139534884,
          "velocity": 0.3937007874015748
        },
        {
          "duration": 0.011627906976745095,
          "durationTicks": 1,
          "midi": 35,
          "name": "B1",
          "ticks": 2346,
          "time": 27.27906976744186,
          "velocity": 0.5433070866141733
        },
        {
          "duration": 0.011627906976745095,
          "durationTicks": 1,
          "midi": 33,
          "name": "A1",
          "ticks": 2349,
          "time": 27.313953488372093,
          "velocity": 0.5275590551181102
        },
        {
          "duration": 0.023255813953486637,
          "durationTicks": 2,
          "midi": 34,
          "name": "A#1",
          "ticks": 2350,
          "time": 27.325581395348838,
          "velocity": 0.6141732283464567
        },
        {
          "duration": 0.03488372093023173,
          "durationTicks": 3,
          "midi": 51,
          "name": "D#3",
          "ticks": 2350,
          "time": 27.325581395348838,
          "velocity": 0.5905511811023622
        },
        {
          "duration": 0.023255813953486637,
          "durationTicks": 2,
          "midi": 67,
          "name": "G4",
          "ticks": 2350,
          "time": 27.325581395348838,
          "velocity": 0.2992125984251969
        },
        {
          "duration": 0.03488372093023173,
          "durationTicks": 3,
          "midi": 74,
          "name": "D5",
          "ticks": 2350,
          "time": 27.325581395348838,
          "velocity": 0.16535433070866143
        },
        {
          "duration": 0.023255813953486637,
          "durationTicks": 2,
          "midi": 64,
          "name": "E4",
          "ticks": 2351,
          "time": 27.337209302325583,
          "velocity": 0.31496062992125984
        },
        {
          "duration": 0.011627906976745095,
          "durationTicks": 1,
          "midi": 33,
          "name": "A1",
          "ticks": 2352,
          "time": 27.348837209302324,
          "velocity": 0.5984251968503937
        },
        {
          "duration": 0.011627906976745095,
          "durationTicks": 1,
          "midi": 44,
          "name": "G#2",
          "ticks": 2352,
          "time": 27.348837209302324,
          "velocity": 0.5748031496062992
        },
        {
          "duration": 0.034883720930235285,
          "durationTicks": 3,
          "midi": 70,
          "name": "A#4",
          "ticks": 2352,
          "time": 27.348837209302324,
          "velocity": 0.2047244094488189
        },
        {
          "duration": 0.011627906976745095,
          "durationTicks": 1,
          "midi": 23,
          "name": "B0",
          "ticks": 2353,
          "time": 27.36046511627907,
          "velocity": 0.5354330708661418
        },
        {
          "duration": 0.011627906976745095,
          "durationTicks": 1,
          "midi": 43,
          "name": "G2",
          "ticks": 2353,
          "time": 27.36046511627907,
          "velocity": 0.6299212598425197
        },
        {
          "duration": 0.023255813953486637,
          "durationTicks": 2,
          "midi": 40,
          "name": "E2",
          "ticks": 2354,
          "time": 27.372093023255815,
          "velocity": 0.6614173228346457
        },
        {
          "duration": 0.08139534883720856,
          "durationTicks": 7,
          "midi": 62,
          "name": "D4",
          "ticks": 2354,
          "time": 27.372093023255815,
          "velocity": 0.4015748031496063
        },
        {
          "duration": 0.023255813953486637,
          "durationTicks": 2,
          "midi": 48,
          "name": "C3",
          "ticks": 2355,
          "time": 27.38372093023256,
          "velocity": 0.5275590551181102
        },
        {
          "duration": 0.011627906976745095,
          "durationTicks": 1,
          "midi": 32,
          "name": "G#1",
          "ticks": 2356,
          "time": 27.3953488372093,
          "velocity": 0.6062992125984252
        },
        {
          "duration": 0.011627906976745095,
          "durationTicks": 1,
          "midi": 41,
          "name": "F2",
          "ticks": 2356,
          "time": 27.3953488372093,
          "velocity": 0.5590551181102362
        },
        {
          "duration": 0.011627906976745095,
          "durationTicks": 1,
          "midi": 31,
          "name": "G1",
          "ticks": 2357,
          "time": 27.406976744186046,
          "velocity": 0.6850393700787402
        },
        {
          "duration": 0.011627906976745095,
          "durationTicks": 1,
          "midi": 32,
          "name": "G#1",
          "ticks": 2358,
          "time": 27.41860465116279,
          "velocity": 0.7086614173228346
        },
        {
          "duration": 0.011627906976745095,
          "durationTicks": 1,
          "midi": 42,
          "name": "F#2",
          "ticks": 2358,
          "time": 27.41860465116279,
          "velocity": 0.5511811023622047
        },
        {
          "duration": 0.04651162790697683,
          "durationTicks": 4,
          "midi": 56,
          "name": "G#3",
          "ticks": 2358,
          "time": 27.41860465116279,
          "velocity": 0.44881889763779526
        },
        {
          "duration": 0.011627906976741542,
          "durationTicks": 1,
          "midi": 34,
          "name": "A#1",
          "ticks": 2359,
          "time": 27.430232558139537,
          "velocity": 0.7559055118110236
        },
        {
          "duration": 0.02325581395349019,
          "durationTicks": 2,
          "midi": 36,
          "name": "C2",
          "ticks": 2360,
          "time": 27.441860465116278,
          "velocity": 0.7244094488188977
        },
        {
          "duration": 0.011627906976745095,
          "durationTicks": 1,
          "midi": 34,
          "name": "A#1",
          "ticks": 2362,
          "time": 27.46511627906977,
          "velocity": 0.6692913385826772
        },
        {
          "duration": 0.023255813953486637,
          "durationTicks": 2,
          "midi": 62,
          "name": "D4",
          "ticks": 2362,
          "time": 27.46511627906977,
          "velocity": 0.3228346456692913
        },
        {
          "duration": 0.011627906976741542,
          "durationTicks": 1,
          "midi": 35,
          "name": "B1",
          "ticks": 2363,
          "time": 27.476744186046513,
          "velocity": 0.6929133858267716
        },
        {
          "duration": 0.023255813953486637,
          "durationTicks": 2,
          "midi": 56,
          "name": "G#3",
          "ticks": 2363,
          "time": 27.476744186046513,
          "velocity": 0.3543307086614173
        },
        {
          "duration": 0.011627906976745095,
          "durationTicks": 1,
          "midi": 36,
          "name": "C2",
          "ticks": 2364,
          "time": 27.488372093023255,
          "velocity": 0.6535433070866141
        },
        {
          "duration": 0.011627906976745095,
          "durationTicks": 1,
          "midi": 35,
          "name": "B1",
          "ticks": 2365,
          "time": 27.5,
          "velocity": 0.5669291338582677
        },
        {
          "duration": 0.011627906976741542,
          "durationTicks": 1,
          "midi": 33,
          "name": "A1",
          "ticks": 2366,
          "time": 27.511627906976745,
          "velocity": 0.5984251968503937
        },
        {
          "duration": 0.011627906976745095,
          "durationTicks": 1,
          "midi": 35,
          "name": "B1",
          "ticks": 2367,
          "time": 27.523255813953487,
          "velocity": 0.6299212598425197
        },
        {
          "duration": 0.011627906976745095,
          "durationTicks": 1,
          "midi": 31,
          "name": "G1",
          "ticks": 2368,
          "time": 27.53488372093023,
          "velocity": 0.5590551181102362
        },
        {
          "duration": 0.011627906976745095,
          "durationTicks": 1,
          "midi": 38,
          "name": "D2",
          "ticks": 2368,
          "time": 27.53488372093023,
          "velocity": 0.5354330708661418
        },
        {
          "duration": 0.03488372093023173,
          "durationTicks": 3,
          "midi": 62,
          "name": "D4",
          "ticks": 2368,
          "time": 27.53488372093023,
          "velocity": 0.18110236220472442
        },
        {
          "duration": 0.011627906976745095,
          "durationTicks": 1,
          "midi": 30,
          "name": "F#1",
          "ticks": 2369,
          "time": 27.546511627906977,
          "velocity": 0.5275590551181102
        },
        {
          "duration": 0.011627906976745095,
          "durationTicks": 1,
          "midi": 42,
          "name": "F#2",
          "ticks": 2369,
          "time": 27.546511627906977,
          "velocity": 0.5511811023622047
        },
        {
          "duration": 0.023255813953486637,
          "durationTicks": 2,
          "midi": 29,
          "name": "F1",
          "ticks": 2370,
          "time": 27.558139534883722,
          "velocity": 0.5354330708661418
        },
        {
          "duration": 0.011627906976741542,
          "durationTicks": 1,
          "midi": 41,
          "name": "F2",
          "ticks": 2370,
          "time": 27.558139534883722,
          "velocity": 0.5354330708661418
        },
        {
          "duration": 0.02325581395349019,
          "durationTicks": 2,
          "midi": 48,
          "name": "C3",
          "ticks": 2371,
          "time": 27.569767441860463,
          "velocity": 0.48031496062992124
        },
        {
          "duration": 0.03488372093023173,
          "durationTicks": 3,
          "midi": 31,
          "name": "G1",
          "ticks": 2372,
          "time": 27.58139534883721,
          "velocity": 0.5905511811023622
        },
        {
          "duration": 0.023255813953486637,
          "durationTicks": 2,
          "midi": 55,
          "name": "G3",
          "ticks": 2373,
          "time": 27.593023255813954,
          "velocity": 0.2677165354330709
        },
        {
          "duration": 0.04651162790697683,
          "durationTicks": 4,
          "midi": 64,
          "name": "E4",
          "ticks": 2373,
          "time": 27.593023255813954,
          "velocity": 0.1732283464566929
        },
        {
          "duration": 0.03488372093023173,
          "durationTicks": 3,
          "midi": 78,
          "name": "F#5",
          "ticks": 2373,
          "time": 27.593023255813954,
          "velocity": 0.1968503937007874
        },
        {
          "duration": 0.04651162790697683,
          "durationTicks": 4,
          "midi": 94,
          "name": "A#6",
          "ticks": 2373,
          "time": 27.593023255813954,
          "velocity": 0.18110236220472442
        },
        {
          "duration": 0.05813953488372192,
          "durationTicks": 5,
          "midi": 98,
          "name": "D7",
          "ticks": 2373,
          "time": 27.593023255813954,
          "velocity": 0.2125984251968504
        },
        {
          "duration": 0.03488372093023173,
          "durationTicks": 3,
          "midi": 83,
          "name": "B5",
          "ticks": 2374,
          "time": 27.6046511627907,
          "velocity": 0.2047244094488189
        },
        {
          "duration": 0.03488372093023173,
          "durationTicks": 3,
          "midi": 87,
          "name": "D#6",
          "ticks": 2374,
          "time": 27.6046511627907,
          "velocity": 0.16535433070866143
        },
        {
          "duration": 0.06976744186046346,
          "durationTicks": 6,
          "midi": 89,
          "name": "F6",
          "ticks": 2374,
          "time": 27.6046511627907,
          "velocity": 0.2440944881889764
        },
        {
          "duration": 0.04651162790697683,
          "durationTicks": 4,
          "midi": 92,
          "name": "G#6",
          "ticks": 2374,
          "time": 27.6046511627907,
          "velocity": 0.11023622047244094
        },
        {
          "duration": 0.06976744186046346,
          "durationTicks": 6,
          "midi": 93,
          "name": "A6",
          "ticks": 2374,
          "time": 27.6046511627907,
          "velocity": 0.10236220472440945
        },
        {
          "duration": 0.03488372093023173,
          "durationTicks": 3,
          "midi": 96,
          "name": "C7",
          "ticks": 2374,
          "time": 27.6046511627907,
          "velocity": 0.1732283464566929
        },
        {
          "duration": 0.04651162790697683,
          "durationTicks": 4,
          "midi": 97,
          "name": "C#7",
          "ticks": 2374,
          "time": 27.6046511627907,
          "velocity": 0.1732283464566929
        },
        {
          "duration": 0.05813953488371837,
          "durationTicks": 5,
          "midi": 99,
          "name": "D#7",
          "ticks": 2374,
          "time": 27.6046511627907,
          "velocity": 0.16535433070866143
        },
        {
          "duration": 0.05813953488371837,
          "durationTicks": 5,
          "midi": 100,
          "name": "E7",
          "ticks": 2374,
          "time": 27.6046511627907,
          "velocity": 0.1968503937007874
        },
        {
          "duration": 0.03488372093023173,
          "durationTicks": 3,
          "midi": 103,
          "name": "G7",
          "ticks": 2374,
          "time": 27.6046511627907,
          "velocity": 0.10236220472440945
        },
        {
          "duration": 0.011627906976745095,
          "durationTicks": 1,
          "midi": 29,
          "name": "F1",
          "ticks": 2375,
          "time": 27.61627906976744,
          "velocity": 0.5354330708661418
        },
        {
          "duration": 0.02325581395349019,
          "durationTicks": 2,
          "midi": 40,
          "name": "E2",
          "ticks": 2375,
          "time": 27.61627906976744,
          "velocity": 0.5590551181102362
        },
        {
          "duration": 0.02325581395349019,
          "durationTicks": 2,
          "midi": 56,
          "name": "G#3",
          "ticks": 2375,
          "time": 27.61627906976744,
          "velocity": 0.29133858267716534
        },
        {
          "duration": 0.02325581395349019,
          "durationTicks": 2,
          "midi": 60,
          "name": "C4",
          "ticks": 2375,
          "time": 27.61627906976744,
          "velocity": 0.2440944881889764
        },
        {
          "duration": 0.05813953488372192,
          "durationTicks": 5,
          "midi": 79,
          "name": "G5",
          "ticks": 2375,
          "time": 27.61627906976744,
          "velocity": 0.07874015748031496
        },
        {
          "duration": 0.011627906976745095,
          "durationTicks": 1,
          "midi": 28,
          "name": "E1",
          "ticks": 2376,
          "time": 27.627906976744185,
          "velocity": 0.5590551181102362
        },
        {
          "duration": 0.05813953488372192,
          "durationTicks": 5,
          "midi": 85,
          "name": "C#6",
          "ticks": 2376,
          "time": 27.627906976744185,
          "velocity": 0.11811023622047244
        },
        {
          "duration": 0.011627906976745095,
          "durationTicks": 1,
          "midi": 30,
          "name": "F#1",
          "ticks": 2377,
          "time": 27.63953488372093,
          "velocity": 0.5984251968503937
        },
        {
          "duration": 0.023255813953486637,
          "durationTicks": 2,
          "midi": 57,
          "name": "A3",
          "ticks": 2377,
          "time": 27.63953488372093,
          "velocity": 0.30708661417322836
        },
        {
          "duration": 0.03488372093023173,
          "durationTicks": 3,
          "midi": 84,
          "name": "C6",
          "ticks": 2377,
          "time": 27.63953488372093,
          "velocity": 0.14173228346456693
        },
        {
          "duration": 0.04651162790697683,
          "durationTicks": 4,
          "midi": 90,
          "name": "F#6",
          "ticks": 2377,
          "time": 27.63953488372093,
          "velocity": 0.10236220472440945
        },
        {
          "duration": 0.011627906976741542,
          "durationTicks": 1,
          "midi": 32,
          "name": "G#1",
          "ticks": 2378,
          "time": 27.651162790697676,
          "velocity": 0.5984251968503937
        },
        {
          "duration": 0.011627906976745095,
          "durationTicks": 1,
          "midi": 34,
          "name": "A#1",
          "ticks": 2379,
          "time": 27.662790697674417,
          "velocity": 0.6062992125984252
        },
        {
          "duration": 0.09302325581395365,
          "durationTicks": 8,
          "midi": 62,
          "name": "D4",
          "ticks": 2379,
          "time": 27.662790697674417,
          "velocity": 0.29133858267716534
        },
        {
          "duration": 0.011627906976745095,
          "durationTicks": 1,
          "midi": 35,
          "name": "B1",
          "ticks": 2383,
          "time": 27.709302325581394,
          "velocity": 0.5590551181102362
        },
        {
          "duration": 0.034883720930235285,
          "durationTicks": 3,
          "midi": 50,
          "name": "D3",
          "ticks": 2383,
          "time": 27.709302325581394,
          "velocity": 0.3543307086614173
        },
        {
          "duration": 0.011627906976745095,
          "durationTicks": 1,
          "midi": 31,
          "name": "G1",
          "ticks": 2384,
          "time": 27.72093023255814,
          "velocity": 0.5275590551181102
        },
        {
          "duration": 0.023255813953486637,
          "durationTicks": 2,
          "midi": 30,
          "name": "F#1",
          "ticks": 2385,
          "time": 27.732558139534884,
          "velocity": 0.5039370078740157
        },
        {
          "duration": 0.03488372093023173,
          "durationTicks": 3,
          "midi": 93,
          "name": "A6",
          "ticks": 2385,
          "time": 27.732558139534884,
          "velocity": 0.09448818897637795
        },
        {
          "duration": 0.04651162790697683,
          "durationTicks": 4,
          "midi": 99,
          "name": "D#7",
          "ticks": 2385,
          "time": 27.732558139534884,
          "velocity": 0.14960629921259844
        },
        {
          "duration": 0.03488372093023173,
          "durationTicks": 3,
          "midi": 100,
          "name": "E7",
          "ticks": 2385,
          "time": 27.732558139534884,
          "velocity": 0.18110236220472442
        },
        {
          "duration": 0.011627906976741542,
          "durationTicks": 1,
          "midi": 41,
          "name": "F2",
          "ticks": 2386,
          "time": 27.74418604651163,
          "velocity": 0.5511811023622047
        },
        {
          "duration": 0.011627906976745095,
          "durationTicks": 1,
          "midi": 36,
          "name": "C2",
          "ticks": 2387,
          "time": 27.75581395348837,
          "velocity": 0.5905511811023622
        },
        {
          "duration": 0.011627906976745095,
          "durationTicks": 1,
          "midi": 40,
          "name": "E2",
          "ticks": 2388,
          "time": 27.767441860465116,
          "velocity": 0.5590551181102362
        },
        {
          "duration": 0.011627906976745095,
          "durationTicks": 1,
          "midi": 41,
          "name": "F2",
          "ticks": 2389,
          "time": 27.77906976744186,
          "velocity": 0.5196850393700787
        },
        {
          "duration": 0.011627906976745095,
          "durationTicks": 1,
          "midi": 31,
          "name": "G1",
          "ticks": 2391,
          "time": 27.802325581395348,
          "velocity": 0.5590551181102362
        },
        {
          "duration": 0.011627906976745095,
          "durationTicks": 1,
          "midi": 36,
          "name": "C2",
          "ticks": 2392,
          "time": 27.813953488372093,
          "velocity": 0.5748031496062992
        },
        {
          "duration": 0.011627906976745095,
          "durationTicks": 1,
          "midi": 35,
          "name": "B1",
          "ticks": 2395,
          "time": 27.848837209302324,
          "velocity": 0.5275590551181102
        },
        {
          "duration": 0.011627906976745095,
          "durationTicks": 1,
          "midi": 36,
          "name": "C2",
          "ticks": 2396,
          "time": 27.86046511627907,
          "velocity": 0.5905511811023622
        },
        {
          "duration": 0.011627906976745095,
          "durationTicks": 1,
          "midi": 34,
          "name": "A#1",
          "ticks": 2397,
          "time": 27.872093023255815,
          "velocity": 0.5511811023622047
        },
        {
          "duration": 0.023255813953486637,
          "durationTicks": 2,
          "midi": 44,
          "name": "G#2",
          "ticks": 2397,
          "time": 27.872093023255815,
          "velocity": 0.5826771653543307
        },
        {
          "duration": 0.023255813953486637,
          "durationTicks": 2,
          "midi": 64,
          "name": "E4",
          "ticks": 2397,
          "time": 27.872093023255815,
          "velocity": 0.33858267716535434
        },
        {
          "duration": 0.08139534883720856,
          "durationTicks": 7,
          "midi": 78,
          "name": "F#5",
          "ticks": 2397,
          "time": 27.872093023255815,
          "velocity": 0.18110236220472442
        },
        {
          "duration": 0.03488372093023173,
          "durationTicks": 3,
          "midi": 80,
          "name": "G#5",
          "ticks": 2397,
          "time": 27.872093023255815,
          "velocity": 0.13385826771653545
        },
        {
          "duration": 0.04651162790697683,
          "durationTicks": 4,
          "midi": 83,
          "name": "B5",
          "ticks": 2397,
          "time": 27.872093023255815,
          "velocity": 0.2125984251968504
        },
        {
          "duration": 0.06976744186046346,
          "durationTicks": 6,
          "midi": 87,
          "name": "D#6",
          "ticks": 2397,
          "time": 27.872093023255815,
          "velocity": 0.18110236220472442
        },
        {
          "duration": 0.06976744186046346,
          "durationTicks": 6,
          "midi": 89,
          "name": "F6",
          "ticks": 2397,
          "time": 27.872093023255815,
          "velocity": 0.2283464566929134
        },
        {
          "duration": 0.03488372093023173,
          "durationTicks": 3,
          "midi": 94,
          "name": "A#6",
          "ticks": 2397,
          "time": 27.872093023255815,
          "velocity": 0.15748031496062992
        },
        {
          "duration": 0.05813953488372192,
          "durationTicks": 5,
          "midi": 98,
          "name": "D7",
          "ticks": 2397,
          "time": 27.872093023255815,
          "velocity": 0.2125984251968504
        },
        {
          "duration": 0.04651162790697683,
          "durationTicks": 4,
          "midi": 100,
          "name": "E7",
          "ticks": 2397,
          "time": 27.872093023255815,
          "velocity": 0.1889763779527559
        },
        {
          "duration": 0.03488372093023173,
          "durationTicks": 3,
          "midi": 103,
          "name": "G7",
          "ticks": 2397,
          "time": 27.872093023255815,
          "velocity": 0.11811023622047244
        },
        {
          "duration": 0.023255813953486637,
          "durationTicks": 2,
          "midi": 57,
          "name": "A3",
          "ticks": 2398,
          "time": 27.88372093023256,
          "velocity": 0.4330708661417323
        },
        {
          "duration": 0.04651162790697683,
          "durationTicks": 4,
          "midi": 97,
          "name": "C#7",
          "ticks": 2398,
          "time": 27.88372093023256,
          "velocity": 0.1732283464566929
        },
        {
          "duration": 0.011627906976745095,
          "durationTicks": 1,
          "midi": 29,
          "name": "F1",
          "ticks": 2399,
          "time": 27.8953488372093,
          "velocity": 0.5511811023622047
        },
        {
          "duration": 0.02325581395349019,
          "durationTicks": 2,
          "midi": 41,
          "name": "F2",
          "ticks": 2399,
          "time": 27.8953488372093,
          "velocity": 0.6692913385826772
        },
        {
          "duration": 0.02325581395349019,
          "durationTicks": 2,
          "midi": 63,
          "name": "D#4",
          "ticks": 2399,
          "time": 27.8953488372093,
          "velocity": 0.3858267716535433
        },
        {
          "duration": 0.02325581395349019,
          "durationTicks": 2,
          "midi": 67,
          "name": "G4",
          "ticks": 2399,
          "time": 27.8953488372093,
          "velocity": 0.25196850393700787
        },
        {
          "duration": 0.04651162790697683,
          "durationTicks": 4,
          "midi": 93,
          "name": "A6",
          "ticks": 2400,
          "time": 27.906976744186046,
          "velocity": 0.10236220472440945
        },
        {
          "duration": 0.011627906976745095,
          "durationTicks": 1,
          "midi": 36,
          "name": "C2",
          "ticks": 2401,
          "time": 27.91860465116279,
          "velocity": 0.6062992125984252
        },
        {
          "duration": 0.08139534883720856,
          "durationTicks": 7,
          "midi": 62,
          "name": "D4",
          "ticks": 2401,
          "time": 27.91860465116279,
          "velocity": 0.3228346456692913
        },
        {
          "duration": 0.03488372093023173,
          "durationTicks": 3,
          "midi": 84,
          "name": "C6",
          "ticks": 2401,
          "time": 27.91860465116279,
          "velocity": 0.14960629921259844
        },
        {
          "duration": 0.011627906976741542,
          "durationTicks": 1,
          "midi": 34,
          "name": "A#1",
          "ticks": 2402,
          "time": 27.930232558139537,
          "velocity": 0.5590551181102362
        },
        {
          "duration": 0.02325581395349019,
          "durationTicks": 2,
          "midi": 36,
          "name": "C2",
          "ticks": 2403,
          "time": 27.941860465116278,
          "velocity": 0.7007874015748031
        },
        {
          "duration": 0.023255813953486637,
          "durationTicks": 2,
          "midi": 35,
          "name": "B1",
          "ticks": 2405,
          "time": 27.96511627906977,
          "velocity": 0.7165354330708661
        },
        {
          "duration": 0.023255813953486637,
          "durationTicks": 2,
          "midi": 54,
          "name": "F#3",
          "ticks": 2405,
          "time": 27.96511627906977,
          "velocity": 0.33070866141732286
        },
        {
          "duration": 0.011627906976745095,
          "durationTicks": 1,
          "midi": 36,
          "name": "C2",
          "ticks": 2407,
          "time": 27.988372093023255,
          "velocity": 0.7086614173228346
        },
        {
          "duration": 0.023255813953486637,
          "durationTicks": 2,
          "midi": 35,
          "name": "B1",
          "ticks": 2408,
          "time": 28,
          "velocity": 0.6850393700787402
        },
        {
          "duration": 0.023255813953486637,
          "durationTicks": 2,
          "midi": 55,
          "name": "G3",
          "ticks": 2408,
          "time": 28,
          "velocity": 0.23622047244094488
        },
        {
          "duration": 0.03488372093023173,
          "durationTicks": 3,
          "midi": 97,
          "name": "C#7",
          "ticks": 2408,
          "time": 28,
          "velocity": 0.14960629921259844
        },
        {
          "duration": 0.03488372093023173,
          "durationTicks": 3,
          "midi": 100,
          "name": "E7",
          "ticks": 2408,
          "time": 28,
          "velocity": 0.1889763779527559
        },
        {
          "duration": 0.03488372093023173,
          "durationTicks": 3,
          "midi": 101,
          "name": "F7",
          "ticks": 2408,
          "time": 28,
          "velocity": 0.1732283464566929
        },
        {
          "duration": 0.04651162790697683,
          "durationTicks": 4,
          "midi": 62,
          "name": "D4",
          "ticks": 2409,
          "time": 28.011627906976745,
          "velocity": 0.1732283464566929
        },
        {
          "duration": 0.04651162790697683,
          "durationTicks": 4,
          "midi": 99,
          "name": "D#7",
          "ticks": 2409,
          "time": 28.011627906976745,
          "velocity": 0.14960629921259844
        },
        {
          "duration": 0.04651162790697683,
          "durationTicks": 4,
          "midi": 36,
          "name": "C2",
          "ticks": 2410,
          "time": 28.023255813953487,
          "velocity": 0.6850393700787402
        },
        {
          "duration": 0.034883720930235285,
          "durationTicks": 3,
          "midi": 35,
          "name": "B1",
          "ticks": 2414,
          "time": 28.069767441860463,
          "velocity": 0.5511811023622047
        },
        {
          "duration": 0.02325581395349019,
          "durationTicks": 2,
          "midi": 48,
          "name": "C3",
          "ticks": 2414,
          "time": 28.069767441860463,
          "velocity": 0.2992125984251969
        },
        {
          "duration": 0.04651162790697683,
          "durationTicks": 4,
          "midi": 78,
          "name": "F#5",
          "ticks": 2420,
          "time": 28.13953488372093,
          "velocity": 0.2204724409448819
        },
        {
          "duration": 0.03488372093023173,
          "durationTicks": 3,
          "midi": 87,
          "name": "D#6",
          "ticks": 2420,
          "time": 28.13953488372093,
          "velocity": 0.2125984251968504
        },
        {
          "duration": 0.08139534883720856,
          "durationTicks": 7,
          "midi": 91,
          "name": "G6",
          "ticks": 2420,
          "time": 28.13953488372093,
          "velocity": 0.1889763779527559
        },
        {
          "duration": 0.08139534883720856,
          "durationTicks": 7,
          "midi": 92,
          "name": "G#6",
          "ticks": 2420,
          "time": 28.13953488372093,
          "velocity": 0.28346456692913385
        },
        {
          "duration": 0.05813953488372192,
          "durationTicks": 5,
          "midi": 94,
          "name": "A#6",
          "ticks": 2420,
          "time": 28.13953488372093,
          "velocity": 0.2755905511811024
        },
        {
          "duration": 0.06976744186046346,
          "durationTicks": 6,
          "midi": 98,
          "name": "D7",
          "ticks": 2420,
          "time": 28.13953488372093,
          "velocity": 0.1889763779527559
        },
        {
          "duration": 0.06976744186046346,
          "durationTicks": 6,
          "midi": 100,
          "name": "E7",
          "ticks": 2420,
          "time": 28.13953488372093,
          "velocity": 0.2047244094488189
        },
        {
          "duration": 0.08139534883720856,
          "durationTicks": 7,
          "midi": 101,
          "name": "F7",
          "ticks": 2420,
          "time": 28.13953488372093,
          "velocity": 0.14960629921259844
        },
        {
          "duration": 0.023255813953486637,
          "durationTicks": 2,
          "midi": 42,
          "name": "F#2",
          "ticks": 2421,
          "time": 28.151162790697676,
          "velocity": 0.5196850393700787
        },
        {
          "duration": 0.03488372093023173,
          "durationTicks": 3,
          "midi": 51,
          "name": "D#3",
          "ticks": 2421,
          "time": 28.151162790697676,
          "velocity": 0.2992125984251969
        },
        {
          "duration": 0.03488372093023173,
          "durationTicks": 3,
          "midi": 56,
          "name": "G#3",
          "ticks": 2421,
          "time": 28.151162790697676,
          "velocity": 0.28346456692913385
        },
        {
          "duration": 0.03488372093023173,
          "durationTicks": 3,
          "midi": 86,
          "name": "D6",
          "ticks": 2421,
          "time": 28.151162790697676,
          "velocity": 0.25196850393700787
        },
        {
          "duration": 0.11627906976744029,
          "durationTicks": 10,
          "midi": 89,
          "name": "F6",
          "ticks": 2421,
          "time": 28.151162790697676,
          "velocity": 0.29133858267716534
        },
        {
          "duration": 0.023255813953486637,
          "durationTicks": 2,
          "midi": 93,
          "name": "A6",
          "ticks": 2421,
          "time": 28.151162790697676,
          "velocity": 0.2755905511811024
        },
        {
          "duration": 0.05813953488371837,
          "durationTicks": 5,
          "midi": 96,
          "name": "C7",
          "ticks": 2421,
          "time": 28.151162790697676,
          "velocity": 0.12598425196850394
        },
        {
          "duration": 0.06976744186046346,
          "durationTicks": 6,
          "midi": 97,
          "name": "C#7",
          "ticks": 2421,
          "time": 28.151162790697676,
          "velocity": 0.1732283464566929
        },
        {
          "duration": 0.06976744186046346,
          "durationTicks": 6,
          "midi": 102,
          "name": "F#7",
          "ticks": 2421,
          "time": 28.151162790697676,
          "velocity": 0.11811023622047244
        },
        {
          "duration": 0.02325581395349019,
          "durationTicks": 2,
          "midi": 60,
          "name": "C4",
          "ticks": 2422,
          "time": 28.162790697674417,
          "velocity": 0.3228346456692913
        },
        {
          "duration": 0.034883720930235285,
          "durationTicks": 3,
          "midi": 79,
          "name": "G5",
          "ticks": 2422,
          "time": 28.162790697674417,
          "velocity": 0.12598425196850394
        },
        {
          "duration": 0.08139534883721211,
          "durationTicks": 7,
          "midi": 85,
          "name": "C#6",
          "ticks": 2422,
          "time": 28.162790697674417,
          "velocity": 0.2677165354330709
        },
        {
          "duration": 0.011627906976745095,
          "durationTicks": 1,
          "midi": 40,
          "name": "E2",
          "ticks": 2423,
          "time": 28.174418604651162,
          "velocity": 0.6062992125984252
        },
        {
          "duration": 0.011627906976745095,
          "durationTicks": 1,
          "midi": 37,
          "name": "C#2",
          "ticks": 2424,
          "time": 28.186046511627907,
          "velocity": 0.5984251968503937
        },
        {
          "duration": 0.05813953488372192,
          "durationTicks": 5,
          "midi": 77,
          "name": "F5",
          "ticks": 2424,
          "time": 28.186046511627907,
          "velocity": 0.14960629921259844
        },
        {
          "duration": 0.03488372093023173,
          "durationTicks": 3,
          "midi": 82,
          "name": "A#5",
          "ticks": 2424,
          "time": 28.186046511627907,
          "velocity": 0.11023622047244094
        },
        {
          "duration": 0.03488372093023173,
          "durationTicks": 3,
          "midi": 84,
          "name": "C6",
          "ticks": 2424,
          "time": 28.186046511627907,
          "velocity": 0.15748031496062992
        },
        {
          "duration": 0.011627906976741542,
          "durationTicks": 1,
          "midi": 34,
          "name": "A#1",
          "ticks": 2425,
          "time": 28.197674418604652,
          "velocity": 0.5511811023622047
        },
        {
          "duration": 0.023255813953486637,
          "durationTicks": 2,
          "midi": 56,
          "name": "G#3",
          "ticks": 2425,
          "time": 28.197674418604652,
          "velocity": 0.33858267716535434
        },
        {
          "duration": 0.011627906976745095,
          "durationTicks": 1,
          "midi": 32,
          "name": "G#1",
          "ticks": 2426,
          "time": 28.209302325581394,
          "velocity": 0.6062992125984252
        },
        {
          "duration": 0.05813953488372192,
          "durationTicks": 5,
          "midi": 93,
          "name": "A6",
          "ticks": 2426,
          "time": 28.209302325581394,
          "velocity": 0.10236220472440945
        },
        {
          "duration": 0.04651162790697683,
          "durationTicks": 4,
          "midi": 36,
          "name": "C2",
          "ticks": 2427,
          "time": 28.22093023255814,
          "velocity": 0.6535433070866141
        },
        {
          "duration": 0.02325581395349019,
          "durationTicks": 2,
          "midi": 57,
          "name": "A3",
          "ticks": 2427,
          "time": 28.22093023255814,
          "velocity": 0.33070866141732286
        },
        {
          "duration": 0.03488372093023173,
          "durationTicks": 3,
          "midi": 62,
          "name": "D4",
          "ticks": 2427,
          "time": 28.22093023255814,
          "velocity": 0.25984251968503935
        },
        {
          "duration": 0.011627906976745095,
          "durationTicks": 1,
          "midi": 35,
          "name": "B1",
          "ticks": 2431,
          "time": 28.267441860465116,
          "velocity": 0.6377952755905512
        },
        {
          "duration": 0.011627906976745095,
          "durationTicks": 1,
          "midi": 34,
          "name": "A#1",
          "ticks": 2432,
          "time": 28.27906976744186,
          "velocity": 0.5748031496062992
        },
        {
          "duration": 0.03488372093023173,
          "durationTicks": 3,
          "midi": 93,
          "name": "A6",
          "ticks": 2432,
          "time": 28.27906976744186,
          "velocity": 0.14173228346456693
        },
        {
          "duration": 0.04651162790697683,
          "durationTicks": 4,
          "midi": 99,
          "name": "D#7",
          "ticks": 2432,
          "time": 28.27906976744186,
          "velocity": 0.13385826771653545
        },
        {
          "duration": 0.03488372093023173,
          "durationTicks": 3,
          "midi": 100,
          "name": "E7",
          "ticks": 2432,
          "time": 28.27906976744186,
          "velocity": 0.18110236220472442
        },
        {
          "duration": 0.023255813953486637,
          "durationTicks": 2,
          "midi": 38,
          "name": "D2",
          "ticks": 2433,
          "time": 28.290697674418606,
          "velocity": 0.5905511811023622
        },
        {
          "duration": 0.023255813953486637,
          "durationTicks": 2,
          "midi": 55,
          "name": "G3",
          "ticks": 2433,
          "time": 28.290697674418606,
          "velocity": 0.2440944881889764
        },
        {
          "duration": 0.011627906976745095,
          "durationTicks": 1,
          "midi": 35,
          "name": "B1",
          "ticks": 2435,
          "time": 28.313953488372093,
          "velocity": 0.5590551181102362
        },
        {
          "duration": 0.011627906976745095,
          "durationTicks": 1,
          "midi": 32,
          "name": "G#1",
          "ticks": 2436,
          "time": 28.325581395348838,
          "velocity": 0.5118110236220472
        },
        {
          "duration": 0.011627906976745095,
          "durationTicks": 1,
          "midi": 35,
          "name": "B1",
          "ticks": 2440,
          "time": 28.372093023255815,
          "velocity": 0.5590551181102362
        },
        {
          "duration": 0.011627906976745095,
          "durationTicks": 1,
          "midi": 32,
          "name": "G#1",
          "ticks": 2443,
          "time": 28.406976744186046,
          "velocity": 0.5196850393700787
        },
        {
          "duration": 0.02325581395349019,
          "durationTicks": 2,
          "midi": 60,
          "name": "C4",
          "ticks": 2443,
          "time": 28.406976744186046,
          "velocity": 0.4015748031496063
        },
        {
          "duration": 0.02325581395349019,
          "durationTicks": 2,
          "midi": 65,
          "name": "F4",
          "ticks": 2443,
          "time": 28.406976744186046,
          "velocity": 0.2755905511811024
        },
        {
          "duration": 0.011627906976745095,
          "durationTicks": 1,
          "midi": 33,
          "name": "A1",
          "ticks": 2444,
          "time": 28.41860465116279,
          "velocity": 0.5905511811023622
        },
        {
          "duration": 0.03488372093023173,
          "durationTicks": 3,
          "midi": 51,
          "name": "D#3",
          "ticks": 2444,
          "time": 28.41860465116279,
          "velocity": 0.5905511811023622
        },
        {
          "duration": 0.03488372093023173,
          "durationTicks": 3,
          "midi": 74,
          "name": "D5",
          "ticks": 2444,
          "time": 28.41860465116279,
          "velocity": 0.18110236220472442
        },
        {
          "duration": 0.011627906976741542,
          "durationTicks": 1,
          "midi": 34,
          "name": "A#1",
          "ticks": 2445,
          "time": 28.430232558139537,
          "velocity": 0.6062992125984252
        },
        {
          "duration": 0.023255813953486637,
          "durationTicks": 2,
          "midi": 64,
          "name": "E4",
          "ticks": 2445,
          "time": 28.430232558139537,
          "velocity": 0.33070866141732286
        },
        {
          "duration": 0.011627906976745095,
          "durationTicks": 1,
          "midi": 33,
          "name": "A1",
          "ticks": 2446,
          "time": 28.441860465116278,
          "velocity": 0.5905511811023622
        },
        {
          "duration": 0.011627906976745095,
          "durationTicks": 1,
          "midi": 44,
          "name": "G#2",
          "ticks": 2446,
          "time": 28.441860465116278,
          "velocity": 0.5748031496062992
        },
        {
          "duration": 0.034883720930235285,
          "durationTicks": 3,
          "midi": 70,
          "name": "A#4",
          "ticks": 2446,
          "time": 28.441860465116278,
          "velocity": 0.2047244094488189
        },
        {
          "duration": 0.011627906976745095,
          "durationTicks": 1,
          "midi": 21,
          "name": "A0",
          "ticks": 2447,
          "time": 28.453488372093023,
          "velocity": 0.5433070866141733
        },
        {
          "duration": 0.011627906976745095,
          "durationTicks": 1,
          "midi": 43,
          "name": "G2",
          "ticks": 2447,
          "time": 28.453488372093023,
          "velocity": 0.6299212598425197
        },
        {
          "duration": 0.023255813953486637,
          "durationTicks": 2,
          "midi": 40,
          "name": "E2",
          "ticks": 2448,
          "time": 28.46511627906977,
          "velocity": 0.6535433070866141
        },
        {
          "duration": 0.08139534883720856,
          "durationTicks": 7,
          "midi": 62,
          "name": "D4",
          "ticks": 2448,
          "time": 28.46511627906977,
          "velocity": 0.4094488188976378
        },
        {
          "duration": 0.011627906976741542,
          "durationTicks": 1,
          "midi": 48,
          "name": "C3",
          "ticks": 2449,
          "time": 28.476744186046513,
          "velocity": 0.5354330708661418
        },
        {
          "duration": 0.011627906976745095,
          "durationTicks": 1,
          "midi": 32,
          "name": "G#1",
          "ticks": 2450,
          "time": 28.488372093023255,
          "velocity": 0.6141732283464567
        },
        {
          "duration": 0.011627906976745095,
          "durationTicks": 1,
          "midi": 41,
          "name": "F2",
          "ticks": 2450,
          "time": 28.488372093023255,
          "velocity": 0.5826771653543307
        },
        {
          "duration": 0.011627906976745095,
          "durationTicks": 1,
          "midi": 31,
          "name": "G1",
          "ticks": 2451,
          "time": 28.5,
          "velocity": 0.6929133858267716
        },
        {
          "duration": 0.03488372093023173,
          "durationTicks": 3,
          "midi": 70,
          "name": "A#4",
          "ticks": 2451,
          "time": 28.5,
          "velocity": 0.10236220472440945
        },
        {
          "duration": 0.011627906976741542,
          "durationTicks": 1,
          "midi": 32,
          "name": "G#1",
          "ticks": 2452,
          "time": 28.511627906976745,
          "velocity": 0.7244094488188977
        },
        {
          "duration": 0.011627906976741542,
          "durationTicks": 1,
          "midi": 43,
          "name": "G2",
          "ticks": 2452,
          "time": 28.511627906976745,
          "velocity": 0.5669291338582677
        },
        {
          "duration": 0.04651162790697683,
          "durationTicks": 4,
          "midi": 56,
          "name": "G#3",
          "ticks": 2452,
          "time": 28.511627906976745,
          "velocity": 0.4566929133858268
        },
        {
          "duration": 0.011627906976745095,
          "durationTicks": 1,
          "midi": 34,
          "name": "A#1",
          "ticks": 2453,
          "time": 28.523255813953487,
          "velocity": 0.7637795275590551
        },
        {
          "duration": 0.02325581395349019,
          "durationTicks": 2,
          "midi": 36,
          "name": "C2",
          "ticks": 2454,
          "time": 28.53488372093023,
          "velocity": 0.7322834645669292
        },
        {
          "duration": 0.011627906976741542,
          "durationTicks": 1,
          "midi": 34,
          "name": "A#1",
          "ticks": 2456,
          "time": 28.558139534883722,
          "velocity": 0.6771653543307087
        },
        {
          "duration": 0.023255813953486637,
          "durationTicks": 2,
          "midi": 62,
          "name": "D4",
          "ticks": 2456,
          "time": 28.558139534883722,
          "velocity": 0.3228346456692913
        },
        {
          "duration": 0.011627906976745095,
          "durationTicks": 1,
          "midi": 35,
          "name": "B1",
          "ticks": 2457,
          "time": 28.569767441860463,
          "velocity": 0.7007874015748031
        },
        {
          "duration": 0.02325581395349019,
          "durationTicks": 2,
          "midi": 56,
          "name": "G#3",
          "ticks": 2457,
          "time": 28.569767441860463,
          "velocity": 0.36220472440944884
        },
        {
          "duration": 0.011627906976745095,
          "durationTicks": 1,
          "midi": 36,
          "name": "C2",
          "ticks": 2458,
          "time": 28.58139534883721,
          "velocity": 0.6692913385826772
        },
        {
          "duration": 0.011627906976745095,
          "durationTicks": 1,
          "midi": 50,
          "name": "D3",
          "ticks": 2458,
          "time": 28.58139534883721,
          "velocity": 0.5118110236220472
        },
        {
          "duration": 0.011627906976745095,
          "durationTicks": 1,
          "midi": 35,
          "name": "B1",
          "ticks": 2459,
          "time": 28.593023255813954,
          "velocity": 0.5905511811023622
        },
        {
          "duration": 0.011627906976741542,
          "durationTicks": 1,
          "midi": 33,
          "name": "A1",
          "ticks": 2460,
          "time": 28.6046511627907,
          "velocity": 0.6220472440944882
        },
        {
          "duration": 0.011627906976745095,
          "durationTicks": 1,
          "midi": 35,
          "name": "B1",
          "ticks": 2461,
          "time": 28.61627906976744,
          "velocity": 0.6377952755905512
        },
        {
          "duration": 0.02325581395349019,
          "durationTicks": 2,
          "midi": 31,
          "name": "G1",
          "ticks": 2462,
          "time": 28.627906976744185,
          "velocity": 0.5669291338582677
        },
        {
          "duration": 0.011627906976745095,
          "durationTicks": 1,
          "midi": 38,
          "name": "D2",
          "ticks": 2462,
          "time": 28.627906976744185,
          "velocity": 0.5354330708661418
        },
        {
          "duration": 0.03488372093023173,
          "durationTicks": 3,
          "midi": 62,
          "name": "D4",
          "ticks": 2462,
          "time": 28.627906976744185,
          "velocity": 0.18110236220472442
        },
        {
          "duration": 0.011627906976745095,
          "durationTicks": 1,
          "midi": 42,
          "name": "F#2",
          "ticks": 2463,
          "time": 28.63953488372093,
          "velocity": 0.5590551181102362
        },
        {
          "duration": 0.023255813953486637,
          "durationTicks": 2,
          "midi": 29,
          "name": "F1",
          "ticks": 2464,
          "time": 28.651162790697676,
          "velocity": 0.5354330708661418
        },
        {
          "duration": 0.011627906976741542,
          "durationTicks": 1,
          "midi": 41,
          "name": "F2",
          "ticks": 2464,
          "time": 28.651162790697676,
          "velocity": 0.5511811023622047
        },
        {
          "duration": 0.02325581395349019,
          "durationTicks": 2,
          "midi": 48,
          "name": "C3",
          "ticks": 2465,
          "time": 28.662790697674417,
          "velocity": 0.48031496062992124
        },
        {
          "duration": 0.03488372093023173,
          "durationTicks": 3,
          "midi": 31,
          "name": "G1",
          "ticks": 2466,
          "time": 28.674418604651162,
          "velocity": 0.5905511811023622
        },
        {
          "duration": 0.023255813953486637,
          "durationTicks": 2,
          "midi": 55,
          "name": "G3",
          "ticks": 2467,
          "time": 28.686046511627907,
          "velocity": 0.25984251968503935
        },
        {
          "duration": 0.011627906976745095,
          "durationTicks": 1,
          "midi": 29,
          "name": "F1",
          "ticks": 2469,
          "time": 28.709302325581394,
          "velocity": 0.5354330708661418
        },
        {
          "duration": 0.011627906976745095,
          "durationTicks": 1,
          "midi": 41,
          "name": "F2",
          "ticks": 2469,
          "time": 28.709302325581394,
          "velocity": 0.5511811023622047
        },
        {
          "duration": 0.05813953488372192,
          "durationTicks": 5,
          "midi": 56,
          "name": "G#3",
          "ticks": 2469,
          "time": 28.709302325581394,
          "velocity": 0.33070866141732286
        },
        {
          "duration": 0.011627906976745095,
          "durationTicks": 1,
          "midi": 28,
          "name": "E1",
          "ticks": 2470,
          "time": 28.72093023255814,
          "velocity": 0.5590551181102362
        },
        {
          "duration": 0.02325581395349019,
          "durationTicks": 2,
          "midi": 61,
          "name": "C#4",
          "ticks": 2470,
          "time": 28.72093023255814,
          "velocity": 0.23622047244094488
        },
        {
          "duration": 0.011627906976745095,
          "durationTicks": 1,
          "midi": 30,
          "name": "F#1",
          "ticks": 2471,
          "time": 28.732558139534884,
          "velocity": 0.5984251968503937
        },
        {
          "duration": 0.011627906976741542,
          "durationTicks": 1,
          "midi": 32,
          "name": "G#1",
          "ticks": 2472,
          "time": 28.74418604651163,
          "velocity": 0.6141732283464567
        },
        {
          "duration": 0.12790697674418539,
          "durationTicks": 11,
          "midi": 62,
          "name": "D4",
          "ticks": 2472,
          "time": 28.74418604651163,
          "velocity": 0.2677165354330709
        },
        {
          "duration": 0.011627906976745095,
          "durationTicks": 1,
          "midi": 34,
          "name": "A#1",
          "ticks": 2473,
          "time": 28.75581395348837,
          "velocity": 0.6299212598425197
        },
        {
          "duration": 0.02325581395349019,
          "durationTicks": 2,
          "midi": 57,
          "name": "A3",
          "ticks": 2474,
          "time": 28.767441860465116,
          "velocity": 0.30708661417322836
        },
        {
          "duration": 0.011627906976741542,
          "durationTicks": 1,
          "midi": 29,
          "name": "F1",
          "ticks": 2476,
          "time": 28.790697674418606,
          "velocity": 0.5275590551181102
        },
        {
          "duration": 0.03488372093023173,
          "durationTicks": 3,
          "midi": 56,
          "name": "G#3",
          "ticks": 2476,
          "time": 28.790697674418606,
          "velocity": 0.2125984251968504
        },
        {
          "duration": 0.02325581395349019,
          "durationTicks": 2,
          "midi": 31,
          "name": "G1",
          "ticks": 2477,
          "time": 28.802325581395348,
          "velocity": 0.5590551181102362
        },
        {
          "duration": 0.034883720930235285,
          "durationTicks": 3,
          "midi": 50,
          "name": "D3",
          "ticks": 2477,
          "time": 28.802325581395348,
          "velocity": 0.3464566929133858
        },
        {
          "duration": 0.023255813953486637,
          "durationTicks": 2,
          "midi": 41,
          "name": "F2",
          "ticks": 2479,
          "time": 28.825581395348838,
          "velocity": 0.5748031496062992
        },
        {
          "duration": 0.011627906976741542,
          "durationTicks": 1,
          "midi": 30,
          "name": "F#1",
          "ticks": 2480,
          "time": 28.837209302325583,
          "velocity": 0.5118110236220472
        },
        {
          "duration": 0.011627906976745095,
          "durationTicks": 1,
          "midi": 37,
          "name": "C#2",
          "ticks": 2481,
          "time": 28.848837209302324,
          "velocity": 0.5984251968503937
        },
        {
          "duration": 0.011627906976745095,
          "durationTicks": 1,
          "midi": 39,
          "name": "D#2",
          "ticks": 2482,
          "time": 28.86046511627907,
          "velocity": 0.5669291338582677
        },
        {
          "duration": 0.011627906976745095,
          "durationTicks": 1,
          "midi": 41,
          "name": "F2",
          "ticks": 2483,
          "time": 28.872093023255815,
          "velocity": 0.5118110236220472
        },
        {
          "duration": 0.011627906976745095,
          "durationTicks": 1,
          "midi": 33,
          "name": "A1",
          "ticks": 2485,
          "time": 28.8953488372093,
          "velocity": 0.5826771653543307
        },
        {
          "duration": 0.011627906976745095,
          "durationTicks": 1,
          "midi": 36,
          "name": "C2",
          "ticks": 2486,
          "time": 28.906976744186046,
          "velocity": 0.5748031496062992
        },
        {
          "duration": 0.011627906976745095,
          "durationTicks": 1,
          "midi": 34,
          "name": "A#1",
          "ticks": 2489,
          "time": 28.941860465116278,
          "velocity": 0.5196850393700787
        },
        {
          "duration": 0.011627906976745095,
          "durationTicks": 1,
          "midi": 35,
          "name": "B1",
          "ticks": 2490,
          "time": 28.953488372093023,
          "velocity": 0.5669291338582677
        },
        {
          "duration": 0.011627906976745095,
          "durationTicks": 1,
          "midi": 33,
          "name": "A1",
          "ticks": 2491,
          "time": 28.96511627906977,
          "velocity": 0.5511811023622047
        },
        {
          "duration": 0.011627906976745095,
          "durationTicks": 1,
          "midi": 44,
          "name": "G#2",
          "ticks": 2491,
          "time": 28.96511627906977,
          "velocity": 0.5275590551181102
        },
        {
          "duration": 0.011627906976741542,
          "durationTicks": 1,
          "midi": 43,
          "name": "G2",
          "ticks": 2492,
          "time": 28.976744186046513,
          "velocity": 0.6062992125984252
        },
        {
          "duration": 0.011627906976745095,
          "durationTicks": 1,
          "midi": 30,
          "name": "F#1",
          "ticks": 2493,
          "time": 28.988372093023255,
          "velocity": 0.5511811023622047
        },
        {
          "duration": 0.02325581395349019,
          "durationTicks": 2,
          "midi": 41,
          "name": "F2",
          "ticks": 2493,
          "time": 28.988372093023255,
          "velocity": 0.6614173228346457
        },
        {
          "duration": 0.03488372093023173,
          "durationTicks": 3,
          "midi": 56,
          "name": "G#3",
          "ticks": 2493,
          "time": 28.988372093023255,
          "velocity": 0.4330708661417323
        },
        {
          "duration": 0.02325581395349019,
          "durationTicks": 2,
          "midi": 63,
          "name": "D#4",
          "ticks": 2493,
          "time": 28.988372093023255,
          "velocity": 0.3937007874015748
        },
        {
          "duration": 0.011627906976741542,
          "durationTicks": 1,
          "midi": 36,
          "name": "C2",
          "ticks": 2495,
          "time": 29.011627906976745,
          "velocity": 0.5984251968503937
        },
        {
          "duration": 0.011627906976741542,
          "durationTicks": 1,
          "midi": 43,
          "name": "G2",
          "ticks": 2495,
          "time": 29.011627906976745,
          "velocity": 0.5669291338582677
        },
        {
          "duration": 0.15116279069767202,
          "durationTicks": 13,
          "midi": 62,
          "name": "D4",
          "ticks": 2495,
          "time": 29.011627906976745,
          "velocity": 0.3464566929133858
        },
        {
          "duration": 0.011627906976745095,
          "durationTicks": 1,
          "midi": 33,
          "name": "A1",
          "ticks": 2496,
          "time": 29.023255813953487,
          "velocity": 0.5748031496062992
        },
        {
          "duration": 0.02325581395349019,
          "durationTicks": 2,
          "midi": 36,
          "name": "C2",
          "ticks": 2497,
          "time": 29.03488372093023,
          "velocity": 0.7086614173228346
        },
        {
          "duration": 0.02325581395349019,
          "durationTicks": 2,
          "midi": 53,
          "name": "F3",
          "ticks": 2497,
          "time": 29.03488372093023,
          "velocity": 0.3858267716535433
        },
        {
          "duration": 0.023255813953486637,
          "durationTicks": 2,
          "midi": 35,
          "name": "B1",
          "ticks": 2499,
          "time": 29.058139534883722,
          "velocity": 0.7244094488188977
        },
        {
          "duration": 0.023255813953486637,
          "durationTicks": 2,
          "midi": 54,
          "name": "F#3",
          "ticks": 2499,
          "time": 29.058139534883722,
          "velocity": 0.3228346456692913
        },
        {
          "duration": 0.011627906976745095,
          "durationTicks": 1,
          "midi": 36,
          "name": "C2",
          "ticks": 2501,
          "time": 29.08139534883721,
          "velocity": 0.7086614173228346
        },
        {
          "duration": 0.02325581395349019,
          "durationTicks": 2,
          "midi": 50,
          "name": "D3",
          "ticks": 2501,
          "time": 29.08139534883721,
          "velocity": 0.3464566929133858
        },
        {
          "duration": 0.023255813953486637,
          "durationTicks": 2,
          "midi": 35,
          "name": "B1",
          "ticks": 2502,
          "time": 29.093023255813954,
          "velocity": 0.6850393700787402
        },
        {
          "duration": 0.05813953488372192,
          "durationTicks": 5,
          "midi": 36,
          "name": "C2",
          "ticks": 2504,
          "time": 29.11627906976744,
          "velocity": 0.6929133858267716
        },
        {
          "duration": 0.023255813953486637,
          "durationTicks": 2,
          "midi": 34,
          "name": "A#1",
          "ticks": 2510,
          "time": 29.186046511627907,
          "velocity": 0.3779527559055118
        },
        {
          "duration": 0.02325581395349019,
          "durationTicks": 2,
          "midi": 48,
          "name": "C3",
          "ticks": 2512,
          "time": 29.209302325581394,
          "velocity": 0.29133858267716534
        },
        {
          "duration": 0.011627906976745095,
          "durationTicks": 1,
          "midi": 41,
          "name": "F2",
          "ticks": 2516,
          "time": 29.25581395348837,
          "velocity": 0.5354330708661418
        },
        {
          "duration": 0.034883720930235285,
          "durationTicks": 3,
          "midi": 68,
          "name": "G#4",
          "ticks": 2516,
          "time": 29.25581395348837,
          "velocity": 0.14173228346456693
        },
        {
          "duration": 0.011627906976745095,
          "durationTicks": 1,
          "midi": 40,
          "name": "E2",
          "ticks": 2517,
          "time": 29.267441860465116,
          "velocity": 0.5984251968503937
        },
        {
          "duration": 0.02325581395349019,
          "durationTicks": 2,
          "midi": 50,
          "name": "D3",
          "ticks": 2517,
          "time": 29.267441860465116,
          "velocity": 0.25196850393700787
        },
        {
          "duration": 0.02325581395349019,
          "durationTicks": 2,
          "midi": 61,
          "name": "C#4",
          "ticks": 2517,
          "time": 29.267441860465116,
          "velocity": 0.2677165354330709
        },
        {
          "duration": 0.011627906976745095,
          "durationTicks": 1,
          "midi": 38,
          "name": "D2",
          "ticks": 2518,
          "time": 29.27906976744186,
          "velocity": 0.5826771653543307
        },
        {
          "duration": 0.011627906976741542,
          "durationTicks": 1,
          "midi": 34,
          "name": "A#1",
          "ticks": 2519,
          "time": 29.290697674418606,
          "velocity": 0.5511811023622047
        },
        {
          "duration": 0.023255813953486637,
          "durationTicks": 2,
          "midi": 56,
          "name": "G#3",
          "ticks": 2519,
          "time": 29.290697674418606,
          "velocity": 0.33070866141732286
        },
        {
          "duration": 0.12790697674418539,
          "durationTicks": 11,
          "midi": 62,
          "name": "D4",
          "ticks": 2519,
          "time": 29.290697674418606,
          "velocity": 0.25196850393700787
        },
        {
          "duration": 0.011627906976745095,
          "durationTicks": 1,
          "midi": 33,
          "name": "A1",
          "ticks": 2520,
          "time": 29.302325581395348,
          "velocity": 0.5984251968503937
        },
        {
          "duration": 0.02325581395349019,
          "durationTicks": 2,
          "midi": 36,
          "name": "C2",
          "ticks": 2521,
          "time": 29.313953488372093,
          "velocity": 0.5511811023622047
        },
        {
          "duration": 0.02325581395349019,
          "durationTicks": 2,
          "midi": 57,
          "name": "A3",
          "ticks": 2521,
          "time": 29.313953488372093,
          "velocity": 0.30708661417322836
        },
        {
          "duration": 0.023255813953486637,
          "durationTicks": 2,
          "midi": 35,
          "name": "B1",
          "ticks": 2522,
          "time": 29.325581395348838,
          "velocity": 0.5354330708661418
        },
        {
          "duration": 0.04651162790697683,
          "durationTicks": 4,
          "midi": 56,
          "name": "G#3",
          "ticks": 2523,
          "time": 29.337209302325583,
          "velocity": 0.2125984251968504
        },
        {
          "duration": 0.011627906976745095,
          "durationTicks": 1,
          "midi": 36,
          "name": "C2",
          "ticks": 2524,
          "time": 29.348837209302324,
          "velocity": 0.6377952755905512
        },
        {
          "duration": 0.011627906976745095,
          "durationTicks": 1,
          "midi": 35,
          "name": "B1",
          "ticks": 2525,
          "time": 29.36046511627907,
          "velocity": 0.6141732283464567
        },
        {
          "duration": 0.011627906976745095,
          "durationTicks": 1,
          "midi": 34,
          "name": "A#1",
          "ticks": 2526,
          "time": 29.372093023255815,
          "velocity": 0.5748031496062992
        },
        {
          "duration": 0.023255813953486637,
          "durationTicks": 2,
          "midi": 38,
          "name": "D2",
          "ticks": 2527,
          "time": 29.38372093023256,
          "velocity": 0.6062992125984252
        },
        {
          "duration": 0.011627906976745095,
          "durationTicks": 1,
          "midi": 36,
          "name": "C2",
          "ticks": 2529,
          "time": 29.406976744186046,
          "velocity": 0.5669291338582677
        },
        {
          "duration": 0.023255813953486637,
          "durationTicks": 2,
          "midi": 41,
          "name": "F2",
          "ticks": 2530,
          "time": 29.41860465116279,
          "velocity": 0.3937007874015748
        },
        {
          "duration": 0.011627906976745095,
          "durationTicks": 1,
          "midi": 35,
          "name": "B1",
          "ticks": 2534,
          "time": 29.46511627906977,
          "velocity": 0.5275590551181102
        },
        {
          "duration": 0.011627906976745095,
          "durationTicks": 1,
          "midi": 33,
          "name": "A1",
          "ticks": 2537,
          "time": 29.5,
          "velocity": 0.5354330708661418
        },
        {
          "duration": 0.023255813953486637,
          "durationTicks": 2,
          "midi": 34,
          "name": "A#1",
          "ticks": 2538,
          "time": 29.511627906976745,
          "velocity": 0.6062992125984252
        },
        {
          "duration": 0.03488372093023173,
          "durationTicks": 3,
          "midi": 51,
          "name": "D#3",
          "ticks": 2538,
          "time": 29.511627906976745,
          "velocity": 0.5826771653543307
        },
        {
          "duration": 0.023255813953486637,
          "durationTicks": 2,
          "midi": 67,
          "name": "G4",
          "ticks": 2538,
          "time": 29.511627906976745,
          "velocity": 0.2992125984251969
        },
        {
          "duration": 0.03488372093023173,
          "durationTicks": 3,
          "midi": 74,
          "name": "D5",
          "ticks": 2538,
          "time": 29.511627906976745,
          "velocity": 0.15748031496062992
        },
        {
          "duration": 0.02325581395349019,
          "durationTicks": 2,
          "midi": 64,
          "name": "E4",
          "ticks": 2539,
          "time": 29.523255813953487,
          "velocity": 0.3228346456692913
        },
        {
          "duration": 0.011627906976745095,
          "durationTicks": 1,
          "midi": 32,
          "name": "G#1",
          "ticks": 2540,
          "time": 29.53488372093023,
          "velocity": 0.5984251968503937
        },
        {
          "duration": 0.03488372093023173,
          "durationTicks": 3,
          "midi": 70,
          "name": "A#4",
          "ticks": 2540,
          "time": 29.53488372093023,
          "velocity": 0.2047244094488189
        },
        {
          "duration": 0.011627906976745095,
          "durationTicks": 1,
          "midi": 22,
          "name": "A#0",
          "ticks": 2541,
          "time": 29.546511627906977,
          "velocity": 0.5354330708661418
        },
        {
          "duration": 0.011627906976745095,
          "durationTicks": 1,
          "midi": 42,
          "name": "F#2",
          "ticks": 2541,
          "time": 29.546511627906977,
          "velocity": 0.6377952755905512
        },
        {
          "duration": 0.023255813953486637,
          "durationTicks": 2,
          "midi": 40,
          "name": "E2",
          "ticks": 2542,
          "time": 29.558139534883722,
          "velocity": 0.6535433070866141
        },
        {
          "duration": 0.08139534883720856,
          "durationTicks": 7,
          "midi": 62,
          "name": "D4",
          "ticks": 2542,
          "time": 29.558139534883722,
          "velocity": 0.4094488188976378
        },
        {
          "duration": 0.02325581395349019,
          "durationTicks": 2,
          "midi": 48,
          "name": "C3",
          "ticks": 2543,
          "time": 29.569767441860463,
          "velocity": 0.5275590551181102
        },
        {
          "duration": 0.011627906976745095,
          "durationTicks": 1,
          "midi": 32,
          "name": "G#1",
          "ticks": 2544,
          "time": 29.58139534883721,
          "velocity": 0.6062992125984252
        },
        {
          "duration": 0.011627906976745095,
          "durationTicks": 1,
          "midi": 41,
          "name": "F2",
          "ticks": 2544,
          "time": 29.58139534883721,
          "velocity": 0.5590551181102362
        },
        {
          "duration": 0.011627906976745095,
          "durationTicks": 1,
          "midi": 31,
          "name": "G1",
          "ticks": 2545,
          "time": 29.593023255813954,
          "velocity": 0.6850393700787402
        },
        {
          "duration": 0.011627906976741542,
          "durationTicks": 1,
          "midi": 32,
          "name": "G#1",
          "ticks": 2546,
          "time": 29.6046511627907,
          "velocity": 0.7086614173228346
        },
        {
          "duration": 0.011627906976741542,
          "durationTicks": 1,
          "midi": 42,
          "name": "F#2",
          "ticks": 2546,
          "time": 29.6046511627907,
          "velocity": 0.5511811023622047
        },
        {
          "duration": 0.023255813953486637,
          "durationTicks": 2,
          "midi": 56,
          "name": "G#3",
          "ticks": 2546,
          "time": 29.6046511627907,
          "velocity": 0.44881889763779526
        },
        {
          "duration": 0.011627906976745095,
          "durationTicks": 1,
          "midi": 34,
          "name": "A#1",
          "ticks": 2547,
          "time": 29.61627906976744,
          "velocity": 0.7559055118110236
        },
        {
          "duration": 0.02325581395349019,
          "durationTicks": 2,
          "midi": 36,
          "name": "C2",
          "ticks": 2548,
          "time": 29.627906976744185,
          "velocity": 0.7244094488188977
        },
        {
          "duration": 0.011627906976741542,
          "durationTicks": 1,
          "midi": 34,
          "name": "A#1",
          "ticks": 2550,
          "time": 29.651162790697676,
          "velocity": 0.6771653543307087
        },
        {
          "duration": 0.023255813953486637,
          "durationTicks": 2,
          "midi": 62,
          "name": "D4",
          "ticks": 2550,
          "time": 29.651162790697676,
          "velocity": 0.3228346456692913
        },
        {
          "duration": 0.011627906976745095,
          "durationTicks": 1,
          "midi": 35,
          "name": "B1",
          "ticks": 2551,
          "time": 29.662790697674417,
          "velocity": 0.6850393700787402
        },
        {
          "duration": 0.02325581395349019,
          "durationTicks": 2,
          "midi": 56,
          "name": "G#3",
          "ticks": 2551,
          "time": 29.662790697674417,
          "velocity": 0.3543307086614173
        },
        {
          "duration": 0.011627906976745095,
          "durationTicks": 1,
          "midi": 36,
          "name": "C2",
          "ticks": 2552,
          "time": 29.674418604651162,
          "velocity": 0.6456692913385826
        },
        {
          "duration": 0.011627906976745095,
          "durationTicks": 1,
          "midi": 35,
          "name": "B1",
          "ticks": 2553,
          "time": 29.686046511627907,
          "velocity": 0.5590551181102362
        },
        {
          "duration": 0.011627906976741542,
          "durationTicks": 1,
          "midi": 33,
          "name": "A1",
          "ticks": 2554,
          "time": 29.697674418604652,
          "velocity": 0.6062992125984252
        },
        {
          "duration": 0.011627906976745095,
          "durationTicks": 1,
          "midi": 35,
          "name": "B1",
          "ticks": 2555,
          "time": 29.709302325581394,
          "velocity": 0.6299212598425197
        },
        {
          "duration": 0.04651162790697683,
          "durationTicks": 4,
          "midi": 62,
          "name": "D4",
          "ticks": 2555,
          "time": 29.709302325581394,
          "velocity": 0.18110236220472442
        },
        {
          "duration": 0.011627906976745095,
          "durationTicks": 1,
          "midi": 31,
          "name": "G1",
          "ticks": 2556,
          "time": 29.72093023255814,
          "velocity": 0.5511811023622047
        },
        {
          "duration": 0.011627906976745095,
          "durationTicks": 1,
          "midi": 38,
          "name": "D2",
          "ticks": 2556,
          "time": 29.72093023255814,
          "velocity": 0.5433070866141733
        },
        {
          "duration": 0.011627906976745095,
          "durationTicks": 1,
          "midi": 30,
          "name": "F#1",
          "ticks": 2557,
          "time": 29.732558139534884,
          "velocity": 0.5196850393700787
        },
        {
          "duration": 0.011627906976745095,
          "durationTicks": 1,
          "midi": 42,
          "name": "F#2",
          "ticks": 2557,
          "time": 29.732558139534884,
          "velocity": 0.5433070866141733
        },
        {
          "duration": 0.023255813953486637,
          "durationTicks": 2,
          "midi": 29,
          "name": "F1",
          "ticks": 2558,
          "time": 29.74418604651163,
          "velocity": 0.5354330708661418
        },
        {
          "duration": 0.02325581395349019,
          "durationTicks": 2,
          "midi": 48,
          "name": "C3",
          "ticks": 2559,
          "time": 29.75581395348837,
          "velocity": 0.48031496062992124
        },
        {
          "duration": 0.03488372093023173,
          "durationTicks": 3,
          "midi": 31,
          "name": "G1",
          "ticks": 2560,
          "time": 29.767441860465116,
          "velocity": 0.5826771653543307
        },
        {
          "duration": 0.023255813953486637,
          "durationTicks": 2,
          "midi": 55,
          "name": "G3",
          "ticks": 2561,
          "time": 29.77906976744186,
          "velocity": 0.2755905511811024
        },
        {
          "duration": 0.03488372093023173,
          "durationTicks": 3,
          "midi": 78,
          "name": "F#5",
          "ticks": 2561,
          "time": 29.77906976744186,
          "velocity": 0.23622047244094488
        },
        {
          "duration": 0.03488372093023173,
          "durationTicks": 3,
          "midi": 86,
          "name": "D6",
          "ticks": 2561,
          "time": 29.77906976744186,
          "velocity": 0.1732283464566929
        },
        {
          "duration": 0.04651162790697683,
          "durationTicks": 4,
          "midi": 94,
          "name": "A#6",
          "ticks": 2561,
          "time": 29.77906976744186,
          "velocity": 0.2047244094488189
        },
        {
          "duration": 0.04651162790697683,
          "durationTicks": 4,
          "midi": 100,
          "name": "E7",
          "ticks": 2561,
          "time": 29.77906976744186,
          "velocity": 0.2204724409448819
        },
        {
          "duration": 0.05813953488371837,
          "durationTicks": 5,
          "midi": 82,
          "name": "A#5",
          "ticks": 2562,
          "time": 29.790697674418606,
          "velocity": 0.1732283464566929
        },
        {
          "duration": 0.03488372093023173,
          "durationTicks": 3,
          "midi": 83,
          "name": "B5",
          "ticks": 2562,
          "time": 29.790697674418606,
          "velocity": 0.25984251968503935
        },
        {
          "duration": 0.03488372093023173,
          "durationTicks": 3,
          "midi": 87,
          "name": "D#6",
          "ticks": 2562,
          "time": 29.790697674418606,
          "velocity": 0.1889763779527559
        },
        {
          "duration": 0.04651162790697683,
          "durationTicks": 4,
          "midi": 88,
          "name": "E6",
          "ticks": 2562,
          "time": 29.790697674418606,
          "velocity": 0.15748031496062992
        },
        {
          "duration": 0.06976744186046346,
          "durationTicks": 6,
          "midi": 89,
          "name": "F6",
          "ticks": 2562,
          "time": 29.790697674418606,
          "velocity": 0.2283464566929134
        },
        {
          "duration": 0.05813953488371837,
          "durationTicks": 5,
          "midi": 92,
          "name": "G#6",
          "ticks": 2562,
          "time": 29.790697674418606,
          "velocity": 0.16535433070866143
        },
        {
          "duration": 0.05813953488371837,
          "durationTicks": 5,
          "midi": 96,
          "name": "C7",
          "ticks": 2562,
          "time": 29.790697674418606,
          "velocity": 0.18110236220472442
        },
        {
          "duration": 0.05813953488371837,
          "durationTicks": 5,
          "midi": 97,
          "name": "C#7",
          "ticks": 2562,
          "time": 29.790697674418606,
          "velocity": 0.14173228346456693
        },
        {
          "duration": 0.04651162790697683,
          "durationTicks": 4,
          "midi": 98,
          "name": "D7",
          "ticks": 2562,
          "time": 29.790697674418606,
          "velocity": 0.2047244094488189
        },
        {
          "duration": 0.05813953488371837,
          "durationTicks": 5,
          "midi": 99,
          "name": "D#7",
          "ticks": 2562,
          "time": 29.790697674418606,
          "velocity": 0.25196850393700787
        },
        {
          "duration": 0.011627906976745095,
          "durationTicks": 1,
          "midi": 29,
          "name": "F1",
          "ticks": 2563,
          "time": 29.802325581395348,
          "velocity": 0.5196850393700787
        },
        {
          "duration": 0.011627906976745095,
          "durationTicks": 1,
          "midi": 40,
          "name": "E2",
          "ticks": 2563,
          "time": 29.802325581395348,
          "velocity": 0.5669291338582677
        },
        {
          "duration": 0.02325581395349019,
          "durationTicks": 2,
          "midi": 56,
          "name": "G#3",
          "ticks": 2563,
          "time": 29.802325581395348,
          "velocity": 0.29133858267716534
        },
        {
          "duration": 0.011627906976745095,
          "durationTicks": 1,
          "midi": 28,
          "name": "E1",
          "ticks": 2564,
          "time": 29.813953488372093,
          "velocity": 0.5590551181102362
        },
        {
          "duration": 0.011627906976745095,
          "durationTicks": 1,
          "midi": 31,
          "name": "G1",
          "ticks": 2565,
          "time": 29.825581395348838,
          "velocity": 0.5984251968503937
        },
        {
          "duration": 0.03488372093023173,
          "durationTicks": 3,
          "midi": 84,
          "name": "C6",
          "ticks": 2565,
          "time": 29.825581395348838,
          "velocity": 0.12598425196850394
        },
        {
          "duration": 0.04651162790697683,
          "durationTicks": 4,
          "midi": 93,
          "name": "A6",
          "ticks": 2565,
          "time": 29.825581395348838,
          "velocity": 0.11023622047244094
        },
        {
          "duration": 0.011627906976741542,
          "durationTicks": 1,
          "midi": 32,
          "name": "G#1",
          "ticks": 2566,
          "time": 29.837209302325583,
          "velocity": 0.5984251968503937
        },
        {
          "duration": 0.023255813953486637,
          "durationTicks": 2,
          "midi": 56,
          "name": "G#3",
          "ticks": 2566,
          "time": 29.837209302325583,
          "velocity": 0.33858267716535434
        },
        {
          "duration": 0.011627906976745095,
          "durationTicks": 1,
          "midi": 34,
          "name": "A#1",
          "ticks": 2567,
          "time": 29.848837209302324,
          "velocity": 0.5984251968503937
        },
        {
          "duration": 0.05813953488372192,
          "durationTicks": 5,
          "midi": 62,
          "name": "D4",
          "ticks": 2567,
          "time": 29.848837209302324,
          "velocity": 0.29133858267716534
        },
        {
          "duration": 0.034883720930235285,
          "durationTicks": 3,
          "midi": 90,
          "name": "F#6",
          "ticks": 2567,
          "time": 29.848837209302324,
          "velocity": 0.12598425196850394
        },
        {
          "duration": 0.011627906976741542,
          "durationTicks": 1,
          "midi": 33,
          "name": "A1",
          "ticks": 2570,
          "time": 29.88372093023256,
          "velocity": 0.5118110236220472
        },
        {
          "duration": 0.011627906976745095,
          "durationTicks": 1,
          "midi": 35,
          "name": "B1",
          "ticks": 2571,
          "time": 29.8953488372093,
          "velocity": 0.5511811023622047
        },
        {
          "duration": 0.034883720930235285,
          "durationTicks": 3,
          "midi": 50,
          "name": "D3",
          "ticks": 2571,
          "time": 29.8953488372093,
          "velocity": 0.3543307086614173
        },
        {
          "duration": 0.011627906976745095,
          "durationTicks": 1,
          "midi": 31,
          "name": "G1",
          "ticks": 2572,
          "time": 29.906976744186046,
          "velocity": 0.5196850393700787
        },
        {
          "duration": 0.023255813953486637,
          "durationTicks": 2,
          "midi": 30,
          "name": "F#1",
          "ticks": 2573,
          "time": 29.91860465116279,
          "velocity": 0.49606299212598426
        },
        {
          "duration": 0.011627906976745095,
          "durationTicks": 1,
          "midi": 42,
          "name": "F#2",
          "ticks": 2573,
          "time": 29.91860465116279,
          "velocity": 0.5118110236220472
        },
        {
          "duration": 0.011627906976741542,
          "durationTicks": 1,
          "midi": 41,
          "name": "F2",
          "ticks": 2574,
          "time": 29.930232558139537,
          "velocity": 0.5511811023622047
        },
        {
          "duration": 0.011627906976745095,
          "durationTicks": 1,
          "midi": 36,
          "name": "C2",
          "ticks": 2575,
          "time": 29.941860465116278,
          "velocity": 0.5905511811023622
        },
        {
          "duration": 0.02325581395349019,
          "durationTicks": 2,
          "midi": 50,
          "name": "D3",
          "ticks": 2575,
          "time": 29.941860465116278,
          "velocity": 0.2440944881889764
        },
        {
          "duration": 0.011627906976745095,
          "durationTicks": 1,
          "midi": 40,
          "name": "E2",
          "ticks": 2576,
          "time": 29.953488372093023,
          "velocity": 0.5590551181102362
        },
        {
          "duration": 0.011627906976745095,
          "durationTicks": 1,
          "midi": 41,
          "name": "F2",
          "ticks": 2577,
          "time": 29.96511627906977,
          "velocity": 0.5196850393700787
        },
        {
          "duration": 0.011627906976745095,
          "durationTicks": 1,
          "midi": 32,
          "name": "G#1",
          "ticks": 2579,
          "time": 29.988372093023255,
          "velocity": 0.5669291338582677
        },
        {
          "duration": 0.011627906976745095,
          "durationTicks": 1,
          "midi": 36,
          "name": "C2",
          "ticks": 2580,
          "time": 30,
          "velocity": 0.5748031496062992
        },
        {
          "duration": 0.02325581395349019,
          "durationTicks": 2,
          "midi": 35,
          "name": "B1",
          "ticks": 2583,
          "time": 30.03488372093023,
          "velocity": 0.5905511811023622
        },
        {
          "duration": 0.011627906976741542,
          "durationTicks": 1,
          "midi": 33,
          "name": "A1",
          "ticks": 2585,
          "time": 30.058139534883722,
          "velocity": 0.5590551181102362
        },
        {
          "duration": 0.023255813953486637,
          "durationTicks": 2,
          "midi": 44,
          "name": "G#2",
          "ticks": 2585,
          "time": 30.058139534883722,
          "velocity": 0.5826771653543307
        },
        {
          "duration": 0.023255813953486637,
          "durationTicks": 2,
          "midi": 64,
          "name": "E4",
          "ticks": 2585,
          "time": 30.058139534883722,
          "velocity": 0.36220472440944884
        },
        {
          "duration": 0.011627906976745095,
          "durationTicks": 1,
          "midi": 29,
          "name": "F1",
          "ticks": 2587,
          "time": 30.08139534883721,
          "velocity": 0.5669291338582677
        },
        {
          "duration": 0.02325581395349019,
          "durationTicks": 2,
          "midi": 41,
          "name": "F2",
          "ticks": 2587,
          "time": 30.08139534883721,
          "velocity": 0.6614173228346457
        },
        {
          "duration": 0.03488372093023173,
          "durationTicks": 3,
          "midi": 56,
          "name": "G#3",
          "ticks": 2587,
          "time": 30.08139534883721,
          "velocity": 0.4330708661417323
        },
        {
          "duration": 0.02325581395349019,
          "durationTicks": 2,
          "midi": 63,
          "name": "D#4",
          "ticks": 2587,
          "time": 30.08139534883721,
          "velocity": 0.3937007874015748
        },
        {
          "duration": 0.011627906976741542,
          "durationTicks": 1,
          "midi": 36,
          "name": "C2",
          "ticks": 2589,
          "time": 30.1046511627907,
          "velocity": 0.5826771653543307
        },
        {
          "duration": 0.011627906976741542,
          "durationTicks": 1,
          "midi": 43,
          "name": "G2",
          "ticks": 2589,
          "time": 30.1046511627907,
          "velocity": 0.5590551181102362
        },
        {
          "duration": 0.08139534883720856,
          "durationTicks": 7,
          "midi": 62,
          "name": "D4",
          "ticks": 2589,
          "time": 30.1046511627907,
          "velocity": 0.33858267716535434
        },
        {
          "duration": 0.011627906976745095,
          "durationTicks": 1,
          "midi": 33,
          "name": "A1",
          "ticks": 2590,
          "time": 30.11627906976744,
          "velocity": 0.5511811023622047
        },
        {
          "duration": 0.02325581395349019,
          "durationTicks": 2,
          "midi": 36,
          "name": "C2",
          "ticks": 2591,
          "time": 30.127906976744185,
          "velocity": 0.7007874015748031
        },
        {
          "duration": 0.02325581395349019,
          "durationTicks": 2,
          "midi": 53,
          "name": "F3",
          "ticks": 2591,
          "time": 30.127906976744185,
          "velocity": 0.3779527559055118
        },
        {
          "duration": 0.011627906976741542,
          "durationTicks": 1,
          "midi": 34,
          "name": "A#1",
          "ticks": 2593,
          "time": 30.151162790697676,
          "velocity": 0.7007874015748031
        },
        {
          "duration": 0.023255813953486637,
          "durationTicks": 2,
          "midi": 54,
          "name": "F#3",
          "ticks": 2593,
          "time": 30.151162790697676,
          "velocity": 0.31496062992125984
        },
        {
          "duration": 0.011627906976745095,
          "durationTicks": 1,
          "midi": 35,
          "name": "B1",
          "ticks": 2594,
          "time": 30.162790697674417,
          "velocity": 0.7244094488188977
        },
        {
          "duration": 0.011627906976745095,
          "durationTicks": 1,
          "midi": 36,
          "name": "C2",
          "ticks": 2595,
          "time": 30.174418604651162,
          "velocity": 0.7086614173228346
        },
        {
          "duration": 0.02325581395349019,
          "durationTicks": 2,
          "midi": 50,
          "name": "D3",
          "ticks": 2595,
          "time": 30.174418604651162,
          "velocity": 0.3464566929133858
        },
        {
          "duration": 0.023255813953486637,
          "durationTicks": 2,
          "midi": 35,
          "name": "B1",
          "ticks": 2596,
          "time": 30.186046511627907,
          "velocity": 0.6850393700787402
        },
        {
          "duration": 0.05813953488371837,
          "durationTicks": 5,
          "midi": 62,
          "name": "D4",
          "ticks": 2597,
          "time": 30.197674418604652,
          "velocity": 0.15748031496062992
        },
        {
          "duration": 0.04651162790697683,
          "durationTicks": 4,
          "midi": 36,
          "name": "C2",
          "ticks": 2598,
          "time": 30.209302325581394,
          "velocity": 0.6850393700787402
        },
        {
          "duration": 0.02325581395349019,
          "durationTicks": 2,
          "midi": 35,
          "name": "B1",
          "ticks": 2602,
          "time": 30.25581395348837,
          "velocity": 0.5669291338582677
        },
        {
          "duration": 0.04651162790697683,
          "durationTicks": 4,
          "midi": 78,
          "name": "F#5",
          "ticks": 2608,
          "time": 30.325581395348838,
          "velocity": 0.25196850393700787
        },
        {
          "duration": 0.09302325581395365,
          "durationTicks": 8,
          "midi": 91,
          "name": "G6",
          "ticks": 2608,
          "time": 30.325581395348838,
          "velocity": 0.2047244094488189
        },
        {
          "duration": 0.03488372093023173,
          "durationTicks": 3,
          "midi": 93,
          "name": "A6",
          "ticks": 2608,
          "time": 30.325581395348838,
          "velocity": 0.2755905511811024
        },
        {
          "duration": 0.06976744186046346,
          "durationTicks": 6,
          "midi": 94,
          "name": "A#6",
          "ticks": 2608,
          "time": 30.325581395348838,
          "velocity": 0.29133858267716534
        },
        {
          "duration": 0.06976744186046346,
          "durationTicks": 6,
          "midi": 97,
          "name": "C#7",
          "ticks": 2608,
          "time": 30.325581395348838,
          "velocity": 0.18110236220472442
        },
        {
          "duration": 0.06976744186046346,
          "durationTicks": 6,
          "midi": 98,
          "name": "D7",
          "ticks": 2608,
          "time": 30.325581395348838,
          "velocity": 0.16535433070866143
        },
        {
          "duration": 0.05813953488372192,
          "durationTicks": 5,
          "midi": 99,
          "name": "D#7",
          "ticks": 2608,
          "time": 30.325581395348838,
          "velocity": 0.2204724409448819
        },
        {
          "duration": 0.06976744186046346,
          "durationTicks": 6,
          "midi": 100,
          "name": "E7",
          "ticks": 2608,
          "time": 30.325581395348838,
          "velocity": 0.25196850393700787
        },
        {
          "duration": 0.023255813953486637,
          "durationTicks": 2,
          "midi": 42,
          "name": "F#2",
          "ticks": 2609,
          "time": 30.337209302325583,
          "velocity": 0.5275590551181102
        },
        {
          "duration": 0.06976744186046346,
          "durationTicks": 6,
          "midi": 82,
          "name": "A#5",
          "ticks": 2609,
          "time": 30.337209302325583,
          "velocity": 0.15748031496062992
        },
        {
          "duration": 0.04651162790697683,
          "durationTicks": 4,
          "midi": 83,
          "name": "B5",
          "ticks": 2609,
          "time": 30.337209302325583,
          "velocity": 0.2440944881889764
        },
        {
          "duration": 0.03488372093023173,
          "durationTicks": 3,
          "midi": 86,
          "name": "D6",
          "ticks": 2609,
          "time": 30.337209302325583,
          "velocity": 0.2440944881889764
        },
        {
          "duration": 0.04651162790697683,
          "durationTicks": 4,
          "midi": 87,
          "name": "D#6",
          "ticks": 2609,
          "time": 30.337209302325583,
          "velocity": 0.25196850393700787
        },
        {
          "duration": 0.1046511627906952,
          "durationTicks": 9,
          "midi": 89,
          "name": "F6",
          "ticks": 2609,
          "time": 30.337209302325583,
          "velocity": 0.2677165354330709
        },
        {
          "duration": 0.02325581395349019,
          "durationTicks": 2,
          "midi": 51,
          "name": "D#3",
          "ticks": 2610,
          "time": 30.348837209302324,
          "velocity": 0.2992125984251969
        },
        {
          "duration": 0.02325581395349019,
          "durationTicks": 2,
          "midi": 56,
          "name": "G#3",
          "ticks": 2610,
          "time": 30.348837209302324,
          "velocity": 0.29133858267716534
        },
        {
          "duration": 0.02325581395349019,
          "durationTicks": 2,
          "midi": 60,
          "name": "C4",
          "ticks": 2610,
          "time": 30.348837209302324,
          "velocity": 0.33070866141732286
        },
        {
          "duration": 0.034883720930235285,
          "durationTicks": 3,
          "midi": 79,
          "name": "G5",
          "ticks": 2610,
          "time": 30.348837209302324,
          "velocity": 0.13385826771653545
        },
        {
          "duration": 0.08139534883721211,
          "durationTicks": 7,
          "midi": 85,
          "name": "C#6",
          "ticks": 2610,
          "time": 30.348837209302324,
          "velocity": 0.2440944881889764
        },
        {
          "duration": 0.011627906976745095,
          "durationTicks": 1,
          "midi": 40,
          "name": "E2",
          "ticks": 2611,
          "time": 30.36046511627907,
          "velocity": 0.6062992125984252
        },
        {
          "duration": 0.03488372093023173,
          "durationTicks": 3,
          "midi": 88,
          "name": "E6",
          "ticks": 2611,
          "time": 30.36046511627907,
          "velocity": 0.2125984251968504
        },
        {
          "duration": 0.05813953488372192,
          "durationTicks": 5,
          "midi": 92,
          "name": "G#6",
          "ticks": 2611,
          "time": 30.36046511627907,
          "velocity": 0.28346456692913385
        },
        {
          "duration": 0.04651162790697683,
          "durationTicks": 4,
          "midi": 96,
          "name": "C7",
          "ticks": 2611,
          "time": 30.36046511627907,
          "velocity": 0.09448818897637795
        },
        {
          "duration": 0.011627906976745095,
          "durationTicks": 1,
          "midi": 37,
          "name": "C#2",
          "ticks": 2612,
          "time": 30.372093023255815,
          "velocity": 0.5905511811023622
        },
        {
          "duration": 0.05813953488372192,
          "durationTicks": 5,
          "midi": 77,
          "name": "F5",
          "ticks": 2612,
          "time": 30.372093023255815,
          "velocity": 0.18110236220472442
        },
        {
          "duration": 0.03488372093023173,
          "durationTicks": 3,
          "midi": 84,
          "name": "C6",
          "ticks": 2612,
          "time": 30.372093023255815,
          "velocity": 0.14173228346456693
        },
        {
          "duration": 0.08139534883720856,
          "durationTicks": 7,
          "midi": 93,
          "name": "A6",
          "ticks": 2612,
          "time": 30.372093023255815,
          "velocity": 0.11023622047244094
        },
        {
          "duration": 0.023255813953486637,
          "durationTicks": 2,
          "midi": 33,
          "name": "A1",
          "ticks": 2613,
          "time": 30.38372093023256,
          "velocity": 0.6062992125984252
        },
        {
          "duration": 0.023255813953486637,
          "durationTicks": 2,
          "midi": 56,
          "name": "G#3",
          "ticks": 2613,
          "time": 30.38372093023256,
          "velocity": 0.3464566929133858
        },
        {
          "duration": 0.04651162790697683,
          "durationTicks": 4,
          "midi": 36,
          "name": "C2",
          "ticks": 2615,
          "time": 30.406976744186046,
          "velocity": 0.6535433070866141
        },
        {
          "duration": 0.02325581395349019,
          "durationTicks": 2,
          "midi": 57,
          "name": "A3",
          "ticks": 2615,
          "time": 30.406976744186046,
          "velocity": 0.33858267716535434
        },
        {
          "duration": 0.04651162790697683,
          "durationTicks": 4,
          "midi": 62,
          "name": "D4",
          "ticks": 2615,
          "time": 30.406976744186046,
          "velocity": 0.25984251968503935
        },
        {
          "duration": 0.011627906976745095,
          "durationTicks": 1,
          "midi": 35,
          "name": "B1",
          "ticks": 2619,
          "time": 30.453488372093023,
          "velocity": 0.6220472440944882
        },
        {
          "duration": 0.011627906976745095,
          "durationTicks": 1,
          "midi": 34,
          "name": "A#1",
          "ticks": 2620,
          "time": 30.46511627906977,
          "velocity": 0.5669291338582677
        },
        {
          "duration": 0.011627906976741542,
          "durationTicks": 1,
          "midi": 39,
          "name": "D#2",
          "ticks": 2621,
          "time": 30.476744186046513,
          "velocity": 0.5590551181102362
        },
        {
          "duration": 0.011627906976745095,
          "durationTicks": 1,
          "midi": 38,
          "name": "D2",
          "ticks": 2622,
          "time": 30.488372093023255,
          "velocity": 0.5905511811023622
        },
        {
          "duration": 0.011627906976745095,
          "durationTicks": 1,
          "midi": 35,
          "name": "B1",
          "ticks": 2623,
          "time": 30.5,
          "velocity": 0.5590551181102362
        },
        {
          "duration": 0.011627906976741542,
          "durationTicks": 1,
          "midi": 32,
          "name": "G#1",
          "ticks": 2624,
          "time": 30.511627906976745,
          "velocity": 0.5118110236220472
        },
        {
          "duration": 0.011627906976745095,
          "durationTicks": 1,
          "midi": 34,
          "name": "A#1",
          "ticks": 2627,
          "time": 30.546511627906977,
          "velocity": 0.5196850393700787
        },
        {
          "duration": 0.011627906976741542,
          "durationTicks": 1,
          "midi": 35,
          "name": "B1",
          "ticks": 2628,
          "time": 30.558139534883722,
          "velocity": 0.5511811023622047
        },
        {
          "duration": 0.011627906976745095,
          "durationTicks": 1,
          "midi": 32,
          "name": "G#1",
          "ticks": 2631,
          "time": 30.593023255813954,
          "velocity": 0.5275590551181102
        },
        {
          "duration": 0.04651162790697683,
          "durationTicks": 4,
          "midi": 51,
          "name": "D#3",
          "ticks": 2631,
          "time": 30.593023255813954,
          "velocity": 0.5905511811023622
        },
        {
          "duration": 0.023255813953486637,
          "durationTicks": 2,
          "midi": 65,
          "name": "F4",
          "ticks": 2631,
          "time": 30.593023255813954,
          "velocity": 0.2755905511811024
        },
        {
          "duration": 0.011627906976741542,
          "durationTicks": 1,
          "midi": 33,
          "name": "A1",
          "ticks": 2632,
          "time": 30.6046511627907,
          "velocity": 0.6062992125984252
        },
        {
          "duration": 0.03488372093023173,
          "durationTicks": 3,
          "midi": 74,
          "name": "D5",
          "ticks": 2632,
          "time": 30.6046511627907,
          "velocity": 0.1732283464566929
        },
        {
          "duration": 0.011627906976745095,
          "durationTicks": 1,
          "midi": 34,
          "name": "A#1",
          "ticks": 2633,
          "time": 30.61627906976744,
          "velocity": 0.6062992125984252
        },
        {
          "duration": 0.02325581395349019,
          "durationTicks": 2,
          "midi": 64,
          "name": "E4",
          "ticks": 2633,
          "time": 30.61627906976744,
          "velocity": 0.33070866141732286
        },
        {
          "duration": 0.011627906976745095,
          "durationTicks": 1,
          "midi": 33,
          "name": "A1",
          "ticks": 2634,
          "time": 30.627906976744185,
          "velocity": 0.5905511811023622
        },
        {
          "duration": 0.011627906976745095,
          "durationTicks": 1,
          "midi": 44,
          "name": "G#2",
          "ticks": 2634,
          "time": 30.627906976744185,
          "velocity": 0.5748031496062992
        },
        {
          "duration": 0.03488372093023173,
          "durationTicks": 3,
          "midi": 70,
          "name": "A#4",
          "ticks": 2634,
          "time": 30.627906976744185,
          "velocity": 0.2047244094488189
        },
        {
          "duration": 0.011627906976745095,
          "durationTicks": 1,
          "midi": 21,
          "name": "A0",
          "ticks": 2635,
          "time": 30.63953488372093,
          "velocity": 0.5433070866141733
        },
        {
          "duration": 0.011627906976745095,
          "durationTicks": 1,
          "midi": 42,
          "name": "F#2",
          "ticks": 2635,
          "time": 30.63953488372093,
          "velocity": 0.6377952755905512
        },
        {
          "duration": 0.023255813953486637,
          "durationTicks": 2,
          "midi": 40,
          "name": "E2",
          "ticks": 2636,
          "time": 30.651162790697676,
          "velocity": 0.6456692913385826
        },
        {
          "duration": 0.08139534883720856,
          "durationTicks": 7,
          "midi": 62,
          "name": "D4",
          "ticks": 2636,
          "time": 30.651162790697676,
          "velocity": 0.4094488188976378
        },
        {
          "duration": 0.011627906976745095,
          "durationTicks": 1,
          "midi": 48,
          "name": "C3",
          "ticks": 2637,
          "time": 30.662790697674417,
          "velocity": 0.5354330708661418
        },
        {
          "duration": 0.011627906976745095,
          "durationTicks": 1,
          "midi": 32,
          "name": "G#1",
          "ticks": 2638,
          "time": 30.674418604651162,
          "velocity": 0.6220472440944882
        },
        {
          "duration": 0.011627906976745095,
          "durationTicks": 1,
          "midi": 41,
          "name": "F2",
          "ticks": 2638,
          "time": 30.674418604651162,
          "velocity": 0.5826771653543307
        },
        {
          "duration": 0.02325581395349019,
          "durationTicks": 2,
          "midi": 57,
          "name": "A3",
          "ticks": 2638,
          "time": 30.674418604651162,
          "velocity": 0.47244094488188976
        },
        {
          "duration": 0.011627906976745095,
          "durationTicks": 1,
          "midi": 31,
          "name": "G1",
          "ticks": 2639,
          "time": 30.686046511627907,
          "velocity": 0.7007874015748031
        },
        {
          "duration": 0.011627906976741542,
          "durationTicks": 1,
          "midi": 32,
          "name": "G#1",
          "ticks": 2640,
          "time": 30.697674418604652,
          "velocity": 0.7165354330708661
        },
        {
          "duration": 0.011627906976741542,
          "durationTicks": 1,
          "midi": 43,
          "name": "G2",
          "ticks": 2640,
          "time": 30.697674418604652,
          "velocity": 0.5669291338582677
        },
        {
          "duration": 0.023255813953486637,
          "durationTicks": 2,
          "midi": 56,
          "name": "G#3",
          "ticks": 2640,
          "time": 30.697674418604652,
          "velocity": 0.4566929133858268
        },
        {
          "duration": 0.011627906976745095,
          "durationTicks": 1,
          "midi": 35,
          "name": "B1",
          "ticks": 2641,
          "time": 30.709302325581394,
          "velocity": 0.7637795275590551
        },
        {
          "duration": 0.011627906976745095,
          "durationTicks": 1,
          "midi": 37,
          "name": "C#2",
          "ticks": 2642,
          "time": 30.72093023255814,
          "velocity": 0.7244094488188977
        },
        {
          "duration": 0.011627906976745095,
          "durationTicks": 1,
          "midi": 36,
          "name": "C2",
          "ticks": 2643,
          "time": 30.732558139534884,
          "velocity": 0.6692913385826772
        },
        {
          "duration": 0.011627906976741542,
          "durationTicks": 1,
          "midi": 34,
          "name": "A#1",
          "ticks": 2644,
          "time": 30.74418604651163,
          "velocity": 0.6850393700787402
        },
        {
          "duration": 0.023255813953486637,
          "durationTicks": 2,
          "midi": 62,
          "name": "D4",
          "ticks": 2644,
          "time": 30.74418604651163,
          "velocity": 0.3228346456692913
        },
        {
          "duration": 0.011627906976745095,
          "durationTicks": 1,
          "midi": 35,
          "name": "B1",
          "ticks": 2645,
          "time": 30.75581395348837,
          "velocity": 0.7007874015748031
        },
        {
          "duration": 0.011627906976745095,
          "durationTicks": 1,
          "midi": 36,
          "name": "C2",
          "ticks": 2646,
          "time": 30.767441860465116,
          "velocity": 0.6614173228346457
        },
        {
          "duration": 0.02325581395349019,
          "durationTicks": 2,
          "midi": 57,
          "name": "A3",
          "ticks": 2646,
          "time": 30.767441860465116,
          "velocity": 0.29133858267716534
        },
        {
          "duration": 0.011627906976745095,
          "durationTicks": 1,
          "midi": 35,
          "name": "B1",
          "ticks": 2647,
          "time": 30.77906976744186,
          "velocity": 0.5826771653543307
        },
        {
          "duration": 0.011627906976745095,
          "durationTicks": 1,
          "midi": 37,
          "name": "C#2",
          "ticks": 2647,
          "time": 30.77906976744186,
          "velocity": 0.5118110236220472
        },
        {
          "duration": 0.011627906976741542,
          "durationTicks": 1,
          "midi": 33,
          "name": "A1",
          "ticks": 2648,
          "time": 30.790697674418606,
          "velocity": 0.6141732283464567
        },
        {
          "duration": 0.011627906976745095,
          "durationTicks": 1,
          "midi": 34,
          "name": "A#1",
          "ticks": 2649,
          "time": 30.802325581395348,
          "velocity": 0.6299212598425197
        },
        {
          "duration": 0.04651162790697683,
          "durationTicks": 4,
          "midi": 62,
          "name": "D4",
          "ticks": 2649,
          "time": 30.802325581395348,
          "velocity": 0.18110236220472442
        },
        {
          "duration": 0.02325581395349019,
          "durationTicks": 2,
          "midi": 31,
          "name": "G1",
          "ticks": 2650,
          "time": 30.813953488372093,
          "velocity": 0.5748031496062992
        },
        {
          "duration": 0.011627906976745095,
          "durationTicks": 1,
          "midi": 38,
          "name": "D2",
          "ticks": 2650,
          "time": 30.813953488372093,
          "velocity": 0.5275590551181102
        },
        {
          "duration": 0.011627906976745095,
          "durationTicks": 1,
          "midi": 42,
          "name": "F#2",
          "ticks": 2651,
          "time": 30.825581395348838,
          "velocity": 0.5511811023622047
        },
        {
          "duration": 0.023255813953486637,
          "durationTicks": 2,
          "midi": 29,
          "name": "F1",
          "ticks": 2652,
          "time": 30.837209302325583,
          "velocity": 0.5433070866141733
        },
        {
          "duration": 0.011627906976741542,
          "durationTicks": 1,
          "midi": 41,
          "name": "F2",
          "ticks": 2652,
          "time": 30.837209302325583,
          "velocity": 0.5511811023622047
        },
        {
          "duration": 0.02325581395349019,
          "durationTicks": 2,
          "midi": 48,
          "name": "C3",
          "ticks": 2653,
          "time": 30.848837209302324,
          "velocity": 0.48031496062992124
        },
        {
          "duration": 0.03488372093023173,
          "durationTicks": 3,
          "midi": 31,
          "name": "G1",
          "ticks": 2654,
          "time": 30.86046511627907,
          "velocity": 0.5984251968503937
        },
        {
          "duration": 0.023255813953486637,
          "durationTicks": 2,
          "midi": 55,
          "name": "G3",
          "ticks": 2655,
          "time": 30.872093023255815,
          "velocity": 0.2677165354330709
        },
        {
          "duration": 0.011627906976745095,
          "durationTicks": 1,
          "midi": 29,
          "name": "F1",
          "ticks": 2657,
          "time": 30.8953488372093,
          "velocity": 0.5354330708661418
        },
        {
          "duration": 0.011627906976745095,
          "durationTicks": 1,
          "midi": 41,
          "name": "F2",
          "ticks": 2657,
          "time": 30.8953488372093,
          "velocity": 0.5590551181102362
        },
        {
          "duration": 0.05813953488372192,
          "durationTicks": 5,
          "midi": 56,
          "name": "G#3",
          "ticks": 2657,
          "time": 30.8953488372093,
          "velocity": 0.33858267716535434
        },
        {
          "duration": 0.011627906976745095,
          "durationTicks": 1,
          "midi": 28,
          "name": "E1",
          "ticks": 2658,
          "time": 30.906976744186046,
          "velocity": 0.5669291338582677
        },
        {
          "duration": 0.02325581395349019,
          "durationTicks": 2,
          "midi": 61,
          "name": "C#4",
          "ticks": 2658,
          "time": 30.906976744186046,
          "velocity": 0.2440944881889764
        },
        {
          "duration": 0.011627906976745095,
          "durationTicks": 1,
          "midi": 31,
          "name": "G1",
          "ticks": 2659,
          "time": 30.91860465116279,
          "velocity": 0.6062992125984252
        },
        {
          "duration": 0.011627906976741542,
          "durationTicks": 1,
          "midi": 32,
          "name": "G#1",
          "ticks": 2660,
          "time": 30.930232558139537,
          "velocity": 0.6141732283464567
        },
        {
          "duration": 0.12790697674418539,
          "durationTicks": 11,
          "midi": 62,
          "name": "D4",
          "ticks": 2660,
          "time": 30.930232558139537,
          "velocity": 0.25984251968503935
        },
        {
          "duration": 0.011627906976745095,
          "durationTicks": 1,
          "midi": 34,
          "name": "A#1",
          "ticks": 2661,
          "time": 30.941860465116278,
          "velocity": 0.6220472440944882
        },
        {
          "duration": 0.02325581395349019,
          "durationTicks": 2,
          "midi": 57,
          "name": "A3",
          "ticks": 2662,
          "time": 30.953488372093023,
          "velocity": 0.30708661417322836
        },
        {
          "duration": 0.011627906976741542,
          "durationTicks": 1,
          "midi": 29,
          "name": "F1",
          "ticks": 2664,
          "time": 30.976744186046513,
          "velocity": 0.5354330708661418
        },
        {
          "duration": 0.03488372093023173,
          "durationTicks": 3,
          "midi": 56,
          "name": "G#3",
          "ticks": 2664,
          "time": 30.976744186046513,
          "velocity": 0.2125984251968504
        },
        {
          "duration": 0.02325581395349019,
          "durationTicks": 2,
          "midi": 31,
          "name": "G1",
          "ticks": 2665,
          "time": 30.988372093023255,
          "velocity": 0.5590551181102362
        },
        {
          "duration": 0.03488372093023173,
          "durationTicks": 3,
          "midi": 50,
          "name": "D3",
          "ticks": 2665,
          "time": 30.988372093023255,
          "velocity": 0.3543307086614173
        },
        {
          "duration": 0.023255813953486637,
          "durationTicks": 2,
          "midi": 30,
          "name": "F#1",
          "ticks": 2667,
          "time": 31.011627906976745,
          "velocity": 0.5196850393700787
        },
        {
          "duration": 0.023255813953486637,
          "durationTicks": 2,
          "midi": 41,
          "name": "F2",
          "ticks": 2667,
          "time": 31.011627906976745,
          "velocity": 0.5748031496062992
        },
        {
          "duration": 0.011627906976745095,
          "durationTicks": 1,
          "midi": 37,
          "name": "C#2",
          "ticks": 2669,
          "time": 31.03488372093023,
          "velocity": 0.5984251968503937
        },
        {
          "duration": 0.02325581395349019,
          "durationTicks": 2,
          "midi": 50,
          "name": "D3",
          "ticks": 2669,
          "time": 31.03488372093023,
          "velocity": 0.25196850393700787
        },
        {
          "duration": 0.011627906976745095,
          "durationTicks": 1,
          "midi": 39,
          "name": "D#2",
          "ticks": 2670,
          "time": 31.046511627906977,
          "velocity": 0.5669291338582677
        },
        {
          "duration": 0.011627906976745095,
          "durationTicks": 1,
          "midi": 31,
          "name": "G1",
          "ticks": 2672,
          "time": 31.069767441860463,
          "velocity": 0.5118110236220472
        },
        {
          "duration": 0.011627906976745095,
          "durationTicks": 1,
          "midi": 34,
          "name": "A#1",
          "ticks": 2673,
          "time": 31.08139534883721,
          "velocity": 0.5826771653543307
        },
        {
          "duration": 0.011627906976745095,
          "durationTicks": 1,
          "midi": 36,
          "name": "C2",
          "ticks": 2674,
          "time": 31.093023255813954,
          "velocity": 0.5669291338582677
        },
        {
          "duration": 0.011627906976745095,
          "durationTicks": 1,
          "midi": 35,
          "name": "B1",
          "ticks": 2677,
          "time": 31.127906976744185,
          "velocity": 0.5275590551181102
        },
        {
          "duration": 0.011627906976745095,
          "durationTicks": 1,
          "midi": 36,
          "name": "C2",
          "ticks": 2678,
          "time": 31.13953488372093,
          "velocity": 0.5669291338582677
        },
        {
          "duration": 0.011627906976741542,
          "durationTicks": 1,
          "midi": 33,
          "name": "A1",
          "ticks": 2679,
          "time": 31.151162790697676,
          "velocity": 0.5590551181102362
        },
        {
          "duration": 0.011627906976741542,
          "durationTicks": 1,
          "midi": 44,
          "name": "G#2",
          "ticks": 2679,
          "time": 31.151162790697676,
          "velocity": 0.5275590551181102
        },
        {
          "duration": 0.011627906976745095,
          "durationTicks": 1,
          "midi": 43,
          "name": "G2",
          "ticks": 2680,
          "time": 31.162790697674417,
          "velocity": 0.6062992125984252
        },
        {
          "duration": 0.011627906976745095,
          "durationTicks": 1,
          "midi": 29,
          "name": "F1",
          "ticks": 2681,
          "time": 31.174418604651162,
          "velocity": 0.5511811023622047
        },
        {
          "duration": 0.02325581395349019,
          "durationTicks": 2,
          "midi": 41,
          "name": "F2",
          "ticks": 2681,
          "time": 31.174418604651162,
          "velocity": 0.6614173228346457
        },
        {
          "duration": 0.03488372093023173,
          "durationTicks": 3,
          "midi": 56,
          "name": "G#3",
          "ticks": 2681,
          "time": 31.174418604651162,
          "velocity": 0.4409448818897638
        },
        {
          "duration": 0.02325581395349019,
          "durationTicks": 2,
          "midi": 63,
          "name": "D#4",
          "ticks": 2681,
          "time": 31.174418604651162,
          "velocity": 0.3937007874015748
        },
        {
          "duration": 0.011627906976741542,
          "durationTicks": 1,
          "midi": 36,
          "name": "C2",
          "ticks": 2683,
          "time": 31.197674418604652,
          "velocity": 0.5905511811023622
        },
        {
          "duration": 0.011627906976741542,
          "durationTicks": 1,
          "midi": 43,
          "name": "G2",
          "ticks": 2683,
          "time": 31.197674418604652,
          "velocity": 0.5669291338582677
        },
        {
          "duration": 0.15116279069767202,
          "durationTicks": 13,
          "midi": 62,
          "name": "D4",
          "ticks": 2683,
          "time": 31.197674418604652,
          "velocity": 0.33070866141732286
        },
        {
          "duration": 0.011627906976745095,
          "durationTicks": 1,
          "midi": 33,
          "name": "A1",
          "ticks": 2684,
          "time": 31.209302325581394,
          "velocity": 0.5748031496062992
        },
        {
          "duration": 0.02325581395349019,
          "durationTicks": 2,
          "midi": 36,
          "name": "C2",
          "ticks": 2685,
          "time": 31.22093023255814,
          "velocity": 0.7007874015748031
        },
        {
          "duration": 0.02325581395349019,
          "durationTicks": 2,
          "midi": 53,
          "name": "F3",
          "ticks": 2685,
          "time": 31.22093023255814,
          "velocity": 0.3858267716535433
        },
        {
          "duration": 0.011627906976741542,
          "durationTicks": 1,
          "midi": 34,
          "name": "A#1",
          "ticks": 2687,
          "time": 31.24418604651163,
          "velocity": 0.6929133858267716
        },
        {
          "duration": 0.023255813953486637,
          "durationTicks": 2,
          "midi": 54,
          "name": "F#3",
          "ticks": 2687,
          "time": 31.24418604651163,
          "velocity": 0.31496062992125984
        },
        {
          "duration": 0.011627906976745095,
          "durationTicks": 1,
          "midi": 35,
          "name": "B1",
          "ticks": 2688,
          "time": 31.25581395348837,
          "velocity": 0.7244094488188977
        },
        {
          "duration": 0.011627906976745095,
          "durationTicks": 1,
          "midi": 36,
          "name": "C2",
          "ticks": 2689,
          "time": 31.267441860465116,
          "velocity": 0.7007874015748031
        },
        {
          "duration": 0.02325581395349019,
          "durationTicks": 2,
          "midi": 50,
          "name": "D3",
          "ticks": 2689,
          "time": 31.267441860465116,
          "velocity": 0.3464566929133858
        },
        {
          "duration": 0.023255813953486637,
          "durationTicks": 2,
          "midi": 35,
          "name": "B1",
          "ticks": 2690,
          "time": 31.27906976744186,
          "velocity": 0.6850393700787402
        },
        {
          "duration": 0.04651162790697683,
          "durationTicks": 4,
          "midi": 36,
          "name": "C2",
          "ticks": 2692,
          "time": 31.302325581395348,
          "velocity": 0.6929133858267716
        },
        {
          "duration": 0.02325581395349019,
          "durationTicks": 2,
          "midi": 35,
          "name": "B1",
          "ticks": 2696,
          "time": 31.348837209302324,
          "velocity": 0.5590551181102362
        },
        {
          "duration": 0.023255813953486637,
          "durationTicks": 2,
          "midi": 36,
          "name": "C2",
          "ticks": 2699,
          "time": 31.38372093023256,
          "velocity": 0.3858267716535433
        },
        {
          "duration": 0.023255813953486637,
          "durationTicks": 2,
          "midi": 41,
          "name": "F2",
          "ticks": 2703,
          "time": 31.430232558139537,
          "velocity": 0.5433070866141733
        },
        {
          "duration": 0.02325581395349019,
          "durationTicks": 2,
          "midi": 56,
          "name": "G#3",
          "ticks": 2704,
          "time": 31.441860465116278,
          "velocity": 0.30708661417322836
        },
        {
          "duration": 0.011627906976745095,
          "durationTicks": 1,
          "midi": 40,
          "name": "E2",
          "ticks": 2705,
          "time": 31.453488372093023,
          "velocity": 0.6062992125984252
        },
        {
          "duration": 0.02325581395349019,
          "durationTicks": 2,
          "midi": 50,
          "name": "D3",
          "ticks": 2705,
          "time": 31.453488372093023,
          "velocity": 0.2440944881889764
        },
        {
          "duration": 0.011627906976745095,
          "durationTicks": 1,
          "midi": 37,
          "name": "C#2",
          "ticks": 2706,
          "time": 31.46511627906977,
          "velocity": 0.5826771653543307
        },
        {
          "duration": 0.011627906976741542,
          "durationTicks": 1,
          "midi": 34,
          "name": "A#1",
          "ticks": 2707,
          "time": 31.476744186046513,
          "velocity": 0.5590551181102362
        },
        {
          "duration": 0.023255813953486637,
          "durationTicks": 2,
          "midi": 56,
          "name": "G#3",
          "ticks": 2707,
          "time": 31.476744186046513,
          "velocity": 0.33070866141732286
        },
        {
          "duration": 0.011627906976745095,
          "durationTicks": 1,
          "midi": 33,
          "name": "A1",
          "ticks": 2708,
          "time": 31.488372093023255,
          "velocity": 0.5984251968503937
        },
        {
          "duration": 0.023255813953486637,
          "durationTicks": 2,
          "midi": 36,
          "name": "C2",
          "ticks": 2709,
          "time": 31.5,
          "velocity": 0.5433070866141733
        },
        {
          "duration": 0.10465116279069875,
          "durationTicks": 9,
          "midi": 62,
          "name": "D4",
          "ticks": 2709,
          "time": 31.5,
          "velocity": 0.2440944881889764
        },
        {
          "duration": 0.023255813953486637,
          "durationTicks": 2,
          "midi": 35,
          "name": "B1",
          "ticks": 2710,
          "time": 31.511627906976745,
          "velocity": 0.5433070866141733
        },
        {
          "duration": 0.04651162790697683,
          "durationTicks": 4,
          "midi": 56,
          "name": "G#3",
          "ticks": 2710,
          "time": 31.511627906976745,
          "velocity": 0.23622047244094488
        },
        {
          "duration": 0.011627906976745095,
          "durationTicks": 1,
          "midi": 36,
          "name": "C2",
          "ticks": 2712,
          "time": 31.53488372093023,
          "velocity": 0.6456692913385826
        },
        {
          "duration": 0.011627906976745095,
          "durationTicks": 1,
          "midi": 35,
          "name": "B1",
          "ticks": 2713,
          "time": 31.546511627906977,
          "velocity": 0.6141732283464567
        },
        {
          "duration": 0.011627906976741542,
          "durationTicks": 1,
          "midi": 34,
          "name": "A#1",
          "ticks": 2714,
          "time": 31.558139534883722,
          "velocity": 0.5669291338582677
        },
        {
          "duration": 0.02325581395349019,
          "durationTicks": 2,
          "midi": 38,
          "name": "D2",
          "ticks": 2715,
          "time": 31.569767441860463,
          "velocity": 0.5984251968503937
        },
        {
          "duration": 0.011627906976745095,
          "durationTicks": 1,
          "midi": 35,
          "name": "B1",
          "ticks": 2717,
          "time": 31.593023255813954,
          "velocity": 0.5590551181102362
        },
        {
          "duration": 0.023255813953486637,
          "durationTicks": 2,
          "midi": 41,
          "name": "F2",
          "ticks": 2718,
          "time": 31.6046511627907,
          "velocity": 0.3937007874015748
        },
        {
          "duration": 0.011627906976741542,
          "durationTicks": 1,
          "midi": 35,
          "name": "B1",
          "ticks": 2722,
          "time": 31.651162790697676,
          "velocity": 0.5354330708661418
        },
        {
          "duration": 0.011627906976745095,
          "durationTicks": 1,
          "midi": 33,
          "name": "A1",
          "ticks": 2725,
          "time": 31.686046511627907,
          "velocity": 0.5433070866141733
        },
        {
          "duration": 0.03488372093023173,
          "durationTicks": 3,
          "midi": 60,
          "name": "C4",
          "ticks": 2725,
          "time": 31.686046511627907,
          "velocity": 0.3937007874015748
        },
        {
          "duration": 0.023255813953486637,
          "durationTicks": 2,
          "midi": 34,
          "name": "A#1",
          "ticks": 2726,
          "time": 31.697674418604652,
          "velocity": 0.6062992125984252
        },
        {
          "duration": 0.03488372093023173,
          "durationTicks": 3,
          "midi": 51,
          "name": "D#3",
          "ticks": 2726,
          "time": 31.697674418604652,
          "velocity": 0.5826771653543307
        },
        {
          "duration": 0.023255813953486637,
          "durationTicks": 2,
          "midi": 67,
          "name": "G4",
          "ticks": 2726,
          "time": 31.697674418604652,
          "velocity": 0.29133858267716534
        },
        {
          "duration": 0.03488372093023173,
          "durationTicks": 3,
          "midi": 74,
          "name": "D5",
          "ticks": 2726,
          "time": 31.697674418604652,
          "velocity": 0.15748031496062992
        },
        {
          "duration": 0.02325581395349019,
          "durationTicks": 2,
          "midi": 64,
          "name": "E4",
          "ticks": 2727,
          "time": 31.709302325581394,
          "velocity": 0.3228346456692913
        },
        {
          "duration": 0.011627906976745095,
          "durationTicks": 1,
          "midi": 32,
          "name": "G#1",
          "ticks": 2728,
          "time": 31.72093023255814,
          "velocity": 0.5984251968503937
        },
        {
          "duration": 0.03488372093023173,
          "durationTicks": 3,
          "midi": 70,
          "name": "A#4",
          "ticks": 2728,
          "time": 31.72093023255814,
          "velocity": 0.2047244094488189
        },
        {
          "duration": 0.011627906976745095,
          "durationTicks": 1,
          "midi": 21,
          "name": "A0",
          "ticks": 2729,
          "time": 31.732558139534884,
          "velocity": 0.5354330708661418
        },
        {
          "duration": 0.011627906976745095,
          "durationTicks": 1,
          "midi": 42,
          "name": "F#2",
          "ticks": 2729,
          "time": 31.732558139534884,
          "velocity": 0.6377952755905512
        },
        {
          "duration": 0.023255813953486637,
          "durationTicks": 2,
          "midi": 40,
          "name": "E2",
          "ticks": 2730,
          "time": 31.74418604651163,
          "velocity": 0.6535433070866141
        },
        {
          "duration": 0.08139534883720856,
          "durationTicks": 7,
          "midi": 62,
          "name": "D4",
          "ticks": 2730,
          "time": 31.74418604651163,
          "velocity": 0.4094488188976378
        },
        {
          "duration": 0.02325581395349019,
          "durationTicks": 2,
          "midi": 48,
          "name": "C3",
          "ticks": 2731,
          "time": 31.75581395348837,
          "velocity": 0.5275590551181102
        },
        {
          "duration": 0.011627906976745095,
          "durationTicks": 1,
          "midi": 32,
          "name": "G#1",
          "ticks": 2732,
          "time": 31.767441860465116,
          "velocity": 0.6141732283464567
        },
        {
          "duration": 0.011627906976745095,
          "durationTicks": 1,
          "midi": 41,
          "name": "F2",
          "ticks": 2732,
          "time": 31.767441860465116,
          "velocity": 0.5669291338582677
        },
        {
          "duration": 0.02325581395349019,
          "durationTicks": 2,
          "midi": 57,
          "name": "A3",
          "ticks": 2732,
          "time": 31.767441860465116,
          "velocity": 0.47244094488188976
        },
        {
          "duration": 0.011627906976745095,
          "durationTicks": 1,
          "midi": 31,
          "name": "G1",
          "ticks": 2733,
          "time": 31.77906976744186,
          "velocity": 0.6929133858267716
        },
        {
          "duration": 0.011627906976741542,
          "durationTicks": 1,
          "midi": 32,
          "name": "G#1",
          "ticks": 2734,
          "time": 31.790697674418606,
          "velocity": 0.7086614173228346
        },
        {
          "duration": 0.011627906976741542,
          "durationTicks": 1,
          "midi": 42,
          "name": "F#2",
          "ticks": 2734,
          "time": 31.790697674418606,
          "velocity": 0.5511811023622047
        },
        {
          "duration": 0.023255813953486637,
          "durationTicks": 2,
          "midi": 56,
          "name": "G#3",
          "ticks": 2734,
          "time": 31.790697674418606,
          "velocity": 0.44881889763779526
        },
        {
          "duration": 0.011627906976745095,
          "durationTicks": 1,
          "midi": 35,
          "name": "B1",
          "ticks": 2735,
          "time": 31.802325581395348,
          "velocity": 0.7559055118110236
        },
        {
          "duration": 0.011627906976745095,
          "durationTicks": 1,
          "midi": 37,
          "name": "C#2",
          "ticks": 2736,
          "time": 31.813953488372093,
          "velocity": 0.7165354330708661
        },
        {
          "duration": 0.011627906976745095,
          "durationTicks": 1,
          "midi": 36,
          "name": "C2",
          "ticks": 2737,
          "time": 31.825581395348838,
          "velocity": 0.6614173228346457
        },
        {
          "duration": 0.011627906976741542,
          "durationTicks": 1,
          "midi": 34,
          "name": "A#1",
          "ticks": 2738,
          "time": 31.837209302325583,
          "velocity": 0.6771653543307087
        },
        {
          "duration": 0.023255813953486637,
          "durationTicks": 2,
          "midi": 62,
          "name": "D4",
          "ticks": 2738,
          "time": 31.837209302325583,
          "velocity": 0.31496062992125984
        },
        {
          "duration": 0.011627906976745095,
          "durationTicks": 1,
          "midi": 35,
          "name": "B1",
          "ticks": 2739,
          "time": 31.848837209302324,
          "velocity": 0.6850393700787402
        },
        {
          "duration": 0.011627906976745095,
          "durationTicks": 1,
          "midi": 36,
          "name": "C2",
          "ticks": 2740,
          "time": 31.86046511627907,
          "velocity": 0.6377952755905512
        },
        {
          "duration": 0.02325581395349019,
          "durationTicks": 2,
          "midi": 57,
          "name": "A3",
          "ticks": 2740,
          "time": 31.86046511627907,
          "velocity": 0.2755905511811024
        },
        {
          "duration": 0.011627906976745095,
          "durationTicks": 1,
          "midi": 34,
          "name": "A#1",
          "ticks": 2741,
          "time": 31.872093023255815,
          "velocity": 0.5590551181102362
        },
        {
          "duration": 0.011627906976745095,
          "durationTicks": 1,
          "midi": 37,
          "name": "C#2",
          "ticks": 2741,
          "time": 31.872093023255815,
          "velocity": 0.5118110236220472
        },
        {
          "duration": 0.011627906976741542,
          "durationTicks": 1,
          "midi": 33,
          "name": "A1",
          "ticks": 2742,
          "time": 31.88372093023256,
          "velocity": 0.6062992125984252
        },
        {
          "duration": 0.011627906976745095,
          "durationTicks": 1,
          "midi": 35,
          "name": "B1",
          "ticks": 2743,
          "time": 31.8953488372093,
          "velocity": 0.6220472440944882
        },
        {
          "duration": 0.04651162790697683,
          "durationTicks": 4,
          "midi": 62,
          "name": "D4",
          "ticks": 2743,
          "time": 31.8953488372093,
          "velocity": 0.1732283464566929
        },
        {
          "duration": 0.011627906976745095,
          "durationTicks": 1,
          "midi": 31,
          "name": "G1",
          "ticks": 2744,
          "time": 31.906976744186046,
          "velocity": 0.5511811023622047
        },
        {
          "duration": 0.011627906976745095,
          "durationTicks": 1,
          "midi": 39,
          "name": "D#2",
          "ticks": 2744,
          "time": 31.906976744186046,
          "velocity": 0.5433070866141733
        },
        {
          "duration": 0.011627906976745095,
          "durationTicks": 1,
          "midi": 30,
          "name": "F#1",
          "ticks": 2745,
          "time": 31.91860465116279,
          "velocity": 0.5275590551181102
        },
        {
          "duration": 0.011627906976745095,
          "durationTicks": 1,
          "midi": 42,
          "name": "F#2",
          "ticks": 2745,
          "time": 31.91860465116279,
          "velocity": 0.5511811023622047
        },
        {
          "duration": 0.023255813953486637,
          "durationTicks": 2,
          "midi": 29,
          "name": "F1",
          "ticks": 2746,
          "time": 31.930232558139537,
          "velocity": 0.5433070866141733
        },
        {
          "duration": 0.03488372093023173,
          "durationTicks": 3,
          "midi": 48,
          "name": "C3",
          "ticks": 2746,
          "time": 31.930232558139537,
          "velocity": 0.48031496062992124
        },
        {
          "duration": 0.03488372093023173,
          "durationTicks": 3,
          "midi": 31,
          "name": "G1",
          "ticks": 2748,
          "time": 31.953488372093023,
          "velocity": 0.5905511811023622
        },
        {
          "duration": 0.03488372093023173,
          "durationTicks": 3,
          "midi": 78,
          "name": "F#5",
          "ticks": 2749,
          "time": 31.96511627906977,
          "velocity": 0.1968503937007874
        },
        {
          "duration": 0.046511627906973274,
          "durationTicks": 4,
          "midi": 94,
          "name": "A#6",
          "ticks": 2749,
          "time": 31.96511627906977,
          "velocity": 0.18110236220472442
        },
        {
          "duration": 0.05813953488372192,
          "durationTicks": 5,
          "midi": 98,
          "name": "D7",
          "ticks": 2749,
          "time": 31.96511627906977,
          "velocity": 0.2204724409448819
        },
        {
          "duration": 0.03488372093022818,
          "durationTicks": 3,
          "midi": 56,
          "name": "G#3",
          "ticks": 2750,
          "time": 31.976744186046513,
          "velocity": 0.29133858267716534
        },
        {
          "duration": 0.03488372093022818,
          "durationTicks": 3,
          "midi": 81,
          "name": "A5",
          "ticks": 2750,
          "time": 31.976744186046513,
          "velocity": 0.07874015748031496
        },
        {
          "duration": 0.03488372093022818,
          "durationTicks": 3,
          "midi": 83,
          "name": "B5",
          "ticks": 2750,
          "time": 31.976744186046513,
          "velocity": 0.2047244094488189
        },
        {
          "duration": 0.03488372093022818,
          "durationTicks": 3,
          "midi": 87,
          "name": "D#6",
          "ticks": 2750,
          "time": 31.976744186046513,
          "velocity": 0.1732283464566929
        },
        {
          "duration": 0.06976744186045991,
          "durationTicks": 6,
          "midi": 89,
          "name": "F6",
          "ticks": 2750,
          "time": 31.976744186046513,
          "velocity": 0.23622047244094488
        },
        {
          "duration": 0.04651162790697683,
          "durationTicks": 4,
          "midi": 92,
          "name": "G#6",
          "ticks": 2750,
          "time": 31.976744186046513,
          "velocity": 0.11811023622047244
        },
        {
          "duration": 0.06976744186045991,
          "durationTicks": 6,
          "midi": 93,
          "name": "A6",
          "ticks": 2750,
          "time": 31.976744186046513,
          "velocity": 0.11023622047244094
        },
        {
          "duration": 0.03488372093022818,
          "durationTicks": 3,
          "midi": 96,
          "name": "C7",
          "ticks": 2750,
          "time": 31.976744186046513,
          "velocity": 0.1732283464566929
        },
        {
          "duration": 0.04651162790697683,
          "durationTicks": 4,
          "midi": 97,
          "name": "C#7",
          "ticks": 2750,
          "time": 31.976744186046513,
          "velocity": 0.1732283464566929
        },
        {
          "duration": 0.05813953488371837,
          "durationTicks": 5,
          "midi": 99,
          "name": "D#7",
          "ticks": 2750,
          "time": 31.976744186046513,
          "velocity": 0.1732283464566929
        },
        {
          "duration": 0.03488372093022818,
          "durationTicks": 3,
          "midi": 100,
          "name": "E7",
          "ticks": 2750,
          "time": 31.976744186046513,
          "velocity": 0.1889763779527559
        },
        {
          "duration": 0.03488372093022818,
          "durationTicks": 3,
          "midi": 103,
          "name": "G7",
          "ticks": 2750,
          "time": 31.976744186046513,
          "velocity": 0.09448818897637795
        },
        {
          "duration": 0.011627906976745095,
          "durationTicks": 1,
          "midi": 29,
          "name": "F1",
          "ticks": 2751,
          "time": 31.988372093023255,
          "velocity": 0.5275590551181102
        },
        {
          "duration": 0.011627906976745095,
          "durationTicks": 1,
          "midi": 40,
          "name": "E2",
          "ticks": 2751,
          "time": 31.988372093023255,
          "velocity": 0.5669291338582677
        },
        {
          "duration": 0.05813953488371837,
          "durationTicks": 5,
          "midi": 79,
          "name": "G5",
          "ticks": 2751,
          "time": 31.988372093023255,
          "velocity": 0.08661417322834646
        },
        {
          "duration": 0.06976744186046702,
          "durationTicks": 6,
          "midi": 85,
          "name": "C#6",
          "ticks": 2751,
          "time": 31.988372093023255,
          "velocity": 0.11811023622047244
        },
        {
          "duration": 0.011627906976741542,
          "durationTicks": 1,
          "midi": 28,
          "name": "E1",
          "ticks": 2752,
          "time": 32,
          "velocity": 0.5669291338582677
        },
        {
          "duration": 0.05813953488372192,
          "durationTicks": 5,
          "midi": 90,
          "name": "F#6",
          "ticks": 2752,
          "time": 32,
          "velocity": 0.08661417322834646
        },
        {
          "duration": 0.011627906976748648,
          "durationTicks": 1,
          "midi": 31,
          "name": "G1",
          "ticks": 2753,
          "time": 32.01162790697674,
          "velocity": 0.5984251968503937
        },
        {
          "duration": 0.03488372093023173,
          "durationTicks": 3,
          "midi": 84,
          "name": "C6",
          "ticks": 2753,
          "time": 32.01162790697674,
          "velocity": 0.14960629921259844
        },
        {
          "duration": 0.011627906976741542,
          "durationTicks": 1,
          "midi": 32,
          "name": "G#1",
          "ticks": 2754,
          "time": 32.02325581395349,
          "velocity": 0.5984251968503937
        },
        {
          "duration": 0.023255813953483084,
          "durationTicks": 2,
          "midi": 56,
          "name": "G#3",
          "ticks": 2754,
          "time": 32.02325581395349,
          "velocity": 0.3464566929133858
        },
        {
          "duration": 0.011627906976741542,
          "durationTicks": 1,
          "midi": 34,
          "name": "A#1",
          "ticks": 2755,
          "time": 32.03488372093023,
          "velocity": 0.5984251968503937
        },
        {
          "duration": 0.05813953488372192,
          "durationTicks": 5,
          "midi": 62,
          "name": "D4",
          "ticks": 2755,
          "time": 32.03488372093023,
          "velocity": 0.28346456692913385
        },
        {
          "duration": 0.011627906976748648,
          "durationTicks": 1,
          "midi": 33,
          "name": "A1",
          "ticks": 2758,
          "time": 32.06976744186046,
          "velocity": 0.5196850393700787
        },
        {
          "duration": 0.023255813953483084,
          "durationTicks": 2,
          "midi": 31,
          "name": "G1",
          "ticks": 2759,
          "time": 32.08139534883721,
          "velocity": 0.5433070866141733
        },
        {
          "duration": 0.03488372093023173,
          "durationTicks": 3,
          "midi": 50,
          "name": "D3",
          "ticks": 2759,
          "time": 32.08139534883721,
          "velocity": 0.3543307086614173
        },
        {
          "duration": 0.02325581395349019,
          "durationTicks": 2,
          "midi": 30,
          "name": "F#1",
          "ticks": 2761,
          "time": 32.104651162790695,
          "velocity": 0.5039370078740157
        },
        {
          "duration": 0.02325581395349019,
          "durationTicks": 2,
          "midi": 41,
          "name": "F2",
          "ticks": 2761,
          "time": 32.104651162790695,
          "velocity": 0.5590551181102362
        },
        {
          "duration": 0.03488372093023173,
          "durationTicks": 3,
          "midi": 93,
          "name": "A6",
          "ticks": 2761,
          "time": 32.104651162790695,
          "velocity": 0.11811023622047244
        },
        {
          "duration": 0.04651162790698038,
          "durationTicks": 4,
          "midi": 99,
          "name": "D#7",
          "ticks": 2761,
          "time": 32.104651162790695,
          "velocity": 0.14960629921259844
        },
        {
          "duration": 0.03488372093023173,
          "durationTicks": 3,
          "midi": 101,
          "name": "F7",
          "ticks": 2762,
          "time": 32.116279069767444,
          "velocity": 0.13385826771653545
        },
        {
          "duration": 0.011627906976741542,
          "durationTicks": 1,
          "midi": 37,
          "name": "C#2",
          "ticks": 2763,
          "time": 32.127906976744185,
          "velocity": 0.5905511811023622
        },
        {
          "duration": 0.02325581395349019,
          "durationTicks": 2,
          "midi": 50,
          "name": "D3",
          "ticks": 2763,
          "time": 32.127906976744185,
          "velocity": 0.2440944881889764
        },
        {
          "duration": 0.011627906976748648,
          "durationTicks": 1,
          "midi": 40,
          "name": "E2",
          "ticks": 2764,
          "time": 32.13953488372093,
          "velocity": 0.5590551181102362
        },
        {
          "duration": 0.011627906976741542,
          "durationTicks": 1,
          "midi": 41,
          "name": "F2",
          "ticks": 2765,
          "time": 32.151162790697676,
          "velocity": 0.5118110236220472
        },
        {
          "duration": 0.011627906976741542,
          "durationTicks": 1,
          "midi": 33,
          "name": "A1",
          "ticks": 2767,
          "time": 32.174418604651166,
          "velocity": 0.5748031496062992
        },
        {
          "duration": 0.011627906976741542,
          "durationTicks": 1,
          "midi": 36,
          "name": "C2",
          "ticks": 2768,
          "time": 32.18604651162791,
          "velocity": 0.5669291338582677
        },
        {
          "duration": 0.02325581395349019,
          "durationTicks": 2,
          "midi": 35,
          "name": "B1",
          "ticks": 2771,
          "time": 32.22093023255814,
          "velocity": 0.5826771653543307
        },
        {
          "duration": 0.06976744186047057,
          "durationTicks": 6,
          "midi": 98,
          "name": "D7",
          "ticks": 2772,
          "time": 32.23255813953488,
          "velocity": 0.2204724409448819
        },
        {
          "duration": 0.011627906976741542,
          "durationTicks": 1,
          "midi": 33,
          "name": "A1",
          "ticks": 2773,
          "time": 32.24418604651163,
          "velocity": 0.5590551181102362
        },
        {
          "duration": 0.011627906976741542,
          "durationTicks": 1,
          "midi": 44,
          "name": "G#2",
          "ticks": 2773,
          "time": 32.24418604651163,
          "velocity": 0.5275590551181102
        },
        {
          "duration": 0.02325581395349019,
          "durationTicks": 2,
          "midi": 64,
          "name": "E4",
          "ticks": 2773,
          "time": 32.24418604651163,
          "velocity": 0.33858267716535434
        },
        {
          "duration": 0.081395348837205,
          "durationTicks": 7,
          "midi": 78,
          "name": "F#5",
          "ticks": 2773,
          "time": 32.24418604651163,
          "velocity": 0.1732283464566929
        },
        {
          "duration": 0.046511627906973274,
          "durationTicks": 4,
          "midi": 83,
          "name": "B5",
          "ticks": 2773,
          "time": 32.24418604651163,
          "velocity": 0.2204724409448819
        },
        {
          "duration": 0.06976744186046346,
          "durationTicks": 6,
          "midi": 87,
          "name": "D#6",
          "ticks": 2773,
          "time": 32.24418604651163,
          "velocity": 0.16535433070866143
        },
        {
          "duration": 0.06976744186046346,
          "durationTicks": 6,
          "midi": 89,
          "name": "F6",
          "ticks": 2773,
          "time": 32.24418604651163,
          "velocity": 0.23622047244094488
        },
        {
          "duration": 0.046511627906973274,
          "durationTicks": 4,
          "midi": 92,
          "name": "G#6",
          "ticks": 2773,
          "time": 32.24418604651163,
          "velocity": 0.12598425196850394
        },
        {
          "duration": 0.081395348837205,
          "durationTicks": 7,
          "midi": 93,
          "name": "A6",
          "ticks": 2773,
          "time": 32.24418604651163,
          "velocity": 0.08661417322834646
        },
        {
          "duration": 0.03488372093023173,
          "durationTicks": 3,
          "midi": 94,
          "name": "A#6",
          "ticks": 2773,
          "time": 32.24418604651163,
          "velocity": 0.15748031496062992
        },
        {
          "duration": 0.05813953488372192,
          "durationTicks": 5,
          "midi": 97,
          "name": "C#7",
          "ticks": 2773,
          "time": 32.24418604651163,
          "velocity": 0.1889763779527559
        },
        {
          "duration": 0.06976744186046346,
          "durationTicks": 6,
          "midi": 99,
          "name": "D#7",
          "ticks": 2773,
          "time": 32.24418604651163,
          "velocity": 0.16535433070866143
        },
        {
          "duration": 0.03488372093023173,
          "durationTicks": 3,
          "midi": 100,
          "name": "E7",
          "ticks": 2773,
          "time": 32.24418604651163,
          "velocity": 0.1968503937007874
        },
        {
          "duration": 0.03488372093023173,
          "durationTicks": 3,
          "midi": 103,
          "name": "G7",
          "ticks": 2773,
          "time": 32.24418604651163,
          "velocity": 0.11811023622047244
        },
        {
          "duration": 0.011627906976748648,
          "durationTicks": 1,
          "midi": 43,
          "name": "G2",
          "ticks": 2774,
          "time": 32.25581395348837,
          "velocity": 0.5984251968503937
        },
        {
          "duration": 0.011627906976741542,
          "durationTicks": 1,
          "midi": 29,
          "name": "F1",
          "ticks": 2775,
          "time": 32.26744186046512,
          "velocity": 0.5590551181102362
        },
        {
          "duration": 0.023255813953483084,
          "durationTicks": 2,
          "midi": 41,
          "name": "F2",
          "ticks": 2775,
          "time": 32.26744186046512,
          "velocity": 0.6614173228346457
        },
        {
          "duration": 0.023255813953483084,
          "durationTicks": 2,
          "midi": 56,
          "name": "G#3",
          "ticks": 2775,
          "time": 32.26744186046512,
          "velocity": 0.4409448818897638
        },
        {
          "duration": 0.023255813953483084,
          "durationTicks": 2,
          "midi": 63,
          "name": "D#4",
          "ticks": 2775,
          "time": 32.26744186046512,
          "velocity": 0.3858267716535433
        },
        {
          "duration": 0.023255813953483084,
          "durationTicks": 2,
          "midi": 67,
          "name": "G4",
          "ticks": 2775,
          "time": 32.26744186046512,
          "velocity": 0.2440944881889764
        },
        {
          "duration": 0.011627906976748648,
          "durationTicks": 1,
          "midi": 36,
          "name": "C2",
          "ticks": 2777,
          "time": 32.2906976744186,
          "velocity": 0.5905511811023622
        },
        {
          "duration": 0.011627906976748648,
          "durationTicks": 1,
          "midi": 43,
          "name": "G2",
          "ticks": 2777,
          "time": 32.2906976744186,
          "velocity": 0.5511811023622047
        },
        {
          "duration": 0.08139534883721211,
          "durationTicks": 7,
          "midi": 62,
          "name": "D4",
          "ticks": 2777,
          "time": 32.2906976744186,
          "velocity": 0.30708661417322836
        },
        {
          "duration": 0.03488372093023173,
          "durationTicks": 3,
          "midi": 84,
          "name": "C6",
          "ticks": 2777,
          "time": 32.2906976744186,
          "velocity": 0.14173228346456693
        },
        {
          "duration": 0.011627906976741542,
          "durationTicks": 1,
          "midi": 34,
          "name": "A#1",
          "ticks": 2778,
          "time": 32.30232558139535,
          "velocity": 0.5748031496062992
        },
        {
          "duration": 0.02325581395349019,
          "durationTicks": 2,
          "midi": 36,
          "name": "C2",
          "ticks": 2779,
          "time": 32.31395348837209,
          "velocity": 0.7007874015748031
        },
        {
          "duration": 0.02325581395349019,
          "durationTicks": 2,
          "midi": 53,
          "name": "F3",
          "ticks": 2779,
          "time": 32.31395348837209,
          "velocity": 0.3858267716535433
        },
        {
          "duration": 0.011627906976741542,
          "durationTicks": 1,
          "midi": 34,
          "name": "A#1",
          "ticks": 2781,
          "time": 32.33720930232558,
          "velocity": 0.6929133858267716
        },
        {
          "duration": 0.02325581395349019,
          "durationTicks": 2,
          "midi": 54,
          "name": "F#3",
          "ticks": 2781,
          "time": 32.33720930232558,
          "velocity": 0.3228346456692913
        },
        {
          "duration": 0.011627906976748648,
          "durationTicks": 1,
          "midi": 35,
          "name": "B1",
          "ticks": 2782,
          "time": 32.348837209302324,
          "velocity": 0.7165354330708661
        },
        {
          "duration": 0.011627906976741542,
          "durationTicks": 1,
          "midi": 36,
          "name": "C2",
          "ticks": 2783,
          "time": 32.36046511627907,
          "velocity": 0.7007874015748031
        },
        {
          "duration": 0.023255813953483084,
          "durationTicks": 2,
          "midi": 50,
          "name": "D3",
          "ticks": 2783,
          "time": 32.36046511627907,
          "velocity": 0.3543307086614173
        },
        {
          "duration": 0.02325581395349019,
          "durationTicks": 2,
          "midi": 35,
          "name": "B1",
          "ticks": 2784,
          "time": 32.372093023255815,
          "velocity": 0.6850393700787402
        },
        {
          "duration": 0.03488372093023173,
          "durationTicks": 3,
          "midi": 97,
          "name": "C#7",
          "ticks": 2784,
          "time": 32.372093023255815,
          "velocity": 0.13385826771653545
        },
        {
          "duration": 0.03488372093023173,
          "durationTicks": 3,
          "midi": 100,
          "name": "E7",
          "ticks": 2784,
          "time": 32.372093023255815,
          "velocity": 0.1889763779527559
        },
        {
          "duration": 0.03488372093023173,
          "durationTicks": 3,
          "midi": 101,
          "name": "F7",
          "ticks": 2784,
          "time": 32.372093023255815,
          "velocity": 0.16535433070866143
        },
        {
          "duration": 0.02325581395349019,
          "durationTicks": 2,
          "midi": 56,
          "name": "G#3",
          "ticks": 2785,
          "time": 32.383720930232556,
          "velocity": 0.25196850393700787
        },
        {
          "duration": 0.04651162790698038,
          "durationTicks": 4,
          "midi": 62,
          "name": "D4",
          "ticks": 2785,
          "time": 32.383720930232556,
          "velocity": 0.18110236220472442
        },
        {
          "duration": 0.04651162790698038,
          "durationTicks": 4,
          "midi": 99,
          "name": "D#7",
          "ticks": 2785,
          "time": 32.383720930232556,
          "velocity": 0.14960629921259844
        },
        {
          "duration": 0.046511627906973274,
          "durationTicks": 4,
          "midi": 36,
          "name": "C2",
          "ticks": 2786,
          "time": 32.395348837209305,
          "velocity": 0.6771653543307087
        },
        {
          "duration": 0.02325581395349019,
          "durationTicks": 2,
          "midi": 35,
          "name": "B1",
          "ticks": 2790,
          "time": 32.44186046511628,
          "velocity": 0.5511811023622047
        },
        {
          "duration": 0.04651162790698038,
          "durationTicks": 4,
          "midi": 78,
          "name": "F#5",
          "ticks": 2796,
          "time": 32.51162790697674,
          "velocity": 0.2125984251968504
        },
        {
          "duration": 0.03488372093023173,
          "durationTicks": 3,
          "midi": 87,
          "name": "D#6",
          "ticks": 2796,
          "time": 32.51162790697674,
          "velocity": 0.2125984251968504
        },
        {
          "duration": 0.08139534883721211,
          "durationTicks": 7,
          "midi": 91,
          "name": "G6",
          "ticks": 2796,
          "time": 32.51162790697674,
          "velocity": 0.1889763779527559
        },
        {
          "duration": 0.05813953488372192,
          "durationTicks": 5,
          "midi": 94,
          "name": "A#6",
          "ticks": 2796,
          "time": 32.51162790697674,
          "velocity": 0.29133858267716534
        },
        {
          "duration": 0.06976744186047057,
          "durationTicks": 6,
          "midi": 98,
          "name": "D7",
          "ticks": 2796,
          "time": 32.51162790697674,
          "velocity": 0.18110236220472442
        },
        {
          "duration": 0.06976744186047057,
          "durationTicks": 6,
          "midi": 100,
          "name": "E7",
          "ticks": 2796,
          "time": 32.51162790697674,
          "velocity": 0.2047244094488189
        },
        {
          "duration": 0.06976744186047057,
          "durationTicks": 6,
          "midi": 101,
          "name": "F7",
          "ticks": 2796,
          "time": 32.51162790697674,
          "velocity": 0.14173228346456693
        },
        {
          "duration": 0.03488372093023173,
          "durationTicks": 3,
          "midi": 83,
          "name": "B5",
          "ticks": 2797,
          "time": 32.52325581395349,
          "velocity": 0.1732283464566929
        },
        {
          "duration": 0.09302325581395365,
          "durationTicks": 8,
          "midi": 85,
          "name": "C#6",
          "ticks": 2797,
          "time": 32.52325581395349,
          "velocity": 0.2755905511811024
        },
        {
          "duration": 0.03488372093023173,
          "durationTicks": 3,
          "midi": 86,
          "name": "D6",
          "ticks": 2797,
          "time": 32.52325581395349,
          "velocity": 0.25984251968503935
        },
        {
          "duration": 0.11627906976743674,
          "durationTicks": 10,
          "midi": 89,
          "name": "F6",
          "ticks": 2797,
          "time": 32.52325581395349,
          "velocity": 0.29133858267716534
        },
        {
          "duration": 0.023255813953483084,
          "durationTicks": 2,
          "midi": 90,
          "name": "F#6",
          "ticks": 2797,
          "time": 32.52325581395349,
          "velocity": 0.2283464566929134
        },
        {
          "duration": 0.023255813953483084,
          "durationTicks": 2,
          "midi": 93,
          "name": "A6",
          "ticks": 2797,
          "time": 32.52325581395349,
          "velocity": 0.2992125984251969
        },
        {
          "duration": 0.05813953488372192,
          "durationTicks": 5,
          "midi": 96,
          "name": "C7",
          "ticks": 2797,
          "time": 32.52325581395349,
          "velocity": 0.12598425196850394
        },
        {
          "duration": 0.011627906976741542,
          "durationTicks": 1,
          "midi": 41,
          "name": "F2",
          "ticks": 2798,
          "time": 32.53488372093023,
          "velocity": 0.5354330708661418
        },
        {
          "duration": 0.02325581395349019,
          "durationTicks": 2,
          "midi": 51,
          "name": "D#3",
          "ticks": 2798,
          "time": 32.53488372093023,
          "velocity": 0.29133858267716534
        },
        {
          "duration": 0.02325581395349019,
          "durationTicks": 2,
          "midi": 56,
          "name": "G#3",
          "ticks": 2798,
          "time": 32.53488372093023,
          "velocity": 0.29133858267716534
        },
        {
          "duration": 0.02325581395349019,
          "durationTicks": 2,
          "midi": 60,
          "name": "C4",
          "ticks": 2798,
          "time": 32.53488372093023,
          "velocity": 0.33070866141732286
        },
        {
          "duration": 0.06976744186046346,
          "durationTicks": 6,
          "midi": 79,
          "name": "G5",
          "ticks": 2798,
          "time": 32.53488372093023,
          "velocity": 0.13385826771653545
        },
        {
          "duration": 0.011627906976748648,
          "durationTicks": 1,
          "midi": 40,
          "name": "E2",
          "ticks": 2799,
          "time": 32.54651162790697,
          "velocity": 0.6141732283464567
        },
        {
          "duration": 0.03488372093023884,
          "durationTicks": 3,
          "midi": 88,
          "name": "E6",
          "ticks": 2799,
          "time": 32.54651162790697,
          "velocity": 0.1968503937007874
        },
        {
          "duration": 0.04651162790698038,
          "durationTicks": 4,
          "midi": 92,
          "name": "G#6",
          "ticks": 2799,
          "time": 32.54651162790697,
          "velocity": 0.28346456692913385
        },
        {
          "duration": 0.011627906976741542,
          "durationTicks": 1,
          "midi": 37,
          "name": "C#2",
          "ticks": 2800,
          "time": 32.55813953488372,
          "velocity": 0.5905511811023622
        },
        {
          "duration": 0.05813953488372192,
          "durationTicks": 5,
          "midi": 77,
          "name": "F5",
          "ticks": 2800,
          "time": 32.55813953488372,
          "velocity": 0.14173228346456693
        },
        {
          "duration": 0.03488372093023173,
          "durationTicks": 3,
          "midi": 82,
          "name": "A#5",
          "ticks": 2800,
          "time": 32.55813953488372,
          "velocity": 0.11023622047244094
        },
        {
          "duration": 0.03488372093023173,
          "durationTicks": 3,
          "midi": 84,
          "name": "C6",
          "ticks": 2800,
          "time": 32.55813953488372,
          "velocity": 0.15748031496062992
        },
        {
          "duration": 0.12790697674418539,
          "durationTicks": 11,
          "midi": 93,
          "name": "A6",
          "ticks": 2800,
          "time": 32.55813953488372,
          "velocity": 0.14960629921259844
        },
        {
          "duration": 0.011627906976748648,
          "durationTicks": 1,
          "midi": 34,
          "name": "A#1",
          "ticks": 2801,
          "time": 32.56976744186046,
          "velocity": 0.5590551181102362
        },
        {
          "duration": 0.02325581395349019,
          "durationTicks": 2,
          "midi": 56,
          "name": "G#3",
          "ticks": 2801,
          "time": 32.56976744186046,
          "velocity": 0.3464566929133858
        },
        {
          "duration": 0.011627906976741542,
          "durationTicks": 1,
          "midi": 33,
          "name": "A1",
          "ticks": 2802,
          "time": 32.58139534883721,
          "velocity": 0.6062992125984252
        },
        {
          "duration": 0.046511627906973274,
          "durationTicks": 4,
          "midi": 36,
          "name": "C2",
          "ticks": 2803,
          "time": 32.593023255813954,
          "velocity": 0.6614173228346457
        },
        {
          "duration": 0.02325581395349019,
          "durationTicks": 2,
          "midi": 57,
          "name": "A3",
          "ticks": 2803,
          "time": 32.593023255813954,
          "velocity": 0.33070866141732286
        },
        {
          "duration": 0.03488372093023173,
          "durationTicks": 3,
          "midi": 62,
          "name": "D4",
          "ticks": 2803,
          "time": 32.593023255813954,
          "velocity": 0.25196850393700787
        },
        {
          "duration": 0.046511627906973274,
          "durationTicks": 4,
          "midi": 56,
          "name": "G#3",
          "ticks": 2805,
          "time": 32.616279069767444,
          "velocity": 0.18110236220472442
        },
        {
          "duration": 0.046511627906973274,
          "durationTicks": 4,
          "midi": 84,
          "name": "C6",
          "ticks": 2805,
          "time": 32.616279069767444,
          "velocity": 0.07086614173228346
        },
        {
          "duration": 0.011627906976748648,
          "durationTicks": 1,
          "midi": 35,
          "name": "B1",
          "ticks": 2807,
          "time": 32.63953488372093,
          "velocity": 0.6220472440944882
        },
        {
          "duration": 0.011627906976741542,
          "durationTicks": 1,
          "midi": 34,
          "name": "A#1",
          "ticks": 2808,
          "time": 32.651162790697676,
          "velocity": 0.5669291338582677
        },
        {
          "duration": 0.046511627906973274,
          "durationTicks": 4,
          "midi": 99,
          "name": "D#7",
          "ticks": 2808,
          "time": 32.651162790697676,
          "velocity": 0.14173228346456693
        },
        {
          "duration": 0.011627906976748648,
          "durationTicks": 1,
          "midi": 39,
          "name": "D#2",
          "ticks": 2809,
          "time": 32.66279069767442,
          "velocity": 0.5590551181102362
        },
        {
          "duration": 0.011627906976741542,
          "durationTicks": 1,
          "midi": 38,
          "name": "D2",
          "ticks": 2810,
          "time": 32.674418604651166,
          "velocity": 0.5905511811023622
        },
        {
          "duration": 0.011627906976741542,
          "durationTicks": 1,
          "midi": 35,
          "name": "B1",
          "ticks": 2811,
          "time": 32.68604651162791,
          "velocity": 0.5511811023622047
        },
        {
          "duration": 0.011627906976748648,
          "durationTicks": 1,
          "midi": 34,
          "name": "A#1",
          "ticks": 2815,
          "time": 32.73255813953488,
          "velocity": 0.5196850393700787
        },
        {
          "duration": 0.011627906976741542,
          "durationTicks": 1,
          "midi": 35,
          "name": "B1",
          "ticks": 2816,
          "time": 32.74418604651163,
          "velocity": 0.5433070866141733
        },
        {
          "duration": 0.011627906976741542,
          "durationTicks": 1,
          "midi": 32,
          "name": "G#1",
          "ticks": 2819,
          "time": 32.77906976744186,
          "velocity": 0.5354330708661418
        },
        {
          "duration": 0.046511627906973274,
          "durationTicks": 4,
          "midi": 51,
          "name": "D#3",
          "ticks": 2819,
          "time": 32.77906976744186,
          "velocity": 0.5905511811023622
        },
        {
          "duration": 0.02325581395349019,
          "durationTicks": 2,
          "midi": 60,
          "name": "C4",
          "ticks": 2819,
          "time": 32.77906976744186,
          "velocity": 0.4094488188976378
        },
        {
          "duration": 0.02325581395349019,
          "durationTicks": 2,
          "midi": 65,
          "name": "F4",
          "ticks": 2819,
          "time": 32.77906976744186,
          "velocity": 0.2755905511811024
        },
        {
          "duration": 0.011627906976748648,
          "durationTicks": 1,
          "midi": 33,
          "name": "A1",
          "ticks": 2820,
          "time": 32.7906976744186,
          "velocity": 0.5984251968503937
        },
        {
          "duration": 0.02325581395349019,
          "durationTicks": 2,
          "midi": 67,
          "name": "G4",
          "ticks": 2820,
          "time": 32.7906976744186,
          "velocity": 0.29133858267716534
        },
        {
          "duration": 0.03488372093023173,
          "durationTicks": 3,
          "midi": 74,
          "name": "D5",
          "ticks": 2820,
          "time": 32.7906976744186,
          "velocity": 0.18110236220472442
        },
        {
          "duration": 0.011627906976741542,
          "durationTicks": 1,
          "midi": 34,
          "name": "A#1",
          "ticks": 2821,
          "time": 32.80232558139535,
          "velocity": 0.5984251968503937
        },
        {
          "duration": 0.023255813953483084,
          "durationTicks": 2,
          "midi": 64,
          "name": "E4",
          "ticks": 2821,
          "time": 32.80232558139535,
          "velocity": 0.33070866141732286
        },
        {
          "duration": 0.011627906976741542,
          "durationTicks": 1,
          "midi": 32,
          "name": "G#1",
          "ticks": 2822,
          "time": 32.81395348837209,
          "velocity": 0.5905511811023622
        },
        {
          "duration": 0.03488372093023173,
          "durationTicks": 3,
          "midi": 70,
          "name": "A#4",
          "ticks": 2822,
          "time": 32.81395348837209,
          "velocity": 0.1968503937007874
        },
        {
          "duration": 0.011627906976748648,
          "durationTicks": 1,
          "midi": 20,
          "name": "G#0",
          "ticks": 2823,
          "time": 32.825581395348834,
          "velocity": 0.5354330708661418
        },
        {
          "duration": 0.011627906976748648,
          "durationTicks": 1,
          "midi": 42,
          "name": "F#2",
          "ticks": 2823,
          "time": 32.825581395348834,
          "velocity": 0.6456692913385826
        },
        {
          "duration": 0.02325581395349019,
          "durationTicks": 2,
          "midi": 40,
          "name": "E2",
          "ticks": 2824,
          "time": 32.83720930232558,
          "velocity": 0.6456692913385826
        },
        {
          "duration": 0.081395348837205,
          "durationTicks": 7,
          "midi": 62,
          "name": "D4",
          "ticks": 2824,
          "time": 32.83720930232558,
          "velocity": 0.4094488188976378
        },
        {
          "duration": 0.02325581395349019,
          "durationTicks": 2,
          "midi": 32,
          "name": "G#1",
          "ticks": 2825,
          "time": 32.848837209302324,
          "velocity": 0.6299212598425197
        },
        {
          "duration": 0.011627906976748648,
          "durationTicks": 1,
          "midi": 48,
          "name": "C3",
          "ticks": 2825,
          "time": 32.848837209302324,
          "velocity": 0.5354330708661418
        },
        {
          "duration": 0.011627906976741542,
          "durationTicks": 1,
          "midi": 41,
          "name": "F2",
          "ticks": 2826,
          "time": 32.86046511627907,
          "velocity": 0.5905511811023622
        },
        {
          "duration": 0.023255813953483084,
          "durationTicks": 2,
          "midi": 57,
          "name": "A3",
          "ticks": 2826,
          "time": 32.86046511627907,
          "velocity": 0.47244094488188976
        },
        {
          "duration": 0.011627906976741542,
          "durationTicks": 1,
          "midi": 31,
          "name": "G1",
          "ticks": 2827,
          "time": 32.872093023255815,
          "velocity": 0.7086614173228346
        },
        {
          "duration": 0.011627906976748648,
          "durationTicks": 1,
          "midi": 33,
          "name": "A1",
          "ticks": 2828,
          "time": 32.883720930232556,
          "velocity": 0.7244094488188977
        },
        {
          "duration": 0.011627906976748648,
          "durationTicks": 1,
          "midi": 43,
          "name": "G2",
          "ticks": 2828,
          "time": 32.883720930232556,
          "velocity": 0.5669291338582677
        },
        {
          "duration": 0.02325581395349019,
          "durationTicks": 2,
          "midi": 56,
          "name": "G#3",
          "ticks": 2828,
          "time": 32.883720930232556,
          "velocity": 0.44881889763779526
        },
        {
          "duration": 0.011627906976741542,
          "durationTicks": 1,
          "midi": 35,
          "name": "B1",
          "ticks": 2829,
          "time": 32.895348837209305,
          "velocity": 0.7637795275590551
        },
        {
          "duration": 0.011627906976741542,
          "durationTicks": 1,
          "midi": 37,
          "name": "C#2",
          "ticks": 2830,
          "time": 32.906976744186046,
          "velocity": 0.7165354330708661
        },
        {
          "duration": 0.011627906976748648,
          "durationTicks": 1,
          "midi": 36,
          "name": "C2",
          "ticks": 2831,
          "time": 32.91860465116279,
          "velocity": 0.6614173228346457
        },
        {
          "duration": 0.011627906976741542,
          "durationTicks": 1,
          "midi": 34,
          "name": "A#1",
          "ticks": 2832,
          "time": 32.93023255813954,
          "velocity": 0.6850393700787402
        },
        {
          "duration": 0.02325581395349019,
          "durationTicks": 2,
          "midi": 62,
          "name": "D4",
          "ticks": 2832,
          "time": 32.93023255813954,
          "velocity": 0.3228346456692913
        },
        {
          "duration": 0.011627906976748648,
          "durationTicks": 1,
          "midi": 35,
          "name": "B1",
          "ticks": 2833,
          "time": 32.94186046511628,
          "velocity": 0.7007874015748031
        },
        {
          "duration": 0.011627906976741542,
          "durationTicks": 1,
          "midi": 36,
          "name": "C2",
          "ticks": 2834,
          "time": 32.95348837209303,
          "velocity": 0.6535433070866141
        },
        {
          "duration": 0.023255813953483084,
          "durationTicks": 2,
          "midi": 57,
          "name": "A3",
          "ticks": 2834,
          "time": 32.95348837209303,
          "velocity": 0.28346456692913385
        },
        {
          "duration": 0.011627906976741542,
          "durationTicks": 1,
          "midi": 35,
          "name": "B1",
          "ticks": 2835,
          "time": 32.96511627906977,
          "velocity": 0.5905511811023622
        },
        {
          "duration": 0.011627906976741542,
          "durationTicks": 1,
          "midi": 38,
          "name": "D2",
          "ticks": 2835,
          "time": 32.96511627906977,
          "velocity": 0.5196850393700787
        },
        {
          "duration": 0.011627906976748648,
          "durationTicks": 1,
          "midi": 33,
          "name": "A1",
          "ticks": 2836,
          "time": 32.97674418604651,
          "velocity": 0.6299212598425197
        },
        {
          "duration": 0.011627906976741542,
          "durationTicks": 1,
          "midi": 35,
          "name": "B1",
          "ticks": 2837,
          "time": 32.98837209302326,
          "velocity": 0.6299212598425197
        },
        {
          "duration": 0.03488372093023173,
          "durationTicks": 3,
          "midi": 62,
          "name": "D4",
          "ticks": 2837,
          "time": 32.98837209302326,
          "velocity": 0.18110236220472442
        },
        {
          "duration": 0.011627906976741542,
          "durationTicks": 1,
          "midi": 31,
          "name": "G1",
          "ticks": 2838,
          "time": 33,
          "velocity": 0.5590551181102362
        },
        {
          "duration": 0.011627906976741542,
          "durationTicks": 1,
          "midi": 39,
          "name": "D#2",
          "ticks": 2838,
          "time": 33,
          "velocity": 0.5354330708661418
        },
        {
          "duration": 0.011627906976748648,
          "durationTicks": 1,
          "midi": 30,
          "name": "F#1",
          "ticks": 2839,
          "time": 33.01162790697674,
          "velocity": 0.5275590551181102
        },
        {
          "duration": 0.011627906976748648,
          "durationTicks": 1,
          "midi": 42,
          "name": "F#2",
          "ticks": 2839,
          "time": 33.01162790697674,
          "velocity": 0.5590551181102362
        },
        {
          "duration": 0.011627906976741542,
          "durationTicks": 1,
          "midi": 29,
          "name": "F1",
          "ticks": 2840,
          "time": 33.02325581395349,
          "velocity": 0.5196850393700787
        },
        {
          "duration": 0.011627906976741542,
          "durationTicks": 1,
          "midi": 41,
          "name": "F2",
          "ticks": 2840,
          "time": 33.02325581395349,
          "velocity": 0.5511811023622047
        },
        {
          "duration": 0.011627906976741542,
          "durationTicks": 1,
          "midi": 43,
          "name": "G2",
          "ticks": 2841,
          "time": 33.03488372093023,
          "velocity": 0.5433070866141733
        },
        {
          "duration": 0.02325581395349019,
          "durationTicks": 2,
          "midi": 48,
          "name": "C3",
          "ticks": 2841,
          "time": 33.03488372093023,
          "velocity": 0.48031496062992124
        },
        {
          "duration": 0.02325581395349019,
          "durationTicks": 2,
          "midi": 31,
          "name": "G1",
          "ticks": 2842,
          "time": 33.04651162790697,
          "velocity": 0.5905511811023622
        },
        {
          "duration": 0.02325581395349019,
          "durationTicks": 2,
          "midi": 55,
          "name": "G3",
          "ticks": 2843,
          "time": 33.05813953488372,
          "velocity": 0.2677165354330709
        },
        {
          "duration": 0.011627906976748648,
          "durationTicks": 1,
          "midi": 30,
          "name": "F#1",
          "ticks": 2844,
          "time": 33.06976744186046,
          "velocity": 0.5826771653543307
        },
        {
          "duration": 0.011627906976741542,
          "durationTicks": 1,
          "midi": 29,
          "name": "F1",
          "ticks": 2845,
          "time": 33.08139534883721,
          "velocity": 0.5354330708661418
        },
        {
          "duration": 0.011627906976741542,
          "durationTicks": 1,
          "midi": 41,
          "name": "F2",
          "ticks": 2845,
          "time": 33.08139534883721,
          "velocity": 0.5590551181102362
        },
        {
          "duration": 0.058139534883714816,
          "durationTicks": 5,
          "midi": 56,
          "name": "G#3",
          "ticks": 2845,
          "time": 33.08139534883721,
          "velocity": 0.33858267716535434
        },
        {
          "duration": 0.011627906976741542,
          "durationTicks": 1,
          "midi": 28,
          "name": "E1",
          "ticks": 2846,
          "time": 33.093023255813954,
          "velocity": 0.5669291338582677
        },
        {
          "duration": 0.02325581395349019,
          "durationTicks": 2,
          "midi": 61,
          "name": "C#4",
          "ticks": 2846,
          "time": 33.093023255813954,
          "velocity": 0.2440944881889764
        },
        {
          "duration": 0.011627906976748648,
          "durationTicks": 1,
          "midi": 31,
          "name": "G1",
          "ticks": 2847,
          "time": 33.104651162790695,
          "velocity": 0.5984251968503937
        },
        {
          "duration": 0.011627906976741542,
          "durationTicks": 1,
          "midi": 32,
          "name": "G#1",
          "ticks": 2848,
          "time": 33.116279069767444,
          "velocity": 0.6141732283464567
        },
        {
          "duration": 0.12790697674418539,
          "durationTicks": 11,
          "midi": 62,
          "name": "D4",
          "ticks": 2848,
          "time": 33.116279069767444,
          "velocity": 0.25984251968503935
        },
        {
          "duration": 0.011627906976741542,
          "durationTicks": 1,
          "midi": 35,
          "name": "B1",
          "ticks": 2849,
          "time": 33.127906976744185,
          "velocity": 0.6220472440944882
        },
        {
          "duration": 0.02325581395349019,
          "durationTicks": 2,
          "midi": 57,
          "name": "A3",
          "ticks": 2850,
          "time": 33.13953488372093,
          "velocity": 0.2992125984251969
        },
        {
          "duration": 0.011627906976748648,
          "durationTicks": 1,
          "midi": 29,
          "name": "F1",
          "ticks": 2852,
          "time": 33.16279069767442,
          "velocity": 0.5354330708661418
        },
        {
          "duration": 0.03488372093023173,
          "durationTicks": 3,
          "midi": 56,
          "name": "G#3",
          "ticks": 2852,
          "time": 33.16279069767442,
          "velocity": 0.2125984251968504
        },
        {
          "duration": 0.011627906976741542,
          "durationTicks": 1,
          "midi": 30,
          "name": "F#1",
          "ticks": 2853,
          "time": 33.174418604651166,
          "velocity": 0.5590551181102362
        },
        {
          "duration": 0.03488372093023173,
          "durationTicks": 3,
          "midi": 50,
          "name": "D3",
          "ticks": 2853,
          "time": 33.174418604651166,
          "velocity": 0.3543307086614173
        },
        {
          "duration": 0.011627906976741542,
          "durationTicks": 1,
          "midi": 31,
          "name": "G1",
          "ticks": 2854,
          "time": 33.18604651162791,
          "velocity": 0.5433070866141733
        },
        {
          "duration": 0.02325581395349019,
          "durationTicks": 2,
          "midi": 30,
          "name": "F#1",
          "ticks": 2855,
          "time": 33.19767441860465,
          "velocity": 0.5196850393700787
        },
        {
          "duration": 0.02325581395349019,
          "durationTicks": 2,
          "midi": 41,
          "name": "F2",
          "ticks": 2855,
          "time": 33.19767441860465,
          "velocity": 0.5748031496062992
        },
        {
          "duration": 0.011627906976741542,
          "durationTicks": 1,
          "midi": 37,
          "name": "C#2",
          "ticks": 2857,
          "time": 33.22093023255814,
          "velocity": 0.5984251968503937
        },
        {
          "duration": 0.02325581395349019,
          "durationTicks": 2,
          "midi": 50,
          "name": "D3",
          "ticks": 2857,
          "time": 33.22093023255814,
          "velocity": 0.25196850393700787
        },
        {
          "duration": 0.011627906976748648,
          "durationTicks": 1,
          "midi": 40,
          "name": "E2",
          "ticks": 2858,
          "time": 33.23255813953488,
          "velocity": 0.5590551181102362
        },
        {
          "duration": 0.011627906976748648,
          "durationTicks": 1,
          "midi": 31,
          "name": "G1",
          "ticks": 2860,
          "time": 33.25581395348837,
          "velocity": 0.5118110236220472
        },
        {
          "duration": 0.011627906976741542,
          "durationTicks": 1,
          "midi": 34,
          "name": "A#1",
          "ticks": 2861,
          "time": 33.26744186046512,
          "velocity": 0.5905511811023622
        },
        {
          "duration": 0.011627906976741542,
          "durationTicks": 1,
          "midi": 36,
          "name": "C2",
          "ticks": 2862,
          "time": 33.27906976744186,
          "velocity": 0.5669291338582677
        },
        {
          "duration": 0.011627906976741542,
          "durationTicks": 1,
          "midi": 34,
          "name": "A#1",
          "ticks": 2865,
          "time": 33.31395348837209,
          "velocity": 0.5354330708661418
        },
        {
          "duration": 0.011627906976748648,
          "durationTicks": 1,
          "midi": 35,
          "name": "B1",
          "ticks": 2866,
          "time": 33.325581395348834,
          "velocity": 0.5669291338582677
        },
        {
          "duration": 0.011627906976741542,
          "durationTicks": 1,
          "midi": 33,
          "name": "A1",
          "ticks": 2867,
          "time": 33.33720930232558,
          "velocity": 0.5590551181102362
        },
        {
          "duration": 0.011627906976741542,
          "durationTicks": 1,
          "midi": 44,
          "name": "G#2",
          "ticks": 2867,
          "time": 33.33720930232558,
          "velocity": 0.5354330708661418
        },
        {
          "duration": 0.011627906976748648,
          "durationTicks": 1,
          "midi": 42,
          "name": "F#2",
          "ticks": 2868,
          "time": 33.348837209302324,
          "velocity": 0.6141732283464567
        },
        {
          "duration": 0.011627906976741542,
          "durationTicks": 1,
          "midi": 29,
          "name": "F1",
          "ticks": 2869,
          "time": 33.36046511627907,
          "velocity": 0.5511811023622047
        },
        {
          "duration": 0.023255813953483084,
          "durationTicks": 2,
          "midi": 41,
          "name": "F2",
          "ticks": 2869,
          "time": 33.36046511627907,
          "velocity": 0.6614173228346457
        },
        {
          "duration": 0.023255813953483084,
          "durationTicks": 2,
          "midi": 63,
          "name": "D#4",
          "ticks": 2869,
          "time": 33.36046511627907,
          "velocity": 0.3937007874015748
        },
        {
          "duration": 0.02325581395349019,
          "durationTicks": 2,
          "midi": 56,
          "name": "G#3",
          "ticks": 2870,
          "time": 33.372093023255815,
          "velocity": 0.3937007874015748
        },
        {
          "duration": 0.011627906976748648,
          "durationTicks": 1,
          "midi": 36,
          "name": "C2",
          "ticks": 2871,
          "time": 33.383720930232556,
          "velocity": 0.5748031496062992
        },
        {
          "duration": 0.011627906976748648,
          "durationTicks": 1,
          "midi": 43,
          "name": "G2",
          "ticks": 2871,
          "time": 33.383720930232556,
          "velocity": 0.5590551181102362
        },
        {
          "duration": 0.15116279069767558,
          "durationTicks": 13,
          "midi": 62,
          "name": "D4",
          "ticks": 2871,
          "time": 33.383720930232556,
          "velocity": 0.3228346456692913
        },
        {
          "duration": 0.011627906976741542,
          "durationTicks": 1,
          "midi": 33,
          "name": "A1",
          "ticks": 2872,
          "time": 33.395348837209305,
          "velocity": 0.5905511811023622
        },
        {
          "duration": 0.02325581395349019,
          "durationTicks": 2,
          "midi": 36,
          "name": "C2",
          "ticks": 2873,
          "time": 33.406976744186046,
          "velocity": 0.7086614173228346
        },
        {
          "duration": 0.02325581395349019,
          "durationTicks": 2,
          "midi": 53,
          "name": "F3",
          "ticks": 2873,
          "time": 33.406976744186046,
          "velocity": 0.3858267716535433
        },
        {
          "duration": 0.011627906976741542,
          "durationTicks": 1,
          "midi": 34,
          "name": "A#1",
          "ticks": 2875,
          "time": 33.43023255813954,
          "velocity": 0.7007874015748031
        },
        {
          "duration": 0.02325581395349019,
          "durationTicks": 2,
          "midi": 54,
          "name": "F#3",
          "ticks": 2875,
          "time": 33.43023255813954,
          "velocity": 0.30708661417322836
        },
        {
          "duration": 0.011627906976748648,
          "durationTicks": 1,
          "midi": 35,
          "name": "B1",
          "ticks": 2876,
          "time": 33.44186046511628,
          "velocity": 0.7244094488188977
        },
        {
          "duration": 0.011627906976741542,
          "durationTicks": 1,
          "midi": 36,
          "name": "C2",
          "ticks": 2877,
          "time": 33.45348837209303,
          "velocity": 0.7007874015748031
        },
        {
          "duration": 0.023255813953483084,
          "durationTicks": 2,
          "midi": 50,
          "name": "D3",
          "ticks": 2877,
          "time": 33.45348837209303,
          "velocity": 0.3464566929133858
        },
        {
          "duration": 0.02325581395349019,
          "durationTicks": 2,
          "midi": 35,
          "name": "B1",
          "ticks": 2878,
          "time": 33.46511627906977,
          "velocity": 0.6929133858267716
        },
        {
          "duration": 0.02325581395349019,
          "durationTicks": 2,
          "midi": 56,
          "name": "G#3",
          "ticks": 2879,
          "time": 33.47674418604651,
          "velocity": 0.2440944881889764
        },
        {
          "duration": 0.046511627906973274,
          "durationTicks": 4,
          "midi": 36,
          "name": "C2",
          "ticks": 2880,
          "time": 33.48837209302326,
          "velocity": 0.6929133858267716
        },
        {
          "duration": 0.03488372093023173,
          "durationTicks": 3,
          "midi": 35,
          "name": "B1",
          "ticks": 2884,
          "time": 33.53488372093023,
          "velocity": 0.5511811023622047
        },
        {
          "duration": 0.023255813953483084,
          "durationTicks": 2,
          "midi": 48,
          "name": "C3",
          "ticks": 2888,
          "time": 33.58139534883721,
          "velocity": 0.29133858267716534
        },
        {
          "duration": 0.023255813953483084,
          "durationTicks": 2,
          "midi": 41,
          "name": "F2",
          "ticks": 2891,
          "time": 33.616279069767444,
          "velocity": 0.5511811023622047
        },
        {
          "duration": 0.02325581395349019,
          "durationTicks": 2,
          "midi": 56,
          "name": "G#3",
          "ticks": 2892,
          "time": 33.627906976744185,
          "velocity": 0.30708661417322836
        },
        {
          "duration": 0.011627906976748648,
          "durationTicks": 1,
          "midi": 40,
          "name": "E2",
          "ticks": 2893,
          "time": 33.63953488372093,
          "velocity": 0.6062992125984252
        },
        {
          "duration": 0.02325581395349019,
          "durationTicks": 2,
          "midi": 50,
          "name": "D3",
          "ticks": 2893,
          "time": 33.63953488372093,
          "velocity": 0.2440944881889764
        },
        {
          "duration": 0.011627906976741542,
          "durationTicks": 1,
          "midi": 37,
          "name": "C#2",
          "ticks": 2894,
          "time": 33.651162790697676,
          "velocity": 0.5748031496062992
        },
        {
          "duration": 0.02325581395349019,
          "durationTicks": 2,
          "midi": 34,
          "name": "A#1",
          "ticks": 2895,
          "time": 33.66279069767442,
          "velocity": 0.6062992125984252
        },
        {
          "duration": 0.02325581395349019,
          "durationTicks": 2,
          "midi": 56,
          "name": "G#3",
          "ticks": 2895,
          "time": 33.66279069767442,
          "velocity": 0.33070866141732286
        },
        {
          "duration": 0.02325581395349019,
          "durationTicks": 2,
          "midi": 36,
          "name": "C2",
          "ticks": 2897,
          "time": 33.68604651162791,
          "velocity": 0.5354330708661418
        },
        {
          "duration": 0.1046511627906952,
          "durationTicks": 9,
          "midi": 62,
          "name": "D4",
          "ticks": 2897,
          "time": 33.68604651162791,
          "velocity": 0.2440944881889764
        },
        {
          "duration": 0.02325581395349019,
          "durationTicks": 2,
          "midi": 35,
          "name": "B1",
          "ticks": 2898,
          "time": 33.69767441860465,
          "velocity": 0.5590551181102362
        },
        {
          "duration": 0.04651162790698038,
          "durationTicks": 4,
          "midi": 56,
          "name": "G#3",
          "ticks": 2898,
          "time": 33.69767441860465,
          "velocity": 0.2283464566929134
        },
        {
          "duration": 0.011627906976741542,
          "durationTicks": 1,
          "midi": 36,
          "name": "C2",
          "ticks": 2900,
          "time": 33.72093023255814,
          "velocity": 0.6377952755905512
        },
        {
          "duration": 0.011627906976748648,
          "durationTicks": 1,
          "midi": 35,
          "name": "B1",
          "ticks": 2901,
          "time": 33.73255813953488,
          "velocity": 0.6062992125984252
        },
        {
          "duration": 0.011627906976741542,
          "durationTicks": 1,
          "midi": 34,
          "name": "A#1",
          "ticks": 2902,
          "time": 33.74418604651163,
          "velocity": 0.5669291338582677
        },
        {
          "duration": 0.011627906976748648,
          "durationTicks": 1,
          "midi": 39,
          "name": "D#2",
          "ticks": 2903,
          "time": 33.75581395348837,
          "velocity": 0.5669291338582677
        },
        {
          "duration": 0.011627906976741542,
          "durationTicks": 1,
          "midi": 37,
          "name": "C#2",
          "ticks": 2904,
          "time": 33.76744186046512,
          "velocity": 0.6062992125984252
        },
        {
          "duration": 0.011627906976741542,
          "durationTicks": 1,
          "midi": 35,
          "name": "B1",
          "ticks": 2905,
          "time": 33.77906976744186,
          "velocity": 0.5511811023622047
        },
        {
          "duration": 0.02325581395349019,
          "durationTicks": 2,
          "midi": 41,
          "name": "F2",
          "ticks": 2906,
          "time": 33.7906976744186,
          "velocity": 0.3858267716535433
        },
        {
          "duration": 0.011627906976741542,
          "durationTicks": 1,
          "midi": 35,
          "name": "B1",
          "ticks": 2910,
          "time": 33.83720930232558,
          "velocity": 0.5196850393700787
        },
        {
          "duration": 0.023255813953483084,
          "durationTicks": 2,
          "midi": 50,
          "name": "D3",
          "ticks": 2912,
          "time": 33.86046511627907,
          "velocity": 0.3543307086614173
        },
        {
          "duration": 0.011627906976741542,
          "durationTicks": 1,
          "midi": 33,
          "name": "A1",
          "ticks": 2913,
          "time": 33.872093023255815,
          "velocity": 0.5511811023622047
        },
        {
          "duration": 0.046511627906973274,
          "durationTicks": 4,
          "midi": 60,
          "name": "C4",
          "ticks": 2913,
          "time": 33.872093023255815,
          "velocity": 0.4015748031496063
        },
        {
          "duration": 0.02325581395349019,
          "durationTicks": 2,
          "midi": 34,
          "name": "A#1",
          "ticks": 2914,
          "time": 33.883720930232556,
          "velocity": 0.6141732283464567
        },
        {
          "duration": 0.03488372093023173,
          "durationTicks": 3,
          "midi": 51,
          "name": "D#3",
          "ticks": 2914,
          "time": 33.883720930232556,
          "velocity": 0.5826771653543307
        },
        {
          "duration": 0.02325581395349019,
          "durationTicks": 2,
          "midi": 67,
          "name": "G4",
          "ticks": 2914,
          "time": 33.883720930232556,
          "velocity": 0.29133858267716534
        },
        {
          "duration": 0.03488372093023173,
          "durationTicks": 3,
          "midi": 74,
          "name": "D5",
          "ticks": 2914,
          "time": 33.883720930232556,
          "velocity": 0.15748031496062992
        },
        {
          "duration": 0.023255813953483084,
          "durationTicks": 2,
          "midi": 64,
          "name": "E4",
          "ticks": 2915,
          "time": 33.895348837209305,
          "velocity": 0.3228346456692913
        },
        {
          "duration": 0.011627906976741542,
          "durationTicks": 1,
          "midi": 32,
          "name": "G#1",
          "ticks": 2916,
          "time": 33.906976744186046,
          "velocity": 0.5905511811023622
        },
        {
          "duration": 0.03488372093023173,
          "durationTicks": 3,
          "midi": 70,
          "name": "A#4",
          "ticks": 2916,
          "time": 33.906976744186046,
          "velocity": 0.1968503937007874
        },
        {
          "duration": 0.011627906976748648,
          "durationTicks": 1,
          "midi": 21,
          "name": "A0",
          "ticks": 2917,
          "time": 33.91860465116279,
          "velocity": 0.5354330708661418
        },
        {
          "duration": 0.011627906976748648,
          "durationTicks": 1,
          "midi": 42,
          "name": "F#2",
          "ticks": 2917,
          "time": 33.91860465116279,
          "velocity": 0.6456692913385826
        },
        {
          "duration": 0.02325581395349019,
          "durationTicks": 2,
          "midi": 40,
          "name": "E2",
          "ticks": 2918,
          "time": 33.93023255813954,
          "velocity": 0.6456692913385826
        },
        {
          "duration": 0.081395348837205,
          "durationTicks": 7,
          "midi": 62,
          "name": "D4",
          "ticks": 2918,
          "time": 33.93023255813954,
          "velocity": 0.4094488188976378
        },
        {
          "duration": 0.02325581395349019,
          "durationTicks": 2,
          "midi": 32,
          "name": "G#1",
          "ticks": 2919,
          "time": 33.94186046511628,
          "velocity": 0.6220472440944882
        },
        {
          "duration": 0.02325581395349019,
          "durationTicks": 2,
          "midi": 48,
          "name": "C3",
          "ticks": 2919,
          "time": 33.94186046511628,
          "velocity": 0.5275590551181102
        },
        {
          "duration": 0.023255813953483084,
          "durationTicks": 2,
          "midi": 57,
          "name": "A3",
          "ticks": 2920,
          "time": 33.95348837209303,
          "velocity": 0.47244094488188976
        },
        {
          "duration": 0.011627906976741542,
          "durationTicks": 1,
          "midi": 31,
          "name": "G1",
          "ticks": 2921,
          "time": 33.96511627906977,
          "velocity": 0.6929133858267716
        },
        {
          "duration": 0.011627906976748648,
          "durationTicks": 1,
          "midi": 32,
          "name": "G#1",
          "ticks": 2922,
          "time": 33.97674418604651,
          "velocity": 0.7165354330708661
        },
        {
          "duration": 0.02325581395349019,
          "durationTicks": 2,
          "midi": 56,
          "name": "G#3",
          "ticks": 2922,
          "time": 33.97674418604651,
          "velocity": 0.44881889763779526
        },
        {
          "duration": 0.011627906976741542,
          "durationTicks": 1,
          "midi": 35,
          "name": "B1",
          "ticks": 2923,
          "time": 33.98837209302326,
          "velocity": 0.7559055118110236
        },
        {
          "duration": 0.011627906976741542,
          "durationTicks": 1,
          "midi": 37,
          "name": "C#2",
          "ticks": 2924,
          "time": 34,
          "velocity": 0.7086614173228346
        },
        {
          "duration": 0.011627906976748648,
          "durationTicks": 1,
          "midi": 36,
          "name": "C2",
          "ticks": 2925,
          "time": 34.01162790697674,
          "velocity": 0.6614173228346457
        },
        {
          "duration": 0.011627906976741542,
          "durationTicks": 1,
          "midi": 34,
          "name": "A#1",
          "ticks": 2926,
          "time": 34.02325581395349,
          "velocity": 0.6771653543307087
        },
        {
          "duration": 0.023255813953483084,
          "durationTicks": 2,
          "midi": 62,
          "name": "D4",
          "ticks": 2926,
          "time": 34.02325581395349,
          "velocity": 0.31496062992125984
        },
        {
          "duration": 0.011627906976741542,
          "durationTicks": 1,
          "midi": 35,
          "name": "B1",
          "ticks": 2927,
          "time": 34.03488372093023,
          "velocity": 0.6850393700787402
        },
        {
          "duration": 0.02325581395349019,
          "durationTicks": 2,
          "midi": 50,
          "name": "D3",
          "ticks": 2927,
          "time": 34.03488372093023,
          "velocity": 0.49606299212598426
        },
        {
          "duration": 0.011627906976748648,
          "durationTicks": 1,
          "midi": 36,
          "name": "C2",
          "ticks": 2928,
          "time": 34.04651162790697,
          "velocity": 0.6377952755905512
        },
        {
          "duration": 0.02325581395349019,
          "durationTicks": 2,
          "midi": 57,
          "name": "A3",
          "ticks": 2928,
          "time": 34.04651162790697,
          "velocity": 0.2677165354330709
        },
        {
          "duration": 0.011627906976741542,
          "durationTicks": 1,
          "midi": 34,
          "name": "A#1",
          "ticks": 2929,
          "time": 34.05813953488372,
          "velocity": 0.5590551181102362
        },
        {
          "duration": 0.011627906976741542,
          "durationTicks": 1,
          "midi": 38,
          "name": "D2",
          "ticks": 2929,
          "time": 34.05813953488372,
          "velocity": 0.5196850393700787
        },
        {
          "duration": 0.011627906976748648,
          "durationTicks": 1,
          "midi": 33,
          "name": "A1",
          "ticks": 2930,
          "time": 34.06976744186046,
          "velocity": 0.6141732283464567
        },
        {
          "duration": 0.011627906976741542,
          "durationTicks": 1,
          "midi": 35,
          "name": "B1",
          "ticks": 2931,
          "time": 34.08139534883721,
          "velocity": 0.6220472440944882
        },
        {
          "duration": 0.046511627906973274,
          "durationTicks": 4,
          "midi": 62,
          "name": "D4",
          "ticks": 2931,
          "time": 34.08139534883721,
          "velocity": 0.1732283464566929
        },
        {
          "duration": 0.011627906976741542,
          "durationTicks": 1,
          "midi": 31,
          "name": "G1",
          "ticks": 2932,
          "time": 34.093023255813954,
          "velocity": 0.5433070866141733
        },
        {
          "duration": 0.011627906976741542,
          "durationTicks": 1,
          "midi": 39,
          "name": "D#2",
          "ticks": 2932,
          "time": 34.093023255813954,
          "velocity": 0.5433070866141733
        },
        {
          "duration": 0.011627906976748648,
          "durationTicks": 1,
          "midi": 30,
          "name": "F#1",
          "ticks": 2933,
          "time": 34.104651162790695,
          "velocity": 0.5196850393700787
        },
        {
          "duration": 0.011627906976748648,
          "durationTicks": 1,
          "midi": 42,
          "name": "F#2",
          "ticks": 2933,
          "time": 34.104651162790695,
          "velocity": 0.5433070866141733
        },
        {
          "duration": 0.023255813953483084,
          "durationTicks": 2,
          "midi": 29,
          "name": "F1",
          "ticks": 2934,
          "time": 34.116279069767444,
          "velocity": 0.5354330708661418
        },
        {
          "duration": 0.02325581395349019,
          "durationTicks": 2,
          "midi": 48,
          "name": "C3",
          "ticks": 2935,
          "time": 34.127906976744185,
          "velocity": 0.48031496062992124
        },
        {
          "duration": 0.03488372093023884,
          "durationTicks": 3,
          "midi": 31,
          "name": "G1",
          "ticks": 2936,
          "time": 34.13953488372093,
          "velocity": 0.5905511811023622
        },
        {
          "duration": 0.03488372093023173,
          "durationTicks": 3,
          "midi": 78,
          "name": "F#5",
          "ticks": 2937,
          "time": 34.151162790697676,
          "velocity": 0.2440944881889764
        },
        {
          "duration": 0.06976744186046346,
          "durationTicks": 6,
          "midi": 82,
          "name": "A#5",
          "ticks": 2937,
          "time": 34.151162790697676,
          "velocity": 0.1732283464566929
        },
        {
          "duration": 0.03488372093023173,
          "durationTicks": 3,
          "midi": 86,
          "name": "D6",
          "ticks": 2937,
          "time": 34.151162790697676,
          "velocity": 0.1732283464566929
        },
        {
          "duration": 0.046511627906973274,
          "durationTicks": 4,
          "midi": 94,
          "name": "A#6",
          "ticks": 2937,
          "time": 34.151162790697676,
          "velocity": 0.2047244094488189
        },
        {
          "duration": 0.06976744186046346,
          "durationTicks": 6,
          "midi": 99,
          "name": "D#7",
          "ticks": 2937,
          "time": 34.151162790697676,
          "velocity": 0.2440944881889764
        },
        {
          "duration": 0.046511627906973274,
          "durationTicks": 4,
          "midi": 100,
          "name": "E7",
          "ticks": 2937,
          "time": 34.151162790697676,
          "velocity": 0.2204724409448819
        },
        {
          "duration": 0.03488372093023173,
          "durationTicks": 3,
          "midi": 56,
          "name": "G#3",
          "ticks": 2938,
          "time": 34.16279069767442,
          "velocity": 0.29133858267716534
        },
        {
          "duration": 0.03488372093023173,
          "durationTicks": 3,
          "midi": 83,
          "name": "B5",
          "ticks": 2938,
          "time": 34.16279069767442,
          "velocity": 0.2440944881889764
        },
        {
          "duration": 0.03488372093023173,
          "durationTicks": 3,
          "midi": 87,
          "name": "D#6",
          "ticks": 2938,
          "time": 34.16279069767442,
          "velocity": 0.18110236220472442
        },
        {
          "duration": 0.04651162790698038,
          "durationTicks": 4,
          "midi": 88,
          "name": "E6",
          "ticks": 2938,
          "time": 34.16279069767442,
          "velocity": 0.14173228346456693
        },
        {
          "duration": 0.05813953488372192,
          "durationTicks": 5,
          "midi": 89,
          "name": "F6",
          "ticks": 2938,
          "time": 34.16279069767442,
          "velocity": 0.2283464566929134
        },
        {
          "duration": 0.05813953488372192,
          "durationTicks": 5,
          "midi": 92,
          "name": "G#6",
          "ticks": 2938,
          "time": 34.16279069767442,
          "velocity": 0.16535433070866143
        },
        {
          "duration": 0.03488372093023173,
          "durationTicks": 3,
          "midi": 96,
          "name": "C7",
          "ticks": 2938,
          "time": 34.16279069767442,
          "velocity": 0.1732283464566929
        },
        {
          "duration": 0.05813953488372192,
          "durationTicks": 5,
          "midi": 97,
          "name": "C#7",
          "ticks": 2938,
          "time": 34.16279069767442,
          "velocity": 0.14960629921259844
        },
        {
          "duration": 0.04651162790698038,
          "durationTicks": 4,
          "midi": 98,
          "name": "D7",
          "ticks": 2938,
          "time": 34.16279069767442,
          "velocity": 0.1889763779527559
        },
        {
          "duration": 0.011627906976741542,
          "durationTicks": 1,
          "midi": 29,
          "name": "F1",
          "ticks": 2939,
          "time": 34.174418604651166,
          "velocity": 0.5196850393700787
        },
        {
          "duration": 0.011627906976741542,
          "durationTicks": 1,
          "midi": 40,
          "name": "E2",
          "ticks": 2939,
          "time": 34.174418604651166,
          "velocity": 0.5748031496062992
        },
        {
          "duration": 0.011627906976741542,
          "durationTicks": 1,
          "midi": 42,
          "name": "F#2",
          "ticks": 2940,
          "time": 34.18604651162791,
          "velocity": 0.5748031496062992
        },
        {
          "duration": 0.011627906976748648,
          "durationTicks": 1,
          "midi": 31,
          "name": "G1",
          "ticks": 2941,
          "time": 34.19767441860465,
          "velocity": 0.5905511811023622
        },
        {
          "duration": 0.03488372093023173,
          "durationTicks": 3,
          "midi": 84,
          "name": "C6",
          "ticks": 2941,
          "time": 34.19767441860465,
          "velocity": 0.13385826771653545
        },
        {
          "duration": 0.04651162790698038,
          "durationTicks": 4,
          "midi": 93,
          "name": "A6",
          "ticks": 2941,
          "time": 34.19767441860465,
          "velocity": 0.10236220472440945
        },
        {
          "duration": 0.011627906976741542,
          "durationTicks": 1,
          "midi": 32,
          "name": "G#1",
          "ticks": 2942,
          "time": 34.2093023255814,
          "velocity": 0.5984251968503937
        },
        {
          "duration": 0.023255813953483084,
          "durationTicks": 2,
          "midi": 56,
          "name": "G#3",
          "ticks": 2942,
          "time": 34.2093023255814,
          "velocity": 0.3464566929133858
        },
        {
          "duration": 0.011627906976741542,
          "durationTicks": 1,
          "midi": 34,
          "name": "A#1",
          "ticks": 2943,
          "time": 34.22093023255814,
          "velocity": 0.5905511811023622
        },
        {
          "duration": 0.05813953488372192,
          "durationTicks": 5,
          "midi": 62,
          "name": "D4",
          "ticks": 2943,
          "time": 34.22093023255814,
          "velocity": 0.28346456692913385
        },
        {
          "duration": 0.011627906976748648,
          "durationTicks": 1,
          "midi": 34,
          "name": "A#1",
          "ticks": 2946,
          "time": 34.25581395348837,
          "velocity": 0.5354330708661418
        },
        {
          "duration": 0.023255813953483084,
          "durationTicks": 2,
          "midi": 31,
          "name": "G1",
          "ticks": 2947,
          "time": 34.26744186046512,
          "velocity": 0.5433070866141733
        },
        {
          "duration": 0.011627906976741542,
          "durationTicks": 1,
          "midi": 41,
          "name": "F2",
          "ticks": 2947,
          "time": 34.26744186046512,
          "velocity": 0.5354330708661418
        },
        {
          "duration": 0.023255813953483084,
          "durationTicks": 2,
          "midi": 50,
          "name": "D3",
          "ticks": 2947,
          "time": 34.26744186046512,
          "velocity": 0.36220472440944884
        },
        {
          "duration": 0.02325581395349019,
          "durationTicks": 2,
          "midi": 41,
          "name": "F2",
          "ticks": 2949,
          "time": 34.2906976744186,
          "velocity": 0.5590551181102362
        },
        {
          "duration": 0.02325581395349019,
          "durationTicks": 2,
          "midi": 51,
          "name": "D#3",
          "ticks": 2949,
          "time": 34.2906976744186,
          "velocity": 0.33070866141732286
        },
        {
          "duration": 0.011627906976741542,
          "durationTicks": 1,
          "midi": 37,
          "name": "C#2",
          "ticks": 2951,
          "time": 34.31395348837209,
          "velocity": 0.5905511811023622
        },
        {
          "duration": 0.02325581395349019,
          "durationTicks": 2,
          "midi": 50,
          "name": "D3",
          "ticks": 2951,
          "time": 34.31395348837209,
          "velocity": 0.23622047244094488
        },
        {
          "duration": 0.011627906976748648,
          "durationTicks": 1,
          "midi": 40,
          "name": "E2",
          "ticks": 2952,
          "time": 34.325581395348834,
          "velocity": 0.5590551181102362
        },
        {
          "duration": 0.011627906976741542,
          "durationTicks": 1,
          "midi": 34,
          "name": "A#1",
          "ticks": 2955,
          "time": 34.36046511627907,
          "velocity": 0.5748031496062992
        },
        {
          "duration": 0.011627906976741542,
          "durationTicks": 1,
          "midi": 36,
          "name": "C2",
          "ticks": 2956,
          "time": 34.372093023255815,
          "velocity": 0.5590551181102362
        },
        {
          "duration": 0.02325581395349019,
          "durationTicks": 2,
          "midi": 37,
          "name": "C#2",
          "ticks": 2957,
          "time": 34.383720930232556,
          "velocity": 0.4094488188976378
        },
        {
          "duration": 0.02325581395349019,
          "durationTicks": 2,
          "midi": 35,
          "name": "B1",
          "ticks": 2959,
          "time": 34.406976744186046,
          "velocity": 0.5826771653543307
        },
        {
          "duration": 0.011627906976741542,
          "durationTicks": 1,
          "midi": 33,
          "name": "A1",
          "ticks": 2961,
          "time": 34.43023255813954,
          "velocity": 0.5590551181102362
        },
        {
          "duration": 0.011627906976741542,
          "durationTicks": 1,
          "midi": 44,
          "name": "G#2",
          "ticks": 2961,
          "time": 34.43023255813954,
          "velocity": 0.5275590551181102
        },
        {
          "duration": 0.02325581395349019,
          "durationTicks": 2,
          "midi": 64,
          "name": "E4",
          "ticks": 2961,
          "time": 34.43023255813954,
          "velocity": 0.36220472440944884
        },
        {
          "duration": 0.011627906976748648,
          "durationTicks": 1,
          "midi": 43,
          "name": "G2",
          "ticks": 2962,
          "time": 34.44186046511628,
          "velocity": 0.5984251968503937
        },
        {
          "duration": 0.011627906976741542,
          "durationTicks": 1,
          "midi": 29,
          "name": "F1",
          "ticks": 2963,
          "time": 34.45348837209303,
          "velocity": 0.5669291338582677
        },
        {
          "duration": 0.023255813953483084,
          "durationTicks": 2,
          "midi": 41,
          "name": "F2",
          "ticks": 2963,
          "time": 34.45348837209303,
          "velocity": 0.6614173228346457
        },
        {
          "duration": 0.023255813953483084,
          "durationTicks": 2,
          "midi": 63,
          "name": "D#4",
          "ticks": 2963,
          "time": 34.45348837209303,
          "velocity": 0.3937007874015748
        },
        {
          "duration": 0.02325581395349019,
          "durationTicks": 2,
          "midi": 56,
          "name": "G#3",
          "ticks": 2964,
          "time": 34.46511627906977,
          "velocity": 0.3779527559055118
        },
        {
          "duration": 0.011627906976748648,
          "durationTicks": 1,
          "midi": 36,
          "name": "C2",
          "ticks": 2965,
          "time": 34.47674418604651,
          "velocity": 0.5669291338582677
        },
        {
          "duration": 0.011627906976748648,
          "durationTicks": 1,
          "midi": 43,
          "name": "G2",
          "ticks": 2965,
          "time": 34.47674418604651,
          "velocity": 0.5511811023622047
        },
        {
          "duration": 0.08139534883721211,
          "durationTicks": 7,
          "midi": 62,
          "name": "D4",
          "ticks": 2965,
          "time": 34.47674418604651,
          "velocity": 0.31496062992125984
        },
        {
          "duration": 0.011627906976741542,
          "durationTicks": 1,
          "midi": 33,
          "name": "A1",
          "ticks": 2966,
          "time": 34.48837209302326,
          "velocity": 0.5748031496062992
        },
        {
          "duration": 0.02325581395349019,
          "durationTicks": 2,
          "midi": 36,
          "name": "C2",
          "ticks": 2967,
          "time": 34.5,
          "velocity": 0.7007874015748031
        },
        {
          "duration": 0.02325581395349019,
          "durationTicks": 2,
          "midi": 53,
          "name": "F3",
          "ticks": 2967,
          "time": 34.5,
          "velocity": 0.3858267716535433
        },
        {
          "duration": 0.011627906976741542,
          "durationTicks": 1,
          "midi": 34,
          "name": "A#1",
          "ticks": 2969,
          "time": 34.52325581395349,
          "velocity": 0.7007874015748031
        },
        {
          "duration": 0.023255813953483084,
          "durationTicks": 2,
          "midi": 54,
          "name": "F#3",
          "ticks": 2969,
          "time": 34.52325581395349,
          "velocity": 0.30708661417322836
        },
        {
          "duration": 0.011627906976741542,
          "durationTicks": 1,
          "midi": 35,
          "name": "B1",
          "ticks": 2970,
          "time": 34.53488372093023,
          "velocity": 0.7244094488188977
        },
        {
          "duration": 0.011627906976748648,
          "durationTicks": 1,
          "midi": 36,
          "name": "C2",
          "ticks": 2971,
          "time": 34.54651162790697,
          "velocity": 0.7007874015748031
        },
        {
          "duration": 0.02325581395349019,
          "durationTicks": 2,
          "midi": 50,
          "name": "D3",
          "ticks": 2971,
          "time": 34.54651162790697,
          "velocity": 0.3464566929133858
        },
        {
          "duration": 0.02325581395349019,
          "durationTicks": 2,
          "midi": 35,
          "name": "B1",
          "ticks": 2972,
          "time": 34.55813953488372,
          "velocity": 0.6929133858267716
        },
        {
          "duration": 0.02325581395349019,
          "durationTicks": 2,
          "midi": 56,
          "name": "G#3",
          "ticks": 2973,
          "time": 34.56976744186046,
          "velocity": 0.23622047244094488
        },
        {
          "duration": 0.04651162790698038,
          "durationTicks": 4,
          "midi": 62,
          "name": "D4",
          "ticks": 2973,
          "time": 34.56976744186046,
          "velocity": 0.15748031496062992
        },
        {
          "duration": 0.046511627906973274,
          "durationTicks": 4,
          "midi": 36,
          "name": "C2",
          "ticks": 2974,
          "time": 34.58139534883721,
          "velocity": 0.6771653543307087
        },
        {
          "duration": 0.02325581395349019,
          "durationTicks": 2,
          "midi": 35,
          "name": "B1",
          "ticks": 2978,
          "time": 34.627906976744185,
          "velocity": 0.5590551181102362
        },
        {
          "duration": 0.02325581395349019,
          "durationTicks": 2,
          "midi": 29,
          "name": "F1",
          "ticks": 2984,
          "time": 34.69767441860465,
          "velocity": 0.3700787401574803
        },
        {
          "duration": 0.04651162790698038,
          "durationTicks": 4,
          "midi": 78,
          "name": "F#5",
          "ticks": 2984,
          "time": 34.69767441860465,
          "velocity": 0.25196850393700787
        },
        {
          "duration": 0.04651162790698038,
          "durationTicks": 4,
          "midi": 87,
          "name": "D#6",
          "ticks": 2984,
          "time": 34.69767441860465,
          "velocity": 0.25196850393700787
        },
        {
          "duration": 0.06976744186047057,
          "durationTicks": 6,
          "midi": 91,
          "name": "G6",
          "ticks": 2984,
          "time": 34.69767441860465,
          "velocity": 0.2047244094488189
        },
        {
          "duration": 0.03488372093023173,
          "durationTicks": 3,
          "midi": 93,
          "name": "A6",
          "ticks": 2984,
          "time": 34.69767441860465,
          "velocity": 0.28346456692913385
        },
        {
          "duration": 0.06976744186047057,
          "durationTicks": 6,
          "midi": 94,
          "name": "A#6",
          "ticks": 2984,
          "time": 34.69767441860465,
          "velocity": 0.29133858267716534
        },
        {
          "duration": 0.06976744186047057,
          "durationTicks": 6,
          "midi": 97,
          "name": "C#7",
          "ticks": 2984,
          "time": 34.69767441860465,
          "velocity": 0.1732283464566929
        },
        {
          "duration": 0.1046511627907023,
          "durationTicks": 9,
          "midi": 98,
          "name": "D7",
          "ticks": 2984,
          "time": 34.69767441860465,
          "velocity": 0.1732283464566929
        },
        {
          "duration": 0.06976744186047057,
          "durationTicks": 6,
          "midi": 100,
          "name": "E7",
          "ticks": 2984,
          "time": 34.69767441860465,
          "velocity": 0.2440944881889764
        },
        {
          "duration": 0.03488372093023173,
          "durationTicks": 3,
          "midi": 101,
          "name": "F7",
          "ticks": 2984,
          "time": 34.69767441860465,
          "velocity": 0.1732283464566929
        },
        {
          "duration": 0.06976744186046346,
          "durationTicks": 6,
          "midi": 82,
          "name": "A#5",
          "ticks": 2985,
          "time": 34.7093023255814,
          "velocity": 0.16535433070866143
        },
        {
          "duration": 0.046511627906973274,
          "durationTicks": 4,
          "midi": 83,
          "name": "B5",
          "ticks": 2985,
          "time": 34.7093023255814,
          "velocity": 0.2283464566929134
        },
        {
          "duration": 0.03488372093023173,
          "durationTicks": 3,
          "midi": 86,
          "name": "D6",
          "ticks": 2985,
          "time": 34.7093023255814,
          "velocity": 0.2440944881889764
        },
        {
          "duration": 0.1046511627906952,
          "durationTicks": 9,
          "midi": 89,
          "name": "F6",
          "ticks": 2985,
          "time": 34.7093023255814,
          "velocity": 0.2755905511811024
        },
        {
          "duration": 0.011627906976741542,
          "durationTicks": 1,
          "midi": 41,
          "name": "F2",
          "ticks": 2986,
          "time": 34.72093023255814,
          "velocity": 0.5433070866141733
        },
        {
          "duration": 0.02325581395349019,
          "durationTicks": 2,
          "midi": 51,
          "name": "D#3",
          "ticks": 2986,
          "time": 34.72093023255814,
          "velocity": 0.29133858267716534
        },
        {
          "duration": 0.02325581395349019,
          "durationTicks": 2,
          "midi": 56,
          "name": "G#3",
          "ticks": 2986,
          "time": 34.72093023255814,
          "velocity": 0.2992125984251969
        },
        {
          "duration": 0.08139534883721211,
          "durationTicks": 7,
          "midi": 85,
          "name": "C#6",
          "ticks": 2986,
          "time": 34.72093023255814,
          "velocity": 0.25984251968503935
        },
        {
          "duration": 0.05813953488372192,
          "durationTicks": 5,
          "midi": 96,
          "name": "C7",
          "ticks": 2986,
          "time": 34.72093023255814,
          "velocity": 0.10236220472440945
        },
        {
          "duration": 0.011627906976748648,
          "durationTicks": 1,
          "midi": 40,
          "name": "E2",
          "ticks": 2987,
          "time": 34.73255813953488,
          "velocity": 0.6062992125984252
        },
        {
          "duration": 0.02325581395349019,
          "durationTicks": 2,
          "midi": 61,
          "name": "C#4",
          "ticks": 2987,
          "time": 34.73255813953488,
          "velocity": 0.33858267716535434
        },
        {
          "duration": 0.05813953488372192,
          "durationTicks": 5,
          "midi": 92,
          "name": "G#6",
          "ticks": 2987,
          "time": 34.73255813953488,
          "velocity": 0.2755905511811024
        },
        {
          "duration": 0.011627906976741542,
          "durationTicks": 1,
          "midi": 37,
          "name": "C#2",
          "ticks": 2988,
          "time": 34.74418604651163,
          "velocity": 0.5826771653543307
        },
        {
          "duration": 0.05813953488372192,
          "durationTicks": 5,
          "midi": 77,
          "name": "F5",
          "ticks": 2988,
          "time": 34.74418604651163,
          "velocity": 0.18110236220472442
        },
        {
          "duration": 0.03488372093023173,
          "durationTicks": 3,
          "midi": 84,
          "name": "C6",
          "ticks": 2988,
          "time": 34.74418604651163,
          "velocity": 0.14173228346456693
        },
        {
          "duration": 0.081395348837205,
          "durationTicks": 7,
          "midi": 93,
          "name": "A6",
          "ticks": 2988,
          "time": 34.74418604651163,
          "velocity": 0.12598425196850394
        },
        {
          "duration": 0.011627906976748648,
          "durationTicks": 1,
          "midi": 33,
          "name": "A1",
          "ticks": 2989,
          "time": 34.75581395348837,
          "velocity": 0.5669291338582677
        },
        {
          "duration": 0.02325581395349019,
          "durationTicks": 2,
          "midi": 56,
          "name": "G#3",
          "ticks": 2989,
          "time": 34.75581395348837,
          "velocity": 0.3464566929133858
        },
        {
          "duration": 0.011627906976741542,
          "durationTicks": 1,
          "midi": 34,
          "name": "A#1",
          "ticks": 2990,
          "time": 34.76744186046512,
          "velocity": 0.6141732283464567
        },
        {
          "duration": 0.046511627906973274,
          "durationTicks": 4,
          "midi": 36,
          "name": "C2",
          "ticks": 2991,
          "time": 34.77906976744186,
          "velocity": 0.6614173228346457
        },
        {
          "duration": 0.02325581395349019,
          "durationTicks": 2,
          "midi": 57,
          "name": "A3",
          "ticks": 2991,
          "time": 34.77906976744186,
          "velocity": 0.33070866141732286
        },
        {
          "duration": 0.046511627906973274,
          "durationTicks": 4,
          "midi": 62,
          "name": "D4",
          "ticks": 2991,
          "time": 34.77906976744186,
          "velocity": 0.25196850393700787
        },
        {
          "duration": 0.046511627906973274,
          "durationTicks": 4,
          "midi": 56,
          "name": "G#3",
          "ticks": 2993,
          "time": 34.80232558139535,
          "velocity": 0.18110236220472442
        },
        {
          "duration": 0.011627906976748648,
          "durationTicks": 1,
          "midi": 35,
          "name": "B1",
          "ticks": 2995,
          "time": 34.825581395348834,
          "velocity": 0.6141732283464567
        },
        {
          "duration": 0.011627906976741542,
          "durationTicks": 1,
          "midi": 34,
          "name": "A#1",
          "ticks": 2996,
          "time": 34.83720930232558,
          "velocity": 0.5669291338582677
        },
        {
          "duration": 0.011627906976748648,
          "durationTicks": 1,
          "midi": 39,
          "name": "D#2",
          "ticks": 2997,
          "time": 34.848837209302324,
          "velocity": 0.5590551181102362
        },
        {
          "duration": 0.011627906976741542,
          "durationTicks": 1,
          "midi": 37,
          "name": "C#2",
          "ticks": 2998,
          "time": 34.86046511627907,
          "velocity": 0.5905511811023622
        },
        {
          "duration": 0.011627906976741542,
          "durationTicks": 1,
          "midi": 32,
          "name": "G#1",
          "ticks": 2999,
          "time": 34.872093023255815,
          "velocity": 0.5511811023622047
        },
        {
          "duration": 0.011627906976748648,
          "durationTicks": 1,
          "midi": 33,
          "name": "A1",
          "ticks": 3003,
          "time": 34.91860465116279,
          "velocity": 0.5275590551181102
        },
        {
          "duration": 0.011627906976741542,
          "durationTicks": 1,
          "midi": 35,
          "name": "B1",
          "ticks": 3004,
          "time": 34.93023255813954,
          "velocity": 0.5354330708661418
        },
        {
          "duration": 0.011627906976741542,
          "durationTicks": 1,
          "midi": 32,
          "name": "G#1",
          "ticks": 3007,
          "time": 34.96511627906977,
          "velocity": 0.5433070866141733
        },
        {
          "duration": 0.011627906976748648,
          "durationTicks": 1,
          "midi": 33,
          "name": "A1",
          "ticks": 3008,
          "time": 34.97674418604651,
          "velocity": 0.6062992125984252
        },
        {
          "duration": 0.03488372093023173,
          "durationTicks": 3,
          "midi": 51,
          "name": "D#3",
          "ticks": 3008,
          "time": 34.97674418604651,
          "velocity": 0.5826771653543307
        },
        {
          "duration": 0.03488372093023173,
          "durationTicks": 3,
          "midi": 64,
          "name": "E4",
          "ticks": 3008,
          "time": 34.97674418604651,
          "velocity": 0.33070866141732286
        },
        {
          "duration": 0.02325581395349019,
          "durationTicks": 2,
          "midi": 67,
          "name": "G4",
          "ticks": 3008,
          "time": 34.97674418604651,
          "velocity": 0.2992125984251969
        },
        {
          "duration": 0.03488372093023173,
          "durationTicks": 3,
          "midi": 74,
          "name": "D5",
          "ticks": 3008,
          "time": 34.97674418604651,
          "velocity": 0.18110236220472442
        },
        {
          "duration": 0.011627906976741542,
          "durationTicks": 1,
          "midi": 34,
          "name": "A#1",
          "ticks": 3009,
          "time": 34.98837209302326,
          "velocity": 0.5984251968503937
        },
        {
          "duration": 0.011627906976741542,
          "durationTicks": 1,
          "midi": 45,
          "name": "A2",
          "ticks": 3009,
          "time": 34.98837209302326,
          "velocity": 0.5590551181102362
        },
        {
          "duration": 0.011627906976741542,
          "durationTicks": 1,
          "midi": 32,
          "name": "G#1",
          "ticks": 3010,
          "time": 35,
          "velocity": 0.5905511811023622
        },
        {
          "duration": 0.03488372093023173,
          "durationTicks": 3,
          "midi": 70,
          "name": "A#4",
          "ticks": 3010,
          "time": 35,
          "velocity": 0.1968503937007874
        },
        {
          "duration": 0.011627906976748648,
          "durationTicks": 1,
          "midi": 20,
          "name": "G#0",
          "ticks": 3011,
          "time": 35.01162790697674,
          "velocity": 0.5354330708661418
        },
        {
          "duration": 0.011627906976748648,
          "durationTicks": 1,
          "midi": 42,
          "name": "F#2",
          "ticks": 3011,
          "time": 35.01162790697674,
          "velocity": 0.6456692913385826
        },
        {
          "duration": 0.023255813953483084,
          "durationTicks": 2,
          "midi": 40,
          "name": "E2",
          "ticks": 3012,
          "time": 35.02325581395349,
          "velocity": 0.6377952755905512
        },
        {
          "duration": 0.081395348837205,
          "durationTicks": 7,
          "midi": 62,
          "name": "D4",
          "ticks": 3012,
          "time": 35.02325581395349,
          "velocity": 0.4094488188976378
        },
        {
          "duration": 0.02325581395349019,
          "durationTicks": 2,
          "midi": 32,
          "name": "G#1",
          "ticks": 3013,
          "time": 35.03488372093023,
          "velocity": 0.6377952755905512
        },
        {
          "duration": 0.011627906976741542,
          "durationTicks": 1,
          "midi": 48,
          "name": "C3",
          "ticks": 3013,
          "time": 35.03488372093023,
          "velocity": 0.5275590551181102
        },
        {
          "duration": 0.02325581395349019,
          "durationTicks": 2,
          "midi": 57,
          "name": "A3",
          "ticks": 3014,
          "time": 35.04651162790697,
          "velocity": 0.48031496062992124
        },
        {
          "duration": 0.011627906976741542,
          "durationTicks": 1,
          "midi": 31,
          "name": "G1",
          "ticks": 3015,
          "time": 35.05813953488372,
          "velocity": 0.7086614173228346
        },
        {
          "duration": 0.011627906976748648,
          "durationTicks": 1,
          "midi": 32,
          "name": "G#1",
          "ticks": 3016,
          "time": 35.06976744186046,
          "velocity": 0.7244094488188977
        },
        {
          "duration": 0.011627906976748648,
          "durationTicks": 1,
          "midi": 43,
          "name": "G2",
          "ticks": 3016,
          "time": 35.06976744186046,
          "velocity": 0.5590551181102362
        },
        {
          "duration": 0.02325581395349019,
          "durationTicks": 2,
          "midi": 56,
          "name": "G#3",
          "ticks": 3016,
          "time": 35.06976744186046,
          "velocity": 0.44881889763779526
        },
        {
          "duration": 0.011627906976741542,
          "durationTicks": 1,
          "midi": 35,
          "name": "B1",
          "ticks": 3017,
          "time": 35.08139534883721,
          "velocity": 0.7637795275590551
        },
        {
          "duration": 0.011627906976741542,
          "durationTicks": 1,
          "midi": 37,
          "name": "C#2",
          "ticks": 3018,
          "time": 35.093023255813954,
          "velocity": 0.7086614173228346
        },
        {
          "duration": 0.011627906976748648,
          "durationTicks": 1,
          "midi": 36,
          "name": "C2",
          "ticks": 3019,
          "time": 35.104651162790695,
          "velocity": 0.6614173228346457
        },
        {
          "duration": 0.011627906976741542,
          "durationTicks": 1,
          "midi": 34,
          "name": "A#1",
          "ticks": 3020,
          "time": 35.116279069767444,
          "velocity": 0.6850393700787402
        },
        {
          "duration": 0.046511627906973274,
          "durationTicks": 4,
          "midi": 62,
          "name": "D4",
          "ticks": 3020,
          "time": 35.116279069767444,
          "velocity": 0.3228346456692913
        },
        {
          "duration": 0.011627906976741542,
          "durationTicks": 1,
          "midi": 35,
          "name": "B1",
          "ticks": 3021,
          "time": 35.127906976744185,
          "velocity": 0.7007874015748031
        },
        {
          "duration": 0.011627906976748648,
          "durationTicks": 1,
          "midi": 36,
          "name": "C2",
          "ticks": 3022,
          "time": 35.13953488372093,
          "velocity": 0.6456692913385826
        },
        {
          "duration": 0.02325581395349019,
          "durationTicks": 2,
          "midi": 57,
          "name": "A3",
          "ticks": 3022,
          "time": 35.13953488372093,
          "velocity": 0.2755905511811024
        },
        {
          "duration": 0.011627906976741542,
          "durationTicks": 1,
          "midi": 34,
          "name": "A#1",
          "ticks": 3023,
          "time": 35.151162790697676,
          "velocity": 0.5748031496062992
        },
        {
          "duration": 0.011627906976741542,
          "durationTicks": 1,
          "midi": 39,
          "name": "D#2",
          "ticks": 3023,
          "time": 35.151162790697676,
          "velocity": 0.5275590551181102
        },
        {
          "duration": 0.011627906976748648,
          "durationTicks": 1,
          "midi": 33,
          "name": "A1",
          "ticks": 3024,
          "time": 35.16279069767442,
          "velocity": 0.6220472440944882
        },
        {
          "duration": 0.011627906976741542,
          "durationTicks": 1,
          "midi": 35,
          "name": "B1",
          "ticks": 3025,
          "time": 35.174418604651166,
          "velocity": 0.6220472440944882
        },
        {
          "duration": 0.046511627906973274,
          "durationTicks": 4,
          "midi": 62,
          "name": "D4",
          "ticks": 3025,
          "time": 35.174418604651166,
          "velocity": 0.18110236220472442
        },
        {
          "duration": 0.011627906976741542,
          "durationTicks": 1,
          "midi": 31,
          "name": "G1",
          "ticks": 3026,
          "time": 35.18604651162791,
          "velocity": 0.5669291338582677
        },
        {
          "duration": 0.011627906976741542,
          "durationTicks": 1,
          "midi": 39,
          "name": "D#2",
          "ticks": 3026,
          "time": 35.18604651162791,
          "velocity": 0.5354330708661418
        },
        {
          "duration": 0.011627906976748648,
          "durationTicks": 1,
          "midi": 30,
          "name": "F#1",
          "ticks": 3027,
          "time": 35.19767441860465,
          "velocity": 0.5354330708661418
        },
        {
          "duration": 0.011627906976748648,
          "durationTicks": 1,
          "midi": 42,
          "name": "F#2",
          "ticks": 3027,
          "time": 35.19767441860465,
          "velocity": 0.5590551181102362
        },
        {
          "duration": 0.011627906976741542,
          "durationTicks": 1,
          "midi": 29,
          "name": "F1",
          "ticks": 3028,
          "time": 35.2093023255814,
          "velocity": 0.5275590551181102
        },
        {
          "duration": 0.011627906976741542,
          "durationTicks": 1,
          "midi": 41,
          "name": "F2",
          "ticks": 3028,
          "time": 35.2093023255814,
          "velocity": 0.5511811023622047
        },
        {
          "duration": 0.011627906976741542,
          "durationTicks": 1,
          "midi": 43,
          "name": "G2",
          "ticks": 3029,
          "time": 35.22093023255814,
          "velocity": 0.5511811023622047
        },
        {
          "duration": 0.02325581395349019,
          "durationTicks": 2,
          "midi": 48,
          "name": "C3",
          "ticks": 3029,
          "time": 35.22093023255814,
          "velocity": 0.47244094488188976
        },
        {
          "duration": 0.02325581395349019,
          "durationTicks": 2,
          "midi": 31,
          "name": "G1",
          "ticks": 3030,
          "time": 35.23255813953488,
          "velocity": 0.5984251968503937
        },
        {
          "duration": 0.02325581395349019,
          "durationTicks": 2,
          "midi": 55,
          "name": "G3",
          "ticks": 3031,
          "time": 35.24418604651163,
          "velocity": 0.2755905511811024
        },
        {
          "duration": 0.011627906976748648,
          "durationTicks": 1,
          "midi": 30,
          "name": "F#1",
          "ticks": 3032,
          "time": 35.25581395348837,
          "velocity": 0.5826771653543307
        },
        {
          "duration": 0.011627906976748648,
          "durationTicks": 1,
          "midi": 46,
          "name": "A#2",
          "ticks": 3032,
          "time": 35.25581395348837,
          "velocity": 0.5118110236220472
        },
        {
          "duration": 0.011627906976741542,
          "durationTicks": 1,
          "midi": 29,
          "name": "F1",
          "ticks": 3033,
          "time": 35.26744186046512,
          "velocity": 0.5354330708661418
        },
        {
          "duration": 0.011627906976741542,
          "durationTicks": 1,
          "midi": 41,
          "name": "F2",
          "ticks": 3033,
          "time": 35.26744186046512,
          "velocity": 0.5669291338582677
        },
        {
          "duration": 0.058139534883714816,
          "durationTicks": 5,
          "midi": 56,
          "name": "G#3",
          "ticks": 3033,
          "time": 35.26744186046512,
          "velocity": 0.3464566929133858
        },
        {
          "duration": 0.011627906976741542,
          "durationTicks": 1,
          "midi": 28,
          "name": "E1",
          "ticks": 3034,
          "time": 35.27906976744186,
          "velocity": 0.5748031496062992
        },
        {
          "duration": 0.011627906976748648,
          "durationTicks": 1,
          "midi": 31,
          "name": "G1",
          "ticks": 3035,
          "time": 35.2906976744186,
          "velocity": 0.6062992125984252
        },
        {
          "duration": 0.13953488372093403,
          "durationTicks": 12,
          "midi": 62,
          "name": "D4",
          "ticks": 3035,
          "time": 35.2906976744186,
          "velocity": 0.25984251968503935
        },
        {
          "duration": 0.011627906976741542,
          "durationTicks": 1,
          "midi": 32,
          "name": "G#1",
          "ticks": 3036,
          "time": 35.30232558139535,
          "velocity": 0.6141732283464567
        },
        {
          "duration": 0.011627906976741542,
          "durationTicks": 1,
          "midi": 35,
          "name": "B1",
          "ticks": 3037,
          "time": 35.31395348837209,
          "velocity": 0.6062992125984252
        },
        {
          "duration": 0.02325581395349019,
          "durationTicks": 2,
          "midi": 57,
          "name": "A3",
          "ticks": 3038,
          "time": 35.325581395348834,
          "velocity": 0.2992125984251969
        },
        {
          "duration": 0.011627906976748648,
          "durationTicks": 1,
          "midi": 30,
          "name": "F#1",
          "ticks": 3040,
          "time": 35.348837209302324,
          "velocity": 0.5433070866141733
        },
        {
          "duration": 0.03488372093023173,
          "durationTicks": 3,
          "midi": 56,
          "name": "G#3",
          "ticks": 3040,
          "time": 35.348837209302324,
          "velocity": 0.2125984251968504
        },
        {
          "duration": 0.023255813953483084,
          "durationTicks": 2,
          "midi": 31,
          "name": "G1",
          "ticks": 3041,
          "time": 35.36046511627907,
          "velocity": 0.5590551181102362
        },
        {
          "duration": 0.023255813953483084,
          "durationTicks": 2,
          "midi": 50,
          "name": "D3",
          "ticks": 3041,
          "time": 35.36046511627907,
          "velocity": 0.3543307086614173
        },
        {
          "duration": 0.02325581395349019,
          "durationTicks": 2,
          "midi": 30,
          "name": "F#1",
          "ticks": 3043,
          "time": 35.383720930232556,
          "velocity": 0.5196850393700787
        },
        {
          "duration": 0.02325581395349019,
          "durationTicks": 2,
          "midi": 41,
          "name": "F2",
          "ticks": 3043,
          "time": 35.383720930232556,
          "velocity": 0.5748031496062992
        },
        {
          "duration": 0.02325581395349019,
          "durationTicks": 2,
          "midi": 51,
          "name": "D#3",
          "ticks": 3043,
          "time": 35.383720930232556,
          "velocity": 0.33858267716535434
        },
        {
          "duration": 0.011627906976741542,
          "durationTicks": 1,
          "midi": 37,
          "name": "C#2",
          "ticks": 3045,
          "time": 35.406976744186046,
          "velocity": 0.5984251968503937
        },
        {
          "duration": 0.02325581395349019,
          "durationTicks": 2,
          "midi": 50,
          "name": "D3",
          "ticks": 3045,
          "time": 35.406976744186046,
          "velocity": 0.25196850393700787
        },
        {
          "duration": 0.011627906976748648,
          "durationTicks": 1,
          "midi": 40,
          "name": "E2",
          "ticks": 3046,
          "time": 35.41860465116279,
          "velocity": 0.5590551181102362
        },
        {
          "duration": 0.011627906976748648,
          "durationTicks": 1,
          "midi": 31,
          "name": "G1",
          "ticks": 3048,
          "time": 35.44186046511628,
          "velocity": 0.5118110236220472
        },
        {
          "duration": 0.011627906976741542,
          "durationTicks": 1,
          "midi": 34,
          "name": "A#1",
          "ticks": 3049,
          "time": 35.45348837209303,
          "velocity": 0.5905511811023622
        },
        {
          "duration": 0.011627906976741542,
          "durationTicks": 1,
          "midi": 37,
          "name": "C#2",
          "ticks": 3050,
          "time": 35.46511627906977,
          "velocity": 0.5511811023622047
        },
        {
          "duration": 0.02325581395349019,
          "durationTicks": 2,
          "midi": 35,
          "name": "B1",
          "ticks": 3053,
          "time": 35.5,
          "velocity": 0.5669291338582677
        },
        {
          "duration": 0.011627906976741542,
          "durationTicks": 1,
          "midi": 33,
          "name": "A1",
          "ticks": 3055,
          "time": 35.52325581395349,
          "velocity": 0.5669291338582677
        },
        {
          "duration": 0.011627906976741542,
          "durationTicks": 1,
          "midi": 44,
          "name": "G#2",
          "ticks": 3055,
          "time": 35.52325581395349,
          "velocity": 0.5354330708661418
        },
        {
          "duration": 0.011627906976741542,
          "durationTicks": 1,
          "midi": 42,
          "name": "F#2",
          "ticks": 3056,
          "time": 35.53488372093023,
          "velocity": 0.6220472440944882
        },
        {
          "duration": 0.011627906976748648,
          "durationTicks": 1,
          "midi": 29,
          "name": "F1",
          "ticks": 3057,
          "time": 35.54651162790697,
          "velocity": 0.5590551181102362
        },
        {
          "duration": 0.02325581395349019,
          "durationTicks": 2,
          "midi": 41,
          "name": "F2",
          "ticks": 3057,
          "time": 35.54651162790697,
          "velocity": 0.6614173228346457
        },
        {
          "duration": 0.02325581395349019,
          "durationTicks": 2,
          "midi": 63,
          "name": "D#4",
          "ticks": 3057,
          "time": 35.54651162790697,
          "velocity": 0.3937007874015748
        },
        {
          "duration": 0.02325581395349019,
          "durationTicks": 2,
          "midi": 56,
          "name": "G#3",
          "ticks": 3058,
          "time": 35.55813953488372,
          "velocity": 0.3937007874015748
        },
        {
          "duration": 0.011627906976748648,
          "durationTicks": 1,
          "midi": 36,
          "name": "C2",
          "ticks": 3059,
          "time": 35.56976744186046,
          "velocity": 0.5748031496062992
        },
        {
          "duration": 0.011627906976748648,
          "durationTicks": 1,
          "midi": 43,
          "name": "G2",
          "ticks": 3059,
          "time": 35.56976744186046,
          "velocity": 0.5511811023622047
        },
        {
          "duration": 0.15116279069767558,
          "durationTicks": 13,
          "midi": 62,
          "name": "D4",
          "ticks": 3059,
          "time": 35.56976744186046,
          "velocity": 0.31496062992125984
        },
        {
          "duration": 0.011627906976741542,
          "durationTicks": 1,
          "midi": 33,
          "name": "A1",
          "ticks": 3060,
          "time": 35.58139534883721,
          "velocity": 0.5984251968503937
        },
        {
          "duration": 0.011627906976741542,
          "durationTicks": 1,
          "midi": 37,
          "name": "C#2",
          "ticks": 3061,
          "time": 35.593023255813954,
          "velocity": 0.6850393700787402
        },
        {
          "duration": 0.02325581395349019,
          "durationTicks": 2,
          "midi": 53,
          "name": "F3",
          "ticks": 3061,
          "time": 35.593023255813954,
          "velocity": 0.3858267716535433
        },
        {
          "duration": 0.011627906976748648,
          "durationTicks": 1,
          "midi": 36,
          "name": "C2",
          "ticks": 3062,
          "time": 35.604651162790695,
          "velocity": 0.7007874015748031
        },
        {
          "duration": 0.011627906976741542,
          "durationTicks": 1,
          "midi": 34,
          "name": "A#1",
          "ticks": 3063,
          "time": 35.616279069767444,
          "velocity": 0.7007874015748031
        },
        {
          "duration": 0.023255813953483084,
          "durationTicks": 2,
          "midi": 54,
          "name": "F#3",
          "ticks": 3063,
          "time": 35.616279069767444,
          "velocity": 0.30708661417322836
        },
        {
          "duration": 0.011627906976741542,
          "durationTicks": 1,
          "midi": 35,
          "name": "B1",
          "ticks": 3064,
          "time": 35.627906976744185,
          "velocity": 0.7244094488188977
        },
        {
          "duration": 0.011627906976748648,
          "durationTicks": 1,
          "midi": 36,
          "name": "C2",
          "ticks": 3065,
          "time": 35.63953488372093,
          "velocity": 0.6929133858267716
        },
        {
          "duration": 0.02325581395349019,
          "durationTicks": 2,
          "midi": 35,
          "name": "B1",
          "ticks": 3066,
          "time": 35.651162790697676,
          "velocity": 0.6929133858267716
        },
        {
          "duration": 0.02325581395349019,
          "durationTicks": 2,
          "midi": 56,
          "name": "G#3",
          "ticks": 3067,
          "time": 35.66279069767442,
          "velocity": 0.2440944881889764
        },
        {
          "duration": 0.046511627906973274,
          "durationTicks": 4,
          "midi": 36,
          "name": "C2",
          "ticks": 3068,
          "time": 35.674418604651166,
          "velocity": 0.6850393700787402
        },
        {
          "duration": 0.03488372093023173,
          "durationTicks": 3,
          "midi": 35,
          "name": "B1",
          "ticks": 3072,
          "time": 35.72093023255814,
          "velocity": 0.5511811023622047
        },
        {
          "duration": 0.023255813953483084,
          "durationTicks": 2,
          "midi": 41,
          "name": "F2",
          "ticks": 3079,
          "time": 35.80232558139535,
          "velocity": 0.5511811023622047
        },
        {
          "duration": 0.02325581395349019,
          "durationTicks": 2,
          "midi": 56,
          "name": "G#3",
          "ticks": 3080,
          "time": 35.81395348837209,
          "velocity": 0.31496062992125984
        },
        {
          "duration": 0.011627906976748648,
          "durationTicks": 1,
          "midi": 40,
          "name": "E2",
          "ticks": 3081,
          "time": 35.825581395348834,
          "velocity": 0.6062992125984252
        },
        {
          "duration": 0.011627906976741542,
          "durationTicks": 1,
          "midi": 37,
          "name": "C#2",
          "ticks": 3082,
          "time": 35.83720930232558,
          "velocity": 0.5748031496062992
        },
        {
          "duration": 0.011627906976748648,
          "durationTicks": 1,
          "midi": 33,
          "name": "A1",
          "ticks": 3083,
          "time": 35.848837209302324,
          "velocity": 0.5669291338582677
        },
        {
          "duration": 0.02325581395349019,
          "durationTicks": 2,
          "midi": 56,
          "name": "G#3",
          "ticks": 3083,
          "time": 35.848837209302324,
          "velocity": 0.33070866141732286
        },
        {
          "duration": 0.011627906976741542,
          "durationTicks": 1,
          "midi": 34,
          "name": "A#1",
          "ticks": 3084,
          "time": 35.86046511627907,
          "velocity": 0.6062992125984252
        },
        {
          "duration": 0.02325581395349019,
          "durationTicks": 2,
          "midi": 36,
          "name": "C2",
          "ticks": 3085,
          "time": 35.872093023255815,
          "velocity": 0.5196850393700787
        },
        {
          "duration": 0.1046511627906952,
          "durationTicks": 9,
          "midi": 62,
          "name": "D4",
          "ticks": 3085,
          "time": 35.872093023255815,
          "velocity": 0.2440944881889764
        },
        {
          "duration": 0.02325581395349019,
          "durationTicks": 2,
          "midi": 35,
          "name": "B1",
          "ticks": 3086,
          "time": 35.883720930232556,
          "velocity": 0.5669291338582677
        },
        {
          "duration": 0.04651162790698038,
          "durationTicks": 4,
          "midi": 56,
          "name": "G#3",
          "ticks": 3086,
          "time": 35.883720930232556,
          "velocity": 0.2283464566929134
        },
        {
          "duration": 0.011627906976741542,
          "durationTicks": 1,
          "midi": 36,
          "name": "C2",
          "ticks": 3088,
          "time": 35.906976744186046,
          "velocity": 0.6456692913385826
        },
        {
          "duration": 0.02325581395349019,
          "durationTicks": 2,
          "midi": 35,
          "name": "B1",
          "ticks": 3089,
          "time": 35.91860465116279,
          "velocity": 0.6062992125984252
        },
        {
          "duration": 0.011627906976748648,
          "durationTicks": 1,
          "midi": 39,
          "name": "D#2",
          "ticks": 3091,
          "time": 35.94186046511628,
          "velocity": 0.5669291338582677
        },
        {
          "duration": 0.011627906976741542,
          "durationTicks": 1,
          "midi": 37,
          "name": "C#2",
          "ticks": 3092,
          "time": 35.95348837209303,
          "velocity": 0.5984251968503937
        },
        {
          "duration": 0.011627906976741542,
          "durationTicks": 1,
          "midi": 32,
          "name": "G#1",
          "ticks": 3093,
          "time": 35.96511627906977,
          "velocity": 0.5511811023622047
        },
        {
          "duration": 0.011627906976748648,
          "durationTicks": 1,
          "midi": 32,
          "name": "G#1",
          "ticks": 3097,
          "time": 36.01162790697674,
          "velocity": 0.5118110236220472
        },
        {
          "duration": 0.011627906976741542,
          "durationTicks": 1,
          "midi": 35,
          "name": "B1",
          "ticks": 3098,
          "time": 36.02325581395349,
          "velocity": 0.5196850393700787
        },
        {
          "duration": 0.02325581395349019,
          "durationTicks": 2,
          "midi": 50,
          "name": "D3",
          "ticks": 3100,
          "time": 36.04651162790697,
          "velocity": 0.3700787401574803
        },
        {
          "duration": 0.011627906976741542,
          "durationTicks": 1,
          "midi": 33,
          "name": "A1",
          "ticks": 3101,
          "time": 36.05813953488372,
          "velocity": 0.5590551181102362
        },
        {
          "duration": 0.046511627906973274,
          "durationTicks": 4,
          "midi": 60,
          "name": "C4",
          "ticks": 3101,
          "time": 36.05813953488372,
          "velocity": 0.4015748031496063
        },
        {
          "duration": 0.02325581395349019,
          "durationTicks": 2,
          "midi": 34,
          "name": "A#1",
          "ticks": 3102,
          "time": 36.06976744186046,
          "velocity": 0.6141732283464567
        },
        {
          "duration": 0.03488372093023173,
          "durationTicks": 3,
          "midi": 51,
          "name": "D#3",
          "ticks": 3102,
          "time": 36.06976744186046,
          "velocity": 0.5748031496062992
        },
        {
          "duration": 0.03488372093023173,
          "durationTicks": 3,
          "midi": 64,
          "name": "E4",
          "ticks": 3102,
          "time": 36.06976744186046,
          "velocity": 0.3228346456692913
        },
        {
          "duration": 0.02325581395349019,
          "durationTicks": 2,
          "midi": 67,
          "name": "G4",
          "ticks": 3102,
          "time": 36.06976744186046,
          "velocity": 0.2992125984251969
        },
        {
          "duration": 0.03488372093023173,
          "durationTicks": 3,
          "midi": 74,
          "name": "D5",
          "ticks": 3102,
          "time": 36.06976744186046,
          "velocity": 0.16535433070866143
        },
        {
          "duration": 0.011627906976741542,
          "durationTicks": 1,
          "midi": 45,
          "name": "A2",
          "ticks": 3103,
          "time": 36.08139534883721,
          "velocity": 0.5433070866141733
        },
        {
          "duration": 0.011627906976741542,
          "durationTicks": 1,
          "midi": 32,
          "name": "G#1",
          "ticks": 3104,
          "time": 36.093023255813954,
          "velocity": 0.5905511811023622
        },
        {
          "duration": 0.03488372093023173,
          "durationTicks": 3,
          "midi": 70,
          "name": "A#4",
          "ticks": 3104,
          "time": 36.093023255813954,
          "velocity": 0.1968503937007874
        },
        {
          "duration": 0.011627906976748648,
          "durationTicks": 1,
          "midi": 20,
          "name": "G#0",
          "ticks": 3105,
          "time": 36.104651162790695,
          "velocity": 0.5354330708661418
        },
        {
          "duration": 0.011627906976748648,
          "durationTicks": 1,
          "midi": 41,
          "name": "F2",
          "ticks": 3105,
          "time": 36.104651162790695,
          "velocity": 0.6535433070866141
        },
        {
          "duration": 0.023255813953483084,
          "durationTicks": 2,
          "midi": 40,
          "name": "E2",
          "ticks": 3106,
          "time": 36.116279069767444,
          "velocity": 0.6377952755905512
        },
        {
          "duration": 0.081395348837205,
          "durationTicks": 7,
          "midi": 62,
          "name": "D4",
          "ticks": 3106,
          "time": 36.116279069767444,
          "velocity": 0.4094488188976378
        },
        {
          "duration": 0.02325581395349019,
          "durationTicks": 2,
          "midi": 32,
          "name": "G#1",
          "ticks": 3107,
          "time": 36.127906976744185,
          "velocity": 0.6299212598425197
        },
        {
          "duration": 0.02325581395349019,
          "durationTicks": 2,
          "midi": 48,
          "name": "C3",
          "ticks": 3107,
          "time": 36.127906976744185,
          "velocity": 0.5275590551181102
        },
        {
          "duration": 0.02325581395349019,
          "durationTicks": 2,
          "midi": 57,
          "name": "A3",
          "ticks": 3108,
          "time": 36.13953488372093,
          "velocity": 0.47244094488188976
        },
        {
          "duration": 0.011627906976741542,
          "durationTicks": 1,
          "midi": 31,
          "name": "G1",
          "ticks": 3109,
          "time": 36.151162790697676,
          "velocity": 0.7007874015748031
        },
        {
          "duration": 0.011627906976748648,
          "durationTicks": 1,
          "midi": 32,
          "name": "G#1",
          "ticks": 3110,
          "time": 36.16279069767442,
          "velocity": 0.7244094488188977
        },
        {
          "duration": 0.02325581395349019,
          "durationTicks": 2,
          "midi": 56,
          "name": "G#3",
          "ticks": 3110,
          "time": 36.16279069767442,
          "velocity": 0.4409448818897638
        },
        {
          "duration": 0.011627906976741542,
          "durationTicks": 1,
          "midi": 35,
          "name": "B1",
          "ticks": 3111,
          "time": 36.174418604651166,
          "velocity": 0.7559055118110236
        },
        {
          "duration": 0.011627906976741542,
          "durationTicks": 1,
          "midi": 37,
          "name": "C#2",
          "ticks": 3112,
          "time": 36.18604651162791,
          "velocity": 0.7086614173228346
        },
        {
          "duration": 0.011627906976748648,
          "durationTicks": 1,
          "midi": 36,
          "name": "C2",
          "ticks": 3113,
          "time": 36.19767441860465,
          "velocity": 0.6614173228346457
        },
        {
          "duration": 0.011627906976741542,
          "durationTicks": 1,
          "midi": 34,
          "name": "A#1",
          "ticks": 3114,
          "time": 36.2093023255814,
          "velocity": 0.6771653543307087
        },
        {
          "duration": 0.046511627906973274,
          "durationTicks": 4,
          "midi": 62,
          "name": "D4",
          "ticks": 3114,
          "time": 36.2093023255814,
          "velocity": 0.31496062992125984
        },
        {
          "duration": 0.011627906976741542,
          "durationTicks": 1,
          "midi": 35,
          "name": "B1",
          "ticks": 3115,
          "time": 36.22093023255814,
          "velocity": 0.6850393700787402
        },
        {
          "duration": 0.011627906976748648,
          "durationTicks": 1,
          "midi": 36,
          "name": "C2",
          "ticks": 3116,
          "time": 36.23255813953488,
          "velocity": 0.6299212598425197
        },
        {
          "duration": 0.011627906976741542,
          "durationTicks": 1,
          "midi": 34,
          "name": "A#1",
          "ticks": 3117,
          "time": 36.24418604651163,
          "velocity": 0.5590551181102362
        },
        {
          "duration": 0.011627906976741542,
          "durationTicks": 1,
          "midi": 40,
          "name": "E2",
          "ticks": 3117,
          "time": 36.24418604651163,
          "velocity": 0.5275590551181102
        },
        {
          "duration": 0.011627906976748648,
          "durationTicks": 1,
          "midi": 33,
          "name": "A1",
          "ticks": 3118,
          "time": 36.25581395348837,
          "velocity": 0.6220472440944882
        },
        {
          "duration": 0.011627906976741542,
          "durationTicks": 1,
          "midi": 35,
          "name": "B1",
          "ticks": 3119,
          "time": 36.26744186046512,
          "velocity": 0.6141732283464567
        },
        {
          "duration": 0.046511627906973274,
          "durationTicks": 4,
          "midi": 62,
          "name": "D4",
          "ticks": 3119,
          "time": 36.26744186046512,
          "velocity": 0.18110236220472442
        },
        {
          "duration": 0.011627906976741542,
          "durationTicks": 1,
          "midi": 31,
          "name": "G1",
          "ticks": 3120,
          "time": 36.27906976744186,
          "velocity": 0.5433070866141733
        },
        {
          "duration": 0.011627906976741542,
          "durationTicks": 1,
          "midi": 40,
          "name": "E2",
          "ticks": 3120,
          "time": 36.27906976744186,
          "velocity": 0.5433070866141733
        },
        {
          "duration": 0.011627906976748648,
          "durationTicks": 1,
          "midi": 30,
          "name": "F#1",
          "ticks": 3121,
          "time": 36.2906976744186,
          "velocity": 0.5196850393700787
        },
        {
          "duration": 0.011627906976748648,
          "durationTicks": 1,
          "midi": 42,
          "name": "F#2",
          "ticks": 3121,
          "time": 36.2906976744186,
          "velocity": 0.5511811023622047
        },
        {
          "duration": 0.023255813953483084,
          "durationTicks": 2,
          "midi": 29,
          "name": "F1",
          "ticks": 3122,
          "time": 36.30232558139535,
          "velocity": 0.5433070866141733
        },
        {
          "duration": 0.02325581395349019,
          "durationTicks": 2,
          "midi": 48,
          "name": "C3",
          "ticks": 3123,
          "time": 36.31395348837209,
          "velocity": 0.47244094488188976
        },
        {
          "duration": 0.03488372093023884,
          "durationTicks": 3,
          "midi": 31,
          "name": "G1",
          "ticks": 3124,
          "time": 36.325581395348834,
          "velocity": 0.5905511811023622
        },
        {
          "duration": 0.03488372093023173,
          "durationTicks": 3,
          "midi": 78,
          "name": "F#5",
          "ticks": 3125,
          "time": 36.33720930232558,
          "velocity": 0.1889763779527559
        },
        {
          "duration": 0.046511627906973274,
          "durationTicks": 4,
          "midi": 87,
          "name": "D#6",
          "ticks": 3125,
          "time": 36.33720930232558,
          "velocity": 0.1732283464566929
        },
        {
          "duration": 0.03488372093023173,
          "durationTicks": 3,
          "midi": 94,
          "name": "A#6",
          "ticks": 3125,
          "time": 36.33720930232558,
          "velocity": 0.1732283464566929
        },
        {
          "duration": 0.05813953488372192,
          "durationTicks": 5,
          "midi": 98,
          "name": "D7",
          "ticks": 3125,
          "time": 36.33720930232558,
          "velocity": 0.2204724409448819
        },
        {
          "duration": 0.046511627906973274,
          "durationTicks": 4,
          "midi": 100,
          "name": "E7",
          "ticks": 3125,
          "time": 36.33720930232558,
          "velocity": 0.1889763779527559
        },
        {
          "duration": 0.046511627906973274,
          "durationTicks": 4,
          "midi": 103,
          "name": "G7",
          "ticks": 3125,
          "time": 36.33720930232558,
          "velocity": 0.09448818897637795
        },
        {
          "duration": 0.03488372093023173,
          "durationTicks": 3,
          "midi": 56,
          "name": "G#3",
          "ticks": 3126,
          "time": 36.348837209302324,
          "velocity": 0.29133858267716534
        },
        {
          "duration": 0.03488372093023173,
          "durationTicks": 3,
          "midi": 83,
          "name": "B5",
          "ticks": 3126,
          "time": 36.348837209302324,
          "velocity": 0.2125984251968504
        },
        {
          "duration": 0.03488372093023173,
          "durationTicks": 3,
          "midi": 89,
          "name": "F6",
          "ticks": 3126,
          "time": 36.348837209302324,
          "velocity": 0.23622047244094488
        },
        {
          "duration": 0.04651162790698038,
          "durationTicks": 4,
          "midi": 92,
          "name": "G#6",
          "ticks": 3126,
          "time": 36.348837209302324,
          "velocity": 0.11023622047244094
        },
        {
          "duration": 0.06976744186046346,
          "durationTicks": 6,
          "midi": 93,
          "name": "A6",
          "ticks": 3126,
          "time": 36.348837209302324,
          "velocity": 0.09448818897637795
        },
        {
          "duration": 0.03488372093023173,
          "durationTicks": 3,
          "midi": 96,
          "name": "C7",
          "ticks": 3126,
          "time": 36.348837209302324,
          "velocity": 0.1732283464566929
        },
        {
          "duration": 0.04651162790698038,
          "durationTicks": 4,
          "midi": 97,
          "name": "C#7",
          "ticks": 3126,
          "time": 36.348837209302324,
          "velocity": 0.1732283464566929
        },
        {
          "duration": 0.011627906976741542,
          "durationTicks": 1,
          "midi": 29,
          "name": "F1",
          "ticks": 3127,
          "time": 36.36046511627907,
          "velocity": 0.5275590551181102
        },
        {
          "duration": 0.011627906976741542,
          "durationTicks": 1,
          "midi": 40,
          "name": "E2",
          "ticks": 3127,
          "time": 36.36046511627907,
          "velocity": 0.5669291338582677
        },
        {
          "duration": 0.058139534883714816,
          "durationTicks": 5,
          "midi": 79,
          "name": "G5",
          "ticks": 3127,
          "time": 36.36046511627907,
          "velocity": 0.08661417322834646
        },
        {
          "duration": 0.011627906976741542,
          "durationTicks": 1,
          "midi": 41,
          "name": "F2",
          "ticks": 3128,
          "time": 36.372093023255815,
          "velocity": 0.5748031496062992
        },
        {
          "duration": 0.011627906976748648,
          "durationTicks": 1,
          "midi": 31,
          "name": "G1",
          "ticks": 3129,
          "time": 36.383720930232556,
          "velocity": 0.5984251968503937
        },
        {
          "duration": 0.03488372093023173,
          "durationTicks": 3,
          "midi": 84,
          "name": "C6",
          "ticks": 3129,
          "time": 36.383720930232556,
          "velocity": 0.14173228346456693
        },
        {
          "duration": 0.011627906976741542,
          "durationTicks": 1,
          "midi": 32,
          "name": "G#1",
          "ticks": 3130,
          "time": 36.395348837209305,
          "velocity": 0.5984251968503937
        },
        {
          "duration": 0.023255813953483084,
          "durationTicks": 2,
          "midi": 56,
          "name": "G#3",
          "ticks": 3130,
          "time": 36.395348837209305,
          "velocity": 0.3543307086614173
        },
        {
          "duration": 0.011627906976741542,
          "durationTicks": 1,
          "midi": 34,
          "name": "A#1",
          "ticks": 3131,
          "time": 36.406976744186046,
          "velocity": 0.5826771653543307
        },
        {
          "duration": 0.05813953488372192,
          "durationTicks": 5,
          "midi": 62,
          "name": "D4",
          "ticks": 3131,
          "time": 36.406976744186046,
          "velocity": 0.2755905511811024
        },
        {
          "duration": 0.011627906976748648,
          "durationTicks": 1,
          "midi": 34,
          "name": "A#1",
          "ticks": 3134,
          "time": 36.44186046511628,
          "velocity": 0.5433070866141733
        },
        {
          "duration": 0.023255813953483084,
          "durationTicks": 2,
          "midi": 31,
          "name": "G1",
          "ticks": 3135,
          "time": 36.45348837209303,
          "velocity": 0.5433070866141733
        },
        {
          "duration": 0.011627906976741542,
          "durationTicks": 1,
          "midi": 41,
          "name": "F2",
          "ticks": 3135,
          "time": 36.45348837209303,
          "velocity": 0.5275590551181102
        },
        {
          "duration": 0.023255813953483084,
          "durationTicks": 2,
          "midi": 50,
          "name": "D3",
          "ticks": 3135,
          "time": 36.45348837209303,
          "velocity": 0.36220472440944884
        },
        {
          "duration": 0.03488372093023173,
          "durationTicks": 3,
          "midi": 100,
          "name": "E7",
          "ticks": 3136,
          "time": 36.46511627906977,
          "velocity": 0.1968503937007874
        },
        {
          "duration": 0.02325581395349019,
          "durationTicks": 2,
          "midi": 41,
          "name": "F2",
          "ticks": 3137,
          "time": 36.47674418604651,
          "velocity": 0.5590551181102362
        },
        {
          "duration": 0.02325581395349019,
          "durationTicks": 2,
          "midi": 51,
          "name": "D#3",
          "ticks": 3137,
          "time": 36.47674418604651,
          "velocity": 0.3228346456692913
        },
        {
          "duration": 0.03488372093023173,
          "durationTicks": 3,
          "midi": 93,
          "name": "A6",
          "ticks": 3137,
          "time": 36.47674418604651,
          "velocity": 0.11811023622047244
        },
        {
          "duration": 0.04651162790698038,
          "durationTicks": 4,
          "midi": 99,
          "name": "D#7",
          "ticks": 3137,
          "time": 36.47674418604651,
          "velocity": 0.14173228346456693
        },
        {
          "duration": 0.04651162790698038,
          "durationTicks": 4,
          "midi": 101,
          "name": "F7",
          "ticks": 3137,
          "time": 36.47674418604651,
          "velocity": 0.16535433070866143
        },
        {
          "duration": 0.011627906976741542,
          "durationTicks": 1,
          "midi": 37,
          "name": "C#2",
          "ticks": 3139,
          "time": 36.5,
          "velocity": 0.5826771653543307
        },
        {
          "duration": 0.02325581395349019,
          "durationTicks": 2,
          "midi": 50,
          "name": "D3",
          "ticks": 3139,
          "time": 36.5,
          "velocity": 0.23622047244094488
        },
        {
          "duration": 0.011627906976748648,
          "durationTicks": 1,
          "midi": 40,
          "name": "E2",
          "ticks": 3140,
          "time": 36.51162790697674,
          "velocity": 0.5590551181102362
        },
        {
          "duration": 0.011627906976748648,
          "durationTicks": 1,
          "midi": 34,
          "name": "A#1",
          "ticks": 3143,
          "time": 36.54651162790697,
          "velocity": 0.5826771653543307
        },
        {
          "duration": 0.011627906976741542,
          "durationTicks": 1,
          "midi": 36,
          "name": "C2",
          "ticks": 3144,
          "time": 36.55813953488372,
          "velocity": 0.5511811023622047
        },
        {
          "duration": 0.02325581395349019,
          "durationTicks": 2,
          "midi": 37,
          "name": "C#2",
          "ticks": 3145,
          "time": 36.56976744186046,
          "velocity": 0.4094488188976378
        },
        {
          "duration": 0.02325581395349019,
          "durationTicks": 2,
          "midi": 35,
          "name": "B1",
          "ticks": 3147,
          "time": 36.593023255813954,
          "velocity": 0.5826771653543307
        },
        {
          "duration": 0.02325581395349019,
          "durationTicks": 2,
          "midi": 55,
          "name": "G3",
          "ticks": 3147,
          "time": 36.593023255813954,
          "velocity": 0.23622047244094488
        },
        {
          "duration": 0.06976744186047057,
          "durationTicks": 6,
          "midi": 98,
          "name": "D7",
          "ticks": 3148,
          "time": 36.604651162790695,
          "velocity": 0.2125984251968504
        },
        {
          "duration": 0.011627906976741542,
          "durationTicks": 1,
          "midi": 33,
          "name": "A1",
          "ticks": 3149,
          "time": 36.616279069767444,
          "velocity": 0.5590551181102362
        },
        {
          "duration": 0.011627906976741542,
          "durationTicks": 1,
          "midi": 44,
          "name": "G#2",
          "ticks": 3149,
          "time": 36.616279069767444,
          "velocity": 0.5354330708661418
        },
        {
          "duration": 0.023255813953483084,
          "durationTicks": 2,
          "midi": 64,
          "name": "E4",
          "ticks": 3149,
          "time": 36.616279069767444,
          "velocity": 0.33070866141732286
        },
        {
          "duration": 0.06976744186046346,
          "durationTicks": 6,
          "midi": 78,
          "name": "F#5",
          "ticks": 3149,
          "time": 36.616279069767444,
          "velocity": 0.16535433070866143
        },
        {
          "duration": 0.03488372093023173,
          "durationTicks": 3,
          "midi": 81,
          "name": "A5",
          "ticks": 3149,
          "time": 36.616279069767444,
          "velocity": 0.12598425196850394
        },
        {
          "duration": 0.03488372093023173,
          "durationTicks": 3,
          "midi": 83,
          "name": "B5",
          "ticks": 3149,
          "time": 36.616279069767444,
          "velocity": 0.2204724409448819
        },
        {
          "duration": 0.03488372093023173,
          "durationTicks": 3,
          "midi": 87,
          "name": "D#6",
          "ticks": 3149,
          "time": 36.616279069767444,
          "velocity": 0.15748031496062992
        },
        {
          "duration": 0.06976744186046346,
          "durationTicks": 6,
          "midi": 89,
          "name": "F6",
          "ticks": 3149,
          "time": 36.616279069767444,
          "velocity": 0.23622047244094488
        },
        {
          "duration": 0.046511627906973274,
          "durationTicks": 4,
          "midi": 92,
          "name": "G#6",
          "ticks": 3149,
          "time": 36.616279069767444,
          "velocity": 0.14960629921259844
        },
        {
          "duration": 0.03488372093023173,
          "durationTicks": 3,
          "midi": 94,
          "name": "A#6",
          "ticks": 3149,
          "time": 36.616279069767444,
          "velocity": 0.14960629921259844
        },
        {
          "duration": 0.03488372093023173,
          "durationTicks": 3,
          "midi": 96,
          "name": "C7",
          "ticks": 3149,
          "time": 36.616279069767444,
          "velocity": 0.18110236220472442
        },
        {
          "duration": 0.046511627906973274,
          "durationTicks": 4,
          "midi": 97,
          "name": "C#7",
          "ticks": 3149,
          "time": 36.616279069767444,
          "velocity": 0.1732283464566929
        },
        {
          "duration": 0.05813953488372192,
          "durationTicks": 5,
          "midi": 99,
          "name": "D#7",
          "ticks": 3149,
          "time": 36.616279069767444,
          "velocity": 0.15748031496062992
        },
        {
          "duration": 0.03488372093023173,
          "durationTicks": 3,
          "midi": 100,
          "name": "E7",
          "ticks": 3149,
          "time": 36.616279069767444,
          "velocity": 0.1889763779527559
        },
        {
          "duration": 0.03488372093023173,
          "durationTicks": 3,
          "midi": 103,
          "name": "G7",
          "ticks": 3149,
          "time": 36.616279069767444,
          "velocity": 0.11811023622047244
        },
        {
          "duration": 0.011627906976741542,
          "durationTicks": 1,
          "midi": 42,
          "name": "F#2",
          "ticks": 3150,
          "time": 36.627906976744185,
          "velocity": 0.6141732283464567
        },
        {
          "duration": 0.03488372093023173,
          "durationTicks": 3,
          "midi": 85,
          "name": "C#6",
          "ticks": 3150,
          "time": 36.627906976744185,
          "velocity": 0.14960629921259844
        },
        {
          "duration": 0.011627906976748648,
          "durationTicks": 1,
          "midi": 29,
          "name": "F1",
          "ticks": 3151,
          "time": 36.63953488372093,
          "velocity": 0.5669291338582677
        },
        {
          "duration": 0.011627906976748648,
          "durationTicks": 1,
          "midi": 41,
          "name": "F2",
          "ticks": 3151,
          "time": 36.63953488372093,
          "velocity": 0.6535433070866141
        },
        {
          "duration": 0.011627906976741542,
          "durationTicks": 1,
          "midi": 40,
          "name": "E2",
          "ticks": 3152,
          "time": 36.651162790697676,
          "velocity": 0.6614173228346457
        },
        {
          "duration": 0.15116279069767558,
          "durationTicks": 13,
          "midi": 62,
          "name": "D4",
          "ticks": 3152,
          "time": 36.651162790697676,
          "velocity": 0.3858267716535433
        },
        {
          "duration": 0.046511627906973274,
          "durationTicks": 4,
          "midi": 93,
          "name": "A6",
          "ticks": 3152,
          "time": 36.651162790697676,
          "velocity": 0.08661417322834646
        },
        {
          "duration": 0.011627906976748648,
          "durationTicks": 1,
          "midi": 36,
          "name": "C2",
          "ticks": 3153,
          "time": 36.66279069767442,
          "velocity": 0.5669291338582677
        },
        {
          "duration": 0.011627906976748648,
          "durationTicks": 1,
          "midi": 43,
          "name": "G2",
          "ticks": 3153,
          "time": 36.66279069767442,
          "velocity": 0.5354330708661418
        },
        {
          "duration": 0.011627906976741542,
          "durationTicks": 1,
          "midi": 34,
          "name": "A#1",
          "ticks": 3154,
          "time": 36.674418604651166,
          "velocity": 0.5905511811023622
        },
        {
          "duration": 0.02325581395349019,
          "durationTicks": 2,
          "midi": 36,
          "name": "C2",
          "ticks": 3155,
          "time": 36.68604651162791,
          "velocity": 0.7007874015748031
        },
        {
          "duration": 0.02325581395349019,
          "durationTicks": 2,
          "midi": 53,
          "name": "F3",
          "ticks": 3155,
          "time": 36.68604651162791,
          "velocity": 0.3858267716535433
        },
        {
          "duration": 0.011627906976741542,
          "durationTicks": 1,
          "midi": 34,
          "name": "A#1",
          "ticks": 3157,
          "time": 36.7093023255814,
          "velocity": 0.6929133858267716
        },
        {
          "duration": 0.023255813953483084,
          "durationTicks": 2,
          "midi": 54,
          "name": "F#3",
          "ticks": 3157,
          "time": 36.7093023255814,
          "velocity": 0.31496062992125984
        },
        {
          "duration": 0.011627906976741542,
          "durationTicks": 1,
          "midi": 35,
          "name": "B1",
          "ticks": 3158,
          "time": 36.72093023255814,
          "velocity": 0.7244094488188977
        },
        {
          "duration": 0.011627906976748648,
          "durationTicks": 1,
          "midi": 36,
          "name": "C2",
          "ticks": 3159,
          "time": 36.73255813953488,
          "velocity": 0.7007874015748031
        },
        {
          "duration": 0.02325581395349019,
          "durationTicks": 2,
          "midi": 50,
          "name": "D3",
          "ticks": 3159,
          "time": 36.73255813953488,
          "velocity": 0.36220472440944884
        },
        {
          "duration": 0.02325581395349019,
          "durationTicks": 2,
          "midi": 35,
          "name": "B1",
          "ticks": 3160,
          "time": 36.74418604651163,
          "velocity": 0.6929133858267716
        },
        {
          "duration": 0.046511627906973274,
          "durationTicks": 4,
          "midi": 99,
          "name": "D#7",
          "ticks": 3160,
          "time": 36.74418604651163,
          "velocity": 0.15748031496062992
        },
        {
          "duration": 0.03488372093023173,
          "durationTicks": 3,
          "midi": 100,
          "name": "E7",
          "ticks": 3160,
          "time": 36.74418604651163,
          "velocity": 0.1889763779527559
        },
        {
          "duration": 0.03488372093023173,
          "durationTicks": 3,
          "midi": 101,
          "name": "F7",
          "ticks": 3160,
          "time": 36.74418604651163,
          "velocity": 0.16535433070866143
        },
        {
          "duration": 0.02325581395349019,
          "durationTicks": 2,
          "midi": 56,
          "name": "G#3",
          "ticks": 3161,
          "time": 36.75581395348837,
          "velocity": 0.2440944881889764
        },
        {
          "duration": 0.03488372093023173,
          "durationTicks": 3,
          "midi": 36,
          "name": "C2",
          "ticks": 3162,
          "time": 36.76744186046512,
          "velocity": 0.6692913385826772
        },
        {
          "duration": 0.03488372093023173,
          "durationTicks": 3,
          "midi": 35,
          "name": "B1",
          "ticks": 3165,
          "time": 36.80232558139535,
          "velocity": 0.5511811023622047
        },
        {
          "duration": 0.03488372093023884,
          "durationTicks": 3,
          "midi": 53,
          "name": "F3",
          "ticks": 3167,
          "time": 36.825581395348834,
          "velocity": 0.2204724409448819
        },
        {
          "duration": 0.02325581395349019,
          "durationTicks": 2,
          "midi": 29,
          "name": "F1",
          "ticks": 3172,
          "time": 36.883720930232556,
          "velocity": 0.3464566929133858
        },
        {
          "duration": 0.04651162790698038,
          "durationTicks": 4,
          "midi": 78,
          "name": "F#5",
          "ticks": 3172,
          "time": 36.883720930232556,
          "velocity": 0.2125984251968504
        },
        {
          "duration": 0.09302325581395365,
          "durationTicks": 8,
          "midi": 85,
          "name": "C#6",
          "ticks": 3172,
          "time": 36.883720930232556,
          "velocity": 0.2755905511811024
        },
        {
          "duration": 0.03488372093023173,
          "durationTicks": 3,
          "midi": 87,
          "name": "D#6",
          "ticks": 3172,
          "time": 36.883720930232556,
          "velocity": 0.2283464566929134
        },
        {
          "duration": 0.09302325581395365,
          "durationTicks": 8,
          "midi": 91,
          "name": "G6",
          "ticks": 3172,
          "time": 36.883720930232556,
          "velocity": 0.1889763779527559
        },
        {
          "duration": 0.17441860465116577,
          "durationTicks": 15,
          "midi": 93,
          "name": "A6",
          "ticks": 3172,
          "time": 36.883720930232556,
          "velocity": 0.2992125984251969
        },
        {
          "duration": 0.05813953488372192,
          "durationTicks": 5,
          "midi": 94,
          "name": "A#6",
          "ticks": 3172,
          "time": 36.883720930232556,
          "velocity": 0.29133858267716534
        },
        {
          "duration": 0.06976744186047057,
          "durationTicks": 6,
          "midi": 98,
          "name": "D7",
          "ticks": 3172,
          "time": 36.883720930232556,
          "velocity": 0.1732283464566929
        },
        {
          "duration": 0.06976744186047057,
          "durationTicks": 6,
          "midi": 100,
          "name": "E7",
          "ticks": 3172,
          "time": 36.883720930232556,
          "velocity": 0.2204724409448819
        },
        {
          "duration": 0.06976744186047057,
          "durationTicks": 6,
          "midi": 101,
          "name": "F7",
          "ticks": 3172,
          "time": 36.883720930232556,
          "velocity": 0.14173228346456693
        },
        {
          "duration": 0.03488372093023173,
          "durationTicks": 3,
          "midi": 83,
          "name": "B5",
          "ticks": 3173,
          "time": 36.895348837209305,
          "velocity": 0.1732283464566929
        },
        {
          "duration": 0.11627906976743674,
          "durationTicks": 10,
          "midi": 89,
          "name": "F6",
          "ticks": 3173,
          "time": 36.895348837209305,
          "velocity": 0.28346456692913385
        },
        {
          "duration": 0.046511627906973274,
          "durationTicks": 4,
          "midi": 90,
          "name": "F#6",
          "ticks": 3173,
          "time": 36.895348837209305,
          "velocity": 0.2440944881889764
        },
        {
          "duration": 0.05813953488372192,
          "durationTicks": 5,
          "midi": 96,
          "name": "C7",
          "ticks": 3173,
          "time": 36.895348837209305,
          "velocity": 0.13385826771653545
        },
        {
          "duration": 0.011627906976741542,
          "durationTicks": 1,
          "midi": 41,
          "name": "F2",
          "ticks": 3174,
          "time": 36.906976744186046,
          "velocity": 0.5590551181102362
        },
        {
          "duration": 0.02325581395349019,
          "durationTicks": 2,
          "midi": 51,
          "name": "D#3",
          "ticks": 3174,
          "time": 36.906976744186046,
          "velocity": 0.28346456692913385
        },
        {
          "duration": 0.02325581395349019,
          "durationTicks": 2,
          "midi": 56,
          "name": "G#3",
          "ticks": 3174,
          "time": 36.906976744186046,
          "velocity": 0.2992125984251969
        },
        {
          "duration": 0.06976744186046346,
          "durationTicks": 6,
          "midi": 79,
          "name": "G5",
          "ticks": 3174,
          "time": 36.906976744186046,
          "velocity": 0.13385826771653545
        },
        {
          "duration": 0.011627906976748648,
          "durationTicks": 1,
          "midi": 40,
          "name": "E2",
          "ticks": 3175,
          "time": 36.91860465116279,
          "velocity": 0.6141732283464567
        },
        {
          "duration": 0.02325581395349019,
          "durationTicks": 2,
          "midi": 61,
          "name": "C#4",
          "ticks": 3175,
          "time": 36.91860465116279,
          "velocity": 0.33070866141732286
        },
        {
          "duration": 0.04651162790698038,
          "durationTicks": 4,
          "midi": 92,
          "name": "G#6",
          "ticks": 3175,
          "time": 36.91860465116279,
          "velocity": 0.25984251968503935
        },
        {
          "duration": 0.011627906976741542,
          "durationTicks": 1,
          "midi": 37,
          "name": "C#2",
          "ticks": 3176,
          "time": 36.93023255813954,
          "velocity": 0.5748031496062992
        },
        {
          "duration": 0.05813953488372192,
          "durationTicks": 5,
          "midi": 77,
          "name": "F5",
          "ticks": 3176,
          "time": 36.93023255813954,
          "velocity": 0.13385826771653545
        },
        {
          "duration": 0.03488372093023173,
          "durationTicks": 3,
          "midi": 82,
          "name": "A#5",
          "ticks": 3176,
          "time": 36.93023255813954,
          "velocity": 0.11023622047244094
        },
        {
          "duration": 0.03488372093023173,
          "durationTicks": 3,
          "midi": 84,
          "name": "C6",
          "ticks": 3176,
          "time": 36.93023255813954,
          "velocity": 0.15748031496062992
        },
        {
          "duration": 0.011627906976748648,
          "durationTicks": 1,
          "midi": 33,
          "name": "A1",
          "ticks": 3177,
          "time": 36.94186046511628,
          "velocity": 0.5669291338582677
        },
        {
          "duration": 0.02325581395349019,
          "durationTicks": 2,
          "midi": 56,
          "name": "G#3",
          "ticks": 3177,
          "time": 36.94186046511628,
          "velocity": 0.3464566929133858
        },
        {
          "duration": 0.011627906976741542,
          "durationTicks": 1,
          "midi": 34,
          "name": "A#1",
          "ticks": 3178,
          "time": 36.95348837209303,
          "velocity": 0.6141732283464567
        },
        {
          "duration": 0.046511627906973274,
          "durationTicks": 4,
          "midi": 36,
          "name": "C2",
          "ticks": 3179,
          "time": 36.96511627906977,
          "velocity": 0.6614173228346457
        },
        {
          "duration": 0.02325581395349019,
          "durationTicks": 2,
          "midi": 57,
          "name": "A3",
          "ticks": 3179,
          "time": 36.96511627906977,
          "velocity": 0.31496062992125984
        },
        {
          "duration": 0.046511627906973274,
          "durationTicks": 4,
          "midi": 62,
          "name": "D4",
          "ticks": 3179,
          "time": 36.96511627906977,
          "velocity": 0.2440944881889764
        },
        {
          "duration": 0.03488372093023173,
          "durationTicks": 3,
          "midi": 86,
          "name": "D6",
          "ticks": 3179,
          "time": 36.96511627906977,
          "velocity": 0.16535433070866143
        },
        {
          "duration": 0.03488372093023173,
          "durationTicks": 3,
          "midi": 56,
          "name": "G#3",
          "ticks": 3181,
          "time": 36.98837209302326,
          "velocity": 0.18110236220472442
        },
        {
          "duration": 0.046511627906973274,
          "durationTicks": 4,
          "midi": 84,
          "name": "C6",
          "ticks": 3181,
          "time": 36.98837209302326,
          "velocity": 0.07086614173228346
        },
        {
          "duration": 0.011627906976748648,
          "durationTicks": 1,
          "midi": 35,
          "name": "B1",
          "ticks": 3183,
          "time": 37.01162790697674,
          "velocity": 0.6141732283464567
        },
        {
          "duration": 0.03488372093023173,
          "durationTicks": 3,
          "midi": 100,
          "name": "E7",
          "ticks": 3183,
          "time": 37.01162790697674,
          "velocity": 0.1889763779527559
        },
        {
          "duration": 0.011627906976741542,
          "durationTicks": 1,
          "midi": 34,
          "name": "A#1",
          "ticks": 3184,
          "time": 37.02325581395349,
          "velocity": 0.5669291338582677
        },
        {
          "duration": 0.03488372093023173,
          "durationTicks": 3,
          "midi": 99,
          "name": "D#7",
          "ticks": 3184,
          "time": 37.02325581395349,
          "velocity": 0.14173228346456693
        },
        {
          "duration": 0.011627906976741542,
          "durationTicks": 1,
          "midi": 39,
          "name": "D#2",
          "ticks": 3185,
          "time": 37.03488372093023,
          "velocity": 0.5590551181102362
        },
        {
          "duration": 0.011627906976748648,
          "durationTicks": 1,
          "midi": 37,
          "name": "C#2",
          "ticks": 3186,
          "time": 37.04651162790697,
          "velocity": 0.5905511811023622
        },
        {
          "duration": 0.011627906976741542,
          "durationTicks": 1,
          "midi": 32,
          "name": "G#1",
          "ticks": 3187,
          "time": 37.05813953488372,
          "velocity": 0.5433070866141733
        },
        {
          "duration": 0.011627906976748648,
          "durationTicks": 1,
          "midi": 34,
          "name": "A#1",
          "ticks": 3191,
          "time": 37.104651162790695,
          "velocity": 0.5354330708661418
        },
        {
          "duration": 0.011627906976741542,
          "durationTicks": 1,
          "midi": 35,
          "name": "B1",
          "ticks": 3192,
          "time": 37.116279069767444,
          "velocity": 0.5354330708661418
        },
        {
          "duration": 0.02325581395349019,
          "durationTicks": 2,
          "midi": 26,
          "name": "D1",
          "ticks": 3193,
          "time": 37.127906976744185,
          "velocity": 0.48031496062992124
        },
        {
          "duration": 0.011627906976741542,
          "durationTicks": 1,
          "midi": 32,
          "name": "G#1",
          "ticks": 3195,
          "time": 37.151162790697676,
          "velocity": 0.5511811023622047
        },
        {
          "duration": 0.011627906976748648,
          "durationTicks": 1,
          "midi": 33,
          "name": "A1",
          "ticks": 3196,
          "time": 37.16279069767442,
          "velocity": 0.6062992125984252
        },
        {
          "duration": 0.02325581395349019,
          "durationTicks": 2,
          "midi": 51,
          "name": "D#3",
          "ticks": 3196,
          "time": 37.16279069767442,
          "velocity": 0.5826771653543307
        },
        {
          "duration": 0.03488372093023173,
          "durationTicks": 3,
          "midi": 64,
          "name": "E4",
          "ticks": 3196,
          "time": 37.16279069767442,
          "velocity": 0.3228346456692913
        },
        {
          "duration": 0.02325581395349019,
          "durationTicks": 2,
          "midi": 67,
          "name": "G4",
          "ticks": 3196,
          "time": 37.16279069767442,
          "velocity": 0.2992125984251969
        },
        {
          "duration": 0.03488372093023173,
          "durationTicks": 3,
          "midi": 74,
          "name": "D5",
          "ticks": 3196,
          "time": 37.16279069767442,
          "velocity": 0.1889763779527559
        },
        {
          "duration": 0.011627906976741542,
          "durationTicks": 1,
          "midi": 34,
          "name": "A#1",
          "ticks": 3197,
          "time": 37.174418604651166,
          "velocity": 0.5905511811023622
        },
        {
          "duration": 0.011627906976741542,
          "durationTicks": 1,
          "midi": 45,
          "name": "A2",
          "ticks": 3197,
          "time": 37.174418604651166,
          "velocity": 0.5590551181102362
        },
        {
          "duration": 0.023255813953483084,
          "durationTicks": 2,
          "midi": 60,
          "name": "C4",
          "ticks": 3197,
          "time": 37.174418604651166,
          "velocity": 0.3779527559055118
        },
        {
          "duration": 0.011627906976741542,
          "durationTicks": 1,
          "midi": 32,
          "name": "G#1",
          "ticks": 3198,
          "time": 37.18604651162791,
          "velocity": 0.5905511811023622
        },
        {
          "duration": 0.02325581395349019,
          "durationTicks": 2,
          "midi": 50,
          "name": "D3",
          "ticks": 3198,
          "time": 37.18604651162791,
          "velocity": 0.4645669291338583
        },
        {
          "duration": 0.03488372093023173,
          "durationTicks": 3,
          "midi": 70,
          "name": "A#4",
          "ticks": 3198,
          "time": 37.18604651162791,
          "velocity": 0.1968503937007874
        },
        {
          "duration": 0.011627906976748648,
          "durationTicks": 1,
          "midi": 19,
          "name": "G0",
          "ticks": 3199,
          "time": 37.19767441860465,
          "velocity": 0.5275590551181102
        },
        {
          "duration": 0.011627906976748648,
          "durationTicks": 1,
          "midi": 41,
          "name": "F2",
          "ticks": 3199,
          "time": 37.19767441860465,
          "velocity": 0.6535433070866141
        },
        {
          "duration": 0.023255813953483084,
          "durationTicks": 2,
          "midi": 40,
          "name": "E2",
          "ticks": 3200,
          "time": 37.2093023255814,
          "velocity": 0.6377952755905512
        },
        {
          "duration": 0.081395348837205,
          "durationTicks": 7,
          "midi": 62,
          "name": "D4",
          "ticks": 3200,
          "time": 37.2093023255814,
          "velocity": 0.4094488188976378
        },
        {
          "duration": 0.011627906976741542,
          "durationTicks": 1,
          "midi": 32,
          "name": "G#1",
          "ticks": 3201,
          "time": 37.22093023255814,
          "velocity": 0.5433070866141733
        },
        {
          "duration": 0.02325581395349019,
          "durationTicks": 2,
          "midi": 48,
          "name": "C3",
          "ticks": 3201,
          "time": 37.22093023255814,
          "velocity": 0.5275590551181102
        },
        {
          "duration": 0.02325581395349019,
          "durationTicks": 2,
          "midi": 31,
          "name": "G1",
          "ticks": 3202,
          "time": 37.23255813953488,
          "velocity": 0.7086614173228346
        },
        {
          "duration": 0.02325581395349019,
          "durationTicks": 2,
          "midi": 57,
          "name": "A3",
          "ticks": 3202,
          "time": 37.23255813953488,
          "velocity": 0.48031496062992124
        },
        {
          "duration": 0.011627906976748648,
          "durationTicks": 1,
          "midi": 33,
          "name": "A1",
          "ticks": 3204,
          "time": 37.25581395348837,
          "velocity": 0.7322834645669292
        },
        {
          "duration": 0.02325581395349019,
          "durationTicks": 2,
          "midi": 56,
          "name": "G#3",
          "ticks": 3204,
          "time": 37.25581395348837,
          "velocity": 0.44881889763779526
        },
        {
          "duration": 0.011627906976741542,
          "durationTicks": 1,
          "midi": 35,
          "name": "B1",
          "ticks": 3205,
          "time": 37.26744186046512,
          "velocity": 0.7637795275590551
        },
        {
          "duration": 0.011627906976741542,
          "durationTicks": 1,
          "midi": 37,
          "name": "C#2",
          "ticks": 3206,
          "time": 37.27906976744186,
          "velocity": 0.7086614173228346
        },
        {
          "duration": 0.011627906976748648,
          "durationTicks": 1,
          "midi": 35,
          "name": "B1",
          "ticks": 3207,
          "time": 37.2906976744186,
          "velocity": 0.6614173228346457
        },
        {
          "duration": 0.011627906976741542,
          "durationTicks": 1,
          "midi": 34,
          "name": "A#1",
          "ticks": 3208,
          "time": 37.30232558139535,
          "velocity": 0.6850393700787402
        },
        {
          "duration": 0.046511627906973274,
          "durationTicks": 4,
          "midi": 62,
          "name": "D4",
          "ticks": 3208,
          "time": 37.30232558139535,
          "velocity": 0.3228346456692913
        },
        {
          "duration": 0.011627906976741542,
          "durationTicks": 1,
          "midi": 35,
          "name": "B1",
          "ticks": 3209,
          "time": 37.31395348837209,
          "velocity": 0.7007874015748031
        },
        {
          "duration": 0.011627906976741542,
          "durationTicks": 1,
          "midi": 50,
          "name": "D3",
          "ticks": 3209,
          "time": 37.31395348837209,
          "velocity": 0.5118110236220472
        },
        {
          "duration": 0.011627906976748648,
          "durationTicks": 1,
          "midi": 36,
          "name": "C2",
          "ticks": 3210,
          "time": 37.325581395348834,
          "velocity": 0.6456692913385826
        },
        {
          "duration": 0.02325581395349019,
          "durationTicks": 2,
          "midi": 34,
          "name": "A#1",
          "ticks": 3211,
          "time": 37.33720930232558,
          "velocity": 0.6299212598425197
        },
        {
          "duration": 0.011627906976741542,
          "durationTicks": 1,
          "midi": 42,
          "name": "F#2",
          "ticks": 3211,
          "time": 37.33720930232558,
          "velocity": 0.5275590551181102
        },
        {
          "duration": 0.011627906976741542,
          "durationTicks": 1,
          "midi": 35,
          "name": "B1",
          "ticks": 3213,
          "time": 37.36046511627907,
          "velocity": 0.6141732283464567
        },
        {
          "duration": 0.03488372093023173,
          "durationTicks": 3,
          "midi": 62,
          "name": "D4",
          "ticks": 3213,
          "time": 37.36046511627907,
          "velocity": 0.18110236220472442
        },
        {
          "duration": 0.011627906976741542,
          "durationTicks": 1,
          "midi": 31,
          "name": "G1",
          "ticks": 3214,
          "time": 37.372093023255815,
          "velocity": 0.5511811023622047
        },
        {
          "duration": 0.011627906976741542,
          "durationTicks": 1,
          "midi": 40,
          "name": "E2",
          "ticks": 3214,
          "time": 37.372093023255815,
          "velocity": 0.5433070866141733
        },
        {
          "duration": 0.011627906976748648,
          "durationTicks": 1,
          "midi": 42,
          "name": "F#2",
          "ticks": 3215,
          "time": 37.383720930232556,
          "velocity": 0.5590551181102362
        },
        {
          "duration": 0.011627906976741542,
          "durationTicks": 1,
          "midi": 29,
          "name": "F1",
          "ticks": 3216,
          "time": 37.395348837209305,
          "velocity": 0.5196850393700787
        },
        {
          "duration": 0.023255813953483084,
          "durationTicks": 2,
          "midi": 41,
          "name": "F2",
          "ticks": 3216,
          "time": 37.395348837209305,
          "velocity": 0.5590551181102362
        },
        {
          "duration": 0.02325581395349019,
          "durationTicks": 2,
          "midi": 48,
          "name": "C3",
          "ticks": 3217,
          "time": 37.406976744186046,
          "velocity": 0.47244094488188976
        },
        {
          "duration": 0.02325581395349019,
          "durationTicks": 2,
          "midi": 31,
          "name": "G1",
          "ticks": 3218,
          "time": 37.41860465116279,
          "velocity": 0.5905511811023622
        },
        {
          "duration": 0.02325581395349019,
          "durationTicks": 2,
          "midi": 55,
          "name": "G3",
          "ticks": 3219,
          "time": 37.43023255813954,
          "velocity": 0.2677165354330709
        },
        {
          "duration": 0.011627906976748648,
          "durationTicks": 1,
          "midi": 30,
          "name": "F#1",
          "ticks": 3220,
          "time": 37.44186046511628,
          "velocity": 0.5748031496062992
        },
        {
          "duration": 0.011627906976748648,
          "durationTicks": 1,
          "midi": 46,
          "name": "A#2",
          "ticks": 3220,
          "time": 37.44186046511628,
          "velocity": 0.5118110236220472
        },
        {
          "duration": 0.023255813953483084,
          "durationTicks": 2,
          "midi": 28,
          "name": "E1",
          "ticks": 3221,
          "time": 37.45348837209303,
          "velocity": 0.5669291338582677
        },
        {
          "duration": 0.011627906976741542,
          "durationTicks": 1,
          "midi": 41,
          "name": "F2",
          "ticks": 3221,
          "time": 37.45348837209303,
          "velocity": 0.5590551181102362
        },
        {
          "duration": 0.058139534883714816,
          "durationTicks": 5,
          "midi": 56,
          "name": "G#3",
          "ticks": 3221,
          "time": 37.45348837209303,
          "velocity": 0.3464566929133858
        },
        {
          "duration": 0.02325581395349019,
          "durationTicks": 2,
          "midi": 31,
          "name": "G1",
          "ticks": 3223,
          "time": 37.47674418604651,
          "velocity": 0.6220472440944882
        },
        {
          "duration": 0.08139534883721211,
          "durationTicks": 7,
          "midi": 62,
          "name": "D4",
          "ticks": 3223,
          "time": 37.47674418604651,
          "velocity": 0.25984251968503935
        },
        {
          "duration": 0.011627906976741542,
          "durationTicks": 1,
          "midi": 35,
          "name": "B1",
          "ticks": 3225,
          "time": 37.5,
          "velocity": 0.6062992125984252
        },
        {
          "duration": 0.02325581395349019,
          "durationTicks": 2,
          "midi": 57,
          "name": "A3",
          "ticks": 3226,
          "time": 37.51162790697674,
          "velocity": 0.2992125984251969
        },
        {
          "duration": 0.04651162790698038,
          "durationTicks": 4,
          "midi": 30,
          "name": "F#1",
          "ticks": 3228,
          "time": 37.53488372093023,
          "velocity": 0.5590551181102362
        },
        {
          "duration": 0.03488372093023173,
          "durationTicks": 3,
          "midi": 56,
          "name": "G#3",
          "ticks": 3228,
          "time": 37.53488372093023,
          "velocity": 0.2125984251968504
        },
        {
          "duration": 0.02325581395349019,
          "durationTicks": 2,
          "midi": 50,
          "name": "D3",
          "ticks": 3229,
          "time": 37.54651162790697,
          "velocity": 0.36220472440944884
        },
        {
          "duration": 0.02325581395349019,
          "durationTicks": 2,
          "midi": 41,
          "name": "F2",
          "ticks": 3231,
          "time": 37.56976744186046,
          "velocity": 0.5826771653543307
        },
        {
          "duration": 0.02325581395349019,
          "durationTicks": 2,
          "midi": 51,
          "name": "D#3",
          "ticks": 3231,
          "time": 37.56976744186046,
          "velocity": 0.33070866141732286
        },
        {
          "duration": 0.03488372093023173,
          "durationTicks": 3,
          "midi": 62,
          "name": "D4",
          "ticks": 3231,
          "time": 37.56976744186046,
          "velocity": 0.13385826771653545
        },
        {
          "duration": 0.011627906976741542,
          "durationTicks": 1,
          "midi": 37,
          "name": "C#2",
          "ticks": 3233,
          "time": 37.593023255813954,
          "velocity": 0.5905511811023622
        },
        {
          "duration": 0.02325581395349019,
          "durationTicks": 2,
          "midi": 50,
          "name": "D3",
          "ticks": 3233,
          "time": 37.593023255813954,
          "velocity": 0.2440944881889764
        },
        {
          "duration": 0.011627906976748648,
          "durationTicks": 1,
          "midi": 40,
          "name": "E2",
          "ticks": 3234,
          "time": 37.604651162790695,
          "velocity": 0.5590551181102362
        },
        {
          "duration": 0.011627906976741542,
          "durationTicks": 1,
          "midi": 31,
          "name": "G1",
          "ticks": 3236,
          "time": 37.627906976744185,
          "velocity": 0.5118110236220472
        },
        {
          "duration": 0.011627906976748648,
          "durationTicks": 1,
          "midi": 35,
          "name": "B1",
          "ticks": 3237,
          "time": 37.63953488372093,
          "velocity": 0.5984251968503937
        },
        {
          "duration": 0.011627906976741542,
          "durationTicks": 1,
          "midi": 37,
          "name": "C#2",
          "ticks": 3238,
          "time": 37.651162790697676,
          "velocity": 0.5511811023622047
        },
        {
          "duration": 0.02325581395349019,
          "durationTicks": 2,
          "midi": 35,
          "name": "B1",
          "ticks": 3241,
          "time": 37.68604651162791,
          "velocity": 0.5590551181102362
        },
        {
          "duration": 0.02325581395349019,
          "durationTicks": 2,
          "midi": 55,
          "name": "G3",
          "ticks": 3241,
          "time": 37.68604651162791,
          "velocity": 0.23622047244094488
        },
        {
          "duration": 0.011627906976741542,
          "durationTicks": 1,
          "midi": 33,
          "name": "A1",
          "ticks": 3243,
          "time": 37.7093023255814,
          "velocity": 0.5748031496062992
        },
        {
          "duration": 0.011627906976741542,
          "durationTicks": 1,
          "midi": 44,
          "name": "G#2",
          "ticks": 3243,
          "time": 37.7093023255814,
          "velocity": 0.5433070866141733
        },
        {
          "duration": 0.011627906976741542,
          "durationTicks": 1,
          "midi": 42,
          "name": "F#2",
          "ticks": 3244,
          "time": 37.72093023255814,
          "velocity": 0.6220472440944882
        },
        {
          "duration": 0.02325581395349019,
          "durationTicks": 2,
          "midi": 60,
          "name": "C4",
          "ticks": 3244,
          "time": 37.72093023255814,
          "velocity": 0.33070866141732286
        },
        {
          "duration": 0.011627906976748648,
          "durationTicks": 1,
          "midi": 29,
          "name": "F1",
          "ticks": 3245,
          "time": 37.73255813953488,
          "velocity": 0.5590551181102362
        },
        {
          "duration": 0.02325581395349019,
          "durationTicks": 2,
          "midi": 41,
          "name": "F2",
          "ticks": 3245,
          "time": 37.73255813953488,
          "velocity": 0.6535433070866141
        },
        {
          "duration": 0.02325581395349019,
          "durationTicks": 2,
          "midi": 56,
          "name": "G#3",
          "ticks": 3246,
          "time": 37.74418604651163,
          "velocity": 0.3858267716535433
        },
        {
          "duration": 0.02325581395349019,
          "durationTicks": 2,
          "midi": 62,
          "name": "D4",
          "ticks": 3246,
          "time": 37.74418604651163,
          "velocity": 0.3937007874015748
        },
        {
          "duration": 0.011627906976748648,
          "durationTicks": 1,
          "midi": 35,
          "name": "B1",
          "ticks": 3247,
          "time": 37.75581395348837,
          "velocity": 0.5590551181102362
        },
        {
          "duration": 0.011627906976748648,
          "durationTicks": 1,
          "midi": 43,
          "name": "G2",
          "ticks": 3247,
          "time": 37.75581395348837,
          "velocity": 0.5511811023622047
        },
        {
          "duration": 0.011627906976741542,
          "durationTicks": 1,
          "midi": 34,
          "name": "A#1",
          "ticks": 3248,
          "time": 37.76744186046512,
          "velocity": 0.6062992125984252
        },
        {
          "duration": 0.011627906976741542,
          "durationTicks": 1,
          "midi": 37,
          "name": "C#2",
          "ticks": 3249,
          "time": 37.77906976744186,
          "velocity": 0.6929133858267716
        },
        {
          "duration": 0.02325581395349019,
          "durationTicks": 2,
          "midi": 53,
          "name": "F3",
          "ticks": 3249,
          "time": 37.77906976744186,
          "velocity": 0.3858267716535433
        },
        {
          "duration": 0.11627906976744384,
          "durationTicks": 10,
          "midi": 62,
          "name": "D4",
          "ticks": 3249,
          "time": 37.77906976744186,
          "velocity": 0.25984251968503935
        },
        {
          "duration": 0.011627906976748648,
          "durationTicks": 1,
          "midi": 36,
          "name": "C2",
          "ticks": 3250,
          "time": 37.7906976744186,
          "velocity": 0.7007874015748031
        },
        {
          "duration": 0.011627906976741542,
          "durationTicks": 1,
          "midi": 34,
          "name": "A#1",
          "ticks": 3251,
          "time": 37.80232558139535,
          "velocity": 0.7007874015748031
        },
        {
          "duration": 0.023255813953483084,
          "durationTicks": 2,
          "midi": 54,
          "name": "F#3",
          "ticks": 3251,
          "time": 37.80232558139535,
          "velocity": 0.30708661417322836
        },
        {
          "duration": 0.011627906976741542,
          "durationTicks": 1,
          "midi": 35,
          "name": "B1",
          "ticks": 3252,
          "time": 37.81395348837209,
          "velocity": 0.7244094488188977
        },
        {
          "duration": 0.011627906976748648,
          "durationTicks": 1,
          "midi": 36,
          "name": "C2",
          "ticks": 3253,
          "time": 37.825581395348834,
          "velocity": 0.6929133858267716
        },
        {
          "duration": 0.02325581395349019,
          "durationTicks": 2,
          "midi": 35,
          "name": "B1",
          "ticks": 3254,
          "time": 37.83720930232558,
          "velocity": 0.6929133858267716
        },
        {
          "duration": 0.02325581395349019,
          "durationTicks": 2,
          "midi": 56,
          "name": "G#3",
          "ticks": 3255,
          "time": 37.848837209302324,
          "velocity": 0.2440944881889764
        },
        {
          "duration": 0.046511627906973274,
          "durationTicks": 4,
          "midi": 36,
          "name": "C2",
          "ticks": 3256,
          "time": 37.86046511627907,
          "velocity": 0.6850393700787402
        },
        {
          "duration": 0.03488372093023173,
          "durationTicks": 3,
          "midi": 35,
          "name": "B1",
          "ticks": 3260,
          "time": 37.906976744186046,
          "velocity": 0.5511811023622047
        },
        {
          "duration": 0.02325581395349019,
          "durationTicks": 2,
          "midi": 48,
          "name": "C3",
          "ticks": 3263,
          "time": 37.94186046511628,
          "velocity": 0.29133858267716534
        },
        {
          "duration": 0.023255813953483084,
          "durationTicks": 2,
          "midi": 31,
          "name": "G1",
          "ticks": 3264,
          "time": 37.95348837209303,
          "velocity": 0.4330708661417323
        },
        {
          "duration": 0.023255813953483084,
          "durationTicks": 2,
          "midi": 41,
          "name": "F2",
          "ticks": 3267,
          "time": 37.98837209302326,
          "velocity": 0.5669291338582677
        },
        {
          "duration": 0.05813953488372192,
          "durationTicks": 5,
          "midi": 56,
          "name": "G#3",
          "ticks": 3268,
          "time": 38,
          "velocity": 0.33070866141732286
        },
        {
          "duration": 0.011627906976748648,
          "durationTicks": 1,
          "midi": 40,
          "name": "E2",
          "ticks": 3269,
          "time": 38.01162790697674,
          "velocity": 0.6062992125984252
        },
        {
          "duration": 0.011627906976741542,
          "durationTicks": 1,
          "midi": 37,
          "name": "C#2",
          "ticks": 3270,
          "time": 38.02325581395349,
          "velocity": 0.5669291338582677
        },
        {
          "duration": 0.011627906976741542,
          "durationTicks": 1,
          "midi": 33,
          "name": "A1",
          "ticks": 3271,
          "time": 38.03488372093023,
          "velocity": 0.5669291338582677
        },
        {
          "duration": 0.011627906976748648,
          "durationTicks": 1,
          "midi": 34,
          "name": "A#1",
          "ticks": 3272,
          "time": 38.04651162790697,
          "velocity": 0.6062992125984252
        },
        {
          "duration": 0.011627906976741542,
          "durationTicks": 1,
          "midi": 36,
          "name": "C2",
          "ticks": 3273,
          "time": 38.05813953488372,
          "velocity": 0.5118110236220472
        },
        {
          "duration": 0.046511627906973274,
          "durationTicks": 4,
          "midi": 62,
          "name": "D4",
          "ticks": 3273,
          "time": 38.05813953488372,
          "velocity": 0.23622047244094488
        },
        {
          "duration": 0.02325581395349019,
          "durationTicks": 2,
          "midi": 35,
          "name": "B1",
          "ticks": 3274,
          "time": 38.06976744186046,
          "velocity": 0.5748031496062992
        },
        {
          "duration": 0.04651162790698038,
          "durationTicks": 4,
          "midi": 56,
          "name": "G#3",
          "ticks": 3274,
          "time": 38.06976744186046,
          "velocity": 0.2204724409448819
        },
        {
          "duration": 0.011627906976741542,
          "durationTicks": 1,
          "midi": 36,
          "name": "C2",
          "ticks": 3276,
          "time": 38.093023255813954,
          "velocity": 0.6456692913385826
        },
        {
          "duration": 0.02325581395349019,
          "durationTicks": 2,
          "midi": 35,
          "name": "B1",
          "ticks": 3277,
          "time": 38.104651162790695,
          "velocity": 0.5984251968503937
        },
        {
          "duration": 0.046511627906973274,
          "durationTicks": 4,
          "midi": 62,
          "name": "D4",
          "ticks": 3278,
          "time": 38.116279069767444,
          "velocity": 0.14173228346456693
        },
        {
          "duration": 0.011627906976741542,
          "durationTicks": 1,
          "midi": 38,
          "name": "D2",
          "ticks": 3279,
          "time": 38.127906976744185,
          "velocity": 0.5748031496062992
        },
        {
          "duration": 0.011627906976748648,
          "durationTicks": 1,
          "midi": 37,
          "name": "C#2",
          "ticks": 3280,
          "time": 38.13953488372093,
          "velocity": 0.6062992125984252
        },
        {
          "duration": 0.011627906976741542,
          "durationTicks": 1,
          "midi": 32,
          "name": "G#1",
          "ticks": 3281,
          "time": 38.151162790697676,
          "velocity": 0.5433070866141733
        },
        {
          "duration": 0.011627906976748648,
          "durationTicks": 1,
          "midi": 32,
          "name": "G#1",
          "ticks": 3285,
          "time": 38.19767441860465,
          "velocity": 0.5118110236220472
        },
        {
          "duration": 0.011627906976741542,
          "durationTicks": 1,
          "midi": 35,
          "name": "B1",
          "ticks": 3286,
          "time": 38.2093023255814,
          "velocity": 0.5118110236220472
        },
        {
          "duration": 0.011627906976741542,
          "durationTicks": 1,
          "midi": 33,
          "name": "A1",
          "ticks": 3289,
          "time": 38.24418604651163,
          "velocity": 0.5669291338582677
        },
        {
          "duration": 0.046511627906973274,
          "durationTicks": 4,
          "midi": 51,
          "name": "D#3",
          "ticks": 3289,
          "time": 38.24418604651163,
          "velocity": 0.5748031496062992
        },
        {
          "duration": 0.046511627906973274,
          "durationTicks": 4,
          "midi": 60,
          "name": "C4",
          "ticks": 3289,
          "time": 38.24418604651163,
          "velocity": 0.4015748031496063
        },
        {
          "duration": 0.011627906976748648,
          "durationTicks": 1,
          "midi": 34,
          "name": "A#1",
          "ticks": 3290,
          "time": 38.25581395348837,
          "velocity": 0.6220472440944882
        },
        {
          "duration": 0.03488372093023173,
          "durationTicks": 3,
          "midi": 64,
          "name": "E4",
          "ticks": 3290,
          "time": 38.25581395348837,
          "velocity": 0.3228346456692913
        },
        {
          "duration": 0.03488372093023173,
          "durationTicks": 3,
          "midi": 74,
          "name": "D5",
          "ticks": 3290,
          "time": 38.25581395348837,
          "velocity": 0.1732283464566929
        },
        {
          "duration": 0.011627906976741542,
          "durationTicks": 1,
          "midi": 33,
          "name": "A1",
          "ticks": 3291,
          "time": 38.26744186046512,
          "velocity": 0.5905511811023622
        },
        {
          "duration": 0.023255813953483084,
          "durationTicks": 2,
          "midi": 68,
          "name": "G#4",
          "ticks": 3291,
          "time": 38.26744186046512,
          "velocity": 0.2992125984251969
        },
        {
          "duration": 0.011627906976741542,
          "durationTicks": 1,
          "midi": 32,
          "name": "G#1",
          "ticks": 3292,
          "time": 38.27906976744186,
          "velocity": 0.5905511811023622
        },
        {
          "duration": 0.03488372093023173,
          "durationTicks": 3,
          "midi": 70,
          "name": "A#4",
          "ticks": 3292,
          "time": 38.27906976744186,
          "velocity": 0.2047244094488189
        },
        {
          "duration": 0.011627906976748648,
          "durationTicks": 1,
          "midi": 20,
          "name": "G#0",
          "ticks": 3293,
          "time": 38.2906976744186,
          "velocity": 0.5275590551181102
        },
        {
          "duration": 0.011627906976748648,
          "durationTicks": 1,
          "midi": 41,
          "name": "F2",
          "ticks": 3293,
          "time": 38.2906976744186,
          "velocity": 0.6535433070866141
        },
        {
          "duration": 0.023255813953483084,
          "durationTicks": 2,
          "midi": 40,
          "name": "E2",
          "ticks": 3294,
          "time": 38.30232558139535,
          "velocity": 0.6299212598425197
        },
        {
          "duration": 0.081395348837205,
          "durationTicks": 7,
          "midi": 62,
          "name": "D4",
          "ticks": 3294,
          "time": 38.30232558139535,
          "velocity": 0.4094488188976378
        },
        {
          "duration": 0.011627906976741542,
          "durationTicks": 1,
          "midi": 33,
          "name": "A1",
          "ticks": 3295,
          "time": 38.31395348837209,
          "velocity": 0.5433070866141733
        },
        {
          "duration": 0.02325581395349019,
          "durationTicks": 2,
          "midi": 48,
          "name": "C3",
          "ticks": 3295,
          "time": 38.31395348837209,
          "velocity": 0.5275590551181102
        },
        {
          "duration": 0.011627906976748648,
          "durationTicks": 1,
          "midi": 32,
          "name": "G#1",
          "ticks": 3296,
          "time": 38.325581395348834,
          "velocity": 0.6377952755905512
        },
        {
          "duration": 0.02325581395349019,
          "durationTicks": 2,
          "midi": 57,
          "name": "A3",
          "ticks": 3296,
          "time": 38.325581395348834,
          "velocity": 0.47244094488188976
        },
        {
          "duration": 0.011627906976741542,
          "durationTicks": 1,
          "midi": 31,
          "name": "G1",
          "ticks": 3297,
          "time": 38.33720930232558,
          "velocity": 0.7007874015748031
        },
        {
          "duration": 0.011627906976748648,
          "durationTicks": 1,
          "midi": 32,
          "name": "G#1",
          "ticks": 3298,
          "time": 38.348837209302324,
          "velocity": 0.7244094488188977
        },
        {
          "duration": 0.02325581395349019,
          "durationTicks": 2,
          "midi": 56,
          "name": "G#3",
          "ticks": 3298,
          "time": 38.348837209302324,
          "velocity": 0.4409448818897638
        },
        {
          "duration": 0.011627906976741542,
          "durationTicks": 1,
          "midi": 35,
          "name": "B1",
          "ticks": 3299,
          "time": 38.36046511627907,
          "velocity": 0.7559055118110236
        },
        {
          "duration": 0.011627906976741542,
          "durationTicks": 1,
          "midi": 37,
          "name": "C#2",
          "ticks": 3300,
          "time": 38.372093023255815,
          "velocity": 0.7007874015748031
        },
        {
          "duration": 0.011627906976748648,
          "durationTicks": 1,
          "midi": 36,
          "name": "C2",
          "ticks": 3301,
          "time": 38.383720930232556,
          "velocity": 0.6614173228346457
        },
        {
          "duration": 0.011627906976741542,
          "durationTicks": 1,
          "midi": 34,
          "name": "A#1",
          "ticks": 3302,
          "time": 38.395348837209305,
          "velocity": 0.6850393700787402
        },
        {
          "duration": 0.046511627906973274,
          "durationTicks": 4,
          "midi": 62,
          "name": "D4",
          "ticks": 3302,
          "time": 38.395348837209305,
          "velocity": 0.31496062992125984
        },
        {
          "duration": 0.011627906976741542,
          "durationTicks": 1,
          "midi": 35,
          "name": "B1",
          "ticks": 3303,
          "time": 38.406976744186046,
          "velocity": 0.6850393700787402
        },
        {
          "duration": 0.011627906976748648,
          "durationTicks": 1,
          "midi": 36,
          "name": "C2",
          "ticks": 3304,
          "time": 38.41860465116279,
          "velocity": 0.6220472440944882
        },
        {
          "duration": 0.011627906976741542,
          "durationTicks": 1,
          "midi": 33,
          "name": "A1",
          "ticks": 3305,
          "time": 38.43023255813954,
          "velocity": 0.5590551181102362
        },
        {
          "duration": 0.011627906976741542,
          "durationTicks": 1,
          "midi": 42,
          "name": "F#2",
          "ticks": 3305,
          "time": 38.43023255813954,
          "velocity": 0.5275590551181102
        },
        {
          "duration": 0.011627906976748648,
          "durationTicks": 1,
          "midi": 34,
          "name": "A#1",
          "ticks": 3306,
          "time": 38.44186046511628,
          "velocity": 0.6220472440944882
        },
        {
          "duration": 0.011627906976741542,
          "durationTicks": 1,
          "midi": 35,
          "name": "B1",
          "ticks": 3307,
          "time": 38.45348837209303,
          "velocity": 0.6062992125984252
        },
        {
          "duration": 0.046511627906973274,
          "durationTicks": 4,
          "midi": 62,
          "name": "D4",
          "ticks": 3307,
          "time": 38.45348837209303,
          "velocity": 0.18110236220472442
        },
        {
          "duration": 0.011627906976741542,
          "durationTicks": 1,
          "midi": 31,
          "name": "G1",
          "ticks": 3308,
          "time": 38.46511627906977,
          "velocity": 0.5354330708661418
        },
        {
          "duration": 0.011627906976741542,
          "durationTicks": 1,
          "midi": 40,
          "name": "E2",
          "ticks": 3308,
          "time": 38.46511627906977,
          "velocity": 0.5433070866141733
        },
        {
          "duration": 0.011627906976748648,
          "durationTicks": 1,
          "midi": 30,
          "name": "F#1",
          "ticks": 3309,
          "time": 38.47674418604651,
          "velocity": 0.5118110236220472
        },
        {
          "duration": 0.011627906976748648,
          "durationTicks": 1,
          "midi": 42,
          "name": "F#2",
          "ticks": 3309,
          "time": 38.47674418604651,
          "velocity": 0.5433070866141733
        },
        {
          "duration": 0.023255813953483084,
          "durationTicks": 2,
          "midi": 29,
          "name": "F1",
          "ticks": 3310,
          "time": 38.48837209302326,
          "velocity": 0.5433070866141733
        },
        {
          "duration": 0.02325581395349019,
          "durationTicks": 2,
          "midi": 48,
          "name": "C3",
          "ticks": 3311,
          "time": 38.5,
          "velocity": 0.47244094488188976
        },
        {
          "duration": 0.03488372093023173,
          "durationTicks": 3,
          "midi": 31,
          "name": "G1",
          "ticks": 3312,
          "time": 38.51162790697674,
          "velocity": 0.5905511811023622
        },
        {
          "duration": 0.03488372093023173,
          "durationTicks": 3,
          "midi": 78,
          "name": "F#5",
          "ticks": 3313,
          "time": 38.52325581395349,
          "velocity": 0.23622047244094488
        },
        {
          "duration": 0.05813953488372192,
          "durationTicks": 5,
          "midi": 83,
          "name": "B5",
          "ticks": 3313,
          "time": 38.52325581395349,
          "velocity": 0.2440944881889764
        },
        {
          "duration": 0.05813953488372192,
          "durationTicks": 5,
          "midi": 92,
          "name": "G#6",
          "ticks": 3313,
          "time": 38.52325581395349,
          "velocity": 0.16535433070866143
        },
        {
          "duration": 0.046511627906973274,
          "durationTicks": 4,
          "midi": 94,
          "name": "A#6",
          "ticks": 3313,
          "time": 38.52325581395349,
          "velocity": 0.1968503937007874
        },
        {
          "duration": 0.06976744186046346,
          "durationTicks": 6,
          "midi": 99,
          "name": "D#7",
          "ticks": 3313,
          "time": 38.52325581395349,
          "velocity": 0.2440944881889764
        },
        {
          "duration": 0.046511627906973274,
          "durationTicks": 4,
          "midi": 100,
          "name": "E7",
          "ticks": 3313,
          "time": 38.52325581395349,
          "velocity": 0.2283464566929134
        },
        {
          "duration": 0.03488372093023173,
          "durationTicks": 3,
          "midi": 56,
          "name": "G#3",
          "ticks": 3314,
          "time": 38.53488372093023,
          "velocity": 0.29133858267716534
        },
        {
          "duration": 0.03488372093023173,
          "durationTicks": 3,
          "midi": 87,
          "name": "D#6",
          "ticks": 3314,
          "time": 38.53488372093023,
          "velocity": 0.1889763779527559
        },
        {
          "duration": 0.05813953488372192,
          "durationTicks": 5,
          "midi": 89,
          "name": "F6",
          "ticks": 3314,
          "time": 38.53488372093023,
          "velocity": 0.2283464566929134
        },
        {
          "duration": 0.03488372093023173,
          "durationTicks": 3,
          "midi": 96,
          "name": "C7",
          "ticks": 3314,
          "time": 38.53488372093023,
          "velocity": 0.1732283464566929
        },
        {
          "duration": 0.04651162790698038,
          "durationTicks": 4,
          "midi": 97,
          "name": "C#7",
          "ticks": 3314,
          "time": 38.53488372093023,
          "velocity": 0.14960629921259844
        },
        {
          "duration": 0.04651162790698038,
          "durationTicks": 4,
          "midi": 98,
          "name": "D7",
          "ticks": 3314,
          "time": 38.53488372093023,
          "velocity": 0.1968503937007874
        },
        {
          "duration": 0.03488372093023173,
          "durationTicks": 3,
          "midi": 102,
          "name": "F#7",
          "ticks": 3314,
          "time": 38.53488372093023,
          "velocity": 0.14960629921259844
        },
        {
          "duration": 0.011627906976748648,
          "durationTicks": 1,
          "midi": 28,
          "name": "E1",
          "ticks": 3315,
          "time": 38.54651162790697,
          "velocity": 0.5196850393700787
        },
        {
          "duration": 0.02325581395349019,
          "durationTicks": 2,
          "midi": 40,
          "name": "E2",
          "ticks": 3315,
          "time": 38.54651162790697,
          "velocity": 0.5826771653543307
        },
        {
          "duration": 0.04651162790698038,
          "durationTicks": 4,
          "midi": 82,
          "name": "A#5",
          "ticks": 3315,
          "time": 38.54651162790697,
          "velocity": 0.11023622047244094
        },
        {
          "duration": 0.046511627906973274,
          "durationTicks": 4,
          "midi": 84,
          "name": "C6",
          "ticks": 3316,
          "time": 38.55813953488372,
          "velocity": 0.13385826771653545
        },
        {
          "duration": 0.011627906976748648,
          "durationTicks": 1,
          "midi": 31,
          "name": "G1",
          "ticks": 3317,
          "time": 38.56976744186046,
          "velocity": 0.5984251968503937
        },
        {
          "duration": 0.08139534883721211,
          "durationTicks": 7,
          "midi": 62,
          "name": "D4",
          "ticks": 3317,
          "time": 38.56976744186046,
          "velocity": 0.2755905511811024
        },
        {
          "duration": 0.04651162790698038,
          "durationTicks": 4,
          "midi": 93,
          "name": "A6",
          "ticks": 3317,
          "time": 38.56976744186046,
          "velocity": 0.11023622047244094
        },
        {
          "duration": 0.011627906976741542,
          "durationTicks": 1,
          "midi": 32,
          "name": "G#1",
          "ticks": 3318,
          "time": 38.58139534883721,
          "velocity": 0.5984251968503937
        },
        {
          "duration": 0.023255813953483084,
          "durationTicks": 2,
          "midi": 56,
          "name": "G#3",
          "ticks": 3318,
          "time": 38.58139534883721,
          "velocity": 0.3543307086614173
        },
        {
          "duration": 0.011627906976741542,
          "durationTicks": 1,
          "midi": 34,
          "name": "A#1",
          "ticks": 3319,
          "time": 38.593023255813954,
          "velocity": 0.5748031496062992
        },
        {
          "duration": 0.011627906976741542,
          "durationTicks": 1,
          "midi": 34,
          "name": "A#1",
          "ticks": 3322,
          "time": 38.627906976744185,
          "velocity": 0.5511811023622047
        },
        {
          "duration": 0.011627906976748648,
          "durationTicks": 1,
          "midi": 31,
          "name": "G1",
          "ticks": 3323,
          "time": 38.63953488372093,
          "velocity": 0.5433070866141733
        },
        {
          "duration": 0.011627906976748648,
          "durationTicks": 1,
          "midi": 41,
          "name": "F2",
          "ticks": 3323,
          "time": 38.63953488372093,
          "velocity": 0.5196850393700787
        },
        {
          "duration": 0.02325581395349019,
          "durationTicks": 2,
          "midi": 50,
          "name": "D3",
          "ticks": 3323,
          "time": 38.63953488372093,
          "velocity": 0.36220472440944884
        },
        {
          "duration": 0.02325581395349019,
          "durationTicks": 2,
          "midi": 41,
          "name": "F2",
          "ticks": 3325,
          "time": 38.66279069767442,
          "velocity": 0.5669291338582677
        },
        {
          "duration": 0.02325581395349019,
          "durationTicks": 2,
          "midi": 51,
          "name": "D#3",
          "ticks": 3325,
          "time": 38.66279069767442,
          "velocity": 0.3228346456692913
        },
        {
          "duration": 0.011627906976741542,
          "durationTicks": 1,
          "midi": 37,
          "name": "C#2",
          "ticks": 3327,
          "time": 38.68604651162791,
          "velocity": 0.5748031496062992
        },
        {
          "duration": 0.02325581395349019,
          "durationTicks": 2,
          "midi": 50,
          "name": "D3",
          "ticks": 3327,
          "time": 38.68604651162791,
          "velocity": 0.23622047244094488
        },
        {
          "duration": 0.011627906976748648,
          "durationTicks": 1,
          "midi": 40,
          "name": "E2",
          "ticks": 3328,
          "time": 38.69767441860465,
          "velocity": 0.5511811023622047
        },
        {
          "duration": 0.011627906976748648,
          "durationTicks": 1,
          "midi": 35,
          "name": "B1",
          "ticks": 3331,
          "time": 38.73255813953488,
          "velocity": 0.5826771653543307
        },
        {
          "duration": 0.011627906976741542,
          "durationTicks": 1,
          "midi": 36,
          "name": "C2",
          "ticks": 3332,
          "time": 38.74418604651163,
          "velocity": 0.5511811023622047
        },
        {
          "duration": 0.02325581395349019,
          "durationTicks": 2,
          "midi": 37,
          "name": "C#2",
          "ticks": 3333,
          "time": 38.75581395348837,
          "velocity": 0.4251968503937008
        },
        {
          "duration": 0.02325581395349019,
          "durationTicks": 2,
          "midi": 35,
          "name": "B1",
          "ticks": 3335,
          "time": 38.77906976744186,
          "velocity": 0.5826771653543307
        },
        {
          "duration": 0.02325581395349019,
          "durationTicks": 2,
          "midi": 55,
          "name": "G3",
          "ticks": 3335,
          "time": 38.77906976744186,
          "velocity": 0.25196850393700787
        },
        {
          "duration": 0.011627906976741542,
          "durationTicks": 1,
          "midi": 33,
          "name": "A1",
          "ticks": 3337,
          "time": 38.80232558139535,
          "velocity": 0.5669291338582677
        },
        {
          "duration": 0.011627906976741542,
          "durationTicks": 1,
          "midi": 44,
          "name": "G#2",
          "ticks": 3337,
          "time": 38.80232558139535,
          "velocity": 0.5354330708661418
        },
        {
          "duration": 0.023255813953483084,
          "durationTicks": 2,
          "midi": 64,
          "name": "E4",
          "ticks": 3337,
          "time": 38.80232558139535,
          "velocity": 0.3543307086614173
        },
        {
          "duration": 0.011627906976741542,
          "durationTicks": 1,
          "midi": 31,
          "name": "G1",
          "ticks": 3338,
          "time": 38.81395348837209,
          "velocity": 0.5433070866141733
        },
        {
          "duration": 0.011627906976741542,
          "durationTicks": 1,
          "midi": 42,
          "name": "F#2",
          "ticks": 3338,
          "time": 38.81395348837209,
          "velocity": 0.6062992125984252
        },
        {
          "duration": 0.02325581395349019,
          "durationTicks": 2,
          "midi": 60,
          "name": "C4",
          "ticks": 3338,
          "time": 38.81395348837209,
          "velocity": 0.33070866141732286
        },
        {
          "duration": 0.011627906976748648,
          "durationTicks": 1,
          "midi": 29,
          "name": "F1",
          "ticks": 3339,
          "time": 38.825581395348834,
          "velocity": 0.5748031496062992
        },
        {
          "duration": 0.011627906976748648,
          "durationTicks": 1,
          "midi": 41,
          "name": "F2",
          "ticks": 3339,
          "time": 38.825581395348834,
          "velocity": 0.6535433070866141
        },
        {
          "duration": 0.011627906976741542,
          "durationTicks": 1,
          "midi": 40,
          "name": "E2",
          "ticks": 3340,
          "time": 38.83720930232558,
          "velocity": 0.6535433070866141
        },
        {
          "duration": 0.02325581395349019,
          "durationTicks": 2,
          "midi": 62,
          "name": "D4",
          "ticks": 3340,
          "time": 38.83720930232558,
          "velocity": 0.3937007874015748
        },
        {
          "duration": 0.011627906976748648,
          "durationTicks": 1,
          "midi": 36,
          "name": "C2",
          "ticks": 3341,
          "time": 38.848837209302324,
          "velocity": 0.5433070866141733
        },
        {
          "duration": 0.011627906976748648,
          "durationTicks": 1,
          "midi": 43,
          "name": "G2",
          "ticks": 3341,
          "time": 38.848837209302324,
          "velocity": 0.5433070866141733
        },
        {
          "duration": 0.011627906976741542,
          "durationTicks": 1,
          "midi": 34,
          "name": "A#1",
          "ticks": 3342,
          "time": 38.86046511627907,
          "velocity": 0.5905511811023622
        },
        {
          "duration": 0.011627906976741542,
          "durationTicks": 1,
          "midi": 37,
          "name": "C#2",
          "ticks": 3343,
          "time": 38.872093023255815,
          "velocity": 0.6850393700787402
        },
        {
          "duration": 0.02325581395349019,
          "durationTicks": 2,
          "midi": 53,
          "name": "F3",
          "ticks": 3343,
          "time": 38.872093023255815,
          "velocity": 0.3858267716535433
        },
        {
          "duration": 0.11627906976744384,
          "durationTicks": 10,
          "midi": 62,
          "name": "D4",
          "ticks": 3343,
          "time": 38.872093023255815,
          "velocity": 0.25984251968503935
        },
        {
          "duration": 0.011627906976748648,
          "durationTicks": 1,
          "midi": 36,
          "name": "C2",
          "ticks": 3344,
          "time": 38.883720930232556,
          "velocity": 0.7007874015748031
        },
        {
          "duration": 0.011627906976741542,
          "durationTicks": 1,
          "midi": 34,
          "name": "A#1",
          "ticks": 3345,
          "time": 38.895348837209305,
          "velocity": 0.7007874015748031
        },
        {
          "duration": 0.023255813953483084,
          "durationTicks": 2,
          "midi": 54,
          "name": "F#3",
          "ticks": 3345,
          "time": 38.895348837209305,
          "velocity": 0.2992125984251969
        },
        {
          "duration": 0.02325581395349019,
          "durationTicks": 2,
          "midi": 36,
          "name": "C2",
          "ticks": 3346,
          "time": 38.906976744186046,
          "velocity": 0.7244094488188977
        },
        {
          "duration": 0.02325581395349019,
          "durationTicks": 2,
          "midi": 50,
          "name": "D3",
          "ticks": 3347,
          "time": 38.91860465116279,
          "velocity": 0.3543307086614173
        },
        {
          "duration": 0.02325581395349019,
          "durationTicks": 2,
          "midi": 35,
          "name": "B1",
          "ticks": 3348,
          "time": 38.93023255813954,
          "velocity": 0.6929133858267716
        },
        {
          "duration": 0.02325581395349019,
          "durationTicks": 2,
          "midi": 56,
          "name": "G#3",
          "ticks": 3349,
          "time": 38.94186046511628,
          "velocity": 0.23622047244094488
        },
        {
          "duration": 0.046511627906973274,
          "durationTicks": 4,
          "midi": 36,
          "name": "C2",
          "ticks": 3350,
          "time": 38.95348837209303,
          "velocity": 0.6692913385826772
        },
        {
          "duration": 0.02325581395349019,
          "durationTicks": 2,
          "midi": 35,
          "name": "B1",
          "ticks": 3354,
          "time": 39,
          "velocity": 0.5590551181102362
        },
        {
          "duration": 0.02325581395349019,
          "durationTicks": 2,
          "midi": 29,
          "name": "F1",
          "ticks": 3360,
          "time": 39.06976744186046,
          "velocity": 0.36220472440944884
        },
        {
          "duration": 0.04651162790698038,
          "durationTicks": 4,
          "midi": 78,
          "name": "F#5",
          "ticks": 3360,
          "time": 39.06976744186046,
          "velocity": 0.2440944881889764
        },
        {
          "duration": 0.04651162790698038,
          "durationTicks": 4,
          "midi": 87,
          "name": "D#6",
          "ticks": 3360,
          "time": 39.06976744186046,
          "velocity": 0.25196850393700787
        },
        {
          "duration": 0.11627906976744384,
          "durationTicks": 10,
          "midi": 93,
          "name": "A6",
          "ticks": 3360,
          "time": 39.06976744186046,
          "velocity": 0.29133858267716534
        },
        {
          "duration": 0.06976744186046346,
          "durationTicks": 6,
          "midi": 94,
          "name": "A#6",
          "ticks": 3360,
          "time": 39.06976744186046,
          "velocity": 0.2992125984251969
        },
        {
          "duration": 0.06976744186046346,
          "durationTicks": 6,
          "midi": 97,
          "name": "C#7",
          "ticks": 3360,
          "time": 39.06976744186046,
          "velocity": 0.18110236220472442
        },
        {
          "duration": 0.09302325581395365,
          "durationTicks": 8,
          "midi": 98,
          "name": "D7",
          "ticks": 3360,
          "time": 39.06976744186046,
          "velocity": 0.16535433070866143
        },
        {
          "duration": 0.06976744186046346,
          "durationTicks": 6,
          "midi": 100,
          "name": "E7",
          "ticks": 3360,
          "time": 39.06976744186046,
          "velocity": 0.23622047244094488
        },
        {
          "duration": 0.03488372093023173,
          "durationTicks": 3,
          "midi": 101,
          "name": "F7",
          "ticks": 3360,
          "time": 39.06976744186046,
          "velocity": 0.16535433070866143
        },
        {
          "duration": 0.03488372093023173,
          "durationTicks": 3,
          "midi": 83,
          "name": "B5",
          "ticks": 3361,
          "time": 39.08139534883721,
          "velocity": 0.23622047244094488
        },
        {
          "duration": 0.1046511627906952,
          "durationTicks": 9,
          "midi": 89,
          "name": "F6",
          "ticks": 3361,
          "time": 39.08139534883721,
          "velocity": 0.2755905511811024
        },
        {
          "duration": 0.058139534883714816,
          "durationTicks": 5,
          "midi": 91,
          "name": "G6",
          "ticks": 3361,
          "time": 39.08139534883721,
          "velocity": 0.1889763779527559
        },
        {
          "duration": 0.06976744186046346,
          "durationTicks": 6,
          "midi": 96,
          "name": "C7",
          "ticks": 3361,
          "time": 39.08139534883721,
          "velocity": 0.10236220472440945
        },
        {
          "duration": 0.011627906976741542,
          "durationTicks": 1,
          "midi": 41,
          "name": "F2",
          "ticks": 3362,
          "time": 39.093023255813954,
          "velocity": 0.5590551181102362
        },
        {
          "duration": 0.02325581395349019,
          "durationTicks": 2,
          "midi": 51,
          "name": "D#3",
          "ticks": 3362,
          "time": 39.093023255813954,
          "velocity": 0.2755905511811024
        },
        {
          "duration": 0.02325581395349019,
          "durationTicks": 2,
          "midi": 56,
          "name": "G#3",
          "ticks": 3362,
          "time": 39.093023255813954,
          "velocity": 0.30708661417322836
        },
        {
          "duration": 0.046511627906973274,
          "durationTicks": 4,
          "midi": 82,
          "name": "A#5",
          "ticks": 3362,
          "time": 39.093023255813954,
          "velocity": 0.13385826771653545
        },
        {
          "duration": 0.06976744186046346,
          "durationTicks": 6,
          "midi": 85,
          "name": "C#6",
          "ticks": 3362,
          "time": 39.093023255813954,
          "velocity": 0.2677165354330709
        },
        {
          "duration": 0.011627906976748648,
          "durationTicks": 1,
          "midi": 40,
          "name": "E2",
          "ticks": 3363,
          "time": 39.104651162790695,
          "velocity": 0.6062992125984252
        },
        {
          "duration": 0.02325581395349019,
          "durationTicks": 2,
          "midi": 61,
          "name": "C#4",
          "ticks": 3363,
          "time": 39.104651162790695,
          "velocity": 0.3464566929133858
        },
        {
          "duration": 0.05813953488372192,
          "durationTicks": 5,
          "midi": 92,
          "name": "G#6",
          "ticks": 3363,
          "time": 39.104651162790695,
          "velocity": 0.25984251968503935
        },
        {
          "duration": 0.011627906976741542,
          "durationTicks": 1,
          "midi": 37,
          "name": "C#2",
          "ticks": 3364,
          "time": 39.116279069767444,
          "velocity": 0.5669291338582677
        },
        {
          "duration": 0.05813953488372192,
          "durationTicks": 5,
          "midi": 77,
          "name": "F5",
          "ticks": 3364,
          "time": 39.116279069767444,
          "velocity": 0.1732283464566929
        },
        {
          "duration": 0.011627906976741542,
          "durationTicks": 1,
          "midi": 33,
          "name": "A1",
          "ticks": 3365,
          "time": 39.127906976744185,
          "velocity": 0.5669291338582677
        },
        {
          "duration": 0.02325581395349019,
          "durationTicks": 2,
          "midi": 56,
          "name": "G#3",
          "ticks": 3365,
          "time": 39.127906976744185,
          "velocity": 0.3543307086614173
        },
        {
          "duration": 0.011627906976748648,
          "durationTicks": 1,
          "midi": 34,
          "name": "A#1",
          "ticks": 3366,
          "time": 39.13953488372093,
          "velocity": 0.6141732283464567
        },
        {
          "duration": 0.046511627906973274,
          "durationTicks": 4,
          "midi": 36,
          "name": "C2",
          "ticks": 3367,
          "time": 39.151162790697676,
          "velocity": 0.6614173228346457
        },
        {
          "duration": 0.046511627906973274,
          "durationTicks": 4,
          "midi": 62,
          "name": "D4",
          "ticks": 3367,
          "time": 39.151162790697676,
          "velocity": 0.2440944881889764
        },
        {
          "duration": 0.046511627906973274,
          "durationTicks": 4,
          "midi": 86,
          "name": "D6",
          "ticks": 3367,
          "time": 39.151162790697676,
          "velocity": 0.16535433070866143
        },
        {
          "duration": 0.04651162790698038,
          "durationTicks": 4,
          "midi": 56,
          "name": "G#3",
          "ticks": 3368,
          "time": 39.16279069767442,
          "velocity": 0.2125984251968504
        },
        {
          "duration": 0.011627906976748648,
          "durationTicks": 1,
          "midi": 35,
          "name": "B1",
          "ticks": 3371,
          "time": 39.19767441860465,
          "velocity": 0.6062992125984252
        },
        {
          "duration": 0.011627906976741542,
          "durationTicks": 1,
          "midi": 34,
          "name": "A#1",
          "ticks": 3372,
          "time": 39.2093023255814,
          "velocity": 0.5590551181102362
        },
        {
          "duration": 0.011627906976741542,
          "durationTicks": 1,
          "midi": 39,
          "name": "D#2",
          "ticks": 3373,
          "time": 39.22093023255814,
          "velocity": 0.5590551181102362
        },
        {
          "duration": 0.011627906976748648,
          "durationTicks": 1,
          "midi": 37,
          "name": "C#2",
          "ticks": 3374,
          "time": 39.23255813953488,
          "velocity": 0.5905511811023622
        },
        {
          "duration": 0.011627906976741542,
          "durationTicks": 1,
          "midi": 32,
          "name": "G#1",
          "ticks": 3375,
          "time": 39.24418604651163,
          "velocity": 0.5511811023622047
        },
        {
          "duration": 0.011627906976748648,
          "durationTicks": 1,
          "midi": 33,
          "name": "A1",
          "ticks": 3379,
          "time": 39.2906976744186,
          "velocity": 0.5433070866141733
        },
        {
          "duration": 0.011627906976741542,
          "durationTicks": 1,
          "midi": 35,
          "name": "B1",
          "ticks": 3380,
          "time": 39.30232558139535,
          "velocity": 0.5196850393700787
        }
      ]
    }
  ]
}
