{
  "header": {
    "keySignatures": [],
    "meta": [],
    "name": "",
    "ppq": 384,
    "tempos": [
      {
        "bpm": 117.000117000117,
        "ticks": 0
      }
    ],
    "timeSignatures": []
  },
  "tracks": [
    {
      "channel": 0,
      "controlChanges": {
        "64": [
          {
            "number": 64,
            "ticks": 15232,
            "time": 20.341859999999997,
            "value": 1
          },
          {
            "number": 64,
            "ticks": 15327,
            "time": 20.46872953125,
            "value": 0
          },
          {
            "number": 64,
            "ticks": 18012,
            "time": 24.054463124999998,
            "value": 1
          },
          {
            "number": 64,
            "ticks": 18132,
            "time": 24.214719374999998,
            "value": 0
          },
          {
            "number": 64,
            "ticks": 19546,
            "time": 26.103072187499997,
            "value": 1
          },
          {
            "number": 64,
            "ticks": 19703,
            "time": 26.31274078125,
            "value": 0
          },
          {
            "number": 64,
            "ticks": 20446,
            "time": 27.304994062499997,
            "value": 1
          },
          {
            "number": 64,
            "ticks": 20503,
            "time": 27.381115781249996,
            "value": 0
          },
          {
            "number": 64,
            "ticks": 20984,
            "time": 28.023476249999998,
            "value": 1
          },
          {
            "number": 64,
            "ticks": 21152,
            "time": 28.247835,
            "value": 0
          },
          {
            "number": 64,
            "ticks": 22854,
            "time": 30.520802812499998,
            "value": 1
          },
          {
            "number": 64,
            "ticks": 22878,
            "time": 30.552854062499996,
            "value": 0
          },
          {
            "number": 64,
            "ticks": 23789,
            "time": 31.769466093749998,
            "value": 1
          },
          {
            "number": 64,
            "ticks": 23932,
            "time": 31.960438124999996,
            "value": 0
          },
          {
            "number": 64,
            "ticks": 26605,
            "time": 35.53014609375,
            "value": 1
          },
          {
            "number": 64,
            "ticks": 26640,
            "time": 35.5768875,
            "value": 0
          },
          {
            "number": 64,
            "ticks": 31662,
            "time": 42.28361156249999,
            "value": 1
          },
          {
            "number": 64,
            "ticks": 31710,
            "time": 42.347714062499996,
            "value": 0
          },
          {
            "number": 64,
            "ticks": 32406,
            "time": 43.27720031249999,
            "value": 1
          },
          {
            "number": 64,
            "ticks": 32562,
            "time": 43.485533437499996,
            "value": 0
          },
          {
            "number": 64,
            "ticks": 33124,
            "time": 44.236066875,
            "value": 1
          },
          {
            "number": 64,
            "ticks": 33210,
            "time": 44.350917187499995,
            "value": 0
          },
          {
            "number": 64,
            "ticks": 33724,
            "time": 45.037348124999994,
            "value": 1
          },
          {
            "number": 64,
            "ticks": 33940,
            "time": 45.325809375,
            "value": 0
          },
          {
            "number": 64,
            "ticks": 38242,
            "time": 51.070995937499994,
            "value": 1
          },
          {
            "number": 64,
            "ticks": 38314,
            "time": 51.16714968749999,
            "value": 0
          },
          {
            "number": 64,
            "ticks": 39668,
            "time": 52.975374374999994,
            "value": 1
          },
          {
            "number": 64,
            "ticks": 39836,
            "time": 53.199733124999995,
            "value": 0
          },
          {
            "number": 64,
            "ticks": 49412,
            "time": 65.988181875,
            "value": 1
          },
          {
            "number": 64,
            "ticks": 49460,
            "time": 66.052284375,
            "value": 0
          },
          {
            "number": 64,
            "ticks": 50430,
            "time": 67.3476890625,
            "value": 1
          },
          {
            "number": 64,
            "ticks": 50538,
            "time": 67.49191968749999,
            "value": 0
          },
          {
            "number": 64,
            "ticks": 52575,
            "time": 70.21226953124999,
            "value": 1
          },
          {
            "number": 64,
            "ticks": 52721,
            "time": 70.40724796875,
            "value": 0
          },
          {
            "number": 64,
            "ticks": 53978,
            "time": 72.08593218749999,
            "value": 1
          },
          {
            "number": 64,
            "ticks": 54121,
            "time": 72.27690421874999,
            "value": 0
          },
          {
            "number": 64,
            "ticks": 55368,
            "time": 73.94223374999999,
            "value": 1
          },
          {
            "number": 64,
            "ticks": 55452,
            "time": 74.054413125,
            "value": 0
          },
          {
            "number": 64,
            "ticks": 58400,
            "time": 77.99137499999999,
            "value": 1
          },
          {
            "number": 64,
            "ticks": 58556,
            "time": 78.199708125,
            "value": 0
          },
          {
            "number": 64,
            "ticks": 59179,
            "time": 79.03170515624998,
            "value": 1
          },
          {
            "number": 64,
            "ticks": 59240,
            "time": 79.11316875,
            "value": 0
          },
          {
            "number": 64,
            "ticks": 59911,
            "time": 80.00926828124999,
            "value": 1
          },
          {
            "number": 64,
            "ticks": 60054,
            "time": 80.20024031249999,
            "value": 0
          },
          {
            "number": 64,
            "ticks": 61290,
            "time": 81.8508796875,
            "value": 1
          },
          {
            "number": 64,
            "ticks": 61444,
            "time": 82.05654187499998,
            "value": 0
          },
          {
            "number": 64,
            "ticks": 64070,
            "time": 85.5634828125,
            "value": 1
          },
          {
            "number": 64,
            "ticks": 64236,
            "time": 85.78517062499999,
            "value": 0
          },
          {
            "number": 64,
            "ticks": 64597,
            "time": 86.26727484374999,
            "value": 1
          },
          {
            "number": 64,
            "ticks": 64669,
            "time": 86.36342859374999,
            "value": 0
          },
          {
            "number": 64,
            "ticks": 65987,
            "time": 88.12357640625,
            "value": 1
          },
          {
            "number": 64,
            "ticks": 66071,
            "time": 88.23575578124999,
            "value": 0
          },
          {
            "number": 64,
            "ticks": 66934,
            "time": 89.38826531249998,
            "value": 1
          },
          {
            "number": 64,
            "ticks": 66982,
            "time": 89.45236781249999,
            "value": 0
          },
          {
            "number": 64,
            "ticks": 71885,
            "time": 96.00017109375,
            "value": 0
          }
        ]
      },
      "instrument": {
        "family": "piano",
        "name": "acoustic grand piano",
        "number": 0
      },
      "name": "",
      "notes": [
        {
          "duration": 0.36458296874999996,
          "durationTicks": 273,
          "midi": 65,
          "name": "F4",
          "ticks": 0,
          "time": 0,
          "velocity": 0.28346456692913385
        },
        {
          "duration": 0.3966342187499999,
          "durationTicks": 297,
          "midi": 67,
          "name": "G4",
          "ticks": 245,
          "time": 0.32718984375,
          "velocity": 0.44881889763779526
        },
        {
          "duration": 0.3712603124999999,
          "durationTicks": 278,
          "midi": 65,
          "name": "F4",
          "ticks": 515,
          "time": 0.6877664062499999,
          "velocity": 0.4881889763779528
        },
        {
          "duration": 0.3498928124999998,
          "durationTicks": 262,
          "midi": 70,
          "name": "A#4",
          "ticks": 782,
          "time": 1.0443365625,
          "velocity": 0.31496062992125984
        },
        {
          "duration": 0.34989281250000004,
          "durationTicks": 262,
          "midi": 62,
          "name": "D4",
          "ticks": 1050,
          "time": 1.4022421874999997,
          "velocity": 0.3228346456692913
        },
        {
          "duration": 0.2417198437500001,
          "durationTicks": 181,
          "midi": 60,
          "name": "C4",
          "ticks": 1315,
          "time": 1.7561414062499998,
          "velocity": 0.33070866141732286
        },
        {
          "duration": 0.16025624999999977,
          "durationTicks": 120,
          "midi": 69,
          "name": "A4",
          "ticks": 1574,
          "time": 2.1020278125,
          "velocity": 0.4330708661417323
        },
        {
          "duration": 0.16559812500000026,
          "durationTicks": 124,
          "midi": 67,
          "name": "G4",
          "ticks": 1698,
          "time": 2.2676259374999996,
          "velocity": 0.5118110236220472
        },
        {
          "duration": 0.18563015625000023,
          "durationTicks": 139,
          "midi": 70,
          "name": "A#4",
          "ticks": 1811,
          "time": 2.4185339062499995,
          "velocity": 0.5590551181102362
        },
        {
          "duration": 0.18696562500000002,
          "durationTicks": 140,
          "midi": 69,
          "name": "A4",
          "ticks": 1924,
          "time": 2.569441875,
          "velocity": 0.5196850393700787
        },
        {
          "duration": 0.16025624999999977,
          "durationTicks": 120,
          "midi": 67,
          "name": "G4",
          "ticks": 2058,
          "time": 2.7483946875,
          "velocity": 0.5196850393700787
        },
        {
          "duration": 0.14823703124999987,
          "durationTicks": 111,
          "midi": 65,
          "name": "F4",
          "ticks": 2170,
          "time": 2.8979671875,
          "velocity": 0.4645669291338583
        },
        {
          "duration": 0.34989281250000026,
          "durationTicks": 262,
          "midi": 72,
          "name": "C5",
          "ticks": 2315,
          "time": 3.0916101562499994,
          "velocity": 0.4251968503937008
        },
        {
          "duration": 0.3672539062500002,
          "durationTicks": 275,
          "midi": 63,
          "name": "D#4",
          "ticks": 2582,
          "time": 3.4481803124999995,
          "velocity": 0.44881889763779526
        },
        {
          "duration": 0.32318343749999956,
          "durationTicks": 242,
          "midi": 62,
          "name": "D4",
          "ticks": 2869,
          "time": 3.83145984375,
          "velocity": 0.3464566929133858
        },
        {
          "duration": 0.19497843750000055,
          "durationTicks": 146,
          "midi": 70,
          "name": "A#4",
          "ticks": 3144,
          "time": 4.19871375,
          "velocity": 0.3700787401574803
        },
        {
          "duration": 0.18028828125000018,
          "durationTicks": 135,
          "midi": 72,
          "name": "C5",
          "ticks": 3272,
          "time": 4.3696537499999994,
          "velocity": 0.49606299212598426
        },
        {
          "duration": 0.18830109374999981,
          "durationTicks": 141,
          "midi": 69,
          "name": "A4",
          "ticks": 3390,
          "time": 4.5272390625,
          "velocity": 0.5118110236220472
        },
        {
          "duration": 0.18429468749999955,
          "durationTicks": 138,
          "midi": 70,
          "name": "A#4",
          "ticks": 3513,
          "time": 4.69150171875,
          "velocity": 0.5196850393700787
        },
        {
          "duration": 0.19097203125000028,
          "durationTicks": 143,
          "midi": 72,
          "name": "C5",
          "ticks": 3637,
          "time": 4.8570998437499995,
          "velocity": 0.5669291338582677
        },
        {
          "duration": 0.1789528125000004,
          "durationTicks": 134,
          "midi": 74,
          "name": "D5",
          "ticks": 3757,
          "time": 5.017356093749999,
          "velocity": 0.6141732283464567
        },
        {
          "duration": 0.19364296874999987,
          "durationTicks": 145,
          "midi": 75,
          "name": "D#5",
          "ticks": 3885,
          "time": 5.188296093749999,
          "velocity": 0.5590551181102362
        },
        {
          "duration": 0.17227546874999966,
          "durationTicks": 129,
          "midi": 74,
          "name": "D5",
          "ticks": 4013,
          "time": 5.35923609375,
          "velocity": 0.5905511811023622
        },
        {
          "duration": 0.17093999999999987,
          "durationTicks": 128,
          "midi": 72,
          "name": "C5",
          "ticks": 4130,
          "time": 5.515485937499999,
          "velocity": 0.5196850393700787
        },
        {
          "duration": 0.19898484374999903,
          "durationTicks": 149,
          "midi": 75,
          "name": "D#5",
          "ticks": 4247,
          "time": 5.67173578125,
          "velocity": 0.5511811023622047
        },
        {
          "duration": 0.15224343750000013,
          "durationTicks": 114,
          "midi": 74,
          "name": "D5",
          "ticks": 4385,
          "time": 5.856030468749999,
          "velocity": 0.5748031496062992
        },
        {
          "duration": 0.20432671874999997,
          "durationTicks": 153,
          "midi": 72,
          "name": "C5",
          "ticks": 4504,
          "time": 6.014951249999999,
          "velocity": 0.44881889763779526
        },
        {
          "duration": 0.18295921875000065,
          "durationTicks": 137,
          "midi": 70,
          "name": "A#4",
          "ticks": 4632,
          "time": 6.185891249999999,
          "velocity": 0.4330708661417323
        },
        {
          "duration": 0.1562498437499995,
          "durationTicks": 117,
          "midi": 72,
          "name": "C5",
          "ticks": 4769,
          "time": 6.36885046875,
          "velocity": 0.44881889763779526
        },
        {
          "duration": 0.17361093750000034,
          "durationTicks": 130,
          "midi": 69,
          "name": "A4",
          "ticks": 4897,
          "time": 6.539790468749999,
          "velocity": 0.3779527559055118
        },
        {
          "duration": 0.17227546875000055,
          "durationTicks": 129,
          "midi": 70,
          "name": "A#4",
          "ticks": 5027,
          "time": 6.713401406249999,
          "velocity": 0.36220472440944884
        },
        {
          "duration": 0.1535789062500008,
          "durationTicks": 115,
          "midi": 72,
          "name": "C5",
          "ticks": 5161,
          "time": 6.892354218749999,
          "velocity": 0.3937007874015748
        },
        {
          "duration": 0.1455660937499994,
          "durationTicks": 109,
          "midi": 74,
          "name": "D5",
          "ticks": 5289,
          "time": 7.063294218749999,
          "velocity": 0.3937007874015748
        },
        {
          "duration": 0.1682690625000003,
          "durationTicks": 126,
          "midi": 75,
          "name": "D#5",
          "ticks": 5417,
          "time": 7.234234218749999,
          "velocity": 0.3779527559055118
        },
        {
          "duration": 0.1562498437499995,
          "durationTicks": 117,
          "midi": 74,
          "name": "D5",
          "ticks": 5543,
          "time": 7.40250328125,
          "velocity": 0.41732283464566927
        },
        {
          "duration": 0.09615374999999915,
          "durationTicks": 72,
          "midi": 72,
          "name": "C5",
          "ticks": 5669,
          "time": 7.57077234375,
          "velocity": 0.33858267716535434
        },
        {
          "duration": 0.19364296874999987,
          "durationTicks": 145,
          "midi": 75,
          "name": "D#5",
          "ticks": 5786,
          "time": 7.727022187499999,
          "velocity": 0.25196850393700787
        },
        {
          "duration": 0.5462067187499997,
          "durationTicks": 409,
          "midi": 74,
          "name": "D5",
          "ticks": 5931,
          "time": 7.920665156249999,
          "velocity": 0.4330708661417323
        },
        {
          "duration": 0.33119624999999964,
          "durationTicks": 248,
          "midi": 58,
          "name": "A#3",
          "ticks": 6231,
          "time": 8.321305781249999,
          "velocity": 0.3228346456692913
        },
        {
          "duration": 0.17494640624999924,
          "durationTicks": 131,
          "midi": 72,
          "name": "C5",
          "ticks": 6348,
          "time": 8.477555624999999,
          "velocity": 0.3228346456692913
        },
        {
          "duration": 0.3418800000000015,
          "durationTicks": 256,
          "midi": 62,
          "name": "D4",
          "ticks": 6479,
          "time": 8.652502031249998,
          "velocity": 0.44881889763779526
        },
        {
          "duration": 0.16426265625000092,
          "durationTicks": 123,
          "midi": 70,
          "name": "A#4",
          "ticks": 6479,
          "time": 8.652502031249998,
          "velocity": 0.33858267716535434
        },
        {
          "duration": 0.17093999999999987,
          "durationTicks": 128,
          "midi": 69,
          "name": "A4",
          "ticks": 6607,
          "time": 8.82344203125,
          "velocity": 0.36220472440944884
        },
        {
          "duration": 0.17093999999999987,
          "durationTicks": 128,
          "midi": 70,
          "name": "A#4",
          "ticks": 6729,
          "time": 8.98636921875,
          "velocity": 0.4251968503937008
        },
        {
          "duration": 0.312499687499999,
          "durationTicks": 234,
          "midi": 58,
          "name": "A#3",
          "ticks": 6735,
          "time": 8.99438203125,
          "velocity": 0.41732283464566927
        },
        {
          "duration": 0.19230750000000008,
          "durationTicks": 144,
          "midi": 72,
          "name": "C5",
          "ticks": 6850,
          "time": 9.147960937499999,
          "velocity": 0.5433070866141733
        },
        {
          "duration": 0.1682690625000003,
          "durationTicks": 126,
          "midi": 74,
          "name": "D5",
          "ticks": 6989,
          "time": 9.333591093749998,
          "velocity": 0.5905511811023622
        },
        {
          "duration": 0.2497326562499982,
          "durationTicks": 187,
          "midi": 65,
          "name": "F4",
          "ticks": 7000,
          "time": 9.34828125,
          "velocity": 0.3700787401574803
        },
        {
          "duration": 0.8426807812500012,
          "durationTicks": 631,
          "midi": 77,
          "name": "F5",
          "ticks": 7251,
          "time": 9.683483906249998,
          "velocity": 0.5511811023622047
        },
        {
          "duration": 0.3579056250000008,
          "durationTicks": 268,
          "midi": 57,
          "name": "A3",
          "ticks": 7262,
          "time": 9.698174062499998,
          "velocity": 0.28346456692913385
        },
        {
          "duration": 0.20833312500000112,
          "durationTicks": 156,
          "midi": 55,
          "name": "G3",
          "ticks": 7548,
          "time": 10.080118124999998,
          "velocity": 0.4015748031496063
        },
        {
          "duration": 0.3672539062499993,
          "durationTicks": 275,
          "midi": 70,
          "name": "A#4",
          "ticks": 7800,
          "time": 10.416656249999999,
          "velocity": 0.4330708661417323
        },
        {
          "duration": 0.12686953124999967,
          "durationTicks": 95,
          "midi": 64,
          "name": "E4",
          "ticks": 7816,
          "time": 10.43802375,
          "velocity": 0.4409448818897638
        },
        {
          "duration": 0.14556609374999852,
          "durationTicks": 109,
          "midi": 62,
          "name": "D4",
          "ticks": 7927,
          "time": 10.58626078125,
          "velocity": 0.49606299212598426
        },
        {
          "duration": 0.35389921874999786,
          "durationTicks": 265,
          "midi": 69,
          "name": "A4",
          "ticks": 8053,
          "time": 10.75452984375,
          "velocity": 0.49606299212598426
        },
        {
          "duration": 0.1589207812499982,
          "durationTicks": 119,
          "midi": 65,
          "name": "F4",
          "ticks": 8059,
          "time": 10.76254265625,
          "velocity": 0.5433070866141733
        },
        {
          "duration": 0.1348823437500002,
          "durationTicks": 101,
          "midi": 64,
          "name": "E4",
          "ticks": 8184,
          "time": 10.929476249999999,
          "velocity": 0.5669291338582677
        },
        {
          "duration": 0.3325317187499994,
          "durationTicks": 249,
          "midi": 70,
          "name": "A#4",
          "ticks": 8295,
          "time": 11.077713281249999,
          "velocity": 0.5275590551181102
        },
        {
          "duration": 0.11885671875000092,
          "durationTicks": 89,
          "midi": 62,
          "name": "D4",
          "ticks": 8306,
          "time": 11.092403437499998,
          "velocity": 0.5354330708661418
        },
        {
          "duration": 0.1335468750000004,
          "durationTicks": 100,
          "midi": 60,
          "name": "C4",
          "ticks": 8421,
          "time": 11.245982343749999,
          "velocity": 0.47244094488188976
        },
        {
          "duration": 0.20966859374999736,
          "durationTicks": 157,
          "midi": 76,
          "name": "E5",
          "ticks": 8551,
          "time": 11.41959328125,
          "velocity": 0.47244094488188976
        },
        {
          "duration": 0.21634593749999986,
          "durationTicks": 162,
          "midi": 67,
          "name": "G4",
          "ticks": 8557,
          "time": 11.427606093749999,
          "velocity": 0.4015748031496063
        },
        {
          "duration": 0.7264949999999999,
          "durationTicks": 544,
          "midi": 79,
          "name": "G5",
          "ticks": 8813,
          "time": 11.769486093749999,
          "velocity": 0.6062992125984252
        },
        {
          "duration": 0.3552346874999994,
          "durationTicks": 266,
          "midi": 58,
          "name": "A#3",
          "ticks": 8824,
          "time": 11.78417625,
          "velocity": 0.30708661417322836
        },
        {
          "duration": 0.31784156249999995,
          "durationTicks": 238,
          "midi": 57,
          "name": "A3",
          "ticks": 9122,
          "time": 12.182145937499998,
          "velocity": 0.25984251968503935
        },
        {
          "duration": 0.17094000000000165,
          "durationTicks": 128,
          "midi": 69,
          "name": "A4",
          "ticks": 9371,
          "time": 12.514677656249997,
          "velocity": 0.3464566929133858
        },
        {
          "duration": 0.07345078125000093,
          "durationTicks": 55,
          "midi": 65,
          "name": "F4",
          "ticks": 9390,
          "time": 12.540051562499999,
          "velocity": 0.2992125984251969
        },
        {
          "duration": 0.13488234375000197,
          "durationTicks": 101,
          "midi": 70,
          "name": "A#4",
          "ticks": 9482,
          "time": 12.662914687499997,
          "velocity": 0.4094488188976378
        },
        {
          "duration": 0.08279906249999947,
          "durationTicks": 62,
          "midi": 67,
          "name": "G4",
          "ticks": 9507,
          "time": 12.696301406249999,
          "velocity": 0.2992125984251969
        },
        {
          "duration": 0.06543796875000041,
          "durationTicks": 49,
          "midi": 72,
          "name": "C5",
          "ticks": 9611,
          "time": 12.835190156249999,
          "velocity": 0.4645669291338583
        },
        {
          "duration": 0.09615374999999915,
          "durationTicks": 72,
          "midi": 64,
          "name": "E4",
          "ticks": 9624,
          "time": 12.85255125,
          "velocity": 0.3937007874015748
        },
        {
          "duration": 0.09615374999999915,
          "durationTicks": 72,
          "midi": 65,
          "name": "F4",
          "ticks": 9764,
          "time": 13.039516874999999,
          "velocity": 0.15748031496062992
        },
        {
          "duration": 0.05876062499999968,
          "durationTicks": 44,
          "midi": 72,
          "name": "C5",
          "ticks": 9864,
          "time": 13.173063749999999,
          "velocity": 0.47244094488188976
        },
        {
          "duration": 0.07077984374999957,
          "durationTicks": 53,
          "midi": 67,
          "name": "G4",
          "ticks": 9867,
          "time": 13.177070156249998,
          "velocity": 0.36220472440944884
        },
        {
          "duration": 0.1749464062500028,
          "durationTicks": 131,
          "midi": 69,
          "name": "A4",
          "ticks": 9983,
          "time": 13.331984531249997,
          "velocity": 0.29133858267716534
        },
        {
          "duration": 0.0667734375000002,
          "durationTicks": 50,
          "midi": 72,
          "name": "C5",
          "ticks": 10104,
          "time": 13.493576249999998,
          "velocity": 0.5196850393700787
        },
        {
          "duration": 0.13888874999999778,
          "durationTicks": 104,
          "midi": 70,
          "name": "A#4",
          "ticks": 10114,
          "time": 13.5069309375,
          "velocity": 0.3858267716535433
        },
        {
          "duration": 0.11618578124999956,
          "durationTicks": 87,
          "midi": 69,
          "name": "A4",
          "ticks": 10237,
          "time": 13.671193593749999,
          "velocity": 0.33070866141732286
        },
        {
          "duration": 0.054754218750000305,
          "durationTicks": 41,
          "midi": 72,
          "name": "C5",
          "ticks": 10352,
          "time": 13.824772499999998,
          "velocity": 0.5039370078740157
        },
        {
          "duration": 0.11485031249999977,
          "durationTicks": 86,
          "midi": 67,
          "name": "G4",
          "ticks": 10357,
          "time": 13.831449843749999,
          "velocity": 0.4409448818897638
        },
        {
          "duration": 0.1562498437500004,
          "durationTicks": 117,
          "midi": 70,
          "name": "A#4",
          "ticks": 10466,
          "time": 13.977015937499997,
          "velocity": 0.47244094488188976
        },
        {
          "duration": 0.19898484374999903,
          "durationTicks": 149,
          "midi": 72,
          "name": "C5",
          "ticks": 10593,
          "time": 14.14662046875,
          "velocity": 0.5905511811023622
        },
        {
          "duration": 0.1428951562500025,
          "durationTicks": 107,
          "midi": 69,
          "name": "A4",
          "ticks": 10604,
          "time": 14.161310624999997,
          "velocity": 0.48031496062992124
        },
        {
          "duration": 0.16025625000000154,
          "durationTicks": 120,
          "midi": 70,
          "name": "A#4",
          "ticks": 10708,
          "time": 14.300199374999998,
          "velocity": 0.48031496062992124
        },
        {
          "duration": 0.09615374999999915,
          "durationTicks": 72,
          "midi": 67,
          "name": "G4",
          "ticks": 10722,
          "time": 14.318895937499999,
          "velocity": 0.5590551181102362
        },
        {
          "duration": 0.1936429687499981,
          "durationTicks": 145,
          "midi": 69,
          "name": "A4",
          "ticks": 10828,
          "time": 14.460455625,
          "velocity": 0.5511811023622047
        },
        {
          "duration": 0.1535789062500008,
          "durationTicks": 115,
          "midi": 65,
          "name": "F4",
          "ticks": 10841,
          "time": 14.477816718749997,
          "velocity": 0.47244094488188976
        },
        {
          "duration": 0.19230750000000008,
          "durationTicks": 144,
          "midi": 70,
          "name": "A#4",
          "ticks": 10945,
          "time": 14.616705468749998,
          "velocity": 0.5669291338582677
        },
        {
          "duration": 0.12553406250000165,
          "durationTicks": 94,
          "midi": 67,
          "name": "G4",
          "ticks": 10956,
          "time": 14.631395624999998,
          "velocity": 0.5826771653543307
        },
        {
          "duration": 0.0667734375000002,
          "durationTicks": 50,
          "midi": 72,
          "name": "C5",
          "ticks": 11075,
          "time": 14.790316406249998,
          "velocity": 0.5748031496062992
        },
        {
          "duration": 0.17094000000000165,
          "durationTicks": 128,
          "midi": 64,
          "name": "E4",
          "ticks": 11075,
          "time": 14.790316406249998,
          "velocity": 0.6141732283464567
        },
        {
          "duration": 0.1682690624999985,
          "durationTicks": 126,
          "midi": 65,
          "name": "F4",
          "ticks": 11203,
          "time": 14.96125640625,
          "velocity": 0.5196850393700787
        },
        {
          "duration": 0.056089687500000096,
          "durationTicks": 42,
          "midi": 72,
          "name": "C5",
          "ticks": 11324,
          "time": 15.122848124999997,
          "velocity": 0.5039370078740157
        },
        {
          "duration": 0.14022421875000113,
          "durationTicks": 105,
          "midi": 67,
          "name": "G4",
          "ticks": 11329,
          "time": 15.129525468749998,
          "velocity": 0.5433070866141733
        },
        {
          "duration": 0.17094000000000165,
          "durationTicks": 128,
          "midi": 69,
          "name": "A4",
          "ticks": 11444,
          "time": 15.283104374999997,
          "velocity": 0.3779527559055118
        },
        {
          "duration": 0.061431562500001036,
          "durationTicks": 46,
          "midi": 72,
          "name": "C5",
          "ticks": 11561,
          "time": 15.439354218749997,
          "velocity": 0.47244094488188976
        },
        {
          "duration": 0.15224343750000102,
          "durationTicks": 114,
          "midi": 70,
          "name": "A#4",
          "ticks": 11577,
          "time": 15.460721718749998,
          "velocity": 0.44881889763779526
        },
        {
          "duration": 0.09081187499999999,
          "durationTicks": 68,
          "midi": 69,
          "name": "A4",
          "ticks": 11707,
          "time": 15.634332656249999,
          "velocity": 0.2755905511811024
        },
        {
          "duration": 0.05341875000000229,
          "durationTicks": 40,
          "midi": 72,
          "name": "C5",
          "ticks": 11819,
          "time": 15.783905156249997,
          "velocity": 0.4015748031496063
        },
        {
          "duration": 0.09214734375000155,
          "durationTicks": 69,
          "midi": 67,
          "name": "G4",
          "ticks": 11819,
          "time": 15.783905156249997,
          "velocity": 0.3700787401574803
        },
        {
          "duration": 0.06143156249999926,
          "durationTicks": 46,
          "midi": 70,
          "name": "A#4",
          "ticks": 11930,
          "time": 15.932142187499998,
          "velocity": 0.3779527559055118
        },
        {
          "duration": 1.2166120312500013,
          "durationTicks": 911,
          "midi": 72,
          "name": "C5",
          "ticks": 12067,
          "time": 16.115101406249998,
          "velocity": 0.41732283464566927
        },
        {
          "duration": 0.5328520312499982,
          "durationTicks": 399,
          "midi": 69,
          "name": "A4",
          "ticks": 12070,
          "time": 16.119107812499998,
          "velocity": 0.28346456692913385
        },
        {
          "duration": 0.311164218750001,
          "durationTicks": 233,
          "midi": 53,
          "name": "F3",
          "ticks": 12352,
          "time": 16.495709999999995,
          "velocity": 0.5984251968503937
        },
        {
          "duration": 0.16025624999999977,
          "durationTicks": 120,
          "midi": 67,
          "name": "G4",
          "ticks": 12465,
          "time": 16.646617968749997,
          "velocity": 0.4094488188976378
        },
        {
          "duration": 0.17094000000000165,
          "durationTicks": 128,
          "midi": 65,
          "name": "F4",
          "ticks": 12594,
          "time": 16.818893437499998,
          "velocity": 0.41732283464566927
        },
        {
          "duration": 0.33253171874999765,
          "durationTicks": 249,
          "midi": 55,
          "name": "G3",
          "ticks": 12599,
          "time": 16.82557078125,
          "velocity": 0.5905511811023622
        },
        {
          "duration": 0.17361093749999768,
          "durationTicks": 130,
          "midi": 63,
          "name": "D#4",
          "ticks": 12711,
          "time": 16.97514328125,
          "velocity": 0.5039370078740157
        },
        {
          "duration": 0.333867187500001,
          "durationTicks": 250,
          "midi": 53,
          "name": "F3",
          "ticks": 12853,
          "time": 17.164779843749997,
          "velocity": 0.6850393700787402
        },
        {
          "duration": 0.12553406250000165,
          "durationTicks": 94,
          "midi": 62,
          "name": "D4",
          "ticks": 12859,
          "time": 17.172792656249996,
          "velocity": 0.4881889763779528
        },
        {
          "duration": 0.19497843749999788,
          "durationTicks": 146,
          "midi": 63,
          "name": "D#4",
          "ticks": 12965,
          "time": 17.31435234375,
          "velocity": 0.5590551181102362
        },
        {
          "duration": 0.1348823437500002,
          "durationTicks": 101,
          "midi": 58,
          "name": "A#3",
          "ticks": 13111,
          "time": 17.509330781249997,
          "velocity": 0.4094488188976378
        },
        {
          "duration": 0.22168781249999725,
          "durationTicks": 166,
          "midi": 65,
          "name": "F4",
          "ticks": 13115,
          "time": 17.51467265625,
          "velocity": 0.5039370078740157
        },
        {
          "duration": 0.15090796874999768,
          "durationTicks": 113,
          "midi": 74,
          "name": "D5",
          "ticks": 13238,
          "time": 17.6789353125,
          "velocity": 0.5196850393700787
        },
        {
          "duration": 0.5061426562500024,
          "durationTicks": 379,
          "midi": 70,
          "name": "A#4",
          "ticks": 13357,
          "time": 17.83785609375,
          "velocity": 0.4645669291338583
        },
        {
          "duration": 0.3018159374999989,
          "durationTicks": 226,
          "midi": 50,
          "name": "D3",
          "ticks": 13376,
          "time": 17.863229999999998,
          "velocity": 0.4881889763779528
        },
        {
          "duration": 0.15758531250000374,
          "durationTicks": 118,
          "midi": 74,
          "name": "D5",
          "ticks": 13471,
          "time": 17.990099531249996,
          "velocity": 0.6141732283464567
        },
        {
          "duration": 0.34187999999999974,
          "durationTicks": 256,
          "midi": 75,
          "name": "D#5",
          "ticks": 13625,
          "time": 18.19576171875,
          "velocity": 0.49606299212598426
        },
        {
          "duration": 0.27243562499999996,
          "durationTicks": 204,
          "midi": 48,
          "name": "C3",
          "ticks": 13635,
          "time": 18.209116406249997,
          "velocity": 0.28346456692913385
        },
        {
          "duration": 0.311164218750001,
          "durationTicks": 233,
          "midi": 63,
          "name": "D#4",
          "ticks": 13867,
          "time": 18.51894515625,
          "velocity": 0.4645669291338583
        },
        {
          "duration": 0.16292718749999935,
          "durationTicks": 122,
          "midi": 57,
          "name": "A3",
          "ticks": 13881,
          "time": 18.53764171875,
          "velocity": 0.3464566929133858
        },
        {
          "duration": 0.15491437500000416,
          "durationTicks": 116,
          "midi": 55,
          "name": "G3",
          "ticks": 13984,
          "time": 18.675194999999995,
          "velocity": 0.5275590551181102
        },
        {
          "duration": 0.2564099999999989,
          "durationTicks": 192,
          "midi": 62,
          "name": "D4",
          "ticks": 14106,
          "time": 18.838122187499998,
          "velocity": 0.5433070866141733
        },
        {
          "duration": 0.19097203125000206,
          "durationTicks": 143,
          "midi": 58,
          "name": "A#3",
          "ticks": 14106,
          "time": 18.838122187499998,
          "velocity": 0.47244094488188976
        },
        {
          "duration": 0.18963656249999872,
          "durationTicks": 142,
          "midi": 57,
          "name": "A3",
          "ticks": 14238,
          "time": 19.0144040625,
          "velocity": 0.5669291338582677
        },
        {
          "duration": 0.17361093749999768,
          "durationTicks": 130,
          "midi": 63,
          "name": "D#4",
          "ticks": 14346,
          "time": 19.158634687499998,
          "velocity": 0.5196850393700787
        },
        {
          "duration": 0.1482370312499981,
          "durationTicks": 111,
          "midi": 55,
          "name": "G3",
          "ticks": 14365,
          "time": 19.184008593749997,
          "velocity": 0.5984251968503937
        },
        {
          "duration": 0.1696045312499983,
          "durationTicks": 127,
          "midi": 53,
          "name": "F3",
          "ticks": 14466,
          "time": 19.318890937499997,
          "velocity": 0.7244094488188977
        },
        {
          "duration": 0.12286312500000207,
          "durationTicks": 92,
          "midi": 60,
          "name": "C4",
          "ticks": 14607,
          "time": 19.507192031249996,
          "velocity": 0.5275590551181102
        },
        {
          "duration": 0.17761734375000415,
          "durationTicks": 133,
          "midi": 69,
          "name": "A4",
          "ticks": 14611,
          "time": 19.512533906249995,
          "velocity": 0.4409448818897638
        },
        {
          "duration": 0.16025624999999977,
          "durationTicks": 120,
          "midi": 75,
          "name": "D#5",
          "ticks": 14719,
          "time": 19.656764531249998,
          "velocity": 0.4645669291338583
        },
        {
          "duration": 0.5235037500000033,
          "durationTicks": 392,
          "midi": 72,
          "name": "C5",
          "ticks": 14848,
          "time": 19.829039999999996,
          "velocity": 0.5275590551181102
        },
        {
          "duration": 0.3218479687500029,
          "durationTicks": 241,
          "midi": 51,
          "name": "D#3",
          "ticks": 14851,
          "time": 19.833046406249995,
          "velocity": 0.49606299212598426
        },
        {
          "duration": 0.13087593750000082,
          "durationTicks": 98,
          "midi": 75,
          "name": "D#5",
          "ticks": 14961,
          "time": 19.979947968749997,
          "velocity": 0.5275590551181102
        },
        {
          "duration": 0.16693359374999872,
          "durationTicks": 125,
          "midi": 77,
          "name": "F5",
          "ticks": 15107,
          "time": 20.174926406249998,
          "velocity": 0.49606299212598426
        },
        {
          "duration": 0.20833312499999934,
          "durationTicks": 156,
          "midi": 50,
          "name": "D3",
          "ticks": 15114,
          "time": 20.184274687499997,
          "velocity": 0.4409448818897638
        },
        {
          "duration": 0.08012812500000166,
          "durationTicks": 60,
          "midi": 62,
          "name": "D4",
          "ticks": 15348,
          "time": 20.496774374999998,
          "velocity": 0.44881889763779526
        },
        {
          "duration": 0.06276703125000083,
          "durationTicks": 47,
          "midi": 58,
          "name": "A#3",
          "ticks": 15357,
          "time": 20.50879359375,
          "velocity": 0.36220472440944884
        },
        {
          "duration": 0.1535789062500008,
          "durationTicks": 115,
          "midi": 63,
          "name": "D#4",
          "ticks": 15446,
          "time": 20.6276503125,
          "velocity": 0.5118110236220472
        },
        {
          "duration": 0.06677343750000375,
          "durationTicks": 50,
          "midi": 60,
          "name": "C4",
          "ticks": 15471,
          "time": 20.661037031249997,
          "velocity": 0.4094488188976378
        },
        {
          "duration": 0.16025624999999977,
          "durationTicks": 120,
          "midi": 57,
          "name": "A3",
          "ticks": 15566,
          "time": 20.787906562499998,
          "velocity": 0.5039370078740157
        },
        {
          "duration": 0.11084390625000395,
          "durationTicks": 83,
          "midi": 65,
          "name": "F4",
          "ticks": 15580,
          "time": 20.806603124999995,
          "velocity": 0.5196850393700787
        },
        {
          "duration": 0.16025624999999977,
          "durationTicks": 120,
          "midi": 58,
          "name": "A#3",
          "ticks": 15677,
          "time": 20.93614359375,
          "velocity": 0.41732283464566927
        },
        {
          "duration": 0.0961537500000027,
          "durationTicks": 72,
          "midi": 60,
          "name": "C4",
          "ticks": 15806,
          "time": 21.108419062499998,
          "velocity": 0.4330708661417323
        },
        {
          "duration": 0.1255340624999981,
          "durationTicks": 94,
          "midi": 69,
          "name": "A4",
          "ticks": 15812,
          "time": 21.116431875,
          "velocity": 0.41732283464566927
        },
        {
          "duration": 0.0948182812499958,
          "durationTicks": 71,
          "midi": 65,
          "name": "F4",
          "ticks": 15812,
          "time": 21.116431875,
          "velocity": 0.4330708661417323
        },
        {
          "duration": 0.1415596875000027,
          "durationTicks": 106,
          "midi": 70,
          "name": "A#4",
          "ticks": 15925,
          "time": 21.267339843749998,
          "velocity": 0.4094488188976378
        },
        {
          "duration": 0.07478624999999894,
          "durationTicks": 56,
          "midi": 62,
          "name": "D4",
          "ticks": 15925,
          "time": 21.267339843749998,
          "velocity": 0.3937007874015748
        },
        {
          "duration": 0.0734507812500027,
          "durationTicks": 55,
          "midi": 65,
          "name": "F4",
          "ticks": 16057,
          "time": 21.443621718749995,
          "velocity": 0.5196850393700787
        },
        {
          "duration": 0.06276703125000438,
          "durationTicks": 47,
          "midi": 63,
          "name": "D#4",
          "ticks": 16057,
          "time": 21.443621718749995,
          "velocity": 0.5039370078740157
        },
        {
          "duration": 0.08012812500000166,
          "durationTicks": 60,
          "midi": 72,
          "name": "C5",
          "ticks": 16057,
          "time": 21.443621718749995,
          "velocity": 0.49606299212598426
        },
        {
          "duration": 0.11618578124999956,
          "durationTicks": 87,
          "midi": 70,
          "name": "A#4",
          "ticks": 16167,
          "time": 21.590523281249997,
          "velocity": 0.4015748031496063
        },
        {
          "duration": 0.07077984374999957,
          "durationTicks": 53,
          "midi": 62,
          "name": "D4",
          "ticks": 16195,
          "time": 21.627916406249998,
          "velocity": 0.2677165354330709
        },
        {
          "duration": 0.07879265625000187,
          "durationTicks": 59,
          "midi": 65,
          "name": "F4",
          "ticks": 16290,
          "time": 21.754785937499996,
          "velocity": 0.4015748031496063
        },
        {
          "duration": 0.10283109375000166,
          "durationTicks": 77,
          "midi": 69,
          "name": "A4",
          "ticks": 16294,
          "time": 21.760127812499995,
          "velocity": 0.33070866141732286
        },
        {
          "duration": 0.0881409375000004,
          "durationTicks": 66,
          "midi": 60,
          "name": "C4",
          "ticks": 16294,
          "time": 21.760127812499995,
          "velocity": 0.2992125984251969
        },
        {
          "duration": 0.08146359375000145,
          "durationTicks": 61,
          "midi": 72,
          "name": "C5",
          "ticks": 16405,
          "time": 21.908364843749997,
          "velocity": 0.4094488188976378
        },
        {
          "duration": 0.06543796875000041,
          "durationTicks": 49,
          "midi": 63,
          "name": "D#4",
          "ticks": 16405,
          "time": 21.908364843749997,
          "velocity": 0.4015748031496063
        },
        {
          "duration": 0.07478624999999894,
          "durationTicks": 56,
          "midi": 62,
          "name": "D4",
          "ticks": 16533,
          "time": 22.07930484375,
          "velocity": 0.3937007874015748
        },
        {
          "duration": 0.592948125000003,
          "durationTicks": 444,
          "midi": 70,
          "name": "A#4",
          "ticks": 16538,
          "time": 22.085982187499997,
          "velocity": 0.4330708661417323
        },
        {
          "duration": 0.12419859375000186,
          "durationTicks": 93,
          "midi": 65,
          "name": "F4",
          "ticks": 16538,
          "time": 22.085982187499997,
          "velocity": 0.4645669291338583
        },
        {
          "duration": 0.14155968749999914,
          "durationTicks": 106,
          "midi": 63,
          "name": "D#4",
          "ticks": 16647,
          "time": 22.231548281249996,
          "velocity": 0.47244094488188976
        },
        {
          "duration": 0.09615374999999915,
          "durationTicks": 72,
          "midi": 60,
          "name": "C4",
          "ticks": 16661,
          "time": 22.25024484375,
          "velocity": 0.2440944881889764
        },
        {
          "duration": 0.1562498437500004,
          "durationTicks": 117,
          "midi": 58,
          "name": "A#3",
          "ticks": 16753,
          "time": 22.373107968749995,
          "velocity": 0.3937007874015748
        },
        {
          "duration": 0.11752124999999936,
          "durationTicks": 88,
          "midi": 62,
          "name": "D4",
          "ticks": 16770,
          "time": 22.3958109375,
          "velocity": 0.5118110236220472
        },
        {
          "duration": 0.14690156250000186,
          "durationTicks": 110,
          "midi": 63,
          "name": "D#4",
          "ticks": 16875,
          "time": 22.536035156249998,
          "velocity": 0.5669291338582677
        },
        {
          "duration": 0.06944437499999623,
          "durationTicks": 52,
          "midi": 60,
          "name": "C4",
          "ticks": 16890,
          "time": 22.5560671875,
          "velocity": 0.44881889763779526
        },
        {
          "duration": 0.1629271875000029,
          "durationTicks": 122,
          "midi": 57,
          "name": "A3",
          "ticks": 17004,
          "time": 22.708310624999996,
          "velocity": 0.47244094488188976
        },
        {
          "duration": 0.16693359375000227,
          "durationTicks": 125,
          "midi": 65,
          "name": "F4",
          "ticks": 17004,
          "time": 22.708310624999996,
          "velocity": 0.5984251968503937
        },
        {
          "duration": 0.1482370312499981,
          "durationTicks": 111,
          "midi": 58,
          "name": "A#3",
          "ticks": 17112,
          "time": 22.852541249999998,
          "velocity": 0.4330708661417323
        },
        {
          "duration": 0.10817296874999727,
          "durationTicks": 81,
          "midi": 69,
          "name": "A4",
          "ticks": 17237,
          "time": 23.01947484375,
          "velocity": 0.4330708661417323
        },
        {
          "duration": 0.06677343750000375,
          "durationTicks": 50,
          "midi": 60,
          "name": "C4",
          "ticks": 17248,
          "time": 23.034164999999994,
          "velocity": 0.4251968503937008
        },
        {
          "duration": 0.06677343750000375,
          "durationTicks": 50,
          "midi": 65,
          "name": "F4",
          "ticks": 17248,
          "time": 23.034164999999994,
          "velocity": 0.4251968503937008
        },
        {
          "duration": 0.12286312500000207,
          "durationTicks": 92,
          "midi": 70,
          "name": "A#4",
          "ticks": 17344,
          "time": 23.162369999999996,
          "velocity": 0.4409448818897638
        },
        {
          "duration": 0.07745718749999853,
          "durationTicks": 58,
          "midi": 62,
          "name": "D4",
          "ticks": 17355,
          "time": 23.177060156249997,
          "velocity": 0.3228346456692913
        },
        {
          "duration": 0.06677343749999665,
          "durationTicks": 50,
          "midi": 63,
          "name": "D#4",
          "ticks": 17468,
          "time": 23.327968124999998,
          "velocity": 0.44881889763779526
        },
        {
          "duration": 0.0894764062500002,
          "durationTicks": 67,
          "midi": 72,
          "name": "C5",
          "ticks": 17475,
          "time": 23.337316406249997,
          "velocity": 0.4645669291338583
        },
        {
          "duration": 0.06944437499999978,
          "durationTicks": 52,
          "midi": 65,
          "name": "F4",
          "ticks": 17475,
          "time": 23.337316406249997,
          "velocity": 0.4645669291338583
        },
        {
          "duration": 0.1549143750000006,
          "durationTicks": 116,
          "midi": 70,
          "name": "A#4",
          "ticks": 17578,
          "time": 23.474869687499996,
          "velocity": 0.33858267716535434
        },
        {
          "duration": 0.07077984374999602,
          "durationTicks": 53,
          "midi": 62,
          "name": "D4",
          "ticks": 17597,
          "time": 23.50024359375,
          "velocity": 0.23622047244094488
        },
        {
          "duration": 0.12954046874999747,
          "durationTicks": 97,
          "midi": 69,
          "name": "A4",
          "ticks": 17703,
          "time": 23.64180328125,
          "velocity": 0.31496062992125984
        },
        {
          "duration": 0.08546999999999727,
          "durationTicks": 64,
          "midi": 65,
          "name": "F4",
          "ticks": 17703,
          "time": 23.64180328125,
          "velocity": 0.33070866141732286
        },
        {
          "duration": 0.07879265624999832,
          "durationTicks": 59,
          "midi": 60,
          "name": "C4",
          "ticks": 17708,
          "time": 23.648480624999998,
          "velocity": 0.3228346456692913
        },
        {
          "duration": 0.06410250000000062,
          "durationTicks": 48,
          "midi": 63,
          "name": "D#4",
          "ticks": 17817,
          "time": 23.794046718749996,
          "velocity": 0.36220472440944884
        },
        {
          "duration": 0.09214734374999978,
          "durationTicks": 69,
          "midi": 72,
          "name": "C5",
          "ticks": 17817,
          "time": 23.794046718749996,
          "velocity": 0.4015748031496063
        },
        {
          "duration": 0.17227546874999788,
          "durationTicks": 129,
          "midi": 70,
          "name": "A#4",
          "ticks": 17950,
          "time": 23.971664062499997,
          "velocity": 0.3464566929133858
        },
        {
          "duration": 0.4206726562500016,
          "durationTicks": 315,
          "midi": 65,
          "name": "F4",
          "ticks": 17956,
          "time": 23.979676874999996,
          "velocity": 0.2677165354330709
        },
        {
          "duration": 0.05341874999999874,
          "durationTicks": 40,
          "midi": 62,
          "name": "D4",
          "ticks": 17967,
          "time": 23.994367031249997,
          "velocity": 0.3543307086614173
        },
        {
          "duration": 0.30315140624999515,
          "durationTicks": 227,
          "midi": 70,
          "name": "A#4",
          "ticks": 18191,
          "time": 24.29351203125,
          "velocity": 0.4409448818897638
        },
        {
          "duration": 0.06543796874999686,
          "durationTicks": 49,
          "midi": 50,
          "name": "D3",
          "ticks": 18195,
          "time": 24.29885390625,
          "velocity": 0.44881889763779526
        },
        {
          "duration": 0.12019218749999894,
          "durationTicks": 90,
          "midi": 48,
          "name": "C3",
          "ticks": 18318,
          "time": 24.463116562499998,
          "velocity": 0.3464566929133858
        },
        {
          "duration": 0.14022421874999935,
          "durationTicks": 105,
          "midi": 46,
          "name": "A#2",
          "ticks": 18427,
          "time": 24.608682656249997,
          "velocity": 0.3700787401574803
        },
        {
          "duration": 0.3044868749999985,
          "durationTicks": 228,
          "midi": 74,
          "name": "D5",
          "ticks": 18446,
          "time": 24.6340565625,
          "velocity": 0.49606299212598426
        },
        {
          "duration": 0.18162374999999642,
          "durationTicks": 136,
          "midi": 45,
          "name": "A2",
          "ticks": 18555,
          "time": 24.779622656249998,
          "velocity": 0.44881889763779526
        },
        {
          "duration": 0.3205125000000031,
          "durationTicks": 240,
          "midi": 70,
          "name": "A#4",
          "ticks": 18669,
          "time": 24.931866093749996,
          "velocity": 0.4566929133858268
        },
        {
          "duration": 0.1322114062500006,
          "durationTicks": 99,
          "midi": 46,
          "name": "A#2",
          "ticks": 18674,
          "time": 24.938543437499998,
          "velocity": 0.5196850393700787
        },
        {
          "duration": 0.1255340624999981,
          "durationTicks": 94,
          "midi": 48,
          "name": "C3",
          "ticks": 18795,
          "time": 25.100135156249998,
          "velocity": 0.4881889763779528
        },
        {
          "duration": 0.10149562500000187,
          "durationTicks": 76,
          "midi": 50,
          "name": "D3",
          "ticks": 18917,
          "time": 25.263062343749997,
          "velocity": 0.5118110236220472
        },
        {
          "duration": 0.1562498437500004,
          "durationTicks": 117,
          "midi": 77,
          "name": "F5",
          "ticks": 18922,
          "time": 25.269739687499996,
          "velocity": 0.5590551181102362
        },
        {
          "duration": 0.15892078124999998,
          "durationTicks": 119,
          "midi": 57,
          "name": "A3",
          "ticks": 19032,
          "time": 25.416641249999998,
          "velocity": 0.3779527559055118
        },
        {
          "duration": 0.3218479687499993,
          "durationTicks": 241,
          "midi": 69,
          "name": "A4",
          "ticks": 19163,
          "time": 25.59158765625,
          "velocity": 0.4015748031496063
        },
        {
          "duration": 0.4647431250000018,
          "durationTicks": 348,
          "midi": 53,
          "name": "F3",
          "ticks": 19166,
          "time": 25.5955940625,
          "velocity": 0.5984251968503937
        },
        {
          "duration": 0.07077984374999957,
          "durationTicks": 53,
          "midi": 57,
          "name": "A3",
          "ticks": 19307,
          "time": 25.783895156249997,
          "velocity": 0.3779527559055118
        },
        {
          "duration": 0.36458296874999974,
          "durationTicks": 273,
          "midi": 67,
          "name": "G4",
          "ticks": 19416,
          "time": 25.929461249999996,
          "velocity": 0.6220472440944882
        },
        {
          "duration": 0.19764937500000102,
          "durationTicks": 148,
          "midi": 58,
          "name": "A#3",
          "ticks": 19429,
          "time": 25.946822343749997,
          "velocity": 0.4409448818897638
        },
        {
          "duration": 0.19631390625000122,
          "durationTicks": 147,
          "midi": 76,
          "name": "E5",
          "ticks": 19675,
          "time": 26.275347656249995,
          "velocity": 0.5984251968503937
        },
        {
          "duration": 0.3271898437499985,
          "durationTicks": 245,
          "midi": 46,
          "name": "A#2",
          "ticks": 19681,
          "time": 26.283360468749997,
          "velocity": 0.41732283464566927
        },
        {
          "duration": 0.19497843750000143,
          "durationTicks": 146,
          "midi": 74,
          "name": "D5",
          "ticks": 19786,
          "time": 26.423584687499996,
          "velocity": 0.6299212598425197
        },
        {
          "duration": 0.20432671874999997,
          "durationTicks": 153,
          "midi": 77,
          "name": "F5",
          "ticks": 19920,
          "time": 26.602537499999997,
          "velocity": 0.6614173228346457
        },
        {
          "duration": 0.3138351562500006,
          "durationTicks": 235,
          "midi": 45,
          "name": "A2",
          "ticks": 19920,
          "time": 26.602537499999997,
          "velocity": 0.4645669291338583
        },
        {
          "duration": 0.17361093750000123,
          "durationTicks": 130,
          "midi": 76,
          "name": "E5",
          "ticks": 20043,
          "time": 26.766800156249996,
          "velocity": 0.5590551181102362
        },
        {
          "duration": 0.12553406250000165,
          "durationTicks": 94,
          "midi": 74,
          "name": "D5",
          "ticks": 20155,
          "time": 26.916372656249997,
          "velocity": 0.6141732283464567
        },
        {
          "duration": 0.27243562499999996,
          "durationTicks": 204,
          "midi": 46,
          "name": "A#2",
          "ticks": 20159,
          "time": 26.921714531249997,
          "velocity": 0.4330708661417323
        },
        {
          "duration": 0.1482370312499981,
          "durationTicks": 111,
          "midi": 72,
          "name": "C5",
          "ticks": 20257,
          "time": 27.052590468749997,
          "velocity": 0.5590551181102362
        },
        {
          "duration": 0.04540593749999644,
          "durationTicks": 34,
          "midi": 52,
          "name": "E3",
          "ticks": 20388,
          "time": 27.227536875,
          "velocity": 0.5984251968503937
        },
        {
          "duration": 0.14556609374999852,
          "durationTicks": 109,
          "midi": 79,
          "name": "G5",
          "ticks": 20394,
          "time": 27.235549687499997,
          "velocity": 0.6535433070866141
        },
        {
          "duration": 0.1495724999999979,
          "durationTicks": 112,
          "midi": 58,
          "name": "A#3",
          "ticks": 20496,
          "time": 27.371767499999997,
          "velocity": 0.4330708661417323
        },
        {
          "duration": 0.3752667187500016,
          "durationTicks": 281,
          "midi": 70,
          "name": "A#4",
          "ticks": 20623,
          "time": 27.541372031249995,
          "velocity": 0.4881889763779528
        },
        {
          "duration": 0.4033115625000008,
          "durationTicks": 302,
          "midi": 55,
          "name": "G3",
          "ticks": 20626,
          "time": 27.545378437499995,
          "velocity": 0.5826771653543307
        },
        {
          "duration": 0.06410250000000062,
          "durationTicks": 48,
          "midi": 58,
          "name": "A#3",
          "ticks": 20747,
          "time": 27.706970156249998,
          "velocity": 0.41732283464566927
        },
        {
          "duration": 0.31650609375000016,
          "durationTicks": 237,
          "midi": 69,
          "name": "A4",
          "ticks": 20889,
          "time": 27.896606718749997,
          "velocity": 0.49606299212598426
        },
        {
          "duration": 0.05608968750000187,
          "durationTicks": 42,
          "midi": 60,
          "name": "C4",
          "ticks": 20900,
          "time": 27.911296874999998,
          "velocity": 0.5275590551181102
        },
        {
          "duration": 0.16559812499999893,
          "durationTicks": 124,
          "midi": 77,
          "name": "F5",
          "ticks": 21141,
          "time": 28.233144843749997,
          "velocity": 0.5669291338582677
        },
        {
          "duration": 0.14423062499999872,
          "durationTicks": 108,
          "midi": 45,
          "name": "A2",
          "ticks": 21149,
          "time": 28.24382859375,
          "velocity": 0.49606299212598426
        },
        {
          "duration": 0.15892078125000353,
          "durationTicks": 119,
          "midi": 79,
          "name": "G5",
          "ticks": 21249,
          "time": 28.377375468749996,
          "velocity": 0.6614173228346457
        },
        {
          "duration": 0.14823703125000165,
          "durationTicks": 111,
          "midi": 46,
          "name": "A#2",
          "ticks": 21257,
          "time": 28.388059218749998,
          "velocity": 0.4881889763779528
        },
        {
          "duration": 0.11217937499999664,
          "durationTicks": 84,
          "midi": 48,
          "name": "C3",
          "ticks": 21379,
          "time": 28.550986406249997,
          "velocity": 0.5511811023622047
        },
        {
          "duration": 0.1615917187500031,
          "durationTicks": 121,
          "midi": 76,
          "name": "E5",
          "ticks": 21385,
          "time": 28.558999218749996,
          "velocity": 0.5196850393700787
        },
        {
          "duration": 0.16025624999999977,
          "durationTicks": 120,
          "midi": 77,
          "name": "F5",
          "ticks": 21502,
          "time": 28.715249062499996,
          "velocity": 0.5826771653543307
        },
        {
          "duration": 0.12152765624999873,
          "durationTicks": 91,
          "midi": 48,
          "name": "C3",
          "ticks": 21603,
          "time": 28.850131406249997,
          "velocity": 0.41732283464566927
        },
        {
          "duration": 0.09615374999999915,
          "durationTicks": 72,
          "midi": 52,
          "name": "E3",
          "ticks": 21619,
          "time": 28.871498906249997,
          "velocity": 0.5275590551181102
        },
        {
          "duration": 0.1188567187500027,
          "durationTicks": 89,
          "midi": 79,
          "name": "G5",
          "ticks": 21627,
          "time": 28.882182656249995,
          "velocity": 0.6377952755905512
        },
        {
          "duration": 0.060096093750001245,
          "durationTicks": 45,
          "midi": 53,
          "name": "F3",
          "ticks": 21731,
          "time": 29.021071406249998,
          "velocity": 0.6377952755905512
        },
        {
          "duration": 0.15224343750000102,
          "durationTicks": 114,
          "midi": 81,
          "name": "A5",
          "ticks": 21745,
          "time": 29.039767968749995,
          "velocity": 0.5275590551181102
        },
        {
          "duration": 0.1428951562500025,
          "durationTicks": 107,
          "midi": 55,
          "name": "G3",
          "ticks": 21853,
          "time": 29.183998593749994,
          "velocity": 0.5748031496062992
        },
        {
          "duration": 0.1776173437500006,
          "durationTicks": 133,
          "midi": 82,
          "name": "A#5",
          "ticks": 21859,
          "time": 29.192011406249996,
          "velocity": 0.5433070866141733
        },
        {
          "duration": 0.14823703125000165,
          "durationTicks": 111,
          "midi": 48,
          "name": "C3",
          "ticks": 21862,
          "time": 29.196017812499996,
          "velocity": 0.48031496062992124
        },
        {
          "duration": 0.07211531249999936,
          "durationTicks": 54,
          "midi": 53,
          "name": "F3",
          "ticks": 21956,
          "time": 29.321551874999997,
          "velocity": 0.6614173228346457
        },
        {
          "duration": 0.08547000000000082,
          "durationTicks": 64,
          "midi": 81,
          "name": "A5",
          "ticks": 21973,
          "time": 29.344254843749997,
          "velocity": 0.5275590551181102
        },
        {
          "duration": 0.14556609375000207,
          "durationTicks": 109,
          "midi": 79,
          "name": "G5",
          "ticks": 22087,
          "time": 29.496498281249995,
          "velocity": 0.6299212598425197
        },
        {
          "duration": 0.16693359374999872,
          "durationTicks": 125,
          "midi": 48,
          "name": "C3",
          "ticks": 22091,
          "time": 29.501840156249997,
          "velocity": 0.4330708661417323
        },
        {
          "duration": 0.06944437499999978,
          "durationTicks": 52,
          "midi": 52,
          "name": "E3",
          "ticks": 22096,
          "time": 29.508517499999996,
          "velocity": 0.5275590551181102
        },
        {
          "duration": 0.18028828125000018,
          "durationTicks": 135,
          "midi": 82,
          "name": "A#5",
          "ticks": 22190,
          "time": 29.634051562499998,
          "velocity": 0.5275590551181102
        },
        {
          "duration": 0.04139953125000062,
          "durationTicks": 31,
          "midi": 55,
          "name": "G3",
          "ticks": 22196,
          "time": 29.642064374999997,
          "velocity": 0.5748031496062992
        },
        {
          "duration": 0.18563015624999935,
          "durationTicks": 139,
          "midi": 81,
          "name": "A5",
          "ticks": 22313,
          "time": 29.798314218749997,
          "velocity": 0.6220472440944882
        },
        {
          "duration": 0.47676234374999993,
          "durationTicks": 357,
          "midi": 53,
          "name": "F3",
          "ticks": 22321,
          "time": 29.808997968749996,
          "velocity": 0.7716535433070866
        },
        {
          "duration": 0.11084390624999685,
          "durationTicks": 83,
          "midi": 48,
          "name": "C3",
          "ticks": 22325,
          "time": 29.81433984375,
          "velocity": 0.6299212598425197
        },
        {
          "duration": 0.13755328124999977,
          "durationTicks": 103,
          "midi": 46,
          "name": "A#2",
          "ticks": 22422,
          "time": 29.943880312499996,
          "velocity": 0.5118110236220472
        },
        {
          "duration": 0.1562498437500004,
          "durationTicks": 117,
          "midi": 79,
          "name": "G5",
          "ticks": 22435,
          "time": 29.961241406249997,
          "velocity": 0.6141732283464567
        },
        {
          "duration": 0.12419859375000186,
          "durationTicks": 93,
          "midi": 45,
          "name": "A2",
          "ticks": 22549,
          "time": 30.113484843749994,
          "velocity": 0.4881889763779528
        },
        {
          "duration": 0.1482370312499981,
          "durationTicks": 111,
          "midi": 77,
          "name": "F5",
          "ticks": 22558,
          "time": 30.125504062499996,
          "velocity": 0.5905511811023622
        },
        {
          "duration": 0.14155968749999914,
          "durationTicks": 106,
          "midi": 46,
          "name": "A#2",
          "ticks": 22653,
          "time": 30.252373593749997,
          "velocity": 0.49606299212598426
        },
        {
          "duration": 0.15224343750000102,
          "durationTicks": 114,
          "midi": 79,
          "name": "G5",
          "ticks": 22659,
          "time": 30.260386406249996,
          "velocity": 0.7007874015748031
        },
        {
          "duration": 0.10817296875000082,
          "durationTicks": 81,
          "midi": 48,
          "name": "C3",
          "ticks": 22790,
          "time": 30.435332812499997,
          "velocity": 0.6141732283464567
        },
        {
          "duration": 0.14823703125000165,
          "durationTicks": 111,
          "midi": 76,
          "name": "E5",
          "ticks": 22793,
          "time": 30.439339218749996,
          "velocity": 0.4409448818897638
        },
        {
          "duration": 0.0520832812500025,
          "durationTicks": 39,
          "midi": 77,
          "name": "F5",
          "ticks": 22822,
          "time": 30.478067812499994,
          "velocity": 0.1732283464566929
        },
        {
          "duration": 0.1562498437500004,
          "durationTicks": 117,
          "midi": 77,
          "name": "F5",
          "ticks": 22910,
          "time": 30.595589062499997,
          "velocity": 0.7086614173228346
        },
        {
          "duration": 0.16159171874999956,
          "durationTicks": 121,
          "midi": 79,
          "name": "G5",
          "ticks": 23031,
          "time": 30.757180781249996,
          "velocity": 0.7165354330708661
        },
        {
          "duration": 0.11217937500000019,
          "durationTicks": 84,
          "midi": 48,
          "name": "C3",
          "ticks": 23031,
          "time": 30.757180781249996,
          "velocity": 0.4645669291338583
        },
        {
          "duration": 0.10016015624999852,
          "durationTicks": 75,
          "midi": 52,
          "name": "E3",
          "ticks": 23046,
          "time": 30.777212812499997,
          "velocity": 0.3937007874015748
        },
        {
          "duration": 0.08947640625000375,
          "durationTicks": 67,
          "midi": 53,
          "name": "F3",
          "ticks": 23140,
          "time": 30.902746874999995,
          "velocity": 0.6771653543307087
        },
        {
          "duration": 0.16426265624999914,
          "durationTicks": 123,
          "midi": 81,
          "name": "A5",
          "ticks": 23146,
          "time": 30.910759687499997,
          "velocity": 0.6377952755905512
        },
        {
          "duration": 0.17761734375000415,
          "durationTicks": 133,
          "midi": 82,
          "name": "A#5",
          "ticks": 23263,
          "time": 31.067009531249994,
          "velocity": 0.5748031496062992
        },
        {
          "duration": 0.10016015624999852,
          "durationTicks": 75,
          "midi": 48,
          "name": "C3",
          "ticks": 23269,
          "time": 31.075022343749996,
          "velocity": 0.4881889763779528
        },
        {
          "duration": 0.09615374999999915,
          "durationTicks": 72,
          "midi": 55,
          "name": "G3",
          "ticks": 23272,
          "time": 31.079028749999996,
          "velocity": 0.49606299212598426
        },
        {
          "duration": 0.05341875000000229,
          "durationTicks": 40,
          "midi": 53,
          "name": "F3",
          "ticks": 23377,
          "time": 31.219252968749995,
          "velocity": 0.6692913385826772
        },
        {
          "duration": 0.12954046875000458,
          "durationTicks": 97,
          "midi": 81,
          "name": "A5",
          "ticks": 23377,
          "time": 31.219252968749995,
          "velocity": 0.5905511811023622
        },
        {
          "duration": 0.14022421874999935,
          "durationTicks": 105,
          "midi": 79,
          "name": "G5",
          "ticks": 23492,
          "time": 31.372831875,
          "velocity": 0.6377952755905512
        },
        {
          "duration": 0.15224343749999747,
          "durationTicks": 114,
          "midi": 48,
          "name": "C3",
          "ticks": 23495,
          "time": 31.37683828125,
          "velocity": 0.33858267716535434
        },
        {
          "duration": 0.06276703124999727,
          "durationTicks": 47,
          "midi": 52,
          "name": "E3",
          "ticks": 23495,
          "time": 31.37683828125,
          "velocity": 0.5354330708661418
        },
        {
          "duration": 0.14155968749999914,
          "durationTicks": 106,
          "midi": 82,
          "name": "A#5",
          "ticks": 23589,
          "time": 31.502372343749997,
          "velocity": 0.5590551181102362
        },
        {
          "duration": 0.04139953125000062,
          "durationTicks": 31,
          "midi": 53,
          "name": "F3",
          "ticks": 23708,
          "time": 31.661293124999997,
          "velocity": 0.8346456692913385
        },
        {
          "duration": 0.03605765625000146,
          "durationTicks": 27,
          "midi": 41,
          "name": "F2",
          "ticks": 23712,
          "time": 31.666634999999996,
          "velocity": 0.7165354330708661
        },
        {
          "duration": 0.19764937499999746,
          "durationTicks": 148,
          "midi": 81,
          "name": "A5",
          "ticks": 23720,
          "time": 31.677318749999998,
          "velocity": 0.5905511811023622
        },
        {
          "duration": 0.16559812500000248,
          "durationTicks": 124,
          "midi": 57,
          "name": "A3",
          "ticks": 23836,
          "time": 31.832233124999995,
          "velocity": 0.6535433070866141
        },
        {
          "duration": 0.18295921874999976,
          "durationTicks": 137,
          "midi": 82,
          "name": "A#5",
          "ticks": 23839,
          "time": 31.836239531249994,
          "velocity": 0.5433070866141733
        },
        {
          "duration": 0.17494640624999747,
          "durationTicks": 131,
          "midi": 58,
          "name": "A#3",
          "ticks": 23939,
          "time": 31.969786406249998,
          "velocity": 0.5433070866141733
        },
        {
          "duration": 0.14957250000000144,
          "durationTicks": 112,
          "midi": 81,
          "name": "A5",
          "ticks": 23945,
          "time": 31.977799218749997,
          "velocity": 0.4251968503937008
        },
        {
          "duration": 0.17094000000000165,
          "durationTicks": 128,
          "midi": 79,
          "name": "G5",
          "ticks": 24052,
          "time": 32.12069437499999,
          "velocity": 0.6771653543307087
        },
        {
          "duration": 0.15624984375000395,
          "durationTicks": 117,
          "midi": 60,
          "name": "C4",
          "ticks": 24052,
          "time": 32.12069437499999,
          "velocity": 0.5669291338582677
        },
        {
          "duration": 0.18563015624999935,
          "durationTicks": 139,
          "midi": 78,
          "name": "F#5",
          "ticks": 24177,
          "time": 32.287627968749995,
          "velocity": 0.6377952755905512
        },
        {
          "duration": 0.12286312500000207,
          "durationTicks": 92,
          "midi": 62,
          "name": "D4",
          "ticks": 24180,
          "time": 32.291634374999994,
          "velocity": 0.6771653543307087
        },
        {
          "duration": 0.2069976562500031,
          "durationTicks": 155,
          "midi": 79,
          "name": "G5",
          "ticks": 24297,
          "time": 32.44788421875,
          "velocity": 0.6929133858267716
        },
        {
          "duration": 0.05475421874999853,
          "durationTicks": 41,
          "midi": 54,
          "name": "F#3",
          "ticks": 24428,
          "time": 32.622830625,
          "velocity": 0.5275590551181102
        },
        {
          "duration": 0.08279906250000124,
          "durationTicks": 62,
          "midi": 62,
          "name": "D4",
          "ticks": 24433,
          "time": 32.62950796875,
          "velocity": 0.4881889763779528
        },
        {
          "duration": 0.16693359374999517,
          "durationTicks": 125,
          "midi": 81,
          "name": "A5",
          "ticks": 24433,
          "time": 32.62950796875,
          "velocity": 0.5590551181102362
        },
        {
          "duration": 0.18162374999999997,
          "durationTicks": 136,
          "midi": 82,
          "name": "A#5",
          "ticks": 24536,
          "time": 32.76706125,
          "velocity": 0.5433070866141733
        },
        {
          "duration": 0.06677343750000375,
          "durationTicks": 50,
          "midi": 55,
          "name": "G3",
          "ticks": 24536,
          "time": 32.76706125,
          "velocity": 0.3700787401574803
        },
        {
          "duration": 0.16559812500000248,
          "durationTicks": 124,
          "midi": 84,
          "name": "C6",
          "ticks": 24665,
          "time": 32.93933671874999,
          "velocity": 0.5984251968503937
        },
        {
          "duration": 0.08547000000000082,
          "durationTicks": 64,
          "midi": 62,
          "name": "D4",
          "ticks": 24681,
          "time": 32.960704218749996,
          "velocity": 0.41732283464566927
        },
        {
          "duration": 0.06810890624999644,
          "durationTicks": 51,
          "midi": 57,
          "name": "A3",
          "ticks": 24694,
          "time": 32.9780653125,
          "velocity": 0.30708661417322836
        },
        {
          "duration": 0.07211531250000291,
          "durationTicks": 54,
          "midi": 55,
          "name": "G3",
          "ticks": 24767,
          "time": 33.07555453124999,
          "velocity": 0.3700787401574803
        },
        {
          "duration": 0.14289515624999893,
          "durationTicks": 107,
          "midi": 82,
          "name": "A#5",
          "ticks": 24778,
          "time": 33.0902446875,
          "velocity": 0.4881889763779528
        },
        {
          "duration": 0.10683749999999748,
          "durationTicks": 80,
          "midi": 54,
          "name": "F#3",
          "ticks": 24885,
          "time": 33.233139843749996,
          "velocity": 0.48031496062992124
        },
        {
          "duration": 0.12686953124999434,
          "durationTicks": 95,
          "midi": 62,
          "name": "D4",
          "ticks": 24895,
          "time": 33.24649453125,
          "velocity": 0.4094488188976378
        },
        {
          "duration": 0.1482370312499981,
          "durationTicks": 111,
          "midi": 81,
          "name": "A5",
          "ticks": 24895,
          "time": 33.24649453125,
          "velocity": 0.5748031496062992
        },
        {
          "duration": 0.06410249999999706,
          "durationTicks": 48,
          "midi": 57,
          "name": "A3",
          "ticks": 25006,
          "time": 33.3947315625,
          "velocity": 0.36220472440944884
        },
        {
          "duration": 0.15090796875000478,
          "durationTicks": 113,
          "midi": 84,
          "name": "C6",
          "ticks": 25013,
          "time": 33.40407984375,
          "velocity": 0.5826771653543307
        },
        {
          "duration": 0.1789528125000004,
          "durationTicks": 134,
          "midi": 82,
          "name": "A#5",
          "ticks": 25121,
          "time": 33.548310468749996,
          "velocity": 0.5590551181102362
        },
        {
          "duration": 0.2230232812499935,
          "durationTicks": 167,
          "midi": 55,
          "name": "G3",
          "ticks": 25126,
          "time": 33.5549878125,
          "velocity": 0.5275590551181102
        },
        {
          "duration": 0.15758531249998953,
          "durationTicks": 118,
          "midi": 62,
          "name": "D4",
          "ticks": 25126,
          "time": 33.5549878125,
          "velocity": 0.5196850393700787
        },
        {
          "duration": 0.14423062499999872,
          "durationTicks": 108,
          "midi": 81,
          "name": "A5",
          "ticks": 25238,
          "time": 33.70456031249999,
          "velocity": 0.5354330708661418
        },
        {
          "duration": 0.14155968750000625,
          "durationTicks": 106,
          "midi": 60,
          "name": "C4",
          "ticks": 25244,
          "time": 33.71257312499999,
          "velocity": 0.5826771653543307
        },
        {
          "duration": 0.17093999999999454,
          "durationTicks": 128,
          "midi": 58,
          "name": "A#3",
          "ticks": 25350,
          "time": 33.8541328125,
          "velocity": 0.5433070866141733
        },
        {
          "duration": 0.15224343749999747,
          "durationTicks": 114,
          "midi": 79,
          "name": "G5",
          "ticks": 25350,
          "time": 33.8541328125,
          "velocity": 0.6141732283464567
        },
        {
          "duration": 0.1762818750000008,
          "durationTicks": 132,
          "midi": 81,
          "name": "A5",
          "ticks": 25460,
          "time": 34.001034374999996,
          "velocity": 0.6062992125984252
        },
        {
          "duration": 0.11084390624999685,
          "durationTicks": 83,
          "midi": 60,
          "name": "C4",
          "ticks": 25464,
          "time": 34.006376249999995,
          "velocity": 0.6141732283464567
        },
        {
          "duration": 0.09748921875000605,
          "durationTicks": 73,
          "midi": 62,
          "name": "D4",
          "ticks": 25583,
          "time": 34.16529703124999,
          "velocity": 0.6535433070866141
        },
        {
          "duration": 0.149572500000005,
          "durationTicks": 112,
          "midi": 78,
          "name": "F#5",
          "ticks": 25586,
          "time": 34.16930343749999,
          "velocity": 0.6141732283464567
        },
        {
          "duration": 0.18963656249999872,
          "durationTicks": 142,
          "midi": 79,
          "name": "G5",
          "ticks": 25690,
          "time": 34.3081921875,
          "velocity": 0.7007874015748031
        },
        {
          "duration": 0.06543796875000396,
          "durationTicks": 49,
          "midi": 54,
          "name": "F#3",
          "ticks": 25815,
          "time": 34.47512578124999,
          "velocity": 0.5826771653543307
        },
        {
          "duration": 0.07879265625000187,
          "durationTicks": 59,
          "midi": 62,
          "name": "D4",
          "ticks": 25815,
          "time": 34.47512578124999,
          "velocity": 0.5590551181102362
        },
        {
          "duration": 0.17094000000000875,
          "durationTicks": 128,
          "midi": 81,
          "name": "A5",
          "ticks": 25823,
          "time": 34.48580953124999,
          "velocity": 0.6141732283464567
        },
        {
          "duration": 0.07077984374999602,
          "durationTicks": 53,
          "midi": 55,
          "name": "G3",
          "ticks": 25920,
          "time": 34.61535,
          "velocity": 0.5275590551181102
        },
        {
          "duration": 0.17494640625000102,
          "durationTicks": 131,
          "midi": 82,
          "name": "A#5",
          "ticks": 25938,
          "time": 34.639388437499996,
          "velocity": 0.4881889763779528
        },
        {
          "duration": 0.17093999999999454,
          "durationTicks": 128,
          "midi": 84,
          "name": "C6",
          "ticks": 26055,
          "time": 34.79563828125,
          "velocity": 0.6535433070866141
        },
        {
          "duration": 0.1335468750000004,
          "durationTicks": 100,
          "midi": 57,
          "name": "A3",
          "ticks": 26055,
          "time": 34.79563828125,
          "velocity": 0.5039370078740157
        },
        {
          "duration": 0.11351484374999643,
          "durationTicks": 85,
          "midi": 62,
          "name": "D4",
          "ticks": 26058,
          "time": 34.7996446875,
          "velocity": 0.5669291338582677
        },
        {
          "duration": 0.14289515624999893,
          "durationTicks": 107,
          "midi": 55,
          "name": "G3",
          "ticks": 26143,
          "time": 34.913159531249995,
          "velocity": 0.5196850393700787
        },
        {
          "duration": 0.13755328125000688,
          "durationTicks": 103,
          "midi": 82,
          "name": "A#5",
          "ticks": 26168,
          "time": 34.94654624999999,
          "velocity": 0.41732283464566927
        },
        {
          "duration": 0.08012812500000166,
          "durationTicks": 60,
          "midi": 54,
          "name": "F#3",
          "ticks": 26275,
          "time": 35.089441406249996,
          "velocity": 0.5354330708661418
        },
        {
          "duration": 0.0734507812499956,
          "durationTicks": 55,
          "midi": 62,
          "name": "D4",
          "ticks": 26275,
          "time": 35.089441406249996,
          "velocity": 0.5039370078740157
        },
        {
          "duration": 0.1188567187499956,
          "durationTicks": 89,
          "midi": 81,
          "name": "A5",
          "ticks": 26280,
          "time": 35.096118749999995,
          "velocity": 0.5433070866141733
        },
        {
          "duration": 0.11351484375000354,
          "durationTicks": 85,
          "midi": 84,
          "name": "C6",
          "ticks": 26385,
          "time": 35.236342968749994,
          "velocity": 0.5275590551181102
        },
        {
          "duration": 0.06677343750000375,
          "durationTicks": 50,
          "midi": 57,
          "name": "A3",
          "ticks": 26394,
          "time": 35.24836218749999,
          "velocity": 0.36220472440944884
        },
        {
          "duration": 0.16559812499999538,
          "durationTicks": 124,
          "midi": 82,
          "name": "A#5",
          "ticks": 26506,
          "time": 35.3979346875,
          "velocity": 0.4645669291338583
        },
        {
          "duration": 0.049412343749999366,
          "durationTicks": 37,
          "midi": 62,
          "name": "D4",
          "ticks": 26514,
          "time": 35.408618437499996,
          "velocity": 0.4566929133858268
        },
        {
          "duration": 0.049412343749999366,
          "durationTicks": 37,
          "midi": 55,
          "name": "G3",
          "ticks": 26522,
          "time": 35.419302187499994,
          "velocity": 0.4881889763779528
        },
        {
          "duration": 0.15758531249999663,
          "durationTicks": 118,
          "midi": 81,
          "name": "A5",
          "ticks": 26614,
          "time": 35.542165312499996,
          "velocity": 0.4566929133858268
        },
        {
          "duration": 0.18028828125000018,
          "durationTicks": 135,
          "midi": 79,
          "name": "G5",
          "ticks": 26739,
          "time": 35.70909890625,
          "velocity": 0.5039370078740157
        },
        {
          "duration": 0.2644228125000012,
          "durationTicks": 198,
          "midi": 50,
          "name": "D3",
          "ticks": 26745,
          "time": 35.71711171875,
          "velocity": 0.5275590551181102
        },
        {
          "duration": 0.1322114062499935,
          "durationTicks": 99,
          "midi": 77,
          "name": "F5",
          "ticks": 26860,
          "time": 35.870690625,
          "velocity": 0.41732283464566927
        },
        {
          "duration": 0.27644203124999933,
          "durationTicks": 207,
          "midi": 48,
          "name": "C3",
          "ticks": 26973,
          "time": 36.02159859375,
          "velocity": 0.4409448818897638
        },
        {
          "duration": 0.1482370312499981,
          "durationTicks": 111,
          "midi": 75,
          "name": "D#5",
          "ticks": 26982,
          "time": 36.0336178125,
          "velocity": 0.4645669291338583
        },
        {
          "duration": 0.14289515624999893,
          "durationTicks": 107,
          "midi": 77,
          "name": "F5",
          "ticks": 27093,
          "time": 36.181854843749996,
          "velocity": 0.5196850393700787
        },
        {
          "duration": 0.0894764062500073,
          "durationTicks": 67,
          "midi": 79,
          "name": "G5",
          "ticks": 27221,
          "time": 36.35279484374999,
          "velocity": 0.5905511811023622
        },
        {
          "duration": 0.21634593750000164,
          "durationTicks": 162,
          "midi": 50,
          "name": "D3",
          "ticks": 27221,
          "time": 36.35279484374999,
          "velocity": 0.4251968503937008
        },
        {
          "duration": 0.1642626562500027,
          "durationTicks": 123,
          "midi": 81,
          "name": "A5",
          "ticks": 27344,
          "time": 36.51705749999999,
          "velocity": 0.49606299212598426
        },
        {
          "duration": 0.24439078124999725,
          "durationTicks": 183,
          "midi": 43,
          "name": "G2",
          "ticks": 27456,
          "time": 36.66663,
          "velocity": 0.3464566929133858
        },
        {
          "duration": 0.15758531249999663,
          "durationTicks": 118,
          "midi": 82,
          "name": "A#5",
          "ticks": 27463,
          "time": 36.675978281249996,
          "velocity": 0.44881889763779526
        },
        {
          "duration": 0.06543796875000396,
          "durationTicks": 49,
          "midi": 81,
          "name": "A5",
          "ticks": 27590,
          "time": 36.84558281249999,
          "velocity": 0.44881889763779526
        },
        {
          "duration": 0.2697646875000004,
          "durationTicks": 202,
          "midi": 51,
          "name": "D#3",
          "ticks": 27693,
          "time": 36.98313609375,
          "velocity": 0.4251968503937008
        },
        {
          "duration": 0.0894764062500002,
          "durationTicks": 67,
          "midi": 79,
          "name": "G5",
          "ticks": 27698,
          "time": 36.9898134375,
          "velocity": 0.49606299212598426
        },
        {
          "duration": 0.1642626562499956,
          "durationTicks": 123,
          "midi": 82,
          "name": "A#5",
          "ticks": 27806,
          "time": 37.134044062499996,
          "velocity": 0.4094488188976378
        },
        {
          "duration": 0.15491437500000416,
          "durationTicks": 116,
          "midi": 53,
          "name": "F3",
          "ticks": 27924,
          "time": 37.29162937499999,
          "velocity": 0.6614173228346457
        },
        {
          "duration": 0.14155968749999914,
          "durationTicks": 106,
          "midi": 81,
          "name": "A5",
          "ticks": 27934,
          "time": 37.3049840625,
          "velocity": 0.44881889763779526
        },
        {
          "duration": 0.15090796874999768,
          "durationTicks": 113,
          "midi": 79,
          "name": "G5",
          "ticks": 28048,
          "time": 37.457227499999995,
          "velocity": 0.5669291338582677
        },
        {
          "duration": 0.1776173437500077,
          "durationTicks": 133,
          "midi": 77,
          "name": "F5",
          "ticks": 28161,
          "time": 37.60813546874999,
          "velocity": 0.49606299212598426
        },
        {
          "duration": 0.3071578125000016,
          "durationTicks": 230,
          "midi": 48,
          "name": "C3",
          "ticks": 28161,
          "time": 37.60813546874999,
          "velocity": 0.44881889763779526
        },
        {
          "duration": 0.17093999999999454,
          "durationTicks": 128,
          "midi": 75,
          "name": "D#5",
          "ticks": 28269,
          "time": 37.75236609375,
          "velocity": 0.5039370078740157
        },
        {
          "duration": 0.31917703125000685,
          "durationTicks": 239,
          "midi": 46,
          "name": "A#2",
          "ticks": 28394,
          "time": 37.91929968749999,
          "velocity": 0.48031496062992124
        },
        {
          "duration": 0.14423062499999872,
          "durationTicks": 108,
          "midi": 74,
          "name": "D5",
          "ticks": 28400,
          "time": 37.92731249999999,
          "velocity": 0.6220472440944882
        },
        {
          "duration": 0.15491437500000416,
          "durationTicks": 116,
          "midi": 75,
          "name": "D#5",
          "ticks": 28517,
          "time": 38.083562343749996,
          "velocity": 0.5354330708661418
        },
        {
          "duration": 0.1469015624999983,
          "durationTicks": 110,
          "midi": 77,
          "name": "F5",
          "ticks": 28633,
          "time": 38.23847671875,
          "velocity": 0.5984251968503937
        },
        {
          "duration": 0.3298607812500052,
          "durationTicks": 247,
          "midi": 48,
          "name": "C3",
          "ticks": 28640,
          "time": 38.24782499999999,
          "velocity": 0.4330708661417323
        },
        {
          "duration": 0.16960453125000186,
          "durationTicks": 127,
          "midi": 79,
          "name": "G5",
          "ticks": 28746,
          "time": 38.3893846875,
          "velocity": 0.6850393700787402
        },
        {
          "duration": 0.16826906249999496,
          "durationTicks": 126,
          "midi": 81,
          "name": "A5",
          "ticks": 28873,
          "time": 38.55898921875,
          "velocity": 0.5748031496062992
        },
        {
          "duration": 0.18696562499999914,
          "durationTicks": 140,
          "midi": 41,
          "name": "F2",
          "ticks": 28887,
          "time": 38.57768578125,
          "velocity": 0.5118110236220472
        },
        {
          "duration": 0.16292718750001,
          "durationTicks": 122,
          "midi": 79,
          "name": "G5",
          "ticks": 28988,
          "time": 38.71256812499999,
          "velocity": 0.6141732283464567
        },
        {
          "duration": 0.12954046874999392,
          "durationTicks": 97,
          "midi": 77,
          "name": "F5",
          "ticks": 29116,
          "time": 38.883508125,
          "velocity": 0.41732283464566927
        },
        {
          "duration": 0.2817839062499985,
          "durationTicks": 211,
          "midi": 50,
          "name": "D3",
          "ticks": 29122,
          "time": 38.8915209375,
          "velocity": 0.4409448818897638
        },
        {
          "duration": 0.12286312500000207,
          "durationTicks": 92,
          "midi": 81,
          "name": "A5",
          "ticks": 29230,
          "time": 39.035751562499996,
          "velocity": 0.3937007874015748
        },
        {
          "duration": 0.206997656249996,
          "durationTicks": 155,
          "midi": 51,
          "name": "D#3",
          "ticks": 29350,
          "time": 39.1960078125,
          "velocity": 0.44881889763779526
        },
        {
          "duration": 0.08680546874999351,
          "durationTicks": 65,
          "midi": 79,
          "name": "G5",
          "ticks": 29358,
          "time": 39.2066915625,
          "velocity": 0.48031496062992124
        },
        {
          "duration": 0.149572500000005,
          "durationTicks": 112,
          "midi": 77,
          "name": "F5",
          "ticks": 29469,
          "time": 39.354928593749996,
          "velocity": 0.3228346456692913
        },
        {
          "duration": 0.15224343749999747,
          "durationTicks": 114,
          "midi": 75,
          "name": "D#5",
          "ticks": 29573,
          "time": 39.493817343749996,
          "velocity": 0.3937007874015748
        },
        {
          "duration": 0.2831193749999912,
          "durationTicks": 212,
          "midi": 46,
          "name": "A#2",
          "ticks": 29581,
          "time": 39.50450109375,
          "velocity": 0.3543307086614173
        },
        {
          "duration": 0.15892078125000353,
          "durationTicks": 119,
          "midi": 74,
          "name": "D5",
          "ticks": 29687,
          "time": 39.64606078124999,
          "velocity": 0.4409448818897638
        },
        {
          "duration": 0.34722187500000246,
          "durationTicks": 260,
          "midi": 45,
          "name": "A2",
          "ticks": 29806,
          "time": 39.8049815625,
          "velocity": 0.3464566929133858
        },
        {
          "duration": 0.10149562499999831,
          "durationTicks": 76,
          "midi": 72,
          "name": "C5",
          "ticks": 29809,
          "time": 39.808987968749996,
          "velocity": 0.4094488188976378
        },
        {
          "duration": 0.07211531249999581,
          "durationTicks": 54,
          "midi": 74,
          "name": "D5",
          "ticks": 29934,
          "time": 39.9759215625,
          "velocity": 0.4409448818897638
        },
        {
          "duration": 0.08947640624999309,
          "durationTicks": 67,
          "midi": 75,
          "name": "D#5",
          "ticks": 30055,
          "time": 40.13751328125,
          "velocity": 0.41732283464566927
        },
        {
          "duration": 0.25640999999999536,
          "durationTicks": 192,
          "midi": 46,
          "name": "A#2",
          "ticks": 30061,
          "time": 40.14552609375,
          "velocity": 0.31496062992125984
        },
        {
          "duration": 0.12019218749999538,
          "durationTicks": 90,
          "midi": 77,
          "name": "F5",
          "ticks": 30174,
          "time": 40.2964340625,
          "velocity": 0.4015748031496063
        },
        {
          "duration": 0.18696562499999914,
          "durationTicks": 140,
          "midi": 79,
          "name": "G5",
          "ticks": 30288,
          "time": 40.448677499999995,
          "velocity": 0.4330708661417323
        },
        {
          "duration": 0.19898484374999725,
          "durationTicks": 149,
          "midi": 39,
          "name": "D#2",
          "ticks": 30292,
          "time": 40.454019375,
          "velocity": 0.33070866141732286
        },
        {
          "duration": 0.12152765625000228,
          "durationTicks": 91,
          "midi": 78,
          "name": "F#5",
          "ticks": 30398,
          "time": 40.59557906249999,
          "velocity": 0.4251968503937008
        },
        {
          "duration": 0.13755328125000688,
          "durationTicks": 103,
          "midi": 76,
          "name": "E5",
          "ticks": 30515,
          "time": 40.75182890624999,
          "velocity": 0.3700787401574803
        },
        {
          "duration": 0.13755328124999977,
          "durationTicks": 103,
          "midi": 48,
          "name": "C3",
          "ticks": 30528,
          "time": 40.769189999999995,
          "velocity": 0.30708661417322836
        },
        {
          "duration": 0.08146359375000145,
          "durationTicks": 61,
          "midi": 79,
          "name": "G5",
          "ticks": 30631,
          "time": 40.906743281249994,
          "velocity": 0.4251968503937008
        },
        {
          "duration": 0.15624984374999684,
          "durationTicks": 117,
          "midi": 78,
          "name": "F#5",
          "ticks": 30756,
          "time": 41.073676875,
          "velocity": 0.3937007874015748
        },
        {
          "duration": 0.05341874999999874,
          "durationTicks": 40,
          "midi": 50,
          "name": "D3",
          "ticks": 30770,
          "time": 41.092373437499994,
          "velocity": 0.3937007874015748
        },
        {
          "duration": 0.1469015624999983,
          "durationTicks": 110,
          "midi": 76,
          "name": "E5",
          "ticks": 30877,
          "time": 41.23526859375,
          "velocity": 0.28346456692913385
        },
        {
          "duration": 0.1041665624999979,
          "durationTicks": 78,
          "midi": 74,
          "name": "D5",
          "ticks": 31024,
          "time": 41.4315825,
          "velocity": 0.30708661417322836
        },
        {
          "duration": 0.3258543749999987,
          "durationTicks": 244,
          "midi": 62,
          "name": "D4",
          "ticks": 31033,
          "time": 41.443601718749996,
          "velocity": 0.5039370078740157
        },
        {
          "duration": 0.15090796874999768,
          "durationTicks": 113,
          "midi": 72,
          "name": "C5",
          "ticks": 31147,
          "time": 41.59584515625,
          "velocity": 0.3464566929133858
        },
        {
          "duration": 0.16693359374999517,
          "durationTicks": 125,
          "midi": 70,
          "name": "A#4",
          "ticks": 31269,
          "time": 41.758772343749996,
          "velocity": 0.25196850393700787
        },
        {
          "duration": 0.30181593750000246,
          "durationTicks": 226,
          "midi": 63,
          "name": "D#4",
          "ticks": 31277,
          "time": 41.769456093749994,
          "velocity": 0.5196850393700787
        },
        {
          "duration": 0.14556609375000562,
          "durationTicks": 109,
          "midi": 69,
          "name": "A4",
          "ticks": 31394,
          "time": 41.92570593749999,
          "velocity": 0.33858267716535434
        },
        {
          "duration": 0.18830109374999893,
          "durationTicks": 141,
          "midi": 70,
          "name": "A#4",
          "ticks": 31526,
          "time": 42.10198781249999,
          "velocity": 0.3937007874015748
        },
        {
          "duration": 0.12286312499999497,
          "durationTicks": 92,
          "midi": 62,
          "name": "D4",
          "ticks": 31533,
          "time": 42.11133609375,
          "velocity": 0.33070866141732286
        },
        {
          "duration": 0.15892078125000353,
          "durationTicks": 119,
          "midi": 72,
          "name": "C5",
          "ticks": 31662,
          "time": 42.28361156249999,
          "velocity": 0.3464566929133858
        },
        {
          "duration": 0.2537390625000029,
          "durationTicks": 190,
          "midi": 67,
          "name": "G4",
          "ticks": 31781,
          "time": 42.442532343749996,
          "velocity": 0.4251968503937008
        },
        {
          "duration": 0.06410249999999706,
          "durationTicks": 48,
          "midi": 74,
          "name": "D5",
          "ticks": 31793,
          "time": 42.45855796874999,
          "velocity": 0.36220472440944884
        },
        {
          "duration": 0.07211531250000291,
          "durationTicks": 54,
          "midi": 55,
          "name": "G3",
          "ticks": 31923,
          "time": 42.632168906249994,
          "velocity": 0.3543307086614173
        },
        {
          "duration": 0.661057031250003,
          "durationTicks": 495,
          "midi": 79,
          "name": "G5",
          "ticks": 32022,
          "time": 42.764380312499995,
          "velocity": 0.6377952755905512
        },
        {
          "duration": 0.2377134374999912,
          "durationTicks": 178,
          "midi": 58,
          "name": "A#3",
          "ticks": 32038,
          "time": 42.7857478125,
          "velocity": 0.33858267716535434
        },
        {
          "duration": 0.19631390624999767,
          "durationTicks": 147,
          "midi": 51,
          "name": "D#3",
          "ticks": 32038,
          "time": 42.7857478125,
          "velocity": 0.4330708661417323
        },
        {
          "duration": 0.06944437499999623,
          "durationTicks": 52,
          "midi": 55,
          "name": "G3",
          "ticks": 32161,
          "time": 42.950010468749994,
          "velocity": 0.44881889763779526
        },
        {
          "duration": 0.1923074999999983,
          "durationTicks": 144,
          "midi": 57,
          "name": "A3",
          "ticks": 32292,
          "time": 43.124956874999995,
          "velocity": 0.5039370078740157
        },
        {
          "duration": 0.1482370312499981,
          "durationTicks": 111,
          "midi": 48,
          "name": "C3",
          "ticks": 32300,
          "time": 43.13564062499999,
          "velocity": 0.3779527559055118
        },
        {
          "duration": 0.19764937500000457,
          "durationTicks": 148,
          "midi": 72,
          "name": "C5",
          "ticks": 32547,
          "time": 43.46550140624999,
          "velocity": 0.5590551181102362
        },
        {
          "duration": 0.1175212499999958,
          "durationTicks": 88,
          "midi": 66,
          "name": "F#4",
          "ticks": 32551,
          "time": 43.47084328125,
          "velocity": 0.48031496062992124
        },
        {
          "duration": 0.12954046874999392,
          "durationTicks": 97,
          "midi": 64,
          "name": "E4",
          "ticks": 32662,
          "time": 43.619080312499996,
          "velocity": 0.5433070866141733
        },
        {
          "duration": 0.2938031250000037,
          "durationTicks": 220,
          "midi": 70,
          "name": "A#4",
          "ticks": 32774,
          "time": 43.768652812499994,
          "velocity": 0.44881889763779526
        },
        {
          "duration": 0.1482370312499981,
          "durationTicks": 111,
          "midi": 67,
          "name": "G4",
          "ticks": 32779,
          "time": 43.77533015625,
          "velocity": 0.5511811023622047
        },
        {
          "duration": 0.15224343749999747,
          "durationTicks": 114,
          "midi": 66,
          "name": "F#4",
          "ticks": 32890,
          "time": 43.9235671875,
          "velocity": 0.4645669291338583
        },
        {
          "duration": 0.05208328124999895,
          "durationTicks": 39,
          "midi": 72,
          "name": "C5",
          "ticks": 33022,
          "time": 44.0998490625,
          "velocity": 0.5433070866141733
        },
        {
          "duration": 0.06944437499999623,
          "durationTicks": 52,
          "midi": 64,
          "name": "E4",
          "ticks": 33025,
          "time": 44.10385546875,
          "velocity": 0.4881889763779528
        },
        {
          "duration": 0.1041665624999979,
          "durationTicks": 78,
          "midi": 62,
          "name": "D4",
          "ticks": 33147,
          "time": 44.266782656249994,
          "velocity": 0.4881889763779528
        },
        {
          "duration": 0.1335468750000075,
          "durationTicks": 100,
          "midi": 78,
          "name": "F#5",
          "ticks": 33255,
          "time": 44.41101328124999,
          "velocity": 0.4409448818897638
        },
        {
          "duration": 0.10550203125000479,
          "durationTicks": 79,
          "midi": 69,
          "name": "A4",
          "ticks": 33263,
          "time": 44.42169703124999,
          "velocity": 0.3543307086614173
        },
        {
          "duration": 0.09748921874999184,
          "durationTicks": 73,
          "midi": 57,
          "name": "A3",
          "ticks": 33367,
          "time": 44.56058578125,
          "velocity": 0.3937007874015748
        },
        {
          "duration": 0.12286312499999497,
          "durationTicks": 92,
          "midi": 54,
          "name": "F#3",
          "ticks": 33490,
          "time": 44.7248484375,
          "velocity": 0.3700787401574803
        },
        {
          "duration": 0.3231834375000062,
          "durationTicks": 242,
          "midi": 81,
          "name": "A5",
          "ticks": 33503,
          "time": 44.74220953124999,
          "velocity": 0.4645669291338583
        },
        {
          "duration": 0.18563015624999935,
          "durationTicks": 139,
          "midi": 60,
          "name": "C4",
          "ticks": 33512,
          "time": 44.754228749999996,
          "velocity": 0.33070866141732286
        },
        {
          "duration": 0.07879265624999476,
          "durationTicks": 59,
          "midi": 57,
          "name": "A3",
          "ticks": 33645,
          "time": 44.931846093749996,
          "velocity": 0.36220472440944884
        },
        {
          "duration": 0.34989281250000204,
          "durationTicks": 262,
          "midi": 58,
          "name": "A#3",
          "ticks": 33767,
          "time": 45.09477328124999,
          "velocity": 0.36220472440944884
        },
        {
          "duration": 0.297809531249996,
          "durationTicks": 223,
          "midi": 50,
          "name": "D3",
          "ticks": 33784,
          "time": 45.117476249999996,
          "velocity": 0.33070866141732286
        },
        {
          "duration": 0.16025625000000332,
          "durationTicks": 120,
          "midi": 70,
          "name": "A#4",
          "ticks": 34007,
          "time": 45.41528578124999,
          "velocity": 0.41732283464566927
        },
        {
          "duration": 0.07879265625000897,
          "durationTicks": 59,
          "midi": 67,
          "name": "G4",
          "ticks": 34013,
          "time": 45.42329859374999,
          "velocity": 0.41732283464566927
        },
        {
          "duration": 0.12419859375000186,
          "durationTicks": 93,
          "midi": 72,
          "name": "C5",
          "ticks": 34121,
          "time": 45.56752921874999,
          "velocity": 0.4566929133858268
        },
        {
          "duration": 0.07879265625000187,
          "durationTicks": 59,
          "midi": 69,
          "name": "A4",
          "ticks": 34127,
          "time": 45.575542031249995,
          "velocity": 0.36220472440944884
        },
        {
          "duration": 0.08012812500000166,
          "durationTicks": 60,
          "midi": 66,
          "name": "F#4",
          "ticks": 34245,
          "time": 45.73312734374999,
          "velocity": 0.47244094488188976
        },
        {
          "duration": 0.14022421874999935,
          "durationTicks": 105,
          "midi": 74,
          "name": "D5",
          "ticks": 34248,
          "time": 45.73713375,
          "velocity": 0.6062992125984252
        },
        {
          "duration": 0.07211531250000291,
          "durationTicks": 54,
          "midi": 67,
          "name": "G4",
          "ticks": 34369,
          "time": 45.898725468749994,
          "velocity": 0.4251968503937008
        },
        {
          "duration": 0.06410249999999706,
          "durationTicks": 48,
          "midi": 42,
          "name": "F#2",
          "ticks": 34475,
          "time": 46.04028515624999,
          "velocity": 0.4330708661417323
        },
        {
          "duration": 0.07612171875000229,
          "durationTicks": 57,
          "midi": 69,
          "name": "A4",
          "ticks": 34479,
          "time": 46.04562703124999,
          "velocity": 0.4566929133858268
        },
        {
          "duration": 0.10950843750000416,
          "durationTicks": 82,
          "midi": 74,
          "name": "D5",
          "ticks": 34482,
          "time": 46.04963343749999,
          "velocity": 0.49606299212598426
        },
        {
          "duration": 0.0881409375000004,
          "durationTicks": 66,
          "midi": 70,
          "name": "A#4",
          "ticks": 34590,
          "time": 46.1938640625,
          "velocity": 0.47244094488188976
        },
        {
          "duration": 0.06143156250000459,
          "durationTicks": 46,
          "midi": 43,
          "name": "G2",
          "ticks": 34610,
          "time": 46.22057343749999,
          "velocity": 0.33858267716535434
        },
        {
          "duration": 0.1482370312499981,
          "durationTicks": 111,
          "midi": 74,
          "name": "D5",
          "ticks": 34704,
          "time": 46.346107499999995,
          "velocity": 0.47244094488188976
        },
        {
          "duration": 0.19631390624999767,
          "durationTicks": 147,
          "midi": 72,
          "name": "C5",
          "ticks": 34704,
          "time": 46.346107499999995,
          "velocity": 0.5039370078740157
        },
        {
          "duration": 0.09348281250000667,
          "durationTicks": 70,
          "midi": 45,
          "name": "A2",
          "ticks": 34710,
          "time": 46.354120312499994,
          "velocity": 0.4015748031496063
        },
        {
          "duration": 0.12954046875000813,
          "durationTicks": 97,
          "midi": 70,
          "name": "A#4",
          "ticks": 34824,
          "time": 46.50636374999999,
          "velocity": 0.44881889763779526
        },
        {
          "duration": 0.0747862500000025,
          "durationTicks": 56,
          "midi": 43,
          "name": "G2",
          "ticks": 34824,
          "time": 46.50636374999999,
          "velocity": 0.4251968503937008
        },
        {
          "duration": 0.07077984375000312,
          "durationTicks": 53,
          "midi": 69,
          "name": "A4",
          "ticks": 34943,
          "time": 46.665284531249995,
          "velocity": 0.4094488188976378
        },
        {
          "duration": 0.07077984375000312,
          "durationTicks": 53,
          "midi": 42,
          "name": "F#2",
          "ticks": 34943,
          "time": 46.665284531249995,
          "velocity": 0.4094488188976378
        },
        {
          "duration": 0.12286312499999497,
          "durationTicks": 92,
          "midi": 74,
          "name": "D5",
          "ticks": 34947,
          "time": 46.670626406249994,
          "velocity": 0.4015748031496063
        },
        {
          "duration": 0.0587606249999979,
          "durationTicks": 44,
          "midi": 72,
          "name": "C5",
          "ticks": 35044,
          "time": 46.800166874999995,
          "velocity": 0.48031496062992124
        },
        {
          "duration": 0.06810890625000354,
          "durationTicks": 51,
          "midi": 45,
          "name": "A2",
          "ticks": 35052,
          "time": 46.81085062499999,
          "velocity": 0.41732283464566927
        },
        {
          "duration": 0.10016015624999852,
          "durationTicks": 75,
          "midi": 70,
          "name": "A#4",
          "ticks": 35166,
          "time": 46.9630940625,
          "velocity": 0.4645669291338583
        },
        {
          "duration": 0.16960453125000186,
          "durationTicks": 127,
          "midi": 74,
          "name": "D5",
          "ticks": 35171,
          "time": 46.96977140624999,
          "velocity": 0.5039370078740157
        },
        {
          "duration": 0.4273500000000041,
          "durationTicks": 320,
          "midi": 43,
          "name": "G2",
          "ticks": 35180,
          "time": 46.981790624999995,
          "velocity": 0.5826771653543307
        },
        {
          "duration": 0.1335468750000004,
          "durationTicks": 100,
          "midi": 72,
          "name": "C5",
          "ticks": 35289,
          "time": 47.12735671874999,
          "velocity": 0.49606299212598426
        },
        {
          "duration": 0.10817296875000437,
          "durationTicks": 81,
          "midi": 69,
          "name": "A4",
          "ticks": 35289,
          "time": 47.12735671874999,
          "velocity": 0.3700787401574803
        },
        {
          "duration": 0.14423062499999872,
          "durationTicks": 108,
          "midi": 70,
          "name": "A#4",
          "ticks": 35412,
          "time": 47.291619374999996,
          "velocity": 0.4330708661417323
        },
        {
          "duration": 0.08146359375000145,
          "durationTicks": 61,
          "midi": 67,
          "name": "G4",
          "ticks": 35417,
          "time": 47.298296718749995,
          "velocity": 0.3779527559055118
        },
        {
          "duration": 0.16693359374999517,
          "durationTicks": 125,
          "midi": 72,
          "name": "C5",
          "ticks": 35515,
          "time": 47.429172656249996,
          "velocity": 0.4566929133858268
        },
        {
          "duration": 0.08413453125000103,
          "durationTicks": 63,
          "midi": 69,
          "name": "A4",
          "ticks": 35526,
          "time": 47.443862812499994,
          "velocity": 0.30708661417322836
        },
        {
          "duration": 0.08547000000000793,
          "durationTicks": 64,
          "midi": 66,
          "name": "F#4",
          "ticks": 35648,
          "time": 47.60678999999999,
          "velocity": 0.47244094488188976
        },
        {
          "duration": 0.12286312500000918,
          "durationTicks": 92,
          "midi": 74,
          "name": "D5",
          "ticks": 35648,
          "time": 47.60678999999999,
          "velocity": 0.5826771653543307
        },
        {
          "duration": 0.07077984374999602,
          "durationTicks": 53,
          "midi": 67,
          "name": "G4",
          "ticks": 35776,
          "time": 47.77773,
          "velocity": 0.41732283464566927
        },
        {
          "duration": 0.10817296875000437,
          "durationTicks": 81,
          "midi": 42,
          "name": "F#2",
          "ticks": 35877,
          "time": 47.91261234374999,
          "velocity": 0.5354330708661418
        },
        {
          "duration": 0.06944437500000333,
          "durationTicks": 52,
          "midi": 69,
          "name": "A4",
          "ticks": 35888,
          "time": 47.92730249999999,
          "velocity": 0.3937007874015748
        },
        {
          "duration": 0.06143156249999748,
          "durationTicks": 46,
          "midi": 74,
          "name": "D5",
          "ticks": 35894,
          "time": 47.935315312499995,
          "velocity": 0.47244094488188976
        },
        {
          "duration": 0.08012812500000166,
          "durationTicks": 60,
          "midi": 70,
          "name": "A#4",
          "ticks": 35990,
          "time": 48.06352031249999,
          "velocity": 0.4330708661417323
        },
        {
          "duration": 0.09348281249999957,
          "durationTicks": 70,
          "midi": 43,
          "name": "G2",
          "ticks": 35996,
          "time": 48.071533124999995,
          "velocity": 0.49606299212598426
        },
        {
          "duration": 0.12019218750000249,
          "durationTicks": 90,
          "midi": 45,
          "name": "A2",
          "ticks": 36107,
          "time": 48.21977015624999,
          "velocity": 0.5118110236220472
        },
        {
          "duration": 0.15357890625000437,
          "durationTicks": 115,
          "midi": 74,
          "name": "D5",
          "ticks": 36110,
          "time": 48.22377656249999,
          "velocity": 0.5590551181102362
        },
        {
          "duration": 0.14289515625000604,
          "durationTicks": 107,
          "midi": 72,
          "name": "C5",
          "ticks": 36110,
          "time": 48.22377656249999,
          "velocity": 0.49606299212598426
        },
        {
          "duration": 0.12553406249999455,
          "durationTicks": 94,
          "midi": 70,
          "name": "A#4",
          "ticks": 36220,
          "time": 48.370678125,
          "velocity": 0.47244094488188976
        },
        {
          "duration": 0.08547000000000082,
          "durationTicks": 64,
          "midi": 43,
          "name": "G2",
          "ticks": 36225,
          "time": 48.37735546875,
          "velocity": 0.48031496062992124
        },
        {
          "duration": 0.06410249999999706,
          "durationTicks": 48,
          "midi": 42,
          "name": "F#2",
          "ticks": 36341,
          "time": 48.532269843749994,
          "velocity": 0.5196850393700787
        },
        {
          "duration": 0.0747862500000025,
          "durationTicks": 56,
          "midi": 69,
          "name": "A4",
          "ticks": 36347,
          "time": 48.54028265624999,
          "velocity": 0.3858267716535433
        },
        {
          "duration": 0.06543796875000396,
          "durationTicks": 49,
          "midi": 74,
          "name": "D5",
          "ticks": 36351,
          "time": 48.54562453124999,
          "velocity": 0.5511811023622047
        },
        {
          "duration": 0.07745718749999497,
          "durationTicks": 58,
          "midi": 72,
          "name": "C5",
          "ticks": 36448,
          "time": 48.675165,
          "velocity": 0.5433070866141733
        },
        {
          "duration": 0.056089687500005425,
          "durationTicks": 42,
          "midi": 45,
          "name": "A2",
          "ticks": 36453,
          "time": 48.68184234374999,
          "velocity": 0.4566929133858268
        },
        {
          "duration": 0.1188567187499956,
          "durationTicks": 89,
          "midi": 70,
          "name": "A#4",
          "ticks": 36582,
          "time": 48.85411781249999,
          "velocity": 0.5118110236220472
        },
        {
          "duration": 0.048076874999999575,
          "durationTicks": 36,
          "midi": 43,
          "name": "G2",
          "ticks": 36585,
          "time": 48.85812421874999,
          "velocity": 0.6141732283464567
        },
        {
          "duration": 0.13755328125000688,
          "durationTicks": 103,
          "midi": 74,
          "name": "D5",
          "ticks": 36585,
          "time": 48.85812421874999,
          "velocity": 0.5669291338582677
        },
        {
          "duration": 0.1789528125000075,
          "durationTicks": 134,
          "midi": 72,
          "name": "C5",
          "ticks": 36695,
          "time": 49.00502578124999,
          "velocity": 0.5826771653543307
        },
        {
          "duration": 0.1642626562499956,
          "durationTicks": 123,
          "midi": 74,
          "name": "D5",
          "ticks": 36823,
          "time": 49.17596578125,
          "velocity": 0.4881889763779528
        },
        {
          "duration": 0.28712578124999766,
          "durationTicks": 215,
          "midi": 55,
          "name": "G3",
          "ticks": 36837,
          "time": 49.19466234375,
          "velocity": 0.5196850393700787
        },
        {
          "duration": 0.18563015624999935,
          "durationTicks": 139,
          "midi": 75,
          "name": "D#5",
          "ticks": 36952,
          "time": 49.348241249999994,
          "velocity": 0.4094488188976378
        },
        {
          "duration": 0.356570156250001,
          "durationTicks": 267,
          "midi": 58,
          "name": "A#3",
          "ticks": 37081,
          "time": 49.520516718749995,
          "velocity": 0.4330708661417323
        },
        {
          "duration": 0.13755328124999977,
          "durationTicks": 103,
          "midi": 74,
          "name": "D5",
          "ticks": 37088,
          "time": 49.529864999999994,
          "velocity": 0.4094488188976378
        },
        {
          "duration": 0.16693359375000938,
          "durationTicks": 125,
          "midi": 72,
          "name": "C5",
          "ticks": 37208,
          "time": 49.69012124999999,
          "velocity": 0.33070866141732286
        },
        {
          "duration": 0.1762818750000008,
          "durationTicks": 132,
          "midi": 70,
          "name": "A#4",
          "ticks": 37325,
          "time": 49.846371093749994,
          "velocity": 0.36220472440944884
        },
        {
          "duration": 0.30181593749999536,
          "durationTicks": 226,
          "midi": 55,
          "name": "G3",
          "ticks": 37333,
          "time": 49.85705484375,
          "velocity": 0.5354330708661418
        },
        {
          "duration": 0.17094000000000165,
          "durationTicks": 128,
          "midi": 68,
          "name": "G#4",
          "ticks": 37440,
          "time": 49.99994999999999,
          "velocity": 0.3700787401574803
        },
        {
          "duration": 0.1776173437500006,
          "durationTicks": 133,
          "midi": 67,
          "name": "G4",
          "ticks": 37574,
          "time": 50.17890281249999,
          "velocity": 0.4566929133858268
        },
        {
          "duration": 0.15758531249999663,
          "durationTicks": 118,
          "midi": 60,
          "name": "C4",
          "ticks": 37584,
          "time": 50.1922575,
          "velocity": 0.4330708661417323
        },
        {
          "duration": 0.104166562500005,
          "durationTicks": 78,
          "midi": 75,
          "name": "D#5",
          "ticks": 37693,
          "time": 50.337823593749995,
          "velocity": 0.3937007874015748
        },
        {
          "duration": 0.3245189062499989,
          "durationTicks": 243,
          "midi": 51,
          "name": "D#3",
          "ticks": 37821,
          "time": 50.50876359375,
          "velocity": 0.4881889763779528
        },
        {
          "duration": 0.6436959374999986,
          "durationTicks": 482,
          "midi": 72,
          "name": "C5",
          "ticks": 37824,
          "time": 50.512769999999996,
          "velocity": 0.44881889763779526
        },
        {
          "duration": 0.13621781249999998,
          "durationTicks": 102,
          "midi": 75,
          "name": "D#5",
          "ticks": 37933,
          "time": 50.658336093749995,
          "velocity": 0.5275590551181102
        },
        {
          "duration": 0.2978095312499889,
          "durationTicks": 223,
          "midi": 77,
          "name": "F5",
          "ticks": 38077,
          "time": 50.85064359375,
          "velocity": 0.5748031496062992
        },
        {
          "duration": 0.15758531249999663,
          "durationTicks": 118,
          "midi": 50,
          "name": "D3",
          "ticks": 38091,
          "time": 50.86934015625,
          "velocity": 0.4330708661417323
        },
        {
          "duration": 0.27510656250000665,
          "durationTicks": 206,
          "midi": 65,
          "name": "F4",
          "ticks": 38333,
          "time": 51.19252359374999,
          "velocity": 0.48031496062992124
        },
        {
          "duration": 0.09882468749999873,
          "durationTicks": 74,
          "midi": 59,
          "name": "B3",
          "ticks": 38344,
          "time": 51.207213749999994,
          "velocity": 0.3937007874015748
        },
        {
          "duration": 0.12954046875000103,
          "durationTicks": 97,
          "midi": 57,
          "name": "A3",
          "ticks": 38454,
          "time": 51.35411531249999,
          "velocity": 0.4251968503937008
        },
        {
          "duration": 0.2537390625000029,
          "durationTicks": 190,
          "midi": 63,
          "name": "D#4",
          "ticks": 38562,
          "time": 51.49834593749999,
          "velocity": 0.48031496062992124
        },
        {
          "duration": 0.15892078124999642,
          "durationTicks": 119,
          "midi": 60,
          "name": "C4",
          "ticks": 38565,
          "time": 51.50235234375,
          "velocity": 0.5354330708661418
        },
        {
          "duration": 0.1482370312499981,
          "durationTicks": 111,
          "midi": 59,
          "name": "B3",
          "ticks": 38693,
          "time": 51.67329234374999,
          "velocity": 0.5590551181102362
        },
        {
          "duration": 0.16693359375000938,
          "durationTicks": 125,
          "midi": 65,
          "name": "F4",
          "ticks": 38804,
          "time": 51.82152937499999,
          "velocity": 0.3937007874015748
        },
        {
          "duration": 0.14423062499999872,
          "durationTicks": 108,
          "midi": 57,
          "name": "A3",
          "ticks": 38808,
          "time": 51.826871249999996,
          "velocity": 0.5511811023622047
        },
        {
          "duration": 0.18162374999999997,
          "durationTicks": 136,
          "midi": 55,
          "name": "G3",
          "ticks": 38919,
          "time": 51.975108281249994,
          "velocity": 0.5984251968503937
        },
        {
          "duration": 0.1936429687499981,
          "durationTicks": 145,
          "midi": 71,
          "name": "B4",
          "ticks": 39055,
          "time": 52.156732031249994,
          "velocity": 0.5354330708661418
        },
        {
          "duration": 0.20165578125000394,
          "durationTicks": 151,
          "midi": 62,
          "name": "D4",
          "ticks": 39060,
          "time": 52.16340937499999,
          "velocity": 0.4566929133858268
        },
        {
          "duration": 0.12152765624999518,
          "durationTicks": 91,
          "midi": 77,
          "name": "F5",
          "ticks": 39184,
          "time": 52.329007499999996,
          "velocity": 0.5118110236220472
        },
        {
          "duration": 0.24038437499999787,
          "durationTicks": 180,
          "midi": 74,
          "name": "D5",
          "ticks": 39301,
          "time": 52.48525734375,
          "velocity": 0.49606299212598426
        },
        {
          "duration": 0.27510656249999244,
          "durationTicks": 206,
          "midi": 53,
          "name": "F3",
          "ticks": 39301,
          "time": 52.48525734375,
          "velocity": 0.5748031496062992
        },
        {
          "duration": 0.14022421874999935,
          "durationTicks": 105,
          "midi": 77,
          "name": "F5",
          "ticks": 39426,
          "time": 52.652190937499995,
          "velocity": 0.4645669291338583
        },
        {
          "duration": 0.14423062500000583,
          "durationTicks": 108,
          "midi": 79,
          "name": "G5",
          "ticks": 39560,
          "time": 52.83114374999999,
          "velocity": 0.6299212598425197
        },
        {
          "duration": 0.14022421874999935,
          "durationTicks": 105,
          "midi": 51,
          "name": "D#3",
          "ticks": 39577,
          "time": 52.85384671875,
          "velocity": 0.4330708661417323
        },
        {
          "duration": 0.13621781249999998,
          "durationTicks": 102,
          "midi": 63,
          "name": "D#4",
          "ticks": 39816,
          "time": 53.17302374999999,
          "velocity": 0.5196850393700787
        },
        {
          "duration": 0.06543796874999686,
          "durationTicks": 49,
          "midi": 60,
          "name": "C4",
          "ticks": 39839,
          "time": 53.203739531249994,
          "velocity": 0.33070866141732286
        },
        {
          "duration": 0.14556609374999852,
          "durationTicks": 109,
          "midi": 65,
          "name": "F4",
          "ticks": 39930,
          "time": 53.325267187499996,
          "velocity": 0.5354330708661418
        },
        {
          "duration": 0.06276703124999727,
          "durationTicks": 47,
          "midi": 62,
          "name": "D4",
          "ticks": 39949,
          "time": 53.35064109375,
          "velocity": 0.3937007874015748
        },
        {
          "duration": 0.08547000000000082,
          "durationTicks": 64,
          "midi": 67,
          "name": "G4",
          "ticks": 40050,
          "time": 53.48552343749999,
          "velocity": 0.6141732283464567
        },
        {
          "duration": 0.15624984374999684,
          "durationTicks": 117,
          "midi": 59,
          "name": "B3",
          "ticks": 40066,
          "time": 53.506890937499996,
          "velocity": 0.36220472440944884
        },
        {
          "duration": 0.11485031249999622,
          "durationTicks": 86,
          "midi": 60,
          "name": "C4",
          "ticks": 40192,
          "time": 53.67516,
          "velocity": 0.33070866141732286
        },
        {
          "duration": 0.07745718750000208,
          "durationTicks": 58,
          "midi": 67,
          "name": "G4",
          "ticks": 40284,
          "time": 53.79802312499999,
          "velocity": 0.5354330708661418
        },
        {
          "duration": 0.06677343750000375,
          "durationTicks": 50,
          "midi": 71,
          "name": "B4",
          "ticks": 40292,
          "time": 53.80870687499999,
          "velocity": 0.5039370078740157
        },
        {
          "duration": 0.06009609374999769,
          "durationTicks": 45,
          "midi": 62,
          "name": "D4",
          "ticks": 40306,
          "time": 53.827403437499996,
          "velocity": 0.44881889763779526
        },
        {
          "duration": 0.06677343750000375,
          "durationTicks": 50,
          "midi": 72,
          "name": "C5",
          "ticks": 40403,
          "time": 53.95694390624999,
          "velocity": 0.4094488188976378
        },
        {
          "duration": 0.09615374999999915,
          "durationTicks": 72,
          "midi": 63,
          "name": "D#4",
          "ticks": 40417,
          "time": 53.975640468749994,
          "velocity": 0.3700787401574803
        },
        {
          "duration": 0.0881409375000004,
          "durationTicks": 66,
          "midi": 67,
          "name": "G4",
          "ticks": 40538,
          "time": 54.13723218749999,
          "velocity": 0.5433070866141733
        },
        {
          "duration": 0.07211531250000291,
          "durationTicks": 54,
          "midi": 74,
          "name": "D5",
          "ticks": 40541,
          "time": 54.14123859374999,
          "velocity": 0.5433070866141733
        },
        {
          "duration": 0.08146359375000145,
          "durationTicks": 61,
          "midi": 65,
          "name": "F4",
          "ticks": 40548,
          "time": 54.150586874999995,
          "velocity": 0.4015748031496063
        },
        {
          "duration": 0.10683750000000458,
          "durationTicks": 80,
          "midi": 63,
          "name": "D#4",
          "ticks": 40652,
          "time": 54.289475624999994,
          "velocity": 0.41732283464566927
        },
        {
          "duration": 0.07612171875000229,
          "durationTicks": 57,
          "midi": 72,
          "name": "C5",
          "ticks": 40659,
          "time": 54.29882390624999,
          "velocity": 0.41732283464566927
        },
        {
          "duration": 0.0734507812499956,
          "durationTicks": 55,
          "midi": 71,
          "name": "B4",
          "ticks": 40777,
          "time": 54.45640921875,
          "velocity": 0.5039370078740157
        },
        {
          "duration": 0.08546999999999372,
          "durationTicks": 64,
          "midi": 67,
          "name": "G4",
          "ticks": 40780,
          "time": 54.460415624999996,
          "velocity": 0.33858267716535434
        },
        {
          "duration": 0.06276703124999727,
          "durationTicks": 47,
          "midi": 62,
          "name": "D4",
          "ticks": 40794,
          "time": 54.47911218749999,
          "velocity": 0.2440944881889764
        },
        {
          "duration": 0.0440704687500002,
          "durationTicks": 33,
          "midi": 74,
          "name": "D5",
          "ticks": 40880,
          "time": 54.59396249999999,
          "velocity": 0.49606299212598426
        },
        {
          "duration": 0.06143156250000459,
          "durationTicks": 46,
          "midi": 65,
          "name": "F4",
          "ticks": 40896,
          "time": 54.61532999999999,
          "velocity": 0.3228346456692913
        },
        {
          "duration": 0.5008007812499997,
          "durationTicks": 375,
          "midi": 72,
          "name": "C5",
          "ticks": 41000,
          "time": 54.75421874999999,
          "velocity": 0.5275590551181102
        },
        {
          "duration": 0.12820500000000123,
          "durationTicks": 96,
          "midi": 67,
          "name": "G4",
          "ticks": 41006,
          "time": 54.76223156249999,
          "velocity": 0.49606299212598426
        },
        {
          "duration": 0.10550203124999769,
          "durationTicks": 79,
          "midi": 63,
          "name": "D#4",
          "ticks": 41013,
          "time": 54.77157984375,
          "velocity": 0.44881889763779526
        },
        {
          "duration": 0.14155968750000625,
          "durationTicks": 106,
          "midi": 65,
          "name": "F4",
          "ticks": 41120,
          "time": 54.91447499999999,
          "velocity": 0.4015748031496063
        },
        {
          "duration": 0.0747862500000025,
          "durationTicks": 56,
          "midi": 62,
          "name": "D4",
          "ticks": 41141,
          "time": 54.94251984374999,
          "velocity": 0.2677165354330709
        },
        {
          "duration": 0.1322114062500006,
          "durationTicks": 99,
          "midi": 63,
          "name": "D#4",
          "ticks": 41226,
          "time": 55.056034687499995,
          "velocity": 0.5433070866141733
        },
        {
          "duration": 0.0734507812499956,
          "durationTicks": 55,
          "midi": 60,
          "name": "C4",
          "ticks": 41242,
          "time": 55.0774021875,
          "velocity": 0.3937007874015748
        },
        {
          "duration": 0.15624984375000395,
          "durationTicks": 117,
          "midi": 65,
          "name": "F4",
          "ticks": 41348,
          "time": 55.21896187499999,
          "velocity": 0.49606299212598426
        },
        {
          "duration": 0.08146359375000145,
          "durationTicks": 61,
          "midi": 62,
          "name": "D4",
          "ticks": 41357,
          "time": 55.23098109374999,
          "velocity": 0.5039370078740157
        },
        {
          "duration": 0.12419859375000186,
          "durationTicks": 93,
          "midi": 67,
          "name": "G4",
          "ticks": 41478,
          "time": 55.39257281249999,
          "velocity": 0.5511811023622047
        },
        {
          "duration": 0.11618578125000312,
          "durationTicks": 87,
          "midi": 59,
          "name": "B3",
          "ticks": 41492,
          "time": 55.41126937499999,
          "velocity": 0.3779527559055118
        },
        {
          "duration": 0.06543796875000396,
          "durationTicks": 49,
          "midi": 60,
          "name": "C4",
          "ticks": 41616,
          "time": 55.57686749999999,
          "velocity": 0.3937007874015748
        },
        {
          "duration": 0.0734507812499956,
          "durationTicks": 55,
          "midi": 67,
          "name": "G4",
          "ticks": 41713,
          "time": 55.70640796874999,
          "velocity": 0.3779527559055118
        },
        {
          "duration": 0.07211531250000291,
          "durationTicks": 54,
          "midi": 71,
          "name": "B4",
          "ticks": 41718,
          "time": 55.71308531249999,
          "velocity": 0.4645669291338583
        },
        {
          "duration": 0.06677343749999665,
          "durationTicks": 50,
          "midi": 62,
          "name": "D4",
          "ticks": 41718,
          "time": 55.71308531249999,
          "velocity": 0.3700787401574803
        },
        {
          "duration": 0.07745718750000208,
          "durationTicks": 58,
          "midi": 63,
          "name": "D#4",
          "ticks": 41819,
          "time": 55.84796765624999,
          "velocity": 0.3779527559055118
        },
        {
          "duration": 0.08413453124999393,
          "durationTicks": 63,
          "midi": 72,
          "name": "C5",
          "ticks": 41840,
          "time": 55.876012499999995,
          "velocity": 0.30708661417322836
        },
        {
          "duration": 0.0734507812499885,
          "durationTicks": 55,
          "midi": 65,
          "name": "F4",
          "ticks": 41953,
          "time": 56.02692046875,
          "velocity": 0.3464566929133858
        },
        {
          "duration": 0.07745718750000208,
          "durationTicks": 58,
          "midi": 67,
          "name": "G4",
          "ticks": 41961,
          "time": 56.03760421874999,
          "velocity": 0.3228346456692913
        },
        {
          "duration": 0.06543796874999686,
          "durationTicks": 49,
          "midi": 74,
          "name": "D5",
          "ticks": 41964,
          "time": 56.041610625,
          "velocity": 0.33858267716535434
        },
        {
          "duration": 0.07879265624999476,
          "durationTicks": 59,
          "midi": 72,
          "name": "C5",
          "ticks": 42058,
          "time": 56.1671446875,
          "velocity": 0.36220472440944884
        },
        {
          "duration": 0.06677343749999665,
          "durationTicks": 50,
          "midi": 63,
          "name": "D#4",
          "ticks": 42070,
          "time": 56.183170312499996,
          "velocity": 0.3700787401574803
        },
        {
          "duration": 0.08547000000000082,
          "durationTicks": 64,
          "midi": 67,
          "name": "G4",
          "ticks": 42187,
          "time": 56.33942015624999,
          "velocity": 0.2992125984251969
        },
        {
          "duration": 0.08012812500000166,
          "durationTicks": 60,
          "midi": 71,
          "name": "B4",
          "ticks": 42194,
          "time": 56.34876843749999,
          "velocity": 0.3543307086614173
        },
        {
          "duration": 0.06810890625000354,
          "durationTicks": 51,
          "midi": 62,
          "name": "D4",
          "ticks": 42203,
          "time": 56.36078765624999,
          "velocity": 0.1889763779527559
        },
        {
          "duration": 0.0734507812500027,
          "durationTicks": 55,
          "midi": 65,
          "name": "F4",
          "ticks": 42290,
          "time": 56.47697343749999,
          "velocity": 0.25984251968503935
        },
        {
          "duration": 0.054754218750005634,
          "durationTicks": 41,
          "midi": 74,
          "name": "D5",
          "ticks": 42293,
          "time": 56.48097984374999,
          "velocity": 0.3464566929133858
        },
        {
          "duration": 0.26041640625000184,
          "durationTicks": 195,
          "midi": 67,
          "name": "G4",
          "ticks": 42412,
          "time": 56.639900624999996,
          "velocity": 0.3228346456692913
        },
        {
          "duration": 0.07077984374999602,
          "durationTicks": 53,
          "midi": 63,
          "name": "D#4",
          "ticks": 42418,
          "time": 56.647913437499994,
          "velocity": 0.3543307086614173
        },
        {
          "duration": 0.1923074999999983,
          "durationTicks": 144,
          "midi": 72,
          "name": "C5",
          "ticks": 42418,
          "time": 56.647913437499994,
          "velocity": 0.3543307086614173
        },
        {
          "duration": 0.11485031250000333,
          "durationTicks": 86,
          "midi": 62,
          "name": "D4",
          "ticks": 42537,
          "time": 56.80683421874999,
          "velocity": 0.33070866141732286
        },
        {
          "duration": 0.356570156250001,
          "durationTicks": 267,
          "midi": 75,
          "name": "D#5",
          "ticks": 42638,
          "time": 56.94171656249999,
          "velocity": 0.48031496062992124
        },
        {
          "duration": 0.12152765625000228,
          "durationTicks": 91,
          "midi": 60,
          "name": "C4",
          "ticks": 42663,
          "time": 56.97510328124999,
          "velocity": 0.33070866141732286
        },
        {
          "duration": 0.12019218750000249,
          "durationTicks": 90,
          "midi": 58,
          "name": "A#3",
          "ticks": 42765,
          "time": 57.11132109374999,
          "velocity": 0.3858267716535433
        },
        {
          "duration": 0.34855734375000225,
          "durationTicks": 261,
          "midi": 74,
          "name": "D5",
          "ticks": 42889,
          "time": 57.276919218749995,
          "velocity": 0.6062992125984252
        },
        {
          "duration": 0.1642626562499956,
          "durationTicks": 123,
          "midi": 57,
          "name": "A3",
          "ticks": 42896,
          "time": 57.286267499999994,
          "velocity": 0.3779527559055118
        },
        {
          "duration": 0.16025625000000332,
          "durationTicks": 120,
          "midi": 58,
          "name": "A#3",
          "ticks": 43011,
          "time": 57.43984640624999,
          "velocity": 0.41732283464566927
        },
        {
          "duration": 0.2978095312500031,
          "durationTicks": 223,
          "midi": 75,
          "name": "D#5",
          "ticks": 43125,
          "time": 57.592089843749996,
          "velocity": 0.5511811023622047
        },
        {
          "duration": 0.07211531249999581,
          "durationTicks": 54,
          "midi": 60,
          "name": "C4",
          "ticks": 43136,
          "time": 57.60677999999999,
          "velocity": 0.4645669291338583
        },
        {
          "duration": 0.11084390624999685,
          "durationTicks": 83,
          "midi": 62,
          "name": "D4",
          "ticks": 43237,
          "time": 57.741662343749994,
          "velocity": 0.44881889763779526
        },
        {
          "duration": 0.220352343750001,
          "durationTicks": 165,
          "midi": 72,
          "name": "C5",
          "ticks": 43353,
          "time": 57.89657671874999,
          "velocity": 0.5826771653543307
        },
        {
          "duration": 0.09748921875000605,
          "durationTicks": 73,
          "midi": 63,
          "name": "D#4",
          "ticks": 43353,
          "time": 57.89657671874999,
          "velocity": 0.5511811023622047
        },
        {
          "duration": 0.07211531249999581,
          "durationTicks": 54,
          "midi": 62,
          "name": "D4",
          "ticks": 43470,
          "time": 58.052826562499995,
          "velocity": 0.3779527559055118
        },
        {
          "duration": 0.18162374999999287,
          "durationTicks": 136,
          "midi": 75,
          "name": "D#5",
          "ticks": 43588,
          "time": 58.210411875,
          "velocity": 0.4881889763779528
        },
        {
          "duration": 0.2230232812500006,
          "durationTicks": 167,
          "midi": 81,
          "name": "A5",
          "ticks": 43593,
          "time": 58.21708921874999,
          "velocity": 0.5748031496062992
        },
        {
          "duration": 0.09748921875000605,
          "durationTicks": 73,
          "midi": 60,
          "name": "C4",
          "ticks": 43593,
          "time": 58.21708921874999,
          "velocity": 0.2992125984251969
        },
        {
          "duration": 0.09214734374999978,
          "durationTicks": 69,
          "midi": 63,
          "name": "D#4",
          "ticks": 43699,
          "time": 58.35864890625,
          "velocity": 0.4251968503937008
        },
        {
          "duration": 0.1041665624999979,
          "durationTicks": 78,
          "midi": 62,
          "name": "D4",
          "ticks": 43833,
          "time": 58.53760171875,
          "velocity": 0.28346456692913385
        },
        {
          "duration": 0.26041640624999474,
          "durationTicks": 195,
          "midi": 82,
          "name": "A#5",
          "ticks": 43836,
          "time": 58.541608124999996,
          "velocity": 0.3779527559055118
        },
        {
          "duration": 0.12686953125000144,
          "durationTicks": 95,
          "midi": 77,
          "name": "F5",
          "ticks": 43846,
          "time": 58.554962812499994,
          "velocity": 0.3700787401574803
        },
        {
          "duration": 0.08279906249999414,
          "durationTicks": 62,
          "midi": 60,
          "name": "C4",
          "ticks": 43969,
          "time": 58.71922546875,
          "velocity": 0.2677165354330709
        },
        {
          "duration": 0.15624984374999684,
          "durationTicks": 117,
          "midi": 58,
          "name": "A#3",
          "ticks": 44063,
          "time": 58.84475953124999,
          "velocity": 0.3228346456692913
        },
        {
          "duration": 0.2991449999999958,
          "durationTicks": 224,
          "midi": 74,
          "name": "D5",
          "ticks": 44073,
          "time": 58.858114218749996,
          "velocity": 0.4409448818897638
        },
        {
          "duration": 0.15090796874999768,
          "durationTicks": 113,
          "midi": 57,
          "name": "A3",
          "ticks": 44184,
          "time": 59.006351249999994,
          "velocity": 0.3464566929133858
        },
        {
          "duration": 0.39129234375000266,
          "durationTicks": 293,
          "midi": 72,
          "name": "C5",
          "ticks": 44301,
          "time": 59.16260109374999,
          "velocity": 0.5275590551181102
        },
        {
          "duration": 0.18295921875000687,
          "durationTicks": 137,
          "midi": 55,
          "name": "G3",
          "ticks": 44309,
          "time": 59.17328484374999,
          "velocity": 0.5275590551181102
        },
        {
          "duration": 0.1629271874999958,
          "durationTicks": 122,
          "midi": 57,
          "name": "A3",
          "ticks": 44424,
          "time": 59.326863749999994,
          "velocity": 0.4409448818897638
        },
        {
          "duration": 0.15224343749999747,
          "durationTicks": 114,
          "midi": 58,
          "name": "A#3",
          "ticks": 44529,
          "time": 59.46708796874999,
          "velocity": 0.5118110236220472
        },
        {
          "duration": 0.2817839062500056,
          "durationTicks": 211,
          "midi": 74,
          "name": "D5",
          "ticks": 44538,
          "time": 59.47910718749999,
          "velocity": 0.5984251968503937
        },
        {
          "duration": 0.12686953125000855,
          "durationTicks": 95,
          "midi": 60,
          "name": "C4",
          "ticks": 44654,
          "time": 59.63402156249999,
          "velocity": 0.47244094488188976
        },
        {
          "duration": 0.26041640625000184,
          "durationTicks": 195,
          "midi": 70,
          "name": "A#4",
          "ticks": 44760,
          "time": 59.775581249999995,
          "velocity": 0.48031496062992124
        },
        {
          "duration": 0.0894764062500002,
          "durationTicks": 67,
          "midi": 62,
          "name": "D4",
          "ticks": 44765,
          "time": 59.782258593749994,
          "velocity": 0.5511811023622047
        },
        {
          "duration": 0.13087593750000082,
          "durationTicks": 98,
          "midi": 60,
          "name": "C4",
          "ticks": 44874,
          "time": 59.92782468749999,
          "velocity": 0.4645669291338583
        },
        {
          "duration": 0.31917703124999264,
          "durationTicks": 239,
          "midi": 79,
          "name": "G5",
          "ticks": 44994,
          "time": 60.088080937499996,
          "velocity": 0.5511811023622047
        },
        {
          "duration": 0.12686953124999434,
          "durationTicks": 95,
          "midi": 58,
          "name": "A#3",
          "ticks": 44994,
          "time": 60.088080937499996,
          "velocity": 0.3858267716535433
        },
        {
          "duration": 0.0600960937500048,
          "durationTicks": 45,
          "midi": 74,
          "name": "D5",
          "ticks": 44999,
          "time": 60.09475828124999,
          "velocity": 0.4566929133858268
        },
        {
          "duration": 0.10550203125000479,
          "durationTicks": 79,
          "midi": 62,
          "name": "D4",
          "ticks": 45108,
          "time": 60.24032437499999,
          "velocity": 0.3937007874015748
        },
        {
          "duration": 0.07879265625000897,
          "durationTicks": 59,
          "midi": 60,
          "name": "C4",
          "ticks": 45233,
          "time": 60.40725796874999,
          "velocity": 0.3858267716535433
        },
        {
          "duration": 0.2377134374999983,
          "durationTicks": 178,
          "midi": 81,
          "name": "A5",
          "ticks": 45245,
          "time": 60.42328359374999,
          "velocity": 0.3858267716535433
        },
        {
          "duration": 0.10016015624999852,
          "durationTicks": 75,
          "midi": 75,
          "name": "D#5",
          "ticks": 45245,
          "time": 60.42328359374999,
          "velocity": 0.2992125984251969
        },
        {
          "duration": 0.12019218749999538,
          "durationTicks": 90,
          "midi": 58,
          "name": "A#3",
          "ticks": 45350,
          "time": 60.56350781249999,
          "velocity": 0.33070866141732286
        },
        {
          "duration": 0.13755328124999977,
          "durationTicks": 103,
          "midi": 57,
          "name": "A3",
          "ticks": 45476,
          "time": 60.731776874999994,
          "velocity": 0.4094488188976378
        },
        {
          "duration": 0.3124996874999937,
          "durationTicks": 234,
          "midi": 72,
          "name": "C5",
          "ticks": 45476,
          "time": 60.731776874999994,
          "velocity": 0.4645669291338583
        },
        {
          "duration": 0.09748921874999894,
          "durationTicks": 73,
          "midi": 55,
          "name": "G3",
          "ticks": 45593,
          "time": 60.88802671874999,
          "velocity": 0.3858267716535433
        },
        {
          "duration": 0.3378735937499968,
          "durationTicks": 253,
          "midi": 70,
          "name": "A#4",
          "ticks": 45705,
          "time": 61.037599218749996,
          "velocity": 0.4330708661417323
        },
        {
          "duration": 0.18162374999999997,
          "durationTicks": 136,
          "midi": 54,
          "name": "F#3",
          "ticks": 45705,
          "time": 61.037599218749996,
          "velocity": 0.4409448818897638
        },
        {
          "duration": 0.09615374999999915,
          "durationTicks": 72,
          "midi": 55,
          "name": "G3",
          "ticks": 45833,
          "time": 61.20853921874999,
          "velocity": 0.4645669291338583
        },
        {
          "duration": 0.27243562499999996,
          "durationTicks": 204,
          "midi": 72,
          "name": "C5",
          "ticks": 45941,
          "time": 61.35276984374999,
          "velocity": 0.44881889763779526
        },
        {
          "duration": 0.1335468750000004,
          "durationTicks": 100,
          "midi": 57,
          "name": "A3",
          "ticks": 45941,
          "time": 61.35276984374999,
          "velocity": 0.3700787401574803
        },
        {
          "duration": 0.15758531249999663,
          "durationTicks": 118,
          "midi": 58,
          "name": "A#3",
          "ticks": 46027,
          "time": 61.46762015624999,
          "velocity": 0.4645669291338583
        },
        {
          "duration": 0.08413453125000103,
          "durationTicks": 63,
          "midi": 60,
          "name": "C4",
          "ticks": 46159,
          "time": 61.64390203124999,
          "velocity": 0.49606299212598426
        },
        {
          "duration": 0.27243562499999996,
          "durationTicks": 204,
          "midi": 69,
          "name": "A4",
          "ticks": 46159,
          "time": 61.64390203124999,
          "velocity": 0.4330708661417323
        },
        {
          "duration": 0.1482370312499981,
          "durationTicks": 111,
          "midi": 58,
          "name": "A#3",
          "ticks": 46262,
          "time": 61.78145531249999,
          "velocity": 0.3779527559055118
        },
        {
          "duration": 0.33520265625000434,
          "durationTicks": 251,
          "midi": 78,
          "name": "F#5",
          "ticks": 46379,
          "time": 61.93770515624999,
          "velocity": 0.4566929133858268
        },
        {
          "duration": 0.10016015624999852,
          "durationTicks": 75,
          "midi": 72,
          "name": "C5",
          "ticks": 46393,
          "time": 61.956401718749994,
          "velocity": 0.3937007874015748
        },
        {
          "duration": 0.10817296874999727,
          "durationTicks": 81,
          "midi": 57,
          "name": "A3",
          "ticks": 46398,
          "time": 61.96307906249999,
          "velocity": 0.2677165354330709
        },
        {
          "duration": 0.17093999999999454,
          "durationTicks": 128,
          "midi": 60,
          "name": "C4",
          "ticks": 46510,
          "time": 62.1126515625,
          "velocity": 0.2677165354330709
        },
        {
          "duration": 0.18028828125000018,
          "durationTicks": 135,
          "midi": 79,
          "name": "G5",
          "ticks": 46622,
          "time": 62.26222406249999,
          "velocity": 0.4566929133858268
        },
        {
          "duration": 0.09348281249999957,
          "durationTicks": 70,
          "midi": 74,
          "name": "D5",
          "ticks": 46638,
          "time": 62.28359156249999,
          "velocity": 0.3228346456692913
        },
        {
          "duration": 0.09615374999999915,
          "durationTicks": 72,
          "midi": 58,
          "name": "A#3",
          "ticks": 46646,
          "time": 62.29427531249999,
          "velocity": 0.29133858267716534
        },
        {
          "duration": 0.1642626562500027,
          "durationTicks": 123,
          "midi": 77,
          "name": "F5",
          "ticks": 46749,
          "time": 62.43182859374999,
          "velocity": 0.4094488188976378
        },
        {
          "duration": 0.25774546874999515,
          "durationTicks": 193,
          "midi": 58,
          "name": "A#3",
          "ticks": 46858,
          "time": 62.5773946875,
          "velocity": 0.31496062992125984
        },
        {
          "duration": 0.14423062499999872,
          "durationTicks": 108,
          "midi": 76,
          "name": "E5",
          "ticks": 46872,
          "time": 62.59609124999999,
          "velocity": 0.3858267716535433
        },
        {
          "duration": 0.285790312500005,
          "durationTicks": 214,
          "midi": 55,
          "name": "G3",
          "ticks": 46881,
          "time": 62.60811046874999,
          "velocity": 0.3543307086614173
        },
        {
          "duration": 0.14289515625000604,
          "durationTicks": 107,
          "midi": 74,
          "name": "D5",
          "ticks": 46988,
          "time": 62.75100562499999,
          "velocity": 0.4251968503937008
        },
        {
          "duration": 0.16693359374999517,
          "durationTicks": 125,
          "midi": 73,
          "name": "C#5",
          "ticks": 47095,
          "time": 62.89390078125,
          "velocity": 0.4645669291338583
        },
        {
          "duration": 0.24572624999999704,
          "durationTicks": 184,
          "midi": 57,
          "name": "A3",
          "ticks": 47103,
          "time": 62.904584531249995,
          "velocity": 0.48031496062992124
        },
        {
          "duration": 0.2817839062500056,
          "durationTicks": 211,
          "midi": 53,
          "name": "F3",
          "ticks": 47126,
          "time": 62.93530031249999,
          "velocity": 0.5826771653543307
        },
        {
          "duration": 0.1335468750000004,
          "durationTicks": 100,
          "midi": 74,
          "name": "D5",
          "ticks": 47220,
          "time": 63.06083437499999,
          "velocity": 0.5826771653543307
        },
        {
          "duration": 0.14556609374999852,
          "durationTicks": 109,
          "midi": 76,
          "name": "E5",
          "ticks": 47337,
          "time": 63.217084218749996,
          "velocity": 0.5196850393700787
        },
        {
          "duration": 0.30448687500000204,
          "durationTicks": 228,
          "midi": 58,
          "name": "A#3",
          "ticks": 47345,
          "time": 63.22776796874999,
          "velocity": 0.44881889763779526
        },
        {
          "duration": 0.07745718750000208,
          "durationTicks": 58,
          "midi": 55,
          "name": "G3",
          "ticks": 47351,
          "time": 63.23578078124999,
          "velocity": 0.4409448818897638
        },
        {
          "duration": 0.15624984375000395,
          "durationTicks": 117,
          "midi": 77,
          "name": "F5",
          "ticks": 47460,
          "time": 63.38134687499999,
          "velocity": 0.5511811023622047
        },
        {
          "duration": 0.22970062499999955,
          "durationTicks": 172,
          "midi": 55,
          "name": "G3",
          "ticks": 47577,
          "time": 63.537596718749995,
          "velocity": 0.5826771653543307
        },
        {
          "duration": 0.14155968749999914,
          "durationTicks": 106,
          "midi": 79,
          "name": "G5",
          "ticks": 47588,
          "time": 63.55228687499999,
          "velocity": 0.5748031496062992
        },
        {
          "duration": 0.5649032812499968,
          "durationTicks": 423,
          "midi": 52,
          "name": "E3",
          "ticks": 47594,
          "time": 63.56029968749999,
          "velocity": 0.5275590551181102
        },
        {
          "duration": 0.1335468750000004,
          "durationTicks": 100,
          "midi": 77,
          "name": "F5",
          "ticks": 47697,
          "time": 63.69785296874999,
          "velocity": 0.5196850393700787
        },
        {
          "duration": 0.12286312500000918,
          "durationTicks": 92,
          "midi": 76,
          "name": "E5",
          "ticks": 47819,
          "time": 63.86078015624999,
          "velocity": 0.48031496062992124
        },
        {
          "duration": 0.2644228124999941,
          "durationTicks": 198,
          "midi": 61,
          "name": "C#4",
          "ticks": 47825,
          "time": 63.86879296874999,
          "velocity": 0.6062992125984252
        },
        {
          "duration": 0.18429468749999955,
          "durationTicks": 138,
          "midi": 79,
          "name": "G5",
          "ticks": 47945,
          "time": 64.02904921874999,
          "velocity": 0.5433070866141733
        },
        {
          "duration": 0.15624984375000395,
          "durationTicks": 117,
          "midi": 62,
          "name": "D4",
          "ticks": 48070,
          "time": 64.19598281249999,
          "velocity": 0.5511811023622047
        },
        {
          "duration": 0.15357890625000437,
          "durationTicks": 115,
          "midi": 77,
          "name": "F5",
          "ticks": 48075,
          "time": 64.20266015624999,
          "velocity": 0.47244094488188976
        },
        {
          "duration": 0.16693359375000227,
          "durationTicks": 125,
          "midi": 50,
          "name": "D3",
          "ticks": 48075,
          "time": 64.20266015624999,
          "velocity": 0.4645669291338583
        },
        {
          "duration": 0.1629271875000029,
          "durationTicks": 122,
          "midi": 75,
          "name": "D#5",
          "ticks": 48195,
          "time": 64.36291640625,
          "velocity": 0.4094488188976378
        },
        {
          "duration": 0.25774546875000226,
          "durationTicks": 193,
          "midi": 56,
          "name": "G#3",
          "ticks": 48306,
          "time": 64.5111534375,
          "velocity": 0.4015748031496063
        },
        {
          "duration": 0.12954046874999392,
          "durationTicks": 97,
          "midi": 74,
          "name": "D5",
          "ticks": 48313,
          "time": 64.52050171875,
          "velocity": 0.4409448818897638
        },
        {
          "duration": 0.24305531250000456,
          "durationTicks": 182,
          "midi": 53,
          "name": "F3",
          "ticks": 48331,
          "time": 64.54454015625,
          "velocity": 0.44881889763779526
        },
        {
          "duration": 0.15224343750000457,
          "durationTicks": 114,
          "midi": 72,
          "name": "C5",
          "ticks": 48429,
          "time": 64.67541609374999,
          "velocity": 0.3464566929133858
        },
        {
          "duration": 0.32051250000000664,
          "durationTicks": 240,
          "midi": 55,
          "name": "G3",
          "ticks": 48540,
          "time": 64.82365312499999,
          "velocity": 0.4251968503937008
        },
        {
          "duration": 0.15357890625000437,
          "durationTicks": 115,
          "midi": 71,
          "name": "B4",
          "ticks": 48543,
          "time": 64.82765953124999,
          "velocity": 0.4881889763779528
        },
        {
          "duration": 0.3538992187500014,
          "durationTicks": 265,
          "midi": 51,
          "name": "D#3",
          "ticks": 48560,
          "time": 64.85036249999999,
          "velocity": 0.2125984251968504
        },
        {
          "duration": 0.08680546875000061,
          "durationTicks": 65,
          "midi": 72,
          "name": "C5",
          "ticks": 48668,
          "time": 64.994593125,
          "velocity": 0.4330708661417323
        },
        {
          "duration": 0.07745718750000208,
          "durationTicks": 58,
          "midi": 74,
          "name": "D5",
          "ticks": 48792,
          "time": 65.16019125,
          "velocity": 0.4645669291338583
        },
        {
          "duration": 0.3138351562499935,
          "durationTicks": 235,
          "midi": 56,
          "name": "G#3",
          "ticks": 48795,
          "time": 65.16419765625,
          "velocity": 0.3779527559055118
        },
        {
          "duration": 0.06543796875000396,
          "durationTicks": 49,
          "midi": 53,
          "name": "F3",
          "ticks": 48811,
          "time": 65.18556515625,
          "velocity": 0.41732283464566927
        },
        {
          "duration": 0.12553406250000876,
          "durationTicks": 94,
          "midi": 75,
          "name": "D#5",
          "ticks": 48914,
          "time": 65.32311843749999,
          "velocity": 0.4094488188976378
        },
        {
          "duration": 0.24706171875000393,
          "durationTicks": 185,
          "midi": 53,
          "name": "F3",
          "ticks": 49030,
          "time": 65.47803281249999,
          "velocity": 0.4251968503937008
        },
        {
          "duration": 0.09615374999999915,
          "durationTicks": 72,
          "midi": 77,
          "name": "F5",
          "ticks": 49039,
          "time": 65.49005203125,
          "velocity": 0.3937007874015748
        },
        {
          "duration": 0.6116446875000037,
          "durationTicks": 458,
          "midi": 50,
          "name": "D3",
          "ticks": 49044,
          "time": 65.49672937499999,
          "velocity": 0.3228346456692913
        },
        {
          "duration": 0.10683749999999748,
          "durationTicks": 80,
          "midi": 75,
          "name": "D#5",
          "ticks": 49151,
          "time": 65.63962453124999,
          "velocity": 0.4015748031496063
        },
        {
          "duration": 0.17093999999998744,
          "durationTicks": 128,
          "midi": 59,
          "name": "B3",
          "ticks": 49265,
          "time": 65.79186796875,
          "velocity": 0.3543307086614173
        },
        {
          "duration": 0.07478625000001671,
          "durationTicks": 56,
          "midi": 74,
          "name": "D5",
          "ticks": 49276,
          "time": 65.80655812499998,
          "velocity": 0.4409448818897638
        },
        {
          "duration": 0.11485031250001043,
          "durationTicks": 86,
          "midi": 77,
          "name": "F5",
          "ticks": 49393,
          "time": 65.96280796874998,
          "velocity": 0.3779527559055118
        },
        {
          "duration": 0.12820499999999413,
          "durationTicks": 96,
          "midi": 75,
          "name": "D#5",
          "ticks": 49519,
          "time": 66.13107703124999,
          "velocity": 0.36220472440944884
        },
        {
          "duration": 0.1482370312500052,
          "durationTicks": 111,
          "midi": 48,
          "name": "C3",
          "ticks": 49519,
          "time": 66.13107703124999,
          "velocity": 0.2677165354330709
        },
        {
          "duration": 0.20032031249999704,
          "durationTicks": 150,
          "midi": 60,
          "name": "C4",
          "ticks": 49522,
          "time": 66.13508343749999,
          "velocity": 0.36220472440944884
        },
        {
          "duration": 0.1776173437500006,
          "durationTicks": 133,
          "midi": 72,
          "name": "C5",
          "ticks": 49647,
          "time": 66.30201703124999,
          "velocity": 0.3779527559055118
        },
        {
          "duration": 0.37793765624998343,
          "durationTicks": 283,
          "midi": 60,
          "name": "C4",
          "ticks": 49775,
          "time": 66.47295703125,
          "velocity": 0.5118110236220472
        },
        {
          "duration": 0.1642626562500027,
          "durationTicks": 123,
          "midi": 71,
          "name": "B4",
          "ticks": 49780,
          "time": 66.47963437499999,
          "velocity": 0.5039370078740157
        },
        {
          "duration": 0.1335468749999933,
          "durationTicks": 100,
          "midi": 69,
          "name": "A4",
          "ticks": 49923,
          "time": 66.67060640624999,
          "velocity": 0.23622047244094488
        },
        {
          "duration": 0.31650609375000727,
          "durationTicks": 237,
          "midi": 63,
          "name": "D#4",
          "ticks": 50030,
          "time": 66.8135015625,
          "velocity": 0.6535433070866141
        },
        {
          "duration": 0.1629271875000029,
          "durationTicks": 122,
          "midi": 67,
          "name": "G4",
          "ticks": 50040,
          "time": 66.82685624999999,
          "velocity": 0.3543307086614173
        },
        {
          "duration": 0.17361093750000123,
          "durationTicks": 130,
          "midi": 65,
          "name": "F4",
          "ticks": 50168,
          "time": 66.99779625,
          "velocity": 0.3700787401574803
        },
        {
          "duration": 0.20032031249999704,
          "durationTicks": 150,
          "midi": 60,
          "name": "C4",
          "ticks": 50274,
          "time": 67.1393559375,
          "velocity": 0.5748031496062992
        },
        {
          "duration": 0.18963656249999872,
          "durationTicks": 142,
          "midi": 67,
          "name": "G4",
          "ticks": 50288,
          "time": 67.1580525,
          "velocity": 0.4645669291338583
        },
        {
          "duration": 0.20966859374999558,
          "durationTicks": 157,
          "midi": 72,
          "name": "C5",
          "ticks": 50415,
          "time": 67.32765703125,
          "velocity": 0.36220472440944884
        },
        {
          "duration": 0.36324749999998573,
          "durationTicks": 272,
          "midi": 67,
          "name": "G4",
          "ticks": 50552,
          "time": 67.51061625,
          "velocity": 0.5669291338582677
        },
        {
          "duration": 1.0964198437499846,
          "durationTicks": 821,
          "midi": 75,
          "name": "D#5",
          "ticks": 50558,
          "time": 67.5186290625,
          "velocity": 0.5433070866141733
        },
        {
          "duration": 0.1602562499999891,
          "durationTicks": 120,
          "midi": 48,
          "name": "C3",
          "ticks": 50672,
          "time": 67.6708725,
          "velocity": 0.33070866141732286
        },
        {
          "duration": 0.2510681249999891,
          "durationTicks": 188,
          "midi": 58,
          "name": "A#3",
          "ticks": 50795,
          "time": 67.83513515625,
          "velocity": 0.4881889763779528
        },
        {
          "duration": 0.12954046875000813,
          "durationTicks": 97,
          "midi": 51,
          "name": "D#3",
          "ticks": 50806,
          "time": 67.84982531249999,
          "velocity": 0.4330708661417323
        },
        {
          "duration": 0.1348823437500073,
          "durationTicks": 101,
          "midi": 48,
          "name": "C3",
          "ticks": 50922,
          "time": 68.00473968749999,
          "velocity": 0.4409448818897638
        },
        {
          "duration": 0.30315140624999515,
          "durationTicks": 227,
          "midi": 56,
          "name": "G#3",
          "ticks": 51050,
          "time": 68.1756796875,
          "velocity": 0.5196850393700787
        },
        {
          "duration": 0.18696562500001335,
          "durationTicks": 140,
          "midi": 53,
          "name": "F3",
          "ticks": 51075,
          "time": 68.20906640624999,
          "velocity": 0.6141732283464567
        },
        {
          "duration": 0.14155968749999204,
          "durationTicks": 106,
          "midi": 62,
          "name": "D4",
          "ticks": 51296,
          "time": 68.504205,
          "velocity": 0.49606299212598426
        },
        {
          "duration": 0.3432154687500031,
          "durationTicks": 257,
          "midi": 68,
          "name": "G#4",
          "ticks": 51301,
          "time": 68.51088234374998,
          "velocity": 0.4566929133858268
        },
        {
          "duration": 0.15224343750000457,
          "durationTicks": 114,
          "midi": 60,
          "name": "C4",
          "ticks": 51405,
          "time": 68.64977109374999,
          "velocity": 0.5511811023622047
        },
        {
          "duration": 0.1629271875000029,
          "durationTicks": 122,
          "midi": 63,
          "name": "D#4",
          "ticks": 51541,
          "time": 68.83139484374999,
          "velocity": 0.6220472440944882
        },
        {
          "duration": 0.28979671874999724,
          "durationTicks": 217,
          "midi": 67,
          "name": "G4",
          "ticks": 51546,
          "time": 68.83807218749999,
          "velocity": 0.5669291338582677
        },
        {
          "duration": 0.14155968750000625,
          "durationTicks": 106,
          "midi": 62,
          "name": "D4",
          "ticks": 51671,
          "time": 69.00500578124999,
          "velocity": 0.49606299212598426
        },
        {
          "duration": 0.34588640624998845,
          "durationTicks": 259,
          "midi": 68,
          "name": "G#4",
          "ticks": 51783,
          "time": 69.15457828125,
          "velocity": 0.5275590551181102
        },
        {
          "duration": 0.15224343749999036,
          "durationTicks": 114,
          "midi": 60,
          "name": "C4",
          "ticks": 51789,
          "time": 69.16259109375,
          "velocity": 0.33070866141732286
        },
        {
          "duration": 0.06543796874998975,
          "durationTicks": 49,
          "midi": 58,
          "name": "A#3",
          "ticks": 51887,
          "time": 69.29346703125,
          "velocity": 0.4330708661417323
        },
        {
          "duration": 0.11084390625001106,
          "durationTicks": 83,
          "midi": 65,
          "name": "F4",
          "ticks": 52023,
          "time": 69.47509078124999,
          "velocity": 0.4881889763779528
        },
        {
          "duration": 0.2550745312500027,
          "durationTicks": 191,
          "midi": 74,
          "name": "D5",
          "ticks": 52027,
          "time": 69.48043265624999,
          "velocity": 0.5354330708661418
        },
        {
          "duration": 0.16159171875001732,
          "durationTicks": 121,
          "midi": 46,
          "name": "A#2",
          "ticks": 52132,
          "time": 69.62065687499998,
          "velocity": 0.4015748031496063
        },
        {
          "duration": 0.6757471874999936,
          "durationTicks": 506,
          "midi": 77,
          "name": "F5",
          "ticks": 52274,
          "time": 69.8102934375,
          "velocity": 0.5196850393700787
        },
        {
          "duration": 0.20299124999999663,
          "durationTicks": 152,
          "midi": 56,
          "name": "G#3",
          "ticks": 52285,
          "time": 69.82498359374999,
          "velocity": 0.29133858267716534
        },
        {
          "duration": 0.13488234374999308,
          "durationTicks": 101,
          "midi": 46,
          "name": "A#2",
          "ticks": 52379,
          "time": 69.95051765625,
          "velocity": 0.29133858267716534
        },
        {
          "duration": 0.1041665624999979,
          "durationTicks": 78,
          "midi": 55,
          "name": "G3",
          "ticks": 52510,
          "time": 70.12546406249999,
          "velocity": 0.5118110236220472
        },
        {
          "duration": 0.05208328125000605,
          "durationTicks": 39,
          "midi": 51,
          "name": "D#3",
          "ticks": 52513,
          "time": 70.12947046874999,
          "velocity": 0.4015748031496063
        },
        {
          "duration": 0.17227546875000144,
          "durationTicks": 129,
          "midi": 58,
          "name": "A#3",
          "ticks": 52635,
          "time": 70.29239765624999,
          "velocity": 0.2677165354330709
        },
        {
          "duration": 0.3271898437500056,
          "durationTicks": 245,
          "midi": 70,
          "name": "A#4",
          "ticks": 52755,
          "time": 70.45265390624999,
          "velocity": 0.44881889763779526
        },
        {
          "duration": 0.09615374999999915,
          "durationTicks": 72,
          "midi": 60,
          "name": "C4",
          "ticks": 52755,
          "time": 70.45265390624999,
          "velocity": 0.5275590551181102
        },
        {
          "duration": 0.15090796874999057,
          "durationTicks": 113,
          "midi": 62,
          "name": "D4",
          "ticks": 52862,
          "time": 70.5955490625,
          "velocity": 0.44881889763779526
        },
        {
          "duration": 0.10683750000001169,
          "durationTicks": 80,
          "midi": 63,
          "name": "D#4",
          "ticks": 52987,
          "time": 70.76248265624999,
          "velocity": 0.5433070866141733
        },
        {
          "duration": 0.31917703124999264,
          "durationTicks": 239,
          "midi": 72,
          "name": "C5",
          "ticks": 52995,
          "time": 70.77316640625,
          "velocity": 0.5433070866141733
        },
        {
          "duration": 0.17094000000000165,
          "durationTicks": 128,
          "midi": 62,
          "name": "D4",
          "ticks": 53109,
          "time": 70.92540984374999,
          "velocity": 0.4251968503937008
        },
        {
          "duration": 0.11485031250001043,
          "durationTicks": 86,
          "midi": 63,
          "name": "D#4",
          "ticks": 53226,
          "time": 71.0816596875,
          "velocity": 0.5039370078740157
        },
        {
          "duration": 0.3525637500000016,
          "durationTicks": 264,
          "midi": 70,
          "name": "A#4",
          "ticks": 53226,
          "time": 71.0816596875,
          "velocity": 0.47244094488188976
        },
        {
          "duration": 0.042734999999993306,
          "durationTicks": 32,
          "midi": 65,
          "name": "F4",
          "ticks": 53348,
          "time": 71.244586875,
          "velocity": 0.4330708661417323
        },
        {
          "duration": 0.21901687500000833,
          "durationTicks": 164,
          "midi": 75,
          "name": "D#5",
          "ticks": 53466,
          "time": 71.40217218749999,
          "velocity": 0.44881889763779526
        },
        {
          "duration": 0.07478624999998829,
          "durationTicks": 56,
          "midi": 67,
          "name": "G4",
          "ticks": 53474,
          "time": 71.4128559375,
          "velocity": 0.3858267716535433
        },
        {
          "duration": 0.1629271875000029,
          "durationTicks": 122,
          "midi": 51,
          "name": "D#3",
          "ticks": 53577,
          "time": 71.55040921874999,
          "velocity": 0.3937007874015748
        },
        {
          "duration": 0.2670937500000008,
          "durationTicks": 200,
          "midi": 63,
          "name": "D#4",
          "ticks": 53703,
          "time": 71.71867828124999,
          "velocity": 0.3779527559055118
        },
        {
          "duration": 0.3712603124999987,
          "durationTicks": 278,
          "midi": 67,
          "name": "G4",
          "ticks": 53711,
          "time": 71.72936203124999,
          "velocity": 0.44881889763779526
        },
        {
          "duration": 0.09748921875001315,
          "durationTicks": 73,
          "midi": 55,
          "name": "G3",
          "ticks": 53719,
          "time": 71.74004578124999,
          "velocity": 0.41732283464566927
        },
        {
          "duration": 0.14957249999999078,
          "durationTicks": 112,
          "midi": 51,
          "name": "D#3",
          "ticks": 53828,
          "time": 71.885611875,
          "velocity": 0.4330708661417323
        },
        {
          "duration": 0.3725957812499985,
          "durationTicks": 279,
          "midi": 65,
          "name": "F4",
          "ticks": 53964,
          "time": 72.067235625,
          "velocity": 0.44881889763779526
        },
        {
          "duration": 0.32051250000000664,
          "durationTicks": 240,
          "midi": 58,
          "name": "A#3",
          "ticks": 53975,
          "time": 72.08192578124999,
          "velocity": 0.31496062992125984
        },
        {
          "duration": 0.2938031249999966,
          "durationTicks": 220,
          "midi": 56,
          "name": "G#3",
          "ticks": 54231,
          "time": 72.42380578125,
          "velocity": 0.3937007874015748
        },
        {
          "duration": 0.13888875000000667,
          "durationTicks": 104,
          "midi": 74,
          "name": "D5",
          "ticks": 54231,
          "time": 72.42380578125,
          "velocity": 0.5826771653543307
        },
        {
          "duration": 0.15491437499998995,
          "durationTicks": 116,
          "midi": 72,
          "name": "C5",
          "ticks": 54335,
          "time": 72.56269453125,
          "velocity": 0.5196850393700787
        },
        {
          "duration": 0.17494640625000102,
          "durationTicks": 131,
          "midi": 75,
          "name": "D#5",
          "ticks": 54463,
          "time": 72.73363453124999,
          "velocity": 0.5511811023622047
        },
        {
          "duration": 0.2524035937500031,
          "durationTicks": 189,
          "midi": 55,
          "name": "G3",
          "ticks": 54474,
          "time": 72.74832468749999,
          "velocity": 0.3543307086614173
        },
        {
          "duration": 0.17227546875000144,
          "durationTicks": 129,
          "midi": 74,
          "name": "D5",
          "ticks": 54574,
          "time": 72.88187156249998,
          "velocity": 0.6299212598425197
        },
        {
          "duration": 0.2657582812500152,
          "durationTicks": 199,
          "midi": 56,
          "name": "G#3",
          "ticks": 54691,
          "time": 73.03812140624999,
          "velocity": 0.4094488188976378
        },
        {
          "duration": 0.15357890625001858,
          "durationTicks": 115,
          "midi": 72,
          "name": "C5",
          "ticks": 54697,
          "time": 73.04613421874998,
          "velocity": 0.5905511811023622
        },
        {
          "duration": 0.2056621874999962,
          "durationTicks": 154,
          "midi": 70,
          "name": "A#4",
          "ticks": 54803,
          "time": 73.18769390624999,
          "velocity": 0.5511811023622047
        },
        {
          "duration": 0.13087593750000792,
          "durationTicks": 98,
          "midi": 77,
          "name": "F5",
          "ticks": 54942,
          "time": 73.37332406249999,
          "velocity": 0.5669291338582677
        },
        {
          "duration": 0.08146359375000145,
          "durationTicks": 61,
          "midi": 62,
          "name": "D4",
          "ticks": 54954,
          "time": 73.38934968749999,
          "velocity": 0.3543307086614173
        },
        {
          "duration": 0.15224343749999036,
          "durationTicks": 114,
          "midi": 58,
          "name": "A#3",
          "ticks": 55057,
          "time": 73.52690296875,
          "velocity": 0.3464566929133858
        },
        {
          "duration": 0.3819440625000112,
          "durationTicks": 286,
          "midi": 68,
          "name": "G#4",
          "ticks": 55171,
          "time": 73.67914640624998,
          "velocity": 0.4645669291338583
        },
        {
          "duration": 0.19631390624999767,
          "durationTicks": 147,
          "midi": 65,
          "name": "F4",
          "ticks": 55182,
          "time": 73.6938365625,
          "velocity": 0.3228346456692913
        },
        {
          "duration": 0.08146359375000145,
          "durationTicks": 61,
          "midi": 62,
          "name": "D4",
          "ticks": 55190,
          "time": 73.7045203125,
          "velocity": 0.47244094488188976
        },
        {
          "duration": 0.11485031250001043,
          "durationTicks": 86,
          "midi": 58,
          "name": "A#3",
          "ticks": 55318,
          "time": 73.87546031249998,
          "velocity": 0.30708661417322836
        },
        {
          "duration": 0.28846124999999745,
          "durationTicks": 216,
          "midi": 67,
          "name": "G4",
          "ticks": 55430,
          "time": 74.0250328125,
          "velocity": 0.4645669291338583
        },
        {
          "duration": 0.26175187500000163,
          "durationTicks": 196,
          "midi": 63,
          "name": "D#4",
          "ticks": 55457,
          "time": 74.06109046875,
          "velocity": 0.23622047244094488
        },
        {
          "duration": 0.15624984374998974,
          "durationTicks": 117,
          "midi": 75,
          "name": "D#5",
          "ticks": 55681,
          "time": 74.36023546874999,
          "velocity": 0.4409448818897638
        },
        {
          "duration": 0.09348281250001378,
          "durationTicks": 70,
          "midi": 55,
          "name": "G3",
          "ticks": 55705,
          "time": 74.39228671874999,
          "velocity": 0.25984251968503935
        },
        {
          "duration": 0.08547000000001503,
          "durationTicks": 64,
          "midi": 56,
          "name": "G#3",
          "ticks": 55798,
          "time": 74.51648531249998,
          "velocity": 0.3779527559055118
        },
        {
          "duration": 0.09615374999999915,
          "durationTicks": 72,
          "midi": 77,
          "name": "F5",
          "ticks": 55803,
          "time": 74.52316265625,
          "velocity": 0.4330708661417323
        },
        {
          "duration": 0.13755328124999266,
          "durationTicks": 103,
          "midi": 58,
          "name": "A#3",
          "ticks": 55925,
          "time": 74.68608984375,
          "velocity": 0.3464566929133858
        },
        {
          "duration": 0.12553406249999455,
          "durationTicks": 94,
          "midi": 74,
          "name": "D5",
          "ticks": 55929,
          "time": 74.69143171875,
          "velocity": 0.5196850393700787
        },
        {
          "duration": 0.14289515624999183,
          "durationTicks": 107,
          "midi": 75,
          "name": "D#5",
          "ticks": 56045,
          "time": 74.84634609375,
          "velocity": 0.5196850393700787
        },
        {
          "duration": 0.11084390624999685,
          "durationTicks": 83,
          "midi": 58,
          "name": "A#3",
          "ticks": 56152,
          "time": 74.98924124999999,
          "velocity": 0.41732283464566927
        },
        {
          "duration": 0.13888874999999246,
          "durationTicks": 104,
          "midi": 50,
          "name": "D3",
          "ticks": 56156,
          "time": 74.99458312499999,
          "velocity": 0.5905511811023622
        },
        {
          "duration": 0.1629271875000029,
          "durationTicks": 122,
          "midi": 77,
          "name": "F5",
          "ticks": 56162,
          "time": 75.00259593749999,
          "velocity": 0.5511811023622047
        },
        {
          "duration": 0.13621781250000708,
          "durationTicks": 102,
          "midi": 51,
          "name": "D#3",
          "ticks": 56260,
          "time": 75.13347187499998,
          "velocity": 0.5118110236220472
        },
        {
          "duration": 0.0747862500000025,
          "durationTicks": 56,
          "midi": 79,
          "name": "G5",
          "ticks": 56274,
          "time": 75.1521684375,
          "velocity": 0.5433070866141733
        },
        {
          "duration": 0.15624984375000395,
          "durationTicks": 117,
          "midi": 80,
          "name": "G#5",
          "ticks": 56399,
          "time": 75.31910203125,
          "velocity": 0.5511811023622047
        },
        {
          "duration": 0.1495725000000192,
          "durationTicks": 112,
          "midi": 58,
          "name": "A#3",
          "ticks": 56404,
          "time": 75.32577937499998,
          "velocity": 0.4566929133858268
        },
        {
          "duration": 0.11351484374999643,
          "durationTicks": 85,
          "midi": 53,
          "name": "F3",
          "ticks": 56408,
          "time": 75.33112125,
          "velocity": 0.7559055118110236
        },
        {
          "duration": 0.16559812500000248,
          "durationTicks": 124,
          "midi": 51,
          "name": "D#3",
          "ticks": 56486,
          "time": 75.4352878125,
          "velocity": 0.4881889763779528
        },
        {
          "duration": 0.08279906249998703,
          "durationTicks": 62,
          "midi": 79,
          "name": "G5",
          "ticks": 56516,
          "time": 75.475351875,
          "velocity": 0.5511811023622047
        },
        {
          "duration": 0.0747862500000025,
          "durationTicks": 56,
          "midi": 58,
          "name": "A#3",
          "ticks": 56635,
          "time": 75.63427265624999,
          "velocity": 0.4251968503937008
        },
        {
          "duration": 0.10817296874999727,
          "durationTicks": 81,
          "midi": 77,
          "name": "F5",
          "ticks": 56635,
          "time": 75.63427265624999,
          "velocity": 0.48031496062992124
        },
        {
          "duration": 0.12419859374999476,
          "durationTicks": 93,
          "midi": 50,
          "name": "D3",
          "ticks": 56635,
          "time": 75.63427265624999,
          "velocity": 0.5433070866141733
        },
        {
          "duration": 0.15624984375000395,
          "durationTicks": 117,
          "midi": 80,
          "name": "G#5",
          "ticks": 56741,
          "time": 75.77583234375,
          "velocity": 0.5669291338582677
        },
        {
          "duration": 0.06276703125000438,
          "durationTicks": 47,
          "midi": 53,
          "name": "F3",
          "ticks": 56767,
          "time": 75.81055453124999,
          "velocity": 0.3937007874015748
        },
        {
          "duration": 0.15892078124998932,
          "durationTicks": 119,
          "midi": 58,
          "name": "A#3",
          "ticks": 56873,
          "time": 75.95211421875,
          "velocity": 0.3937007874015748
        },
        {
          "duration": 0.14155968749999204,
          "durationTicks": 106,
          "midi": 79,
          "name": "G5",
          "ticks": 56876,
          "time": 75.956120625,
          "velocity": 0.6456692913385826
        },
        {
          "duration": 0.28579031249999787,
          "durationTicks": 214,
          "midi": 51,
          "name": "D#3",
          "ticks": 56876,
          "time": 75.956120625,
          "velocity": 0.4645669291338583
        },
        {
          "duration": 0.18963656250001293,
          "durationTicks": 142,
          "midi": 77,
          "name": "F5",
          "ticks": 56992,
          "time": 76.11103499999999,
          "velocity": 0.4409448818897638
        },
        {
          "duration": 0.09748921874999894,
          "durationTicks": 73,
          "midi": 56,
          "name": "G#3",
          "ticks": 57000,
          "time": 76.12171874999999,
          "velocity": 0.4409448818897638
        },
        {
          "duration": 0.17094000000000165,
          "durationTicks": 128,
          "midi": 75,
          "name": "D#5",
          "ticks": 57109,
          "time": 76.26728484374999,
          "velocity": 0.5905511811023622
        },
        {
          "duration": 0.15892078125000353,
          "durationTicks": 119,
          "midi": 55,
          "name": "G3",
          "ticks": 57118,
          "time": 76.27930406249999,
          "velocity": 0.4409448818897638
        },
        {
          "duration": 0.15090796874999057,
          "durationTicks": 113,
          "midi": 77,
          "name": "F5",
          "ticks": 57227,
          "time": 76.42487015625,
          "velocity": 0.49606299212598426
        },
        {
          "duration": 0.13087593750000792,
          "durationTicks": 98,
          "midi": 56,
          "name": "G#3",
          "ticks": 57237,
          "time": 76.43822484374999,
          "velocity": 0.5196850393700787
        },
        {
          "duration": 0.14957249999999078,
          "durationTicks": 112,
          "midi": 74,
          "name": "D5",
          "ticks": 57357,
          "time": 76.59848109375,
          "velocity": 0.5826771653543307
        },
        {
          "duration": 0.1014956249999841,
          "durationTicks": 76,
          "midi": 58,
          "name": "A#3",
          "ticks": 57357,
          "time": 76.59848109375,
          "velocity": 0.5196850393700787
        },
        {
          "duration": 0.149572500000005,
          "durationTicks": 112,
          "midi": 75,
          "name": "D#5",
          "ticks": 57469,
          "time": 76.74805359374999,
          "velocity": 0.5433070866141733
        },
        {
          "duration": 0.12686953125000855,
          "durationTicks": 95,
          "midi": 77,
          "name": "F5",
          "ticks": 57594,
          "time": 76.91498718749999,
          "velocity": 0.5590551181102362
        },
        {
          "duration": 0.0600960937500048,
          "durationTicks": 45,
          "midi": 50,
          "name": "D3",
          "ticks": 57594,
          "time": 76.91498718749999,
          "velocity": 0.5039370078740157
        },
        {
          "duration": 0.0734507812500027,
          "durationTicks": 55,
          "midi": 58,
          "name": "A#3",
          "ticks": 57594,
          "time": 76.91498718749999,
          "velocity": 0.3779527559055118
        },
        {
          "duration": 0.07879265625001608,
          "durationTicks": 59,
          "midi": 51,
          "name": "D#3",
          "ticks": 57700,
          "time": 77.05654687499998,
          "velocity": 0.4409448818897638
        },
        {
          "duration": 0.06276703125000438,
          "durationTicks": 47,
          "midi": 79,
          "name": "G5",
          "ticks": 57709,
          "time": 77.06856609375,
          "velocity": 0.5511811023622047
        },
        {
          "duration": 0.1469015625000054,
          "durationTicks": 110,
          "midi": 80,
          "name": "G#5",
          "ticks": 57829,
          "time": 77.22882234374998,
          "velocity": 0.5748031496062992
        },
        {
          "duration": 0.13755328125000688,
          "durationTicks": 103,
          "midi": 58,
          "name": "A#3",
          "ticks": 57829,
          "time": 77.22882234374998,
          "velocity": 0.4251968503937008
        },
        {
          "duration": 0.07077984374998891,
          "durationTicks": 53,
          "midi": 53,
          "name": "F3",
          "ticks": 57842,
          "time": 77.2461834375,
          "velocity": 0.6614173228346457
        },
        {
          "duration": 0.16960453125000186,
          "durationTicks": 127,
          "midi": 51,
          "name": "D#3",
          "ticks": 57932,
          "time": 77.36637562499999,
          "velocity": 0.4251968503937008
        },
        {
          "duration": 0.06677343750000375,
          "durationTicks": 50,
          "midi": 79,
          "name": "G5",
          "ticks": 57945,
          "time": 77.38373671874999,
          "velocity": 0.5984251968503937
        },
        {
          "duration": 0.09748921874999894,
          "durationTicks": 73,
          "midi": 77,
          "name": "F5",
          "ticks": 58059,
          "time": 77.53598015624999,
          "velocity": 0.5354330708661418
        },
        {
          "duration": 0.09214734374999978,
          "durationTicks": 69,
          "midi": 50,
          "name": "D3",
          "ticks": 58063,
          "time": 77.54132203124999,
          "velocity": 0.4881889763779528
        },
        {
          "duration": 0.07077984374998891,
          "durationTicks": 53,
          "midi": 58,
          "name": "A#3",
          "ticks": 58088,
          "time": 77.57470875,
          "velocity": 0.2755905511811024
        },
        {
          "duration": 0.14155968749999204,
          "durationTicks": 106,
          "midi": 80,
          "name": "G#5",
          "ticks": 58163,
          "time": 77.67486890625,
          "velocity": 0.5984251968503937
        },
        {
          "duration": 0.0734507812499885,
          "durationTicks": 55,
          "midi": 53,
          "name": "F3",
          "ticks": 58163,
          "time": 77.67486890625,
          "velocity": 0.6614173228346457
        },
        {
          "duration": 0.49545890624999345,
          "durationTicks": 371,
          "midi": 79,
          "name": "G5",
          "ticks": 58310,
          "time": 77.8711828125,
          "velocity": 0.6614173228346457
        },
        {
          "duration": 0.06810890625000354,
          "durationTicks": 51,
          "midi": 58,
          "name": "A#3",
          "ticks": 58310,
          "time": 77.8711828125,
          "velocity": 0.3700787401574803
        },
        {
          "duration": 0.0600960937500048,
          "durationTicks": 45,
          "midi": 51,
          "name": "D#3",
          "ticks": 58310,
          "time": 77.8711828125,
          "velocity": 0.4330708661417323
        },
        {
          "duration": 0.2791129687499989,
          "durationTicks": 209,
          "midi": 63,
          "name": "D#4",
          "ticks": 58549,
          "time": 78.19035984374999,
          "velocity": 0.4094488188976378
        },
        {
          "duration": 0.1041665624999979,
          "durationTicks": 78,
          "midi": 77,
          "name": "F5",
          "ticks": 58669,
          "time": 78.35061609374999,
          "velocity": 0.48031496062992124
        },
        {
          "duration": 0.148237031249991,
          "durationTicks": 111,
          "midi": 75,
          "name": "D#5",
          "ticks": 58798,
          "time": 78.52289156249999,
          "velocity": 0.4251968503937008
        },
        {
          "duration": 0.32051250000000664,
          "durationTicks": 240,
          "midi": 67,
          "name": "G4",
          "ticks": 58805,
          "time": 78.53223984374999,
          "velocity": 0.5511811023622047
        },
        {
          "duration": 0.14155968749999204,
          "durationTicks": 106,
          "midi": 74,
          "name": "D5",
          "ticks": 58923,
          "time": 78.68982515625,
          "velocity": 0.4566929133858268
        },
        {
          "duration": 0.18295921874999976,
          "durationTicks": 137,
          "midi": 75,
          "name": "D#5",
          "ticks": 59032,
          "time": 78.83539124999999,
          "velocity": 0.4566929133858268
        },
        {
          "duration": 0.12553406249999455,
          "durationTicks": 94,
          "midi": 63,
          "name": "D#4",
          "ticks": 59051,
          "time": 78.86076515625,
          "velocity": 0.4330708661417323
        },
        {
          "duration": 0.16693359375000227,
          "durationTicks": 125,
          "midi": 77,
          "name": "F5",
          "ticks": 59166,
          "time": 79.01434406249999,
          "velocity": 0.5039370078740157
        },
        {
          "duration": 0.2777774999999991,
          "durationTicks": 208,
          "midi": 70,
          "name": "A#4",
          "ticks": 59286,
          "time": 79.17460031249999,
          "velocity": 0.4094488188976378
        },
        {
          "duration": 0.14155968750000625,
          "durationTicks": 106,
          "midi": 79,
          "name": "G5",
          "ticks": 59301,
          "time": 79.19463234374999,
          "velocity": 0.5118110236220472
        },
        {
          "duration": 0.09081187499999999,
          "durationTicks": 68,
          "midi": 51,
          "name": "D#3",
          "ticks": 59407,
          "time": 79.33619203125,
          "velocity": 0.3228346456692913
        },
        {
          "duration": 0.7371787499999982,
          "durationTicks": 552,
          "midi": 82,
          "name": "A#5",
          "ticks": 59530,
          "time": 79.50045468749998,
          "velocity": 0.5433070866141733
        },
        {
          "duration": 0.148237031249991,
          "durationTicks": 111,
          "midi": 62,
          "name": "D4",
          "ticks": 59541,
          "time": 79.51514484375,
          "velocity": 0.4251968503937008
        },
        {
          "duration": 0.11485031250001043,
          "durationTicks": 86,
          "midi": 55,
          "name": "G3",
          "ticks": 59553,
          "time": 79.53117046874999,
          "velocity": 0.3543307086614173
        },
        {
          "duration": 0.07612171875000229,
          "durationTicks": 57,
          "midi": 51,
          "name": "D#3",
          "ticks": 59662,
          "time": 79.67673656249998,
          "velocity": 0.4015748031496063
        },
        {
          "duration": 0.17895281249998618,
          "durationTicks": 134,
          "midi": 60,
          "name": "C4",
          "ticks": 59789,
          "time": 79.84634109375,
          "velocity": 0.4094488188976378
        },
        {
          "duration": 0.10950843750001127,
          "durationTicks": 82,
          "midi": 53,
          "name": "F3",
          "ticks": 59794,
          "time": 79.85301843749998,
          "velocity": 0.5826771653543307
        },
        {
          "duration": 0.27377109374999975,
          "durationTicks": 205,
          "midi": 75,
          "name": "D#5",
          "ticks": 60038,
          "time": 80.17887281249999,
          "velocity": 0.4881889763779528
        },
        {
          "duration": 0.0868054687499864,
          "durationTicks": 65,
          "midi": 69,
          "name": "A4",
          "ticks": 60041,
          "time": 80.18287921875,
          "velocity": 0.5118110236220472
        },
        {
          "duration": 0.15491437499998995,
          "durationTicks": 116,
          "midi": 67,
          "name": "G4",
          "ticks": 60149,
          "time": 80.32710984375,
          "velocity": 0.5669291338582677
        },
        {
          "duration": 0.27377109374999975,
          "durationTicks": 205,
          "midi": 74,
          "name": "D5",
          "ticks": 60272,
          "time": 80.4913725,
          "velocity": 0.6220472440944882
        },
        {
          "duration": 0.206997656249996,
          "durationTicks": 155,
          "midi": 70,
          "name": "A#4",
          "ticks": 60272,
          "time": 80.4913725,
          "velocity": 0.5826771653543307
        },
        {
          "duration": 0.15624984375000395,
          "durationTicks": 117,
          "midi": 69,
          "name": "A4",
          "ticks": 60399,
          "time": 80.66097703124998,
          "velocity": 0.4251968503937008
        },
        {
          "duration": 0.15624984374998974,
          "durationTicks": 117,
          "midi": 67,
          "name": "G4",
          "ticks": 60508,
          "time": 80.80654312499999,
          "velocity": 0.5118110236220472
        },
        {
          "duration": 0.30181593749999536,
          "durationTicks": 226,
          "midi": 75,
          "name": "D#5",
          "ticks": 60516,
          "time": 80.81722687499999,
          "velocity": 0.5118110236220472
        },
        {
          "duration": 0.04407046875000731,
          "durationTicks": 33,
          "midi": 65,
          "name": "F4",
          "ticks": 60625,
          "time": 80.96279296874998,
          "velocity": 0.44881889763779526
        },
        {
          "duration": 0.24973265625001773,
          "durationTicks": 187,
          "midi": 72,
          "name": "C5",
          "ticks": 60745,
          "time": 81.12304921874998,
          "velocity": 0.4645669291338583
        },
        {
          "duration": 0.17094000000000165,
          "durationTicks": 128,
          "midi": 81,
          "name": "A5",
          "ticks": 60751,
          "time": 81.13106203124998,
          "velocity": 0.4881889763779528
        },
        {
          "duration": 0.11752125000001001,
          "durationTicks": 88,
          "midi": 53,
          "name": "F3",
          "ticks": 60865,
          "time": 81.28330546874999,
          "velocity": 0.44881889763779526
        },
        {
          "duration": 0.33119625000000497,
          "durationTicks": 248,
          "midi": 84,
          "name": "C6",
          "ticks": 60990,
          "time": 81.45023906249999,
          "velocity": 0.5590551181102362
        },
        {
          "duration": 0.16826906250000206,
          "durationTicks": 126,
          "midi": 63,
          "name": "D#4",
          "ticks": 61003,
          "time": 81.46760015624999,
          "velocity": 0.3700787401574803
        },
        {
          "duration": 0.07879265624998766,
          "durationTicks": 59,
          "midi": 57,
          "name": "A3",
          "ticks": 61007,
          "time": 81.47294203125,
          "velocity": 0.2440944881889764
        },
        {
          "duration": 0.09348281250001378,
          "durationTicks": 70,
          "midi": 53,
          "name": "F3",
          "ticks": 61099,
          "time": 81.59580515624998,
          "velocity": 0.5748031496062992
        },
        {
          "duration": 0.27510656249998533,
          "durationTicks": 206,
          "midi": 58,
          "name": "A#3",
          "ticks": 61238,
          "time": 81.7814353125,
          "velocity": 0.44881889763779526
        },
        {
          "duration": 0.2924676562499968,
          "durationTicks": 219,
          "midi": 62,
          "name": "D4",
          "ticks": 61241,
          "time": 81.78544171875,
          "velocity": 0.5275590551181102
        },
        {
          "duration": 0.149572500000005,
          "durationTicks": 112,
          "midi": 70,
          "name": "A#4",
          "ticks": 61480,
          "time": 82.10461874999999,
          "velocity": 0.4251968503937008
        },
        {
          "duration": 0.07879265625001608,
          "durationTicks": 59,
          "midi": 74,
          "name": "D5",
          "ticks": 61485,
          "time": 82.11129609374998,
          "velocity": 0.5590551181102362
        },
        {
          "duration": 0.17094000000000165,
          "durationTicks": 128,
          "midi": 75,
          "name": "D#5",
          "ticks": 61592,
          "time": 82.25419124999999,
          "velocity": 0.49606299212598426
        },
        {
          "duration": 0.06677343749998954,
          "durationTicks": 50,
          "midi": 72,
          "name": "C5",
          "ticks": 61595,
          "time": 82.25819765624999,
          "velocity": 0.44881889763779526
        },
        {
          "duration": 0.15491437499998995,
          "durationTicks": 116,
          "midi": 77,
          "name": "F5",
          "ticks": 61715,
          "time": 82.41845390625,
          "velocity": 0.6535433070866141
        },
        {
          "duration": 0.07612171875000229,
          "durationTicks": 57,
          "midi": 69,
          "name": "A4",
          "ticks": 61715,
          "time": 82.41845390625,
          "velocity": 0.49606299212598426
        },
        {
          "duration": 0.14022421875000646,
          "durationTicks": 105,
          "midi": 70,
          "name": "A#4",
          "ticks": 61818,
          "time": 82.55600718749999,
          "velocity": 0.5118110236220472
        },
        {
          "duration": 0.07612171875000229,
          "durationTicks": 57,
          "midi": 57,
          "name": "A3",
          "ticks": 61942,
          "time": 82.72160531249999,
          "velocity": 0.48031496062992124
        },
        {
          "duration": 0.058760624999976585,
          "durationTicks": 44,
          "midi": 72,
          "name": "C5",
          "ticks": 61946,
          "time": 82.7269471875,
          "velocity": 0.49606299212598426
        },
        {
          "duration": 0.11752124999998159,
          "durationTicks": 88,
          "midi": 77,
          "name": "F5",
          "ticks": 61946,
          "time": 82.7269471875,
          "velocity": 0.6220472440944882
        },
        {
          "duration": 0.06410249999998996,
          "durationTicks": 48,
          "midi": 74,
          "name": "D5",
          "ticks": 62040,
          "time": 82.85248125,
          "velocity": 0.5433070866141733
        },
        {
          "duration": 0.07745718750000208,
          "durationTicks": 58,
          "midi": 58,
          "name": "A#3",
          "ticks": 62054,
          "time": 82.8711778125,
          "velocity": 0.4015748031496063
        },
        {
          "duration": 0.14423062500000583,
          "durationTicks": 108,
          "midi": 75,
          "name": "D#5",
          "ticks": 62166,
          "time": 83.02075031249998,
          "velocity": 0.5354330708661418
        },
        {
          "duration": 0.09348281250001378,
          "durationTicks": 70,
          "midi": 60,
          "name": "C4",
          "ticks": 62176,
          "time": 83.03410499999998,
          "velocity": 0.5354330708661418
        },
        {
          "duration": 0.13888875000000667,
          "durationTicks": 104,
          "midi": 77,
          "name": "F5",
          "ticks": 62179,
          "time": 83.03811140624998,
          "velocity": 0.6299212598425197
        },
        {
          "duration": 0.06677343749998954,
          "durationTicks": 50,
          "midi": 58,
          "name": "A#3",
          "ticks": 62279,
          "time": 83.17165828124999,
          "velocity": 0.3700787401574803
        },
        {
          "duration": 0.056089687500005425,
          "durationTicks": 42,
          "midi": 74,
          "name": "D5",
          "ticks": 62283,
          "time": 83.17700015624999,
          "velocity": 0.5748031496062992
        },
        {
          "duration": 0.05876062500000501,
          "durationTicks": 44,
          "midi": 72,
          "name": "C5",
          "ticks": 62394,
          "time": 83.3252371875,
          "velocity": 0.5118110236220472
        },
        {
          "duration": 0.056089687500005425,
          "durationTicks": 42,
          "midi": 57,
          "name": "A3",
          "ticks": 62399,
          "time": 83.33191453124999,
          "velocity": 0.4015748031496063
        },
        {
          "duration": 0.1188567187499956,
          "durationTicks": 89,
          "midi": 77,
          "name": "F5",
          "ticks": 62405,
          "time": 83.33992734374999,
          "velocity": 0.5826771653543307
        },
        {
          "duration": 0.0600960937500048,
          "durationTicks": 45,
          "midi": 75,
          "name": "D#5",
          "ticks": 62502,
          "time": 83.46946781249999,
          "velocity": 0.5669291338582677
        },
        {
          "duration": 0.07612171875000229,
          "durationTicks": 57,
          "midi": 60,
          "name": "C4",
          "ticks": 62502,
          "time": 83.46946781249999,
          "velocity": 0.3858267716535433
        },
        {
          "duration": 0.09348281249999957,
          "durationTicks": 70,
          "midi": 74,
          "name": "D5",
          "ticks": 62625,
          "time": 83.63373046874999,
          "velocity": 0.6220472440944882
        },
        {
          "duration": 0.18696562500001335,
          "durationTicks": 140,
          "midi": 77,
          "name": "F5",
          "ticks": 62625,
          "time": 83.63373046874999,
          "velocity": 0.6535433070866141
        },
        {
          "duration": 0.2964740625000104,
          "durationTicks": 222,
          "midi": 58,
          "name": "A#3",
          "ticks": 62634,
          "time": 83.64574968749999,
          "velocity": 0.3700787401574803
        },
        {
          "duration": 0.15090796875000478,
          "durationTicks": 113,
          "midi": 75,
          "name": "D#5",
          "ticks": 62740,
          "time": 83.78730937499999,
          "velocity": 0.5748031496062992
        },
        {
          "duration": 0.12419859374999476,
          "durationTicks": 93,
          "midi": 72,
          "name": "C5",
          "ticks": 62743,
          "time": 83.79131578124999,
          "velocity": 0.5354330708661418
        },
        {
          "duration": 0.12419859374999476,
          "durationTicks": 93,
          "midi": 70,
          "name": "A#4",
          "ticks": 62856,
          "time": 83.94222375,
          "velocity": 0.4409448818897638
        },
        {
          "duration": 0.12553406249999455,
          "durationTicks": 94,
          "midi": 74,
          "name": "D5",
          "ticks": 62871,
          "time": 83.96225578125,
          "velocity": 0.5433070866141733
        },
        {
          "duration": 0.14289515625000604,
          "durationTicks": 107,
          "midi": 75,
          "name": "D#5",
          "ticks": 62959,
          "time": 84.07977703124999,
          "velocity": 0.4881889763779528
        },
        {
          "duration": 0.06677343750000375,
          "durationTicks": 50,
          "midi": 72,
          "name": "C5",
          "ticks": 62971,
          "time": 84.09580265624999,
          "velocity": 0.4015748031496063
        },
        {
          "duration": 0.0747862500000025,
          "durationTicks": 56,
          "midi": 69,
          "name": "A4",
          "ticks": 63095,
          "time": 84.26140078124999,
          "velocity": 0.4330708661417323
        },
        {
          "duration": 0.15090796874999057,
          "durationTicks": 113,
          "midi": 77,
          "name": "F5",
          "ticks": 63095,
          "time": 84.26140078124999,
          "velocity": 0.5905511811023622
        },
        {
          "duration": 0.14022421874999225,
          "durationTicks": 105,
          "midi": 70,
          "name": "A#4",
          "ticks": 63191,
          "time": 84.38960578125,
          "velocity": 0.48031496062992124
        },
        {
          "duration": 0.0600960937500048,
          "durationTicks": 45,
          "midi": 72,
          "name": "C5",
          "ticks": 63319,
          "time": 84.56054578124998,
          "velocity": 0.47244094488188976
        },
        {
          "duration": 0.10283109375001231,
          "durationTicks": 77,
          "midi": 77,
          "name": "F5",
          "ticks": 63319,
          "time": 84.56054578124998,
          "velocity": 0.5039370078740157
        },
        {
          "duration": 0.09214734374999978,
          "durationTicks": 69,
          "midi": 57,
          "name": "A3",
          "ticks": 63327,
          "time": 84.57122953125,
          "velocity": 0.3779527559055118
        },
        {
          "duration": 0.05208328124999184,
          "durationTicks": 39,
          "midi": 74,
          "name": "D5",
          "ticks": 63427,
          "time": 84.70477640624999,
          "velocity": 0.5433070866141733
        },
        {
          "duration": 0.07745718750000208,
          "durationTicks": 58,
          "midi": 58,
          "name": "A#3",
          "ticks": 63436,
          "time": 84.71679562499999,
          "velocity": 0.33070866141732286
        },
        {
          "duration": 0.07745718750001629,
          "durationTicks": 58,
          "midi": 75,
          "name": "D#5",
          "ticks": 63547,
          "time": 84.86503265624998,
          "velocity": 0.48031496062992124
        },
        {
          "duration": 0.09348281250001378,
          "durationTicks": 70,
          "midi": 60,
          "name": "C4",
          "ticks": 63547,
          "time": 84.86503265624998,
          "velocity": 0.4881889763779528
        },
        {
          "duration": 0.1482370312500052,
          "durationTicks": 111,
          "midi": 77,
          "name": "F5",
          "ticks": 63553,
          "time": 84.87304546874998,
          "velocity": 0.5669291338582677
        },
        {
          "duration": 0.06410249999998996,
          "durationTicks": 48,
          "midi": 74,
          "name": "D5",
          "ticks": 63653,
          "time": 85.00659234375,
          "velocity": 0.5748031496062992
        },
        {
          "duration": 0.08146359375001566,
          "durationTicks": 61,
          "midi": 58,
          "name": "A#3",
          "ticks": 63670,
          "time": 85.02929531249998,
          "velocity": 0.3543307086614173
        },
        {
          "duration": 0.1041665625000121,
          "durationTicks": 78,
          "midi": 77,
          "name": "F5",
          "ticks": 63779,
          "time": 85.17486140624999,
          "velocity": 0.5669291338582677
        },
        {
          "duration": 0.056089687500005425,
          "durationTicks": 42,
          "midi": 72,
          "name": "C5",
          "ticks": 63779,
          "time": 85.17486140624999,
          "velocity": 0.49606299212598426
        },
        {
          "duration": 0.0747862500000025,
          "durationTicks": 56,
          "midi": 57,
          "name": "A3",
          "ticks": 63786,
          "time": 85.18420968749999,
          "velocity": 0.31496062992125984
        },
        {
          "duration": 0.05876062500000501,
          "durationTicks": 44,
          "midi": 75,
          "name": "D#5",
          "ticks": 63882,
          "time": 85.3124146875,
          "velocity": 0.5275590551181102
        },
        {
          "duration": 0.07745718750000208,
          "durationTicks": 58,
          "midi": 60,
          "name": "C4",
          "ticks": 63907,
          "time": 85.34580140624999,
          "velocity": 0.25984251968503935
        },
        {
          "duration": 0.04807687500000668,
          "durationTicks": 36,
          "midi": 77,
          "name": "F5",
          "ticks": 64009,
          "time": 85.48201921874998,
          "velocity": 0.6377952755905512
        },
        {
          "duration": 0.041399531250007726,
          "durationTicks": 31,
          "midi": 74,
          "name": "D5",
          "ticks": 64009,
          "time": 85.48201921874998,
          "velocity": 0.5511811023622047
        },
        {
          "duration": 0.05341874999999163,
          "durationTicks": 40,
          "midi": 58,
          "name": "A#3",
          "ticks": 64020,
          "time": 85.496709375,
          "velocity": 0.47244094488188976
        },
        {
          "duration": 0.05208328124999184,
          "durationTicks": 39,
          "midi": 53,
          "name": "F3",
          "ticks": 64155,
          "time": 85.67699765625,
          "velocity": 0.47244094488188976
        },
        {
          "duration": 0.11618578124999601,
          "durationTicks": 87,
          "midi": 53,
          "name": "F3",
          "ticks": 64279,
          "time": 85.84259578124998,
          "velocity": 0.5590551181102362
        },
        {
          "duration": 0.10283109374998389,
          "durationTicks": 77,
          "midi": 50,
          "name": "D3",
          "ticks": 64289,
          "time": 85.85595046875,
          "velocity": 0.3700787401574803
        },
        {
          "duration": 0.17094000000000165,
          "durationTicks": 128,
          "midi": 51,
          "name": "D#3",
          "ticks": 64378,
          "time": 85.97480718749999,
          "velocity": 0.49606299212598426
        },
        {
          "duration": 0.07612171875000229,
          "durationTicks": 57,
          "midi": 55,
          "name": "G3",
          "ticks": 64392,
          "time": 85.99350374999999,
          "velocity": 0.6377952755905512
        },
        {
          "duration": 0.04674140625000689,
          "durationTicks": 35,
          "midi": 57,
          "name": "A3",
          "ticks": 64509,
          "time": 86.14975359374999,
          "velocity": 0.6299212598425197
        },
        {
          "duration": 0.06276703124999017,
          "durationTicks": 47,
          "midi": 53,
          "name": "F3",
          "ticks": 64523,
          "time": 86.16845015624999,
          "velocity": 0.7007874015748031
        },
        {
          "duration": 0.0734507812499885,
          "durationTicks": 55,
          "midi": 58,
          "name": "A#3",
          "ticks": 64620,
          "time": 86.297990625,
          "velocity": 0.4251968503937008
        },
        {
          "duration": 0.15624984375000395,
          "durationTicks": 117,
          "midi": 53,
          "name": "F3",
          "ticks": 64751,
          "time": 86.47293703125,
          "velocity": 0.6062992125984252
        },
        {
          "duration": 0.14022421874999225,
          "durationTicks": 105,
          "midi": 69,
          "name": "A4",
          "ticks": 64751,
          "time": 86.47293703125,
          "velocity": 0.5196850393700787
        },
        {
          "duration": 0.12686953124999434,
          "durationTicks": 95,
          "midi": 60,
          "name": "C4",
          "ticks": 64751,
          "time": 86.47293703125,
          "velocity": 0.4881889763779528
        },
        {
          "duration": 0.16025625000000332,
          "durationTicks": 120,
          "midi": 70,
          "name": "A#4",
          "ticks": 64856,
          "time": 86.61316124999999,
          "velocity": 0.5354330708661418
        },
        {
          "duration": 0.06009609374999059,
          "durationTicks": 45,
          "midi": 62,
          "name": "D4",
          "ticks": 64868,
          "time": 86.629186875,
          "velocity": 0.5354330708661418
        },
        {
          "duration": 0.08146359375000145,
          "durationTicks": 61,
          "midi": 63,
          "name": "D#4",
          "ticks": 64985,
          "time": 86.78543671874999,
          "velocity": 0.5669291338582677
        },
        {
          "duration": 0.16693359374998806,
          "durationTicks": 125,
          "midi": 72,
          "name": "C5",
          "ticks": 64988,
          "time": 86.78944312499999,
          "velocity": 0.48031496062992124
        },
        {
          "duration": 0.1322114062499935,
          "durationTicks": 99,
          "midi": 53,
          "name": "F3",
          "ticks": 65006,
          "time": 86.8134815625,
          "velocity": 0.6692913385826772
        },
        {
          "duration": 0.18563015624998513,
          "durationTicks": 139,
          "midi": 70,
          "name": "A#4",
          "ticks": 65090,
          "time": 86.9256609375,
          "velocity": 0.47244094488188976
        },
        {
          "duration": 0.0600960937500048,
          "durationTicks": 45,
          "midi": 62,
          "name": "D4",
          "ticks": 65098,
          "time": 86.93634468749998,
          "velocity": 0.4094488188976378
        },
        {
          "duration": 0.1776173437499864,
          "durationTicks": 133,
          "midi": 69,
          "name": "A4",
          "ticks": 65213,
          "time": 87.08992359375,
          "velocity": 0.47244094488188976
        },
        {
          "duration": 0.11351484374999643,
          "durationTicks": 85,
          "midi": 53,
          "name": "F3",
          "ticks": 65229,
          "time": 87.11129109374998,
          "velocity": 0.49606299212598426
        },
        {
          "duration": 0.04807687499999247,
          "durationTicks": 36,
          "midi": 60,
          "name": "C4",
          "ticks": 65235,
          "time": 87.11930390625,
          "velocity": 0.5039370078740157
        },
        {
          "duration": 0.0747862500000025,
          "durationTicks": 56,
          "midi": 63,
          "name": "D#4",
          "ticks": 65322,
          "time": 87.23548968749999,
          "velocity": 0.5511811023622047
        },
        {
          "duration": 0.07879265625000187,
          "durationTicks": 59,
          "midi": 72,
          "name": "C5",
          "ticks": 65322,
          "time": 87.23548968749999,
          "velocity": 0.48031496062992124
        },
        {
          "duration": 0.04807687499999247,
          "durationTicks": 36,
          "midi": 70,
          "name": "A#4",
          "ticks": 65439,
          "time": 87.39173953125,
          "velocity": 0.4330708661417323
        },
        {
          "duration": 0.0734507812499885,
          "durationTicks": 55,
          "midi": 53,
          "name": "F3",
          "ticks": 65439,
          "time": 87.39173953125,
          "velocity": 0.7637795275590551
        },
        {
          "duration": 0.10683749999999748,
          "durationTicks": 80,
          "midi": 62,
          "name": "D4",
          "ticks": 65453,
          "time": 87.41043609375,
          "velocity": 0.6299212598425197
        },
        {
          "duration": 0.13755328124999266,
          "durationTicks": 103,
          "midi": 51,
          "name": "D#3",
          "ticks": 65570,
          "time": 87.5666859375,
          "velocity": 0.5039370078740157
        },
        {
          "duration": 0.06677343750000375,
          "durationTicks": 50,
          "midi": 60,
          "name": "C4",
          "ticks": 65581,
          "time": 87.58137609374998,
          "velocity": 0.4094488188976378
        },
        {
          "duration": 0.13755328124999266,
          "durationTicks": 103,
          "midi": 58,
          "name": "A#3",
          "ticks": 65679,
          "time": 87.71225203124999,
          "velocity": 0.4645669291338583
        },
        {
          "duration": 0.149572500000005,
          "durationTicks": 112,
          "midi": 50,
          "name": "D3",
          "ticks": 65686,
          "time": 87.72160031249999,
          "velocity": 0.4015748031496063
        },
        {
          "duration": 0.18028828125000018,
          "durationTicks": 135,
          "midi": 51,
          "name": "D#3",
          "ticks": 65782,
          "time": 87.84980531249998,
          "velocity": 0.5748031496062992
        },
        {
          "duration": 0.14022421874999225,
          "durationTicks": 105,
          "midi": 60,
          "name": "C4",
          "ticks": 65787,
          "time": 87.85648265625,
          "velocity": 0.5275590551181102
        },
        {
          "duration": 0.07478625000001671,
          "durationTicks": 56,
          "midi": 57,
          "name": "A3",
          "ticks": 65904,
          "time": 88.01273249999998,
          "velocity": 0.6535433070866141
        },
        {
          "duration": 0.0894764062500002,
          "durationTicks": 67,
          "midi": 53,
          "name": "F3",
          "ticks": 65924,
          "time": 88.039441875,
          "velocity": 0.7716535433070866
        },
        {
          "duration": 0.09748921874999894,
          "durationTicks": 73,
          "midi": 58,
          "name": "A#3",
          "ticks": 66021,
          "time": 88.16898234374999,
          "velocity": 0.5118110236220472
        },
        {
          "duration": 0.14289515624999183,
          "durationTicks": 107,
          "midi": 60,
          "name": "C4",
          "ticks": 66146,
          "time": 88.33591593749999,
          "velocity": 0.6062992125984252
        },
        {
          "duration": 0.17094000000000165,
          "durationTicks": 128,
          "midi": 69,
          "name": "A4",
          "ticks": 66146,
          "time": 88.33591593749999,
          "velocity": 0.5511811023622047
        },
        {
          "duration": 0.15357890625000437,
          "durationTicks": 115,
          "midi": 53,
          "name": "F3",
          "ticks": 66163,
          "time": 88.35861890624999,
          "velocity": 0.6141732283464567
        },
        {
          "duration": 0.17094000000000165,
          "durationTicks": 128,
          "midi": 70,
          "name": "A#4",
          "ticks": 66253,
          "time": 88.47881109374998,
          "velocity": 0.5590551181102362
        },
        {
          "duration": 0.0894764062500144,
          "durationTicks": 67,
          "midi": 62,
          "name": "D4",
          "ticks": 66268,
          "time": 88.49884312499998,
          "velocity": 0.5669291338582677
        },
        {
          "duration": 0.08413453125000103,
          "durationTicks": 63,
          "midi": 63,
          "name": "D#4",
          "ticks": 66384,
          "time": 88.65375749999998,
          "velocity": 0.5984251968503937
        },
        {
          "duration": 0.17094000000000165,
          "durationTicks": 128,
          "midi": 72,
          "name": "C5",
          "ticks": 66391,
          "time": 88.66310578124998,
          "velocity": 0.5511811023622047
        },
        {
          "duration": 0.1348823437500073,
          "durationTicks": 101,
          "midi": 53,
          "name": "F3",
          "ticks": 66399,
          "time": 88.67378953125,
          "velocity": 0.7874015748031497
        },
        {
          "duration": 0.06944437499998912,
          "durationTicks": 52,
          "midi": 62,
          "name": "D4",
          "ticks": 66492,
          "time": 88.79798812499999,
          "velocity": 0.5826771653543307
        },
        {
          "duration": 0.18563015624999935,
          "durationTicks": 139,
          "midi": 70,
          "name": "A#4",
          "ticks": 66495,
          "time": 88.80199453124999,
          "velocity": 0.47244094488188976
        },
        {
          "duration": 0.17494640625000102,
          "durationTicks": 131,
          "midi": 69,
          "name": "A4",
          "ticks": 66620,
          "time": 88.96892812499999,
          "velocity": 0.5354330708661418
        },
        {
          "duration": 0.12286312499999497,
          "durationTicks": 92,
          "midi": 53,
          "name": "F3",
          "ticks": 66628,
          "time": 88.97961187499999,
          "velocity": 0.7480314960629921
        },
        {
          "duration": 0.056089687499991214,
          "durationTicks": 42,
          "midi": 60,
          "name": "C4",
          "ticks": 66634,
          "time": 88.98762468749999,
          "velocity": 0.5905511811023622
        },
        {
          "duration": 0.1335468749999933,
          "durationTicks": 100,
          "midi": 72,
          "name": "C5",
          "ticks": 66734,
          "time": 89.1211715625,
          "velocity": 0.5905511811023622
        },
        {
          "duration": 0.10817296874999727,
          "durationTicks": 81,
          "midi": 63,
          "name": "D#4",
          "ticks": 66734,
          "time": 89.1211715625,
          "velocity": 0.6220472440944882
        },
        {
          "duration": 0.11485031249998201,
          "durationTicks": 86,
          "midi": 70,
          "name": "A#4",
          "ticks": 66860,
          "time": 89.289440625,
          "velocity": 0.6141732283464567
        },
        {
          "duration": 0.11485031249998201,
          "durationTicks": 86,
          "midi": 62,
          "name": "D4",
          "ticks": 66860,
          "time": 89.289440625,
          "velocity": 0.7401574803149606
        },
        {
          "duration": 0.16693359375000227,
          "durationTicks": 125,
          "midi": 53,
          "name": "F3",
          "ticks": 66870,
          "time": 89.3027953125,
          "velocity": 0.7480314960629921
        },
        {
          "duration": 0.14423062500000583,
          "durationTicks": 108,
          "midi": 51,
          "name": "D#3",
          "ticks": 66982,
          "time": 89.45236781249999,
          "velocity": 0.6456692913385826
        },
        {
          "duration": 0.23370703125000603,
          "durationTicks": 175,
          "midi": 70,
          "name": "A#4",
          "ticks": 67105,
          "time": 89.61663046874999,
          "velocity": 0.5984251968503937
        },
        {
          "duration": 0.18563015625001356,
          "durationTicks": 139,
          "midi": 50,
          "name": "D3",
          "ticks": 67108,
          "time": 89.62063687499999,
          "velocity": 0.6692913385826772
        },
        {
          "duration": 0.17494640625000102,
          "durationTicks": 131,
          "midi": 79,
          "name": "G5",
          "ticks": 67108,
          "time": 89.62063687499999,
          "velocity": 0.7874015748031497
        },
        {
          "duration": 0.1629271875000029,
          "durationTicks": 122,
          "midi": 51,
          "name": "D#3",
          "ticks": 67233,
          "time": 89.78757046874999,
          "velocity": 0.6299212598425197
        },
        {
          "duration": 0.7278304687499997,
          "durationTicks": 545,
          "midi": 70,
          "name": "A#4",
          "ticks": 67367,
          "time": 89.96652328124999,
          "velocity": 0.6299212598425197
        },
        {
          "duration": 0.8146359375000003,
          "durationTicks": 610,
          "midi": 74,
          "name": "D5",
          "ticks": 67367,
          "time": 89.96652328124999,
          "velocity": 0.7716535433070866
        },
        {
          "duration": 0.15224343749999036,
          "durationTicks": 114,
          "midi": 53,
          "name": "F3",
          "ticks": 67381,
          "time": 89.98521984374999,
          "velocity": 0.7559055118110236
        },
        {
          "duration": 0.2817839062499985,
          "durationTicks": 211,
          "midi": 51,
          "name": "D#3",
          "ticks": 67640,
          "time": 90.33110624999999,
          "velocity": 0.6692913385826772
        },
        {
          "duration": 0.5288456250000024,
          "durationTicks": 396,
          "midi": 69,
          "name": "A4",
          "ticks": 67926,
          "time": 90.71305031249999,
          "velocity": 0.5433070866141733
        },
        {
          "duration": 1.2686953125000002,
          "durationTicks": 950,
          "midi": 72,
          "name": "C5",
          "ticks": 67926,
          "time": 90.71305031249999,
          "velocity": 0.7007874015748031
        },
        {
          "duration": 0.3498928124999878,
          "durationTicks": 262,
          "midi": 53,
          "name": "F3",
          "ticks": 67931,
          "time": 90.71972765625,
          "velocity": 0.7559055118110236
        },
        {
          "duration": 0.7077984375000028,
          "durationTicks": 530,
          "midi": 63,
          "name": "D#4",
          "ticks": 68263,
          "time": 91.16310328124999,
          "velocity": 0.7007874015748031
        },
        {
          "duration": 0.7411851562499976,
          "durationTicks": 555,
          "midi": 41,
          "name": "F2",
          "ticks": 68267,
          "time": 91.16844515625,
          "velocity": 0.6535433070866141
        },
        {
          "duration": 2.7697621874999925,
          "durationTicks": 2074,
          "midi": 62,
          "name": "D4",
          "ticks": 68813,
          "time": 91.89761109375,
          "velocity": 0.5984251968503937
        },
        {
          "duration": 2.8084907812499864,
          "durationTicks": 2103,
          "midi": 70,
          "name": "A#4",
          "ticks": 68813,
          "time": 91.89761109375,
          "velocity": 0.5826771653543307
        },
        {
          "duration": 2.7911296875000033,
          "durationTicks": 2090,
          "midi": 46,
          "name": "A#2",
          "ticks": 68817,
          "time": 91.90295296874999,
          "velocity": 0.4881889763779528
        }
      ]
    }
  ]
}
